<svg xmlns="http://www.w3.org/2000/svg" width="15" height="19" viewBox="0 0 15 19"><path fill="#1A7EF5" d="M7.32291667,1.77635684e-15 C11.3607953,1.77635684e-15 14.6458333,3.22069817 14.6458333,7.17949209 C14.6458333,9.10257033 13.4574659,11.5721691 11.113759,14.5193506 C10.0399954,15.8661233 8.87717171,17.1423017 7.6327956,18.3396462 C7.45946406,18.5021692 7.18636927,18.5021692 7.01303773,18.3396462 C5.76866162,17.1423017 4.60583797,15.8661233 3.53207435,14.5193506 C1.1883674,11.5721691 -3.55271368e-15,9.10257033 -3.55271368e-15,7.17949209 C-3.55271368e-15,3.22069817 3.285038,1.77635684e-15 7.32291667,1.77635684e-15 Z M7.32291667,2.05128345 C4.43858418,2.05128345 2.0922619,4.35165133 2.0922619,7.17949209 C2.0922619,10.0073329 4.43858418,12.3077007 7.32291667,12.3077007 C10.2072491,12.3077007 12.5535714,10.0073329 12.5535714,7.17949209 C12.5535714,4.35165133 10.2072491,2.05128345 7.32291667,2.05128345 Z M7.04292206,3.94617493 C7.20168625,3.81281348 7.44414709,3.81281348 7.60291127,3.94617493 L7.60291127,3.94617493 L10.6553797,6.51028214 C10.8020019,6.63348208 10.8343549,6.83508935 10.732732,6.99230225 C10.6536293,7.11039183 10.5132527,7.1814523 10.3629671,7.17948207 L10.3629671,7.17948207 L9.95913938,7.17948207 L9.95913938,9.61538392 C9.95913938,9.82780151 9.77277984,10 9.54289369,10 L9.54289369,10 L8.57165374,10 C8.34176759,10 8.15540805,9.82780151 8.15540805,9.61538392 L8.15540805,9.61538392 L8.15540805,8.20512495 C8.15540805,7.99270736 7.96904851,7.82050887 7.73916236,7.82050887 L7.73916236,7.82050887 L6.90667098,7.82050887 C6.67678483,7.82050887 6.49042528,7.99270736 6.49042528,8.20512495 L6.49042528,8.20512495 L6.49042528,9.61538392 C6.49042528,9.82780151 6.30406574,10 6.07417959,10 L6.07417959,10 L5.10293965,10 C4.8730535,10 4.68669395,9.82780151 4.68669395,9.61538392 L4.68669395,9.61538392 L4.68669395,7.17948207 L4.28286626,7.17948207 C4.13258066,7.1814523 3.99220404,7.11039183 3.91310134,6.99230225 C3.81147842,6.83508935 3.84383141,6.63348208 3.99045366,6.51028214 L3.99045366,6.51028214 Z" transform="translate(.177 .27)"/></svg>