<?xml version="1.0" encoding="UTF-8"?>
<svg width="15px" height="22px" viewBox="0 0 15 22" version="1.1" xmlns="http://www.w3.org/2000/svg" xmlns:xlink="http://www.w3.org/1999/xlink">
    <title>codepromo</title>
    <g id="Welcome" stroke="none" stroke-width="1" fill="none" fill-rule="evenodd">
        <g id="Marchand-/-Mes_Commandes-/-Détails" transform="translate(-1025.000000, -190.000000)" fill="#9B9B9B" fill-rule="nonzero">
            <g id="Head" transform="translate(119.000000, 176.000000)">
                <g id="Zone-menu" transform="translate(329.000000, 0.000000)">
                    <g id="Group-6" transform="translate(559.500000, 6.000000)">
                        <g id="codepromo" transform="translate(17.500000, 8.500000)">
                            <path d="M5.35717093,4.72548175 C5.35717093,4.43555644 5.11732661,4.20052554 4.82146366,4.20052554 L3.75004912,4.20052554 C3.45418617,4.20052554 3.21434186,4.43555644 3.21434186,4.72548175 C3.21434186,5.01540705 3.45418617,5.25043795 3.75004912,5.25043795 L4.82146366,5.25043795 C5.11732661,5.25043795 5.35717093,5.01540705 5.35717093,4.72548175 Z" id="Path"></path>
                            <path d="M6.96429273,5.25043795 L8.03570727,5.25043795 C8.33157022,5.25043795 8.57141454,5.01540705 8.57141454,4.72548175 C8.57141454,4.43555644 8.33157022,4.20052554 8.03570727,4.20052554 L6.96429273,4.20052554 C6.66842978,4.20052554 6.42858546,4.43555644 6.42858546,4.72548175 C6.42858546,5.01540705 6.66842978,5.25043795 6.96429273,5.25043795 Z" id="Path"></path>
                            <path d="M9.80354125,9.08261825 L4.44646857,14.3321803 C4.34141531,14.426634 4.28161089,14.5599386 4.28161089,14.6996496 C4.28161089,14.8393607 4.34141531,14.9726653 4.44646857,15.067119 C4.54285668,15.1700639 4.67889138,15.2286682 4.82146366,15.2286682 C4.96403594,15.2286682 5.10007064,15.1700639 5.19645875,15.067119 L10.5535314,9.81755693 C10.7134884,9.60856121 10.6922789,9.31611098 10.5037679,9.13138312 C10.3152568,8.94665525 10.0168172,8.92587145 9.80354125,9.08261825 L9.80354125,9.08261825 Z" id="Path"></path>
                            <ellipse id="Oval" cx="5.35717093" cy="9.9750438" rx="1.07141454" ry="1.04991241"></ellipse>
                            <ellipse id="Oval" cx="9.64282907" cy="14.1746934" rx="1.07141454" ry="1.04991241"></ellipse>
                            <path d="M14.7320481,0.0796193321 C14.5699098,-0.0265397774 14.3584792,-0.0265397774 14.1963409,0.0796193321 L11.8124435,1.47075328 L9.96425343,0.105867142 C9.77107904,-0.0259427834 9.51457911,-0.0259427834 9.32140471,0.105867142 L7.5,1.44450546 L5.67859529,0.105867142 C5.48542089,-0.0259427834 5.22892096,-0.0259427834 5.03574657,0.105867142 L3.18755649,1.47075328 L0.803659149,0.0796193321 C0.641520802,-0.0265397774 0.430090228,-0.0265397774 0.267951881,0.0796193321 C0.100709845,0.167742235 -0.00255816123,0.339774635 4.81999782e-05,0.525832106 L4.81999782e-05,20.4741679 C-0.00255816123,20.6602254 0.100709845,20.8322578 0.267951881,20.9203807 C0.430090228,21.0265398 0.641520802,21.0265398 0.803659149,20.9203807 L3.18755649,19.5292467 L5.03574657,20.8941329 C5.22892096,21.0259428 5.48542089,21.0259428 5.67859529,20.8941329 L7.5,19.5554945 L9.32140471,20.8941329 C9.51457911,21.0259428 9.77107904,21.0259428 9.96425343,20.8941329 L11.8124435,19.5292467 L14.1963409,20.9203807 C14.2749867,20.97351 14.3686916,21.0010573 14.4641945,20.9991241 C14.7542756,20.9858815 14.986388,20.7584274 14.9999518,20.4741679 L14.9999518,0.525832106 C15.0025582,0.339774635 14.8992902,0.167742235 14.7320481,0.0796193321 Z M12.0535118,18.4530865 C11.8694142,18.3455302 11.6376147,18.3558551 11.4642338,18.4793343 L9.64282907,19.8179726 L7.82142436,18.4793343 C7.63095067,18.339346 7.36904933,18.339346 7.17857564,18.4793343 L5.35717093,19.8179726 L3.53576622,18.4793343 C3.3623853,18.3558551 3.13058582,18.3455302 2.94648822,18.4530865 L1.07151278,19.5554945 L1.07151278,5.25043795 L1.60722005,5.25043795 C1.90308301,5.25043795 2.14292732,5.01540705 2.14292732,4.72548175 C2.14292732,4.43555644 1.90308301,4.20052554 1.60722005,4.20052554 L1.07151278,4.20052554 L1.07151278,1.44450546 L2.94648822,2.5469135 C3.13058582,2.65446984 3.3623853,2.64414495 3.53576622,2.52066568 L5.35717093,1.18202736 L7.17857564,2.52066568 C7.37175003,2.65247561 7.62824997,2.65247561 7.82142436,2.52066568 L9.64282907,1.18202736 L11.4642338,2.52066568 C11.6376147,2.64414495 11.8694142,2.65446984 12.0535118,2.5469135 L13.9284872,1.44450546 L13.9284872,4.20052554 L13.3927799,4.20052554 C13.096917,4.20052554 12.8570727,4.43555644 12.8570727,4.72548175 C12.8570727,5.01540705 13.096917,5.25043795 13.3927799,5.25043795 L13.9284872,5.25043795 L13.9284872,19.5554945 L12.0535118,18.4530865 Z" id="Shape"></path>
                            <path d="M11.2499509,4.20052554 L10.1785363,4.20052554 C9.88267339,4.20052554 9.64282907,4.43555644 9.64282907,4.72548175 C9.64282907,5.01540705 9.88267339,5.25043795 10.1785363,5.25043795 L11.2499509,5.25043795 C11.5458138,5.25043795 11.7856581,5.01540705 11.7856581,4.72548175 C11.7856581,4.43555644 11.5458138,4.20052554 11.2499509,4.20052554 Z" id="Path"></path>
                        </g>
                    </g>
                </g>
            </g>
        </g>
    </g>
</svg>