<?xml version="1.0" encoding="UTF-8"?>
<svg width="16px" height="22px" viewBox="0 0 16 22" version="1.1" xmlns="http://www.w3.org/2000/svg" xmlns:xlink="http://www.w3.org/1999/xlink">
    <title>EC8B5730-4553-462B-8A82-82BE07B50795</title>
    <g id="Welcome" stroke="none" stroke-width="1" fill="none" fill-rule="evenodd">
        <g id="Marchand-/-Mes_Commandes-/-Détails" transform="translate(-965.000000, -190.000000)" fill="#1A7EF5" fill-rule="nonzero">
            <g id="Head" transform="translate(119.000000, 176.000000)">
                <g id="Zone-menu" transform="translate(329.000000, 0.000000)">
                    <g id="Group-8" transform="translate(480.500000, 6.000000)">
                        <g id="gestionbleu" transform="translate(37.000000, 8.500000)">
                            <path d="M0.462962963,-1.78325634e-15 C0.209876543,-1.78325634e-15 0,0.213325366 0,0.47057066 L0,19.2683 C0,19.3624141 0.024691358,19.450254 0.0802469136,19.5318195 C0.111111111,19.5820137 0.154320988,19.6196594 0.197530864,19.657305 L1.95679012,20.9121601 C2.11728395,21.0250971 2.32716049,21.0250971 2.48765432,20.9121601 L3.98148148,19.8455333 L5.47530864,20.9121601 C5.63580247,21.0250971 5.84567901,21.0250971 6.00617284,20.9121601 L7.5,19.8455333 L8.99382716,20.9121601 C9.07407407,20.9686286 9.16666667,21 9.25925926,21 C9.35185185,21 9.44444444,20.9686286 9.52469136,20.9121601 L11.0185185,19.8455333 L12.5123457,20.9121601 C12.6728395,21.0250971 12.882716,21.0250971 13.0432099,20.9121601 L14.8024691,19.657305 C14.8641975,19.6133851 14.9074074,19.5631909 14.9444444,19.5004482 C14.9814815,19.4314311 15,19.3561398 15,19.2745742 L15,0.47057066 C15,0.213325366 14.7901235,-1.78325634e-15 14.537037,-1.78325634e-15 L0.462962963,-1.78325634e-15 Z M14.0740741,19.0236032 L12.7777778,19.9459217 L11.2839506,18.8792949 C11.2037037,18.8228264 11.1111111,18.791455 11.0185185,18.791455 C10.9259259,18.791455 10.8333333,18.8228264 10.7530864,18.8792949 L9.25925926,19.9459217 L7.7654321,18.8792949 C7.60493827,18.7663579 7.39506173,18.7663579 7.2345679,18.8792949 L5.74074074,19.9459217 L4.24691358,18.8792949 C4.08641975,18.7663579 3.87654321,18.7663579 3.71604938,18.8792949 L2.22222222,19.9459217 L0.925925926,19.0236032 L0.925925926,0.941141321 L14.0740741,0.941141321 L14.0740741,19.0236032 L14.0740741,19.0236032 Z" id="Shape"></path>
                            <path d="M3.24074074,4.76217508 L3.82716049,4.76217508 L5.02469136,7.90558709 C5.09259259,8.08754108 5.2654321,8.20675232 5.45679012,8.20675232 L9.54320988,8.20675232 C9.7345679,8.20675232 9.90740741,8.08754108 9.97530864,7.90558709 L11.1728395,4.76217508 L11.7592593,4.76217508 C12.0123457,4.76217508 12.2222222,4.54884972 12.2222222,4.29160442 C12.2222222,4.03435913 12.0123457,3.82103376 11.7592593,3.82103376 L10.2345679,3.82103376 L9.7962963,2.44069316 C9.71604938,2.19599641 9.45679012,2.05796235 9.21604938,2.13952794 C8.97530864,2.22109352 8.83950617,2.48461309 8.91975309,2.72930983 L9.2654321,3.82103376 L5.74691358,3.82103376 L6.09259259,2.72930983 C6.17283951,2.48461309 6.03703704,2.21481924 5.7962963,2.13952794 C5.55555556,2.05796235 5.29012346,2.19599641 5.21604938,2.44069316 L4.77777778,3.82103376 L3.24074074,3.82103376 C2.98765432,3.82103376 2.77777778,4.03435913 2.77777778,4.29160442 C2.77777778,4.54884972 2.98765432,4.76217508 3.24074074,4.76217508 Z M9.22839506,7.26561099 L5.77160494,7.26561099 L4.81481481,4.76217508 L5.09876543,4.76217508 C5.09876543,4.76217508 5.09876543,4.76217508 5.09876543,4.76217508 C5.09876543,4.76217508 5.09876543,4.76217508 5.09876543,4.76217508 L9.88888889,4.76217508 C9.88888889,4.76217508 9.88888889,4.76217508 9.88888889,4.76217508 C9.88888889,4.76217508 9.88888889,4.76217508 9.88888889,4.76217508 L10.1728395,4.76217508 L9.22839506,7.26561099 Z" id="Shape"></path>
                            <path d="M9.41975309,9.60591575 L3.5308642,9.60591575 C3.27777778,9.60591575 3.06790123,9.81924111 3.06790123,10.0764864 C3.06790123,10.3337317 3.27777778,10.5470571 3.5308642,10.5470571 L9.41975309,10.5470571 C9.67283951,10.5470571 9.88271605,10.3337317 9.88271605,10.0764864 C9.88271605,9.81924111 9.67283951,9.60591575 9.41975309,9.60591575 Z" id="Path"></path>
                            <path d="M10.7345679,10.0764864 C10.7345679,10.3337317 10.9444444,10.5470571 11.1975309,10.5470571 L12.3641975,10.5470571 C12.617284,10.5470571 12.8271605,10.3337317 12.8271605,10.0764864 C12.8271605,9.81924111 12.617284,9.60591575 12.3641975,9.60591575 L11.1975309,9.60591575 C10.9444444,9.60591575 10.7345679,9.81924111 10.7345679,10.0764864 Z" id="Path"></path>
                            <path d="M9.41975309,12.1783687 L3.5308642,12.1783687 C3.27777778,12.1783687 3.06790123,12.3916941 3.06790123,12.6489393 C3.06790123,12.9061846 3.27777778,13.11951 3.5308642,13.11951 L9.41975309,13.11951 C9.67283951,13.11951 9.88271605,12.9061846 9.88271605,12.6489393 C9.88271605,12.3916941 9.67283951,12.1783687 9.41975309,12.1783687 Z" id="Path"></path>
                            <path d="M12.3641975,12.1783687 L11.1975309,12.1783687 C10.9444444,12.1783687 10.7345679,12.3916941 10.7345679,12.6489393 C10.7345679,12.9061846 10.9444444,13.11951 11.1975309,13.11951 L12.3641975,13.11951 C12.617284,13.11951 12.8271605,12.9061846 12.8271605,12.6489393 C12.8271605,12.3916941 12.617284,12.1783687 12.3641975,12.1783687 Z" id="Path"></path>
                            <path d="M9.41975309,14.7445474 L3.5308642,14.7445474 C3.27777778,14.7445474 3.06790123,14.9578727 3.06790123,15.215118 C3.06790123,15.4723633 3.27777778,15.6856887 3.5308642,15.6856887 L9.41975309,15.6856887 C9.67283951,15.6856887 9.88271605,15.4723633 9.88271605,15.215118 C9.88271605,14.9578727 9.67283951,14.7445474 9.41975309,14.7445474 Z" id="Path"></path>
                            <path d="M12.3641975,14.7445474 L11.1975309,14.7445474 C10.9444444,14.7445474 10.7345679,14.9578727 10.7345679,15.215118 C10.7345679,15.4723633 10.9444444,15.6856887 11.1975309,15.6856887 L12.3641975,15.6856887 C12.617284,15.6856887 12.8271605,15.4723633 12.8271605,15.215118 C12.8271605,14.9578727 12.617284,14.7445474 12.3641975,14.7445474 Z" id="Path"></path>
                        </g>
                    </g>
                </g>
            </g>
        </g>
    </g>
</svg>