<?xml version="1.0" encoding="UTF-8"?>
<svg width="22px" height="21px" viewBox="0 0 22 21" version="1.1" xmlns="http://www.w3.org/2000/svg" xmlns:xlink="http://www.w3.org/1999/xlink">
    <title>gestionequipebleu</title>
    <g id="Welcome" stroke="none" stroke-width="1" fill="none" fill-rule="evenodd">
        <g id="Marchand-/-Mes_Commandes-/-Détails" transform="translate(-570.000000, -190.000000)" fill="#1A7EF5" fill-rule="nonzero">
            <g id="Head" transform="translate(119.000000, 176.000000)">
                <g id="Zone-menu" transform="translate(329.000000, 0.000000)">
                    <g id="Group-6-Copy-2" transform="translate(85.500000, 5.500000)">
                        <g id="gestionequipebleu" transform="translate(37.000000, 8.500000)">
                            <path d="M10.2567167,0.101858072 L7.10467252,3.25116805 C6.88521309,3.47190124 7.04156021,3.84776797 7.35281612,3.84794536 L8.40007954,3.84794536 L8.40007954,5.35458234 C8.06047547,5.2855305 7.70965933,5.24990663 7.3487152,5.24999923 L5.9480343,5.25276395 L5.9480343,4.20139962 C5.94880432,4.01003357 5.79552764,3.85353843 5.60418659,3.85003319 C5.50926016,3.84873814 5.41815658,3.88589517 5.35125712,3.95325378 L2.20194709,7.10256394 C2.06627346,7.23908286 2.06627346,7.45959752 2.20194709,7.59611789 L5.35125712,10.7481622 C5.57199679,10.9676149 5.94785718,10.8112745 5.9480343,10.5000176 L5.9480343,9.4486658 L7.3487152,9.4486658 C7.93648932,9.4486658 8.40007848,9.92387855 8.40007954,10.5000303 L8.40007954,11.329229 L7.92429916,10.9313782 C7.87089643,10.8870501 7.80724175,10.8603818 7.74109763,10.8527623 C7.6749428,10.8452221 7.60630488,10.8565985 7.54422304,10.8876189 L6.14354108,11.587616 C5.9832428,11.6681103 5.90977549,11.8567225 5.97332699,12.0244323 L3.51854614,13.1352698 C3.0224919,13.3595295 2.56503011,13.5955823 2.18827562,13.9391747 C1.79650434,14.2964637 1.53000791,14.7415358 1.40829678,15.3371211 L0.736325716,18.6108449 C0.602181282,19.2672672 0.854097458,19.8843036 1.3112259,20.3205101 C1.75161139,20.7407328 2.36313683,21 2.99149663,21 L18.0093372,21 C18.6376983,21 19.2492238,20.7407328 19.6896091,20.3205101 C20.1467429,19.8843036 20.3986537,19.2672672 20.2645106,18.6108449 L19.5925397,15.3371211 C19.4708259,14.7415358 19.2043308,14.2964637 18.8125595,13.9391747 C18.435805,13.5955823 17.9783419,13.3595295 17.4822878,13.1352698 L15.027507,12.0244327 C15.0910558,11.8567229 15.0175857,11.6681148 14.8572929,11.5876164 L13.4566121,10.8876187 C13.3945316,10.8565838 13.3258898,10.8451426 13.259739,10.8527621 C13.1935974,10.8604345 13.1299427,10.8870513 13.076536,10.931378 L12.6014382,11.3305958 L12.6014382,10.5000305 C12.6014382,9.92387881 13.0622944,9.4486662 13.6500684,9.4486662 L15.0507491,9.4486662 L15.0507491,10.5000305 C15.0509277,10.8112903 15.4267867,10.967628 15.6475263,10.7481752 L18.7968364,7.59613099 C18.9325113,7.45961061 18.9325113,7.23909596 18.7968364,7.10257691 L15.6475263,3.95326688 C15.5806307,3.88590826 15.489522,3.84873668 15.3945969,3.85004629 C15.2032558,3.85361793 15.0499859,4.0100468 15.0507491,4.20141272 L15.0507491,5.25277744 L13.6500684,5.25001273 C13.2907978,5.24994658 12.9406004,5.28654935 12.6021208,5.35459583 L12.600798,3.84795873 L13.6521624,3.84795873 C13.8435352,3.84872875 14.0000236,3.6954465 14.0035304,3.50411101 C14.0048255,3.40918458 13.9676685,3.31807968 13.9003098,3.25118141 L10.7510005,0.101858072 C10.6827423,0.0340232416 10.5928017,0 10.5035164,0 C10.4142292,0 10.3249771,0.0340232416 10.2567167,0.101858072 Z M5.24803521,5.04354628 L5.24803521,5.60135667 C5.24730025,5.79572568 5.40502787,5.95347208 5.59940204,5.95272349 L7.3487152,5.95062019 C8.31900183,5.95044306 9.21861775,6.25059512 9.95662035,6.76546227 C9.28173417,7.43371829 8.78712844,8.27741373 8.55320529,9.231184 C8.23987544,8.92808309 7.8191647,8.75130126 7.3487152,8.75130126 L5.59940204,8.75130126 C5.40603692,8.7505663 5.24871911,8.90657529 5.24803521,9.09993393 L5.24803521,9.65501107 L2.9436445,7.35060356 L5.24803521,5.04354628 Z M15.7507496,5.04354628 L18.0558229,7.35066983 L15.7507496,9.65506042 L15.7507496,9.09998327 C15.7500485,8.90662463 15.5927452,8.75060863 15.3993829,8.7513506 L13.6500684,8.7513506 C12.6865942,8.7513506 11.9014398,9.52422862 11.9014398,10.4999799 L11.9014398,11.9191182 L11.0900159,12.6006591 L9.91150265,12.6006591 L9.1007628,11.9191182 L9.1007628,10.4999799 C9.1007628,7.97323034 11.1348824,5.95021395 13.6500684,5.95067284 L15.3993829,5.95277614 C15.5937585,5.95351111 15.7514956,5.79577833 15.7507496,5.60140932 L15.7507496,5.04354628 Z M1.05692995,5.24725568 C0.739778308,5.23984782 0.577128165,5.62433413 0.80331658,5.84676715 L1.15194898,6.19813253 C1.48227219,6.5435093 1.99316847,6.03331677 1.64823735,5.70252819 L1.29687053,5.35321308 C1.23363915,5.28812974 1.14762332,5.250138 1.05692995,5.24725555 L1.05692995,5.24725568 Z M19.9439051,5.24725568 C19.8532117,5.25016591 19.7671893,5.28813119 19.7039632,5.35321453 L19.3525965,5.70252951 C19.0076574,6.03331955 19.518563,6.54352121 19.848886,6.19813385 L20.1975184,5.84676848 C20.4237069,5.62433558 20.2610673,5.23984372 19.9439051,5.24725568 L19.9439051,5.24725568 Z M20.286385,6.99930301 C19.8092368,6.98872035 19.8092368,7.70988873 20.286385,7.69930237 L20.6507406,7.69930237 C21.1205153,7.69930237 21.1125042,6.99930301 20.6507406,6.99930301 L20.286385,6.99930301 Z M0.350095783,7.00000305 C-0.116698594,7.00000305 -0.116698594,7.70000241 0.350095783,7.70000241 L0.71786824,7.70000241 C1.18466129,7.70000241 1.18466129,7.00000305 0.71786824,7.00000305 L0.350095783,7.00000305 Z M1.40282819,8.3952155 C1.30802081,8.39577545 1.21749928,8.43472849 1.15194898,8.50322474 L0.80331658,8.85185714 C0.458939731,9.18078728 0.966032865,9.69068865 1.29687053,9.34814392 L1.64823735,8.99677855 C1.86199247,8.78933745 1.7354649,8.42670803 1.43905791,8.39726721 C1.42702014,8.39597216 1.41492946,8.39526973 1.40282554,8.39526973 L1.40282819,8.3952155 Z M19.5980083,8.3952155 C19.5859705,8.39527211 19.5738137,8.39588048 19.5617759,8.39721297 C19.2653689,8.42665789 19.1388427,8.78928334 19.3525978,8.99672432 L19.7039632,9.34808982 C20.0348008,9.6906397 20.5418979,9.18073158 20.1975171,8.8518029 L19.8488847,8.50314087 C19.7833384,8.43464462 19.6928091,8.39567399 19.598007,8.39513163 L19.5980083,8.3952155 Z M7.65017938,11.6163024 L9.29626931,12.998526 L8.40691607,14.1250868 L6.83123519,12.0244079 L7.65017938,11.6163024 Z M13.3506546,11.6163024 L14.1695988,12.0244079 L12.5939179,14.1250868 L11.7052492,12.998526 L13.3506546,11.6163024 Z M6.39031793,12.6034106 L8.1204909,14.9105342 C8.2581251,15.0947942 8.53299109,15.0984796 8.67556752,14.9180744 L9.04949353,14.4443457 L9.42478523,14.8189546 L8.45613468,20.2999996 L2.99149663,20.2999996 C2.55982873,20.2999996 2.11922114,20.1232639 1.79794491,19.8166989 C1.49248578,19.5252102 1.34053999,19.1598374 1.42060176,18.7680529 L2.09257269,15.4765556 C2.18441692,15.0270956 2.37778852,14.7145276 2.6613217,14.4559509 C2.94485357,14.1973756 3.33536286,13.9875758 3.80838897,13.7737267 L6.39031793,12.6034106 Z M14.6105172,12.6034106 L17.1924447,13.7737214 C17.6654723,13.9875692 18.0559829,14.197369 18.3395148,14.4559443 C18.6230466,14.714521 18.8164129,15.027089 18.9082625,15.476549 L19.5802347,18.7680462 C19.6602925,19.1598321 19.508352,19.5252036 19.2028916,19.8166764 C18.8816153,20.1232441 18.4410064,20.2999771 18.0093372,20.2999771 L12.5446993,20.2999771 L11.5767334,14.8189321 L11.9513423,14.4443232 L12.3252672,14.9180532 C12.4678434,15.0984968 12.7427087,15.0947902 12.8803441,14.9105131 L14.6105172,12.6034106 Z M9.95251838,13.300674 L11.0490002,13.300674 L11.5138434,13.8899309 L10.500759,14.905067 L9.48767518,13.8899309 L9.95251838,13.300674 Z M10.0297585,15.4239122 L10.2526108,15.6467631 C10.3210277,15.7155371 10.4108911,15.7499836 10.5007537,15.7499836 C10.5906137,15.7499836 10.680475,15.7155371 10.7488985,15.6467631 L10.9717494,15.4239122 L11.8337597,20.2999771 L9.16774943,20.2999771 L10.0297585,15.4239122 Z M14.0014298,16.4506495 C13.8078717,16.4495528 13.650153,16.6057409 13.6493779,16.7993004 L13.6493779,18.1992972 C13.6486357,18.3939268 13.8068015,18.551787 14.0014298,18.5506712 L17.4993735,18.5506712 C17.6937346,18.551406 17.8514823,18.3936583 17.8507428,18.1992972 L17.8507428,16.7992845 C17.8499677,16.6059923 17.6926658,16.4499153 17.4993735,16.4506495 L14.0014298,16.4506495 Z" id="path2195"></path>
                        </g>
                    </g>
                </g>
            </g>
        </g>
    </g>
</svg>