<svg xmlns="http://www.w3.org/2000/svg" width="21" height="21" viewBox="0 0 21 21"><g fill="#9B9B9B" transform="translate(.5 .5)"><polygon points="0 0 5 0 5 5 0 5"/><polygon points="0 7.5 5 7.5 5 12.5 0 12.5"/><polygon points="5 15 0 15 0 20 5 20"/><polygon points="7.5 0 12.5 0 12.5 5 7.5 5"/><polygon points="12.5 7.5 7.5 7.5 7.5 12.5 12.5 12.5"/><polygon points="7.5 15 12.5 15 12.5 20 7.5 20"/><polygon points="20 0 15 0 15 5 20 5"/><polygon points="15 7.5 20 7.5 20 12.5 15 12.5"/><polygon points="20 15 15 15 15 20 20 20"/></g></svg>