<?xml version="1.0" encoding="UTF-8"?>
<svg width="19px" height="21px" viewBox="0 0 19 21" version="1.1" xmlns="http://www.w3.org/2000/svg" xmlns:xlink="http://www.w3.org/1999/xlink">
    <title>info-marche</title>
    <g id="Welcome" stroke="none" stroke-width="1" fill="none" fill-rule="evenodd">
        <g id="Marchand-/-Mes_Commandes-/-Détails" transform="translate(-469.000000, -190.000000)" fill="#9B9B9B" fill-rule="nonzero">
            <g id="Head" transform="translate(119.000000, 176.000000)">
                <g id="Zone-menu" transform="translate(329.000000, 0.000000)">
                    <g id="Group-6-Copy" transform="translate(6.500000, 5.500000)">
                        <g id="info-marche" transform="translate(15.000000, 8.500000)">
                            <path d="M-1.75985817e-15,6.43032787 C-1.75985817e-15,6.43032787 -1.75985817e-15,6.43032787 -1.75985817e-15,6.43032787 C0.0123839009,7.46311475 0.600619195,8.36680328 1.46130031,8.82172131 L1.46130031,16.6905738 C1.46130031,17.6618852 2.26006192,18.454918 3.23839009,18.454918 L6.81114551,18.454918 L6.17337461,20.0778689 L4.96594427,20.0778689 C4.7120743,20.0778689 4.50154799,20.2868852 4.50154799,20.5389344 C4.50154799,20.7909836 4.7120743,21 4.96594427,21 L6.48916409,21 C6.48916409,21 6.48916409,21 6.48916409,21 C6.48916409,21 6.48916409,21 6.48916409,21 L11.5108359,21 C11.5108359,21 11.5108359,21 11.5108359,21 C11.5108359,21 11.5108359,21 11.5108359,21 L13.0340557,21 C13.2879257,21 13.498452,20.7909836 13.498452,20.5389344 C13.498452,20.2868852 13.2879257,20.0778689 13.0340557,20.0778689 L11.8266254,20.0778689 L11.1888545,18.454918 L14.7616099,18.454918 C15.7399381,18.454918 16.5386997,17.6618852 16.5386997,16.6905738 L16.5386997,8.82172131 C17.3993808,8.36065574 17.9876161,7.46311475 18,6.43032787 C18,6.43032787 18,6.43032787 18,6.43032787 C18,6.42418033 18,6.41188525 18,6.4057377 C18,6.4057377 18,6.39959016 18,6.39959016 C18,6.38729508 18,6.38114754 18,6.36885246 C18,6.36270492 18,6.35655738 18,6.35040984 C18,6.3442623 18,6.33196721 17.993808,6.32581967 C17.993808,6.31967213 17.993808,6.31352459 17.9876161,6.30122951 C17.9876161,6.29508197 17.9814241,6.28893443 17.9814241,6.28278689 C17.9814241,6.27663934 17.9752322,6.26434426 17.9752322,6.25819672 C17.9752322,6.25204918 17.9690402,6.24590164 17.9690402,6.2397541 C17.9628483,6.22745902 17.9628483,6.22131148 17.9566563,6.21516393 C17.9566563,6.21516393 17.9566563,6.20901639 17.9566563,6.20901639 L16.2600619,2.64344262 L16.2600619,1.43237705 C16.2600619,0.645491803 15.6160991,0 14.8173375,0 L3.16408669,0 C2.37151703,0 1.72136223,0.639344262 1.72136223,1.43237705 L1.72136223,2.67418033 L0.0433436533,6.20901639 C0.0433436533,6.20901639 0.0433436533,6.21516393 0.0433436533,6.21516393 C0.0371517028,6.22131148 0.0371517028,6.23360656 0.0309597523,6.2397541 C0.0309597523,6.24590164 0.0247678019,6.25204918 0.0247678019,6.25819672 C0.0247678019,6.26434426 0.0185758514,6.27663934 0.0185758514,6.28278689 C0.0185758514,6.28893443 0.0123839009,6.29508197 0.0123839009,6.30122951 C0.0123839009,6.30737705 0.0123839009,6.31352459 0.00619195046,6.32581967 C0.00619195046,6.33196721 0.00619195046,6.3442623 -1.75985817e-15,6.35040984 C-1.75985817e-15,6.35655738 -1.75985817e-15,6.36270492 -1.75985817e-15,6.36885246 C-1.75985817e-15,6.38114754 -1.75985817e-15,6.38729508 -1.75985817e-15,6.39959016 C-1.75985817e-15,6.39959016 -1.75985817e-15,6.4057377 -1.75985817e-15,6.4057377 C-1.75985817e-15,6.41188525 -1.75985817e-15,6.41803279 -1.75985817e-15,6.43032787 Z M2.49535604,3.20901639 L5.33126935,3.20901639 L4.69349845,5.94467213 L1.19504644,5.94467213 L2.49535604,3.20901639 Z M11.7089783,3.20901639 L12.3467492,5.94467213 L9.46749226,5.94467213 L9.46749226,3.20901639 L11.7089783,3.20901639 Z M16.7987616,5.94467213 L13.3003096,5.94467213 L12.6625387,3.20901639 L15.498452,3.20901639 L16.7987616,5.94467213 Z M12.6625387,7.31557377 C12.3343653,7.86885246 11.7275542,8.22540984 11.0773994,8.22540984 C10.4024768,8.22540984 9.78328173,7.85040984 9.46130031,7.26639344 L9.46130031,6.86065574 L12.5572755,6.86065574 L12.6625387,7.31557377 Z M5.43653251,6.86680328 L8.53250774,6.86680328 L8.53250774,7.27254098 C8.21671827,7.85655738 7.59133127,8.23155738 6.91640867,8.23155738 C6.26006192,8.23155738 5.65325077,7.88114754 5.33126935,7.32172131 L5.43653251,6.86680328 Z M8.53250774,5.94467213 L5.65325077,5.94467213 L6.29102167,3.20901639 L8.53869969,3.20901639 L8.53869969,5.94467213 L8.53250774,5.94467213 Z M0.990712074,6.86680328 L4.48916409,6.86680328 L4.40866873,7.22336066 C4.09907121,7.83196721 3.46130031,8.22540984 2.76780186,8.22540984 C1.91331269,8.22540984 1.19504644,7.64754098 0.990712074,6.86680328 Z M10.8297214,20.0778689 L7.16408669,20.0778689 L7.80185759,18.454918 L10.1857585,18.454918 L10.8297214,20.0778689 Z M14.7616099,17.5327869 L3.23219814,17.5327869 C2.76780186,17.5327869 2.38390093,17.1577869 2.38390093,16.6905738 L2.38390093,15.602459 L15.6037152,15.602459 L15.6037152,16.6905738 C15.6037152,17.1516393 15.2260062,17.5327869 14.7616099,17.5327869 Z M15.6037152,14.6741803 L2.39009288,14.6741803 L2.39009288,9.11680328 C2.51393189,9.1352459 2.6377709,9.14139344 2.76780186,9.14139344 C3.57275542,9.14139344 4.32817337,8.79098361 4.84829721,8.20696721 C5.36842105,8.79098361 6.12383901,9.14139344 6.92879257,9.14139344 C7.73374613,9.14139344 8.48916409,8.79098361 9.00928793,8.20696721 C9.52941176,8.79098361 10.2848297,9.14139344 11.0897833,9.14139344 C11.8947368,9.14139344 12.6501548,8.79098361 13.1702786,8.20696721 C13.6904025,8.79098361 14.4458204,9.14139344 15.250774,9.14139344 C15.380805,9.14139344 15.504644,9.12909836 15.628483,9.11680328 L15.628483,14.6741803 L15.6037152,14.6741803 Z M15.2321981,8.22540984 C14.5386997,8.22540984 13.9009288,7.83196721 13.5913313,7.22336066 L13.5108359,6.86680328 L17.0092879,6.86680328 C16.7987616,7.64754098 16.0804954,8.22540984 15.2321981,8.22540984 Z M2.6501548,1.43237705 C2.6501548,1.1557377 2.87925697,0.922131148 3.16408669,0.922131148 L14.8173375,0.922131148 C15.0959752,0.922131148 15.3312693,1.14959016 15.3312693,1.43237705 L15.3312693,2.28688525 L2.6501548,2.28688525 L2.6501548,1.43237705 Z" id="Shape"></path>
                        </g>
                    </g>
                </g>
            </g>
        </g>
    </g>
</svg>