<?xml version="1.0" encoding="UTF-8"?>
<svg width="21px" height="21px" viewBox="0 0 21 21" version="1.1" xmlns="http://www.w3.org/2000/svg" xmlns:xlink="http://www.w3.org/1999/xlink">
    <title>messagerie</title>
    <g id="Welcome" stroke="none" stroke-width="1" fill="none" fill-rule="evenodd">
        <g id="Marchand-/-Mes_Commandes-/-Détails" transform="translate(-702.000000, -190.000000)" fill="#9B9B9B" fill-rule="nonzero">
            <g id="Head" transform="translate(119.000000, 176.000000)">
                <g id="Zone-menu" transform="translate(329.000000, 0.000000)">
                    <g id="Group-6-Copy-11" transform="translate(243.500000, 5.500000)">
                        <g id="messagerie" transform="translate(10.500000, 8.500000)">
                            <path d="M13.9683881,21 C13.6699594,20.9997766 13.4051263,20.8113992 13.3108229,20.5322698 L9.94530984,10.5923198 L0.461943315,7.28401773 C0.180185673,7.18540082 -0.0057665714,6.91989227 0.000377901721,6.62520158 C0.00683287289,6.3305109 0.203966737,6.07296154 0.489688682,5.98613487 L20.1028888,0.030097105 C20.3496569,-0.0445445377 20.6180566,0.0220733067 20.799554,0.203012076 C20.9810514,0.383950846 21.0456227,0.649279286 20.967157,0.891705324 L14.6287278,20.5226964 C14.5379785,20.805133 14.2730631,20.9978324 13.9725499,21 L13.9683881,21 Z M2.90214837,6.68499487 L10.731891,9.42025906 C10.9331264,9.49071002 11.0902278,9.64861468 11.1577824,9.84832791 L13.9531281,18.1142963 L19.2400079,1.72185801 L2.90214837,6.68499487 Z" id="Shape"></path>
                            <path d="M10.5002172,10.7400459 C10.3123197,10.7409698 10.13227,10.6658161 10.0021878,10.532144 C9.73557324,10.2609787 9.7424052,9.82808511 10.0174478,9.56522806 L14.9200542,4.88108814 C15.0979829,4.71007538 15.35494,4.64563332 15.5941322,4.71203666 C15.8333244,4.77843999 16.0184127,4.96560048 16.0796761,5.20301658 C16.1409396,5.44043267 16.0690708,5.69203522 15.891142,5.86304799 L10.9871484,10.5485555 C10.8564935,10.6727165 10.6816845,10.741454 10.5002172,10.7400459 Z" id="Path"></path>
                            <path d="M7.03204628,20.7032238 C6.73966395,20.7032238 6.47868473,20.5224528 6.3795391,20.251287 C6.28039346,19.9801211 6.36437328,19.6767816 6.58950767,19.4928694 L10.0576786,16.6632386 C10.3529126,16.4257295 10.7872117,16.4674854 11.0303335,16.756755 C11.2734554,17.0460246 11.2343511,17.4744768 10.9427558,17.7163153 L7.47458489,20.5459461 C7.35015852,20.64759 7.19363897,20.7032238 7.03204628,20.7032238 L7.03204628,20.7032238 Z" id="Path"></path>
                            <path d="M0.693617131,20.7032238 C0.412935533,20.7032238 0.159955,20.53635 0.0527342621,20.2806264 C-0.0544864757,20.0249029 0.00518881698,19.7306811 0.203911399,19.535266 L6.54095328,13.286555 C6.81217646,13.0191709 7.2519161,13.0191709 7.52313927,13.286555 C7.79436245,13.5539391 7.79436245,13.9874544 7.52313928,14.2548385 L1.18471013,20.5021819 C1.05460263,20.6308497 0.877905381,20.7032238 0.693617131,20.7032238 Z" id="Path"></path>
                            <path d="M0.693617131,14.4545128 C0.424835463,14.4545128 0.18025394,14.3014116 0.0659076344,14.0616088 C-0.0484386708,13.8218061 -0.0119638932,13.5384642 0.159518811,13.3344221 L3.02977705,9.91534188 C3.27508786,9.62787397 3.70969172,9.58932324 4.00311463,9.82900378 C4.29653753,10.0686843 4.33889295,10.496836 4.09797369,10.7878912 L1.22771545,14.2069714 C1.09594477,14.3637613 0.900154252,14.4545128 0.693617131,14.4545128 Z" id="Path"></path>
                        </g>
                    </g>
                </g>
            </g>
        </g>
    </g>
</svg>