<?xml version="1.0" encoding="UTF-8"?>
<svg width="21px" height="22px" viewBox="0 0 21 22" version="1.1" xmlns="http://www.w3.org/2000/svg" xmlns:xlink="http://www.w3.org/1999/xlink">
    <title>paiementbleu</title>
    <g id="Welcome" stroke="none" stroke-width="1" fill="none" fill-rule="evenodd">
        <g id="Marchand-/-Mes_Commandes-/-Détails" transform="translate(-887.000000, -190.000000)" fill="#1A7EF5" fill-rule="nonzero">
            <g id="Head" transform="translate(119.000000, 176.000000)">
                <g id="Zone-menu" transform="translate(329.000000, 0.000000)">
                    <g id="Group-9-Copy-2" transform="translate(401.500000, 6.000000)">
                        <g id="paiementbleu" transform="translate(37.500000, 8.500000)">
                            <path d="M19.5819143,15.3942799 L19.3537874,15.3942799 L17.9357017,4.90500511 C17.8987082,4.64759959 17.7075749,4.45454545 17.479448,4.45454545 L15.1920141,4.45454545 L15.1920141,3.453524 L16.8690546,3.453524 C17.1218438,3.453524 17.3314739,3.21041879 17.3314739,2.91726251 L17.3314739,0.536261491 C17.3314739,0.243105209 17.1218438,-2.03219577e-15 16.8690546,-2.03219577e-15 L12.5901351,-2.03219577e-15 C12.3373459,-2.03219577e-15 12.1277158,0.243105209 12.1277158,0.536261491 L12.1277158,2.91726251 C12.1277158,3.21041879 12.3373459,3.453524 12.5901351,3.453524 L14.2671756,3.453524 L14.2671756,4.45454545 L3.51438638,4.45454545 C3.28625954,4.45454545 3.09512625,4.64759959 3.05813271,4.90500511 L1.64004698,15.3942799 L1.41192014,15.3942799 C0.635055784,15.3942799 -1.75236611e-15,16.1307457 -1.75236611e-15,17.031665 L-1.75236611e-15,19.3626149 C-1.75236611e-15,20.2635342 0.635055784,21 1.41192014,21 L19.5880799,21 C20.3649442,21 21,20.2635342 21,19.3626149 L21,17.031665 C20.9876688,16.1307457 20.3587786,15.3942799 19.5819143,15.3942799 Z M13.0525543,1.07252298 L16.4004698,1.07252298 L16.4004698,2.38100102 L13.0525543,2.38100102 L13.0525543,1.07252298 Z M3.90898415,5.52706844 L17.0786847,5.52706844 L18.4104521,15.3942799 L2.57105109,15.3942799 L3.90898415,5.52706844 Z M20.0628303,19.3554648 C20.0628303,19.6629213 19.8470346,19.9203269 19.5757487,19.9203269 L1.40575455,19.9203269 C1.14063417,19.9203269 0.91867293,19.6700715 0.91867293,19.3554648 L0.91867293,17.0245148 C0.91867293,16.7170582 1.13446858,16.4596527 1.40575455,16.4596527 L18.9530241,16.4596527 C18.9530241,16.4596527 18.9530241,16.4596527 18.9530241,16.4596527 C18.9530241,16.4596527 18.9530241,16.4596527 18.9530241,16.4596527 L19.5757487,16.4596527 C19.8408691,16.4596527 20.0628303,16.7099081 20.0628303,17.0245148 L20.0628303,19.3554648 L20.0628303,19.3554648 Z" id="Shape"></path>
                            <path d="M9.32237228,7.38610827 L4.63652378,7.38610827 C4.38373459,7.38610827 4.17410452,7.62921348 4.17410452,7.92236977 L4.17410452,12.8416752 C4.17410452,13.1348315 4.38373459,13.3779367 4.63652378,13.3779367 L9.32237228,13.3779367 C9.57516148,13.3779367 9.78479154,13.1348315 9.78479154,12.8416752 L9.78479154,7.92236977 C9.78479154,7.62921348 9.57516148,7.38610827 9.32237228,7.38610827 Z M8.85995302,9.84576098 L7.44186729,9.84576098 L7.44186729,8.45863126 L8.85995302,8.45863126 L8.85995302,9.84576098 Z M6.51702877,8.45863126 L6.51702877,9.84576098 L5.09894304,9.84576098 L5.09894304,8.45863126 L6.51702877,8.45863126 Z M5.09894304,10.918284 L6.51702877,10.918284 L6.51702877,12.3054137 L5.09894304,12.3054137 L5.09894304,10.918284 Z M7.44186729,12.3054137 L7.44186729,10.918284 L8.85995302,10.918284 L8.85995302,12.3054137 L7.44186729,12.3054137 Z" id="Shape"></path>
                            <path d="M16.4128009,7.38610827 L11.7886083,7.38610827 C11.5358191,7.38610827 11.3261891,7.62921348 11.3261891,7.92236977 L11.3261891,10.1675179 C11.3261891,10.4606742 11.5358191,10.7037794 11.7886083,10.7037794 L16.4128009,10.7037794 C16.6655901,10.7037794 16.8752202,10.4606742 16.8752202,10.1675179 L16.8752202,7.92236977 C16.8752202,7.62921348 16.6655901,7.38610827 16.4128009,7.38610827 Z M15.9503817,9.63125638 L12.2510276,9.63125638 L12.2510276,8.45863126 L15.9503817,8.45863126 L15.9503817,9.63125638 Z" id="Shape"></path>
                        </g>
                    </g>
                </g>
            </g>
        </g>
    </g>
</svg>