<?xml version="1.0" encoding="UTF-8"?>
<svg width="22px" height="22px" viewBox="0 0 22 22" version="1.1" xmlns="http://www.w3.org/2000/svg" xmlns:xlink="http://www.w3.org/1999/xlink">
    <title>promobleu</title>
    <g id="Welcome" stroke="none" stroke-width="1" fill="none" fill-rule="evenodd">
        <g id="Marchand-/-Mes_Commandes-/-Détails" transform="translate(-1123.000000, -190.000000)" fill="#1A7EF5" fill-rule="nonzero">
            <g id="Head" transform="translate(119.000000, 176.000000)">
                <g id="Zone-menu" transform="translate(329.000000, 0.000000)">
                    <g id="Group-9" transform="translate(638.500000, 6.000000)">
                        <g id="promobleu" transform="translate(37.000000, 8.500000)">
                            <path d="M19.8411846,8.58603831 L19.3362557,8.32363753 C19.085555,8.19459701 18.8957843,7.96557994 18.8101754,7.68875901 C18.7245666,7.41193808 18.7504105,7.11088865 18.8818197,6.85419319 L19.1342841,6.35563172 C19.5163106,5.6387034 19.4677264,4.75736108 19.0094168,4.09047461 C18.5511072,3.42358813 17.7647318,3.08998056 16.9883363,3.2330625 L16.4329145,3.33802281 C16.1507617,3.39612166 15.8580724,3.329576 15.6250283,3.15434227 C15.3947015,2.98147496 15.2474422,2.71362883 15.2210852,2.4196201 L15.1453458,1.84233839 C15.0404853,1.03159578 14.4972644,0.355351469 13.748468,0.103394518 C12.9996716,-0.148562433 12.1782054,0.0684884274 11.63609,0.661534907 L11.2573933,1.08137615 L11.2573933,1.08137615 C11.0579531,1.2929403 10.784974,1.41216179 10.5,1.41216179 C10.215026,1.41216179 9.94204691,1.2929403 9.74260666,1.08137615 L9.36390998,0.661534907 C8.81835911,0.0671536662 7.9921058,-0.147266889 7.24176852,0.110819109 C6.49143123,0.368905106 5.95135987,1.05328667 5.85465415,1.86857847 L5.77891482,2.4196201 C5.75255775,2.71362883 5.60529855,2.98147496 5.3749717,3.15434227 C5.14784091,3.34288001 4.84920941,3.41077669 4.56708547,3.33802281 L4.01166368,3.2330625 C3.24042567,3.09939263 2.46173548,3.42312757 1.99194809,4.07274498 C1.52606503,4.74335085 1.47681841,5.63396709 1.86571587,6.35563172 L2.11818032,6.85419319 C2.26890898,7.10618979 2.29695777,7.41715211 2.19391965,7.69387567 C2.12117021,7.97814056 1.92516758,8.21095973 1.66374431,8.32363753 L1.15881541,8.58603831 C0.450465833,8.94003159 0,9.68465308 0,10.501564 C0,11.3184749 0.450465833,12.0630963 1.15881541,12.4170896 L1.66374431,12.6794904 C1.92516758,12.7921682 2.12117021,13.0249874 2.19391965,13.3092523 C2.29695777,13.5859758 2.26890898,13.8969381 2.11818032,14.1489347 L1.86571587,14.6474962 C1.47681841,15.3691608 1.52606503,16.2597771 1.99194809,16.930383 C2.46173548,17.5800004 3.24042567,17.9037353 4.01166368,17.7700654 L4.56708547,17.6651051 C4.8492383,17.6070063 5.14192758,17.6735519 5.3749717,17.8487857 C5.61062667,18.0166122 5.75944116,18.2872872 5.77891482,18.5835078 L5.85465415,19.1345495 C5.94546323,19.953012 6.48852293,20.6405941 7.24320862,20.8926347 C7.45471593,20.9659939 7.67667434,21.0014853 7.89961618,20.997595 C8.4518168,20.9880306 8.97805794,20.7522752 9.36390998,20.341593 L9.74260666,19.9217518 C9.94204691,19.7101876 10.215026,19.5909661 10.5,19.5909661 C10.784974,19.5909661 11.0579531,19.7101876 11.2573933,19.9217518 L11.63609,20.341593 C12.1816409,20.9359743 13.0078942,21.1503948 13.7582315,20.8923088 C14.5085688,20.6342228 15.0486401,19.9498413 15.1453458,19.1345495 L15.2210852,18.5835078 C15.2405588,18.2872872 15.3893733,18.0166122 15.6250283,17.8487857 C15.8580724,17.6735519 16.1507617,17.6070063 16.4329145,17.6651051 L16.9883363,17.7700654 C17.7647318,17.9131474 18.5511072,17.5795398 19.0094168,16.9126533 C19.4677264,16.2457669 19.5163106,15.3644245 19.1342841,14.6474962 L18.8818197,14.1489347 C18.7504105,13.8922393 18.7245666,13.5911899 18.8101754,13.3143689 C18.8957843,13.037548 19.085555,12.8085309 19.3362557,12.6794904 L19.8411846,12.4170896 C20.5495342,12.0630963 21,11.3184749 21,10.501564 C21,9.68465308 20.5495342,8.94003159 19.8411846,8.58603831 Z M19.411995,11.4724468 L18.9070661,11.7086075 C18.3993824,11.9685389 18.0162161,12.4331601 17.8467154,12.9943713 C17.6669358,13.542512 17.7220953,14.1444813 17.9981941,14.6474962 L18.2506586,15.1722978 C18.4529441,15.528347 18.4228135,15.9772159 18.1749192,16.3006211 C17.9499595,16.6386442 17.5522552,16.8039869 17.1650614,16.7204623 L16.6096396,16.615502 C16.0614576,16.5080265 15.4949184,16.6409896 15.0443601,16.9828631 C14.5939138,17.3304555 14.294338,17.8493992 14.2112274,18.4260674 L14.1354881,19.0033491 C14.0927883,19.4209384 13.8147206,19.7718811 13.4285876,19.8955117 C13.0515202,20.0315757 12.6327246,19.9175743 12.3682369,19.6068709 L11.9895402,19.1870296 C11.1582619,18.3539328 9.84173812,18.3539328 9.01045976,19.1870296 L8.63176308,19.6068709 C8.36727541,19.9175743 7.94847977,20.0315757 7.5714124,19.8955117 C7.1852794,19.7718811 6.90721173,19.4209384 6.86451194,19.0033491 L6.78877261,18.4260674 C6.70566195,17.8493992 6.40608625,17.3304555 5.95563993,16.9828631 C5.60988456,16.7250137 5.19460311,16.5872607 4.76905702,16.5892619 L4.39036035,16.5892619 L3.83493857,16.6942223 C3.44774482,16.7777469 3.05004054,16.6124041 2.82508077,16.274381 C2.57718646,15.9509758 2.54705588,15.5021069 2.74934144,15.1460577 L3.00180589,14.6212561 C3.27790471,14.1182412 3.33306418,13.5162719 3.15328456,12.9681312 C2.98378395,12.4069201 2.6006176,11.9422988 2.09293387,11.6823675 L1.58800498,11.4462068 C1.22803818,11.2675979 0.998841865,10.889905 0.998841865,10.4753239 C0.998841865,10.0607428 1.22803818,9.68304984 1.58800498,9.50444102 L2.09293387,9.26828032 C2.6006176,9.00834893 2.98378395,8.54372773 3.15328456,7.98251653 C3.33306418,7.43437583 3.27790471,6.83240657 3.00180589,6.32939164 L2.74934144,5.80459009 C2.54705588,5.44854088 2.57718646,4.99967195 2.82508077,4.67626676 C3.04052036,4.32606176 3.44655556,4.15725549 3.83493857,4.25642552 L4.39036035,4.36138583 C4.93505357,4.47637812 5.50126682,4.35298341 5.95563993,4.02026483 C6.40608625,3.67267244 6.70566195,3.15372876 6.78877261,2.57706056 L6.86451194,1.99977886 C6.90721173,1.58218957 7.1852794,1.23124683 7.5714124,1.10761622 C7.94847977,0.971552181 8.36727541,1.08555364 8.63176308,1.39625708 L9.01045976,1.81609832 C9.84173812,2.64919509 11.1582619,2.64919509 11.9895402,1.81609832 L12.3682369,1.39625708 C12.6327246,1.08555364 13.0515202,0.971552181 13.4285876,1.10761622 C13.8147206,1.23124683 14.0927883,1.58218957 14.1354881,1.99977886 L14.2112274,2.57706056 C14.294338,3.15372876 14.5939138,3.67267244 15.0443601,4.02026483 C15.4949184,4.36213833 16.0614576,4.49510144 16.6096396,4.38762591 L17.1650614,4.2826656 C17.5522552,4.199141 17.9499595,4.36448374 18.1749192,4.70250684 C18.4228135,5.02591202 18.4529441,5.47478096 18.2506586,5.83083017 L17.9981941,6.35563172 C17.7220953,6.85864665 17.6669358,7.46061591 17.8467154,8.0087566 C18.0162161,8.5699678 18.3993824,9.03458901 18.9070661,9.2945204 L19.411995,9.5306811 C19.7719618,9.70928992 20.0011581,10.0869829 20.0011581,10.501564 C20.0011581,10.916145 19.7719618,11.293838 19.411995,11.4724468 Z" id="Shape"></path>
                            <path d="M13.8830236,6.98539358 C13.7921734,6.88247895 13.6639544,6.82389201 13.5295734,6.82389201 C13.3951924,6.82389201 13.2669734,6.88247895 13.1761232,6.98539358 L7.11697639,13.2830122 C7.01795883,13.3774381 6.9615904,13.5107034 6.9615904,13.6503733 C6.9615904,13.7900431 7.01795883,13.9233085 7.11697639,14.0177343 C7.20782665,14.120649 7.33604565,14.1792359 7.47042662,14.1792359 C7.6048076,14.1792359 7.73302659,14.120649 7.82387685,14.0177343 L13.8830236,7.72011575 C13.9820412,7.62568987 14.0384096,7.49242452 14.0384096,7.35275467 C14.0384096,7.21308482 13.9820412,7.07981946 13.8830236,6.98539358 L13.8830236,6.98539358 Z" id="Path"></path>
                            <path d="M9.49014221,7.87755622 C9.49014221,7.00803654 8.81194911,6.30315157 7.97535552,6.30315157 C7.13876193,6.30315157 6.46056883,7.00803654 6.46056883,7.87755622 C6.46056883,8.74707589 7.13876193,9.45196087 7.97535552,9.45196087 C8.81194911,9.45196087 9.49014221,8.74707589 9.49014221,7.87755622 Z M7.47042662,7.87755622 C7.47042662,7.58771632 7.69649099,7.35275467 7.97535552,7.35275467 C8.25422005,7.35275467 8.48028441,7.58771632 8.48028441,7.87755622 C8.48028441,8.16739611 8.25422005,8.40235777 7.97535552,8.40235777 C7.69649099,8.40235777 7.47042662,8.16739611 7.47042662,7.87755622 Z" id="Shape"></path>
                            <path d="M13.0246445,11.5511671 C12.1880509,11.5511671 11.5098578,12.256052 11.5098578,13.1255717 C11.5098578,13.9950914 12.1880509,14.6999764 13.0246445,14.6999764 C13.8612381,14.6999764 14.5394312,13.9950914 14.5394312,13.1255717 C14.5394312,12.256052 13.8612381,11.5511671 13.0246445,11.5511671 Z M13.0246445,13.6503733 C12.74578,13.6503733 12.5197156,13.4154116 12.5197156,13.1255717 C12.5197156,12.8357318 12.74578,12.6007702 13.0246445,12.6007702 C13.303509,12.6007702 13.5295734,12.8357318 13.5295734,13.1255717 C13.5295734,13.4154116 13.303509,13.6503733 13.0246445,13.6503733 Z" id="Shape"></path>
                        </g>
                    </g>
                </g>
            </g>
        </g>
    </g>
</svg>