<?xml version="1.0" encoding="UTF-8"?>
<svg width="16px" height="13px" viewBox="0 0 16 13" version="1.1" xmlns="http://www.w3.org/2000/svg" xmlns:xlink="http://www.w3.org/1999/xlink">
    <title>B5B7940F-3B55-477B-8EBD-3E3FBCFFC461</title>
    <g id="Welcome" stroke="none" stroke-width="1" fill="none" fill-rule="evenodd">
        <g id="Home-page-/-Récapitulatif_Produits-/-Modification_Produits" transform="translate(-709.000000, -474.000000)">
            <g id="Group" transform="translate(89.000000, 128.000000)">
                <g id="Group-14" transform="translate(515.477657, 338.000000)">
                    <g id="Group-8" transform="translate(104.895531, 8.500000)">
                        <polygon id="Path-3" stroke="#979797" stroke-width="0.2" fill="#191970" points="2.99637681 0.5 1.99758454 0.5 0.998792271 0.5 0.998792271 10.5 0.998792271 11.5 13.9830918 11.5 13.9830918 0.5"></polygon>
                        <path d="M1.49818841,0 C0.671937466,0 0,0.672749966 0,1.5 L0,10.5 C0,11.32725 0.671937466,12 1.49818841,12 L13.4836957,12 C14.3099466,12 14.9818841,11.32725 14.9818841,10.5 L14.9818841,1.5 C14.9818841,0.672749966 14.3099466,0 13.4836957,0 L1.49818841,0 Z M13.4836957,1.5 L13.4836957,3 L1.49818841,3 L1.49818841,1.5 L13.4836957,1.5 Z M1.49818841,6 L13.4844443,6 L13.4851944,10.5 L1.49818841,10.5 L1.49818841,6 Z M8.24003623,7.5 L8.24003623,9 L2.99637681,9 L2.99637681,7.5 L8.24003623,7.5 Z" id="basic-/-credit_card" fill="#FFFFFF"></path>
                    </g>
                </g>
            </g>
        </g>
    </g>
</svg>