<?xml version="1.0" encoding="UTF-8"?>
<svg width="15px" height="13px" viewBox="0 0 15 13" version="1.1" xmlns="http://www.w3.org/2000/svg" xmlns:xlink="http://www.w3.org/1999/xlink">
    <title>2E35D94F-BA32-442D-90FE-4FCE44726B37</title>
    <g id="Welcome" stroke="none" stroke-width="1" fill="none" fill-rule="evenodd">
        <g id="Home-page-/-Récapitulatif_Produits-/-Modification_Produits" transform="translate(-662.000000, -474.000000)" fill-rule="nonzero">
            <g id="Group" transform="translate(89.000000, 128.000000)">
                <g id="Group-14" transform="translate(515.477657, 338.000000)">
                    <g id="move-by-trolley" transform="translate(58.451691, 8.500000)">
                        <path d="M2.98060641,9.17647059 C2.72302314,9.17647059 2.53903509,9 2.50223748,8.75294118 L1.54549962,0.952941176 C1.4719044,0.388235294 0.993535469,0 0.44157132,0 L0,0 L0,0.705882353 L0.44157132,0.705882353 C0.625559369,0.705882353 0.772749809,0.847058824 0.809547419,1.02352941 L1.76628528,8.85882353 C1.8398805,9.45882353 2.35504704,9.88235294 2.98060641,9.88235294 L6.99154589,9.88235294 L6.99154589,9.17647059 L2.98060641,9.17647059 Z" id="Path" fill="#FFFFFF"></path>
                        <polygon id="Path" fill="#FFFFFF" points="3.3117849 8.47058824 13.9830918 8.47058824 13.9830918 9.88235294 3.3117849 9.88235294"></polygon>
                        <path d="M12.1432113,9.88235294 C11.5335285,9.88235294 11.039283,10.3564044 11.039283,10.9411765 C11.039283,11.5259486 11.5335285,12 12.1432113,12 C12.7528941,12 13.2471396,11.5259486 13.2471396,10.9411765 C13.2471396,10.3564044 12.7528941,9.88235294 12.1432113,9.88235294 Z M5.1516654,9.88235294 C4.54198263,9.88235294 4.0477371,10.3564044 4.0477371,10.9411765 C4.0477371,11.5259486 4.54198263,12 5.1516654,12 C5.76134816,12 6.25559369,11.5259486 6.25559369,10.9411765 C6.25559369,10.3564044 5.76134816,9.88235294 5.1516654,9.88235294 Z" id="Shape" fill="#191970"></path>
                        <path d="M12.1852657,10.5 C11.9094568,10.5 11.6858696,10.7238576 11.6858696,11 C11.6858696,11.2761424 11.9094568,11.5 12.1852657,11.5 C12.4610746,11.5 12.6846618,11.2761424 12.6846618,11 C12.6846618,10.7238576 12.4610746,10.5 12.1852657,10.5 Z M5.19371981,10.5 C4.91791094,10.5 4.69432367,10.7238576 4.69432367,11 C4.69432367,11.2761424 4.91791094,11.5 5.19371981,11.5 C5.46952868,11.5 5.69311594,11.2761424 5.69311594,11 C5.69311594,10.7238576 5.46952868,10.5 5.19371981,10.5 Z" id="Shape" fill="#FFFFFF"></path>
                        <path d="M12.1432113,8.47058824 L4.7836893,8.47058824 C4.37891559,8.47058824 4.0477371,8.15294118 4.0477371,7.76470588 L4.0477371,0.705882353 C4.0477371,0.317647059 4.37891559,0 4.7836893,0 L12.1432113,0 C12.547985,0 12.8791635,0.317647059 12.8791635,0.705882353 L12.8791635,7.76470588 C12.8791635,8.15294118 12.547985,8.47058824 12.1432113,8.47058824 Z" id="Path" fill="#191970"></path>
                        <path d="M9.19940249,1.41176471 L7.72749809,1.41176471 C7.50671243,1.41176471 7.35952199,1.27058824 7.35952199,1.05882353 L7.35952199,1.05882353 C7.35952199,0.847058824 7.50671243,0.705882353 7.72749809,0.705882353 L9.19940249,0.705882353 C9.42018815,0.705882353 9.56737859,0.847058824 9.56737859,1.05882353 L9.56737859,1.05882353 C9.56737859,1.27058824 9.42018815,1.41176471 9.19940249,1.41176471 Z M9.19940249,6 L7.72749809,6 C7.50671243,6 7.35952199,5.85882353 7.35952199,5.64705882 L7.35952199,5.64705882 C7.35952199,5.43529412 7.50671243,5.29411765 7.72749809,5.29411765 L9.19940249,5.29411765 C9.42018815,5.29411765 9.56737859,5.43529412 9.56737859,5.64705882 L9.56737859,5.64705882 C9.56737859,5.85882353 9.42018815,6 9.19940249,6 Z" id="Shape" fill="#FFFFFF"></path>
                        <polygon id="Path" fill="#FFFFFF" points="4.0477371 3.88235294 12.8791635 3.88235294 12.8791635 4.58823529 4.0477371 4.58823529"></polygon>
                    </g>
                </g>
            </g>
        </g>
    </g>
</svg>