<?xml version="1.0" encoding="UTF-8"?>
<svg width="92px" height="92px" viewBox="0 0 92 92" version="1.1" xmlns="http://www.w3.org/2000/svg" xmlns:xlink="http://www.w3.org/1999/xlink">
    <title>5AE684AA-21FC-42B9-8A5B-BB542FABBB72</title>
    <g id="Welcome" stroke="none" stroke-width="1" fill="none" fill-rule="evenodd">
        <g id="Home-page-/-Récapitulatif_Produits" transform="translate(-1244.000000, -377.000000)" fill="#9B9B9B" fill-rule="nonzero">
            <g id="shoppingbasket2_114884" transform="translate(1244.000000, 377.000000)">
                <path d="M91.3954671,41.6472932 C91.3954671,38.4234028 88.7571488,35.7850845 85.5332584,35.7850845 L5.86139766,35.7850845 C2.63750729,35.7850845 0,38.4234028 0,41.6472932 C0,44.3878027 1.9124361,46.6871057 4.46397298,47.3205292 L12.5468136,85.5595186 C12.5468136,89.1021484 15.4446652,92 18.9872949,92 L73.4617152,92 C77.0043449,92 79.9021966,89.1021484 79.9021966,85.5595186 L88.0734407,46.9028428 C90.028862,45.9506799 91.3954671,43.9587617 91.3954671,41.6472932 Z M26.3304656,78.0865813 C26.3304656,79.1936531 25.4245321,80.0987755 24.3174604,80.0987755 L23.7627079,80.0987755 C22.6556361,80.0987755 21.7497026,79.1928421 21.7497026,78.0865813 L21.7497026,54.529878 C21.7497026,53.4228062 22.6556361,52.5176838 23.7627079,52.5176838 L24.3174604,52.5176838 C25.4245321,52.5176838 26.3304656,53.4228062 26.3304656,54.529878 L26.3304656,78.0865813 Z M41.0662805,78.0865813 C41.0662805,79.1936531 40.160347,80.0987755 39.0532752,80.0987755 L38.4985228,80.0987755 C37.391451,80.0987755 36.4855175,79.1928421 36.4855175,78.0865813 L36.4855175,54.529878 C36.4855175,53.4228062 37.3906399,52.5176838 38.4985228,52.5176838 L39.0532752,52.5176838 C40.160347,52.5176838 41.0662805,53.4228062 41.0662805,54.529878 L41.0662805,78.0865813 Z M55.8012843,78.0865813 C55.8012843,79.1936531 54.8961619,80.0987755 53.7882791,80.0987755 L53.2343376,80.0987755 C52.1272659,80.0987755 51.2221434,79.1928421 51.2221434,78.0865813 L51.2221434,54.529878 C51.2221434,53.4228062 52.1272659,52.5176838 53.2343376,52.5176838 L53.7890901,52.5176838 C54.8961619,52.5176838 55.8020954,53.4228062 55.8020954,54.529878 L55.8020954,78.0865813 L55.8012843,78.0865813 Z M70.5370992,78.0865813 C70.5370992,79.1936531 69.6311657,80.0987755 68.524905,80.0987755 L67.9701525,80.0987755 C66.8630807,80.0987755 65.9571473,79.1928421 65.9571473,78.0865813 L65.9571473,54.529878 C65.9571473,53.4228062 66.8630807,52.5176838 67.9701525,52.5176838 L68.524905,52.5176838 C69.6319768,52.5176838 70.5370992,53.4228062 70.5370992,54.529878 L70.5370992,78.0865813 Z" id="Shape"></path>
                <path d="M19.8867401,28.2793986 C21.7115837,15.5719988 32.6119828,5.79489225 45.8246616,5.79489225 C59.0373403,5.79489225 69.9385505,15.5719988 71.7633941,28.2793986 C72.0294157,32.6184712 77.6191145,31.9242195 77.6191145,28.2793986 C75.757774,12.360274 62.2441988,0 45.8246616,0 C29.4059354,0 15.8915492,12.360274 14.0310197,28.2793986 C14.0310197,32.7928451 19.9581117,32.966408 19.8867401,28.2793986 Z" id="Path"></path>
            </g>
        </g>
    </g>
</svg>