<?xml version="1.0" encoding="UTF-8"?>
<svg width="25px" height="25px" viewBox="0 0 25 25" version="1.1" xmlns="http://www.w3.org/2000/svg" xmlns:xlink="http://www.w3.org/1999/xlink">
    <title>3AD7E66B-1814-4551-91CD-F9E05C4F0ACF</title>
    <defs>
        <polygon id="path-1" points="0.000147964014 0.00375828595 7.88899732 0.00375828595 7.88899732 16.4240055 0.000147964014 16.4240055"></polygon>
    </defs>
    <g id="Welcome" stroke="none" stroke-width="1" fill="none" fill-rule="evenodd">
        <g id="Home-page-/-Récapitulatif_Produits-/-Modification_Produits" transform="translate(-614.000000, -582.000000)">
            <g id="Group" transform="translate(89.000000, 128.000000)">
                <g id="Description" transform="translate(515.000000, 391.000000)">
                    <g id="Group-9" transform="translate(0.000000, 55.000000)">
                        <g id="Icons/Favicons" transform="translate(10.000000, 8.000000)">
                            <rect id="Rectangle" stroke="#191970" fill="#F5F5F5" x="0.5" y="0.5" width="24" height="24" rx="6"></rect>
                            <g id="Group-10" transform="translate(2.734375, 4.218750)">
                                <path d="M17.7703449,16.3541221 C17.2261332,16.3541221 16.7834249,15.9115617 16.7834249,15.3673501 L16.7834249,7.44757627 L14.9772282,12.9197294 C14.8519027,13.2992571 14.4993044,13.554347 14.0995057,13.554347 C13.6985232,13.554347 13.345481,13.2983693 13.2210433,12.917066 L11.4358575,7.45482651 L11.4358575,15.3673501 C11.4358575,15.9115617 10.9932971,16.3541221 10.4492334,16.3541221 L9.87824031,16.3541221 C9.33402867,16.3541221 8.89132034,15.9115617 8.89132034,15.3673501 L8.89132034,1.34909149 C8.89132034,0.804879845 9.33402867,0.362171516 9.87824031,0.362171516 L10.603264,0.362171516 C11.0228899,0.362171516 11.3975348,0.628654705 11.5351413,1.0250503 L14.1092713,8.43242475 L16.6628342,1.02726976 C16.7998489,0.629542489 17.1749377,0.362171516 17.5955994,0.362171516 L18.34119,0.362171516 C18.8854017,0.362171516 19.327962,0.804879845 19.327962,1.34909149 L19.327962,15.3673501 C19.327962,15.9115617 18.8854017,16.3541221 18.34119,16.3541221 L17.7703449,16.3541221 Z" id="Fill-1" fill="#191970"></path>
                                <path d="M18.3412492,0.214207503 L17.5956586,0.214207503 C17.1116683,0.214207503 16.6806491,0.521676723 16.5229195,0.979181453 L14.1088866,7.98009876 L11.6750265,0.976518101 C11.516705,0.520493011 11.0858338,0.214207503 10.6031752,0.214207503 L9.8782995,0.214207503 C9.25241172,0.214207503 8.74341551,0.72320371 8.74341551,1.34909149 L8.74341551,15.3673501 C8.74341551,15.9930899 9.25241172,16.5020861 9.8782995,16.5020861 L10.4491447,16.5020861 C11.0748845,16.5020861 11.5838807,15.9930899 11.5838807,15.3673501 L11.5838807,8.38404052 L13.0802408,12.9630828 C13.2248016,13.4051993 13.634366,13.7023111 14.0995648,13.7023111 C14.5632841,13.7023111 14.9724046,13.406383 15.1178532,12.9663381 L16.6355201,8.36776448 L16.6355201,15.3673501 C16.6355201,15.9930899 17.1445163,16.5020861 17.7702561,16.5020861 L18.3412492,16.5020861 C18.966989,16.5020861 19.4759852,15.9930899 19.4759852,15.3673501 L19.4759852,1.34909149 C19.4759852,0.72320371 18.966989,0.214207503 18.3412492,0.214207503 M18.3412492,0.51013553 C18.8045246,0.51013553 19.1800572,0.885816161 19.1800572,1.34909149 L19.1800572,15.3673501 C19.1800572,15.8306254 18.8045246,16.2061581 18.3412492,16.2061581 L17.7702561,16.2061581 C17.3069808,16.2061581 16.9314481,15.8306254 16.9314481,15.3673501 L16.9314481,6.66055569 L16.8873548,6.66055569 L14.8367216,12.8735646 C14.7316671,13.1915393 14.4345554,13.406383 14.0995648,13.406383 C13.7636865,13.406383 13.4659829,13.1905035 13.3616683,12.8711972 L11.3320459,6.66055569 L11.2879527,6.66055569 L11.2879527,15.3673501 C11.2879527,15.8306254 10.91242,16.2061581 10.4491447,16.2061581 L9.8782995,16.2061581 C9.41487621,16.2061581 9.03934354,15.8306254 9.03934354,15.3673501 L9.03934354,1.34909149 C9.03934354,0.885816161 9.41487621,0.51013553 9.8782995,0.51013553 L10.6031752,0.51013553 C10.9602124,0.51013553 11.278335,0.736224543 11.3955225,1.07373046 L14.0877277,8.82112621 L14.131821,8.82112621 L16.8027194,1.07550603 C16.9193151,0.737260291 17.2377336,0.51013553 17.5956586,0.51013553 L18.3412492,0.51013553" id="Fill-3"></path>
                                <path d="M3.73616533,16.4203064 C3.19195368,16.4203064 2.74924536,15.9777461 2.74924536,15.4335344 L2.74924536,2.70818534 L1.13481,2.70818534 C0.590598361,2.70818534 0.147890032,2.26562498 0.147890032,1.72141334 L0.147890032,1.282848 C0.147890032,0.73878432 0.590598361,0.295928027 1.13481,0.295928027 L6.75403935,0.295928027 C7.29825099,0.295928027 7.74081136,0.73878432 7.74081136,1.282848 L7.74081136,1.72141334 C7.74081136,2.26562498 7.29825099,2.70818534 6.75403935,2.70818534 L5.2937825,2.70818534 L5.2937825,15.4335344 C5.2937825,15.9777461 4.85122213,16.4203064 4.30701049,16.4203064 L3.73616533,16.4203064 Z" id="Fill-5" fill="#D0021B"></path>
                                <g id="Group-9" transform="translate(0.000000, 0.144265)">
                                    <mask id="mask-2" fill="white">
                                        <use xlink:href="#path-1"></use>
                                    </mask>
                                    <g id="Clip-8"></g>
                                    <path d="M6.75411333,0.00375828595 L1.13473602,0.00375828595 C0.508996207,0.00375828595 0.000147964014,0.512754493 0.000147964014,1.13864227 L0.000147964014,1.57720761 C0.000147964014,2.20279946 0.508996207,2.71194363 1.13473602,2.71194363 L2.60135532,2.71194363 L2.60135532,15.2893287 C2.60135532,15.9149205 3.1104995,16.4240647 3.73623931,16.4240647 L4.30708447,16.4240647 C4.93282429,16.4240647 5.44182049,15.9149205 5.44182049,15.2893287 L5.44182049,2.71194363 L6.75411333,2.71194363 C7.37985315,2.71194363 7.88899732,2.20279946 7.88899732,1.57720761 L7.88899732,1.13864227 C7.88899732,0.512754493 7.37985315,0.00375828595 6.75411333,0.00375828595 M6.75411333,0.299686313 C7.21738866,0.299686313 7.59306929,0.675366944 7.59306929,1.13864227 L7.59306929,1.57720761 C7.59306929,2.04048293 7.21738866,2.4160156 6.75411333,2.4160156 L5.14589247,2.4160156 L5.14589247,15.2893287 C5.14589247,15.752604 4.7703598,16.1281367 4.30708447,16.1281367 L3.73623931,16.1281367 C3.27296398,16.1281367 2.89728335,15.752604 2.89728335,15.2893287 L2.89728335,2.4160156 L1.13473602,2.4160156 C0.671608658,2.4160156 0.296075991,2.04048293 0.296075991,1.57720761 L0.296075991,1.13864227 C0.296075991,0.675366944 0.671608658,0.299686313 1.13473602,0.299686313 L6.75411333,0.299686313" id="Fill-7" fill="#D0021B" mask="url(#mask-2)"></path>
                                </g>
                            </g>
                        </g>
                    </g>
                </g>
            </g>
        </g>
    </g>
</svg>