<?xml version="1.0" encoding="UTF-8"?>
<svg width="29px" height="29px" viewBox="0 0 29 29" version="1.1" xmlns="http://www.w3.org/2000/svg" xmlns:xlink="http://www.w3.org/1999/xlink">
    <title>858DBA6C-8D99-422C-9D9E-B5EC3760F32E</title>
    <g id="Welcome" stroke="none" stroke-width="1" fill="none" fill-rule="evenodd">
        <g id="Formulaire_de_vente" transform="translate(-290.000000, -1086.000000)">
            <g id="Group-6" transform="translate(56.000000, 680.000000)">
                <g id="Contrast-icon-Copy" transform="translate(234.500000, 406.500000)">
                    <rect id="bounds" x="0" y="0" width="28" height="28"></rect>
                    <g id="magicwand_79265" transform="translate(1.974657, 2.974668)" fill-rule="nonzero">
                        <polygon id="Rectangle" fill="#4A4A4A" transform="translate(4.530209, 10.499739) rotate(-164.984069) translate(-4.530209, -10.499739) " points="4.12827793 9.51546467 4.93214014 9.51546467 4.93214014 11.4840139 4.12827793 11.4840139"></polygon>
                        <polygon id="Rectangle" fill="#4A4A4A" transform="translate(2.344171, 9.238150) rotate(-135.000000) translate(-2.344171, -9.238150) " points="1.94228894 8.25398455 2.74605268 8.25398455 2.74605268 10.2223161 1.94228894 10.2223161"></polygon>
                        <polygon id="Rectangle" fill="#4A4A4A" transform="translate(1.080011, 7.052779) rotate(-14.986778) translate(-1.080011, -7.052779) " points="0.0958213626 6.65078213 2.0642013 6.65078213 2.0642013 7.45477494 0.0958213626 7.45477494"></polygon>
                        <polygon id="Rectangle" fill="#4A4A4A" transform="translate(1.081615, 4.528241) rotate(14.986778) translate(-1.081615, -4.528241) " points="0.0973992869 4.12624462 2.06583156 4.12624462 2.06583156 4.93023742 0.0973992869 4.93023742"></polygon>
                        <polygon id="Rectangle" fill="#4A4A4A" transform="translate(2.343701, 2.343222) rotate(44.967588) translate(-2.343701, -2.343222) " points="1.3595347 1.94133961 3.32786659 1.94133961 3.32786659 2.74510348 1.3595347 2.74510348"></polygon>
                        <polygon id="Rectangle" fill="#4A4A4A" transform="translate(4.528788, 1.080952) rotate(74.984069) translate(-4.528788, -1.080952) " points="3.54451308 0.67902054 5.5130623 0.67902054 5.5130623 1.48288275 3.54451308 1.48288275"></polygon>
                        <polygon id="Rectangle" fill="#4A4A4A" transform="translate(7.053183, 1.079911) rotate(14.963157) translate(-7.053183, -1.079911) " points="6.65129418 0.0957273032 7.45507223 0.0957273032 7.45507223 2.06409395 6.65129418 2.06409395"></polygon>
                        <polygon id="Rectangle" fill="#4A4A4A" transform="translate(9.238291, 2.341760) rotate(45.000000) translate(-9.238291, -2.341760) " points="8.83640937 1.35759436 9.6401731 1.35759436 9.6401731 3.32592594 8.83640937 3.32592594"></polygon>
                        <polygon id="Rectangle" fill="#4A4A4A" transform="translate(10.501204, 4.527711) rotate(165.024292) translate(-10.501204, -4.527711) " points="9.51709067 4.12576144 11.4853165 4.12576144 11.4853165 4.92966035 9.51709067 4.92966035"></polygon>
                        <polygon id="Path" fill="#4A4A4A" points="11.8731467 9.92233992 11.8734084 9.92207828 9.35419189 7.40322811 7.40405188 9.35226921 7.40415654 9.35237387 7.40405188 9.35247852 21.0771147 23.025332 23.0270454 21.0762909"></polygon>
                        <polygon id="Path" points="10.4917692 11.3030895 11.3046459 10.4905791 21.8903577 21.076134 21.077324 21.8886443"></polygon>
                        <polygon id="Path" points="8.54094892 9.35226921 9.35398257 8.53991583 10.736145 9.92202595 9.92342534 10.7343793"></polygon>
                        <path d="M7.69505273,3.88630939 C7.18673008,3.37777743 6.51064108,3.09771332 5.79174706,3.09771332 C5.07316701,3.09771332 4.39713034,3.37777743 3.88844139,3.88630939 C2.83909056,4.93566023 2.83909056,6.64341291 3.88844139,7.69333936 C4.39697335,8.20202831 5.07301003,8.48230174 5.79174706,8.48230174 C6.51069341,8.48230174 7.18673008,8.20202831 7.69526204,7.69333936 C8.74476987,6.6435699 8.74476987,4.93566023 7.69505273,3.88630939 Z" id="Path" fill="#4A4A4A"></path>
                        <path d="M7.12686586,7.12510016 C6.77019228,7.48198306 6.29593572,7.67863495 5.79169473,7.67863495 C5.28745374,7.67863495 4.8134065,7.48198306 4.45673292,7.12510016 C3.72046572,6.38867597 3.72046572,5.19071114 4.45657593,4.45460093 C4.81345883,4.09792735 5.28766305,3.90143244 5.79174706,3.90143244 C6.29598805,3.90143244 6.77003529,4.09792735 7.12691818,4.45460093 C7.86313306,5.19071114 7.86292374,6.38867597 7.12686586,7.12510016 Z" id="Path"></path>
                    </g>
                </g>
            </g>
        </g>
    </g>
</svg>