<?xml version="1.0" encoding="UTF-8"?>
<svg width="19px" height="18px" viewBox="0 0 19 18" version="1.1" xmlns="http://www.w3.org/2000/svg" xmlns:xlink="http://www.w3.org/1999/xlink">
    <title>5E9D9E16-8CDA-48DF-B050-B87BB86B7496</title>
    <g id="Welcome" stroke="none" stroke-width="1" fill="none" fill-rule="evenodd" stroke-linecap="round" stroke-linejoin="round">
        <g id="Boutique-/-Présentoire-/-Voir_Produit-/-Description" transform="translate(-447.000000, -669.000000)" stroke="#9B9B9B" stroke-width="1.125">
            <g id="Messagerie-Copy" transform="translate(182.000000, 128.000000)">
                <g id="Group" transform="translate(0.000000, 121.000000)">
                    <g id="Extra-Icons" transform="translate(239.000000, 420.500000)">
                        <g id="Attachment-Icon" transform="translate(27.000000, 0.000000)">
                            <path d="M16.4657051,7.0125 L8.6917677,14.7885833 C6.82490722,16.655789 3.79812834,16.655789 1.93126786,14.7885833 C0.064407386,12.9213776 0.064407386,9.89403904 1.93126786,8.02683333 L8.31642044,1.64120833 C9.11657235,0.81259672 10.3014766,0.48028068 11.4157144,0.771986147 C12.5299522,1.06369161 13.4001221,1.93402242 13.6917736,3.04846624 C13.9834251,4.16291005 13.6511705,5.34803346 12.8227121,6.14833333 L6.43826775,12.5375 C5.81312455,13.141586 4.81927511,13.1331047 4.20452863,12.5184378 C3.58978215,11.9037708 3.58099004,10.9097403 4.18476781,10.2842917 L10.5699204,3.89583333" id="Path"></path>
                        </g>
                    </g>
                </g>
            </g>
        </g>
    </g>
</svg>