<?xml version="1.0" encoding="UTF-8"?>
<svg width="48px" height="27px" viewBox="0 0 48 27" version="1.1" xmlns="http://www.w3.org/2000/svg" xmlns:xlink="http://www.w3.org/1999/xlink">
    <title>57FD2B71-989D-4FFE-A451-32BFDEC95314</title>
    <g id="Welcome" stroke="none" stroke-width="1" fill="none" fill-rule="evenodd">
        <g id="Formulaire_de_vente" transform="translate(-1344.000000, -1550.000000)" fill="#191970" fill-rule="nonzero">
            <g id="20-airplane" transform="translate(1344.000000, 1550.000000)">
                <path d="M46.4617709,13.9498181 L44.6677952,13.3498263 C43.7078407,13.0309799 42.8609152,12.440659 42.2295783,11.6503493 L42.1373296,11.5341009 C40.8597111,9.92855272 38.9182469,8.99511397 36.8664011,8.99988529 L29.4580016,8.99988529 L18.3866518,2.35722543 C18.270019,2.28709379 18.1365014,2.25001996 18.0004071,2.24997689 L14.250458,2.24997689 C13.9471651,2.25004165 13.6737652,2.43277003 13.5577089,2.71297968 C13.4416525,2.99318934 13.5057871,3.31571673 13.7202151,3.53020951 L19.1898909,8.99988529 L10.1517636,8.99988529 L4.37684193,0.333752887 C4.23725874,0.124538795 4.00210267,-0.000783902554 3.75060043,3.69033455e-06 L0.750641135,3.69033455e-06 C0.509561719,3.69033455e-06 0.28315123,0.115784281 0.142142594,0.311324182 C0.00113395685,0.506864082 -0.0372803119,0.758267707 0.0389007929,0.986994023 L2.70961455,8.99988529 L2.20562139,8.99988529 C1.22683784,8.99967602 0.365067751,9.6447246 0.0894233605,10.5838931 C-0.18622103,11.5230616 0.190244494,12.5315303 1.01388756,13.0603302 L2.15387209,13.7930703 L0.128899572,16.833529 C-0.0244251538,17.0633342 -0.0390012172,17.3588229 0.0909622133,17.6026023 C0.220925644,17.8463817 0.474383507,17.9989765 0.750641135,17.9997632 L2.25062078,17.9997632 C2.41289624,17.9997632 2.57079431,17.9471305 2.70061468,17.8497652 L8.70053326,13.3498263 C8.958788,13.1561352 9.06412634,12.8189193 8.96204219,12.5126668 C8.85995804,12.2064144 8.57335779,11.9998446 8.25053937,11.9998446 L3.75060043,11.9998446 C3.49989493,11.9998071 3.26575045,12.1250406 3.1266089,12.3335901 L2.98561081,12.5450872 L1.82537655,11.7950974 C1.56504704,11.6250803 1.44683954,11.3045898 1.53442377,11.0062506 C1.62200799,10.7079114 1.89470033,10.5021785 2.20562139,10.4998649 L36.8664011,10.4998649 C37.8178359,10.4997513 38.751297,10.7590461 39.5663644,11.2498548 L39.375117,11.2498548 C38.3395972,11.2498548 37.5001425,12.0893095 37.5001425,13.1248293 C37.5001425,14.1603492 38.3395972,14.9998039 39.375117,14.9998039 L44.832043,14.9998039 C44.8425428,14.9998039 44.8515427,14.994554 44.8612926,14.993804 L45.9862773,15.3687989 C46.2926802,15.4708514 46.4993481,15.757588 46.4992704,16.0805392 L46.4992704,16.169038 C46.4993481,16.4919892 46.2926802,16.7787258 45.9862773,16.8807784 L44.3595494,17.422271 C43.2119304,17.8052928 42.0099468,18.0003048 40.8000977,17.9997632 L29.5,17.9997632 L29.7002483,17.8497652 C29.9585031,17.6560742 30.0638414,17.3188582 29.9617572,17.0126057 C29.8596731,16.7063533 29.5730728,16.4997835 29.2502544,16.4997835 L21.0003664,16.4997835 C20.7902113,16.4997629 20.5896887,16.5879166 20.4476239,16.7427802 L19.2956395,17.9997632 L14.7754508,17.9997632 C12.6182273,18.0009256 10.506322,17.3807113 8.69228337,16.2132874 L8.21453986,15.9057916 C7.86619098,15.681498 7.40197253,15.7820647 7.17767893,16.1304135 C6.95338532,16.4787624 7.053952,16.9429809 7.40230088,17.1672745 L7.88004439,17.4747703 C9.93629779,18.7980671 12.330192,19.5010815 14.7754508,19.4997428 L17.9209081,19.4997428 L12.1984858,25.7426581 C11.9974774,25.9617753 11.9449018,26.2789524 12.06446,26.551207 C12.1840181,26.8234616 12.4531289,26.9996411 12.7504783,26.9996411 L17.2504172,26.9996411 C17.4126927,26.9996411 17.5705908,26.9470084 17.7004111,26.8496431 L27.5005282,19.4997428 L40.8000977,19.4997428 C42.1705681,19.5000367 43.5320872,19.2789418 44.832043,18.8450017 L46.4595209,18.3027591 C47.3787986,17.9972959 47.9993726,17.1377375 48,16.169038 L48,16.0805392 C47.9984058,15.1135413 47.3791133,14.2557109 46.4617709,13.9498181 Z M4.15184498,13.4998242 L6.0005699,13.4998242 L2.30312007,16.2747866 L4.15184498,13.4998242 Z M4.29134309,8.99988529 L1.79087702,1.49998706 L3.34935587,1.49998706 L8.34878803,8.99988529 L4.29134309,8.99988529 Z M21.3108621,8.99988529 L16.0609334,3.74995653 L17.7926599,3.74995653 L26.5427912,8.99988529 L21.3108621,8.99988529 Z M39.0001221,13.1248293 C39.0001221,12.9177254 39.1680131,12.7498344 39.375117,12.7498344 L41.2095921,12.7498344 C41.4418473,13.0192268 41.6948694,13.269992 41.9663319,13.4998242 L39.375117,13.4998242 C39.1680131,13.4998242 39.0001221,13.3319333 39.0001221,13.1248293 Z M17.0006706,25.4996614 L14.4552052,25.4996614 L21.3303619,17.9997632 L27.0002849,17.9997632 L17.0006706,25.4996614 Z" id="Shape"></path>
                <path d="M34.5001832,14.2498141 L34.5001832,13.4998242 C34.5001832,13.0856163 34.1644013,12.7498344 33.7501934,12.7498344 C33.3359854,12.7498344 33.0002035,13.0856163 33.0002035,13.4998242 L33.0002035,14.2498141 C33.0002035,14.664022 33.3359854,14.9998039 33.7501934,14.9998039 C34.1644013,14.9998039 34.5001832,14.664022 34.5001832,14.2498141 Z" id="Path"></path>
                <path d="M30.7502341,14.9998039 C31.164442,14.9998039 31.5002239,14.664022 31.5002239,14.2498141 L31.5002239,13.4998242 C31.5002239,13.0856163 31.164442,12.7498344 30.7502341,12.7498344 C30.3360261,12.7498344 30.0002442,13.0856163 30.0002442,13.4998242 L30.0002442,14.2498141 C30.0002442,14.664022 30.3360261,14.9998039 30.7502341,14.9998039 Z" id="Path"></path>
                <path d="M28.5002646,14.2498141 L28.5002646,13.4998242 C28.5002646,13.0856163 28.1644827,12.7498344 27.7502748,12.7498344 C27.3360668,12.7498344 27.0002849,13.0856163 27.0002849,13.4998242 L27.0002849,14.2498141 C27.0002849,14.664022 27.3360668,14.9998039 27.7502748,14.9998039 C28.1644827,14.9998039 28.5002646,14.664022 28.5002646,14.2498141 Z" id="Path"></path>
                <path d="M25.5003053,14.2498141 L25.5003053,13.4998242 C25.5003053,13.0856163 25.1645234,12.7498344 24.7503155,12.7498344 C24.3361075,12.7498344 24.0003257,13.0856163 24.0003257,13.4998242 L24.0003257,14.2498141 C24.0003257,14.664022 24.3361075,14.9998039 24.7503155,14.9998039 C25.1645234,14.9998039 25.5003053,14.664022 25.5003053,14.2498141 Z" id="Path"></path>
                <path d="M22.500346,14.2498141 L22.500346,13.4998242 C22.500346,13.0856163 22.1645641,12.7498344 21.7503562,12.7498344 C21.3361482,12.7498344 21.0003664,13.0856163 21.0003664,13.4998242 L21.0003664,14.2498141 C21.0003664,14.664022 21.3361482,14.9998039 21.7503562,14.9998039 C22.1645641,14.9998039 22.500346,14.664022 22.500346,14.2498141 Z" id="Path"></path>
                <path d="M19.5003867,14.2498141 L19.5003867,13.4998242 C19.5003867,13.0856163 19.1646048,12.7498344 18.7503969,12.7498344 C18.336189,12.7498344 18.0004071,13.0856163 18.0004071,13.4998242 L18.0004071,14.2498141 C18.0004071,14.664022 18.336189,14.9998039 18.7503969,14.9998039 C19.1646048,14.9998039 19.5003867,14.664022 19.5003867,14.2498141 Z" id="Path"></path>
                <path d="M16.5004274,14.2498141 L16.5004274,13.4998242 C16.5004274,13.0856163 16.1646455,12.7498344 15.7504376,12.7498344 C15.3362297,12.7498344 15.0004478,13.0856163 15.0004478,13.4998242 L15.0004478,14.2498141 C15.0004478,14.664022 15.3362297,14.9998039 15.7504376,14.9998039 C16.1646455,14.9998039 16.5004274,14.664022 16.5004274,14.2498141 Z" id="Path"></path>
                <path d="M13.5004681,14.2498141 L13.5004681,13.4998242 C13.5004681,13.0856163 13.1646862,12.7498344 12.7504783,12.7498344 C12.3362704,12.7498344 12.0004885,13.0856163 12.0004885,13.4998242 L12.0004885,14.2498141 C12.0004885,14.664022 12.3362704,14.9998039 12.7504783,14.9998039 C13.1646862,14.9998039 13.5004681,14.664022 13.5004681,14.2498141 Z" id="Path"></path>
            </g>
        </g>
    </g>
</svg>