<?xml version="1.0" encoding="UTF-8"?>
<svg width="48px" height="27px" viewBox="0 0 48 27" version="1.1" xmlns="http://www.w3.org/2000/svg" xmlns:xlink="http://www.w3.org/1999/xlink">
    <title>1E36B3C5-3C56-417D-A69B-71608D0FE877</title>
    <g id="Welcome" stroke="none" stroke-width="1" fill="none" fill-rule="evenodd">
        <g id="Formulaire_de_vente" transform="translate(-1344.000000, -1579.000000)" fill="#191970" fill-rule="nonzero">
            <g id="24-ship" transform="translate(1344.000000, 1579.000000)">
                <path d="M47.8743321,15.3361186 C47.7354436,15.1257679 47.5001742,14.9992577 47.2481079,14.9993824 L39.7484167,14.9993824 C39.4628092,14.9978234 39.2011086,15.1586239 39.0734445,15.4141154 L37.0350284,19.4991972 L35.998571,19.4991972 L35.998571,8.24966032 C35.998571,7.83546381 35.6627984,7.4996912 35.2486019,7.4996912 L17.2493429,7.4996912 C16.8351464,7.4996912 16.4993738,7.83546381 16.4993738,8.24966032 L16.4993738,19.4991972 L16.2901324,19.4991972 L14.9994356,15.6286065 L14.9994356,12.7494751 C14.9994356,11.5068855 13.9921177,10.4995677 12.7495282,10.4995677 L10.4996208,10.4995677 L10.4996208,2.24990733 C10.4996208,1.00731781 9.49230296,0 8.24971344,0 C7.00712393,0 5.9998061,1.00731781 5.99980607,2.24990733 L5.99980607,10.4995677 L3.7498987,10.4995677 C2.50730917,10.4995677 1.5,11.5068855 1.5,12.7494751 L1.5,15.6286065 L0.0390514691,20.0121761 C-0.0157127819,20.1751768 -0.0128002624,20.3520462 0.0473011295,20.5131554 L1.93272351,25.5379486 C2.2638307,26.4148375 3.10207222,26.9961456 4.03938678,26.9988884 L41.7628337,26.9988884 C42.6624254,26.9984892 43.4753096,26.4622687 43.8297486,25.6354446 L47.9403294,16.0448394 C48.0389791,15.8125428 48.0141774,15.5462061 47.8743321,15.3361186 Z M26.9989416,14.9993824 L34.4986328,14.9993824 L34.4986328,19.4991972 L26.9989416,19.4991972 L26.9989416,14.9993824 Z M34.4986328,13.4994442 L26.9989416,13.4994442 L26.9989416,8.99962945 L34.4986328,8.99962945 L34.4986328,13.4994442 Z M17.9993121,8.99962945 L25.4990033,8.99962945 L25.4990033,13.4994442 L17.9993121,13.4994442 L17.9993121,8.99962945 Z M17.9993121,14.9993824 L25.4990033,14.9993824 L25.4990033,19.4991972 L17.9993121,19.4991972 L17.9993121,14.9993824 Z M2.78918825,16.5045705 L13.7094887,16.4993207 L14.7091975,19.4991972 L1.79022937,19.4991972 L2.78918825,16.5045705 Z M7.49974432,2.24990733 C7.49974432,1.83571082 7.83551693,1.4999382 8.24971344,1.4999382 C8.66390995,1.4999382 8.99968257,1.83571082 8.99968257,2.24990733 L8.99968257,10.4995677 L7.49974432,10.4995677 L7.49974432,2.24990733 Z M3.7498987,11.9995059 L12.7495282,11.9995059 C13.1637247,11.9995059 13.4994973,12.3352786 13.4994973,12.7494751 L13.4994973,14.9993824 L2.99992957,14.9993824 L2.99992957,12.7494751 C2.99992957,12.3352786 3.33570219,11.9995059 3.7498987,11.9995059 Z M43.5395106,22.4990737 L32.2487254,22.4990737 C31.8345289,22.4990737 31.4987563,22.8348463 31.4987563,23.2490428 C31.4987563,23.6632393 31.8345289,23.9990119 32.2487254,23.9990119 L42.898287,23.9990119 L42.4483055,25.0444689 C42.3301234,25.3201604 42.0590386,25.4989502 41.7590839,25.4989502 L4.03938678,25.4989502 C3.72683309,25.4988328 3.44712201,25.3048878 3.33741568,25.0122202 L2.9579313,23.9990119 L29.2488489,23.9990119 C29.6630454,23.9990119 29.9988181,23.6632393 29.9988181,23.2490428 C29.9988181,22.8348463 29.6630454,22.4990737 29.2488489,22.4990737 L2.39470449,22.4990737 L1.83222765,20.9991354 L37.4985093,20.9991354 C37.7841168,21.0006945 38.0458173,20.839894 38.1734815,20.5844025 L40.2118976,16.4993207 L46.1104047,16.4993207 L43.5395106,22.4990737 Z" id="Shape"></path>
                <path d="M7.49974432,17.2492898 L4.49986782,17.2492898 C4.08567131,17.2492898 3.7498987,17.5850624 3.7498987,17.9992589 C3.7498987,18.4134554 4.08567131,18.7492281 4.49986782,18.7492281 L7.49974432,18.7492281 C7.91394083,18.7492281 8.24971344,18.4134554 8.24971344,17.9992589 C8.24971344,17.5850624 7.91394083,17.2492898 7.49974432,17.2492898 Z" id="Path"></path>
                <path d="M11.9995591,17.2492898 L10.4996208,17.2492898 C10.0854243,17.2492898 9.74965169,17.5850624 9.74965169,17.9992589 C9.74965169,18.4134554 10.0854243,18.7492281 10.4996208,18.7492281 L11.9995591,18.7492281 C12.4137556,18.7492281 12.7495282,18.4134554 12.7495282,17.9992589 C12.7495282,17.5850624 12.4137556,17.2492898 11.9995591,17.2492898 Z" id="Path"></path>
                <path d="M19.4992503,15.7493516 C19.0850538,15.7493516 18.7492812,16.0851242 18.7492812,16.4993207 L18.7492812,17.9992589 C18.7492812,18.4134554 19.0850538,18.7492281 19.4992503,18.7492281 C19.9134468,18.7492281 20.2492194,18.4134554 20.2492194,17.9992589 L20.2492194,16.4993207 C20.2492194,16.0851242 19.9134468,15.7493516 19.4992503,15.7493516 Z" id="Path"></path>
                <path d="M23.9990651,15.7493516 C23.5848685,15.7493516 23.2490959,16.0851242 23.2490959,16.4993207 L23.2490959,17.9992589 C23.2490959,18.4134554 23.5848685,18.7492281 23.9990651,18.7492281 C24.4132616,18.7492281 24.7490342,18.4134554 24.7490342,17.9992589 L24.7490342,16.4993207 C24.7490342,16.0851242 24.4132616,15.7493516 23.9990651,15.7493516 Z" id="Path"></path>
                <path d="M21.7491577,15.7493516 C21.3349612,15.7493516 20.9991886,16.0851242 20.9991886,16.4993207 L20.9991886,17.9992589 C20.9991886,18.4134554 21.3349612,18.7492281 21.7491577,18.7492281 C22.1633542,18.7492281 22.4991268,18.4134554 22.4991268,17.9992589 L22.4991268,16.4993207 C22.4991268,16.0851242 22.1633542,15.7493516 21.7491577,15.7493516 Z" id="Path"></path>
                <path d="M28.4988798,15.7493516 C28.0846833,15.7493516 27.7489107,16.0851242 27.7489107,16.4993207 L27.7489107,17.9992589 C27.7489107,18.4134554 28.0846833,18.7492281 28.4988798,18.7492281 C28.9130763,18.7492281 29.2488489,18.4134554 29.2488489,17.9992589 L29.2488489,16.4993207 C29.2488489,16.0851242 28.9130763,15.7493516 28.4988798,15.7493516 Z" id="Path"></path>
                <path d="M32.9986945,15.7493516 C32.584498,15.7493516 32.2487254,16.0851242 32.2487254,16.4993207 L32.2487254,17.9992589 C32.2487254,18.4134554 32.584498,18.7492281 32.9986945,18.7492281 C33.4128911,18.7492281 33.7486637,18.4134554 33.7486637,17.9992589 L33.7486637,16.4993207 C33.7486637,16.0851242 33.4128911,15.7493516 32.9986945,15.7493516 Z" id="Path"></path>
                <path d="M30.7487872,15.7493516 C30.3345907,15.7493516 29.9988181,16.0851242 29.9988181,16.4993207 L29.9988181,17.9992589 C29.9988181,18.4134554 30.3345907,18.7492281 30.7487872,18.7492281 C31.1629837,18.7492281 31.4987563,18.4134554 31.4987563,17.9992589 L31.4987563,16.4993207 C31.4987563,16.0851242 31.1629837,15.7493516 30.7487872,15.7493516 Z" id="Path"></path>
                <path d="M19.4992503,9.74959857 C19.0850538,9.74959857 18.7492812,10.0853712 18.7492812,10.4995677 L18.7492812,11.9995059 C18.7492812,12.4137025 19.0850538,12.7494751 19.4992503,12.7494751 C19.9134468,12.7494751 20.2492194,12.4137025 20.2492194,11.9995059 L20.2492194,10.4995677 C20.2492194,10.0853712 19.9134468,9.74959857 19.4992503,9.74959857 Z" id="Path"></path>
                <path d="M23.9990651,9.74959857 C23.5848685,9.74959857 23.2490959,10.0853712 23.2490959,10.4995677 L23.2490959,11.9995059 C23.2490959,12.4137025 23.5848685,12.7494751 23.9990651,12.7494751 C24.4132616,12.7494751 24.7490342,12.4137025 24.7490342,11.9995059 L24.7490342,10.4995677 C24.7490342,10.0853712 24.4132616,9.74959857 23.9990651,9.74959857 Z" id="Path"></path>
                <path d="M21.7491577,9.74959857 C21.3349612,9.74959857 20.9991886,10.0853712 20.9991886,10.4995677 L20.9991886,11.9995059 C20.9991886,12.4137025 21.3349612,12.7494751 21.7491577,12.7494751 C22.1633542,12.7494751 22.4991268,12.4137025 22.4991268,11.9995059 L22.4991268,10.4995677 C22.4991268,10.0853712 22.1633542,9.74959857 21.7491577,9.74959857 Z" id="Path"></path>
                <path d="M28.4988798,12.7494751 C28.9130763,12.7494751 29.2488489,12.4137025 29.2488489,11.9995059 L29.2488489,10.4995677 C29.2488489,10.0853712 28.9130763,9.74959857 28.4988798,9.74959857 C28.0846833,9.74959857 27.7489107,10.0853712 27.7489107,10.4995677 L27.7489107,11.9995059 C27.7489107,12.4137025 28.0846833,12.7494751 28.4988798,12.7494751 Z" id="Path"></path>
                <path d="M32.9986945,12.7494751 C33.4128911,12.7494751 33.7486637,12.4137025 33.7486637,11.9995059 L33.7486637,10.4995677 C33.7486637,10.0853712 33.4128911,9.74959857 32.9986945,9.74959857 C32.584498,9.74959857 32.2487254,10.0853712 32.2487254,10.4995677 L32.2487254,11.9995059 C32.2487254,12.4137025 32.584498,12.7494751 32.9986945,12.7494751 Z" id="Path"></path>
                <path d="M30.7487872,12.7494751 C31.1629837,12.7494751 31.4987563,12.4137025 31.4987563,11.9995059 L31.4987563,10.4995677 C31.4987563,10.0853712 31.1629837,9.74959857 30.7487872,9.74959857 C30.3345907,9.74959857 29.9988181,10.0853712 29.9988181,10.4995677 L29.9988181,11.9995059 C29.9988181,12.4137025 30.3345907,12.7494751 30.7487872,12.7494751 Z" id="Path"></path>
            </g>
        </g>
    </g>
</svg>