<?xml version="1.0" encoding="UTF-8"?>
<svg width="360px" height="57px" viewBox="0 0 360 57" version="1.1" xmlns="http://www.w3.org/2000/svg" xmlns:xlink="http://www.w3.org/1999/xlink">
    <title>481BD6D0-2AEB-4636-BD1F-F0BD8FF8DE8F</title>
    <g id="Welcome" stroke="none" stroke-width="1" fill="none" fill-rule="evenodd">
        <g id="Marchand-/-Bienvenue" transform="translate(-531.000000, -360.000000)">
            <g id="Bienvenu" transform="translate(531.000000, 360.000000)">
                <path d="M26.6754271,30.4925229 C29.0102935,29.5045734 30.7840561,28.1130197 31.9967148,26.3178619 C33.2068215,24.5306894 33.8414838,22.4167659 33.815703,20.2592043 C33.815703,15.863212 32.3669514,12.5539641 29.4694481,10.3314607 C26.5719448,8.10895731 22.3521682,6.99847146 16.8101183,7.00000158 L3.90932983,7.00000158 C1.75026658,7.00000158 0,8.74871034 0,10.90585 L0,52.0941532 C0,54.2512928 1.75026658,56.0000016 3.90932983,56.0000016 L17.8863338,56.0000016 C23.3885239,56.0000016 27.6159658,54.7662119 30.5686597,52.2986358 C33.5213535,49.8310596 34.9984669,46.2958853 35,41.6931129 C35,38.9100056 34.2756242,36.5259074 32.8268725,34.5408182 C31.3781209,32.555729 29.3276391,31.2062972 26.6754271,30.4925229 Z M8.50854139,13.8651033 L16.7871222,13.8651033 C19.6999562,13.8651033 21.8500876,14.4011999 23.2375164,15.4733932 C24.6249452,16.5455864 25.314827,18.2963248 25.3072248,20.7256083 C25.3072248,22.9236045 24.5605563,24.6230307 23.0673456,25.8238872 C21.5741349,27.0247436 19.5044897,27.624406 16.85841,27.6228772 L8.52233903,27.6228772 L8.50854139,13.8651033 Z M24.2401445,47.2187374 C22.7346693,48.5421302 20.6458607,49.2038266 17.9737188,49.2038266 L8.52233903,49.2038266 L8.52233903,33.8814193 L18.695795,33.8814193 C23.9082348,33.9932338 26.5144547,36.5971316 26.5144547,41.6931129 C26.5113885,44.0534698 25.7578844,45.8953446 24.2539422,47.2187374 L24.2401445,47.2187374 Z" id="Shape" fill="#191970" fill-rule="nonzero"></path>
                <path d="M51.9988123,13.1915673 L51.9982053,51.8874994 C51.9546445,53.3392498 51.1206924,54.6753538 49.7801648,55.4164146 C48.3726108,56.1945285 46.6273892,56.1945285 45.2198352,55.4164146 C43.8122812,54.6383007 42.9632267,53.2041518 43.001224,51.6689294 L43.0008121,13.191207 C44.1686295,14.3115152 45.7539126,15 47.5,15 C49.2459002,15 50.8310306,14.3116628 51.9988123,13.1915673 Z" id="Combined-Shape" fill="#191970" fill-rule="nonzero"></path>
                <circle id="Oval" fill="#D0021B" cx="47.5" cy="6.5" r="6.5"></circle>
                <path d="M91.0966649,49.2038261 L71.5065613,49.2038261 L71.5065613,34.1272565 L88.2466112,34.1272565 C90.1032701,34.1272565 91.6083895,32.6202823 91.6083895,30.7613354 C91.6083895,28.9023885 90.1032701,27.3954143 88.2466112,27.3954143 L71.5065613,27.3954143 L71.5065613,13.8651006 L90.8648972,13.8651006 C93.019382,13.8651006 94.7659369,12.1163933 94.7659369,9.95925353 L94.7659369,7 L66.9010397,7 C64.746555,7 63,8.74870729 63,10.905847 L63,52.094153 C63,54.2512927 64.746555,56 66.9010397,56 L95,56 L95,53.1119707 C95.0006086,52.0752795 94.5895612,51.0808731 93.8574119,50.3478216 C93.1252626,49.61477 92.1320802,49.2032161 91.0966649,49.2038261 Z" id="Path" fill="#191970" fill-rule="nonzero"></path>
                <path d="M137.083171,7 L136.451498,7 C134.28702,7 132.532364,8.74796964 132.532364,10.9041995 L132.532364,41.8851706 L111.6964,8.83727034 C110.981036,7.6952914 109.7256,7.00096664 108.374357,7 L105.919135,7 C103.754656,7 102,8.74796964 102,10.9041995 L102,52.0751312 C102,54.2313611 103.754656,55.9793307 105.919135,55.9793307 L106.622273,55.9793307 C108.786752,55.9793307 110.541408,54.2313611 110.541408,52.0751312 L110.541408,21.2388451 L131.3036,54.1627297 C132.018529,55.3040166 133.272915,55.9982421 134.623337,56 L137.080865,56 C139.245344,56 141,54.2520304 141,52.0958005 L141,10.9041995 C141,8.7488662 139.246749,7.00126784 137.083171,7 Z" id="Path" fill="#191970" fill-rule="nonzero"></path>
                <path d="M184.104346,7 L183.152136,7 C181.46513,6.99890981 179.969574,8.0890658 179.448587,9.69963193 L167.916772,45.3347405 L156.51314,9.7226075 C155.999957,8.10214768 154.501306,7.00111858 152.807302,7 L151.891716,7 C150.624828,7 149.437178,7.61877359 148.708375,8.65892994 C147.979571,9.69908629 147.800862,11.030251 148.229369,12.2269446 L162.935981,53.4106533 C163.489754,54.9632775 164.955368,55.9994935 166.598328,56 L169.345088,56 C170.986866,56 172.452128,54.9660606 173.007435,53.4152484 L187.768982,12.2315397 C188.199507,11.0339166 188.021467,9.70083014 187.291893,8.65930922 C186.562318,7.61778831 185.372788,6.99856754 184.104346,7 Z" id="Path" fill="#191970" fill-rule="nonzero"></path>
                <path d="M223.638463,49.1978903 L203.505952,49.1978903 L203.505952,34.1234412 L220.242507,34.1234412 C222.099033,34.1234412 223.604044,32.6166789 223.604044,30.7579934 C223.604044,28.899308 222.099033,27.3925457 220.242507,27.3925457 L203.505952,27.3925457 L203.505952,13.864135 L223.402122,13.864135 C225.258648,13.864135 226.76366,12.3573728 226.76366,10.4986873 L226.76366,7 L198.361537,7 C196.505012,7 195,8.50676227 195,10.3654477 L195,52.6345523 C195,53.5271245 195.354161,54.3831393 195.984571,55.0142832 C196.614982,55.6454271 197.470002,56 198.361537,56 L227,56 L227,52.563338 C227,50.7046526 225.494988,49.1978903 223.638463,49.1978903 L223.638463,49.1978903 Z" id="Path" fill="#191970" fill-rule="nonzero"></path>
                <path d="M269.091468,7 L268.455035,7 C266.290044,7 264.534973,8.74796964 264.534973,10.9041995 L264.534973,41.8851706 L243.696387,8.83727034 C242.981289,7.69598336 241.726607,7.00175789 240.375865,7 L237.920061,7 C235.755071,7 234,8.74796964 234,10.9041995 L234,52.0751312 C234,54.2313611 235.755071,55.9793307 237.920061,55.9793307 L238.611837,55.9793307 C240.776827,55.9793307 242.531899,54.2313611 242.531899,52.0751312 L242.531899,21.2388451 L263.301307,54.1627297 C264.016405,55.3040166 265.271088,55.9982421 266.621829,56 L269.079939,56 C271.244929,56 273,54.2520304 273,52.0958005 L273,10.9041995 C273,8.75244606 271.251954,7.00632869 269.091468,7 L269.091468,7 Z" id="Path" fill="#191970" fill-rule="nonzero"></path>
                <path d="M315.599009,7 L313.83235,7 C311.954035,7 310.431359,8.5168197 310.431359,10.3879106 L310.431359,39.7228161 C310.431359,46.6790159 307.12168,50.1571159 300.502321,50.1571159 C297.238298,50.1571159 294.767453,49.2875909 293.089785,47.5485409 C291.412118,45.809491 290.573284,43.2918769 290.573284,39.9956989 L290.573284,10.3948483 C290.575135,9.49471648 290.217315,8.63085378 289.578803,7.99392938 C288.94029,7.35700498 288.07358,6.99938448 287.169971,7 L285.400991,7 C283.522676,7 282,8.5168197 282,10.3879106 L282,39.9263219 C282,45.2806841 283.666834,49.4648877 287.000502,52.4789326 C290.33417,55.4929775 294.834003,57 300.5,57 C306.099448,57 310.582256,55.4698519 313.948425,52.4095556 C317.314594,49.3492593 318.998452,45.1997443 319,39.9610104 L319,10.3879106 C319,8.5168197 317.477324,7 315.599009,7 Z" id="Path" fill="#191970" fill-rule="nonzero"></path>
                <path d="M356.638222,49.1978903 L336.504267,49.1978903 L336.504267,34.1234412 L353.255791,34.1234412 C355.11245,34.1234412 356.617569,32.6166789 356.617569,30.7579934 C356.617569,28.899308 355.11245,27.3925457 353.255791,27.3925457 L336.504267,27.3925457 L336.504267,13.864135 L356.404159,13.864135 C357.295758,13.864135 358.15084,13.5095621 358.781296,12.8784182 C359.411751,12.2472743 359.765938,11.3912595 359.765938,10.4986873 L359.765938,7 L331.361778,7 C329.505119,7 328,8.50676227 328,10.3654477 L328,52.6345523 C328,53.5271245 328.354186,54.3831393 328.984642,55.0142832 C329.615098,55.6454271 330.470179,56 331.361778,56 L360,56 L360,52.563338 C360,51.6707658 359.645814,50.814751 359.015358,50.1836071 C358.384902,49.5524632 357.529821,49.1978903 356.638222,49.1978903 L356.638222,49.1978903 Z" id="Path" fill="#191970" fill-rule="nonzero"></path>
            </g>
        </g>
    </g>
</svg>