<?xml version="1.0" encoding="UTF-8"?>
<svg width="18px" height="18px" viewBox="0 0 18 18" version="1.1" xmlns="http://www.w3.org/2000/svg" xmlns:xlink="http://www.w3.org/1999/xlink">
    <title>F285F2FF-EE23-4261-94E6-C774706D8B9E</title>
    <g id="Welcome" stroke="none" stroke-width="1" fill="none" fill-rule="evenodd">
        <g id="Assets" transform="translate(-1514.000000, -1112.000000)">
            <g id="Icons/100%_Haut_Droite-Copy" transform="translate(1514.296006, 1112.153338)">
                <g id="next-copy" transform="translate(0.000000, 0.000000)">
                    <ellipse id="Oval" fill="#191970" cx="8.70399449" cy="8.57393519" rx="3.54545455" ry="6"></ellipse>
                    <path d="M8.72727273,0 C3.90731636,0 0,3.90731636 0,8.72727273 C0,13.5471127 3.90731636,17.4545455 8.72727273,17.4545455 C13.5472291,17.4545455 17.4545455,13.5471127 17.4545455,8.72727273 C17.4545455,3.90731636 13.5472291,0 8.72727273,0 Z M11.3866473,9.31834182 C11.3441164,9.36087273 11.2974545,9.39682909 11.2488727,9.42807273 L7.97352727,12.7034182 C7.81445818,12.8626036 7.60593455,12.9421382 7.39741091,12.9421382 C7.18888727,12.9421382 6.98048,12.8626036 6.82129455,12.7034182 C6.50304,12.3851636 6.50304,11.8690909 6.82129455,11.5509527 L9.64363636,8.72820364 L6.83549091,5.92005818 C6.51723636,5.60162909 6.51723636,5.08573091 6.83549091,4.76759273 C7.15374545,4.44933818 7.66970182,4.44951273 7.98795636,4.76741818 L11.2488145,8.02810182 C11.2973964,8.05934545 11.3440582,8.09524364 11.3864145,8.13783273 C11.5490909,8.30050909 11.6275782,8.51479273 11.6239127,8.72814545 C11.6277527,8.94138182 11.54944,9.15554909 11.3866473,9.31834182 Z" id="Shape" fill="#D8D8D8" fill-rule="nonzero"></path>
                </g>
            </g>
        </g>
    </g>
</svg>