<svg xmlns="http://www.w3.org/2000/svg" width="69" height="69" viewBox="0 0 69 69"><g fill="none" fill-rule="evenodd"><rect width="69" height="69" fill="#FFF" rx="6"/><g fill="#191970" fill-rule="nonzero" transform="translate(13.964 13.964)"><path d="M27.9296112,8.26038286 C28.0905038,8.26047478 28.2448331,8.19660118 28.3586014,8.0828329 C28.4723697,7.96906461 28.5362433,7.8147353 28.5361514,7.65384268 L28.5361514,4.10125075 C28.5361514,3.76626791 28.2645941,3.49471067 27.9296112,3.49471067 C27.5946284,3.49471067 27.323071,3.76626791 27.323071,4.10125075 L27.323071,7.65384268 C27.3229791,7.8147353 27.3868527,7.96906461 27.500621,8.0828329 C27.6143893,8.19660118 27.7687186,8.26047478 27.9296112,8.26038286 Z"/><path d="M38.3853225,13.031947 L34.9401748,13.031947 L34.9401748,4.59237492 C34.9399836,4.25747132 34.6685383,3.98602605 34.3336347,3.98583484 L30.6146775,3.98583484 L30.6146775,0.606540084 C30.6146775,0.271557246 30.3431203,0 30.0081374,0 L11.0632911,0 C10.7283083,0 10.4567511,0.271557246 10.4567511,0.606540084 L10.4567511,3.98583484 L6.73779385,3.98583484 C6.40289025,3.98602605 6.13144498,4.25747132 6.13125377,4.59237492 L6.13125377,13.031947 L2.68610609,13.031947 C1.20332325,13.0336659 0.00171894879,14.2352702 0,15.718053 L0,32.2540687 C0.00171894879,33.7368515 1.20332325,34.9384559 2.68610609,34.9401748 L10.4557113,34.9401748 L10.4557113,40.4648885 C10.4557113,40.7998713 10.7272685,41.0714286 11.0622514,41.0714286 L30.0091772,41.0714286 C30.3441601,41.0714286 30.6157173,40.7998713 30.6157173,40.4648885 L30.6157173,34.9401748 L38.3853225,34.9401748 C39.8681053,34.9384559 41.0697096,33.7368515 41.0714286,32.2540687 L41.0714286,15.718053 C41.0697096,14.2352702 39.8681053,13.0336659 38.3853225,13.031947 Z M33.7270946,5.19891501 L33.7270946,13.031947 L30.6146775,13.031947 L30.6146775,5.19891501 L33.7270946,5.19891501 Z M11.6698312,1.21308017 L29.4015973,1.21308017 L29.4015973,13.031947 L11.6698312,13.031947 L11.6698312,1.21308017 Z M7.34433394,5.19891501 L10.4567511,5.19891501 L10.4567511,13.031947 L7.34433394,13.031947 L7.34433394,5.19891501 Z M7.34433394,33.7270946 L7.34433394,27.5542495 L10.4557113,27.5542495 L10.4557113,33.7270946 L7.34433394,33.7270946 Z M11.6687914,39.8583484 L11.6687914,27.5542495 L29.4026371,27.5542495 C29.4026371,27.5542495 29.4026371,34.3301688 29.4026371,34.3336347 C29.4026371,34.3371007 29.4026371,39.8583484 29.4026371,39.8583484 L11.6687914,39.8583484 Z M30.6157173,33.7270946 L30.6157173,27.5542495 L33.7270946,27.5542495 L33.7270946,33.7270946 L30.6157173,33.7270946 Z M39.8583484,32.2540687 C39.8573935,33.0672026 39.1984564,33.7261397 38.3853225,33.7270946 L34.9401748,33.7270946 L34.9401748,26.9477095 C34.9399836,26.6128059 34.6685383,26.3413606 34.3336347,26.3411694 L6.73779385,26.3411694 C6.40289025,26.3413606 6.13144498,26.6128059 6.13125377,26.9477095 L6.13125377,33.7270946 L2.68610609,33.7270946 C1.87297222,33.7261397 1.21403511,33.0672026 1.21308017,32.2540687 L1.21308017,15.718053 C1.21403511,14.9049192 1.87297222,14.2459821 2.68610609,14.2450271 L38.3853225,14.2450271 C39.1984564,14.2459821 39.8573935,14.9049192 39.8583484,15.718053 L39.8583484,32.2540687 Z"/><path d="M12.3328662 17.1896926 3.72588909 17.1896926C3.39090625 17.1896926 3.11934901 17.4612498 3.11934901 17.7962327 3.11934901 18.1312155 3.39090625 18.4027728 3.72588909 18.4027728L12.3328662 18.4027728C12.667849 18.4027728 12.9394063 18.1312155 12.9394063 17.7962327 12.9394063 17.4612498 12.667849 17.1896926 12.3328662 17.1896926L12.3328662 17.1896926ZM25.7346293 29.2872212 15.3367993 29.2872212C15.0018164 29.2872212 14.7302592 29.5587785 14.7302592 29.8937613 14.7302592 30.2287441 15.0018164 30.5003014 15.3367993 30.5003014L25.7346293 30.5003014C26.0696121 30.5003014 26.3411694 30.2287441 26.3411694 29.8937613 26.3411694 29.5587785 26.0696121 29.2872212 25.7346293 29.2872212ZM25.7346293 32.4065702 15.3367993 32.4065702C15.0018164 32.4065702 14.7302592 32.6781275 14.7302592 33.0131103 14.7302592 33.3480931 15.0018164 33.6196504 15.3367993 33.6196504L25.7346293 33.6196504C26.0696121 33.6196504 26.3411694 33.3480931 26.3411694 33.0131103 26.3411694 32.6781275 26.0696121 32.4065702 25.7346293 32.4065702ZM25.7346293 35.5259192 15.3367993 35.5259192C15.0018164 35.5259192 14.7302592 35.7974765 14.7302592 36.1324593 14.7302592 36.4674422 15.0018164 36.7389994 15.3367993 36.7389994L25.7346293 36.7389994C26.0696121 36.7389994 26.3411694 36.4674422 26.3411694 36.1324593 26.3411694 35.7974765 26.0696121 35.5259192 25.7346293 35.5259192ZM36.3057565 16.1499096C35.3965173 16.1499096 34.6594334 16.8869935 34.6594334 17.7962327 34.6594334 18.7054718 35.3965173 19.4425558 36.3057565 19.4425558 37.2149956 19.4425558 37.9520796 18.7054718 37.9520796 17.7962327 37.9509338 16.8874685 37.2145206 16.1510553 36.3057565 16.1499096ZM36.3057565 18.2294756C36.066483 18.2294756 35.8725136 18.0355061 35.8725136 17.7962327 35.8725136 17.5569592 36.066483 17.3629898 36.3057565 17.3629898 36.5450299 17.3629898 36.7389994 17.5569592 36.7389994 17.7962327 36.7388083 18.0354269 36.5449507 18.2292845 36.3057565 18.2294756L36.3057565 18.2294756ZM32.1899488 16.1499096C31.2807096 16.1499096 30.5436257 16.8869935 30.5436257 17.7962327 30.5436257 18.7054718 31.2807096 19.4425558 32.1899488 19.4425558 33.0991879 19.4425558 33.8362719 18.7054718 33.8362719 17.7962327 33.8351261 16.8874685 33.0987129 16.1510553 32.1899488 16.1499096ZM32.1899488 18.2294756C31.9506753 18.2294756 31.7567058 18.0355061 31.7567058 17.7962327 31.7567058 17.5569592 31.9506753 17.3629898 32.1899488 17.3629898 32.4292222 17.3629898 32.6231917 17.5569592 32.6231917 17.7962327 32.6230006 18.0354269 32.429143 18.2292845 32.1899488 18.2294756L32.1899488 18.2294756ZM28.074141 16.1499096C27.1650825 16.1499096 26.4280736 16.8867124 26.4278185 17.7957709 26.4275637 18.7048295 27.1641591 19.4420453 28.0732176 19.4425558 28.982276 19.4430657 29.7196986 18.7066773 29.7204641 17.797619 29.7200825 16.8883136 28.9834459 16.1510567 28.074141 16.1499096ZM28.074141 18.2294756C27.8987847 18.2294756 27.7407216 18.1237678 27.6737459 17.9617058 27.6067701 17.7996437 27.6440914 17.6131899 27.7682856 17.4893931 27.8924798 17.3655963 28.0790523 17.3288729 28.2408988 17.3963677 28.4027454 17.4638625 28.5079451 17.6222636 28.5073862 17.797619 28.5064302 18.0362717 28.3127955 18.2292867 28.074141 18.2294756L28.074141 18.2294756Z"/></g></g></svg>