<?xml version="1.0" encoding="UTF-8"?>
<svg width="44px" height="27px" viewBox="0 0 44 27" version="1.1" xmlns="http://www.w3.org/2000/svg" xmlns:xlink="http://www.w3.org/1999/xlink">
    <title>8D28E23E-6FFB-4AA4-8056-C9B162D91047</title>
    <g id="Welcome" stroke="none" stroke-width="1" fill="none" fill-rule="evenodd">
        <g id="Formulaire_de_vente" transform="translate(-1347.000000, -1720.000000)" fill="#191970" fill-rule="nonzero">
            <g id="16-truck-copy" transform="translate(1347.000000, 1720.000000)">
                <path d="M42.0809866,13.1983178 L40.7269322,12.5233156 C40.4314916,12.3753793 40.1766174,12.1575777 39.9844298,11.8888136 L34.4318617,4.11278835 C33.797116,3.22720952 32.774842,2.70137533 31.6852778,2.70000876 L28.350092,2.70000876 L28.350092,0.675002191 C28.350092,0.302208775 28.0478832,0 27.6750898,0 L0.675002191,0 C0.302208775,0 0,0.302208775 0,0.675002191 L0,23.6250767 C0,23.9978701 0.302208775,24.3000789 0.675002191,24.3000789 L4.51238964,24.3000789 C5.29165142,25.9485962 6.95160911,27 8.77502848,27 C10.5984478,27 12.2584055,25.9485962 13.0376673,24.3000789 L30.1624729,24.3000789 C30.9417347,25.9485962 32.6016924,27 34.4251117,27 C36.2485311,27 37.9084888,25.9485962 38.6877506,24.3000789 L41.1751336,24.3000789 C42.2935139,24.3000789 43.2001498,23.3934525 43.2001498,22.2750723 L43.2001498,15.0093487 C43.2024998,14.2417796 42.7685425,13.5395434 42.0809866,13.1983178 Z M41.8501358,17.550057 L41.1751336,17.550057 C40.8023402,17.550057 40.5001314,17.2478482 40.5001314,16.8750548 C40.5001314,16.5022613 40.8023402,16.2000526 41.1751336,16.2000526 L41.8501358,16.2000526 L41.8501358,17.550057 Z M1.35000438,1.35000438 L27.0000876,1.35000438 L27.0000876,2.02500657 L22.2750723,2.02500657 C21.9022789,2.02500657 21.6000701,2.32721535 21.6000701,2.70000876 C21.6000701,3.07280218 21.9022789,3.37501095 22.2750723,3.37501095 L27.0000876,3.37501095 L27.0000876,20.9250679 L13.2975432,20.9250679 C12.6944273,18.9318506 10.8574943,17.5684936 8.77502848,17.5684936 C6.69256263,17.5684936 4.85562968,18.9318506 4.2525138,20.9250679 L1.35000438,20.9250679 L1.35000438,3.37501095 L19.5750635,3.37501095 C19.9478569,3.37501095 20.2500657,3.07280218 20.2500657,2.70000876 C20.2500657,2.32721535 19.9478569,2.02500657 19.5750635,2.02500657 L1.35000438,2.02500657 L1.35000438,1.35000438 Z M1.35000438,22.9500745 L1.35000438,22.2750723 L4.05001314,22.2750723 C4.05190652,22.5010723 4.06995257,22.7266479 4.10401332,22.9500745 L1.35000438,22.9500745 Z M8.77502848,25.6500832 C6.9110614,25.6500832 5.40001752,24.1390394 5.40001752,22.2750723 C5.40001752,20.4111052 6.9110614,18.9000613 8.77502848,18.9000613 C10.6389956,18.9000613 12.1500394,20.4111052 12.1500394,22.2750723 C12.1478078,24.1381142 10.6380704,25.6478516 8.77502848,25.6500832 L8.77502848,25.6500832 Z M13.5000438,22.2750723 L27.0000876,22.2750723 L27.0000876,22.9500745 L13.4460436,22.9500745 C13.4801044,22.7266479 13.4981504,22.5010723 13.5000438,22.2750723 Z M34.4251117,25.6500832 C32.5611446,25.6500832 31.0501008,24.1390394 31.0501008,22.2750723 C31.0501008,20.4111052 32.5611446,18.9000613 34.4251117,18.9000613 C36.2890788,18.9000613 37.8001227,20.4111052 37.8001227,22.2750723 C37.797891,24.1381142 36.2881536,25.6478516 34.4251117,25.6500832 L34.4251117,25.6500832 Z M41.1751336,22.9500745 L39.0961269,22.9500745 C39.3764655,21.1117406 38.5524587,19.2799198 36.9909402,18.2701073 C35.4294218,17.2602948 33.4208016,17.2602948 31.8592832,18.2701073 C30.2977648,19.2799198 29.473758,21.1117406 29.7540966,22.9500745 L28.350092,22.9500745 L28.350092,6.07501972 L31.0372757,6.07501972 C31.2533172,6.07498967 31.4563201,6.17837308 31.5833525,6.35312062 L35.7994162,12.1500394 L30.3750986,12.1500394 C30.0023052,12.1500394 29.7000964,12.4522482 29.7000964,12.8250416 C29.7000964,13.197835 30.0023052,13.5000438 30.3750986,13.5000438 L37.1251205,13.5000438 C37.3789967,13.5000791 37.611422,13.3576608 37.7266651,13.1314482 C37.8419082,12.9052356 37.8204765,12.6334909 37.6711973,12.4281403 L32.676181,5.55931804 C32.2945771,5.03531288 31.6855063,4.72525875 31.0372757,4.72501533 L28.350092,4.72501533 L28.350092,4.05001314 L31.6852778,4.05001314 C32.3391405,4.05091217 32.9526118,4.36644042 33.3336332,4.89781589 L38.8855262,12.6711411 C39.2059835,13.1189199 39.6306375,13.4819492 40.1228052,13.7288696 L41.4768596,14.4038717 C41.6541922,14.49223 41.7828806,14.6550703 41.8278607,14.8480232 L41.1751336,14.8480232 C40.0567534,14.8480232 39.1501271,15.7546495 39.1501271,16.8730298 C39.1501271,17.99141 40.0567534,18.8980363 41.1751336,18.8980363 L41.8501389,18.8980363 L41.8501389,22.2730473 C41.8506739,22.4524196 41.7797955,22.6246297 41.6531496,22.7516555 C41.5265038,22.8786813 41.3545067,22.9500745 41.1751336,22.9500745 L41.1751336,22.9500745 Z" id="Shape"></path>
                <path d="M34.4251117,20.2500657 C33.3067315,20.2500657 32.4001051,21.156692 32.4001051,22.2750723 C32.4001051,23.3934525 33.3067315,24.3000789 34.4251117,24.3000789 C35.543492,24.3000789 36.4501183,23.3934525 36.4501183,22.2750723 C36.4501183,21.156692 35.543492,20.2500657 34.4251117,20.2500657 Z M34.4251117,22.9500745 C34.0523183,22.9500745 33.7501095,22.6478657 33.7501095,22.2750723 C33.7501095,21.9022789 34.0523183,21.6000701 34.4251117,21.6000701 C34.7979051,21.6000701 35.1001139,21.9022789 35.1001139,22.2750723 C35.1001139,22.6478657 34.7979051,22.9500745 34.4251117,22.9500745 Z" id="Shape"></path>
                <path d="M8.77502848,20.2500657 C7.65664823,20.2500657 6.75002191,21.156692 6.75002191,22.2750723 C6.75002191,23.3934525 7.65664823,24.3000789 8.77502848,24.3000789 C9.89340873,24.3000789 10.800035,23.3934525 10.800035,22.2750723 C10.800035,21.156692 9.89340873,20.2500657 8.77502848,20.2500657 Z M8.77502848,22.9500745 C8.40223506,22.9500745 8.10002629,22.6478657 8.10002629,22.2750723 C8.10002629,21.9022789 8.40223506,21.6000701 8.77502848,21.6000701 C9.14782189,21.6000701 9.45003067,21.9022789 9.45003067,22.2750723 C9.45003067,22.6478657 9.14782189,22.9500745 8.77502848,22.9500745 Z" id="Shape"></path>
                <path d="M31.725103,14.175046 L30.3750986,14.175046 C30.0023052,14.175046 29.7000964,14.4772548 29.7000964,14.8500482 C29.7000964,15.2228416 30.0023052,15.5250504 30.3750986,15.5250504 L31.725103,15.5250504 C32.0978964,15.5250504 32.4001051,15.2228416 32.4001051,14.8500482 C32.4001051,14.4772548 32.0978964,14.175046 31.725103,14.175046 Z" id="Path"></path>
            </g>
        </g>
    </g>
</svg>