<svg xmlns="http://www.w3.org/2000/svg" width="69" height="69" viewBox="0 0 69 69"><g fill="none" fill-rule="evenodd"><rect width="69" height="69" fill="#FFF" rx="6"/><g fill="#191970" fill-rule="nonzero" transform="translate(18.071 13.964)"><path d="M32.8572682,13.0059106 L32.8572682,2.05369673 C32.8572682,0.919369329 31.9375856,0 30.8035714,0 L2.05369673,0 C0.919369329,0 0,0.919369329 0,2.05369673 L0,13.0059106 C0,13.1873403 0.0720705706,13.361563 0.200544085,13.4900366 L1.08575819,14.3749374 L0.200544085,15.2601515 C0.194277082,15.2661051 0.192397021,15.2751923 0.186129939,15.2820859 C0.135367257,15.3532164 0.089618178,15.4277938 0.0491959508,15.5051912 C0.0354085449,15.549687 0.0263214111,15.5957495 0.0219345494,15.6421253 C0.0119073451,15.6753404 0.00438690186,15.7094956 0,15.7439641 L0,33.5416248 C0,33.6478506 0.0244413504,33.7525095 0.0717571603,33.847768 L3.49448068,40.6929016 C3.52644243,40.754945 3.56749124,40.8116613 3.61637386,40.8611706 C3.62734113,40.8721379 3.64018847,40.8796583 3.65178248,40.8899988 C3.69909829,40.9332412 3.75236786,40.9692764 3.81002428,40.9968512 C3.82945195,41.0071918 3.84950636,41.0159656 3.87018751,41.023486 C3.94570487,41.0535676 4.0259225,41.0698618 4.10708021,41.0714286 L28.7498747,41.0714286 C28.8310323,41.0698618 28.9115633,41.0535676 28.9867673,41.023486 C29.0080752,41.0159656 29.0271895,41.0062517 29.0478706,40.9968512 C29.104587,40.9689631 29.1572298,40.9332412 29.2045457,40.8912522 C29.2161397,40.8805984 29.229927,40.8721379 29.2408943,40.860544 C29.2897769,40.8113479 29.3308258,40.7546316 29.3627875,40.6929016 L32.7851977,33.847768 C32.8325136,33.7525095 32.8572682,33.6478506 32.8572682,33.5416248 L32.8572682,15.7439641 C32.8531946,15.7104356 32.8466143,15.6772205 32.8372137,15.6449454 C32.8328269,15.5982563 32.8237398,15.5525071 32.8099523,15.5080114 C32.7695301,15.4303006 32.723781,15.3557232 32.6730184,15.2845927 C32.6667513,15.2780124 32.6648712,15.2689253 32.6586042,15.2629716 L31.77151,14.3749374 L32.6567241,13.4900366 C32.7848843,13.361563 32.8572682,13.1873403 32.8572682,13.0059106 L32.8572682,13.0059106 Z M1.36902671,2.05369673 C1.36902671,1.67548318 1.67548318,1.36902671 2.05369673,1.36902671 L30.8035714,1.36902671 C31.1814717,1.36902671 31.4882414,1.67548318 31.4882414,2.05369673 L31.4882414,12.722642 L30.5203029,13.6905807 L2.33696525,13.6905807 L1.36902671,12.722642 L1.36902671,2.05369673 Z M16.4286341,39.7024019 L4.79175023,39.7024019 L4.79175023,23.2737677 L14.3749374,23.2737677 L14.3749374,34.9106516 C14.3749374,35.6667655 14.9878502,36.2796783 15.7439641,36.2796783 L25.3274645,36.2796783 C26.0835784,36.2796783 26.6964912,35.6667655 26.6964912,34.9106516 L26.6964912,23.2737677 L28.065518,23.2737677 L28.065518,39.7024019 L16.4286341,39.7024019 Z M16.4286341,23.2737677 L25.3274645,23.2737677 L25.3274645,34.9106516 L15.7439641,34.9106516 L15.7439641,23.2737677 L16.4286341,23.2737677 Z M28.326852,21.904741 L4.53010285,21.904741 L1.51818137,15.880898 L2.33978546,15.0596074 L30.5203029,15.0596074 L31.3415936,15.880898 L28.326852,21.904741 Z M1.36902671,18.6437061 L3.42272352,22.7507864 L3.42272352,37.4873297 L1.36902671,33.3802496 L1.36902671,18.6437061 Z M29.4345447,37.4873297 L29.4345447,22.7507864 L31.4882414,18.6437061 L31.4882414,33.3802496 L29.4345447,37.4873297 Z"/><path d="M13.5125978 7.52980372 19.3446705 7.52980372C20.2652931 7.52917698 21.0492952 6.8611145 21.1965697 5.95239912 21.3438443 5.04368373 20.8105223 4.16222983 19.9375289 3.8711275L17.0221193 2.8988021C16.6366986 2.77095524 16.2202563 2.77095524 15.835149 2.8988021L12.920366 3.87018751C12.0479992 4.16254316 11.5156174 5.0433704 11.6625786 5.95145905 11.8095398 6.85954777 12.5926018 7.52761025 13.5125978 7.52980372L13.5125978 7.52980372ZM13.3524758 5.16965045 16.2685122 4.19763838C16.3722311 4.16285649 16.4847238 4.16285649 16.588756 4.19763838L19.505419 5.17027719C19.7410583 5.24986808 19.8848861 5.48801418 19.8447773 5.73368068 19.8049818 5.97934719 19.5934704 6.15983687 19.3446705 6.16077694L13.5125978 6.16077694C13.2631711 6.16046361 13.0507196 5.97934719 13.0109242 5.73336735 12.9711288 5.48707419 13.1155831 5.24830135 13.3524758 5.16965045ZM18.4820176 33.5416248 22.589411 33.5416248C23.3455249 33.5416248 23.9584378 32.9287121 23.9584378 32.1725981L23.9584378 29.4345447C23.9568711 28.9475986 23.6958504 28.4982545 23.2737677 28.2557215L23.2737677 26.0118212C23.2737677 25.2557074 22.6608549 24.6427945 21.904741 24.6427945L19.1666876 24.6427945C18.4105736 24.6427945 17.7976609 25.2557074 17.7976609 26.0118212L17.7976609 28.2557215C17.3755782 28.4982545 17.1145575 28.9475986 17.1129908 29.4345447L17.1129908 32.1725981C17.1129908 32.9287121 17.7259036 33.5416248 18.4820176 33.5416248L18.4820176 33.5416248ZM21.2203843 32.1725981 21.2203843 31.4882414C21.2203843 31.1100278 20.9136146 30.8035714 20.5357143 30.8035714 20.157814 30.8035714 19.8510443 31.1100278 19.8510443 31.4882414L19.8510443 32.1725981 18.4820176 32.1725981 18.4820176 29.4345447 22.589411 29.4345447 22.589411 32.1725981 21.2203843 32.1725981ZM19.1666876 26.0118212 21.904741 26.0118212 21.904741 28.065518 19.1666876 28.065518 19.1666876 26.0118212ZM5.47610692 16.4286341 4.79175023 16.4286341C4.4135366 16.4286341 4.10708021 16.7350905 4.10708021 17.1129908 4.10708021 17.4912044 4.4135366 17.7976609 4.79175023 17.7976609L5.47610692 17.7976609C5.85432055 17.7976609 6.16077694 17.4912044 6.16077694 17.1129908 6.16077694 16.7350905 5.85432055 16.4286341 5.47610692 16.4286341ZM28.065518 16.4286341 8.21416041 16.4286341C7.83626011 16.4286341 7.52980372 16.7350905 7.52980372 17.1129908 7.52980372 17.4912044 7.83626011 17.7976609 8.21416041 17.7976609L28.065518 17.7976609C28.4434182 17.7976609 28.7498747 17.4912044 28.7498747 17.1129908 28.7498747 16.7350905 28.4434182 16.4286341 28.065518 16.4286341ZM9.02009688 32.4684007C8.5716929 33.1173488 7.52980372 34.7204481 7.52980372 35.5953217 7.52980372 36.7293358 8.44917297 37.6487051 9.58318712 37.6487051 10.7175146 37.6487051 11.6368839 36.7293358 11.6368839 35.5953217 11.6368839 34.7204481 10.5949947 33.1173488 10.1465906 32.4684007 10.0121634 32.2932379 9.80409895 32.1907725 9.58318712 32.1907725 9.36258863 32.1907725 9.15452414 32.2932379 9.02009688 32.4684007L9.02009688 32.4684007ZM9.58318712 36.2796783C9.20528682 36.2796783 8.89883043 35.9732219 8.89883043 35.5953217 9.04735836 35.072027 9.27829738 34.5759937 9.58318712 34.1257095 9.88839011 34.5759937 10.1193292 35.072027 10.2678571 35.5953217 10.2678571 35.7767514 10.1957866 35.9509741 10.0673131 36.0791343 9.93883954 36.2076079 9.7649302 36.2796783 9.58318712 36.2796783ZM9.02009688 25.6229537C8.5716929 26.2719018 7.52980372 27.8753145 7.52980372 28.7498747 7.52980372 29.8842021 8.44917297 30.8035714 9.58318712 30.8035714 10.7175146 30.8035714 11.6368839 29.8842021 11.6368839 28.7498747 11.6368839 27.8753145 10.5949947 26.2719018 10.1465906 25.6229537 10.0121634 25.4481043 9.80409895 25.3456389 9.58318712 25.3456389 9.36258863 25.3456389 9.15452414 25.4481043 9.02009688 25.6229537L9.02009688 25.6229537ZM9.58318712 29.4345447C9.20528682 29.4345447 8.89883043 29.1280882 8.89883043 28.7498747 9.04735836 28.2268933 9.27829738 27.7305467 9.58318712 27.2802625 9.88839011 27.7305467 10.1193292 28.2268933 10.2678571 28.7498747 10.2678571 29.1280882 9.96140075 29.4345447 9.58318712 29.4345447L9.58318712 29.4345447ZM7.52980372 19.1666876 6.84513363 19.1666876C6.46723341 19.1666876 6.16077694 19.473144 6.16077694 19.8510443 6.16077694 20.2292579 6.46723341 20.5357143 6.84513363 20.5357143L7.52980372 20.5357143C7.90770394 20.5357143 8.21416041 20.2292579 8.21416041 19.8510443 8.21416041 19.473144 7.90770394 19.1666876 7.52980372 19.1666876ZM26.0118212 19.1666876 10.2678571 19.1666876C9.88995684 19.1666876 9.58318712 19.473144 9.58318712 19.8510443 9.58318712 20.2292579 9.88995684 20.5357143 10.2678571 20.5357143L26.0118212 20.5357143C26.3900348 20.5357143 26.6964912 20.2292579 26.6964912 19.8510443 26.6964912 19.473144 26.3900348 19.1666876 26.0118212 19.1666876Z"/></g></g></svg>