<?xml version="1.0" encoding="UTF-8"?>
<svg width="44px" height="30px" viewBox="0 0 44 30" version="1.1" xmlns="http://www.w3.org/2000/svg" xmlns:xlink="http://www.w3.org/1999/xlink">
    <title>B6BF467E-0140-4583-ADE2-F2FFF80F9E7C</title>
    <g id="Welcome" stroke="none" stroke-width="1" fill="none" fill-rule="evenodd">
        <g id="Marchand-/-Gestion-des-menus" transform="translate(-588.000000, -601.000000)" fill="#9B9B9B" fill-rule="nonzero">
            <g id="Group-3" transform="translate(119.000000, 257.000000)">
                <g id="Group-22" transform="translate(71.000000, 154.500000)">
                    <g id="Group-9-Copy-2" transform="translate(360.000000, 170.000000)">
                        <g id="Group-15" transform="translate(22.500000, 20.000000)">
                            <g id="Icons/Close" transform="translate(16.000000, 0.000000)">
                                <path d="M39.4166667,0 C41.3947661,0.00225829743 42.9977784,1.63173896 43,3.6425 L43,3.6425 L43,25.4975 C42.9977784,27.508261 41.3947661,29.1377417 39.4166667,29.14 L39.4166667,29.14 L3.58333333,29.14 C1.60523393,29.1377417 0.00222161495,27.508261 0,25.4975 L0,25.4975 L0,3.6425 C0.00222161495,1.63173896 1.60523393,0.00225829743 3.58333333,0 L3.58333333,0 Z M39.4166667,1.457 L3.58333333,1.457 C2.39649413,1.45840505 1.43471556,2.43606415 1.43333333,3.6425 L1.43333333,3.6425 L1.43333333,25.4975 C1.43471556,26.7039359 2.39649413,27.6815949 3.58333333,27.683 L3.58333333,27.683 L39.4166667,27.683 C40.6035059,27.6815949 41.5652844,26.7039359 41.5666667,25.4975 L41.5666667,25.4975 L41.5666667,3.6425 C41.5652844,2.43606415 40.6035059,1.45840505 39.4166667,1.457 L39.4166667,1.457 Z M34.7574375,19.430552 C36.2633527,18.5450195 38.1774234,18.8869576 39.2960816,20.2413555 C40.4147397,21.5957534 40.4147397,23.5712466 39.2960816,24.9256445 C38.1774234,26.2800424 36.2633527,26.6219805 34.7574375,25.736448 C34.2135463,26.0575913 33.5956557,26.2265072 32.9666667,26.226 C31.4603896,26.2263681 30.1147555,25.2689602 29.5994008,23.8302172 C29.084046,22.3914743 29.5090498,20.77871 30.6629148,19.7944945 C31.8167798,18.810279 33.4530418,18.6648395 34.7574375,19.430552 Z M19.35,23.3125464 C19.7458041,23.3125464 20.0666667,23.6387069 20.0666667,24.0410464 C20.0666667,24.4433858 19.7458041,24.7695464 19.35,24.7695464 L19.35,24.7695464 L5.01666667,24.769 C4.6208626,24.769 4.3,24.4428394 4.3,24.0405 C4.3,23.6381606 4.6208626,23.312 5.01666667,23.312 L5.01666667,23.312 Z M37.8214971,20.820505 C37.2689144,20.4088099 36.5563211,20.2896511 35.9031188,20.4997168 C36.7656177,21.7506076 36.7656177,23.4164834 35.9031188,24.6673742 C36.5563298,24.877318 37.2688715,24.7580966 37.8214232,24.3464065 C38.3739749,23.9347164 38.7003166,23.2798962 38.7000004,22.5835 C38.700405,21.8870755 38.3740797,21.2322002 37.8214971,20.820505 Z M32.9666667,20.398 C31.7798275,20.3994051 30.8180489,21.3770641 30.8166667,22.5835 C30.8166667,23.7905183 31.7792545,24.769 32.9666667,24.769 C34.1540789,24.769 35.1166667,23.7905183 35.1166667,22.5835 C35.1166667,21.3764817 34.1540789,20.398 32.9666667,20.398 Z M15.7666667,20.398 C16.1624707,20.398 16.4833333,20.7241606 16.4833333,21.1265 C16.4833333,21.5288394 16.1624707,21.855 15.7666667,21.855 L15.7666667,21.855 L5.01666667,21.855 C4.6208626,21.855 4.3,21.5288394 4.3,21.1265 C4.3,20.7241606 4.6208626,20.398 5.01666667,20.398 L5.01666667,20.398 Z M9.31666667,14.57 C9.71247074,14.57 10.0333333,14.8961606 10.0333333,15.2985 C10.0333333,15.7008394 9.71247074,16.027 9.31666667,16.027 L9.31666667,16.027 L5.01666667,16.027 C4.6208626,16.027 4.3,15.7008394 4.3,15.2985 C4.3,14.8961606 4.6208626,14.57 5.01666667,14.57 L5.01666667,14.57 Z M17.9166667,14.57 C18.3124707,14.57 18.6333333,14.8961606 18.6333333,15.2985 C18.6333333,15.7008394 18.3124707,16.027 17.9166667,16.027 L17.9166667,16.027 L13.6166667,16.027 C13.2208626,16.027 12.9,15.7008394 12.9,15.2985 C12.9,14.8961606 13.2208626,14.57 13.6166667,14.57 L13.6166667,14.57 Z M26.5166667,14.57 C26.9124707,14.57 27.2333333,14.8961606 27.2333333,15.2985 C27.2333333,15.7008394 26.9124707,16.027 26.5166667,16.027 L26.5166667,16.027 L22.2166667,16.027 C21.8208626,16.027 21.5,15.7008394 21.5,15.2985 C21.5,14.8961606 21.8208626,14.57 22.2166667,14.57 L22.2166667,14.57 Z M35.1166667,14.57 C35.5124707,14.57 35.8333333,14.8961606 35.8333333,15.2985 C35.8333333,15.7008394 35.5124707,16.027 35.1166667,16.027 L35.1166667,16.027 L30.8166667,16.027 C30.4208626,16.027 30.1,15.7008394 30.1,15.2985 C30.1,14.8961606 30.4208626,14.57 30.8166667,14.57 L30.8166667,14.57 Z M9.31666667,4.371 C10.5035059,4.37240505 11.4652844,5.35006415 11.4666667,6.5565 L11.4666667,6.5565 L11.4666667,9.4705 C11.4652844,10.6769359 10.5035059,11.6545949 9.31666667,11.656 L9.31666667,11.656 L6.45,11.656 C5.2631608,11.6545949 4.30138223,10.6769359 4.3,9.4705 L4.3,9.4705 L4.3,6.5565 C4.30138223,5.35006415 5.2631608,4.37240505 6.45,4.371 L6.45,4.371 Z M36.9488792,4.45216569 C37.3010943,4.27350046 37.7291451,4.41704454 37.9076354,4.77367837 C37.9400646,4.83951656 38.7,6.40296862 38.7,8.0135 C38.7,9.62403137 37.9400646,11.1874834 37.9076354,11.2533216 C37.8227476,11.4262419 37.6736937,11.5577476 37.4933311,11.6188498 C37.3129684,11.679952 37.1161051,11.665634 36.9461375,11.5790522 C36.5921501,11.3990972 36.4486875,10.9615217 36.6256979,10.6016784 C36.6316104,10.5895671 37.2666667,9.273805 37.2666667,8.0135 C37.2666667,6.753195 36.6316104,5.43743294 36.6251604,5.42422887 C36.4521351,5.06482284 36.5966641,4.63083091 36.9488792,4.45216569 Z M33.8932271,5.31285947 C34.1731101,5.02835521 34.62689,5.02835519 34.9067729,5.31285944 C35.0016417,5.4091125 35.8333333,6.30416581 35.8333333,8.0135 C35.8333333,9.72283419 35.0016417,10.6178875 34.9067729,10.7141406 L34.9067729,10.7141406 L34.826391,10.7846788 C34.5458217,10.9962935 34.1476662,10.9727808 33.8932271,10.7141405 C33.6133442,10.4296363 33.6133442,9.96836372 33.8932271,9.68385944 L33.8852542,9.69223719 C33.9062167,9.6693805 34.4,9.11927194 34.4,8.0135 C34.4,6.90772806 33.8982438,6.34833113 33.8932271,6.34314056 C33.6133442,6.05863628 33.6133442,5.59736373 33.8932271,5.31285947 Z M9.31666667,5.828 L6.45,5.828 C6.05438012,5.82845166 5.73377766,6.15434779 5.73333333,6.5565 L5.73333333,6.5565 L5.73333333,7.285 L6.45,7.285 C6.84580407,7.285 7.16666667,7.61116056 7.16666667,8.0135 C7.16666667,8.41583944 6.84580407,8.742 6.45,8.742 L6.45,8.742 L5.73333333,8.742 L5.73333333,9.4705 C5.73377766,9.87265221 6.05438012,10.1985483 6.45,10.199 L6.45,10.199 L9.31666667,10.199 C9.71228655,10.1985483 10.032889,9.87265221 10.0333333,9.4705 L10.0333333,9.4705 L10.0333333,8.742 L9.31666667,8.742 C8.9208626,8.742 8.6,8.41583944 8.6,8.0135 C8.6,7.61116056 8.9208626,7.285 9.31666667,7.285 L9.31666667,7.285 L10.0333333,7.285 L10.0333333,6.5565 C10.032889,6.15434779 9.71228655,5.82845166 9.31666667,5.828 L9.31666667,5.828 Z M31.0265604,6.03935609 C31.3069876,5.75540504 31.7607675,5.75630197 32.0401062,6.04135944 C32.134975,6.1376125 32.9666667,7.0118125 32.9666667,8.0135 C32.9666667,9.0151875 32.134975,9.8893875 32.0401062,9.98564056 C31.9057041,10.1222689 31.7234115,10.1990265 31.5333333,10.1990265 C31.3432551,10.1990265 31.1609625,10.1222689 31.0265604,9.98564056 C30.8921514,9.84901923 30.8166406,9.66371672 30.8166406,9.4705 C30.8166406,9.27728328 30.8921514,9.09198077 31.0265604,8.95535944 C31.2297354,8.74546038 31.5333333,8.29888988 31.5333333,8.0135 C31.5333333,7.72811013 31.2297354,7.28153963 31.0245896,7.06963719 C30.7452509,6.78457969 30.7461333,6.32330714 31.0265604,6.03935609 Z" id="Combined-Shape"></path>
                            </g>
                        </g>
                    </g>
                </g>
            </g>
        </g>
    </g>
</svg>