<?xml version="1.0" encoding="UTF-8"?>
<svg width="16px" height="16px" viewBox="0 0 16 16" version="1.1" xmlns="http://www.w3.org/2000/svg" xmlns:xlink="http://www.w3.org/1999/xlink">
    <title>87018DF2-DB2A-4045-A9A2-1D5BE2A0335E</title>
    <g id="Welcome" stroke="none" stroke-width="1" fill="none" fill-rule="evenodd">
        <g id="Marchand-/-Messageri_Vue-1-/-Detail_produit" transform="translate(-1113.000000, -582.000000)" fill-rule="nonzero">
            <g id="Group-16" transform="translate(1105.000000, 575.000000)">
                <g id="Icons/Chariot" transform="translate(8.000000, 7.000000)">
                    <path d="M16,7.4524584 C16,6.90519215 15.5381271,6.45732872 14.9737419,6.45732872 L1.02611612,6.45732872 C0.461730959,6.45732872 0,6.90519215 0,7.4524584 C0,7.91766913 0.33479754,8.30798355 0.781478228,8.41550932 L2.19648768,14.9067066 C2.19648768,15.5080799 2.7037954,16 3.32398016,16 L12.8604567,16 C13.4806414,16 13.9879491,15.5080799 13.9879491,14.9067066 L15.4184348,8.34460564 C15.7607575,8.18297279 16,7.84483797 16,7.4524584 Z" id="Shape" fill="#FFFFFF"></path>
                    <path d="M4.60950048,13.6381503 C4.60950048,13.8260795 4.4509047,13.9797271 4.25709697,13.9797271 L4.15998012,13.9797271 C3.96617239,13.9797271 3.8075766,13.8259418 3.8075766,13.6381503 L3.8075766,9.63932056 C3.8075766,9.4513914 3.96617239,9.29774382 4.15998012,9.29774382 L4.25709697,9.29774382 C4.4509047,9.29774382 4.60950048,9.4513914 4.60950048,9.63932056 L4.60950048,13.6381503 Z" id="Path" fill="#191970"></path>
                    <path d="M7.18920214,13.6381503 C7.18920214,13.8260795 7.03060636,13.9797271 6.83679862,13.9797271 L6.73968178,13.9797271 C6.54587404,13.9797271 6.38727826,13.8259418 6.38727826,13.6381503 L6.38727826,9.63932056 C6.38727826,9.4513914 6.54573206,9.29774382 6.73968178,9.29774382 L6.83679862,9.29774382 C7.03060636,9.29774382 7.18920214,9.4513914 7.18920214,9.63932056 L7.18920214,13.6381503 Z" id="Path" fill="#191970"></path>
                    <path d="M9.76876181,13.6381503 C9.76876181,13.8260795 9.61030802,13.9797271 9.4163583,13.9797271 L9.31938344,13.9797271 C9.1255757,13.9797271 8.9671219,13.8259418 8.9671219,13.6381503 L8.9671219,9.63932056 C8.9671219,9.4513914 9.1255757,9.29774382 9.31938344,9.29774382 L9.41650028,9.29774382 C9.61030802,9.29774382 9.7689038,9.4513914 9.7689038,9.63932056 L9.7689038,13.6381503 L9.76876181,13.6381503 Z" id="Path" fill="#191970"></path>
                    <path d="M12.3484635,13.6381503 C12.3484635,13.8260795 12.1898677,13.9797271 11.9962019,13.9797271 L11.8990851,13.9797271 C11.7052774,13.9797271 11.5466816,13.8259418 11.5466816,13.6381503 L11.5466816,9.63932056 C11.5466816,9.4513914 11.7052774,9.29774382 11.8990851,9.29774382 L11.9962019,9.29774382 C12.1900097,9.29774382 12.3484635,9.4513914 12.3484635,9.63932056 L12.3484635,13.6381503 Z" id="Path" fill="#191970"></path>
                    <path d="M3.48144007,4.80052317 C3.80090337,2.64339925 5.70916416,0.98370248 8.02222045,0.98370248 C10.3352767,0.98370248 12.2436795,2.64339925 12.5631428,4.80052317 C12.6097135,5.53709536 13.588265,5.41924381 13.588265,4.80052317 C13.2624125,2.09819815 10.8966802,0 8.02222045,0 C5.14790263,0 2.78202841,2.09819815 2.45631783,4.80052317 C2.45631783,5.56669592 3.49393463,5.59615881 3.48144007,4.80052317 Z" id="Path" fill="#191970"></path>
                </g>
            </g>
        </g>
    </g>
</svg>