<?xml version="1.0" encoding="UTF-8"?>
<svg width="30px" height="30px" viewBox="0 0 30 30" version="1.1" xmlns="http://www.w3.org/2000/svg" xmlns:xlink="http://www.w3.org/1999/xlink">
    <title>24433A61-13D2-426A-940F-72EF9BC8AEEB</title>
    <g id="Welcome" stroke="none" stroke-width="1" fill="none" fill-rule="evenodd">
        <g id="Marchand-/-Gestion-des-menus" transform="translate(-1030.000000, -431.000000)" fill="#1A7EF5" fill-rule="nonzero">
            <g id="Group-3" transform="translate(119.000000, 257.000000)">
                <g id="Group-22" transform="translate(71.000000, 154.500000)">
                    <g id="Group-6-Copy-11" transform="translate(795.000000, 0.000000)">
                        <g id="Group-13" transform="translate(13.000000, 20.000000)">
                            <g id="chat_icon-icons.com_67748" transform="translate(32.428571, 0.000000)">
                                <path d="M4.85714286,12.1713009 L11.1714286,12.1713009 C11.4400286,12.1713009 11.6571429,11.9342252 11.6571429,11.6421139 C11.6571429,11.3500027 11.4400286,11.1129269 11.1714286,11.1129269 L4.85714286,11.1129269 C4.58854286,11.1129269 4.37142857,11.3500027 4.37142857,11.6421139 C4.37142857,11.9342252 4.58854286,12.1713009 4.85714286,12.1713009 Z" id="Path"></path>
                                <path d="M17.4857143,14.2880489 L4.85714286,14.2880489 C4.58854286,14.2880489 4.37142857,14.5251247 4.37142857,14.8172359 C4.37142857,15.1093472 4.58854286,15.3464229 4.85714286,15.3464229 L17.4857143,15.3464229 C17.7543143,15.3464229 17.9714286,15.1093472 17.9714286,14.8172359 C17.9714286,14.5251247 17.7543143,14.2880489 17.4857143,14.2880489 Z" id="Path"></path>
                                <path d="M17.4857143,17.4631709 L4.85714286,17.4631709 C4.58854286,17.4631709 4.37142857,17.7002467 4.37142857,17.9923579 C4.37142857,18.2844691 4.58854286,18.5215449 4.85714286,18.5215449 L17.4857143,18.5215449 C17.7543143,18.5215449 17.9714286,18.2844691 17.9714286,17.9923579 C17.9714286,17.7002467 17.7543143,17.4631709 17.4857143,17.4631709 Z" id="Path"></path>
                                <path d="M26.2635429,0.0370430898 L9.68028571,0 C8.092,0 6.8,1.40763741 6.8,3.1380789 L6.8,5.84963307 L2.88028571,5.85862925 C1.292,5.85862925 0,7.26626666 0,8.99670815 L0,20.1842505 C0,21.9146919 1.292,23.3218002 2.88028571,23.3218002 L5.82857143,23.3218002 L5.82857143,28.6136701 C5.82857143,28.8322244 5.95194286,29.0285528 6.13942857,29.1074016 C6.19625714,29.131215 6.25551429,29.1428571 6.31428571,29.1428571 C6.44834286,29.1428571 6.57997143,29.0820006 6.67371429,28.969813 L11.3870857,23.3207418 L19.4625714,23.2847571 C21.0508571,23.2847571 22.3428571,21.8771197 22.3428571,20.1472074 L22.3428571,20.0874092 L24.8977143,23.1492852 C24.9914571,23.2614729 25.1230857,23.3223294 25.2571429,23.3223294 C25.3159143,23.3223294 25.3751714,23.3106872 25.432,23.2868738 C25.6194857,23.208025 25.7428571,23.0116966 25.7428571,22.7931424 L25.7428571,17.5012724 L26.2625714,17.5012724 C27.8508571,17.5012724 29.1428571,16.093635 29.1428571,14.3637227 L29.1428571,3.17512199 C29.1428571,1.44520969 27.8513429,0.0375722768 26.2635429,0.0370430898 Z M21.3714286,20.1466782 C21.3714286,21.2934264 20.5151143,22.2258539 19.4606286,22.2258539 L11.1694857,22.262897 C11.0334857,22.2634262 10.9033143,22.3263994 10.812,22.4359411 L6.8,27.2446634 L6.8,22.792084 C6.8,22.4999728 6.58288571,22.262897 6.31428571,22.262897 L2.88028571,22.262897 C1.82774286,22.262897 0.971428571,21.3299403 0.971428571,20.1837213 L0.971428571,8.99617896 C0.971428571,7.84943073 1.82774286,6.91647406 2.88125714,6.91647406 L7.28571429,6.90641951 C7.28571429,6.90641951 7.28571429,6.90641951 7.28571429,6.90641951 C7.2862,6.90641951 7.2862,6.90641951 7.28668571,6.90641951 L19.4625714,6.87890178 C20.5151143,6.87890178 21.3714286,7.81185846 21.3714286,8.95860668 L21.3714286,18.7173441 L21.3714286,20.1466782 Z M28.1714286,14.3626643 C28.1714286,15.5094125 27.3151143,16.44184 26.2625714,16.44184 L25.2571429,16.44184 C24.9885429,16.44184 24.7714286,16.6789158 24.7714286,16.971027 L24.7714286,21.4236064 L22.3428571,18.5130779 L22.3428571,8.95913587 C22.3428571,7.22869439 21.0508571,5.82105697 19.4616,5.82105697 L7.77142857,5.84698714 L7.77142857,3.13754971 C7.77142857,1.99080148 8.62774286,1.05784481 9.67931429,1.05784481 L26.2620857,1.0948879 C26.2625714,1.0948879 26.2625714,1.0948879 26.2630571,1.0948879 C27.3156,1.0948879 28.1719143,2.02784457 28.1719143,3.1745928 L28.1719143,14.3626643 L28.1714286,14.3626643 Z" id="Shape" stroke="#1A7EF5" stroke-width="0.5"></path>
                            </g>
                        </g>
                    </g>
                </g>
            </g>
        </g>
    </g>
</svg>