<?xml version="1.0" encoding="UTF-8"?>
<svg width="30px" height="29px" viewBox="0 0 30 29" version="1.1" xmlns="http://www.w3.org/2000/svg" xmlns:xlink="http://www.w3.org/1999/xlink">
    <title>76D7EB40-C6E1-4787-9EEA-CE77CEF2B617</title>
    <g id="Welcome" stroke="none" stroke-width="1" fill="none" fill-rule="evenodd">
        <g id="Marchand-/-Mode-de-paiement-/-Carte-sélectionnée" transform="translate(-405.000000, -440.000000)" fill-rule="nonzero">
            <g id="Group-10" transform="translate(355.000000, 440.000000)">
                <g id="check-copy" transform="translate(50.500000, 0.000000)">
                    <path d="M14.5,0 C6.5043793,0 0,6.5043793 0,14.5 C0,22.4956207 6.5043793,29 14.5,29 C22.4956207,29 29,22.4956207 29,14.5 C29,6.5043793 22.4956207,0 14.5,0 Z" id="Path" fill="#1A7EF5"></path>
                    <path d="M21.6506722,11.0084871 L13.9062304,18.6551278 C13.6738906,18.88454 13.3689037,19 13.0639168,19 C12.7589299,19 12.453943,18.88454 12.2216032,18.6551278 L8.34949142,14.8318075 C7.88350286,14.3719062 7.88350286,13.6283092 8.34949142,13.1684079 C8.81526177,12.7082911 9.56813,12.7082911 10.0341186,13.1684079 L13.0639168,16.1600284 L19.9660451,9.34508756 C20.4318154,8.88497081 21.1846836,8.88497081 21.6506722,9.34508756 C22.1164426,9.80498887 22.1164426,10.5483704 21.6506722,11.0084871 Z" id="Path" fill="#FAFAFA"></path>
                </g>
            </g>
        </g>
    </g>
</svg>