<?xml version="1.0" encoding="UTF-8"?>
<svg width="25px" height="25px" viewBox="0 0 25 25" version="1.1" xmlns="http://www.w3.org/2000/svg" xmlns:xlink="http://www.w3.org/1999/xlink">
    <title>7BF606AE-5FEB-4CD7-B25C-34C6C5BF4F43</title>
    <g id="Welcome" stroke="none" stroke-width="1" fill="none" fill-rule="evenodd">
        <g id="Marchand-/-invitation-ON" transform="translate(-1257.000000, -382.000000)" fill-rule="nonzero">
            <g id="Bouton/Formulaire_Long-Copy-14" transform="translate(967.000000, 374.000000)">
                <g id="check" transform="translate(290.000000, 8.000000)">
                    <path d="M12.5,0 C5.60722354,0 0,5.60722354 0,12.5 C0,19.3927765 5.60722354,25 12.5,25 C19.3927765,25 25,19.3927765 25,12.5 C25,5.60722354 19.3927765,0 12.5,0 Z" id="Path" fill="#1A7EF5"></path>
                    <path d="M18.2278209,9.92145444 L11.5515779,16.513386 C11.351285,16.7111552 11.0883653,16.8106897 10.8254455,16.8106897 C10.5625258,16.8106897 10.299606,16.7111552 10.0993131,16.513386 L6.7612857,13.2174202 C6.35957143,12.8209536 6.35957143,12.1799217 6.7612857,11.7834551 C7.16281187,11.3868027 7.8118362,11.3868027 8.21355048,11.7834551 L10.8254455,14.3624383 L16.7755561,8.48748928 C17.1770823,8.09083691 17.8261066,8.09083691 18.2278209,8.48748928 C18.6293471,8.88395592 18.6293471,9.52480206 18.2278209,9.92145444 Z" id="Path" fill="#FAFAFA"></path>
                </g>
            </g>
        </g>
    </g>
</svg>