<svg xmlns="http://www.w3.org/2000/svg" width="69" height="69" viewBox="0 0 69 69"><g fill="none" fill-rule="evenodd"><rect width="69" height="69" fill="#FFF" rx="6"/><g fill="#191970" fill-rule="nonzero" transform="translate(17.25 13.964)"><path d="M6.14499542 30.3554807C4.18027116 30.3554807 2.58179232 31.9350788 2.58179232 33.8765962 2.58179232 35.8181136 4.18027116 37.3977116 6.14499542 37.3977116 8.10971969 37.3977116 9.70819853 35.8181136 9.70819853 33.8765962 9.70819853 31.9350788 8.10971969 30.3554807 6.14499542 30.3554807L6.14499542 30.3554807ZM6.14499542 36.1957005C4.85092827 36.1957005 3.79817092 35.1553781 3.79817092 33.8765962 3.79817092 32.5978143 4.85092827 31.5578052 6.14499542 31.5578052 7.4390625 31.5578052 8.49150278 32.5978143 8.49150278 33.8765962 8.49150278 35.1553781 7.4390625 36.1957005 6.14499542 36.1957005ZM17.2224127 30.3554807C15.2573713 30.3554807 13.6592096 31.9350788 13.6592096 33.8765962 13.6592096 35.8181136 15.2573713 37.3977116 17.2224127 37.3977116 19.1871369 37.3977116 20.7856158 35.8181136 20.7856158 33.8765962 20.7856158 31.9350788 19.1871369 30.3554807 17.2224127 30.3554807L17.2224127 30.3554807ZM17.2224127 36.1957005C15.9283456 36.1957005 14.8755882 35.1553781 14.8755882 33.8765962 14.8755882 32.5978143 15.9283456 31.5578052 17.2224127 31.5578052 18.5161627 31.5578052 19.56892 32.5978143 19.56892 33.8765962 19.56892 35.1553781 18.5161627 36.1957005 17.2224127 36.1957005ZM3.24579044 25.9478978 9.04420033 25.9478978C9.60323987 25.9478978 10.057955 25.4982403 10.057955 24.9461174L10.057955 4.28224287C10.057955 3.72980665 9.60323987 3.28046252 9.04420033 3.28046252L3.24579044 3.28046252C2.6867509 3.28046252 2.23203587 3.72980665 2.23203587 4.28224287L2.23203587 24.945804C2.23203587 25.4982403 2.6867509 25.9478978 3.24579044 25.9478978L3.24579044 25.9478978ZM3.44841454 4.48278696 8.84125915 4.48278696 8.84125915 6.44247872 3.44841454 6.44247872 3.44841454 4.48278696ZM3.44841454 7.64480316 8.84125915 7.64480316 8.84125915 21.5835571 3.44841454 21.5835571 3.44841454 7.64480316ZM3.44841454 22.7855682 8.84125915 22.7855682 8.84125915 24.7455733 3.44841454 24.7455733 3.44841454 22.7855682ZM14.3232077 25.9478978 20.1216176 25.9478978C20.6806572 25.9478978 21.1353722 25.4982403 21.1353722 24.9461174L21.1353722 19.2534855C21.1353722 18.9213344 20.8629871 18.6521666 20.5268658 18.6521666 20.1910616 18.6521666 19.9186765 18.9213344 19.9186765 19.2534855L19.9186765 21.5835571 14.5258318 21.5835571 14.5258318 7.64480316 19.9186765 7.64480316 19.9186765 16.4480618C19.9186765 16.780213 20.1910616 17.0493807 20.5268658 17.0493807 20.8629871 17.0493807 21.1353722 16.780213 21.1353722 16.4480618L21.1353722 4.28224287C21.1353722 3.72980665 20.6806572 3.28046252 20.1216176 3.28046252L14.3232077 3.28046252C13.7641682 3.28046252 13.3094529 3.72980665 13.3094529 4.28224287L13.3094529 24.945804C13.309136 25.4982403 13.7641682 25.9478978 14.3232077 25.9478978L14.3232077 25.9478978ZM14.5258318 4.48278696 19.9186765 4.48278696 19.9186765 6.44247872 14.5258318 6.44247872 14.5258318 4.48278696ZM14.5258318 22.7855682 19.9186765 22.7855682 19.9186765 24.7455733 14.5258318 24.7455733 14.5258318 22.7855682ZM32.1950322 24.945804 32.1950322 4.28224287C32.1950322 3.72980665 31.7403171 3.28046252 31.1812776 3.28046252L25.3828676 3.28046252C24.8238281 3.28046252 24.3691131 3.72980665 24.3691131 4.28224287L24.3691131 24.945804C24.3691131 25.4982403 24.8238281 25.9478978 25.3828676 25.9478978L31.1812776 25.9478978C31.7403171 25.9478978 32.1950322 25.4982403 32.1950322 24.945804L32.1950322 24.945804ZM30.9783364 24.7455733 25.5854917 24.7455733 25.5854917 22.7855682 30.9783364 22.7855682 30.9783364 24.7455733ZM30.9783364 21.5835571 25.5854917 21.5835571 25.5854917 7.64480316 30.9783364 7.64480316 30.9783364 21.5835571ZM30.9783364 6.44247872 25.5854917 6.44247872 25.5854917 4.48278696 30.9783364 4.48278696 30.9783364 6.44247872Z"/><path d="M33.1393428,-2.27992228e-15 L30.5150597,-2.27992228e-15 C30.1792556,-2.27992228e-15 29.9068704,0.269167784 29.9068704,0.601005594 C29.9068704,0.933156655 30.1792556,1.20232444 30.5150597,1.20232444 L33.1393428,1.20232444 C33.1786627,1.20232444 33.2103722,1.23365945 33.2103722,1.27220154 L33.2103722,39.799227 C33.2103722,39.8377691 33.1786627,39.8694175 33.1393428,39.8694175 L23.3674081,39.8694175 L23.3674081,1.20232444 L27.7033732,1.20232444 C28.0394944,1.20232444 28.3118796,0.933156655 28.3118796,0.601005594 C28.3118796,0.269167784 28.0394944,-2.27992228e-15 27.7033732,-2.27992228e-15 L11.6856066,-2.27992228e-15 C11.6849724,-2.27992228e-15 11.6843382,-2.27992228e-15 11.6837041,-2.27992228e-15 C11.6830699,-2.27992228e-15 11.6821185,-2.27992228e-15 11.6814844,-2.27992228e-15 L1.28740809,-2.27992228e-15 C0.577431046,-2.27992228e-15 0,0.570610571 0,1.27220154 L0,39.799227 C0,40.500818 0.577431046,41.0714286 1.28740809,41.0714286 L11.6814844,41.0714286 L11.6837041,41.0714286 L11.6856066,41.0714286 L33.1393428,41.0714286 C33.8493199,41.0714286 34.427068,40.500818 34.427068,39.799227 L34.427068,1.27220154 C34.427068,0.570610571 33.8493199,-2.27992228e-15 33.1393428,-2.27992228e-15 Z M11.073295,39.8691041 L1.28740809,39.8691041 C1.24840531,39.8691041 1.21669575,39.8377691 1.21669575,39.799227 L1.21669575,1.27220154 C1.21669575,1.23365945 1.24840531,1.20232444 1.28740809,1.20232444 L11.073295,1.20232444 L11.073295,39.8691041 Z M22.1370772,39.8691041 L12.2941131,39.8691041 L12.2941131,1.20232444 L22.1370772,1.20232444 L22.1370772,39.8691041 Z"/><path d="M24.7188694,33.8765962 C24.7188694,35.8181136 26.3170312,37.3977116 28.2820726,37.3977116 C30.2467969,37.3977116 31.8452757,35.8181136 31.8452757,33.8765962 C31.8452757,31.9350788 30.2467969,30.3554807 28.2820726,30.3554807 C26.3170312,30.3554807 24.7188694,31.9350788 24.7188694,33.8765962 Z M25.9352482,33.8765962 C25.9352482,32.5978143 26.9880056,31.5578052 28.2820726,31.5578052 C29.5758226,31.5578052 30.62858,32.5978143 30.62858,33.8765962 C30.62858,35.1553781 29.5758226,36.1957005 28.2820726,36.1957005 C26.9880056,36.1957005 25.9352482,35.1553781 25.9352482,33.8765962 Z"/></g></g></svg>