<?xml version="1.0" encoding="UTF-8"?>
<svg width="16px" height="19px" viewBox="0 0 18 26" version="1.1" xmlns="http://www.w3.org/2000/svg" xmlns:xlink="http://www.w3.org/1999/xlink">
    <title>3BA40844-9467-440F-8DED-7BA36CC8656C</title>
    <g id="Welcome" stroke="none" stroke-width="1" fill="none" fill-rule="evenodd">
        <g id="Marchand-/-Les_Raccourcis_Visuels" transform="translate(-91.000000, -224.000000)" fill="#1A7EF5" fill-rule="nonzero">
            <g id="Group-6-Copy" transform="translate(65.000000, 215.500000)">
                <g id="coupon,-discount,-price,-sale" transform="translate(26.000000, 8.500000)">
                    <path d="M6.42860511,5.85059645 C6.42860511,5.49164131 6.14079194,5.20065067 5.78575639,5.20065067 L4.50005895,5.20065067 C4.1450234,5.20065067 3.85721023,5.49164131 3.85721023,5.85059645 C3.85721023,6.20955159 4.1450234,6.50054222 4.50005895,6.50054222 L5.78575639,6.50054222 C6.14079194,6.50054222 6.42860511,6.20955159 6.42860511,5.85059645 Z" id="Path"></path>
                    <path d="M8.35715128,6.50054222 L9.64284872,6.50054222 C9.99788427,6.50054222 10.2856974,6.20955159 10.2856974,5.85059645 C10.2856974,5.49164131 9.99788427,5.20065067 9.64284872,5.20065067 L8.35715128,5.20065067 C8.00211573,5.20065067 7.71430256,5.49164131 7.71430256,5.85059645 C7.71430256,6.20955159 8.00211573,6.50054222 8.35715128,6.50054222 Z" id="Path"></path>
                    <path d="M11.7642495,11.2451464 L5.33576229,17.7446042 C5.20969837,17.8615469 5.13793307,18.0265907 5.13793307,18.1995662 C5.13793307,18.3725418 5.20969837,18.5375856 5.33576229,18.6545283 C5.45142802,18.7819839 5.61466965,18.8545415 5.78575639,18.8545415 C5.95684313,18.8545415 6.12008476,18.7819839 6.2357505,18.6545283 L12.6642377,12.1550705 C12.8561861,11.8963139 12.8307347,11.5342326 12.6045214,11.305522 C12.3783081,11.0768113 12.0201806,11.0510789 11.7642495,11.2451464 L11.7642495,11.2451464 Z" id="Path"></path>
                    <ellipse id="Oval" cx="6.42860511" cy="12.3500542" rx="1.28569744" ry="1.29989156"></ellipse>
                    <ellipse id="Oval" cx="11.5713949" cy="17.5496204" rx="1.28569744" ry="1.29989156"></ellipse>
                    <path d="M17.6784577,0.0985763159 C17.4838917,-0.032858772 17.230175,-0.032858772 17.035609,0.0985763159 L14.1749322,1.82093263 L11.9571041,0.131073605 C11.7252948,-0.0321196366 11.4174949,-0.0321196366 11.1856857,0.131073605 L9,1.78843534 L6.81431435,0.131073605 C6.58250507,-0.0321196366 6.27470515,-0.0321196366 6.04289588,0.131073605 L3.82506779,1.82093263 L0.964390979,0.0985763159 C0.769824962,-0.032858772 0.516108273,-0.032858772 0.321542257,0.0985763159 C0.120851814,0.207680862 -0.00306979348,0.420673357 5.78399739e-05,0.651030227 L5.78399739e-05,25.3489698 C-0.00306979348,25.5793266 0.120851814,25.7923191 0.321542257,25.9014237 C0.516108273,26.0328588 0.769824962,26.0328588 0.964390979,25.9014237 L3.82506779,24.1790674 L6.04289588,25.8689264 C6.27470515,26.0321196 6.58250507,26.0321196 6.81431435,25.8689264 L9,24.2115647 L11.1856857,25.8689264 C11.4174949,26.0321196 11.7252948,26.0321196 11.9571041,25.8689264 L14.1749322,24.1790674 L17.035609,25.9014237 C17.129984,25.9672028 17.2424299,26.001309 17.3570334,25.9989156 C17.7051307,25.98252 17.9836656,25.7009101 17.9999422,25.3489698 L17.9999422,0.651030227 C18.0030698,0.420673357 17.8791482,0.207680862 17.6784577,0.0985763159 Z M14.4642141,22.8466785 C14.243297,22.7135135 13.9651376,22.7262967 13.7570805,22.8791758 L11.5713949,24.5365376 L9.38570923,22.8791758 C9.1571408,22.7058569 8.8428592,22.7058569 8.61429077,22.8791758 L6.42860511,24.5365376 L4.24291946,22.8791758 C4.03486236,22.7262967 3.75670299,22.7135135 3.53578587,22.8466785 L1.28581534,24.2115647 L1.28581534,6.50054222 L1.92866406,6.50054222 C2.28369961,6.50054222 2.57151278,6.20955159 2.57151278,5.85059645 C2.57151278,5.49164131 2.28369961,5.20065067 1.92866406,5.20065067 L1.28581534,5.20065067 L1.28581534,1.78843534 L3.53578587,3.15332147 C3.75670299,3.28648646 4.03486236,3.27370327 4.24291946,3.12082418 L6.42860511,1.46346245 L8.61429077,3.12082418 C8.84610004,3.28401742 9.15389996,3.28401742 9.38570923,3.12082418 L11.5713949,1.46346245 L13.7570805,3.12082418 C13.9651376,3.27370327 14.243297,3.28648646 14.4642141,3.15332147 L16.7141847,1.78843534 L16.7141847,5.20065067 L16.0713359,5.20065067 C15.7163004,5.20065067 15.4284872,5.49164131 15.4284872,5.85059645 C15.4284872,6.20955159 15.7163004,6.50054222 16.0713359,6.50054222 L16.7141847,6.50054222 L16.7141847,24.2115647 L14.4642141,22.8466785 Z" id="Shape"></path>
                    <path d="M13.4999411,5.20065067 L12.2142436,5.20065067 C11.8592081,5.20065067 11.5713949,5.49164131 11.5713949,5.85059645 C11.5713949,6.20955159 11.8592081,6.50054222 12.2142436,6.50054222 L13.4999411,6.50054222 C13.8549766,6.50054222 14.1427898,6.20955159 14.1427898,5.85059645 C14.1427898,5.49164131 13.8549766,5.20065067 13.4999411,5.20065067 Z" id="Path"></path>
                </g>
            </g>
        </g>
    </g>
</svg>