<?xml version="1.0" encoding="UTF-8"?>
<svg width="21px" height="22px" viewBox="0 0 21 22" version="1.1" xmlns="http://www.w3.org/2000/svg" xmlns:xlink="http://www.w3.org/1999/xlink">
    <title>101E0FD5-FEDF-4974-82C9-26BDB02DFA1C</title>
    <g id="Welcome" stroke="none" stroke-width="1" fill="none" fill-rule="evenodd">
        <g id="Marchand-/-Mes_Commandes-/-Détails" transform="translate(-795.000000, -190.000000)" fill="#9B9B9B" fill-rule="nonzero">
            <g id="Head" transform="translate(119.000000, 176.000000)">
                <g id="Zone-menu" transform="translate(329.000000, 0.000000)">
                    <g id="Group-7" transform="translate(322.500000, 6.000000)">
                        <g id="arrow-/-chevron_big_left-copy-2" transform="translate(24.500000, 8.500000)">
                            <path d="M20.93251,4.38957878 C20.8802151,4.32428184 20.8035158,4.28306109 20.720213,4.27551421 L3.73636326,2.73402237 C3.72684763,2.50023307 3.6341112,2.26919181 3.45602117,2.09110178 L1.6476814,0.282720997 C1.46540777,0.10044737 1.22300518,8.8817842e-16 0.965180691,8.8817842e-16 C0.707356204,8.8817842e-16 0.464994624,0.10044737 0.282720997,0.282720997 C0.100406354,0.46503564 -1.42108547e-14,0.707438236 -1.42108547e-14,0.965262723 C-1.42108547e-14,1.22308721 0.100406354,1.46544879 0.282720997,1.64776343 L2.09106077,3.45606219 C2.2733344,3.63837683 2.51573699,3.73878318 2.77356148,3.73878318 C2.87056353,3.73878318 2.96539176,3.72455075 3.05566724,3.69711127 L5.6268164,12.2110205 C5.83620138,12.9043494 6.46320789,13.3647912 7.17679848,13.3647912 C7.2171579,13.3647912 7.25788645,13.3633147 7.29873806,13.3603205 L18.9263927,12.5094915 C19.5360906,12.4649075 20.0359896,11.99253 20.1150678,11.3863185 L20.9973968,4.62168645 C21.008266,4.53871175 20.984805,4.45491674 20.93251,4.38957878 Z M3.02096799,3.021009 C2.95485073,3.08708524 2.86699517,3.12350715 2.77352046,3.12350715 C2.68004576,3.12350715 2.5921902,3.08712626 2.52607294,3.021009 L0.717733168,1.21266923 C0.651615912,1.14659299 0.615235015,1.05869641 0.615235015,0.965262723 C0.615235015,0.871829032 0.651615912,0.78389144 0.717733168,0.717774184 C0.783850424,0.651697943 0.871705985,0.61527603 0.965180691,0.61527603 C1.0586554,0.61527603 1.14651096,0.651697943 1.21262821,0.717774184 L3.02096799,2.52611395 C3.15742711,2.66257308 3.15742711,2.88459089 3.02096799,3.021009 Z M10.5933216,3.97413109 L10.7320366,6.2247428 L7.85638708,6.11998879 L7.40263074,3.68456047 L10.5933216,3.97413109 Z M3.59001936,3.33847027 L6.76606758,3.6267694 L7.22630439,6.09706103 L4.39187566,5.99378358 L3.59001936,3.33847027 Z M5.4598006,9.52990835 L4.57989148,6.61627836 L7.34180451,6.7168898 L7.85597692,9.47667001 L5.4598006,9.52990835 Z M7.25378489,12.7466851 C6.77964377,12.7812613 6.35312184,12.4879173 6.21576037,12.0331356 L5.64441212,10.1412059 L7.97016454,10.0895261 L8.44894043,12.6592807 L7.25378489,12.7466851 Z M7.9718872,6.73985857 L10.7700581,6.84178251 L10.9282555,9.40837892 L8.47920999,9.46280672 L7.9718872,6.73985857 Z M9.06630826,12.6140815 L8.59335659,10.0756628 L10.966072,10.0229167 L11.1165174,12.4640462 L9.06630826,12.6140815 Z M13.905952,12.2599522 L11.7301938,12.419134 L11.5816761,10.0092174 L13.9672704,9.9562252 L13.905952,12.2599522 Z M13.9836767,9.34049799 L11.5438186,9.39472071 L11.3878771,6.86430011 L14.0470048,6.9611381 L13.9836767,9.34049799 Z M14.0633701,6.34606715 L11.3498145,6.24721939 L11.2131913,4.03040458 L14.1179619,4.29405329 L14.0633701,6.34606715 Z M16.8653964,12.0433895 L14.5226225,12.214835 L14.5831206,9.94256698 L17.0388517,9.88797513 L16.8653964,12.0433895 Z M17.0884396,9.27150964 L14.5994859,9.32679876 L14.6618707,6.98353265 L17.2649301,7.07836088 L17.0884396,9.27150964 Z M17.3143129,6.46452039 L14.678236,6.36850272 L14.7319665,4.34979359 L17.4645123,4.59781533 L17.3143129,6.46452039 Z M19.5050008,11.3067481 C19.4635749,11.6247015 19.2013207,11.8724772 18.8815216,11.8958971 L17.4862916,11.9979851 L17.6571629,9.87423488 L19.6977744,9.82887155 L19.5050008,11.3067481 Z M19.7782881,9.2117088 L17.7067919,9.25776939 L17.8803702,7.10079645 L20.0433724,7.17958754 L19.7782881,9.2117088 Z M20.1232709,6.56681347 L17.929712,6.48691495 L18.0772454,4.65339156 L20.345986,4.85933122 L20.1232709,6.56681347 Z M18.0409465,18.1205989 L18.0409465,17.3834243 L18.7196738,17.3834243 L18.7196738,17.3834243 C18.8895607,17.3834243 19.0272913,17.2456937 19.0272913,17.0758068 C19.0272913,16.9059199 18.8895607,16.7681893 18.7196738,16.7681893 L5.90789677,16.7681893 C5.78817203,16.7681893 5.68165435,16.7108494 5.61574217,16.6108942 C5.54982999,16.510898 5.53904287,16.390476 5.58621089,16.28039 L6.45512781,14.2529035 C6.52206538,14.0967568 6.44971374,13.9159188 6.29356709,13.8489812 C6.13742044,13.7820436 5.95658237,13.8543543 5.8896448,14.0105419 L5.02072788,16.0379874 C4.89255392,16.3371146 4.92298754,16.6778728 5.10210296,16.9495606 C5.28121838,17.2212074 5.58243745,17.3834243 5.90789677,17.3834243 L6.24697329,17.3834243 L6.24697329,18.1205989 C5.6815313,18.2590268 5.26062852,18.7698359 5.26062852,19.377319 C5.26062852,20.0908275 5.84108225,20.6713223 6.5545908,20.6713223 C7.26809935,20.6713223 7.84855308,20.0908275 7.84855308,19.377319 C7.84855308,18.7698359 7.4276503,18.2590268 6.86220831,18.1205989 L6.86220831,17.3834243 L17.4257115,17.3834243 L17.4257115,18.1205989 C16.8602695,18.2590268 16.4393667,18.7698359 16.4393667,19.377319 C16.4393667,20.0908275 17.0198204,20.6713223 17.733329,20.6713223 C18.4468375,20.6713223 19.0272913,20.0908275 19.0272913,19.377319 C19.0272913,18.7698359 18.6063885,18.2590268 18.0409465,18.1205989 Z M7.23331807,19.377278 C7.23331807,19.7515459 6.92885877,20.0560462 6.5545908,20.0560462 C6.18032283,20.0560462 5.87586353,19.7515459 5.87586353,19.377278 C5.87586353,19.00301 6.18032283,18.6985507 6.5545908,18.6985507 C6.92885877,18.6985507 7.23331807,19.003051 7.23331807,19.377278 Z M17.733329,20.0560462 C17.359061,20.0560462 17.0546017,19.7515459 17.0546017,19.377278 C17.0546017,19.00301 17.359061,18.6985507 17.733329,18.6985507 C18.107597,18.6985507 18.4120563,19.003051 18.4120563,19.377278 C18.4120563,19.7515459 18.107597,20.0560462 17.733329,20.0560462 Z" id="Combined-Shape"></path>
                        </g>
                    </g>
                </g>
            </g>
        </g>
    </g>
</svg>