<?xml version="1.0" encoding="UTF-8"?>
<svg width="12px" height="13px" viewBox="0 0 12 13" version="1.1" xmlns="http://www.w3.org/2000/svg" xmlns:xlink="http://www.w3.org/1999/xlink">
    <title>7DB7332D-D791-487F-B328-555979C26EB5</title>
    <g id="Welcome" stroke="none" stroke-width="1" fill="none" fill-rule="evenodd">
        <g id="Marchand-/-Les_Raccourcis_Visuels" transform="translate(-345.000000, -225.000000)" fill="#191970" fill-rule="nonzero">
            <g id="Icons/Copier_Coller" transform="translate(345.000000, 225.500000)">
                <path d="M8.5,0.311078431 C8.45571895,0.311078431 4.21428105,0.3 4.21428105,0.3 C3.45856209,0.3 2.78571895,0.993218954 2.78571895,1.72857843 L2.37285948,1.73821895 C1.6175,1.73821895 1,2.42178105 1,3.15714052 L1,10.3 C1,11.0353595 1.67285948,11.7285621 2.42857843,11.7285621 L7.78571895,11.7285621 C8.54142157,11.7285621 9.21428105,11.0353595 9.21428105,10.3 L9.57142157,10.3 C10.3271405,10.3 11,9.60679739 11,8.87143791 L11,3.16571895 L8.5,0.311078431 Z M7.78571895,11.0142974 L2.42857843,11.0142974 C2.05357843,11.0142974 1.71429739,10.6639542 1.71429739,10.3 L1.71429739,3.15714052 C1.71429739,2.62571895 2.15143791,2.44285948 2.78571895,2.44285948 L2.78571895,8.87143791 C2.78571895,9.60679739 3.45856209,10.3 4.21428105,10.3 C4.21428105,10.3 8.08642157,10.2960784 8.50320261,10.2960784 C8.50320261,10.7296569 8.21893791,11.0142974 7.78571895,11.0142974 Z M8.5,7.80392157 L5.28571895,7.80392157 C5.08857843,7.80392157 4.92857843,7.64428105 4.92857843,7.44712418 C4.92857843,7.25 5.08857843,7.09035948 5.28571895,7.09035948 L8.5,7.09035948 C8.69714052,7.09035948 8.85714052,7.25 8.85714052,7.44712418 C8.85714052,7.64429739 8.69714052,7.80392157 8.5,7.80392157 Z M8.5,6.02 L5.28571895,6.02 C5.08857843,6.02 4.92857843,5.86034314 4.92857843,5.66321895 C4.92857843,5.46607843 5.08857843,5.30643791 5.28571895,5.30643791 L8.5,5.30643791 C8.69714052,5.30643791 8.85714052,5.46607843 8.85714052,5.66321895 C8.85714052,5.86 8.69714052,6.02 8.5,6.02 Z M9.21428105,3.15714052 C8.83393791,3.15714052 8.5,2.81393791 8.5,2.44285948 C8.5,2.44285948 8.5,1.71928105 8.5,1.02535948 L8.5,1.02464052 L10.285719,3.15714052 L9.21428105,3.15714052 Z" id="Shape"></path>
            </g>
        </g>
    </g>
</svg>