<?xml version="1.0" encoding="UTF-8"?>
<svg width="30px" height="30px" viewBox="0 0 30 30" version="1.1" xmlns="http://www.w3.org/2000/svg" xmlns:xlink="http://www.w3.org/1999/xlink">
    <title>CB3D7402-C61B-4236-8B58-94E0BEEC071D</title>
    <g id="Welcome" stroke="none" stroke-width="1" fill="none" fill-rule="evenodd">
        <g id="Marchand-/-Code_Promo-généré" transform="translate(-915.000000, -429.000000)">
            <g id="Group-2-Copy" transform="translate(479.000000, 385.500000)">
                <g id="Icons/Copie_Colle" transform="translate(436.000000, 43.500000)">
                    <rect id="Rectangle" fill="#1A7EF5" x="0" y="0" width="30" height="30" rx="6"></rect>
                    <g transform="translate(5.454545, 6.818182)" fill="#FFFFFF" fill-rule="nonzero" id="Shape">
                        <path d="M13.5227273,0.459547683 C13.4522802,0.459547683 6.70453803,0.443181818 6.70453803,0.443181818 C5.50225787,0.443181818 4.43182561,1.46725527 4.43182561,2.55358177 L3.77500371,2.56782346 C2.57329545,2.56782346 1.59090909,3.57763109 1.59090909,4.66395759 L1.59090909,15.2159091 C1.59090909,16.3022356 2.66136735,17.3262849 3.8636475,17.3262849 L12.3863711,17.3262849 C13.5886252,17.3262849 14.6590835,16.3022356 14.6590835,15.2159091 L15.2272616,15.2159091 C16.4295417,15.2159091 17.5,14.1918598 17.5,13.1055333 L17.5,4.67663027 L13.5227273,0.459547683 Z M12.3863711,16.2711211 L3.8636475,16.2711211 C3.2670566,16.2711211 2.7272913,15.7535688 2.7272913,15.2159091 L2.7272913,4.66395759 C2.7272913,3.878903 3.42274213,3.60876968 4.43182561,3.60876968 L4.43182561,13.1055333 C4.43182561,14.1918598 5.50225787,15.2159091 6.70453803,15.2159091 C6.70453803,15.2159091 12.8647616,15.2101159 13.5278223,15.2101159 C13.5278223,15.8506295 13.075583,16.2711211 12.3863711,16.2711211 Z M13.5227273,11.5285205 L8.40909834,11.5285205 C8.09546569,11.5285205 7.84092023,11.2926879 7.84092023,11.0014335 C7.84092023,10.7102273 8.09546569,10.4743947 8.40909834,10.4743947 L13.5227273,10.4743947 C13.8363599,10.4743947 14.0909054,10.7102273 14.0909054,11.0014335 C14.0909054,11.292712 13.8363599,11.5285205 13.5227273,11.5285205 Z M13.5227273,8.89318182 L8.40909834,8.89318182 C8.09546569,8.89318182 7.84092023,8.65732509 7.84092023,8.36611891 C7.84092023,8.07488859 8.09546569,7.839056 8.40909834,7.839056 L13.5227273,7.839056 C13.8363599,7.839056 14.0909054,8.07488859 14.0909054,8.36611891 C14.0909054,8.65681818 13.8363599,8.89318182 13.5227273,8.89318182 Z M14.6590835,4.66395759 C14.0539921,4.66395759 13.5227273,4.15695373 13.5227273,3.60876968 C13.5227273,3.60876968 13.5227273,2.539847 13.5227273,1.51473559 L13.5227273,1.5136735 L16.3636438,4.66395759 L14.6590835,4.66395759 Z"></path>
                    </g>
                </g>
            </g>
        </g>
    </g>
</svg>