<?xml version="1.0" encoding="UTF-8"?>
<svg width="20px" height="30px" viewBox="0 0 20 30" version="1.1" xmlns="http://www.w3.org/2000/svg" xmlns:xlink="http://www.w3.org/1999/xlink">
    <title>1073DBEF-B9D9-4467-8060-5ACFE1FE6A1B</title>
    <g id="Welcome" stroke="none" stroke-width="1" fill="none" fill-rule="evenodd">
        <g id="Marchand-/-Gestion-des-menus" transform="translate(-890.000000, -601.000000)" fill="#9B9B9B" fill-rule="nonzero">
            <g id="Group-3" transform="translate(119.000000, 257.000000)">
                <g id="Group-22" transform="translate(71.000000, 154.500000)">
                    <g id="Group-6" transform="translate(650.000000, 170.000000)">
                        <g id="Group-18" transform="translate(11.500000, 20.000000)">
                            <g id="coupon,-discount,-price,-sale" transform="translate(38.500000, 0.000000)">
                                <path d="M7.14289457,6.55716848 C7.14289457,6.1548626 6.82310215,5.82872925 6.42861821,5.82872925 L5.0000655,5.82872925 C4.60558156,5.82872925 4.28578914,6.1548626 4.28578914,6.55716848 C4.28578914,6.95947436 4.60558156,7.28560771 5.0000655,7.28560771 L6.42861821,7.28560771 C6.82310215,7.28560771 7.14289457,6.95947436 7.14289457,6.55716848 Z" id="Path"></path>
                                <path d="M9.28572364,7.28560771 L10.7142764,7.28560771 C11.1087603,7.28560771 11.4285527,6.95947436 11.4285527,6.55716848 C11.4285527,6.1548626 11.1087603,5.82872925 10.7142764,5.82872925 L9.28572364,5.82872925 C8.8912397,5.82872925 8.57144729,6.1548626 8.57144729,6.55716848 C8.57144729,6.95947436 8.8912397,7.28560771 9.28572364,7.28560771 Z" id="Path"></path>
                                <path d="M13.0713883,12.6032141 L5.92862476,19.8876064 C5.78855375,20.0186721 5.70881452,20.2036482 5.70881452,20.3975138 C5.70881452,20.5913795 5.78855375,20.7763555 5.92862476,20.9074213 C6.05714224,21.0502697 6.23852184,21.13159 6.42861821,21.13159 C6.61871459,21.13159 6.80009418,21.0502697 6.92861166,20.9074213 L14.0713752,13.623029 C14.2846512,13.3330226 14.2563719,12.9272131 14.0050238,12.6708811 C13.7536757,12.4145492 13.3557563,12.3857092 13.0713883,12.6032141 L13.0713883,12.6032141 Z" id="Path"></path>
                                <ellipse id="Oval" cx="7.14289457" cy="13.8415608" rx="1.42855271" ry="1.45687846"></ellipse>
                                <ellipse id="Oval" cx="12.8571054" cy="19.6690746" rx="1.42855271" ry="1.45687846"></ellipse>
                                <path d="M19.6427308,0.110481302 C19.4265464,-0.0368271006 19.1446389,-0.0368271006 18.9284545,0.110481302 L15.7499247,2.04084526 L13.2856712,0.146903263 C13.0281054,-0.0359987004 12.6861055,-0.0359987004 12.4285396,0.146903263 L10,2.0044233 L7.57146038,0.146903263 C7.31389453,-0.0359987004 6.97189461,-0.0359987004 6.71432876,0.146903263 L4.25007532,2.04084526 L1.07154553,0.110481302 C0.855361069,-0.0368271006 0.573453637,-0.0368271006 0.357269174,0.110481302 C0.134279793,0.23276232 -0.00341088164,0.471477755 6.42666376e-05,0.729654646 L6.42666376e-05,28.4103454 C-0.00341088164,28.6685222 0.134279793,28.9072377 0.357269174,29.0295187 C0.573453637,29.1768271 0.855361069,29.1768271 1.07154553,29.0295187 L4.25007532,27.0991547 L6.71432876,28.9930967 C6.97189461,29.1759987 7.31389453,29.1759987 7.57146038,28.9930967 L10,27.1355767 L12.4285396,28.9930967 C12.6861055,29.1759987 13.0281054,29.1759987 13.2856712,28.9930967 L15.7499247,27.0991547 L18.9284545,29.0295187 C19.0333156,29.1032419 19.1582554,29.1414671 19.2855926,29.1387846 C19.6723674,29.120409 19.9818507,28.8047892 19.9999357,28.4103454 L19.9999357,0.729654646 C20.0034109,0.471477755 19.8657202,0.23276232 19.6427308,0.110481302 Z M16.071349,25.6058543 C15.8258856,25.4566071 15.5168196,25.4709341 15.285645,25.6422763 L12.8571054,27.4997963 L10.4285658,25.6422763 C10.1746009,25.4480258 9.82539911,25.4480258 9.57143419,25.6422763 L7.14289457,27.4997963 L4.71435495,25.6422763 C4.48318041,25.4709341 4.17411443,25.4566071 3.92865096,25.6058543 L1.42868371,27.1355767 L1.42868371,7.28560771 L2.14296007,7.28560771 C2.53744401,7.28560771 2.85723643,6.95947436 2.85723643,6.55716848 C2.85723643,6.1548626 2.53744401,5.82872925 2.14296007,5.82872925 L1.42868371,5.82872925 L1.42868371,2.0044233 L3.92865096,3.53414568 C4.17411443,3.68339291 4.48318041,3.6690659 4.71435495,3.49772372 L7.14289457,1.64020368 L9.57143419,3.49772372 C9.82900004,3.68062568 10.171,3.68062568 10.4285658,3.49772372 L12.8571054,1.64020368 L15.285645,3.49772372 C15.5168196,3.6690659 15.8258856,3.68339291 16.071349,3.53414568 L18.5713163,2.0044233 L18.5713163,5.82872925 L17.8570399,5.82872925 C17.462556,5.82872925 17.1427636,6.1548626 17.1427636,6.55716848 C17.1427636,6.95947436 17.462556,7.28560771 17.8570399,7.28560771 L18.5713163,7.28560771 L18.5713163,27.1355767 L16.071349,25.6058543 Z" id="Shape"></path>
                                <path d="M14.9999345,5.82872925 L13.5713818,5.82872925 C13.1768978,5.82872925 12.8571054,6.1548626 12.8571054,6.55716848 C12.8571054,6.95947436 13.1768978,7.28560771 13.5713818,7.28560771 L14.9999345,7.28560771 C15.3944184,7.28560771 15.7142109,6.95947436 15.7142109,6.55716848 C15.7142109,6.1548626 15.3944184,5.82872925 14.9999345,5.82872925 Z" id="Path"></path>
                            </g>
                        </g>
                    </g>
                </g>
            </g>
        </g>
    </g>
</svg>