<?xml version="1.0" encoding="UTF-8"?>
<svg width="30px" height="30px" viewBox="0 0 30 30" version="1.1" xmlns="http://www.w3.org/2000/svg" xmlns:xlink="http://www.w3.org/1999/xlink">
    <title>B263AAFF-6FA9-42FF-AF16-7B117576CDF7</title>
    <g id="Welcome" stroke="none" stroke-width="1" fill="none" fill-rule="evenodd">
        <g id="Marchand-/-Gestion-des-menus" transform="translate(-1030.000000, -601.000000)" fill="#9B9B9B" fill-rule="nonzero">
            <g id="Group-3" transform="translate(119.000000, 257.000000)">
                <g id="Group-22" transform="translate(71.000000, 154.500000)">
                    <g id="Group-9" transform="translate(795.000000, 170.000000)">
                        <g id="Group-20" transform="translate(16.500000, 20.000000)">
                            <g id="discount,-sale,-offer,-promotion" transform="translate(28.500000, 0.000000)">
                                <path d="M28.3445494,11.9141503 L27.6232224,11.550038 C27.2650785,11.3709789 26.9939775,11.0531905 26.8716792,10.6690685 C26.7493809,10.2849465 26.7863008,9.86720454 26.9740281,9.51100903 L27.3346916,8.81919564 C27.8804438,7.82437224 27.8110378,6.60140485 27.1563097,5.67602048 C26.5015816,4.75063611 25.3781883,4.28771588 24.2690519,4.48625911 L23.4755922,4.63190403 C23.0725167,4.7125231 22.6543892,4.62018307 22.321469,4.37702541 C21.9924306,4.13715144 21.7820604,3.76548305 21.7444074,3.35751094 L21.6362084,2.55646385 C21.4864076,1.43146196 20.7103778,0.493092467 19.6406686,0.143472203 C18.5709595,-0.206148061 17.3974363,0.0950358464 16.6229857,0.917958438 L16.0819905,1.50053814 L16.0819905,1.50053814 C15.7970758,1.79410858 15.4071057,1.9595426 15,1.9595426 C14.5928943,1.9595426 14.2029242,1.79410858 13.9180095,1.50053814 L13.3770143,0.917958438 C12.5976559,0.0931837063 11.417294,-0.20435034 10.3453836,0.153774706 C9.27347319,0.511899752 8.50194267,1.46156064 8.36379165,2.59287508 L8.2555926,3.35751094 C8.21793964,3.76548305 8.00756936,4.13715144 7.678531,4.37702541 C7.35405845,4.63864397 6.92744201,4.7328587 6.52440781,4.63190403 L5.73094811,4.48625911 C4.62917953,4.30077625 3.51676497,4.74999702 2.84564013,5.65141851 C2.18009291,6.58196399 2.10974058,7.81780005 2.66530838,8.81919564 L3.02597188,9.51100903 C3.24129855,9.86068431 3.28136825,10.2921815 3.13417093,10.6761684 C3.03024316,11.0706198 2.75023939,11.3936841 2.37677759,11.550038 L1.65545059,11.9141503 C0.643522619,12.4053581 0,13.4386091 0,14.5721702 C0,15.7057313 0.643522619,16.7389823 1.65545059,17.2301901 L2.37677759,17.5943024 C2.75023939,17.7506563 3.03024316,18.0737206 3.13417093,18.4681719 C3.28136825,18.8521588 3.24129855,19.2836561 3.02597188,19.6333313 L2.66530838,20.3251447 C2.10974058,21.3265403 2.18009291,22.5623764 2.84564013,23.4929219 C3.51676497,24.3943434 4.62917953,24.8435641 5.73094811,24.6580813 L6.52440781,24.5124363 C6.92748328,24.4318173 7.34561083,24.5241573 7.678531,24.767315 C8.01518096,25.0001943 8.22777308,25.3757881 8.2555926,25.7868294 L8.36379165,26.5514653 C8.4935189,27.6871795 9.26931848,28.6412816 10.3474409,28.9910178 C10.6495942,29.0928125 10.9666776,29.1420611 11.285166,29.1366627 C12.074024,29.1233911 12.8257971,28.7962523 13.3770143,28.2263819 L13.9180095,27.6438022 C14.2029242,27.3502318 14.5928943,27.1847978 15,27.1847978 C15.4071057,27.1847978 15.7970758,27.3502318 16.0819905,27.6438022 L16.6229857,28.2263819 C17.4023441,29.0511567 18.582706,29.3486907 19.6546164,28.9905657 C20.7265268,28.6324406 21.4980573,27.6827797 21.6362084,26.5514653 L21.7444074,25.7868294 C21.7722269,25.3757881 21.984819,25.0001943 22.321469,24.767315 C22.6543892,24.5241573 23.0725167,24.4318173 23.4755922,24.5124363 L24.2690519,24.6580813 C25.3781883,24.8566245 26.5015816,24.3937043 27.1563097,23.4683199 C27.8110378,22.5429355 27.8804438,21.3199681 27.3346916,20.3251447 L26.9740281,19.6333313 C26.7863008,19.2771358 26.7493809,18.8593939 26.8716792,18.4752719 C26.9939775,18.0911499 27.2650785,17.7733615 27.6232224,17.5943024 L28.3445494,17.2301901 C29.3564774,16.7389823 30,15.7057313 30,14.5721702 C30,13.4386091 29.3564774,12.4053581 28.3445494,11.9141503 Z M27.7314215,15.9193857 L27.0100945,16.2470868 C26.284832,16.6077726 25.7374515,17.2524898 25.4953078,18.0312372 C25.2384797,18.7918476 25.317279,19.6271516 25.7117059,20.3251447 L26.0723694,21.0533694 C26.3613487,21.54743 26.3183051,22.1702891 25.9641703,22.6190523 C25.6427992,23.0880996 25.0746503,23.3175323 24.5215163,23.201632 L23.7280566,23.0559871 C22.9449394,22.906852 22.1355978,23.0913541 21.491943,23.5657443 C20.8484482,24.0480701 20.4204829,24.7681663 20.3017534,25.5683621 L20.1935544,26.3694091 C20.1325547,26.948864 19.7353151,27.4358388 19.1836966,27.607391 C18.6450289,27.7961961 18.0467494,27.6380055 17.6689099,27.2068675 L17.1279146,26.6242878 C15.9403741,25.4682668 14.0596259,25.4682668 12.8720854,26.6242878 L12.3310901,27.2068675 C11.9532506,27.6380055 11.3549711,27.7961961 10.8163034,27.607391 C10.2646849,27.4358388 9.86744533,26.948864 9.80644564,26.3694091 L9.69824659,25.5683621 C9.57951708,24.7681663 9.15155178,24.0480701 8.50805704,23.5657443 C8.0141208,23.2079475 7.42086158,23.016799 6.81293861,23.0195759 L6.27194336,23.0195759 L5.47848367,23.1652208 C4.92534974,23.2811211 4.35720076,23.0516884 4.03582968,22.5826411 C3.68169494,22.1338779 3.63865126,21.5110188 3.92763063,21.0169581 L4.28829412,20.2887335 C4.68272101,19.5907404 4.76152026,18.7554364 4.50469222,17.9948259 C4.26254849,17.2160786 3.71516801,16.5713614 2.98990553,16.2106756 L2.26857854,15.8829745 C1.75434025,15.6351335 1.42691695,15.1110395 1.42691695,14.535759 C1.42691695,13.9604784 1.75434025,13.4363844 2.26857854,13.1885434 L2.98990553,12.8608423 C3.71516801,12.5001566 4.26254849,11.8554393 4.50469222,11.076692 C4.76152026,10.3160815 4.68272101,9.4807775 4.28829412,8.78278441 L3.92763063,8.05455978 C3.63865126,7.56049911 3.68169494,6.93764003 4.03582968,6.48887683 C4.34360051,6.00292569 4.92365079,5.76868691 5.47848367,5.90629713 L6.27194336,6.05194206 C7.05007653,6.21150755 7.85895259,6.04028269 8.50805704,5.57859605 C9.15155178,5.09627023 9.57951708,4.3761741 9.69824659,3.57597833 L9.80644564,2.77493124 C9.86744533,2.19547638 10.2646849,1.70850155 10.8163034,1.53694937 C11.3549711,1.34814431 11.9532506,1.50633491 12.3310901,1.93747292 L12.8720854,2.52005262 C14.0596259,3.67607357 15.9403741,3.67607357 17.1279146,2.52005262 L17.6689099,1.93747292 C18.0467494,1.50633491 18.6450289,1.34814431 19.1836966,1.53694937 C19.7353151,1.70850155 20.1325547,2.19547638 20.1935544,2.77493124 L20.3017534,3.57597833 C20.4204829,4.3761741 20.8484482,5.09627023 21.491943,5.57859605 C22.1355978,6.05298624 22.9449394,6.23748838 23.7280566,6.08835329 L24.5215163,5.94270836 C25.0746503,5.82680803 25.6427992,6.05624078 25.9641703,6.52528806 C26.3183051,6.97405126 26.3613487,7.59691034 26.0723694,8.09097101 L25.7117059,8.81919564 C25.317279,9.51718873 25.2384797,10.3524927 25.4953078,11.1131032 C25.7374515,11.8918506 26.284832,12.5365678 27.0100945,12.8972535 L27.7314215,13.2249546 C28.2456597,13.4727956 28.5730831,13.9968896 28.5730831,14.5721702 C28.5730831,15.1474508 28.2456597,15.6715447 27.7314215,15.9193857 Z" id="Shape"></path>
                                <path d="M19.8328909,9.69306519 C19.7031048,9.55025889 19.5199348,9.46896253 19.327962,9.46896253 C19.1359891,9.46896253 18.9528192,9.55025889 18.8230331,9.69306519 L10.1671091,18.4317607 C10.0256555,18.5627879 9.94512914,18.7477094 9.94512914,18.9415179 C9.94512914,19.1353265 10.0256555,19.320248 10.1671091,19.4512752 C10.2968952,19.5940815 10.4800652,19.6753778 10.672038,19.6753778 C10.8640109,19.6753778 11.0471808,19.5940815 11.1769669,19.4512752 L19.8328909,10.7125797 C19.9743445,10.5815525 20.0548709,10.396631 20.0548709,10.2028224 C20.0548709,10.0090139 19.9743445,9.82409234 19.8328909,9.69306519 L19.8328909,9.69306519 Z" id="Path"></path>
                                <path d="M13.557346,10.9310471 C13.557346,9.72448499 12.5884987,8.74637317 11.393365,8.74637317 C10.1982313,8.74637317 9.22938404,9.72448499 9.22938404,10.9310471 C9.22938404,12.1376091 10.1982313,13.1157209 11.393365,13.1157209 C12.5884987,13.1157209 13.557346,12.1376091 13.557346,10.9310471 Z M10.672038,10.9310471 C10.672038,10.5288597 10.9949871,10.2028224 11.393365,10.2028224 C11.7917429,10.2028224 12.114692,10.5288597 12.114692,10.9310471 C12.114692,11.3332344 11.7917429,11.6592717 11.393365,11.6592717 C10.9949871,11.6592717 10.672038,11.3332344 10.672038,10.9310471 Z" id="Shape"></path>
                                <path d="M18.606635,16.0286194 C17.4115013,16.0286194 16.442654,17.0067313 16.442654,18.2132933 C16.442654,19.4198554 17.4115013,20.3979672 18.606635,20.3979672 C19.8017687,20.3979672 20.770616,19.4198554 20.770616,18.2132933 C20.770616,17.0067313 19.8017687,16.0286194 18.606635,16.0286194 Z M18.606635,18.9415179 C18.2082571,18.9415179 17.885308,18.6154807 17.885308,18.2132933 C17.885308,17.811106 18.2082571,17.4850687 18.606635,17.4850687 C19.0050129,17.4850687 19.327962,17.811106 19.327962,18.2132933 C19.327962,18.6154807 19.0050129,18.9415179 18.606635,18.9415179 Z" id="Shape"></path>
                            </g>
                        </g>
                    </g>
                </g>
            </g>
        </g>
    </g>
</svg>