<?xml version="1.0" encoding="UTF-8"?>
<svg width="27px" height="26px" viewBox="0 0 27 26" version="1.1" xmlns="http://www.w3.org/2000/svg" xmlns:xlink="http://www.w3.org/1999/xlink">
    <title>0B306BE5-BF2D-4650-9A8B-E4FB7E39FE2B</title>
    <g id="Welcome" stroke="none" stroke-width="1" fill="none" fill-rule="evenodd">
        <g id="Marchand-/-Raccourcis_Nouvelle-promo" transform="translate(-272.000000, -336.000000)" fill="#D0021B" fill-rule="nonzero">
            <g id="Group-12" transform="translate(62.000000, 312.000000)">
                <g id="discount,-sale,-offer,-promotion" transform="translate(210.000000, 24.000000)">
                    <path d="M25.5100945,10.6303331 L24.8609002,10.305456 C24.5385707,10.1456915 24.2945798,9.8621466 24.1845113,9.51941592 C24.0744428,9.17668524 24.1076707,8.80395738 24.2766253,8.48614396 L24.6012225,7.86887737 C25.0923994,6.98125183 25.029934,5.8900661 24.4406787,5.06439713 C23.8514235,4.23872817 22.8403694,3.82569021 21.8421467,4.00283929 L21.128033,4.13279015 C20.765265,4.20472206 20.3889503,4.12233219 20.0893221,3.90537614 C19.7931876,3.69134995 19.6038543,3.35973093 19.5699667,2.99572012 L19.4725875,2.28099039 C19.3377669,1.27721382 18.63934,0.439958961 17.6766018,0.12801226 C16.7138635,-0.18393444 15.6576927,0.0847951958 14.9606872,0.819043218 L14.4737914,1.33884666 L14.4737914,1.33884666 C14.2173683,1.60078322 13.8663951,1.74839079 13.5,1.74839079 C13.1336049,1.74839079 12.7826317,1.60078322 12.5262086,1.33884666 L12.0393128,0.819043218 C11.3378903,0.0831426343 10.2755646,-0.182330433 9.31084523,0.137204611 C8.34612587,0.456739655 7.6517484,1.30406921 7.52741248,2.31347811 L7.43003334,2.99572012 C7.39614568,3.35973093 7.20681242,3.69134995 6.9106779,3.90537614 C6.6186526,4.13880382 6.23469781,4.22286638 5.87196703,4.13279015 L5.1578533,4.00283929 C4.16626158,3.83734326 3.16508848,4.23815795 2.56107612,5.04244617 C1.96208362,5.8727201 1.89876652,6.97538783 2.39877755,7.86887737 L2.72337469,8.48614396 C2.91716869,8.79813974 2.95323142,9.1831407 2.82075384,9.52575083 C2.72721884,9.87769784 2.47521546,10.1659501 2.13909983,10.305456 L1.48990553,10.6303331 C0.579170357,11.0686105 0,11.9905229 0,13.0019363 C0,14.0133498 0.579170357,14.9352621 1.48990553,15.3735395 L2.13909983,15.6984167 C2.47521546,15.8379225 2.72721884,16.1261748 2.82075384,16.4781218 C2.95323142,16.820732 2.91716869,17.2057329 2.72337469,17.5177287 L2.39877755,18.1349953 C1.89876652,19.0284848 1.96208362,20.1311526 2.56107612,20.9614265 C3.16508848,21.7657147 4.16626158,22.1665294 5.1578533,22.0010334 L5.87196703,21.8710825 C6.23473496,21.7991506 6.61104975,21.8815405 6.9106779,22.0984965 C7.21366286,22.3062818 7.40499577,22.6414032 7.43003334,23.0081526 L7.52741248,23.6903946 C7.64416701,24.7037292 8.34238663,25.5550213 9.31269679,25.8670715 C9.58463477,25.9578972 9.87000986,26.001839 10.1566494,25.9970223 C10.8666216,25.9851808 11.5432174,25.6932931 12.0393128,25.1848295 L12.5262086,24.665026 C12.7826317,24.4030895 13.1336049,24.2554819 13.5,24.2554819 C13.8663951,24.2554819 14.2173683,24.4030895 14.4737914,24.665026 L14.9606872,25.1848295 C15.6621097,25.92073 16.7244354,26.1862031 17.6891548,25.8666681 C18.6538741,25.547133 19.3482516,24.6998035 19.4725875,23.6903946 L19.5699667,23.0081526 C19.5950042,22.6414032 19.7863371,22.3062818 20.0893221,22.0984965 C20.3889503,21.8815405 20.765265,21.7991506 21.128033,21.8710825 L21.8421467,22.0010334 C22.8403694,22.1781825 23.8514235,21.7651445 24.4406787,20.9394755 C25.029934,20.1138066 25.0923994,19.0226208 24.6012225,18.1349953 L24.2766253,17.5177287 C24.1076707,17.1999153 24.0744428,16.8271874 24.1845113,16.4844568 C24.2945798,16.1417261 24.5385707,15.8581811 24.8609002,15.6984167 L25.5100945,15.3735395 C26.4208296,14.9352621 27,14.0133498 27,13.0019363 C27,11.9905229 26.4208296,11.0686105 25.5100945,10.6303331 Z M24.9582793,14.2039818 L24.309085,14.4963712 C23.6563488,14.818191 23.1637064,15.3934363 22.945777,16.0882693 C22.7146318,16.7669196 22.7855511,17.5122149 23.1405353,18.1349953 L23.4651324,18.7847496 C23.7252139,19.2255724 23.6864746,19.7813149 23.3677533,20.1817213 C23.0785193,20.6002261 22.5671852,20.8049362 22.0693647,20.7015248 L21.355251,20.5715739 C20.6504455,20.438509 19.922038,20.60313 19.3427487,21.0264019 C18.7636034,21.4567544 18.3784346,22.0992561 18.2715781,22.8132263 L18.1741989,23.527956 C18.1192992,24.0449713 17.7617836,24.4794718 17.2653269,24.6325383 C16.780526,24.8009985 16.2420745,24.6598539 15.9020189,24.2751734 L15.4151232,23.75537 C14.3463367,22.7239168 12.6536633,22.7239168 11.5848768,23.75537 L11.0979811,24.2751734 C10.7579255,24.6598539 10.219474,24.8009985 9.73467309,24.6325383 C9.23821637,24.4794718 8.88070079,24.0449713 8.82580107,23.527956 L8.72842193,22.8132263 C8.62156537,22.0992561 8.2363966,21.4567544 7.65725134,21.0264019 C7.21270872,20.7071598 6.67877542,20.5366085 6.13164475,20.5390862 L5.64474902,20.5390862 L4.9306353,20.6690371 C4.43281477,20.7724485 3.92148069,20.5677384 3.63224671,20.1492336 C3.31352545,19.7488272 3.27478613,19.1930847 3.53486756,18.7522619 L3.85946471,18.1025076 C4.21444891,17.4797272 4.28536824,16.7344319 4.054223,16.0557815 C3.83629364,15.3609486 3.3436512,14.7857033 2.69091498,14.4638835 L2.04172068,14.1714941 C1.57890623,13.9503593 1.28422525,13.4827395 1.28422525,12.9694486 C1.28422525,12.4561578 1.57890623,11.9885379 2.04172068,11.7674032 L2.69091498,11.4750137 C3.3436512,11.1531939 3.83629364,10.5779486 4.054223,9.8831157 C4.28536824,9.20446531 4.21444891,8.45917004 3.85946471,7.83638966 L3.53486756,7.18663536 C3.27478613,6.74581252 3.31352545,6.19007003 3.63224671,5.78966361 C3.90924046,5.35607646 4.43128572,5.14707823 4.9306353,5.26986017 L5.64474902,5.39981103 C6.34506887,5.54218244 7.07305734,5.38940803 7.65725134,4.97747074 C8.2363966,4.54711825 8.62156537,3.90461656 8.72842193,3.19064641 L8.82580107,2.47591668 C8.88070079,1.95890137 9.23821637,1.52440083 9.73467309,1.37133437 C10.219474,1.20287413 10.7579255,1.3440188 11.0979811,1.72869924 L11.5848768,2.24850268 C12.6536633,3.27995583 14.3463367,3.27995583 15.4151232,2.24850268 L15.9020189,1.72869924 C16.2420745,1.3440188 16.780526,1.20287413 17.2653269,1.37133437 C17.7617836,1.52440083 18.1192992,1.95890137 18.1741989,2.47591668 L18.2715781,3.19064641 C18.3784346,3.90461656 18.7636034,4.54711825 19.3427487,4.97747074 C19.922038,5.4007427 20.6504455,5.56536369 21.355251,5.43229875 L22.0693647,5.30234789 C22.5671852,5.19893647 23.0785193,5.40364654 23.3677533,5.82215133 C23.6864746,6.22255774 23.7252139,6.77830024 23.4651324,7.21912307 L23.1405353,7.86887737 C22.7855511,8.49165775 22.7146318,9.23695303 22.945777,9.91560341 C23.1637064,10.6104363 23.6563488,11.1856816 24.309085,11.5075014 L24.9582793,11.7998909 C25.4210938,12.0210256 25.7157747,12.4886455 25.7157747,13.0019363 C25.7157747,13.5152272 25.4210938,13.9828471 24.9582793,14.2039818 Z" id="Shape"></path>
                    <path d="M17.8496018,8.64858253 C17.7327943,8.52116442 17.5679413,8.4486282 17.3951658,8.4486282 C17.2223902,8.4486282 17.0575372,8.52116442 16.9407298,8.64858253 L9.15039822,16.4456341 C9.02308993,16.5625424 8.95061622,16.7275376 8.95061622,16.9004621 C8.95061622,17.0733867 9.02308993,17.2383819 9.15039822,17.3552901 C9.26720569,17.4827083 9.43205869,17.5552445 9.60483423,17.5552445 C9.77760977,17.5552445 9.94246276,17.4827083 10.0592702,17.3552901 L17.8496018,9.55823855 C17.9769101,9.44133032 18.0493838,9.27633512 18.0493838,9.10341054 C18.0493838,8.93048596 17.9769101,8.76549076 17.8496018,8.64858253 L17.8496018,8.64858253 Z" id="Path"></path>
                    <path d="M12.2016114,9.75316484 C12.2016114,8.67661667 11.3296488,7.80390194 10.2540285,7.80390194 C9.17840819,7.80390194 8.30644564,8.67661667 8.30644564,9.75316484 C8.30644564,10.829713 9.17840819,11.7024277 10.2540285,11.7024277 C11.3296488,11.7024277 12.2016114,10.829713 12.2016114,9.75316484 Z M9.60483423,9.75316484 C9.60483423,9.39431545 9.89548841,9.10341054 10.2540285,9.10341054 C10.6125686,9.10341054 10.9032228,9.39431545 10.9032228,9.75316484 C10.9032228,10.1120142 10.6125686,10.4029191 10.2540285,10.4029191 C9.89548841,10.4029191 9.60483423,10.1120142 9.60483423,9.75316484 Z" id="Shape"></path>
                    <path d="M16.7459715,14.3014449 C15.6703512,14.3014449 14.7983886,15.1741597 14.7983886,16.2507078 C14.7983886,17.327256 15.6703512,18.1999707 16.7459715,18.1999707 C17.8215918,18.1999707 18.6935544,17.327256 18.6935544,16.2507078 C18.6935544,15.1741597 17.8215918,14.3014449 16.7459715,14.3014449 Z M16.7459715,16.9004621 C16.3874314,16.9004621 16.0967772,16.6095572 16.0967772,16.2507078 C16.0967772,15.8918584 16.3874314,15.6009535 16.7459715,15.6009535 C17.1045116,15.6009535 17.3951658,15.8918584 17.3951658,16.2507078 C17.3951658,16.6095572 17.1045116,16.9004621 16.7459715,16.9004621 Z" id="Shape"></path>
                </g>
            </g>
        </g>
    </g>
</svg>