<?xml version="1.0" encoding="UTF-8"?>
<svg width="17px" height="17px" viewBox="0 0 17 17" version="1.1" xmlns="http://www.w3.org/2000/svg" xmlns:xlink="http://www.w3.org/1999/xlink">
    <title>8B79F9DC-4148-4332-A633-40EBEBE5AF31</title>
    <g id="Welcome" stroke="none" stroke-width="1" fill="none" fill-rule="evenodd">
        <g id="Centre-d'aide-/-Règle-de-confidentialité" transform="translate(-419.000000, -778.000000)" fill="#FFFFFF" fill-rule="nonzero">
            <g id="emoji_smile_slight_regular_icon_203609" transform="translate(419.000000, 778.000000)">
                <path d="M12.21875,6.90625 C12.21875,6.3194525 11.7430688,5.84375 11.15625,5.84375 C10.5694312,5.84375 10.09375,6.3194525 10.09375,6.90625 C10.09375,7.4930475 10.5694312,7.96875 11.15625,7.96875 C11.7430688,7.96875 12.21875,7.4930475 12.21875,6.90625 Z M6.90625,6.90625 C6.90625,6.3194525 6.4305475,5.84375 5.84375,5.84375 C5.2569525,5.84375 4.78125,6.3194525 4.78125,6.90625 C4.78125,7.4930475 5.2569525,7.96875 5.84375,7.96875 C6.4305475,7.96875 6.90625,7.4930475 6.90625,6.90625 Z M6.87821063,11.7436 C6.61578375,11.6123813 6.2966725,11.7187375 6.16546437,11.981175 C6.03424562,12.2436125 6.1406125,12.5626813 6.40303937,12.6939 C7.0230825,13.0039375 7.77208125,13.1484375 8.5,13.1484375 C9.22791875,13.1484375 9.976875,13.0039375 10.59695,12.6939 C10.8593875,12.5626813 10.9657437,12.2436125 10.834525,11.981175 C10.7033063,11.7187375 10.3842375,11.6123813 10.1218,11.7436 C9.679375,11.9648125 9.10020625,12.0859375 8.5,12.0859375 C7.89979375,12.0859375 7.3206675,11.9648125 6.87821063,11.7436 Z M17,8.5 C17,3.8055775 13.1944437,0 8.5,0 C3.8055775,0 0,3.8055775 0,8.5 C0,13.1944437 3.8055775,17 8.5,17 C13.1944437,17 17,13.1944437 17,8.5 Z M1.0625,8.5 C1.0625,4.39238562 4.39238562,1.0625 8.5,1.0625 C12.607625,1.0625 15.9375,4.39238562 15.9375,8.5 C15.9375,12.607625 12.607625,15.9375 8.5,15.9375 C4.39238562,15.9375 1.0625,12.607625 1.0625,8.5 Z" id="Shape"></path>
            </g>
        </g>
    </g>
</svg>