<?xml version="1.0" encoding="UTF-8"?>
<svg width="19px" height="18px" viewBox="0 0 19 18" version="1.1" xmlns="http://www.w3.org/2000/svg" xmlns:xlink="http://www.w3.org/1999/xlink">
    <title>0F7701AB-17CA-45EC-A218-2E6630356EE1</title>
    <g id="Welcome" stroke="none" stroke-width="1" fill="none" fill-rule="evenodd" stroke-linecap="round" stroke-linejoin="round">
        <g id="Boutique-/-Présentoire-/-Voir_Produit-/-Description" transform="translate(-474.000000, -669.000000)" stroke="#9B9B9B" stroke-width="1.125">
            <g id="Messagerie-Copy" transform="translate(182.000000, 128.000000)">
                <g id="Group" transform="translate(0.000000, 121.000000)">
                    <g id="Extra-Icons" transform="translate(239.000000, 420.500000)">
                        <g id="Emoji-Icon" transform="translate(54.000000, 0.000000)">
                            <ellipse id="Oval" cx="8.49842845" cy="8.5" rx="7.96727667" ry="7.96875"></ellipse>
                            <path d="M3.99001216,10.09375 C3.81759516,10.09375 3.65591731,10.1775025 3.55638234,10.3183135 C3.45684736,10.4591246 3.43184075,10.639497 3.48931308,10.8020833 C4.23848285,12.9266765 6.24598918,14.3476258 8.49842845,14.3476258 C10.7508677,14.3476258 12.758374,12.9266765 13.5075438,10.8020833 C13.5650162,10.639497 13.5400095,10.4591246 13.4404746,10.3183135 C13.3409396,10.1775025 13.1792617,10.09375 13.0068447,10.09375 L3.99001216,10.09375 Z" id="Path"></path>
                            <path d="M11.6853391,5.578125 C11.8320126,5.578125 11.950915,5.69704936 11.950915,5.84375 C11.950915,5.99045064 11.8320126,6.109375 11.6853391,6.109375 C11.5386656,6.109375 11.4197632,5.99045064 11.4197632,5.84375 C11.4197632,5.69704936 11.5386656,5.578125 11.6853391,5.578125" id="Path"></path>
                            <path d="M5.31151778,5.578125 C5.45819129,5.578125 5.57709367,5.69704936 5.57709367,5.84375 C5.57709367,5.99045064 5.45819129,6.109375 5.31151778,6.109375 C5.16484427,6.109375 5.04594189,5.99045064 5.04594189,5.84375 C5.04594189,5.69704936 5.16484427,5.578125 5.31151778,5.578125" id="Path"></path>
                        </g>
                    </g>
                </g>
            </g>
        </g>
    </g>
</svg>