<?xml version="1.0" encoding="UTF-8"?>
<svg width="17px" height="17px" viewBox="0 0 17 17" version="1.1" xmlns="http://www.w3.org/2000/svg" xmlns:xlink="http://www.w3.org/1999/xlink">
    <title>26893FF1-395D-4CA2-9545-4D47C6C2382C</title>
    <g id="Welcome" stroke="none" stroke-width="1" fill="none" fill-rule="evenodd">
        <g id="Centre-d'aide-/-Règle-de-confidentialité" transform="translate(-491.000000, -778.000000)" fill="#D0021B" fill-rule="nonzero">
            <g id="emoji_smile_slight_regular_icon_203609-copy" transform="translate(491.000000, 778.000000)">
                <path d="M12.21875,6.90625 C12.21875,6.3194525 11.7430688,5.84375 11.15625,5.84375 C10.5694312,5.84375 10.09375,6.3194525 10.09375,6.90625 C10.09375,7.4930475 10.5694312,7.96875 11.15625,7.96875 C11.7430688,7.96875 12.21875,7.4930475 12.21875,6.90625 Z M6.90625,6.90625 C6.90625,6.3194525 6.4305475,5.84375 5.84375,5.84375 C5.2569525,5.84375 4.78125,6.3194525 4.78125,6.90625 C4.78125,7.4930475 5.2569525,7.96875 5.84375,7.96875 C6.4305475,7.96875 6.90625,7.4930475 6.90625,6.90625 Z M10.1217807,13.0922295 C10.3842075,13.2234483 10.7033188,13.117092 10.8345269,12.8546545 C10.9657457,12.592217 10.8593788,12.2731483 10.5969519,12.1419295 C9.97690879,11.831892 9.22791004,11.687392 8.49999129,11.687392 C7.77207254,11.687392 7.02311629,11.831892 6.40304129,12.1419295 C6.14060379,12.2731483 6.03424754,12.592217 6.16546629,12.8546545 C6.29668504,13.117092 6.61575379,13.2234483 6.87819129,13.0922295 C7.32061629,12.871017 7.89978504,12.749892 8.49999129,12.749892 C9.10019754,12.749892 9.67932379,12.871017 10.1217807,13.0922295 Z M17,8.5 C17,3.8055775 13.1944437,0 8.5,0 C3.8055775,0 0,3.8055775 0,8.5 C0,13.1944437 3.8055775,17 8.5,17 C13.1944437,17 17,13.1944437 17,8.5 Z M1.0625,8.5 C1.0625,4.39238562 4.39238562,1.0625 8.5,1.0625 C12.607625,1.0625 15.9375,4.39238562 15.9375,8.5 C15.9375,12.607625 12.607625,15.9375 8.5,15.9375 C4.39238562,15.9375 1.0625,12.607625 1.0625,8.5 Z" id="Shape"></path>
            </g>
        </g>
    </g>
</svg>