<?xml version="1.0" encoding="UTF-8"?>
<svg width="30px" height="30px" viewBox="0 0 30 30" version="1.1" xmlns="http://www.w3.org/2000/svg" xmlns:xlink="http://www.w3.org/1999/xlink">
    <title>99A254E6-D7E6-4A00-A480-995EB6C70031</title>
    <g id="Welcome" stroke="none" stroke-width="1" fill="none" fill-rule="evenodd">
        <g id="Marchand-/-Gestionnaire-de-code-promo" transform="translate(-1261.000000, -359.000000)">
            <g id="Group-18" transform="translate(1109.000000, 344.000000)">
                <g id="Group-5" transform="translate(30.000000, 15.000000)">
                    <g id="En-cours" transform="translate(122.000000, 0.000000)">
                        <rect id="Rectangle" stroke="#FF9500" fill="#FFFFFF" x="0.5" y="0.5" width="29" height="29" rx="6"></rect>
                        <g id="nine-oclock-on-circular-clock_icon-icons.com_73200-copy" transform="translate(7.500000, 7.500000)" fill="#FF9500" fill-rule="nonzero">
                            <path d="M7.03125,13.125 L7.96875,13.125 L7.96875,12.1875 L7.03125,12.1875 L7.03125,13.125 Z M7.5,1.875 C7.24125,1.875 7.03125,2.085 7.03125,2.34375 L7.03125,7.0425 L3.28125,7.0425 C3.0225,7.0425 2.8125,7.2525 2.8125,7.51125 C2.8125,7.77 3.0225,7.98 3.28125,7.98 L7.5,7.98 C7.75875,7.98 7.96875,7.77 7.96875,7.51125 L7.96875,2.34375 C7.96875,2.085 7.75875,1.875 7.5,1.875 Z M3.15610294,10.7025 L3.80485294,11.3526471 L4.45360294,10.7025 L3.80485294,10.0523529 L3.15610294,10.7025 Z M4.54357843,3.90139706 L3.88029412,3.23860294 L3.21747549,3.90139706 L3.88029412,4.56421569 L4.54357843,3.90139706 Z M10.3481127,3.87796569 L10.9968873,4.52811275 L11.6456373,3.87796569 L10.9968873,3.22781863 L10.3481127,3.87796569 Z M10.2107843,10.6771814 L10.8736029,11.34 L11.5364216,10.6771814 L10.8736029,10.0143873 L10.2107843,10.6771814 Z M12.1875,7.03125 L12.1875,7.96875 L13.125,7.96875 L13.125,7.03125 L12.1875,7.03125 Z M7.5,0 C3.35764706,0 0,3.35813725 0,7.5 C0,11.6423529 3.35764706,15 7.5,15 C11.6423529,15 15,11.6418627 15,7.5 C15,3.35813725 11.6423529,0 7.5,0 Z M7.5,14.0625 C3.87561275,14.0625 0.9375,11.1243873 0.9375,7.5 C0.9375,3.87561275 3.87561275,0.9375 7.5,0.9375 C11.1243873,0.9375 14.0625,3.87561275 14.0625,7.5 C14.0625,11.1243873 11.1243873,14.0625 7.5,14.0625 Z" id="Shape"></path>
                        </g>
                    </g>
                </g>
            </g>
        </g>
    </g>
</svg>