<svg xmlns="http://www.w3.org/2000/svg" width="69" height="69" viewBox="0 0 69 69"><g fill="none" fill-rule="evenodd"><rect width="69" height="69" fill="#FFF" rx="6"/><g fill="#191970" fill-rule="nonzero" transform="translate(16.429 13.964)"><path d="M21.5061096,4.63617815 C21.1916034,4.32549526 20.6878227,4.33167201 20.3810047,4.64997559 C20.0741075,4.96819894 20.0801313,5.47806222 20.3946375,5.7886649 C21.0417215,6.42791922 21.3979981,7.28352051 21.3979981,8.19816197 C21.3979981,9.21443917 20.9733195,9.93679897 20.6172014,10.3638777 C20.3336861,10.7037598 20.3761698,11.211778 20.7119972,11.4986363 C20.8613242,11.6261823 21.0435445,11.6885114 21.2248136,11.6885114 C21.4511028,11.6885114 21.675886,11.5912877 21.8331391,11.4026158 C22.3606187,10.77018 22.989235,9.70095912 22.989235,8.19808175 C22.989235,6.84601353 22.4625479,5.58106166 21.5061096,4.63617815 Z"/><path d="M35.2774101,28.5464879 L22.2660608,28.5464879 L22.2660608,19.1562919 C22.2660608,17.0425572 22.9762362,15.0266881 24.2656485,13.4800119 C25.4949019,12.0060931 26.1718672,10.1302839 26.1718672,8.19832241 C26.1718672,5.9710798 25.3044386,3.88742676 23.7292917,2.33144531 C22.1547788,0.77570452 20.0743452,-0.0515799386 17.8716917,0.00248674665 C15.8096466,0.0526227679 13.8595175,0.895629883 12.3805138,2.37604632 C10.9012722,3.85678362 10.0473972,5.82107282 9.97606266,7.90697196 C9.90758145,9.90679757 10.5582321,11.8564069 11.8084104,13.3969064 C13.1422086,15.0389614 13.8767171,17.0611677 13.8767171,19.0909145 L13.8767171,28.5463274 L0.865367794,28.5463274 C0.425946742,28.5463274 0.0696701128,28.9068255 0.0696701128,29.3516323 L0.0696701128,35.3339425 C0.0696701128,35.3456543 0.0709382832,35.3568848 0.0714138471,35.3684361 C0.0718101504,35.3791051 0.072127193,35.3896136 0.0729990602,35.4002023 C0.0751390977,35.4266741 0.0785473058,35.4528251 0.0831444236,35.4785749 C0.0838577694,35.482666 0.084174812,35.4868373 0.0849674185,35.4910086 C0.0910704887,35.5225342 0.0993135965,35.5532575 0.108904135,35.5832589 C0.110489348,35.5883126 0.112550125,35.5932861 0.11429386,35.5982596 C0.12285401,35.6232875 0.132682331,35.6476737 0.14354104,35.6715785 C0.145205514,35.6751883 0.146235902,35.6790388 0.147979637,35.6827288 L2.48957707,40.6149902 C2.62202162,40.8939872 2.90086059,41.0715088 3.2068067,41.0715088 L32.9356541,41.0715088 C33.241521,41.0715088 33.52036,40.8940674 33.6528838,40.6149902 L35.9944812,35.6827288 C35.9962249,35.679119 35.9972553,35.6752686 35.9989198,35.6715785 C36.0098578,35.6477539 36.0196068,35.6232875 36.028167,35.5982596 C36.0299107,35.5932059 36.0319715,35.5882324 36.0335567,35.5832589 C36.0432265,35.5532575 36.0513904,35.522454 36.0574934,35.4910086 C36.058286,35.4869176 36.0586031,35.4827462 36.0593164,35.4785749 C36.0639135,35.4528251 36.0673217,35.4267543 36.0694618,35.4002023 C36.0703336,35.3896136 36.0705714,35.3791051 36.071047,35.3685163 C36.0715226,35.356965 36.0727909,35.3456543 36.0727909,35.3340227 L36.0727909,29.3517125 C36.0727909,28.9069859 35.7169104,28.5464879 35.2774101,28.5464879 Z M13.0379016,12.3746129 C12.033907,11.1374163 11.5113415,9.57060547 11.5664276,7.96272321 C11.6853186,4.48544922 14.4716476,1.69612165 17.9100539,1.61253488 C19.6794687,1.5684954 21.3525818,2.23382045 22.6178988,3.48377162 C23.8836122,4.7342041 24.5807096,6.40850656 24.5807096,8.19816197 C24.5807096,9.7504534 24.0370608,11.2573417 23.0496316,12.4411935 C21.5182365,14.2781773 20.6748239,16.6628871 20.6748239,19.1562116 L20.6748239,28.5464076 L15.4680332,28.5464076 L15.4680332,19.0909947 C15.4680332,16.6891985 14.6048847,14.303847 13.0379016,12.3746129 Z M32.4353609,39.4608991 L3.70741698,39.4608991 L2.13044706,36.1391671 L34.0124101,36.1391671 L32.4353609,39.4608991 Z M34.4817917,34.5286377 L1.66098622,34.5286377 L1.66098622,30.1568569 L34.4817917,30.1568569 L34.4817917,34.5286377 Z"/><path d="M18.6283139,3.10169503 C17.6043456,3.10169503 17.6026811,4.71222447 18.6283139,4.71222447 C19.6522823,4.71222447 19.6539467,3.10169503 18.6283139,3.10169503 Z"/></g></g></svg>