<svg xmlns="http://www.w3.org/2000/svg" width="69" height="69" viewBox="0 0 69 69"><g fill="none" fill-rule="evenodd"><rect width="69" height="69" fill="#FFF" rx="6"/><g fill="#191970" fill-rule="nonzero" transform="translate(17.25 13.964)"><path d="M23.5902334,24.0371338 L23.5902334,30.5917969 C23.5902334,30.9247803 23.8653341,31.1946324 24.2046114,31.1946324 C24.5438886,31.1946324 24.8189893,30.9247803 24.8189893,30.5917969 L24.8189893,23.6013916 C24.8189893,23.334668 24.6403578,23.0995501 24.3797275,23.023584 C22.9884455,22.6175223 21.7367986,21.7651297 20.8554135,20.6231515 C19.9449242,19.4436314 19.463641,18.0356515 19.463641,16.5516253 C19.463641,12.8287249 22.55041,9.79994768 26.3445924,9.79994768 C27.0533957,9.79994768 27.7471564,9.90583496 28.4056813,10.1081438 C28.2202642,10.8024275 27.9290581,11.4601318 27.5469419,12.0616037 C27.1955652,11.8986014 26.8032299,11.8069929 26.3894751,11.8069929 C24.891096,11.8069929 23.671987,13.003118 23.671987,14.473427 C23.671987,15.9436558 24.8910142,17.139781 26.3894751,17.139781 C27.887936,17.139781 29.1069633,15.9436558 29.1069633,14.473427 C29.1069633,13.8469273 28.8850841,13.2707241 28.5151493,12.8150879 C28.968718,12.1266602 29.3179692,11.3722935 29.5485142,10.57485 C30.3514976,10.9896554 31.0728092,11.5617676 31.6661765,12.2711321 C31.8814336,12.5284703 32.2686185,12.5657715 32.5308839,12.3545585 C32.7931493,12.1433454 32.8312464,11.7635149 32.6159893,11.5060965 C31.8392488,10.5776576 30.8767642,9.84791783 29.8026043,9.35121024 C29.8469147,9.00699637 29.8709502,8.65780901 29.8709502,8.30453055 C29.8709502,3.72546735 26.0741517,0 21.40725,0 C16.7403483,0 12.9436315,3.72546735 12.9436315,8.30461077 C12.9436315,9.55087193 13.2319763,10.7866246 13.7784988,11.9026123 C12.0638815,14.3976214 11.9121469,17.6902344 13.4735581,20.3376569 L7.83632346,25.8689837 C7.59637678,26.1045027 7.59637678,26.4860979 7.83632346,26.7216169 C8.07627014,26.9569754 8.46525355,26.9569754 8.70520024,26.7216169 L14.6868626,20.8523333 C14.8938626,20.6492222 14.9260735,20.3309989 14.7637927,20.0919503 C12.9559763,17.4277623 13.3207607,13.8487723 15.6311161,11.5819022 C17.3333069,9.91169085 19.7942524,9.2596017 22.080654,9.78607003 C21.2706398,10.2793283 20.5550509,10.9082345 19.9678152,11.6407819 C18.8763235,11.7581403 17.8589005,12.234232 17.0774182,13.0009521 C15.1920178,14.8509312 15.1920178,17.8610177 17.0774182,19.711077 C17.7831967,20.4035156 18.6634372,20.8531355 19.637122,21.0235177 C19.7140521,21.1341378 19.7928626,21.2437953 19.8758424,21.351287 C20.3687346,21.9897391 20.9607121,22.5505406 21.6213626,23.0157227 C19.9168827,23.2922328 18.147654,22.9342215 16.6885983,21.9809152 C16.444891,21.8217634 16.1205746,21.8532087 15.9136564,22.0563198 L10.2831256,27.5810686 C10.0431789,27.8165074 10.0431789,28.1981829 10.2831256,28.4336217 L11.6139917,29.7395647 C11.9505711,30.0564244 11.9505711,30.6265311 11.61391,30.9433908 C11.2909834,31.2735665 10.7098791,31.2736468 10.3870344,30.9433105 L9.05616825,29.6374477 C8.81622156,29.4020891 8.42723815,29.4020891 8.18729147,29.6374477 L6.59342417,31.2013707 C6.35543957,31.4258998 6.35543957,31.8293945 6.59342417,32.0540039 L7.92420853,33.3597063 C8.26250474,33.6916469 8.26250474,34.2317522 7.92429028,34.5636126 C7.58599408,34.8956334 7.03562915,34.8954729 6.69741469,34.5636126 L5.36654858,33.2576695 C5.1266019,33.022311 4.73761848,33.022311 4.4976718,33.2576695 L2.75444076,34.9681501 C2.41614455,35.3000907 1.86577962,35.3000105 1.52756517,34.9682303 C1.18926896,34.6362898 1.18926896,34.0961844 1.52756517,33.7643241 L6.96744668,28.4266427 C7.20739336,28.1911237 7.20739336,27.8095285 6.96744668,27.5740095 C6.7275,27.3386509 6.33851659,27.3386509 6.09856991,27.5740095 L0.658606635,32.9117711 C-0.158683649,33.7137068 -0.158683649,35.0186872 0.658606635,35.8207833 C1.47597867,36.6226388 2.80586374,36.6226388 3.62323578,35.8207833 L4.93202844,34.5365792 L5.82853791,35.4162458 C6.6458282,36.2181013 7.97579502,36.2181815 8.79316706,35.4161656 C9.61045735,34.6142299 9.61045735,33.3092494 8.79316706,32.5071533 L7.89673934,31.6276472 L8.62172986,30.9162772 L9.51815758,31.7957833 C10.2984953,32.5938686 11.7025308,32.5937884 12.4828685,31.7958636 C13.2960711,31.0302665 13.2961528,29.6524484 12.4828685,28.8869315 L11.5864408,28.0072649 L16.4381872,23.2466692 C18.4701718,24.4000384 20.9321801,24.6316267 23.1636434,23.8702009 C23.3043412,23.9294817 23.4462654,23.9859549 23.5902334,24.0371338 L23.5902334,24.0371338 Z M26.3894751,13.0126639 C26.5235509,13.0126639 26.6529668,13.0317557 26.77666,13.0644845 C26.2458341,13.6411691 25.6153507,14.1352295 24.9031955,14.5206752 C24.902705,14.5047921 24.9007429,14.4893101 24.9007429,14.4733468 C24.9007429,13.6679618 25.5685877,13.0126639 26.3894751,13.0126639 L26.3894751,13.0126639 Z M27.8782073,14.4735073 C27.8782073,15.2788923 27.2103626,15.9341902 26.3894751,15.9341902 C26.0320486,15.9341902 25.7037263,15.8097726 25.4468566,15.6029715 C26.316878,15.1395543 27.0848709,14.538644 27.7256552,13.8333705 C27.8222879,14.0269357 27.8782073,14.2436837 27.8782073,14.4735073 L27.8782073,14.4735073 Z M14.7622393,10.729269 C14.7238969,10.766891 14.6875166,10.8057966 14.6500735,10.8440604 C14.3362216,10.0377128 14.1723057,9.17425014 14.1723057,8.30469099 C14.1723057,4.3903111 17.41784,1.20575126 21.4071682,1.20575126 C25.3964964,1.20575126 28.6420308,4.3903111 28.6420308,8.30469099 C28.6420308,8.50844378 28.6322204,8.710512 28.6148069,8.91097586 C27.8862192,8.70321219 27.1231315,8.59435686 26.3444289,8.59435686 C25.4112938,8.59435686 24.5147026,8.75029994 23.67959,9.03619559 C20.6534005,7.77036133 17.100391,8.43496443 14.7622393,10.729269 L14.7622393,10.729269 Z M19.0269135,13.1236851 C18.7714336,13.6465437 18.572609,14.2008475 18.4380427,14.7788958 C18.1325296,14.6438093 17.8365,14.488909 17.5523246,14.3129116 C17.6685782,14.1517543 17.7992204,13.9976563 17.9462133,13.8534249 C18.2613732,13.544186 18.6280379,13.2983189 19.0269135,13.1236851 Z M17.946295,18.8583636 C16.9955829,17.9255127 16.6885166,16.5972691 17.0233791,15.4081229 C17.4164502,15.642198 17.8275889,15.8439453 18.2540154,16.011921 C18.2417524,16.1903251 18.2349668,16.3702532 18.2349668,16.5517055 C18.2349668,17.5706299 18.4288863,18.5587507 18.8019277,19.4814941 C18.4904467,19.3188128 18.2029194,19.1101667 17.946295,18.8583636 Z"/><path d="M33.9438306,13.7675119 C33.8251244,13.4555455 33.4711315,13.2973563 33.1532737,13.4138323 C32.8354159,13.5303083 32.6740344,13.8775705 32.7927405,14.1895368 C33.079859,14.9436628 33.2254621,15.7384591 33.2254621,16.5517055 C33.2254621,19.4827776 31.3188057,22.0625767 28.4808945,22.9712019 C28.2281126,23.0521415 28.0570841,23.2834089 28.0570841,23.5442766 L28.0570841,26.8915179 L26.3167145,28.2158308 C26.0028626,28.4421247 26.0029443,28.9422817 26.3167145,29.1685756 L27.6689182,30.1975272 L26.3166327,31.226559 C26.0028626,31.452853 26.0028626,31.9530099 26.3166327,32.1793039 L27.6688365,33.2082554 L26.3166327,34.237207 C26.0027808,34.463501 26.0028626,34.9636579 26.3166327,35.1899519 L28.0570024,36.5142648 L28.0570024,37.9609096 L26.3663389,39.604248 L24.8189893,37.9750279 L24.8189893,33.003139 C24.8189893,32.6701556 24.5438886,32.4003034 24.2046114,32.4003034 C23.8653341,32.4003034 23.5902334,32.6701556 23.5902334,33.003139 L23.5902334,38.2123919 C23.5902334,38.3648856 23.6491777,38.5117641 23.7551303,38.623427 L25.8993626,40.8811523 C26.1241848,41.1276611 26.5464419,41.1360038 26.7812382,40.8983991 L29.1039384,38.6406738 C29.2204372,38.5274867 29.2859218,38.3732282 29.2859218,38.2123919 L29.2859218,36.2190639 C29.2859218,36.0327183 29.1981185,35.8568813 29.048019,35.7426514 L27.6958152,34.7136998 L29.048019,33.6847482 C29.3618709,33.4584542 29.3617891,32.9582973 29.048019,32.7320033 L27.6958152,31.7030518 L29.048019,30.6740199 C29.3618709,30.447726 29.3617891,29.9475691 29.048019,29.7212751 L27.6958152,28.6923235 L29.048019,27.6633719 C29.1981185,27.549142 29.2859218,27.373305 29.2859218,27.1869594 L29.2859218,23.969029 C32.3954182,22.7851772 34.4542998,19.8581159 34.4542998,16.5517055 C34.4542998,15.5939069 34.2825355,14.6571254 33.9438306,13.7675119 L33.9438306,13.7675119 Z"/></g></g></svg>