<svg xmlns="http://www.w3.org/2000/svg" width="69" height="69" viewBox="0 0 69 69"><g fill="none" fill-rule="evenodd"><rect width="69" height="69" fill="#FFF" rx="6"/><g fill="#191970" fill-rule="nonzero" transform="translate(35.954 13.964)"><path d="M15.576693,40.3829355 C15.576693,40.7616067 15.3316052,41.0714286 15.0320534,41.0714286 L0.544639616,41.0714286 C0.245087827,41.0714286 0,40.7616067 0,40.3829355 L0,0.567284925 C0,0.255278216 0.245087827,0 0.544639616,0 L15.0320534,0 C15.3316052,0 15.576693,0.255278216 15.576693,0.567284925 L15.576693,40.3829355 Z M1.08927923,39.6944425 L14.4874138,39.6944425 L14.4874138,1.13456985 L1.08927923,1.13456985 L1.08927923,39.6944425 Z"/><path d="M2.07870787 11.4969745.544639616 11.4969745C.245087827 11.4969745 0 11.2416963 0 10.9296896 0 10.6176828.245087827 10.3624046.544639616 10.3624046L2.07870787 10.3624046C2.37825966 10.3624046 2.62334748 10.6176828 2.62334748 10.9296896 2.62334748 11.2416963 2.37825966 11.4969745 2.07870787 11.4969745ZM2.07870787 1.13456985.544639616 1.13456985C.245087827 1.13456985 0 .879291634 0 .567284925 0 .255278216.245087827 0 .544639616 0L2.07870787 0C2.37825966 0 2.62334748.255278216 2.62334748.567284925 2.62334748.879291634 2.37825966 1.13456985 2.07870787 1.13456985ZM1.30713508 17.7181992.544639616 17.7181992C.245087827 17.7181992 0 17.4629209 0 17.1509142 0 16.8389075.245087827 16.5836293.544639616 16.5836293L1.30713508 16.5836293C1.60668687 16.5836293 1.85177469 16.8389075 1.85177469 17.1509142 1.85177469 17.4629209 1.60668687 17.7181992 1.30713508 17.7181992ZM1.30713508 15.6476092.544639616 15.6476092C.245087827 15.6476092 0 15.392331 0 15.0803243 0 14.7683175.245087827 14.5130393.544639616 14.5130393L1.30713508 14.5130393C1.60668687 14.5130393 1.85177469 14.7683175 1.85177469 15.0803243 1.85177469 15.392331 1.60668687 15.6476092 1.30713508 15.6476092ZM1.30713508 13.5770192.544639616 13.5770192C.245087827 13.5770192 0 13.321741 0 13.0097343 0 12.6977276.245087827 12.4424494.544639616 12.4424494L1.30713508 12.4424494C1.60668687 12.4424494 1.85177469 12.6977276 1.85177469 13.0097343 1.85177469 13.321741 1.60668687 13.5770192 1.30713508 13.5770192ZM1.30713508 7.35579453.544639616 7.35579453C.245087827 7.35579453 0 7.10051631 0 6.7885096 0 6.47650289.245087827 6.22122468.544639616 6.22122468L1.30713508 6.22122468C1.60668687 6.22122468 1.85177469 6.47650289 1.85177469 6.7885096 1.85177469 7.10051631 1.60668687 7.35579453 1.30713508 7.35579453ZM1.30713508 9.4263845.544639616 9.4263845C.245087827 9.4263845 0 9.17110629 0 8.85909958 0 8.54709287.245087827 8.29181465.544639616 8.29181465L1.30713508 8.29181465C1.60668687 8.29181465 1.85177469 8.54709287 1.85177469 8.85909958 1.85177469 9.17110629 1.60668687 9.4263845 1.30713508 9.4263845ZM1.30713508 5.28520455.544639616 5.28520455C.245087827 5.28520455 0 5.02992634 0 4.71791963 0 4.40591292.245087827 4.1506347.544639616 4.1506347L1.30713508 4.1506347C1.60668687 4.1506347 1.85177469 4.40591292 1.85177469 4.71791963 1.85177469 5.02992634 1.60668687 5.28520455 1.30713508 5.28520455ZM1.30713508 3.21461458.544639616 3.21461458C.245087827 3.21461458 0 2.95933636 0 2.64732965 0 2.33532294.245087827 2.08004473.544639616 2.08004473L1.30713508 2.08004473C1.60668687 2.08004473 1.85177469 2.33532294 1.85177469 2.64732965 1.85177469 2.95933636 1.60668687 3.21461458 1.30713508 3.21461458Z" transform="translate(1.625 5.455)"/></g><polyline fill="#FFF" points="36.143 36.143 36.301 36.301 52.571 52.571 52.571 54.214 34.5 54.214 34.5 47.643 37.786 47.643 34.5 44.357 34.5 34.5"/><g fill-rule="nonzero" transform="translate(14.786 13.97)"><path d="M17.437545,18.2326141 L0.544639616,0.637326665 L0.544639616,40.5741854 L38.8872686,40.5741854 L18.8172987,19.6697359 M7.43433076,17.7882409 L22.3846882,33.3602121 L7.43433076,33.3602121 L7.43433076,17.7882409 Z"/><path fill="#191970" d="M0.335861096,0.0416774941 C0.535562289,-0.0434152446 0.771572789,0.00385849911 0.925887347,0.164589228 L0.925887347,0.164589228 L15.8762448,15.7271057 C16.0850233,15.9540196 16.0850233,16.3133001 15.8762448,16.5307593 C15.658389,16.7482185 15.3134505,16.7482185 15.104672,16.5307593 L15.104672,16.5307593 L1.08927923,1.93262724 L1.08927923,22.487251 C1.08927923,22.4954798 1.08910876,22.5036691 1.0887713,22.5118153 L1.08927923,22.5801607 L1.08927923,26.8664376 C1.08927923,26.8799402 1.08918537,26.8933948 1.08899908,26.9067981 L1.08927923,26.9215282 L1.08927923,39.9312625 L37.5710562,39.9312625 L15.9942501,17.4573247 C15.7854715,17.2304107 15.7854715,16.8711303 15.9942501,16.653671 C16.2121059,16.4362118 16.5570443,16.4362118 16.7658228,16.653671 L16.7658228,16.653671 L39.2685163,40.0919932 C39.4319082,40.2527239 39.4682175,40.4985474 39.3865216,40.7065519 C39.3048256,40.9145563 39.1051244,41.0563776 38.8872686,41.0563776 L38.8872686,41.0563776 L0.544639616,41.0563776 C0.245087827,41.0563776 0,40.8010994 0,40.4890926 L0,40.4890926 L0,26.9215282 C0,26.9174585 4.16973619e-05,26.9133985 0.000124669069,26.9093486 L0,26.8664376 L0,22.5801607 C0,22.5555183 0.000312612024,22.531036 0.000929152406,22.5067336 L0,22.487251 L0,0.561688675 C0,0.334774705 0.136159904,0.126770233 0.335861096,0.0416774941 Z"/><path fill="#191970" d="M7.22555224,17.1925917 C7.02585105,17.2776845 6.88969114,17.4856889 6.88969114,17.7126029 L6.88969114,33.2845741 C6.88969114,33.5965808 7.13477897,33.851859 7.43433076,33.851859 L22.3846882,33.851859 C22.6025441,33.851859 22.8022453,33.7100378 22.8839412,33.5020333 C22.9656371,33.2940288 22.9202505,33.0482054 22.7659359,32.8874747 L7.81557849,17.3155035 C7.66126393,17.145318 7.42525343,17.0980442 7.22555224,17.1925917 Z M7.97897037,19.0835415 L21.0684758,32.7172892 L7.97897037,32.7172892 L7.97897037,19.0835415 Z"/><path fill="#191970" d="M2.08778519 20.7248093.544639616 20.7248093C.245087827 20.7248093 0 20.9800875 0 21.2920942 0 21.6041009.245087827 21.8593791.544639616 21.8593791L2.08778519 21.8593791C2.38733698 21.8593791 2.63242481 21.6041009 2.63242481 21.2920942 2.63242481 20.9800875 2.38733698 20.7248093 2.08778519 20.7248093ZM2.08778519 10.3624046.544639616 10.3624046C.245087827 10.3624046 0 10.6176828 0 10.9296896 0 11.2416963.245087827 11.4969745.544639616 11.4969745L2.08778519 11.4969745C2.38733698 11.4969745 2.63242481 11.2416963 2.63242481 10.9296896 2.63242481 10.6176828 2.38733698 10.3624046 2.08778519 10.3624046ZM.544639616 1.13456985 2.08778519 1.13456985C2.38733698 1.13456985 2.63242481.879291634 2.63242481.567284925 2.63242481.255278216 2.38733698 2.68720122e-15 2.08778519 2.68720122e-15L.544639616 2.68720122e-15C.245087827 2.68720122e-15 0 .255278216 0 .567284925 0 .879291634.245087827 1.13456985.544639616 1.13456985ZM1.31621241 26.9365792.544639616 26.9365792C.245087827 26.9365792 0 27.1918574 0 27.5038641 0 27.8158708.245087827 28.071149.544639616 28.071149L1.31621241 28.071149C1.61576419 28.071149 1.86085202 27.8158708 1.86085202 27.5038641 1.86085202 27.1918574 1.61576419 26.9365792 1.31621241 26.9365792ZM1.31621241 29.0166239.544639616 29.0166239C.245087827 29.0166239 0 29.2719021 0 29.5839088 0 29.8959155.245087827 30.1511938.544639616 30.1511938L1.31621241 30.1511938C1.61576419 30.1511938 1.86085202 29.8959155 1.86085202 29.5839088 1.86085202 29.2719021 1.61576419 29.0166239 1.31621241 29.0166239ZM1.31621241 24.8659892.544639616 24.8659892C.245087827 24.8659892 0 25.1212674 0 25.4332741 0 25.7452808.245087827 26.0005591.544639616 26.0005591L1.31621241 26.0005591C1.61576419 26.0005591 1.86085202 25.7452808 1.86085202 25.4332741 1.86085202 25.1212674 1.61576419 24.8659892 1.31621241 24.8659892ZM1.31621241 22.7953992.544639616 22.7953992C.245087827 22.7953992 0 23.0506775 0 23.3626842 0 23.6746909.245087827 23.9299691.544639616 23.9299691L1.31621241 23.9299691C1.61576419 23.9299691 1.86085202 23.6746909 1.86085202 23.3626842 1.86085202 23.0506775 1.61576419 22.7953992 1.31621241 22.7953992ZM.544639616 17.7087444 1.31621241 17.7087444C1.61576419 17.7087444 1.86085202 17.4534662 1.86085202 17.1414595 1.86085202 16.8294528 1.61576419 16.5741746 1.31621241 16.5741746L.544639616 16.5741746C.245087827 16.5741746 0 16.8294528 0 17.1414595 0 17.4534662.245087827 17.7087444.544639616 17.7087444ZM.544639616 19.7887891 1.31621241 19.7887891C1.61576419 19.7887891 1.86085202 19.5335109 1.86085202 19.2215042 1.86085202 18.9094975 1.61576419 18.6542193 1.31621241 18.6542193L.544639616 18.6542193C.245087827 18.6542193 0 18.9094975 0 19.2215042 0 19.5335109.245087827 19.7887891.544639616 19.7887891ZM.544639616 15.6381544 1.31621241 15.6381544C1.61576419 15.6381544 1.86085202 15.3828762 1.86085202 15.0708695 1.86085202 14.7588628 1.61576419 14.5035846 1.31621241 14.5035846L.544639616 14.5035846C.245087827 14.5035846 0 14.7588628 0 15.0708695 0 15.3828762.245087827 15.6381544.544639616 15.6381544ZM.544639616 13.5675645 1.31621241 13.5675645C1.61576419 13.5675645 1.86085202 13.3122862 1.86085202 13.0002795 1.86085202 12.6882728 1.61576419 12.4329946 1.31621241 12.4329946L.544639616 12.4329946C.245087827 12.4329946 0 12.6882728 0 13.0002795 0 13.3122862.245087827 13.5675645.544639616 13.5675645ZM.544639616 7.34633978 1.31621241 7.34633978C1.61576419 7.34633978 1.86085202 7.09106156 1.86085202 6.77905485 1.86085202 6.46704815 1.61576419 6.21176993 1.31621241 6.21176993L.544639616 6.21176993C.245087827 6.21176993 0 6.46704815 0 6.77905485 0 7.09106156.245087827 7.34633978.544639616 7.34633978ZM.544639616 9.4263845 1.31621241 9.4263845C1.61576419 9.4263845 1.86085202 9.17110629 1.86085202 8.85909958 1.86085202 8.54709287 1.61576419 8.29181465 1.31621241 8.29181465L.544639616 8.29181465C.245087827 8.29181465 0 8.54709287 0 8.85909958 0 9.17110629.245087827 9.4263845.544639616 9.4263845ZM.544639616 5.2757498 1.31621241 5.2757498C1.61576419 5.2757498 1.86085202 5.02047159 1.86085202 4.70846488 1.86085202 4.39645817 1.61576419 4.14117995 1.31621241 4.14117995L.544639616 4.14117995C.245087827 4.14117995 0 4.39645817 0 4.70846488 0 5.02047159.245087827 5.2757498.544639616 5.2757498ZM.544639616 3.20515983 1.31621241 3.20515983C1.61576419 3.20515983 1.86085202 2.94988161 1.86085202 2.6378749 1.86085202 2.32586819 1.61576419 2.07058998 1.31621241 2.07058998L.544639616 2.07058998C.245087827 2.07058998 0 2.32586819 0 2.6378749 0 2.94988161.245087827 3.20515983.544639616 3.20515983Z" transform="translate(1.68 8.9)"/></g></g></svg>