<?xml version="1.0" encoding="UTF-8"?>
<svg width="55px" height="61px" viewBox="0 0 55 61" version="1.1" xmlns="http://www.w3.org/2000/svg" xmlns:xlink="http://www.w3.org/1999/xlink">
    <title>AE1528D7-EDE3-45A8-A68F-65619A4DE5C2</title>
    <g id="Welcome" stroke="none" stroke-width="1" fill="none" fill-rule="evenodd">
        <g id="Marchand-gestion-/-Commande-passée" transform="translate(-305.000000, -653.000000)">
            <g id="Group-80" transform="translate(305.000000, 653.000000)">
                <path d="M4.34829546,0.599638182 L50.6620207,0.601613837 C51.7682143,0.601689841 52.7718733,0.830120298 53.4974506,1.21030748 C53.827414,1.38320138 54.0974338,1.58544458 54.2792698,1.81546954 C54.4154347,1.98771989 54.5,2.17453413 54.5,2.37460553 L54.5,2.37460553 L54.5,59 C53.7115186,59.5795451 53.0125574,59.6017457 52.1910193,59.6054679 C51.7892999,59.6045693 51.4952293,59.6030462 51.2514225,59.6017838 C51.0233785,59.600603 50.839053,59.599651 50.6520217,59.5996382 L37.8755592,59.5990208 L15.8216043,59.5980156 L15.0553667,59.597981 L4.3386079,59.5974979 C4.09002845,59.5974808 3.84630989,59.5991525 3.61292409,59.6007716 C2.19637549,59.5996709 1.39070952,59.5780754 0.873915551,59.4010668 L0.873915551,59.4010668 L0.500992579,52.2782558 L0.501928654,46.3940409 L0.50201342,45.8656449 L0.502961343,39.986389 L0.503066162,39.3389344 L0.503970335,33.7696501 L0.50409156,33.024784 L0.504991176,27.5076624 L0.505126984,26.6762083 L0.505980115,21.4601898 L0.506128684,20.5529712 L0.506898872,15.8545255 L0.507058378,14.882366 L0.507883254,9.85921555 L0.508053698,8.82211503 L0.508933262,3.47425979 L0.50911465,2.37213596 C0.50911465,2.17214269 0.593704945,1.98542339 0.729869291,1.81326115 C0.911780047,1.58325848 1.18190838,1.38104981 1.51197898,1.20818746 C2.23789433,0.828015946 3.24196928,0.599638183 4.34829546,0.599638182 L4.34829546,0.599638182 Z" id="Fill-1" stroke="#191970" fill="#1A7EF5"></path>
                <path d="M39.8907699,2.27320121 C39.8907699,3.5278232 38.8683576,4.54452659 37.6070786,4.54452659 L17.4020989,4.54265075 C16.1414485,4.54265075 15.1190362,3.52563472 15.1190362,2.27132537 C15.1193505,1.01670339 16.1414485,0 17.4024132,0 L37.6073929,0.00156319709 C38.8686719,0.00187583651 39.8907699,1.01889186 39.8907699,2.27320121" id="Fill-5" fill="#191970"></path>
                <polygon id="Fill-9" fill="#FFFFFF" points="52.3251959 59.8683044 2.66795243 59.8657735 2.67580989 5.86830441 52.3330533 5.87065458"></polygon>
                <g id="Group-67" transform="translate(4.948124, 7.946157)" fill="#D8D8D8">
                    <polygon id="Fill-11" points="20.7436555 0.030638663 20.774771 24.0182107 33.6685439 29.9836834 33.6434 10.3311696 26.4145394 10.3405488 26.4010246 0.0234479564"></polygon>
                    <polygon id="Fill-15" points="10.4292029 44.4385669 10.4046876 25.3672498 0.0328441709 25.3803806 0.0573594372 44.4516978"></polygon>
                    <polygon id="Fill-17" points="39.2989148 9.07351499 39.2872858 0.00697185903 27.6582492 0.0216659117 27.6698782 9.08820904"></polygon>
                    <polygon id="Fill-19" points="29.303695 51.6593926 33.703871 51.6564751 33.6887847 45.6593926 29.2886087 45.6623101"></polygon>
                    <polygon id="Fill-21" points="33.6703982 31.3637363 29.2677079 29.3268905 29.2871943 44.4145562 33.6873704 44.4089287"></polygon>
                    <polygon id="Fill-25" points="28.0096661 28.7447872 20.1474945 25.1075402 20.1478088 25.354838 11.661755 25.3654677 11.6749556 35.6831938 28.0184665 35.662247"></polygon>
                    <polygon id="Fill-27" points="28.031447 45.6666771 11.6879361 45.6775276 11.6976793 49.5642722 16.0978553 49.5613571 16.1031984 51.6666771 28.0465333 51.6587417"></polygon>
                    <polygon id="Fill-29" points="40.5579623 10.3224157 34.9005932 10.3296064 34.9266799 30.565818 44.6758985 35.0759543 44.6303252 0 40.5444475 0.00531487011"></polygon>
                    <polygon id="Fill-33" points="10.385924 10.9863055 0.0140805632 10.9994363 0.0216237221 16.9395853 10.3934672 16.9264544"></polygon>
                    <path d="M10.4308372,45.6889995 L10.4379938,51.6949995 L0.0659937883,51.7009995 L0.0589937883,45.7027949 L10.4308372,45.6889995 Z" id="Combined-Shape"></path>
                    <polygon id="Fill-37" points="10.4031161 24.1165358 10.395573 18.1770121 0.0237295206 18.190143 0.0312726795 24.1296666"></polygon>
                    <polygon id="Fill-39" points="10.3844154 9.73574781 10.3718434 0.0439258383 0 0.0570566938 0.0125719314 9.74887866"></polygon>
                    <polygon id="Fill-41" points="34.9371146 38.7799185 44.6803615 38.7674129 44.6772185 36.4560697 34.9283143 31.9459335"></polygon>
                    <polygon id="Fill-55" points="11.6468259 13.798372 19.504283 13.7883675 19.486368 0.032233124 11.6289109 0.0422375854"></polygon>
                    <polygon id="Fill-61" points="11.6483345 15.0489297 11.6602778 24.1151602 19.517735 24.1048431 19.5057917 15.0389252"></polygon>
                    <polygon id="Fill-63" points="44.6819016 40.0179706 34.938969 40.0304762 34.9527981 50.9728558 44.696045 50.9603502"></polygon>
                    <polygon id="Fill-65" points="11.686396 44.437035 28.0299069 44.4160881 28.0201637 36.9127421 11.6766528 36.933689"></polygon>
                </g>
                <path d="M10.3081779,45.935519 C10.3081779,45.935519 13.4327839,40.9817791 13.2781112,39.0585751 C13.1232207,37.1353712 11.4303173,35.7010403 9.49690885,35.8551133 C7.56350036,36.0089696 6.12155887,37.6929378 6.2764494,39.6161418 C6.43112207,41.5393457 10.3081779,45.935519 10.3081779,45.935519 Z" id="Fill-68" fill="#D0021B"></path>
                <path d="M8.11879706,39.4693715 C8.19221212,40.3803742 8.99411372,41.0599424 9.90995025,40.9869148 C10.8257868,40.9138873 11.5087429,40.1162181 11.4355457,39.2052154 C11.3621306,38.2944293 10.5602291,37.6148611 9.64439251,37.6878887 C8.72855598,37.7606996 8.04559985,38.5583687 8.11879706,39.4693715" id="Fill-70" fill="#FFFFFF"></path>
                <path d="M45.4651337,25.3236185 C45.4651337,25.3236185 48.7303416,20.7020812 48.6781444,18.8386784 C48.6259473,16.9752756 47.0651047,15.5057845 45.1918976,15.5566769 C43.3187014,15.6073602 41.8423191,17.159197 41.8945163,19.0225998 C41.9465032,20.8859916 45.4651337,25.3236185 45.4651337,25.3236185 Z" id="Fill-76" fill="#D0021B"></path>
                <path d="M43.6797058,18.9741599 C43.7042643,19.8568267 44.4438244,20.5528464 45.3311355,20.5289052 C46.2182473,20.5047438 46.9177301,19.7696707 46.8929614,18.8869929 C46.8681818,18.0045242 46.1288429,17.3083064 45.2415209,17.3324567 C44.35442,17.356409 43.6549372,18.0914821 43.6797058,18.9741599" id="Fill-78" fill="#FFFFFF"></path>
            </g>
        </g>
    </g>
</svg>