<?xml version="1.0" encoding="UTF-8"?>
<svg width="55px" height="60px" viewBox="0 0 55 60" version="1.1" xmlns="http://www.w3.org/2000/svg" xmlns:xlink="http://www.w3.org/1999/xlink">
    <title>4F507EC9-BB9A-4FE5-8EFD-BA140C941FE0</title>
    <g id="Welcome" stroke="none" stroke-width="1" fill="none" fill-rule="evenodd">
        <g id="Marchand-gestion-/-Commande-passée" transform="translate(-305.000000, -562.000000)">
            <g id="Group-15" transform="translate(149.000000, 552.500000)">
                <g id="Group-25" transform="translate(156.000000, 10.000000)">
                    <polygon id="Fill-1" fill="#BD9B74" points="0 59.5 26 59.5 25.5676254 18.4321229 0.000629233025 7.58162868"></polygon>
                    <polygon id="Fill-2" fill="#C7A67B" points="25.5672478 15.7384222 26 59.5 55 59.5 54.9989932 10.8525078"></polygon>
                    <polygon id="Fill-3" fill="#D7BE85" points="29.4317454 0 0 7.58225792 25.5669962 18.4327522 55 10.8530112 55 10.8517527"></polygon>
                    <polygon id="Fill-4" fill="#191970" points="43.1074959 13.9737553 37 14.5 37 59.5 43 59.5"></polygon>
                    <polygon id="Fill-5" fill="#191970" points="9.36487507 11.5944994 15.0128707 13.872224 15 59.5 9 59.5"></polygon>
                    <polygon id="Fill-6" fill="#1A7EF5" points="36.715621 3.12200256 42.2163761 5.50050339 15.0133741 13.9737553 9.36537846 11.593996"></polygon>
                    <polygon id="Fill-7" fill="#1A7EF5" points="20.36412 2.37850082 14.7161244 3.86600769 37 15.5 43.1071183 13.974007"></polygon>
                </g>
            </g>
        </g>
    </g>
</svg>