<?xml version="1.0" encoding="UTF-8"?>
<svg width="30px" height="30px" viewBox="0 0 30 30" version="1.1" xmlns="http://www.w3.org/2000/svg" xmlns:xlink="http://www.w3.org/1999/xlink">
    <title>CC95A34A-3E9C-42C9-A136-39579BD7C036</title>
    <g id="Welcome" stroke="none" stroke-width="1" fill="none" fill-rule="evenodd">
        <g id="Marchand-/-Gestionnaire-de-code-promo" transform="translate(-1261.000000, -418.000000)">
            <g id="Group-18" transform="translate(1109.000000, 403.000000)">
                <g id="Group-14" transform="translate(152.000000, 15.000000)">
                    <rect id="Rectangle-Copy" stroke="#00B517" fill="#FFFFFF" x="0.5" y="0.5" width="29" height="29" rx="6"></rect>
                    <g id="check-copy" transform="translate(9.675456, 11.196755)" fill="#00B517" fill-rule="nonzero">
                        <path d="M10.3833713,1.52775392 L4.49256874,7.34416415 C4.31583969,7.51866632 4.08385171,7.60649087 3.85186369,7.60649087 C3.61987567,7.60649087 3.38788769,7.51866632 3.21115864,7.34416415 L0.265840327,4.43595903 C-0.0886134423,4.08613553 -0.0886134423,3.52051916 0.265840327,3.17069566 C0.620128121,2.82070827 1.19279665,2.82070827 1.54725042,3.17069566 L3.85186369,5.44626909 L9.10196125,0.262490541 C9.45624904,-0.0874968471 10.0289176,-0.0874968471 10.3833713,0.262490541 C10.7376592,0.612314046 10.7376592,1.17776653 10.3833713,1.52775392 Z" id="Path"></path>
                    </g>
                </g>
            </g>
        </g>
    </g>
</svg>