<?xml version="1.0" encoding="UTF-8"?>
<svg width="30px" height="30px" viewBox="0 0 30 30" version="1.1" xmlns="http://www.w3.org/2000/svg" xmlns:xlink="http://www.w3.org/1999/xlink">
    <title>F54AB73D-01AC-46B2-8A4C-098789F81C50</title>
    <g id="Welcome" stroke="none" stroke-width="1" fill="none" fill-rule="evenodd">
        <g id="Marchand-/-Gestion-des-menus" transform="translate(-595.000000, -431.000000)" fill="#1A7EF5" fill-rule="nonzero">
            <g id="Group-3" transform="translate(119.000000, 257.000000)">
                <g id="Group-22" transform="translate(71.000000, 154.500000)">
                    <g id="Group-6-Copy" transform="translate(360.000000, 0.000000)">
                        <g id="Group" transform="translate(45.428571, 20.000000)">
                            <path d="M23.478873,14.347741 C22.7203566,15.1114129 21.6691947,15.5851467 20.5093739,15.5851467 C19.350206,15.5851467 18.2990106,15.1114129 17.5404906,14.347741 C16.7819224,15.1114129 15.7308124,15.5851467 14.5715814,15.5851467 C13.4118032,15.5851467 12.3606413,15.1114129 11.6021231,14.347741 C10.8435475,15.1114129 9.79299391,15.5851467 8.63321389,15.5851467 C7.47343388,15.5851467 6.42288218,15.1114129 5.6643436,14.347741 C4.90576237,15.1114129 3.85459859,15.5851467 2.6948464,15.5851467 C2.54476202,15.5851467 2.39643044,15.5747855 2.2506919,15.5596292 L2.2506919,29.1428571 L5.93676245,29.1428571 L5.93676245,19.7565894 L12.9556017,19.7565894 L12.9556017,29.1428571 L26.892137,29.1428571 L26.892137,15.5590474 C26.7457511,15.5746558 26.5975475,15.5851467 26.4477896,15.5851467 C25.2879688,15.5851467 24.2373893,15.1114129 23.478873,14.347741 Z M23.3978991,24.598902 L16.3286274,24.598902 L16.3286274,19.7565894 L23.3978991,19.7565894 L23.3978991,24.598902 Z" id="Shape"></path>
                            <path d="M28.8178007,10.2567955 L24.4683808,2.64824383 L19.7723809,2.64824383 L19.7723809,0 L9.37045361,0 L9.37045361,2.64824383 L4.67438139,2.64824383 L0.32503011,10.2567955 C-0.560556015,11.953818 0.445613618,14.1301401 2.34878021,14.3508501 C2.46236365,14.364061 2.57789092,14.3708609 2.69503932,14.3708609 C4.33479963,14.3708609 5.66415073,13.0428527 5.66415073,11.4048306 C5.66415073,13.0428527 6.99340909,14.3708609 8.63321392,14.3708609 C10.2730187,14.3708609 11.6023049,13.0428527 11.6023049,11.4048306 C11.6023049,13.0428527 12.9316004,14.3708609 14.5714089,14.3708609 C16.2112137,14.3708609 17.5404907,13.0428527 17.5404907,11.4048306 C17.5404907,13.0428527 18.8698418,14.3708609 20.5095705,14.3708609 C22.149392,14.3708609 23.4786801,13.0428527 23.4786801,11.4048306 C23.4786801,13.0428527 24.8080312,14.3708609 26.4477896,14.3708609 C26.5648731,14.3708609 26.6804653,14.364061 26.7940506,14.3508501 C28.6972153,14.1301401 29.7034499,11.953818 28.8178007,10.2567955 Z" id="Path"></path>
                        </g>
                    </g>
                </g>
            </g>
        </g>
    </g>
</svg>