<?xml version="1.0" encoding="UTF-8"?>
<svg width="26px" height="26px" viewBox="0 0 26 26" version="1.1" xmlns="http://www.w3.org/2000/svg" xmlns:xlink="http://www.w3.org/1999/xlink">
    <title>148D4A3D-9323-4921-B0F6-06D0C4458C25</title>
    <g id="Welcome" stroke="none" stroke-width="1" fill="none" fill-rule="evenodd">
        <g id="Marchand-/-Corbeille" transform="translate(-1229.000000, -358.000000)">
            <g id="Group-20" transform="translate(119.000000, 341.000000)">
                <g id="Group-18" transform="translate(990.000000, 0.000000)">
                    <g id="Group-16" transform="translate(30.000000, 16.000000)">
                        <g id="Group-15" transform="translate(90.000000, 0.000000)">
                            <g id="Group-5-Copy-13" transform="translate(0.000000, 1.000000)">
                                <rect id="Rectangle-Copy-7" stroke="#1A7EF5" fill="#FFFFFF" x="0.5" y="0.5" width="25" height="25" rx="12.5"></rect>
                                <g id="twocirclingarrows1_120592" transform="translate(6.250000, 5.500000)" fill="#1A7EF5" fill-rule="nonzero">
                                    <path d="M3.36693396,11.7054039 C2.13704333,10.7158652 1.34999037,9.19856615 1.34999037,7.49690255 C1.34999037,4.98149196 3.0722225,2.87411076 5.39996148,2.2732403 L5.39996148,0.881740671 C2.31897468,1.50707748 0,4.23122264 0,7.49690255 C0,9.5149912 0.885964286,11.3246342 2.28902198,12.5614372 C3.37502408,13.5731304 4.04997111,12.2229539 3.36693396,11.7054039 Z M11.1540583,2.38362785 C10.4625457,1.75896531 9.45002889,2.77162179 10.1138039,3.27327831 C11.3550592,4.26252801 12.1501059,5.78705138 12.1501059,7.49690255 C12.1501059,10.0126984 10.4275849,12.1204649 8.10003852,12.7209501 L8.10003852,14.1127387 C11.1810253,13.4867276 13.5,10.7629677 13.5,7.49680622 C13.5,5.45213208 12.5903432,3.62139403 11.1540583,2.38362785 Z M5.99641509,3.43943758 L8.19355644,2.12355247 C8.51321243,1.93205992 8.51388661,1.62016211 8.19529004,1.42732103 L5.97782708,0.0850430782 C5.65884527,-0.10750903 5.40140614,0.0378442123 5.40294023,0.410715253 L5.41488967,3.11116466 C5.41585278,3.48384305 5.67637386,3.63093013 5.99641509,3.43943758 Z M7.52255816,11.5616881 L5.30480627,12.9039661 C4.98592077,13.0968072 4.98659494,13.4086087 5.30663618,13.6001975 L7.50358491,14.916179 C7.8232409,15.1072862 8.08433984,14.9606808 8.08597713,14.5875208 L8.09753831,11.8871677 C8.09869017,11.5145856 7.8408658,11.369136 7.52255816,11.5616881 Z" id="Shape"></path>
                                </g>
                            </g>
                        </g>
                    </g>
                </g>
            </g>
        </g>
    </g>
</svg>