<?xml version="1.0" encoding="UTF-8"?>
<svg width="76px" height="75px" viewBox="0 0 76 75" version="1.1" xmlns="http://www.w3.org/2000/svg" xmlns:xlink="http://www.w3.org/1999/xlink">
    <title>E370E7DF-CC23-48E7-A2FA-519BBCBB22DA</title>
    <g id="Welcome" stroke="none" stroke-width="1" fill="none" fill-rule="evenodd">
        <g id="Formulaire_de_vente" transform="translate(-192.000000, -809.000000)" fill="#D8D8D8" fill-rule="nonzero">
            <g id="Group-6" transform="translate(56.000000, 680.000000)">
                <g id="Group-5" transform="translate(20.000000, 89.000000)">
                    <g id="image_outline_icon_139447" transform="translate(116.500000, 40.000000)">
                        <path d="M66.6666667,66.6666667 L8.33333333,66.6666667 L8.33333333,8.33333333 L66.6666667,8.33333333 M66.6666667,0 L8.33333333,0 C3.73096042,0 0,3.73096042 0,8.33333333 L0,66.6666667 C0,71.2690396 3.73096042,75 8.33333333,75 L66.6666667,75 C71.2690396,75 75,71.2690396 75,66.6666667 L75,8.33333333 C75,3.73096042 71.2690396,0 66.6666667,0 M45.6666667,38.7083333 L34.2083333,53.4583333 L26.0416667,43.625 L14.5833333,58.3333333 L60.4166667,58.3333333 L45.6666667,38.7083333 Z" id="Shape"></path>
                    </g>
                </g>
            </g>
        </g>
    </g>
</svg>