<?xml version="1.0" encoding="UTF-8"?>
<svg width="20px" height="20px" viewBox="0 0 20 20" version="1.1" xmlns="http://www.w3.org/2000/svg" xmlns:xlink="http://www.w3.org/1999/xlink">
    <title>DC96F539-D358-410F-AE34-A4B8C63ABB87</title>
    <g id="Welcome" stroke="none" stroke-width="1" fill="none" fill-rule="evenodd">
        <g id="Formulaire_de_vente" transform="translate(-994.000000, -229.000000)" fill="#1A7EF5" fill-rule="nonzero">
            <g id="Group-37" transform="translate(741.000000, 22.000000)">
                <g id="Group-20" transform="translate(0.000000, 100.000000)">
                    <g id="Group-17" transform="translate(20.000000, 15.000000)">
                        <g id="Icons/Close-Copy-18" transform="translate(233.000000, 92.000000)">
                            <g id="information-button" transform="translate(1.538462, 1.538462)">
                                <path d="M8.46153846,0 C3.78829026,0 0,3.78842248 0,8.46153846 C0,13.1349189 3.78829026,16.9230769 8.46153846,16.9230769 C13.1347867,16.9230769 16.9230769,13.1349189 16.9230769,8.46153846 C16.9230769,3.78842248 13.1347867,0 8.46153846,0 Z M8.46153846,4.23076923 C9.04571514,4.23076923 9.51923077,4.70435096 9.51923077,5.28846154 C9.51923077,5.87283654 9.04571514,6.34615385 8.46153846,6.34615385 C7.87736178,6.34615385 7.40384615,5.87283654 7.40384615,5.28846154 C7.40384615,4.70435096 7.87736178,4.23076923 8.46153846,4.23076923 Z M10.0480769,12.6923077 L6.875,12.6923077 C6.58294471,12.6923077 6.34615385,12.4557813 6.34615385,12.1634615 C6.34615385,11.8714062 6.58294471,11.6346154 6.875,11.6346154 L7.40384615,11.6346154 L7.40384615,8.46153846 L6.875,8.46153846 C6.58294471,8.46153846 6.34615385,8.22501202 6.34615385,7.93269231 C6.34615385,7.64063702 6.58294471,7.40384615 6.875,7.40384615 L8.99038462,7.40384615 C9.2824399,7.40384615 9.51923077,7.64063702 9.51923077,7.93269231 L9.51923077,11.6346154 L10.0480769,11.6346154 C10.3401322,11.6346154 10.5769231,11.8714062 10.5769231,12.1634615 C10.5769231,12.4557813 10.3401322,12.6923077 10.0480769,12.6923077 Z" id="Shape"></path>
                            </g>
                        </g>
                    </g>
                </g>
            </g>
        </g>
    </g>
</svg>