<svg xmlns="http://www.w3.org/2000/svg" width="69" height="69" viewBox="0 0 69 69"><g fill="none" fill-rule="evenodd"><rect width="69" height="69" fill="#FFF" rx="6"/><g fill="#191970" fill-rule="nonzero" transform="translate(17.25 13.964)"><path d="M33.6785714,0 L0.821428571,0 C0.367717593,0 0,0.359099212 0,0.802176339 L0,40.2692522 C0,40.7123294 0.367717593,41.0714286 0.821428571,41.0714286 L33.6785714,41.0714286 C34.1322824,41.0714286 34.5,40.7123294 34.5,40.2692522 L34.5,0.802176339 C34.5,0.359099212 34.1322824,0 33.6785714,0 Z M32.8571429,1.60435268 L32.8571429,5.06373814 L29.6725028,1.60435268 L32.8571429,1.60435268 Z M1.64285714,1.60435268 L3.28571429,1.60435268 L3.28571429,39.4670759 L1.64285714,39.4670759 L1.64285714,1.60435268 Z M4.92857143,1.60435268 L27.4633092,1.60435268 L32.5144531,7.09142687 L32.8571429,7.46368683 L32.8571429,34.289905 L26.7984654,39.4670759 L4.92857143,39.4670759 L4.92857143,1.60435268 Z M32.8571429,39.4670759 L29.2932338,39.4670759 L32.8571429,36.4219393 L32.8571429,39.4670759 Z"/><path d="M15.586928 34.6540179 10.6583566 34.6540179C10.2056083 34.6540179 9.83692799 35.0140571 9.83692799 35.4561942 9.83692799 35.8983313 10.2056083 36.2583705 10.6583566 36.2583705L15.586928 36.2583705C16.0393555 36.2583705 16.4083566 35.8983313 16.4083566 35.4561942 16.4083566 35.0140571 16.0393555 34.6540179 15.586928 34.6540179ZM27.9083566 35.4561942C27.9083566 35.0140571 27.5393555 34.6540179 27.086928 34.6540179L22.1583566 34.6540179C21.7056083 34.6540179 21.336928 35.0140571 21.336928 35.4561942 21.336928 35.8983313 21.7056083 36.2583705 22.1583566 36.2583705L27.086928 36.2583705C27.5393555 36.2583705 27.9083566 35.8983313 27.9083566 35.4561942ZM18.8726423 34.6540179C18.419894 34.6540179 18.0512137 35.0140571 18.0512137 35.4561942 18.0512137 35.8983313 18.419894 36.2583705 18.8726423 36.2583705 19.3250698 36.2583705 19.6940708 35.8983313 19.6940708 35.4561942 19.6940708 35.0140571 19.3250698 34.6540179 18.8726423 34.6540179ZM10.6583566 33.0496652 27.086928 33.0496652C27.5403181 33.0496652 27.9083566 32.690566 27.9083566 32.2474888 27.9083566 31.8044117 27.5403181 31.4453125 27.086928 31.4453125L10.6583566 31.4453125C10.2046457 31.4453125 9.83692799 31.8044117 9.83692799 32.2474888 9.83692799 32.690566 10.2046457 33.0496652 10.6583566 33.0496652ZM15.0494699 14.9768829C15.3411412 15.1351247 15.718164 15.2050018 15.9729353 15.2050018 16.3814034 15.2050018 16.6243024 15.0809152 16.7016323 14.8327419L17.2493583 12.9219328 20.3996652 12.9219328 20.9586217 14.8318018C21.0269671 15.0806018 21.2425921 15.2050018 21.6054967 15.2050018 22.0354631 15.2050018 22.8110073 14.9524417 22.8110073 14.4297736 22.8110073 14.4106592 22.8013811 14.3627167 22.781808 14.2859459 22.781808 14.2859459 19.9549387 5.28903691 19.944029 5.25425502 19.7909738 4.76762229 19.165918 4.62254116 18.7089983 4.62254116 18.2860909 4.62254116 17.6382533 4.73064693 17.4884068 5.191585L14.6477399 14.2226491C14.6281668 14.3044335 14.6185391 14.355823 14.6185391 14.3761908 14.617899 14.6469253 14.8033622 14.8433957 15.0494699 14.9768829L15.0494699 14.9768829ZM18.9326451 7.04912458 20.2119559 11.4573342 17.6693778 11.4573342 18.9326451 7.04912458ZM15.3084124 27.9238837C15.3084124 28.2685689 15.4996512 28.4409114 15.881808 28.4409114L21.983803 28.4409114C22.3974051 28.4409114 22.5867188 27.960859 22.5867188 27.6224409 22.5867188 27.2843361 22.3967634 26.8039703 21.983803 26.8039703L17.7492746 26.8039703 22.1012416 19.1218785C22.2485212 18.8827923 22.3220006 18.657807 22.3220006 18.4472357 22.3220006 18.111951 22.1307617 17.9446221 21.7486049 17.9446221 21.7486049 17.9446221 16.1911272 17.9446221 16.1612863 17.9446221 15.7390207 17.9446221 15.5731306 18.4193475 15.5731306 18.7627793 15.5731306 19.1149847 15.7290737 19.5812497 16.1612863 19.5812497L19.8811384 19.5812497 15.5140904 27.2777557C15.3767578 27.4980409 15.3084124 27.7136258 15.3084124 27.9238837Z"/></g></g></svg>