<?xml version="1.0" encoding="UTF-8"?>
<svg width="29px" height="29px" viewBox="0 0 29 29" version="1.1" xmlns="http://www.w3.org/2000/svg" xmlns:xlink="http://www.w3.org/1999/xlink">
    <title>F9193109-CA4E-48FF-A3D0-42F0C9FB9FEB</title>
    <defs>
        <path d="M11.6666667,0 C18.1099887,0 23.3333333,5.22334459 23.3333333,11.6666667 C23.3333333,18.1099887 18.1099887,23.3333333 11.6666667,23.3333333 C5.22334459,23.3333333 0,18.1099887 0,11.6666667 C0,5.22334459 5.22334459,0 11.6666667,0 Z M11.6666667,4.08333333 C7.47850731,4.08333333 4.08333333,7.47850731 4.08333333,11.6666667 C4.08333333,15.854826 7.47850731,19.25 11.6666667,19.25 C15.854826,19.25 19.25,15.854826 19.25,11.6666667 C19.25,7.47850731 15.854826,4.08333333 11.6666667,4.08333333 Z" id="path-1"></path>
    </defs>
    <g id="Welcome" stroke="none" stroke-width="1" fill="none" fill-rule="evenodd">
        <g id="Formulaire_de_vente" transform="translate(-194.000000, -1086.000000)">
            <g id="Group-6" transform="translate(56.000000, 680.000000)">
                <g id="Brightness-icon" transform="translate(138.500000, 406.500000)">
                    <rect id="bounds" x="0" y="0" width="28" height="28"></rect>
                    <circle id="Oval-" stroke="#4A4A4A" stroke-width="2.91666667" cx="14" cy="14" r="4.375"></circle>
                    <g id="Rectangle" transform="translate(2.333333, 2.333333)">
                        <mask id="mask-2" fill="white">
                            <use xlink:href="#path-1"></use>
                        </mask>
                        <g id="Mask"></g>
                        <path d="M12.25,0 L12.25,10.257 L19.5037668,3.0046086 L20.3287247,3.82956651 L13.074,11.083 L23.3333333,11.0833333 L23.3333333,12.25 L13.075,12.25 L20.3287247,19.5037668 L19.5037668,20.3287247 L12.25,13.075 L12.25,23.3333333 L11.0833333,23.3333333 L11.083,13.074 L3.82956651,20.3287247 L3.0046086,19.5037668 L10.257,12.25 L5.81865681e-13,12.25 L5.81937119e-13,11.0833333 L10.258,11.083 L3.0046086,3.82956651 L3.82956651,3.0046086 L11.083,10.258 L11.0833333,0 L12.25,0 Z" fill="#4A4A4A" mask="url(#mask-2)"></path>
                    </g>
                </g>
            </g>
        </g>
    </g>
</svg>