<?xml version="1.0" encoding="UTF-8"?>
<svg width="28px" height="30px" viewBox="0 0 28 30" version="1.1" xmlns="http://www.w3.org/2000/svg" xmlns:xlink="http://www.w3.org/1999/xlink">
    <title>EBF4FFA3-AE13-4AE1-947C-E1E9135EF092</title>
    <g id="Welcome" stroke="none" stroke-width="1" fill="none" fill-rule="evenodd">
        <g id="Marchand-/-Gestion-des-menus" transform="translate(-1176.000000, -432.000000)" fill="#1A7EF5" fill-rule="nonzero">
            <g id="Group-3" transform="translate(119.000000, 257.000000)">
                <g id="Group-22" transform="translate(71.000000, 154.500000)">
                    <g id="Group-7" transform="translate(940.000000, 0.500000)">
                        <g id="Group-14" transform="translate(19.500000, 20.000000)">
                            <g id="arrow-/-chevron_big_left-copy-2" transform="translate(27.000000, 0.000000)">
                                <path d="M13.5,1.12087912 C19.3931202,1.12087912 24.1875,5.81389646 24.1875,11.5824247 C24.1875,14.3846245 22.453126,17.9831826 19.0325807,22.2776471 C17.4654662,24.2400874 15.7683722,26.0996616 13.9522557,27.8443637 C13.6992854,28.0811828 13.3007146,28.0811828 13.0477443,27.8443637 C11.2316278,26.0996616 9.5345338,24.2400874 7.96741932,22.2776471 C4.54687404,17.9831826 2.8125,14.3846245 2.8125,11.5824247 C2.8125,5.81389646 7.60687978,1.12087912 13.5,1.12087912 Z M13.5,4.10989215 C9.29043367,4.10989215 5.86607143,7.46185677 5.86607143,11.5824247 C5.86607143,15.7029927 9.29043367,19.0549573 13.5,19.0549573 C17.7095663,19.0549573 21.1339286,15.7029927 21.1339286,11.5824247 C21.1339286,7.46185677 17.7095663,4.10989215 13.5,4.10989215 Z M13.0913592,6.87101974 C13.3230691,6.67669305 13.6769309,6.67669305 13.9086408,6.87101974 L13.9086408,6.87101974 L18.3635947,10.6072902 C18.5775839,10.7868102 18.6248018,11.0805807 18.4764872,11.3096624 C18.36104,11.4817358 18.1561661,11.585281 17.9368303,11.5824101 L17.9368303,11.5824101 L17.3474602,11.5824101 L17.3474602,15.1318671 C17.3474602,15.4413899 17.075476,15.6923077 16.7399665,15.6923077 L16.7399665,15.6923077 L15.3224811,15.6923077 C14.9869716,15.6923077 14.7149874,15.4413899 14.7149874,15.1318671 L14.7149874,15.1318671 L14.7149874,13.0769183 C14.7149874,12.7673956 14.4430032,12.5164778 14.1074937,12.5164778 L14.1074937,12.5164778 L12.8925063,12.5164778 C12.5569968,12.5164778 12.2850126,12.7673956 12.2850126,13.0769183 L12.2850126,13.0769183 L12.2850126,15.1318671 C12.2850126,15.4413899 12.0130284,15.6923077 11.6775189,15.6923077 L11.6775189,15.6923077 L10.2600335,15.6923077 C9.92452402,15.6923077 9.65253982,15.4413899 9.65253982,15.1318671 L9.65253982,15.1318671 L9.65253982,11.5824101 L9.06316967,11.5824101 C8.84383394,11.585281 8.63895995,11.4817358 8.52351276,11.3096624 C8.37519823,11.0805807 8.42241611,10.7868102 8.63640534,10.6072902 L8.63640534,10.6072902 Z" id="Combined-Shape"></path>
                            </g>
                        </g>
                    </g>
                </g>
            </g>
        </g>
    </g>
</svg>