<svg xmlns="http://www.w3.org/2000/svg" width="69" height="69" viewBox="0 0 69 69"><g fill="none" fill-rule="evenodd"><rect width="69" height="69" fill="#FFF" rx="6"/><g fill="#191970" fill-rule="nonzero" transform="translate(15.607 13.964)"><path d="M37.6576893,33.9675153 L36.2612919,26.0050328 C36.0066768,24.5531738 34.7585524,23.4995152 33.293519,23.4995152 L32.7669902,23.4995152 L32.2375916,19.4075335 C32.434173,19.2607352 32.6149705,19.089631 32.774085,18.8946219 C33.3488424,18.1902309 33.5773104,17.2735038 33.4009771,16.3794782 L32.760852,13.14021 C32.6964409,12.8143659 32.3816397,12.6025914 32.0578305,12.6674874 C31.7340212,12.7323033 31.5236489,13.0490025 31.58806,13.3748465 L32.2281851,16.6138742 C32.3345271,17.1531773 32.196697,17.7061175 31.8499293,18.1311105 C31.5031617,18.5561035 30.9909819,18.7998047 30.4446037,18.7998047 L7.34111061,18.7998047 C6.79473237,18.7998047 6.28255259,18.5561035 5.93578496,18.1311105 C5.58901733,17.7061175 5.45118716,17.1531773 5.55752923,16.6140346 L7.01395329,9.23962751 C7.18263382,8.38611189 7.93244907,7.76667132 8.79673749,7.76667132 L28.9889768,7.76667132 C29.8532652,7.76667132 30.6030805,8.3861921 30.771761,9.23938686 L31.0443921,10.6215367 C31.1086438,10.9473807 31.4231261,11.1590751 31.7471745,11.0944999 C32.0710634,11.0297642 32.2815155,10.7131452 32.2171841,10.3873012 L31.944553,9.00491071 C31.7026926,7.78111049 30.7396352,6.84817941 29.5565597,6.61851632 L29.5565597,2.22226911 C29.5566394,0.996944754 28.5659203,0 27.348168,0 L23.1608094,0 C21.9431368,0 20.9524177,0.996944754 20.9524177,2.22226911 L20.9524177,6.56340681 L16.8329777,6.56340681 L16.8329777,2.22202846 C16.8329777,0.996784319 15.842418,0 14.6248252,0 L10.4373071,0 C9.21971429,0 8.22915461,0.996784319 8.22915461,2.22202846 L8.22915461,2.47952706 C8.22915461,2.81186872 8.49684328,3.08115932 8.82702984,3.08115932 C9.1572164,3.08115932 9.42490506,2.81186872 9.42490506,2.47952706 L9.42490506,2.22202846 C9.42490506,1.66026437 9.87905108,1.20326451 10.4373071,1.20326451 L14.6248252,1.20326451 C15.1830812,1.20326451 15.6372272,1.66026437 15.6372272,2.22202846 L15.6372272,6.56340681 L9.42490506,6.56340681 L9.42490506,5.28714425 C9.42490506,4.95480259 9.1572164,4.685512 8.82702984,4.685512 C8.49684328,4.685512 8.22915461,4.95480259 8.22915461,5.28714425 L8.22915461,6.61851632 C7.04607911,6.84817941 6.0830217,7.78119071 5.84116124,9.00499093 L4.38465747,16.3796387 C4.20832414,17.2735038 4.43679219,18.1901507 5.01154958,18.8946219 C5.1706641,19.0897112 5.35146157,19.2607352 5.54804295,19.4075335 L5.01864436,23.4995152 L4.49211558,23.4995152 C3.02708213,23.4995152 1.77887809,24.553254 1.52434268,26.0050328 L0.127945298,33.9675153 C-0.0687955093,35.0891183 0.235642556,36.2328613 0.963137131,37.1053885 C1.69055199,37.9779157 2.75692224,38.4783133 3.8887399,38.4783133 L4.22307173,38.4783133 C4.44484358,38.8506034 4.71364828,39.1978655 5.02661603,39.5125593 C6.02474879,40.5178467 7.35235066,41.0714286 8.76501025,41.0714286 L29.0207838,41.0714286 C30.945942,41.0714286 32.6335445,40.0302037 33.5580987,38.4783936 L33.8968947,38.4783936 C35.0287123,38.4783936 36.0950826,37.977996 36.8224974,37.1054688 C37.549992,36.2329415 37.8544301,35.0891985 37.6576893,33.9675153 Z M22.1480885,2.22226911 C22.1480885,1.66034459 22.6023939,1.20326451 23.1607297,1.20326451 L27.3480883,1.20326451 C27.9065038,1.20326451 28.3608092,1.66034459 28.3608092,2.22226911 L28.3608092,6.56340681 L22.1480885,6.56340681 L22.1480885,2.22226911 Z M1.87924141,36.3320905 C1.37949744,35.7327044 1.17040054,34.9470529 1.30552034,34.1767229 L2.70191772,26.2142404 C2.8555318,25.3384242 3.608456,24.7027797 4.4921953,24.7027797 L4.86303737,24.7027797 L3.52268083,35.0636091 C3.49302622,35.2885393 3.47803948,35.519887 3.47803948,35.7512347 C3.47803948,36.2720878 3.55265431,36.7813093 3.6953472,37.2670271 C2.99089075,37.215046 2.33721383,36.8813407 1.87924141,36.3320905 L1.87924141,36.3320905 Z M29.020704,39.8681641 L8.76501025,39.8681641 C7.67201462,39.8681641 6.64478526,39.4398821 5.87225075,38.6617711 C5.09939738,37.8847831 4.67378993,36.8511789 4.67378993,35.7513149 C4.67378993,35.57259 4.68534885,35.3945068 4.70830726,35.2203544 L6.68623794,19.9310338 C6.89900181,19.9784424 7.11830244,20.0031494 7.34119033,20.0031494 L30.4446834,20.0031494 C30.6674916,20.0031494 30.8868719,19.9784424 31.0996358,19.9310338 L33.0777259,35.2217983 C33.1005249,35.3945068 33.1120041,35.5726702 33.1120041,35.7513951 C33.1120041,38.0213937 31.2766068,39.8681641 29.020704,39.8681641 L29.020704,39.8681641 Z M35.9064729,36.3320905 C35.4479424,36.8819824 34.7932292,37.2159284 34.0878162,37.2673479 C34.2301105,36.7866037 34.3077545,36.2780239 34.3077545,35.7513149 C34.3077545,35.519887 34.2927678,35.2885393 34.2632726,35.065053 L32.9226769,24.7027797 L33.293519,24.7027797 C34.1772583,24.7027797 34.9301825,25.3384242 35.0837966,26.2142404 L36.4801939,34.1767229 C36.615234,34.9470529 36.4061371,35.7327044 35.9064729,36.3320905 L35.9064729,36.3320905 Z"/><path d="M30.7801313 28.1916853C30.638395 27.0871687 29.6970205 26.2544294 28.5903933 26.2544294L14.1568882 26.2544294C13.8267016 26.2544294 13.559013 26.52372 13.559013 26.8560617 13.559013 27.1884033 13.8267016 27.4576939 14.1568882 27.4576939L28.5903933 27.4576939C29.0977104 27.4576939 29.5292168 27.8395299 29.594186 28.3459438L30.5224869 35.5578299C30.530618 35.6187151 30.5346835 35.6837716 30.5346835 35.7513149 30.5346835 36.5913539 29.855577 37.2746477 29.0208635 37.2746477L8.76485081 37.2746477C7.93013728 37.2746477 7.25103074 36.5912737 7.25103074 35.7513149 7.25103074 35.6837716 7.25517601 35.6187151 7.26362598 35.5550223L8.19152833 28.3457031C8.25649744 27.8394496 8.68808363 27.4576939 9.19532098 27.4576939L11.3668038 27.4576939C11.6969904 27.4576939 11.964679 27.1884033 11.964679 26.8560617 11.964679 26.52372 11.6969904 26.2544294 11.3668038 26.2544294L9.19532098 26.2544294C8.08869379 26.2544294 7.14731932 27.0872489 7.00566275 28.1914446L6.07815898 35.3977155C6.06301281 35.5114641 6.05528029 35.6304269 6.05528029 35.7513149 6.05528029 37.2547538 7.27080048 38.4779122 8.76485081 38.4779122L29.0208635 38.4779122C30.5149138 38.4779122 31.730434 37.2547538 31.730434 35.7513149 31.730434 35.6304269 31.7227015 35.5114641 31.7079539 35.4005232L30.7801313 28.1916853ZM14.8665262 10.0886509C14.092796 10.0886509 13.4633529 10.7220494 13.4633529 11.5006417L13.4633529 15.0660749C13.4633529 15.8445871 14.092796 16.4780657 14.8665262 16.4780657L22.9192678 16.4780657C23.692998 16.4780657 24.3224411 15.8446673 24.3224411 15.0660749L24.3224411 11.5006417C24.3224411 10.7221296 23.692998 10.0886509 22.9192678 10.0886509L14.8665262 10.0886509ZM23.1266109 11.5005615 23.1266109 15.0659947C23.1266109 15.181107 23.0335815 15.274721 22.9191881 15.274721L14.8665262 15.274721C14.7521328 15.274721 14.6591034 15.181107 14.6591034 15.0659947L14.6591034 11.5005615C14.6591034 11.3854492 14.7521328 11.2918352 14.8665262 11.2918352L22.9192678 11.2918352C23.0335815 11.2919155 23.1266109 11.3855294 23.1266109 11.5005615Z"/><path d="M24.3686768,31.9956857 C24.6988633,31.9956857 24.966552,31.7263951 24.966552,31.3940534 L24.966552,30.3750488 L26.1403006,30.3750488 C26.4704872,30.3750488 26.7381759,30.1057582 26.7381759,29.7734166 C26.7381759,29.4410749 26.4704872,29.1717843 26.1403006,29.1717843 L11.6454137,29.1717843 C11.3152271,29.1717843 11.0475384,29.4410749 11.0475384,29.7734166 C11.0475384,30.1057582 11.3152271,30.3750488 11.6454137,30.3750488 L23.7707218,30.3750488 L23.7707218,31.3940534 C23.7708015,31.7263951 24.0384902,31.9956857 24.3686768,31.9956857 L24.3686768,31.9956857 Z"/></g></g></svg>