<?xml version="1.0" encoding="UTF-8"?>
<svg width="32px" height="20px" viewBox="0 0 32 20" version="1.1" xmlns="http://www.w3.org/2000/svg" xmlns:xlink="http://www.w3.org/1999/xlink">
    <title>EC029897-FDFA-4AD6-85C4-FD7D1A7F6099</title>
    <g id="Welcome" stroke="none" stroke-width="1" fill="none" fill-rule="evenodd">
        <g id="Marchand-/-Messagerie_Vue_2-/-Code_gestion" transform="translate(-701.000000, -181.000000)" fill="#1A7EF5" fill-rule="nonzero">
            <g id="Group-2" transform="translate(439.000000, 170.000000)">
                <g id="Group-6-Copy-11" transform="translate(243.500000, 5.500000)">
                    <g id="Icons/Chariot" transform="translate(19.000000, 5.500000)">
                        <g id="negociation-2" transform="translate(0.000000, 0.033832)">
                            <path d="M10.075597,12.93 L3.91252437,12.93 L3.91252437,11.1335928 L9.83345517,11.1335928 L9.83345517,9.35844311 L3.91252437,9.35844311 L3.91252437,7.56203593 L9.83345517,7.56203593 L9.83345517,4.08167665 L2.82888645,4.08167665 C1.26906676,4.08167665 0,5.32916168 0,6.86245509 L0,13.6497605 C0,15.1831138 1.26906676,16.4305389 2.82888645,16.4305389 L4.22392788,16.4305389 L6.87713207,19.9579042 L9.53033626,16.4305389 L13.6647783,16.4305389 C13.9163621,16.4305389 14.1602096,16.3976647 14.3925439,16.3368263 C12.4279362,16.207485 10.6945663,14.7756287 10.075597,12.93 Z" id="Path"></path>
                            <path d="M27.9865984,0 L14.8896199,0 C13.1093445,0 11.6609405,1.42371257 11.6609405,3.17365269 L11.6609405,4.08167665 L11.6609405,4.08167665 L11.6609405,7.56203593 L11.6609405,7.56203593 L11.6609405,9.35844311 L11.6609405,9.35844311 L11.6609405,11.1335928 L11.6609405,11.1335928 L11.6609405,11.3772455 C11.6609405,11.9410778 11.8120736,12.4705988 12.0754751,12.93 L12.0749878,12.93 C12.6194566,13.8646108 13.630848,14.551018 14.681713,14.551018 L16.3403996,14.551018 C16.3403996,14.551018 16.3403996,14.5509581 16.3404605,14.5508982 L19.9830044,14.5508982 L23.0936282,18.6864671 L26.2042519,14.5508982 L27.9865984,14.5508982 C29.7668738,14.5508982 31.2151559,13.1271856 31.2151559,11.3772455 L31.2151559,3.17365269 C31.2151559,1.42371257 29.7668129,0 27.9865984,0 Z M26.6769006,9.74083832 L16.1993177,9.74083832 L16.1993177,7.94443114 L26.6769006,7.94443114 L26.6769006,9.74083832 Z M26.6769006,6.14778443 L16.1993177,6.14778443 L16.1993177,4.35137725 L26.6769006,4.35137725 L26.6769006,6.14778443 Z" id="Shape"></path>
                        </g>
                    </g>
                </g>
            </g>
        </g>
    </g>
</svg>