<svg xmlns="http://www.w3.org/2000/svg" width="69" height="69" viewBox="0 0 69 69"><g fill="none" fill-rule="evenodd"><rect width="69" height="69" fill="#FFF" rx="6"/><g fill="#191970" fill-rule="nonzero" transform="translate(13.636 13.964)"><g transform="translate(0 13.605)"><path d="M41.05579,3.61677697 C38.2268259,3.61677697 35.3978617,3.61677697 32.5688975,3.61677697 C26.8572547,3.61677697 21.1366595,3.61677697 15.4250166,3.61677697 C10.9935696,3.61677697 6.55317015,3.61677697 2.12172312,3.61677697 C1.63829254,3.61677697 1.15486195,3.61677697 0.671431368,3.61677697 C0.895241823,3.84058742 1.11905228,4.06439788 1.34286274,4.28820833 C1.34286274,3.07963187 1.34286274,1.88000783 1.34286274,0.671431368 C1.11905228,0.895241823 0.895241823,1.11905228 0.671431368,1.34286274 C3.50039553,1.34286274 6.32935969,1.34286274 9.15832385,1.34286274 C14.8699667,1.34286274 20.5905619,1.34286274 26.3022048,1.34286274 C30.7336518,1.34286274 35.1740512,1.34286274 39.6054983,1.34286274 C40.0889289,1.34286274 40.5723594,1.34286274 41.05579,1.34286274 C40.8319796,1.11905228 40.6081691,0.895241823 40.3843587,0.671431368 C40.3843587,1.88000783 40.3843587,3.07963187 40.3843587,4.28820833 C40.3843587,5.1565929 41.7272214,5.1565929 41.7272214,4.28820833 C41.7272214,3.07963187 41.7272214,1.88000783 41.7272214,0.671431368 C41.7272214,0.30438222 41.4228392,-2.5444303e-15 41.05579,-2.5444303e-15 C38.2268259,-2.5444303e-15 35.3978617,-2.5444303e-15 32.5688975,-2.5444303e-15 C26.8572547,-2.5444303e-15 21.1366595,-2.5444303e-15 15.4250166,-2.5444303e-15 C10.9935696,-2.5444303e-15 6.55317015,-2.5444303e-15 2.12172312,-2.5444303e-15 C1.63829254,-2.5444303e-15 1.15486195,-2.5444303e-15 0.671431368,-2.5444303e-15 C0.30438222,-2.5444303e-15 -9.54161362e-16,0.30438222 -9.54161362e-16,0.671431368 C-9.54161362e-16,1.88000783 -9.54161362e-16,3.07963187 -9.54161362e-16,4.28820833 C-9.54161362e-16,4.65525748 0.30438222,4.9596397 0.671431368,4.9596397 C3.50039553,4.9596397 6.32935969,4.9596397 9.15832385,4.9596397 C14.8699667,4.9596397 20.5905619,4.9596397 26.3022048,4.9596397 C30.7336518,4.9596397 35.1740512,4.9596397 39.6054983,4.9596397 C40.0889289,4.9596397 40.5723594,4.9596397 41.05579,4.9596397 C41.9241746,4.9596397 41.9241746,3.61677697 41.05579,3.61677697 Z"/><path d="M37.0272018,1.35181515 C38.3700646,1.35181515 39.7129273,1.35181515 41.05579,1.35181515 C40.8319796,1.1280047 40.6081691,0.904194242 40.3843587,0.680383786 C40.3843587,4.18973173 40.3843587,7.69907968 40.3843587,11.21738 C40.3843587,16.1949246 40.3843587,21.1724691 40.3843587,26.1589661 C40.3843587,26.3738241 40.3843587,26.5886822 40.3843587,26.7945878 C40.6081691,26.5707773 40.8319796,26.3469669 41.05579,26.1231564 C39.7129273,26.1231564 38.3700646,26.1231564 37.0272018,26.1231564 C37.2510123,26.3469669 37.4748227,26.5707773 37.6986332,26.7945878 C37.6986332,22.7033326 37.6986332,18.6120775 37.6986332,14.5208224 C37.6986332,11.109951 37.6986332,7.7080321 37.6986332,4.29716075 C37.6986332,3.42877618 36.3557705,3.42877618 36.3557705,4.29716075 C36.3557705,8.38841589 36.3557705,12.479671 36.3557705,16.5709262 C36.3557705,19.9817975 36.3557705,23.3837164 36.3557705,26.7945878 C36.3557705,27.1616369 36.6601527,27.4660191 37.0272018,27.4660191 C38.3700646,27.4660191 39.7129273,27.4660191 41.05579,27.4660191 C41.4228392,27.4660191 41.7272214,27.1616369 41.7272214,26.7945878 C41.7272214,22.7033326 41.7272214,18.6120775 41.7272214,14.5208224 C41.7272214,10.7339495 41.7272214,6.93812413 41.7272214,3.15125122 C41.7272214,2.32762874 41.7272214,1.51295868 41.7272214,0.689336204 C41.7272214,0.322287056 41.4228392,0.0178602725 41.05579,0.0178602725 C39.7129273,0.0178602725 38.3700646,0.0178602725 37.0272018,0.0178602725 C36.1677697,0.00895241823 36.1677697,1.35181515 37.0272018,1.35181515 L37.0272018,1.35181515 Z"/></g><path d="M15.3086352,22.844305 C10.8771882,22.844305 6.44574113,22.844305 2.0142941,22.844305 C1.56667319,22.844305 1.11905228,22.844305 0.671431368,22.844305 C0.895241823,23.0681155 1.11905228,23.291926 1.34286274,23.5157364 C1.34286274,21.644681 1.34286274,19.7736256 1.34286274,17.9025702 C1.11905228,18.1263806 0.895241823,18.3501911 0.671431368,18.5740015 C5.10287839,18.5740015 9.53432542,18.5740015 13.9657724,18.5740015 C14.4133934,18.5740015 14.8610143,18.5740015 15.3086352,18.5740015 C15.0848247,18.3501911 14.8610143,18.1263806 14.6372038,17.9025702 C14.6372038,19.7736256 14.6372038,21.644681 14.6372038,23.5157364 C14.6372038,24.384121 15.9800665,24.384121 15.9800665,23.5157364 C15.9800665,21.644681 15.9800665,19.7736256 15.9800665,17.9025702 C15.9800665,17.535521 15.6756843,17.2311388 15.3086352,17.2311388 C10.8771882,17.2311388 6.44574113,17.2311388 2.0142941,17.2311388 C1.56667319,17.2311388 1.11905228,17.2311388 0.671431368,17.2311388 C0.30438222,17.2311388 5.0888606e-15,17.535521 5.0888606e-15,17.9025702 C5.0888606e-15,19.7736256 5.0888606e-15,21.644681 5.0888606e-15,23.5157364 C5.0888606e-15,23.8827856 0.30438222,24.1871678 0.671431368,24.1871678 C5.10287839,24.1871678 9.53432542,24.1871678 13.9657724,24.1871678 C14.4133934,24.1871678 14.8610143,24.1871678 15.3086352,24.1871678 C16.1770198,24.1871678 16.1770198,22.844305 15.3086352,22.844305 Z"/><path d="M15.3086352,28.4843285 C10.8771882,28.4843285 6.44574113,28.4843285 2.0142941,28.4843285 C1.56667319,28.4843285 1.11905228,28.4843285 0.671431368,28.4843285 C0.895241823,28.708139 1.11905228,28.9319494 1.34286274,29.1557599 C1.34286274,27.2847045 1.34286274,25.4136491 1.34286274,23.5425937 C1.11905228,23.7664041 0.895241823,23.9902146 0.671431368,24.214025 C5.10287839,24.214025 9.53432542,24.214025 13.9657724,24.214025 C14.4133934,24.214025 14.8610143,24.214025 15.3086352,24.214025 C15.0848247,23.9902146 14.8610143,23.7664041 14.6372038,23.5425937 C14.6372038,25.4136491 14.6372038,27.2847045 14.6372038,29.1557599 C14.6372038,30.0241445 15.9800665,30.0241445 15.9800665,29.1557599 C15.9800665,27.2847045 15.9800665,25.4136491 15.9800665,23.5425937 C15.9800665,23.1755445 15.6756843,22.8711623 15.3086352,22.8711623 C10.8771882,22.8711623 6.44574113,22.8711623 2.0142941,22.8711623 C1.56667319,22.8711623 1.11905228,22.8711623 0.671431368,22.8711623 C0.30438222,22.8711623 5.0888606e-15,23.1755445 5.0888606e-15,23.5425937 C5.0888606e-15,25.4136491 5.0888606e-15,27.2847045 5.0888606e-15,29.1557599 C5.0888606e-15,29.522809 0.30438222,29.8271913 0.671431368,29.8271913 C5.10287839,29.8271913 9.53432542,29.8271913 13.9657724,29.8271913 C14.4133934,29.8271913 14.8610143,29.8271913 15.3086352,29.8271913 C16.1770198,29.8271913 16.1770198,28.4843285 15.3086352,28.4843285 Z"/><path d="M15.3086352,34.1064472 C10.8771882,34.1064472 6.44574113,34.1064472 2.0142941,34.1064472 C1.56667319,34.1064472 1.11905228,34.1064472 0.671431368,34.1064472 C0.895241823,34.3302576 1.11905228,34.5540681 1.34286274,34.7778786 C1.34286274,32.9068231 1.34286274,31.0357677 1.34286274,29.1647123 C1.11905228,29.3885228 0.895241823,29.6123332 0.671431368,29.8361437 C5.10287839,29.8361437 9.53432542,29.8361437 13.9657724,29.8361437 C14.4133934,29.8361437 14.8610143,29.8361437 15.3086352,29.8361437 C15.0848247,29.6123332 14.8610143,29.3885228 14.6372038,29.1647123 C14.6372038,31.0357677 14.6372038,32.9068231 14.6372038,34.7778786 C14.6372038,35.6462631 15.9800665,35.6462631 15.9800665,34.7778786 C15.9800665,32.9068231 15.9800665,31.0357677 15.9800665,29.1647123 C15.9800665,28.7976632 15.6756843,28.493281 15.3086352,28.493281 C10.8771882,28.493281 6.44574113,28.493281 2.0142941,28.493281 C1.56667319,28.493281 1.11905228,28.493281 0.671431368,28.493281 C0.30438222,28.493281 5.0888606e-15,28.7976632 5.0888606e-15,29.1647123 C5.0888606e-15,31.0357677 5.0888606e-15,32.9068231 5.0888606e-15,34.7778786 C5.0888606e-15,35.1449277 0.30438222,35.4493099 0.671431368,35.4493099 C5.10287839,35.4493099 9.53432542,35.4493099 13.9657724,35.4493099 C14.4133934,35.4493099 14.8610143,35.4493099 15.3086352,35.4493099 C16.1770198,35.4493099 16.1770198,34.1064472 15.3086352,34.1064472 Z"/><path d="M15.3086352 39.7196134C10.8771882 39.7196134 6.44574113 39.7196134 2.0142941 39.7196134 1.56667319 39.7196134 1.11905228 39.7196134.671431368 39.7196134.895241823 39.9434239 1.11905228 40.1672343 1.34286274 40.3910448 1.34286274 38.5199894 1.34286274 36.648934 1.34286274 34.7778786 1.11905228 35.001689.895241823 35.2254995.671431368 35.4493099 5.10287839 35.4493099 9.53432542 35.4493099 13.9657724 35.4493099 14.4133934 35.4493099 14.8610143 35.4493099 15.3086352 35.4493099 15.0848247 35.2254995 14.8610143 35.001689 14.6372038 34.7778786 14.6372038 36.648934 14.6372038 38.5199894 14.6372038 40.3910448 14.6372038 41.2594294 15.9800665 41.2594294 15.9800665 40.3910448 15.9800665 38.5199894 15.9800665 36.648934 15.9800665 34.7778786 15.9800665 34.4108294 15.6756843 34.1064472 15.3086352 34.1064472 10.8771882 34.1064472 6.44574113 34.1064472 2.0142941 34.1064472 1.56667319 34.1064472 1.11905228 34.1064472.671431368 34.1064472.30438222 34.1064472 5.0888606e-15 34.4108294 5.0888606e-15 34.7778786 5.0888606e-15 36.648934 5.0888606e-15 38.5199894 5.0888606e-15 40.3910448 5.0888606e-15 40.7580939.30438222 41.0624762.671431368 41.0624762 5.10287839 41.0624762 9.53432542 41.0624762 13.9657724 41.0624762 14.4133934 41.0624762 14.8610143 41.0624762 15.3086352 41.0624762 16.1770198 41.0624762 16.1770198 39.7196134 15.3086352 39.7196134ZM6.45469355 21.3761085C7.47526923 21.3761085 8.50479732 21.3761085 9.525373 21.3761085 10.3937576 21.3761085 10.3937576 20.0332457 9.525373 20.0332457 8.50479732 20.0332457 7.47526923 20.0332457 6.45469355 20.0332457 5.5952614 20.0332457 5.5952614 21.3761085 6.45469355 21.3761085L6.45469355 21.3761085ZM6.45469355 27.0250844C7.47526923 27.0250844 8.50479732 27.0250844 9.525373 27.0250844 10.3937576 27.0250844 10.3937576 25.6822216 9.525373 25.6822216 8.50479732 25.6822216 7.47526923 25.6822216 6.45469355 25.6822216 5.5952614 25.6822216 5.5952614 27.0250844 6.45469355 27.0250844L6.45469355 27.0250844ZM6.45469355 32.6382506C7.47526923 32.6382506 8.50479732 32.6382506 9.525373 32.6382506 10.3937576 32.6382506 10.3937576 31.2953879 9.525373 31.2953879 8.50479732 31.2953879 7.47526923 31.2953879 6.45469355 31.2953879 5.5952614 31.2953879 5.5952614 32.6382506 6.45469355 32.6382506L6.45469355 32.6382506Z"/><path d="M6.45469355 38.2603692C7.47526923 38.2603692 8.50479732 38.2603692 9.525373 38.2603692 10.3937576 38.2603692 10.3937576 36.9175065 9.525373 36.9175065 8.50479732 36.9175065 7.47526923 36.9175065 6.45469355 36.9175065 5.5952614 36.9175065 5.5952614 38.2603692 6.45469355 38.2603692L6.45469355 38.2603692ZM4.24344624 14.2857932C4.24344624 12.2625467 4.24344624 10.2393002 4.24344624 8.21605365 4.24344624 6.90004817 4.24344624 5.57509027 4.24344624 4.25908479 4.24344624 3.56079617 4.10915997 2.67450676 4.47620912 2.04783749 5.27297434.669165078 7.33203053 1.42116821 7.33203053 2.90726964 7.33203053 3.77565421 8.67489327 3.77565421 8.67489327 2.90726964 8.67489327.66021266 6.23983551-.718459748 4.29716075.391640113 3.4377286.884023116 2.90058351 1.88669396 2.90058351 2.86250755 2.90058351 3.06841317 2.90058351 3.26536637 2.90058351 3.47127199 2.90058351 6.05852086 2.90058351 8.65472214 2.90058351 11.241971 2.90058351 12.2535943 2.90058351 13.27417 2.90058351 14.2857932 2.90058351 15.1452254 4.24344624 15.1452254 4.24344624 14.2857932L4.24344624 14.2857932Z"/><path d="M10.0983278,6.20175955 C8.70175052,6.20175955 7.29622086,6.20175955 5.89964362,6.20175955 C6.12345407,6.42557 6.34726453,6.64938046 6.57107498,6.87319092 C6.57107498,6.29128373 6.57107498,5.70937654 6.57107498,5.11851694 C6.57107498,4.27698963 7.12612491,3.58765342 8.0034619,3.56974859 C9.75813588,3.51603408 9.43584882,5.74518622 9.43584882,6.87319092 C9.43584882,7.74157548 10.7787116,7.74157548 10.7787116,6.87319092 C10.7787116,6.21071197 10.7966164,5.5392806 10.7787116,4.87680165 C10.7339495,3.3817478 9.45375366,2.27164794 8.01241432,2.22688585 C6.59793224,2.18212376 5.37145094,3.37279539 5.2550695,4.75146779 C5.19240258,5.44975642 5.23716467,6.16594987 5.23716467,6.87319092 C5.23716467,7.24024006 5.54154689,7.54462228 5.90859603,7.54462228 C7.30517328,7.54462228 8.71070294,7.54462228 10.1072802,7.54462228 C10.9577599,7.54462228 10.9577599,6.20175955 10.0983278,6.20175955 Z"/></g></g></svg>