<?xml version="1.0" encoding="UTF-8"?>
<svg width="21px" height="21px" viewBox="0 0 21 21" version="1.1" xmlns="http://www.w3.org/2000/svg" xmlns:xlink="http://www.w3.org/1999/xlink">
    <title>91EC8CD5-5F8B-4CD2-BBF3-A1BAE6D6C8E8</title>
    <g id="Welcome" stroke="none" stroke-width="1" fill="none" fill-rule="evenodd">
        <g id="Marchand-/-info-/-Boutique" transform="translate(-809.000000, -445.000000)" fill-rule="nonzero">
            <g id="Group-11" transform="translate(438.000000, 417.000000)">
                <g id="check" transform="translate(371.000000, 28.000000)">
                    <path d="M10.5,0.5 C13.2571106,0.5 15.7569903,1.62164789 17.5676712,3.4323288 C19.3783521,5.24300972 20.5,7.74288941 20.5,10.5 C20.5,13.2571106 19.3783521,15.7569903 17.5676712,17.5676712 C15.7569903,19.3783521 13.2571106,20.5 10.5,20.5 C7.74288941,20.5 5.24300972,19.3783521 3.4323288,17.5676712 C1.62164789,15.7569903 0.5,13.2571106 0.5,10.5 C0.5,7.74288941 1.62164789,5.24300972 3.4323288,3.4323288 C5.24300972,1.62164789 7.74288941,0.5 10.5,0.5 Z" id="Path" stroke="#00B517" fill="#FFFFFF"></path>
                    <path d="M15.1349695,8.45442173 L9.52692544,13.9916443 C9.35867939,14.1577703 9.13782683,14.2413793 8.91697423,14.2413793 C8.69612164,14.2413793 8.47526908,14.1577703 8.30702303,13.9916443 L5.50307999,11.223033 C5.16564,10.890001 5.16564,10.3515342 5.50307999,10.0185023 C5.84036197,9.68531427 6.38554241,9.68531427 6.7229824,10.0185023 L8.91697423,12.1848482 L13.9150671,7.249891 C14.2523491,6.916703 14.7975295,6.916703 15.1349695,7.249891 C15.4722515,7.58292297 15.4722515,8.12123373 15.1349695,8.45442173 Z" id="Path" fill="#00B517"></path>
                </g>
            </g>
        </g>
    </g>
</svg>