<?xml version="1.0" encoding="UTF-8"?>
<svg width="76px" height="75px" viewBox="0 0 76 75" version="1.1" xmlns="http://www.w3.org/2000/svg" xmlns:xlink="http://www.w3.org/1999/xlink">
    <title>1F1DABAD-9C3C-4DC5-A5AE-97FC40F6E824</title>
    <g id="Welcome" stroke="none" stroke-width="1" fill="none" fill-rule="evenodd">
        <g id="Formulaire_de_vente" transform="translate(-193.000000, -2390.000000)" fill="#D8D8D8" fill-rule="nonzero">
            <g id="Group-9" transform="translate(76.000000, 1954.000000)">
                <g id="Group-5" transform="translate(0.000000, 401.000000)">
                    <g id="image_off_outline_icon_139448" transform="translate(117.500000, 35.000000)">
                        <path d="M75,70.125 L4.875,0 L0,4.875 L3.75,8.625 L3.75,63.75 C3.75,67.875 7.125,71.25 11.25,71.25 L66.375,71.25 L70.125,75 L75,70.125 M11.25,63.75 L11.25,16.125 L39.75,44.625 L34.125,51.75 L26.25,41.625 L15,56.25 L51.375,56.25 L58.875,63.75 L11.25,63.75 M25.5,11.25 L18,3.75 L63.75,3.75 C67.875,3.75 71.25,7.125 71.25,11.25 L71.25,57 L63.75,49.5 L63.75,11.25 L25.5,11.25" id="Shape"></path>
                    </g>
                </g>
            </g>
        </g>
    </g>
</svg>