<?xml version="1.0" encoding="UTF-8"?>
<svg width="12px" height="12px" viewBox="0 0 12 12" version="1.1" xmlns="http://www.w3.org/2000/svg" xmlns:xlink="http://www.w3.org/1999/xlink">
    <title>4FD996FD-B776-4187-B5E2-9CDA3B708A5F</title>
    <g id="Welcome" stroke="none" stroke-width="1" fill="none" fill-rule="evenodd">
        <g id="Marchand-/-Messageri_Vue-1-/-Detail_produit" transform="translate(-425.000000, -503.000000)" fill="#1A7EF5" fill-rule="nonzero">
            <g id="Receive-money-from-Alex-Hartman-Copy-9" transform="translate(111.000000, 420.000000)">
                <g id="Icons/Ouvert-Copy" transform="translate(314.000000, 83.000000)">
                    <path d="M0.0303046283,5.85535283 C2.3307142,1.08840902 9.64992646,1.06391688 11.9696954,5.85535283 C12.0101015,5.94626672 12.0101015,6.05000089 11.9696954,6.14093821 C9.66675456,10.9108351 2.34944072,10.9313664 0.0303046283,6.14093821 C-0.0101015428,6.05002433 -0.0101015428,5.94626672 0.0303046283,5.85535283 Z M9.03750579,5.99815724 C8.87128736,1.9696573 3.12936889,1.96848543 2.96251765,5.99813381 C2.96251765,7.67302116 4.32512436,9.03562787 6.00001172,9.03562787 C7.67489907,9.03562787 9.03750579,7.67302116 9.03750579,5.99815724 Z M3.06650964,3.67984146 C1.90633221,4.3161449 1.13800559,5.27309616 0.745568856,5.99815724 C1.13662278,6.72066364 1.90410566,7.67890396 3.06650964,8.31640271 C1.99951953,7.02858492 1.99933203,4.96791707 3.06650964,3.67984146 Z M8.9335138,3.6798649 C10.0005039,4.96768269 10.0006914,7.02835054 8.9335138,8.31642615 C10.0936912,7.68012271 10.8620178,6.72317145 11.2544546,5.99813381 C10.8633772,5.2756274 10.0959178,4.31736365 8.9335138,3.6798649 Z M6.00001172,4.5168867 C6.81678356,4.5168867 7.48128226,5.18136196 7.48128226,5.99813381 C7.40018867,7.96263778 4.60013945,7.96322372 4.51876461,5.99813381 C4.51876461,5.1813854 5.18323988,4.5168867 6.00001172,4.5168867 Z M6.7781352,5.99813381 C6.73554934,4.96613582 5.26463816,4.96583113 5.22188824,5.99813381 C5.22188824,6.42717984 5.57094224,6.77625729 6.00001172,6.77625729 C6.42908119,6.77625729 6.7781352,6.42720328 6.7781352,5.99813381 Z M6.00001172,1.45438487 C6.19416759,1.45438487 6.35157353,1.29697892 6.35157353,1.10282305 L6.35157353,0.349707337 C6.33298763,-0.116744877 5.66684831,-0.116393315 5.64844991,0.349707337 L5.64844991,1.10282305 C5.64844991,1.29697892 5.80585585,1.45438487 6.00001172,1.45438487 Z M6.00001172,10.5418827 C5.80585585,10.5418827 5.64844991,10.6992887 5.64844991,10.8934446 L5.64844991,11.6465603 C5.66703581,12.1130125 6.33317513,12.1126609 6.35157353,11.6465603 L6.35157353,10.8934446 C6.35157353,10.6992887 6.19416759,10.5418827 6.00001172,10.5418827 Z M1.60923904,2.10456328 C1.74651221,2.24183645 1.96909772,2.24185989 2.10641776,2.10456328 C2.24369093,1.96726668 2.24369093,1.74468118 2.10641776,1.60738457 L1.57396568,1.07490905 C1.43669251,0.937635876 1.21408357,0.937612439 1.07678696,1.07490905 C0.93951379,1.21220565 0.93951379,1.43479116 1.07678696,1.57208776 L1.60923904,2.10456328 Z M1.60923904,9.89172776 L1.07678696,10.4241798 C0.939490353,10.5614765 0.939490353,10.784062 1.07678696,10.9213586 C1.21403669,11.0586317 1.43666907,11.0586786 1.57396568,10.9213586 L2.10641776,10.3889065 C2.24371437,10.2516099 2.24371437,10.0290244 2.10641776,9.89172776 C1.96914459,9.75443116 1.74653565,9.75443116 1.60923904,9.89172776 Z M10.3907844,2.10456328 L10.9232365,1.5721112 C11.0605331,1.43481459 11.0605331,1.21222909 10.9232365,1.07493248 C10.7859399,0.937635876 10.5633544,0.937659314 10.4260578,1.07493248 L9.89360568,1.60736113 C9.75630907,1.74465774 9.75630907,1.96724324 9.89360568,2.10453985 C10.0311132,2.24204739 10.2536753,2.24162552 10.3907844,2.10456328 Z M10.3907844,9.89172776 C10.2535112,9.75443116 10.0309023,9.75443116 9.89360568,9.89172776 C9.75630907,10.0290244 9.75630907,10.2516099 9.89360568,10.3889065 L10.4260578,10.9213586 C10.5633075,11.0586317 10.7859399,11.0586786 10.9232365,10.9213586 C11.0605331,10.784062 11.0605331,10.5614765 10.9232365,10.4241798 L10.3907844,9.89172776 Z" id="Combined-Shape"></path>
                </g>
            </g>
        </g>
    </g>
</svg>