<?xml version="1.0" encoding="UTF-8"?>
<svg width="26px" height="27px" viewBox="0 0 26 27" version="1.1" xmlns="http://www.w3.org/2000/svg" xmlns:xlink="http://www.w3.org/1999/xlink">
    <title>8983A18E-1293-4A1C-9C30-3E4E17ED956E</title>
    <g id="Welcome" stroke="none" stroke-width="1" fill="none" fill-rule="evenodd">
        <g id="Assets-2" transform="translate(-717.000000, -902.000000)">
            <g id="Bouton/Formulaire_Long1_Base-Copy-3" transform="translate(707.000000, 895.000000)">
                <g id="Icons/Fermés" transform="translate(10.000000, 7.500000)">
                    <circle id="Oval" stroke="#00B517" cx="13" cy="13" r="12.5"></circle>
                    <g id="phone_icon_172953" transform="translate(5.379310, 4.482759)" fill="#00B517" fill-rule="nonzero">
                        <path d="M11.7112834,16.137931 C5.25367924,16.137931 0,10.8842486 0,4.42664066 C0.0022686519,2.1855127 1.66754956,0.294242188 3.89036462,0.00832790987 C4.39983943,-0.0529589143 4.88881117,0.228659953 5.09147055,0.700094039 L6.74843735,4.56629862 C6.90122985,4.92170859 6.86547247,5.33007464 6.65323781,5.65352204 L5.28122468,7.74991889 C5.24967975,7.79578875 5.24445413,7.8548264 5.26745155,7.905524 L5.26745155,7.90560647 C5.90409625,9.20434315 6.95713028,10.2526143 8.2587393,10.8833645 C8.30975478,10.9061716 8.36900356,10.9004823 8.41474679,10.868384 L10.4794914,9.49153705 C10.8039334,9.27435967 11.2163581,9.23648598 11.5749277,9.39094118 L15.4377469,11.0464591 C15.9092509,11.2490488 16.1909244,11.7380588 16.1295935,12.2475657 C15.8436786,14.4703815 13.9524094,16.1356625 11.7112834,16.137931 Z M4.0331631,0.989075077 C4.02688846,0.989075077 4.02062042,0.989482222 4.01439701,0.990282495 C2.28587465,1.21288338 0.99112337,2.68384341 0.989685918,4.42664066 C0.99635583,10.345254 5.79267357,15.1415746 11.7112834,15.1482445 C13.4540789,15.1468062 14.9250371,13.8520544 15.1476378,12.1235316 C15.1551903,12.0517615 15.1145633,11.9835927 15.0478445,11.9560866 L11.1851061,10.3005687 C11.1338317,10.2786133 11.0749377,10.284036 11.0285345,10.3149851 L8.96387402,11.691832 C8.62643965,11.9175609 8.19510209,11.9490156 7.82848984,11.7746284 C6.32713729,11.0470579 5.11249828,9.83791741 4.37812308,8.33988091 C4.20296602,7.97551661 4.23141683,7.54603449 4.45310663,7.20795913 L5.82511977,5.11147981 C5.8554645,5.06523576 5.86057588,5.00684956 5.83872795,4.95603634 L4.18184197,1.08999506 C4.15670765,1.02982548 4.09836122,0.990221196 4.0331631,0.989075077 Z" id="Shape"></path>
                    </g>
                </g>
            </g>
        </g>
    </g>
</svg>