<svg xmlns="http://www.w3.org/2000/svg" width="30" height="20" viewBox="0 0 21 14"><path fill="#9B9B9B" d="M18.3333333,0 C19.2533796,0.00103330928 19.9989667,0.746620434 20,1.66666667 L20,1.66666667 L20,11.6666667 C19.9989667,12.5867129 19.2533796,13.3323 18.3333333,13.3333333 L18.3333333,13.3333333 L1.66666667,13.3333333 C0.746620434,13.3323 0.00103330928,12.5867129 0,11.6666667 L0,11.6666667 L0,1.66666667 C0.00103330928,0.746620434 0.746620434,0.00103330928 1.66666667,0 L1.66666667,0 Z M18.3333333,0.666666667 L1.66666667,0.666666667 C1.11464843,0.667309564 0.667309564,1.11464843 0.666666667,1.66666667 L0.666666667,1.66666667 L0.666666667,11.6666667 C0.667309564,12.2186849 1.11464843,12.6660238 1.66666667,12.6666667 L1.66666667,12.6666667 L18.3333333,12.6666667 C18.8853516,12.6660238 19.3326904,12.2186849 19.3333333,11.6666667 L19.3333333,11.6666667 L19.3333333,1.66666667 C19.3326904,1.11464843 18.8853516,0.667309564 18.3333333,0.666666667 L18.3333333,0.666666667 Z M16.16625,8.89066667 C16.8666757,8.48548135 17.7569411,8.64193895 18.2772472,9.26165887 C18.7975534,9.8813788 18.7975534,10.7852879 18.2772472,11.4050078 C17.7569411,12.0247277 16.8666757,12.1811853 16.16625,11.776 C15.9132773,11.9229427 15.6258864,12.0002321 15.3333333,12 C14.6327393,12.0001684 14.006863,11.5620957 13.7671631,10.9037828 C13.5274633,10.2454698 13.7251394,9.50753147 14.2618208,9.05719264 C14.7985022,8.60685382 15.5595543,8.54030635 16.16625,8.89066667 Z M9,10.6669167 C9.18409492,10.6669167 9.33333333,10.8161551 9.33333333,11.00025 C9.33333333,11.1843449 9.18409492,11.3335833 9,11.3335833 L9,11.3335833 L2.33333333,11.3333333 C2.14923842,11.3333333 2,11.1840949 2,11 C2,10.8159051 2.14923842,10.6666667 2.33333333,10.6666667 L2.33333333,10.6666667 Z M15.3333333,9.33333333 C14.7813151,9.33397623 14.3339762,9.7813151 14.3333333,10.3333333 C14.3333333,10.8856181 14.7810486,11.3333333 15.3333333,11.3333333 C15.8856181,11.3333333 16.3333333,10.8856181 16.3333333,10.3333333 C16.3333333,9.78104858 15.8856181,9.33333333 15.3333333,9.33333333 Z M17.591394,9.52665524 C17.3343788,9.33827952 17.00294,9.2837571 16.699125,9.379875 C17.1002873,9.95223411 17.1002873,10.7144742 16.699125,11.2868333 C17.0029441,11.3828954 17.3343588,11.3283444 17.5913596,11.1399709 C17.8483604,10.9515975 18.0001472,10.6519772 18.0000002,10.3333333 C18.0001884,10.0146765 17.8484092,9.71503097 17.591394,9.52665524 Z M7.33333333,9.33333333 C7.51742825,9.33333333 7.66666667,9.48257175 7.66666667,9.66666667 C7.66666667,9.85076158 7.51742825,10 7.33333333,10 L7.33333333,10 L2.33333333,10 C2.14923842,10 2,9.85076158 2,9.66666667 C2,9.48257175 2.14923842,9.33333333 2.33333333,9.33333333 L2.33333333,9.33333333 Z M4.33333333,6.66666667 C4.51742825,6.66666667 4.66666667,6.81590508 4.66666667,7 C4.66666667,7.18409492 4.51742825,7.33333333 4.33333333,7.33333333 L4.33333333,7.33333333 L2.33333333,7.33333333 C2.14923842,7.33333333 2,7.18409492 2,7 C2,6.81590508 2.14923842,6.66666667 2.33333333,6.66666667 L2.33333333,6.66666667 Z M8.33333333,6.66666667 C8.51742825,6.66666667 8.66666667,6.81590508 8.66666667,7 C8.66666667,7.18409492 8.51742825,7.33333333 8.33333333,7.33333333 L8.33333333,7.33333333 L6.33333333,7.33333333 C6.14923842,7.33333333 6,7.18409492 6,7 C6,6.81590508 6.14923842,6.66666667 6.33333333,6.66666667 L6.33333333,6.66666667 Z M12.3333333,6.66666667 C12.5174282,6.66666667 12.6666667,6.81590508 12.6666667,7 C12.6666667,7.18409492 12.5174282,7.33333333 12.3333333,7.33333333 L12.3333333,7.33333333 L10.3333333,7.33333333 C10.1492384,7.33333333 10,7.18409492 10,7 C10,6.81590508 10.1492384,6.66666667 10.3333333,6.66666667 L10.3333333,6.66666667 Z M16.3333333,6.66666667 C16.5174282,6.66666667 16.6666667,6.81590508 16.6666667,7 C16.6666667,7.18409492 16.5174282,7.33333333 16.3333333,7.33333333 L16.3333333,7.33333333 L14.3333333,7.33333333 C14.1492384,7.33333333 14,7.18409492 14,7 C14,6.81590508 14.1492384,6.66666667 14.3333333,6.66666667 L14.3333333,6.66666667 Z M4.33333333,2 C4.88535157,2.0006429 5.33269044,2.44798177 5.33333333,3 L5.33333333,3 L5.33333333,4.33333333 C5.33269044,4.88535157 4.88535157,5.33269044 4.33333333,5.33333333 L4.33333333,5.33333333 L3,5.33333333 C2.44798177,5.33269044 2.0006429,4.88535157 2,4.33333333 L2,4.33333333 L2,3 C2.0006429,2.44798177 2.44798177,2.0006429 3,2 L3,2 Z M17.1855252,2.03713827 C17.3493462,1.95538799 17.5484396,2.02106819 17.6314583,2.18425 C17.6465417,2.214375 18,2.92975 18,3.66666667 C18,4.40358333 17.6465417,5.11895833 17.6314583,5.14908333 C17.5919756,5.22820493 17.5226482,5.28837685 17.4387586,5.31633484 C17.354869,5.34429282 17.2633047,5.33774149 17.18425,5.298125 C17.0196047,5.21578458 16.9528779,5.01556699 17.0352083,4.85091667 C17.0379583,4.845375 17.3333333,4.24333333 17.3333333,3.66666667 C17.3333333,3.09 17.0379583,2.48795833 17.0349583,2.48191667 C16.9544815,2.31746641 17.0217043,2.11888854 17.1855252,2.03713827 Z M15.7642917,2.43095835 C15.8944698,2.30078024 16.1055302,2.30078023 16.2357083,2.43095833 C16.2798333,2.475 16.6666581,2.88454167 16.6666581,3.66666667 C16.6666581,4.44879167 16.2798333,4.85833333 16.2357083,4.902375 L16.2357083,4.902375 L16.1754373,4.95019553 C16.0468779,5.02989641 15.8758729,5.01395622 15.7642917,4.90237499 C15.6341136,4.77219687 15.6341136,4.56113645 15.7642917,4.43095833 L15.7642917,4.43095833 C15.7703333,4.42433333 16,4.172625 16,3.66666667 C16,3.16070833 15.766625,2.90475 15.7642917,2.902375 C15.6341136,2.77219688 15.6341136,2.56113646 15.7642917,2.43095835 Z M4.33333333,2.66666667 L3,2.66666667 C2.81599075,2.66687333 2.66687333,2.81599075 2.66666667,3 L2.66666667,3 L2.66666667,3.33333333 L3,3.33333333 C3.18409492,3.33333333 3.33333333,3.48257175 3.33333333,3.66666667 C3.33333333,3.85076158 3.18409492,4 3,4 L3,4 L2.66666667,4 L2.66666667,4.33333333 C2.66687333,4.51734258 2.81599075,4.66646 3,4.66666667 L3,4.66666667 L4.33333333,4.66666667 C4.51734258,4.66646 4.66646,4.51734258 4.66666667,4.33333333 L4.66666667,4.33333333 L4.66666667,4 L4.33333333,4 C4.14923842,4 4,3.85076158 4,3.66666667 C4,3.48257175 4.14923842,3.33333333 4.33333333,3.33333333 L4.33333333,3.33333333 L4.66666667,3.33333333 L4.66666667,3 C4.66646,2.81599075 4.51734258,2.66687333 4.33333333,2.66666667 L4.33333333,2.66666667 Z M14.4309583,2.76337501 C14.5613896,2.63345003 14.77245,2.63386043 14.902375,2.76429167 C14.9465,2.80833333 15.3333333,3.20833333 15.3333333,3.66666667 C15.3333333,4.125 14.9465,4.525 14.902375,4.56904167 C14.8398624,4.63155751 14.7550751,4.66667881 14.6666667,4.66667881 C14.5782582,4.66667881 14.493471,4.63155751 14.4309583,4.56904167 C14.3684425,4.50652905 14.3333212,4.42174181 14.3333212,4.33333333 C14.3333212,4.24492486 14.3684425,4.16013762 14.4309583,4.097625 C14.5254583,4.00158333 14.6666667,3.79725 14.6666667,3.66666667 C14.6666667,3.53608333 14.5254583,3.33175 14.4300417,3.23479167 C14.3001167,3.10436042 14.3005271,2.89329999 14.4309583,2.76337501 Z" transform="translate(.5 .5)"/></svg>