<svg xmlns="http://www.w3.org/2000/svg" width="69" height="69" viewBox="0 0 69 69"><g fill="none" fill-rule="evenodd"><rect width="69" height="69" fill="#FFF" rx="6"/><g fill="#191970" fill-rule="nonzero" transform="translate(13.964 19.714)"><path d="M40.5623003,8.00186873 L33.6494409,5.02727606 C31.0434391,3.76849228 27.6757131,0.351127413 27.6423836,0.316760618 C27.4798037,0.151320463 27.2472843,0.0764594595 27.01962,0.115488417 C26.7920869,0.155449807 26.598277,0.305171815 26.4999943,0.517633205 C25.3415963,3.01135714 21.972427,3.75064286 21.8942207,3.76849228 L0.520806709,9.73312934 C0.245772478,9.81038803 0.0430397079,10.046027 0.00629849384,10.3322838 C-0.0313612506,10.6188069 0.104974897,10.9005347 0.349828845,11.0466602 L11.7801518,17.853417 C11.8898505,17.9186873 12.0137209,17.952388 12.138641,17.952388 C12.2064811,17.952388 12.2753708,17.9425309 12.3420299,17.9221506 L40.4886867,9.35189768 C40.7752681,9.26491506 40.9765575,9.00516602 40.9925662,8.7025251 C41.0092309,8.39988417 40.8369409,8.11988803 40.5623003,8.00186873 Z M12.2307565,16.4547683 L2.51546098,10.6690251 L22.2242355,5.16714093 C22.3744808,5.13623745 25.5983911,4.43824517 27.2971474,1.97768919 C28.454102,3.0819556 30.9223243,5.30380888 33.0687985,6.3394749 L38.2011524,8.54760811 L12.2307565,16.4547683 Z"/><path d="M40.0826963,10.8516486 L12.2314126,19.3319884 L1.06720105,12.6837452 C0.730494067,12.482473 0.295635555,12.597695 0.0977578731,12.9397645 C-0.100513464,13.2821004 0.0127282063,13.7232741 0.349960064,13.9238803 L12.046788,20.889417 L40.4889491,12.229251 C40.8639719,12.1150946 41.077071,11.7142819 40.9643542,11.333583 C40.8521623,10.9539498 40.457063,10.7396236 40.0826963,10.8516486 Z"/><path d="M40.0826963,13.7290019 L12.2314126,22.2092085 L1.06720105,15.5605656 C0.730494067,15.3588938 0.295635555,15.4747819 0.0977578731,15.8169846 C-0.100513464,16.1590541 0.0127282063,16.6002278 0.349960064,16.8012336 L12.046788,23.7666371 L40.4889491,15.106471 C40.8639719,14.9923147 41.077071,14.5916351 40.9643542,14.2108031 C40.8521623,13.8310367 40.457063,13.6155116 40.0826963,13.7290019 Z"/><path d="M40.0826963,16.6058224 L12.2314126,25.0864286 L1.06720105,18.4377857 C0.730494067,18.2361139 0.295635555,18.352668 0.0977578731,18.6940714 C-0.100513464,19.0361409 0.0127282063,19.4774479 0.349960064,19.6783205 L12.046788,26.6437239 L40.4889491,17.9832915 C40.8639719,17.8695347 41.077071,17.4684556 40.9643542,17.0876236 C40.8521623,16.70839 40.457063,16.4933977 40.0826963,16.6058224 Z"/><path d="M40.0826963,19.4830425 L12.2314126,27.9636486 L1.06720105,21.3150058 C0.730494067,21.113334 0.295635555,21.229222 0.0977578731,21.5714247 C-0.100513464,21.9134942 0.0127282063,22.354668 0.349960064,22.5555405 L12.046788,29.5210772 L40.4889491,20.8605116 C40.8639719,20.7467548 41.077071,20.3456757 40.9643542,19.9648436 C40.8521623,19.58561 40.457063,19.3699517 40.0826963,19.4830425 Z"/></g></g></svg>