<?xml version="1.0" encoding="UTF-8"?>
<svg width="30px" height="30px" viewBox="0 0 30 30" version="1.1" xmlns="http://www.w3.org/2000/svg" xmlns:xlink="http://www.w3.org/1999/xlink">
    <title>56E941F4-D3E0-442B-947F-8843C8C1A595</title>
    <g id="Welcome" stroke="none" stroke-width="1" fill="none" fill-rule="evenodd">
        <g id="Marchand-/-Gestion-des-menus" transform="translate(-740.000000, -431.000000)" fill="#1A7EF5" fill-rule="nonzero">
            <g id="Group-3" transform="translate(119.000000, 257.000000)">
                <g id="Group-22" transform="translate(71.000000, 154.500000)">
                    <g id="Group-6-Copy-2" transform="translate(505.000000, 0.000000)">
                        <g id="Group-5" transform="translate(26.000000, 20.000000)">
                            <g id="people_community_filled_icon_200428" transform="translate(19.500000, 0.000000)">
                                <path d="M11.0821567,10.5238095 C11.8948011,9.53497619 13.1241594,8.9047619 14.5,8.9047619 C15.8758889,8.9047619 17.1051667,9.53497619 17.9178111,10.5238095 C18.5504944,11.2936181 18.9305556,12.2807838 18.9305556,13.3571429 C18.9305556,15.7781048 17.0076944,17.7478381 14.6131,17.8080667 C14.5755611,17.8090381 14.5378611,17.8095238 14.5,17.8095238 C14.4622033,17.8095238 14.4245194,17.8090381 14.3869483,17.8080667 C11.9922572,17.7478381 10.0694444,15.7781048 10.0694444,13.3571429 C10.0694444,12.2807838 10.4495217,11.2936181 11.0821567,10.5238095 Z" id="Path"></path>
                                <path d="M20.5416667,13.3571429 C20.5416667,12.3338238 20.2896889,11.3696486 19.8448611,10.5238095 L26.5833333,10.5238095 C27.9179778,10.5238095 29,11.6111133 29,12.952381 L29,13.7619048 C29,16.331981 27.0576444,18.9621238 23.6593278,19.8891905 C22.9712222,18.6486762 21.6525278,17.8095238 20.1388889,17.8095238 L18.6075278,17.8095238 C19.7971722,16.7006381 20.5416667,15.1162381 20.5416667,13.3571429 Z" id="Path"></path>
                                <path d="M20.1388889,19.4285714 C20.8348889,19.4285714 21.4622556,19.7242095 21.9032167,20.1974571 C22.3077667,20.6316857 22.5555556,21.2153524 22.5555556,21.8571429 L22.5555556,22.6666667 C22.5555556,25.8584571 19.5596944,29.1428571 14.5,29.1428571 C9.44032167,29.1428571 6.44444444,25.8584571 6.44444444,22.6666667 L6.44444444,21.8571429 C6.44444444,21.2153524 6.69216889,20.6316857 7.09676722,20.1974571 C7.53774444,19.7242095 8.16506278,19.4285714 8.86111111,19.4285714 L20.1388889,19.4285714 Z" id="Path"></path>
                                <path d="M0,13.7619048 C0,16.331981 1.94240389,18.9621238 5.34060778,19.8891905 C6.02877778,18.6486762 7.34744,17.8095238 8.86111111,17.8095238 L10.3924239,17.8095238 C9.20281167,16.7006381 8.45833333,15.1162381 8.45833333,13.3571429 C8.45833333,12.3338238 8.71026278,11.3696486 9.15517111,10.5238095 L2.41666667,10.5238095 C1.08197389,10.5238095 0,11.6111133 0,12.952381 L0,13.7619048 Z" id="Path"></path>
                                <path d="M12.4861111,4.45238095 C12.4861111,1.99340381 10.5024789,0 8.05555556,0 C5.60863222,0 3.625,1.99340381 3.625,4.45238095 C3.625,6.9113581 5.60863222,8.9047619 8.05555556,8.9047619 C10.5024789,8.9047619 12.4861111,6.9113581 12.4861111,4.45238095 Z" id="Path"></path>
                                <path d="M25.375,4.45238095 C25.375,1.99340381 23.3914,0 20.9444444,0 C18.4974889,0 16.5138889,1.99340381 16.5138889,4.45238095 C16.5138889,6.9113581 18.4974889,8.9047619 20.9444444,8.9047619 C23.3914,8.9047619 25.375,6.9113581 25.375,4.45238095 Z" id="Path"></path>
                            </g>
                        </g>
                    </g>
                </g>
            </g>
        </g>
    </g>
</svg>