<?xml version="1.0" encoding="UTF-8"?>
<svg width="23px" height="23px" viewBox="0 0 23 23" version="1.1" xmlns="http://www.w3.org/2000/svg" xmlns:xlink="http://www.w3.org/1999/xlink">
    <title>66A4F006-149F-46C4-A6CB-E3F7E554D776</title>
    <g id="Welcome" stroke="none" stroke-width="1" fill="none" fill-rule="evenodd">
        <g id="Marchand-/-invitation-OFF" transform="translate(-982.000000, -557.000000)" fill="#1A7EF5">
            <g id="Bouton/Formulaire_Long-Copy-17" transform="translate(967.000000, 548.000000)">
                <g id="4.-Icons-/-Plus-Copy-4" transform="translate(15.000000, 9.000000)">
                    <path d="M12.4583333,12.4583333 L12.4583333,17.2067598 C12.4583333,17.7599136 12.0137939,18.2083333 11.4550927,18.2083333 L11.5449073,18.2083333 C10.9908328,18.2083333 10.5416667,17.7571405 10.5416667,17.2067598 L10.5416667,12.4583333 L5.79324023,12.4583333 C5.24008642,12.4583333 4.79166667,12.0137939 4.79166667,11.4550927 L4.79166667,11.5449073 C4.79166667,10.9908328 5.24285952,10.5416667 5.79324023,10.5416667 L10.5416667,10.5416667 L10.5416667,5.79324023 C10.5416667,5.24008642 10.9862061,4.79166667 11.5449073,4.79166667 L11.4550927,4.79166667 C12.0091672,4.79166667 12.4583333,5.24285952 12.4583333,5.79324023 L12.4583333,10.5416667 L17.2067598,10.5416667 C17.7599136,10.5416667 18.2083333,10.9862061 18.2083333,11.5449073 L18.2083333,11.4550927 C18.2083333,12.0091672 17.7571405,12.4583333 17.2067598,12.4583333 L12.4583333,12.4583333 Z" id="🔹-Icon-Color"></path>
                </g>
            </g>
        </g>
    </g>
</svg>