<?xml version="1.0" encoding="UTF-8"?>
<svg width="24px" height="25px" viewBox="0 0 24 25" version="1.1" xmlns="http://www.w3.org/2000/svg" xmlns:xlink="http://www.w3.org/1999/xlink">
    <title>DBD44799-6BB3-4EE3-A1F0-B0482719B723</title>
    <g id="Welcome" stroke="none" stroke-width="1" fill="none" fill-rule="evenodd">
        <g id="Marchand-/-info-/-Parametres" transform="translate(-816.000000, -356.000000)" fill="#191970">
            <g id="Bouton/Ouverture-Copy" transform="translate(423.000000, 350.000000)">
                <g id="4.-Icons-/-Plus-Copy" transform="translate(393.000000, 6.500000)">
                    <path d="M13,13 L13,18.009222 C13,18.5564136 12.5561352,19 12,19 L12,19 C11.4477153,19 11,18.5490248 11,18.009222 L11,13 L5.99077797,13 C5.44358641,13 5,12.5561352 5,12 L5,12 C5,11.4477153 5.45097518,11 5.99077797,11 L11,11 L11,5.99077797 C11,5.44358641 11.4438648,5 12,5 L12,5 C12.5522847,5 13,5.45097518 13,5.99077797 L13,11 L18.009222,11 C18.5564136,11 19,11.4438648 19,12 L19,12 C19,12.5522847 18.5490248,13 18.009222,13 L13,13 Z" id="🔹-Icon-Color"></path>
                </g>
            </g>
        </g>
    </g>
</svg>