<?xml version="1.0" encoding="UTF-8"?>
<svg width="19px" height="12px" viewBox="0 0 19 12" version="1.1" xmlns="http://www.w3.org/2000/svg" xmlns:xlink="http://www.w3.org/1999/xlink">
    <title>DA3F1F5C-AE85-4DC7-944E-054604D64309</title>
    <g id="Welcome" stroke="none" stroke-width="1" fill="none" fill-rule="evenodd">
        <g id="Marchand-/-Messageri_Vue-1-/-Detail_produit" transform="translate(-420.000000, -389.000000)" fill="#00B517" fill-rule="nonzero" stroke="#FFFFFF">
            <g id="Receive-money-from-Alex-Hartman-Copy-8" transform="translate(111.000000, 305.000000)">
                <g id="Read-Icon-Copy" transform="translate(310.440000, 85.000000)">
                    <path d="M14.7379848,-0.493084161 C15.0532868,-0.527161173 15.3691936,-0.434411469 15.6156832,-0.235570776 C15.862657,-0.036702082 16.0203922,0.252231319 16.0541092,0.567521629 C16.0878263,0.882811939 15.9947562,1.19856638 15.7957808,1.44471695 L15.7957808,1.44471695 L8.84573769,10.0627233 C8.63178044,10.3222076 8.31888937,10.4801753 7.98305793,10.4982599 C7.6472265,10.5163445 7.31918084,10.3928915 7.07442386,10.1537619 L7.07442386,10.1537619 L4.29578034,7.37511837 C3.9939561,7.07329413 3.87608031,6.63337571 3.98655565,6.22107612 C4.09703099,5.80877653 4.41907363,5.4867339 4.83137322,5.37625856 C5.2436728,5.26578321 5.68359123,5.383659 5.98541547,5.68548325 L5.98541547,5.68548325 L7.82430987,7.52437765 L13.9352954,-0.0536424026 C14.1338876,-0.300902861 14.4226828,-0.459007149 14.7379848,-0.493084161 Z" id="Path"></path>
                    <path d="M10.2921552,-0.493084161 C10.6074572,-0.527161173 10.923364,-0.434411469 11.1698536,-0.235570776 C11.4168274,-0.036702082 11.5745625,0.252231319 11.6082796,0.567521629 C11.6419967,0.882811939 11.5489266,1.19856638 11.3499511,1.44471695 L11.3499511,1.44471695 L4.39990806,10.0627233 C4.18595082,10.3222076 3.87305974,10.4801753 3.53722831,10.4982599 C3.20139688,10.5163445 2.87335121,10.3928915 2.62859423,10.1537619 L2.62859423,10.1537619 L-0.150049283,7.37511837 C-0.451873529,7.07329413 -0.569749315,6.63337571 -0.459273973,6.22107612 C-0.348798632,5.80877653 -0.0267559957,5.4867339 0.385543591,5.37625856 C0.797843178,5.26578321 1.2377616,5.383659 1.53958585,5.68548325 L1.53958585,5.68548325 L3.37848025,7.52437765 L9.48946575,-0.0536424026 C9.688058,-0.300902861 9.97685313,-0.459007149 10.2921552,-0.493084161 Z" id="Path"></path>
                </g>
            </g>
        </g>
    </g>
</svg>