<?xml version="1.0" encoding="UTF-8"?>
<svg width="43px" height="43px" viewBox="0 0 43 43" version="1.1" xmlns="http://www.w3.org/2000/svg" xmlns:xlink="http://www.w3.org/1999/xlink">
    <title>8E375363-E966-4D33-A9AD-FF0F4FA04D43</title>
    <g id="Welcome" stroke="none" stroke-width="1" fill="none" fill-rule="evenodd">
        <g id="Formulaire_de_vente" transform="translate(-91.000000, -1079.000000)">
            <g id="Group-6" transform="translate(56.000000, 680.000000)">
                <g id="Icons/Recadrer_Clique" transform="translate(35.500000, 399.500000)">
                    <g id="Recadrer-Copy" transform="translate(7.000000, 7.000000)">
                        <rect id="bounds" x="0" y="0" width="28" height="28"></rect>
                        <path d="M6.41666667,21.5833333 L6.41633333,7.58333333 L2.33333333,7.58333333 L2.33333333,6.41666667 L6.41633333,6.41633333 L6.41666667,2.33333333 L7.58333333,2.33333333 L7.58333333,6.41633333 L21.5833333,6.41666667 L21.5823333,20.4163333 L25.6666667,20.4166667 L25.6666667,21.5833333 L21.5823333,21.5833333 L21.5833333,25.6666667 L20.4166667,25.6666667 L20.4163333,21.5833333 L6.41666667,21.5833333 Z M20.4163333,7.58333333 L7.58333333,7.58333333 L7.58333333,20.4163333 L20.4163333,20.4163333 L20.4163333,7.58333333 Z" id="Rectangle" fill="#191970"></path>
                        <rect id="Rectangle" fill="#191970" x="9.33333333" y="9.33333333" width="9.33333333" height="9.33333333"></rect>
                    </g>
                </g>
            </g>
        </g>
    </g>
</svg>