<?xml version="1.0" encoding="UTF-8"?>
<svg width="28px" height="28px" viewBox="0 0 28 28" version="1.1" xmlns="http://www.w3.org/2000/svg" xmlns:xlink="http://www.w3.org/1999/xlink">
    <title>43EE7F38-4A05-40EF-85E4-2582EE87BC35</title>
    <g id="Welcome" stroke="none" stroke-width="1" fill="none" fill-rule="evenodd">
        <g id="Formulaire_de_vente" transform="translate(-1381.000000, -53.000000)">
            <g id="Group-44" transform="translate(1349.000000, 35.000000)">
                <g id="Recadrer" transform="translate(32.000000, 18.000000)">
                    <rect id="bounds" x="0" y="0" width="28" height="28"></rect>
                    <path d="M6.41666667,21.5833333 L6.41633333,7.58333333 L2.33333333,7.58333333 L2.33333333,6.41666667 L6.41633333,6.41633333 L6.41666667,2.33333333 L7.58333333,2.33333333 L7.58333333,6.41633333 L21.5833333,6.41666667 L21.5823333,20.4163333 L25.6666667,20.4166667 L25.6666667,21.5833333 L21.5823333,21.5833333 L21.5833333,25.6666667 L20.4166667,25.6666667 L20.4163333,21.5833333 L6.41666667,21.5833333 Z M20.4163333,7.58333333 L7.58333333,7.58333333 L7.58333333,20.4163333 L20.4163333,20.4163333 L20.4163333,7.58333333 Z" id="Rectangle" fill="#4A4A4A"></path>
                    <rect id="Rectangle" fill="#4A4A4A" x="9.33333333" y="9.33333333" width="9.33333333" height="9.33333333"></rect>
                </g>
            </g>
        </g>
    </g>
</svg>