<?xml version="1.0" encoding="UTF-8"?>
<svg width="29px" height="29px" viewBox="0 0 29 29" version="1.1" xmlns="http://www.w3.org/2000/svg" xmlns:xlink="http://www.w3.org/1999/xlink">
    <title>68206B30-3DB5-4F9A-8F3D-6217E9116E9E</title>
    <g id="Welcome" stroke="none" stroke-width="1" fill="none" fill-rule="evenodd">
        <g id="Formulaire_de_vente" transform="translate(-146.000000, -1086.000000)">
            <g id="Group-6" transform="translate(56.000000, 680.000000)">
                <g id="Rotation" transform="translate(90.500000, 406.500000)">
                    <rect id="bounds" x="0" y="0" width="28" height="28"></rect>
                    <g id="Rectangle-" transform="translate(2.775126, 5.250000)">
                        <polygon fill="#4A4A4A" transform="translate(2.474874, 8.750000) rotate(-45.000000) translate(-2.474874, -8.750000) " points="0.724873734 7 4.22487373 7 4.22487373 10.5"></polygon>
                        <polygon id="Rectangle" fill="#4A4A4A" transform="translate(19.974874, 8.750000) scale(1, -1) rotate(-45.000000) translate(-19.974874, -8.750000) " points="18.2248737 7 21.7248737 7 21.7248737 10.5"></polygon>
                        <path d="M2.5453227,7.90748689 C2.49882747,8.27901062 2.47487373,8.6575413 2.47487373,9.04166667 C2.47487373,14.0352413 6.52296579,18.0833333 11.5165404,18.0833333 L11.5165404,18.0833333 C15.167006,18.0833333 18.3121975,15.9199982 19.7400185,12.8054246 M20.5194907,9.88398458 C20.5451113,9.6066512 20.5582071,9.32568827 20.5582071,9.04166667 C20.5582071,4.04809205 16.510115,0 11.5165404,0 C8.30067674,0 5.47693913,1.67889118 3.87400473,4.20799639" id="Oval" stroke="#4A4A4A" stroke-width="2.91666667"></path>
                    </g>
                </g>
            </g>
        </g>
    </g>
</svg>