<?xml version="1.0" encoding="UTF-8"?>
<svg width="37px" height="27px" viewBox="0 0 37 27" version="1.1" xmlns="http://www.w3.org/2000/svg" xmlns:xlink="http://www.w3.org/1999/xlink">
    <title>B1707DEB-EE42-40BD-BBB5-475B51E148DF</title>
    <g id="Welcome" stroke="none" stroke-width="1" fill="none" fill-rule="evenodd">
        <g id="Formulaire_de_vente" transform="translate(-1344.000000, -1644.000000)" fill="#191970" fill-rule="nonzero">
            <g id="19-bike" transform="translate(1344.000000, 1644.000000)">
                <path d="M30.9561017,15.75947 L28.7047489,15.75947 C27.772208,15.75947 27.0162342,15.0034962 27.0162342,14.0709553 L27.0162342,6.69158352 C27.7553492,7.45142904 28.7703989,7.87998302 29.8304253,7.87973499 C30.1412723,7.87973499 30.3932635,7.62774373 30.3932635,7.31689677 L30.3932635,0.562838213 C30.3932635,0.251991251 30.1412723,0 29.8304253,0 C28.7382941,0.000550930857 27.6957391,0.455954925 26.9531964,1.25681773 C26.7579474,0.518487406 26.0914237,0.00313163456 25.3277196,0 L21.9506903,0 C21.0181494,0 20.2621757,0.755973768 20.2621757,1.68851464 C20.2621757,2.62105551 21.0181494,3.37702926 21.9506903,3.37702928 L23.639205,3.37702928 L23.639205,7.31689677 C23.639205,7.62774373 23.8911962,7.87973499 24.2020432,7.87973499 C24.5128901,7.87973499 24.7648814,7.62774373 24.7648814,7.31689677 L24.7648814,1.12567643 L25.3277196,1.12567643 C25.6385666,1.12567643 25.8905578,1.37766768 25.8905578,1.68851464 L25.8905578,14.0709553 C25.8924186,15.6244187 27.1512855,16.8832856 28.7047489,16.8851464 L30.9561017,16.8851464 C33.1310018,16.8876277 34.8934879,18.6501138 34.8959692,20.8250139 L34.8959692,21.3878521 L1.12567643,21.3878521 L1.12567643,16.3223082 C1.12815778,14.1474081 2.89064382,12.384922 5.06554392,12.3824407 L12.3824407,12.3824407 L12.3824407,18.573661 C12.3824407,19.5062019 13.1384144,20.2621757 14.0709553,20.2621757 L23.0763667,20.2621757 C24.0089076,20.2621757 24.7648814,19.5062019 24.7648814,18.573661 L24.7648814,9.56824963 C24.7648814,9.25740266 24.5128901,9.00541141 24.2020432,9.00541141 C23.8911962,9.00541141 23.639205,9.25740266 23.639205,9.56824963 L23.639205,18.573661 C23.639205,18.884508 23.3872137,19.1364993 23.0763667,19.1364993 L14.0709553,19.1364993 C13.7601084,19.1364993 13.5081171,18.884508 13.5081171,18.573661 L13.5081171,12.2788785 C14.2828906,12.005985 14.7478773,11.2140763 14.6086838,10.404527 C14.4694903,9.59497775 13.766706,9.00385494 12.9452789,9.00541141 L1.68851464,9.00541141 C0.755973754,9.00541141 0,9.76138517 0,10.6939261 C0,11.6264669 0.755973754,12.3824407 1.68851464,12.3824407 L1.88888504,12.3824407 C0.695008272,13.341842 0.000379460894,14.7907102 0,16.3223082 L0,21.9506903 C0,22.2615373 0.251991251,22.5135285 0.562838213,22.5135285 L1.15888388,22.5135285 C1.45308535,25.0702393 3.61763832,27 6.19122035,27 C8.76480238,27 10.9293553,25.0702393 11.2235568,22.5135285 L23.6724124,22.5135285 C23.9666139,25.0702393 26.1311668,27 28.7047489,27 C31.2783309,27 33.4428839,25.0702393 33.7370853,22.5135285 L35.4588074,22.5135285 C35.7696544,22.5135285 36.0216457,22.2615373 36.0216457,21.9506903 L36.0216457,20.8250139 C36.0185438,18.0286771 33.7524385,15.7625718 30.9561017,15.75947 Z M21.9506903,2.25135285 C21.6398434,2.25135285 21.3878521,1.9993616 21.3878521,1.68851464 C21.3878521,1.37766768 21.6398434,1.12567643 21.9506903,1.12567643 L23.639205,1.12567643 L23.639205,2.25135285 L21.9506903,2.25135285 Z M29.2675871,1.18196025 L29.2675871,6.69777474 C27.9559917,6.43144394 27.013413,5.27823013 27.013413,3.93986749 C27.013413,2.60150486 27.9559917,1.44829105 29.2675871,1.18196025 Z M1.68851464,11.2567643 C1.37766768,11.2567643 1.12567643,11.004773 1.12567643,10.6939261 C1.12567643,10.3830791 1.37766768,10.1310878 1.68851464,10.1310878 L12.9452789,10.1310878 C13.2561259,10.1310878 13.5081171,10.3830791 13.5081171,10.6939261 C13.5081171,11.004773 13.2561259,11.2567643 12.9452789,11.2567643 L1.68851464,11.2567643 Z M30.2897013,22.5135285 C30.0547662,23.1878816 29.4188543,23.6397371 28.7047489,23.6397371 C27.9906434,23.6397371 27.3547315,23.1878816 27.1197965,22.5135285 L30.2897013,22.5135285 Z M7.77617275,22.5135285 C7.54123768,23.1878816 6.90532579,23.6397371 6.19122035,23.6397371 C5.4771149,23.6397371 4.84120301,23.1878816 4.60626794,22.5135285 L7.77617275,22.5135285 Z M6.19122035,25.8905578 C4.23500867,25.8868165 2.57727164,24.4494722 2.29637991,22.5135285 L3.4333131,22.5135285 C3.6996439,23.8251239 4.85285771,24.7677026 6.19122035,24.7677026 C7.52958298,24.7677026 8.68279679,23.8251239 8.94912759,22.5135285 L10.0860608,22.5135285 C9.80516905,24.4494722 8.14743202,25.8868165 6.19122035,25.8905578 Z M28.7047489,25.8905578 C26.7485372,25.8868165 25.0908002,24.4494722 24.8099084,22.5135285 L25.9468416,22.5135285 C26.2131724,23.8251239 27.3663862,24.7677026 28.7047489,24.7677026 C30.0431115,24.7677026 31.1963253,23.8251239 31.4626561,22.5135285 L32.5995893,22.5135285 C32.3186976,24.4494722 30.6609606,25.8868165 28.7047489,25.8905578 L28.7047489,25.8905578 Z" id="Shape"></path>
                <path d="M10.6939261,16.8851464 L6.19122035,16.8851464 C5.88037338,16.8851464 5.62838213,17.1371377 5.62838213,17.4479846 C5.62838213,17.7588316 5.88037338,18.0108228 6.19122035,18.0108228 L10.6939261,18.0108228 C11.004773,18.0108228 11.2567643,17.7588316 11.2567643,17.4479846 C11.2567643,17.1371377 11.004773,16.8851464 10.6939261,16.8851464 Z" id="Path"></path>
                <path d="M2.81419107,18.0108228 L3.93986749,18.0108228 C4.25071445,18.0108228 4.50270571,17.7588316 4.50270571,17.4479846 C4.50270571,17.1371377 4.25071445,16.8851464 3.93986749,16.8851464 L2.81419107,16.8851464 C2.5033441,16.8851464 2.25135285,17.1371377 2.25135285,17.4479846 C2.25135285,17.7588316 2.5033441,18.0108228 2.81419107,18.0108228 Z" id="Path"></path>
                <path d="M10.6939261,14.6337935 L2.81419107,14.6337935 C2.5033441,14.6337935 2.25135285,14.8857848 2.25135285,15.1966318 C2.25135285,15.5074787 2.5033441,15.75947 2.81419107,15.75947 L10.6939261,15.75947 C11.004773,15.75947 11.2567643,15.5074787 11.2567643,15.1966318 C11.2567643,14.8857848 11.004773,14.6337935 10.6939261,14.6337935 Z" id="Path"></path>
                <path d="M2.81419107,20.2621757 L10.6939261,20.2621757 C11.004773,20.2621757 11.2567643,20.0101844 11.2567643,19.6993375 C11.2567643,19.3884905 11.004773,19.1364993 10.6939261,19.1364993 L2.81419107,19.1364993 C2.5033441,19.1364993 2.25135285,19.3884905 2.25135285,19.6993375 C2.25135285,20.0101844 2.5033441,20.2621757 2.81419107,20.2621757 Z" id="Path"></path>
            </g>
        </g>
    </g>
</svg>