<?xml version="1.0" encoding="UTF-8"?>
<svg width="32px" height="32px" viewBox="0 0 32 32" version="1.1" xmlns="http://www.w3.org/2000/svg" xmlns:xlink="http://www.w3.org/1999/xlink">
    <title>C0476DF1-0E91-465B-9AE0-E5131108DBE0</title>
    <g id="Welcome" stroke="none" stroke-width="1" fill="none" fill-rule="evenodd" stroke-linecap="round" stroke-linejoin="round">
        <g id="Marchand-/-Gestion-des-menus" transform="translate(-884.000000, -430.000000)" stroke="#1A7EF5">
            <g id="Group-3" transform="translate(119.000000, 257.000000)">
                <g id="Group-22" transform="translate(71.000000, 154.500000)">
                    <g id="Group-6-Copy-3" transform="translate(650.000000, 0.000000)">
                        <g id="Group-12" transform="translate(25.500000, 20.000000)">
                            <g id="shipment_upload_icon_187506" transform="translate(19.928571, 0.000000)">
                                <path d="M15.7118014,29.0139318 C15.3909284,29.1613327 15.0235944,29.1673462 14.6981368,29.0305261 L0.779254808,23.1893136 C0.307304886,22.9909752 0,22.5262793 0,22.0111145 L0,7.10427883 C0,6.59649396 0.298286048,6.13685255 0.760248597,5.93373864 L14.0645964,0.106567486 C14.387766,-0.0355224954 14.7550915,-0.0355224954 15.078261,0.106567486 L28.3826088,5.93373864 C28.8445714,6.13685255 29.1428576,6.59649396 29.1428576,7.10427883 L29.1428576,22.0391972 C29.1432167,22.5399982 28.8528558,22.994747 28.400348,23.2020785 L15.7118014,29.0139318 Z" id="Path" stroke-width="2"></path>
                                <line x1="15.2049691" y1="12.649346" x2="15.2049691" y2="29.1428571" id="Path" stroke-width="2"></line>
                                <line x1="15.2049691" y1="12.649346" x2="28.9135157" y2="6.37285077" id="Path" stroke-width="2"></line>
                                <polyline id="Path" stroke-width="2" points="21.5061616 2.92250167 7.60248462 9.37132285 7.60248462 14.0419952"></polyline>
                                <line x1="20.2732921" y1="19.0317897" x2="20.2732921" y2="23.4995004" id="Path"></line>
                                <polyline id="Path" points="18.372671 20.9465229 20.2732921 19.0317897 21.857143 20.6274007"></polyline>
                                <line x1="25.3416151" y1="16.4788122" x2="25.3416151" y2="20.9465229" id="Path"></line>
                                <polyline id="Path" points="23.4409939 18.3935454 25.3416151 16.4788122 26.925466 18.0744232"></polyline>
                                <line x1="15.2049691" y1="12.649346" x2="0.234410088" y2="6.36519184" id="Path" stroke-width="2"></line>
                            </g>
                        </g>
                    </g>
                </g>
            </g>
        </g>
    </g>
</svg>