<?xml version="1.0" encoding="UTF-8"?>
<svg width="30px" height="31px" viewBox="0 0 30 31" version="1.1" xmlns="http://www.w3.org/2000/svg" xmlns:xlink="http://www.w3.org/1999/xlink">
    <title>7C8463FB-5310-42AC-8AE2-ED5167C52351</title>
    <g id="Welcome" stroke="none" stroke-width="1" fill="none" fill-rule="evenodd">
        <g id="Marchand-/-Gestion-des-menus" transform="translate(-740.000000, -601.000000)" fill="#9B9B9B" fill-rule="nonzero">
            <g id="Group-3" transform="translate(119.000000, 257.000000)">
                <g id="Group-22" transform="translate(71.000000, 154.500000)">
                    <g id="Group-8" transform="translate(505.000000, 170.000000)">
                        <g id="Group-16" transform="translate(18.000000, 20.000000)">
                            <g id="Strategy2" transform="translate(27.000000, 0.000000)">
                                <path d="M1.0114827,30 C0.607418486,29.9999137 0.243179325,29.7562725 0.0885623174,29.3826546 C-0.0660546906,29.0090366 0.0193891619,28.5789943 0.305062578,28.293 L4.30178181,24.293 C4.69383887,23.9140278 5.3170332,23.9194476 5.70245062,24.3051814 C6.08786804,24.6909152 6.09328343,25.3146211 5.71462205,25.707 L1.71790282,29.707 C1.53056387,29.8945494 1.27646,30 1.0114827,30 Z" id="Path"></path>
                                <path d="M5.00820193,30 C4.74322463,30 4.48912076,29.8945494 4.30178181,29.707 L0.305062578,25.707 C0.0453192079,25.4559255 -0.0588512948,25.0841221 0.0325890855,24.7344927 C0.124029466,24.3848632 0.396850477,24.1118183 0.746193145,24.0203028 C1.09553581,23.9287874 1.46703428,24.0330434 1.71790282,24.293 L5.71462205,28.293 C6.00029547,28.5789943 6.08573932,29.0090366 5.93112231,29.3826546 C5.77650531,29.7562725 5.41226614,29.9999137 5.00820193,30 Z" id="Path"></path>
                                <path d="M24.9917981,10 C24.5877339,9.99991365 24.2234947,9.7562725 24.0688777,9.38265456 C23.9142607,9.00903662 23.9997045,8.57899425 24.2853779,8.293 L28.2820972,4.293 C28.5329657,4.03304342 28.9044642,3.9287874 29.2538069,4.02030284 C29.6031495,4.11181828 29.8759705,4.38486324 29.9674109,4.73449268 C30.0588513,5.08412211 29.9546808,5.45592553 29.6949374,5.707 L25.6982182,9.707 C25.5108792,9.89454937 25.2567754,10 24.9917981,10 L24.9917981,10 Z" id="Path"></path>
                                <path d="M28.9885173,10 C28.72354,10 28.4694361,9.89454937 28.2820972,9.707 L24.2853779,5.707 C23.9067166,5.31462111 23.912132,4.69091522 24.2975494,4.30518142 C24.6829668,3.91944763 25.3061611,3.91402779 25.6982182,4.293 L29.6949374,8.293 C29.9806108,8.57899425 30.0660547,9.00903662 29.9114377,9.38265456 C29.7568207,9.7562725 29.3925815,9.99991365 28.9885173,10 L28.9885173,10 Z" id="Path"></path>
                                <path d="M14.0008202,21 C13.596756,20.9999137 13.2325168,20.7562725 13.0778998,20.3826546 C12.9232828,20.0090366 13.0087267,19.5789943 13.2944001,19.293 L17.2911193,15.293 C17.6831764,14.9140278 18.3063707,14.9194476 18.6917881,15.3051814 C19.0772055,15.6909152 19.0826209,16.3146211 18.7039595,16.707 L14.7072403,20.707 C14.5199014,20.8945494 14.2657975,21 14.0008202,21 Z" id="Path"></path>
                                <path d="M17.9975394,21 C17.7325621,21 17.4784582,20.8945494 17.2911193,20.707 L13.2944001,16.707 C12.9157387,16.3146211 12.9211541,15.6909152 13.3065715,15.3051814 C13.6919889,14.9194476 14.3151833,14.9140278 14.7072403,15.293 L18.7039595,19.293 C18.989633,19.5789943 19.0750768,20.0090366 18.9204598,20.3826546 C18.7658428,20.7562725 18.4016036,20.9999137 17.9975394,21 Z" id="Path"></path>
                                <path d="M3.00984232,24 C2.98786036,24 2.9658784,24 2.94389645,24 C2.678868,23.9830559 2.43148241,23.8612151 2.25637871,23.661388 C2.081275,23.4615608 1.99286034,23.2001888 2.01066251,22.935 C2.37110243,18.0297194 4.65248984,13.4653555 8.35845182,10.235 C11.6219733,7.50227189 15.7407705,6.00339452 19.995899,6 L19.995899,6 C20.5477308,6 20.9950788,6.44771525 20.9950788,7 C20.9950788,7.55228475 20.5477308,8 19.995899,8 C16.2169907,8.02543723 12.562559,9.3548986 9.64939213,11.764 C6.35462468,14.6398483 4.32755749,18.7012638 4.00902212,23.065 C3.97474012,23.5917503 3.53727473,24.0011162 3.00984232,24 Z" id="Path"></path>
                                <path d="M18.9967192,10 C18.592655,9.99991365 18.2284159,9.7562725 18.0737988,9.38265456 C17.9191818,9.00903662 18.0046257,8.57899425 18.2902991,8.293 L19.5822386,7 L18.2902991,5.707 C17.9116377,5.31462111 17.9170531,4.69091522 18.3024705,4.30518142 C18.687888,3.91944763 19.3110823,3.91402779 19.7031394,4.293 L21.701499,6.293 C22.0915607,6.68349985 22.0915607,7.31650015 21.701499,7.707 L19.7031394,9.707 C19.5158004,9.89454937 19.2616965,10 18.9967192,10 L18.9967192,10 Z" id="Path"></path>
                                <path d="M25.491388,29 C24.0769312,29 22.8017509,28.1472524 22.2604618,26.839392 C21.7191726,25.5315316 22.0183721,24.0261193 23.0185441,23.0251263 C24.0187161,22.0241333 25.5228938,21.7246881 26.8296814,22.2664216 C28.1364691,22.8081551 28.9885173,24.0843821 28.9885173,25.5 C28.9885173,27.4329966 27.4227992,29 25.491388,29 L25.491388,29 Z M25.491388,24 C24.6636403,24 23.9926183,24.6715729 23.9926183,25.5 C23.9926183,26.3284271 24.6636403,27 25.491388,27 C26.3191356,27 26.9901577,26.3284271 26.9901577,25.5 C26.9901577,24.6715729 26.3191356,24 25.491388,24 Z" id="Shape"></path>
                                <path d="M4.50861203,7 C2.57720083,7 1.0114827,5.43299662 1.0114827,3.5 C1.0114827,1.56700338 2.57720083,0 4.50861203,0 C6.44002322,0 8.00574135,1.56700338 8.00574135,3.5 C8.00574135,4.42825771 7.63729485,5.31849641 6.98145589,5.97487373 C6.32561692,6.63125106 5.43610839,7 4.50861203,7 Z M4.50861203,2 C3.68086437,2 3.00984232,2.67157288 3.00984232,3.5 C3.00984232,4.32842712 3.68086437,5 4.50861203,5 C5.33635968,5 6.00738174,4.32842712 6.00738174,3.5 C6.00738174,2.67157288 5.33635968,2 4.50861203,2 Z" id="Shape"></path>
                            </g>
                        </g>
                    </g>
                </g>
            </g>
        </g>
    </g>
</svg>