<svg xmlns="http://www.w3.org/2000/svg" width="69" height="69" viewBox="0 0 69 69"><g fill="none" fill-rule="evenodd"><rect width="69" height="69" fill="#FFF" rx="6"/><path fill="#191970" fill-rule="nonzero" d="M39.3669643,0.0477692308 L1.70446429,0.0477692308 C0.76688058,0.0477692308 0,0.836293269 0,1.80992308 L0,26.9192885 C0,27.8929183 0.76688058,28.6814423 1.70446429,28.6814423 L29.0641323,28.6814423 L32.7243025,33.7340337 L33.0779018,33.4653317 L33.5338588,34.099601 C33.7042411,34.3288269 33.9599749,34.451899 34.21988,34.451899 C34.3989258,34.451899 34.5779715,34.3945096 34.7268555,34.27575 L35.5107422,33.6676875 C35.8900112,33.3770913 35.9666992,32.8264183 35.6852958,32.4343125 L35.2251674,31.8000433 L35.5745954,31.5313413 L33.5123605,28.6811106 L39.3669643,28.6811106 C40.3042271,28.6811106 41.0714286,27.8925865 41.0714286,26.9189567 L41.0714286,1.80992308 C41.0714286,0.836293269 40.304548,0.0477692308 39.3669643,0.0477692308 Z M34.9995954,32.9634231 L34.21988,33.5714856 L33.7597517,32.9372163 L34.5436384,32.3291538 L34.9995954,32.9634231 Z M34.3815988,31.3508798 L34.3774275,31.3595048 C34.3732561,31.3595048 34.3732561,31.3595048 34.3732561,31.3595048 C34.3732561,31.3595048 34.3690848,31.3595048 34.3690848,31.3638173 L32.916183,32.4870577 C32.9120117,32.4913702 32.9120117,32.4913702 32.9075195,32.4960144 C32.9033482,32.4960144 32.898856,32.5003269 32.898856,32.5003269 L32.8946847,32.5003269 L30.1294224,28.6814423 L29.4902483,27.8003654 L27.6154018,25.2102115 L26.980399,24.3291346 L21.9950335,17.4437308 L23.4819475,16.2939519 L29.2983677,24.3291346 L29.9375419,25.2102115 L31.8123884,27.8003654 L32.4473912,28.6814423 L34.3815988,31.3508798 Z M19.5791992,12.6641538 L20.9939174,17.4921635 C21.0067522,17.5362837 21.032101,17.5804038 21.0577706,17.6198798 L25.9151088,24.3291346 L4.68695592,24.3291346 L4.68695592,4.40007692 L30.759933,4.40007692 L30.759933,24.3291346 L30.3636579,24.3291346 L23.9083845,15.4132067 L23.8573661,15.3471923 L19.5791992,12.6641538 Z M22.809082,15.7127596 L21.6330915,16.6246875 L21.0407645,14.607101 L22.809082,15.7127596 Z M40.2191964,26.9192885 C40.2191964,27.4039471 39.8357561,27.8003654 39.3669643,27.8003654 L32.8731864,27.8003654 L30.9983398,25.2102115 L31.6118443,25.2102115 L31.6118443,3.519 L3.83472377,3.519 L3.83472377,25.2102115 L26.5542829,25.2102115 L28.4291295,27.8003654 L1.70446429,27.8003654 C1.23567243,27.8003654 0.852232143,27.4039471 0.852232143,26.9192885 L0.852232143,1.80992308 C0.852232143,1.32526442 1.23567243,0.928846154 1.70446429,0.928846154 L39.3669643,0.928846154 C39.8357561,0.928846154 40.2191964,1.32526442 40.2191964,1.80992308 L40.2191964,26.9192885 Z M35.9368583,11.545226 C34.4326172,11.545226 33.2097796,12.8094519 33.2097796,14.3646058 C33.2097796,15.9197596 34.4326172,17.1839856 35.9368583,17.1839856 C37.4410993,17.1839856 38.6639369,15.9197596 38.6639369,14.3646058 C38.6639369,12.8094519 37.4410993,11.545226 35.9368583,11.545226 Z M35.9368583,16.3029087 C34.901409,16.3029087 34.0620117,15.435101 34.0620117,14.3646058 C34.0620117,13.2941106 34.901409,12.4263029 35.9368583,12.4263029 C36.9681362,12.4263029 37.8117048,13.2941106 37.8117048,14.3646058 C37.8117048,15.435101 36.9681362,16.3029087 35.9368583,16.3029087 Z M35.9368583,11.545226 C34.4326172,11.545226 33.2097796,12.8094519 33.2097796,14.3646058 C33.2097796,15.9197596 34.4326172,17.1839856 35.9368583,17.1839856 C37.4410993,17.1839856 38.6639369,15.9197596 38.6639369,14.3646058 C38.6639369,12.8094519 37.4410993,11.545226 35.9368583,11.545226 Z M35.9368583,16.3029087 C34.901409,16.3029087 34.0620117,15.435101 34.0620117,14.3646058 C34.0620117,13.2941106 34.901409,12.4263029 35.9368583,12.4263029 C36.9681362,12.4263029 37.8117048,13.2941106 37.8117048,14.3646058 C37.8117048,15.435101 36.9681362,16.3029087 35.9368583,16.3029087 Z M19.4428292,12.0385096 C18.7824777,11.4792115 17.7980469,12.2368846 16.7584263,13.0383462 C16.268457,13.4128702 15.356543,14.1045288 15.1393136,14.0823029 C15.0327846,13.8354952 15.5269252,12.7829135 15.7954939,12.2146587 C16.3621512,11.0074904 16.8989676,9.86666827 16.2427874,9.30272596 C15.5866071,8.73878365 14.6021763,9.50110096 13.5583845,10.3025625 C13.0854213,10.6681298 12.2248465,11.33325 11.9351004,11.3203125 C11.8712472,11.0340288 12.3442104,10.0295481 12.5999442,9.48351923 C13.1707729,8.27203846 13.7079102,7.13121635 13.0517299,6.57158654 C12.8685128,6.41301923 12.5916016,6.43060096 12.4423968,6.62001923 C12.293192,6.805125 12.3101981,7.07813942 12.4934152,7.23239423 C12.5957729,7.47920192 12.1013114,8.53178365 11.8330636,9.09572596 C11.2664063,10.3028942 10.7295898,11.4480288 11.3857701,12.0076587 C12.0419503,12.571601 13.0263811,11.8139279 14.070173,11.0078221 C14.555971,10.6332981 15.4633929,9.93732692 15.6851144,9.96386538 C15.7916434,10.2106731 15.2930106,11.2632548 15.0289342,11.8315096 C14.4622768,13.0386779 13.9254604,14.1795 14.5816406,14.7434423 C14.7391881,14.8801154 14.9182338,14.9371731 15.1101144,14.9371731 C15.7194475,14.9371731 16.4734933,14.355649 17.2660435,13.743274 C17.7560128,13.36875 18.6637556,12.6684663 18.8979911,12.716899 C19.0812081,12.8754663 19.3497768,12.8489279 19.4986607,12.6595096 C19.6472238,12.4747356 19.621875,12.1974087 19.4428292,12.0385096 Z M37.5136161,4.24150962 L34.5606445,4.24150962 C34.326409,4.24150962 34.1345285,4.43988462 34.1345285,4.68204808 C34.1345285,4.92421154 34.326409,5.12258654 34.5606445,5.12258654 L37.5136161,5.12258654 C37.7478516,5.12258654 37.9397321,4.92421154 37.9397321,4.68204808 C37.9397321,4.43988462 37.7478516,4.24150962 37.5136161,4.24150962 Z M37.5136161,6.65120192 L34.5606445,6.65120192 C34.326409,6.65120192 34.1345285,6.84957692 34.1345285,7.09174038 C34.1345285,7.33390385 34.326409,7.53227885 34.5606445,7.53227885 L37.5136161,7.53227885 C37.7478516,7.53227885 37.9397321,7.33390385 37.9397321,7.09174038 C37.9397321,6.84924519 37.7478516,6.65120192 37.5136161,6.65120192 Z M37.5136161,9.06089423 L34.5606445,9.06089423 C34.326409,9.06089423 34.1345285,9.25926923 34.1345285,9.50143269 C34.1345285,9.74824038 34.326409,9.94197115 34.5606445,9.94197115 L37.5136161,9.94197115 C37.7478516,9.94197115 37.9397321,9.74824038 37.9397321,9.50143269 C37.9397321,9.2589375 37.7478516,9.06089423 37.5136161,9.06089423 Z M37.5136161,18.7434519 L34.5606445,18.7434519 C34.326409,18.7434519 34.1345285,18.9418269 34.1345285,19.1839904 C34.1345285,19.4261538 34.326409,19.6245288 34.5606445,19.6245288 L37.5136161,19.6245288 C37.7478516,19.6245288 37.9397321,19.4261538 37.9397321,19.1839904 C37.9397321,18.9414952 37.7478516,18.7434519 37.5136161,18.7434519 Z M37.5136161,21.1531442 L34.5606445,21.1531442 C34.326409,21.1531442 34.1345285,21.3515192 34.1345285,21.5936827 C34.1345285,21.8404904 34.326409,22.0342212 34.5606445,22.0342212 L37.5136161,22.0342212 C37.7478516,22.0342212 37.9397321,21.8404904 37.9397321,21.5936827 C37.9397321,21.3511875 37.7478516,21.1531442 37.5136161,21.1531442 Z M37.5136161,23.5625048 L34.5606445,23.5625048 C34.326409,23.5625048 34.1345285,23.7608798 34.1345285,24.0030433 C34.1345285,24.249851 34.326409,24.4435817 34.5606445,24.4435817 L37.5136161,24.4435817 C37.7478516,24.4435817 37.9397321,24.249851 37.9397321,24.0030433 C37.9397321,23.7608798 37.7478516,23.5625048 37.5136161,23.5625048 Z M20.9939174,17.4921635 L21.0109235,17.5581779 L21.0577706,17.6198798 C21.032101,17.5804038 21.0064314,17.5362837 20.9939174,17.4921635 Z" transform="translate(13.964 17.25)"/></g></svg>