<?xml version="1.0" encoding="UTF-8"?>
<svg width="51px" height="27px" viewBox="0 0 51 27" version="1.1" xmlns="http://www.w3.org/2000/svg" xmlns:xlink="http://www.w3.org/1999/xlink">
    <title>AB9B0E4C-2F66-4938-8DC0-C9EE4558F64D</title>
    <g id="Welcome" stroke="none" stroke-width="1" fill="none" fill-rule="evenodd">
        <g id="Formulaire_de_vente" transform="translate(-1343.000000, -1691.000000)" fill="#191970" fill-rule="nonzero">
            <g id="26-train" transform="translate(1343.000000, 1691.000000)">
                <path d="M50.7441176,24.2626765 L48.3617647,19.4979706 C48.2265853,19.227439 47.9494792,19.0571727 47.6470588,19.0588235 L38.1176471,19.0588235 L38.1176471,17.4705882 L40.5,17.4705882 C41.8579412,17.4705882 42.8823529,15.7640294 42.8823529,13.5 C42.8823529,11.7076765 42.2359412,10.2798529 41.2941176,9.75652941 L41.2941176,7.14705882 C41.2941176,6.70847976 40.9385791,6.35294118 40.5,6.35294118 L37.3235294,6.35294118 C36.8849503,6.35294118 36.5294118,6.70847976 36.5294118,7.14705882 L36.5294118,9.52941176 L34.9411765,9.52941176 L34.9411765,1.58823529 L35.7352941,1.58823529 C36.1738732,1.58823529 36.5294118,1.23269671 36.5294118,0.794117647 C36.5294118,0.355538581 36.1738732,0 35.7352941,0 L27.7941176,0 C27.3555386,0 27,0.355538581 27,0.794117647 C27,1.23269671 27.3555386,1.58823529 27.7941176,1.58823529 L28.5882353,1.58823529 L28.5882353,9.52941176 L27,9.52941176 L27,7.14705882 C27,6.70847976 26.6444614,6.35294118 26.2058824,6.35294118 L23.0294118,6.35294118 C22.5908327,6.35294118 22.2352941,6.70847976 22.2352941,7.14705882 L22.2352941,9.52941176 L17.4705882,9.52941176 L17.4705882,3.97058824 C17.4705882,2.65485104 16.4039725,1.58823529 15.0882353,1.58823529 L7.94117647,1.58823529 C7.5025974,1.58823529 7.14705882,1.94377388 7.14705882,2.38235294 C7.14705882,2.82093201 7.5025974,3.17647059 7.94117647,3.17647059 L15.0882353,3.17647059 C15.5268144,3.17647059 15.8823529,3.53200917 15.8823529,3.97058824 L15.8823529,4.76470588 L1.58823529,4.76470588 L1.58823529,3.97058824 C1.58823529,3.53200917 1.94377388,3.17647059 2.38235294,3.17647059 L4.76470588,3.17647059 C5.20328495,3.17647059 5.55882353,2.82093201 5.55882353,2.38235294 C5.55882353,1.94377388 5.20328495,1.58823529 4.76470588,1.58823529 L2.38235294,1.58823529 C1.06661574,1.58823529 0,2.65485104 0,3.97058824 L0,5.55882353 C0,5.9974026 0.355538581,6.35294118 0.794117647,6.35294118 L3.17647059,6.35294118 L3.17647059,19.0588235 L0.794117647,19.0588235 C0.355538581,19.0588235 0,19.4143621 0,19.8529412 L0,23.0294118 C0,23.4679908 0.355538581,23.8235294 0.794117647,23.8235294 L3.72044118,23.8235294 C4.63721676,25.7629552 6.59010182,27 8.73529412,27 C10.8804864,27 12.8333715,25.7629552 13.7501471,23.8235294 L16.4263235,23.8235294 C17.3430991,25.7629552 19.2959842,27 21.4411765,27 C23.5863688,27 25.5392538,25.7629552 26.4560294,23.8235294 L28.5882353,23.8235294 C28.5882353,25.5778457 30.0103896,27 31.7647059,27 C33.5190221,27 34.9411765,25.5778457 34.9411765,23.8235294 L36.5294118,23.8235294 C36.5294118,25.5778457 37.9515661,27 39.7058824,27 C41.4601986,27 42.8823529,25.5778457 42.8823529,23.8235294 L44.4705882,23.8235294 L44.4705882,24.6176471 C44.4705882,25.0562261 44.8261268,25.4117647 45.2647059,25.4117647 L50.0294118,25.4117647 C50.3053732,25.4132752 50.5623319,25.2714095 50.7080835,25.0370734 C50.8538351,24.8027372 50.8674784,24.5095349 50.7441176,24.2626765 Z M26.4560294,19.0588235 C26.1748907,18.4669401 25.7915464,17.9292903 25.3236176,17.4705882 L33.3529412,17.4705882 L33.3529412,19.0588235 L26.4560294,19.0588235 Z M28.5882353,11.1176471 L28.5882353,15.8823529 L22.2352941,15.8823529 L22.2352941,11.1176471 L28.5882353,11.1176471 Z M36.5294118,11.1176471 L36.5294118,15.8823529 L30.1764706,15.8823529 L30.1764706,11.1176471 L36.5294118,11.1176471 Z M23.6774118,20.6470588 C23.6506238,20.5700816 23.619877,20.4945398 23.5852941,20.4207353 L24.7502647,19.2549706 C25.0321742,19.6771618 25.2298282,20.1498596 25.3323529,20.6470588 L23.6774118,20.6470588 Z M17.55,20.6470588 C17.6524348,20.1499639 17.8498058,19.6772982 18.1312941,19.2549706 L19.2970588,20.4207353 C19.2621176,20.4937941 19.2327353,20.5700294 19.2049412,20.6470588 L17.55,20.6470588 Z M21.4411765,22.2352941 C21.0025974,22.2352941 20.6470588,21.8797555 20.6470588,21.4411765 C20.6470588,21.0025974 21.0025974,20.6470588 21.4411765,20.6470588 C21.8797555,20.6470588 22.2352941,21.0025974 22.2352941,21.4411765 C22.2352941,21.8797555 21.8797555,22.2352941 21.4411765,22.2352941 Z M22.4624118,19.2970588 C22.3884209,19.2622833 22.3126044,19.2315326 22.2352941,19.2049412 L22.2352941,17.55 C22.732389,17.6524348 23.2050548,17.8498058 23.6273824,18.1312941 L22.4624118,19.2970588 Z M20.6470588,19.2049412 C20.5697323,19.231792 20.4939155,19.2628079 20.4199412,19.2978529 L19.2549706,18.1320882 C19.6771618,17.8501788 20.1498596,17.6525248 20.6470588,17.55 L20.6470588,19.2049412 Z M17.55,22.2352941 L19.2041471,22.2352941 C19.2319412,22.3147059 19.2613235,22.3877647 19.2962647,22.4616176 L18.1312941,23.6273824 C17.8498058,23.2050548 17.6524348,22.732389 17.55,22.2352941 L17.55,22.2352941 Z M20.4191471,23.5852941 C20.4931214,23.6203391 20.5689382,23.6513551 20.6462647,23.6782059 L20.6462647,25.3323529 C20.1491226,25.2300711 19.6764284,25.0326883 19.2541765,24.7510588 L20.4191471,23.5852941 Z M22.2352941,23.6774118 C22.3126206,23.6505609 22.3884374,23.619545 22.4624118,23.5845 L23.6273824,24.7502647 C23.2051154,25.032033 22.732446,25.2296751 22.2352941,25.3323529 L22.2352941,23.6774118 Z M23.5852941,22.4616176 C23.619877,22.3878131 23.6506238,22.3122713 23.6774118,22.2352941 L25.3323529,22.2352941 C25.2300711,22.7324362 25.0326883,23.2051304 24.7510588,23.6273824 L23.5852941,22.4616176 Z M34.9411765,17.4705882 L36.5294118,17.4705882 L36.5294118,19.0588235 L34.9411765,19.0588235 L34.9411765,17.4705882 Z M40.5,15.8823529 L38.1176471,15.8823529 L38.1176471,11.1176471 L40.5,11.1176471 C40.6977353,11.1176471 41.2941176,11.9625882 41.2941176,13.5 C41.2941176,15.0374118 40.6977353,15.8823529 40.5,15.8823529 Z M38.1176471,7.94117647 L39.7058824,7.94117647 L39.7058824,9.52941176 L38.1176471,9.52941176 L38.1176471,7.94117647 Z M33.3529412,1.58823529 L33.3529412,9.52941176 L30.1764706,9.52941176 L30.1764706,1.58823529 L33.3529412,1.58823529 Z M23.8235294,7.94117647 L25.4117647,7.94117647 L25.4117647,9.52941176 L23.8235294,9.52941176 L23.8235294,7.94117647 Z M20.6470588,11.1176471 L20.6470588,15.9458824 C19.4395183,16.1190416 18.322917,16.685996 17.4705882,17.5587353 L17.4705882,11.1176471 L20.6470588,11.1176471 Z M15.8823529,6.35294118 L15.8823529,19.0588235 L13.7501471,19.0588235 C12.9740205,17.4158473 11.4421094,16.2574336 9.64984402,15.9582211 C7.85757862,15.6590086 6.03244592,16.2569755 4.76470588,17.5587353 L4.76470588,6.35294118 L15.8823529,6.35294118 Z M10.9715294,20.6470588 C10.9447415,20.5700816 10.9139946,20.4945398 10.8794118,20.4207353 L12.0443824,19.2549706 C12.3262918,19.6771618 12.5239458,20.1498596 12.6264706,20.6470588 L10.9715294,20.6470588 Z M4.84411765,20.6470588 C4.94655249,20.1499639 5.14392348,19.6772982 5.42541176,19.2549706 L6.59117647,20.4207353 C6.55623529,20.4937941 6.52685294,20.5700294 6.49905882,20.6470588 L4.84411765,20.6470588 Z M8.73529412,22.2352941 C8.29671505,22.2352941 7.94117647,21.8797555 7.94117647,21.4411765 C7.94117647,21.0025974 8.29671505,20.6470588 8.73529412,20.6470588 C9.17387318,20.6470588 9.52941176,21.0025974 9.52941176,21.4411765 C9.52941176,21.8797555 9.17387318,22.2352941 8.73529412,22.2352941 Z M9.75652941,19.2970588 C9.68253855,19.2622833 9.60672207,19.2315326 9.52941176,19.2049412 L9.52941176,17.55 C10.0265067,17.6524348 10.4991724,17.8498058 10.9215,18.1312941 L9.75652941,19.2970588 Z M7.94117647,19.2049412 C7.86384994,19.231792 7.78803319,19.2628079 7.71405882,19.2978529 L6.54908824,18.1320882 C6.97127949,17.8501788 7.44397723,17.6525248 7.94117647,17.55 L7.94117647,19.2049412 Z M4.84411765,22.2352941 L6.49905882,22.2352941 C6.52685294,22.3147059 6.55623529,22.3877647 6.59117647,22.4616176 L5.42620588,23.6273824 C5.14443759,23.2051154 4.94679548,22.732446 4.84411765,22.2352941 L4.84411765,22.2352941 Z M7.71326471,23.5852941 C7.78723908,23.6203391 7.86305582,23.6513551 7.94038235,23.6782059 L7.94038235,25.3323529 C7.44324023,25.2300711 6.97054608,25.0326883 6.54829412,24.7510588 L7.71326471,23.5852941 Z M9.52941176,23.6774118 C9.60673829,23.6505609 9.68255504,23.619545 9.75652941,23.5845 L10.9215,24.7502647 C10.499233,25.032033 10.0265637,25.2296751 9.52941176,25.3323529 L9.52941176,23.6774118 Z M10.8794118,22.4616176 C10.9139946,22.3878131 10.9447415,22.3122713 10.9715294,22.2352941 L12.6264706,22.2352941 C12.5241888,22.7324362 12.3268059,23.2051304 12.0451765,23.6273824 L10.8794118,22.4616176 Z M1.58823529,22.2352941 L1.58823529,20.6470588 L3.24,20.6470588 C3.15529412,21.1730824 3.15529412,21.7092706 3.24,22.2352941 L1.58823529,22.2352941 Z M14.2305882,22.2352941 C14.3152941,21.7092706 14.3152941,21.1730824 14.2305882,20.6470588 L15.9458824,20.6470588 C15.8611765,21.1730824 15.8611765,21.7092706 15.9458824,22.2352941 L14.2305882,22.2352941 Z M32.8875882,23.8235294 L33.2933824,23.4177353 C33.3728084,23.6824349 33.3728084,23.9646239 33.2933824,24.2293235 L32.8875882,23.8235294 Z M31.7647059,22.7006471 L31.3581176,22.2948529 C31.6230917,22.2154544 31.9055259,22.2154544 32.1705,22.2948529 L31.7647059,22.7006471 Z M30.2360294,24.2293235 C30.1566033,23.9646239 30.1566033,23.6824349 30.2360294,23.4177353 L30.6418235,23.8235294 L30.2360294,24.2293235 Z M31.3589118,25.3522059 L31.7647059,24.9464118 L32.1712941,25.3522059 C31.90632,25.4316044 31.6238858,25.4316044 31.3589118,25.3522059 L31.3589118,25.3522059 Z M40.8287647,23.8235294 L41.2345588,23.4177353 C41.3139849,23.6824349 41.3139849,23.9646239 41.2345588,24.2293235 L40.8287647,23.8235294 Z M39.7058824,22.7006471 L39.3000882,22.2948529 C39.5647879,22.2154269 39.8469768,22.2154269 40.1116765,22.2948529 L39.7058824,22.7006471 Z M38.1772059,24.2293235 C38.0977798,23.9646239 38.0977798,23.6824349 38.1772059,23.4177353 L38.583,23.8235294 L38.1772059,24.2293235 Z M39.3000882,25.3522059 L39.7058824,24.9464118 L40.1116765,25.3522059 C39.8469768,25.4316319 39.5647879,25.4316319 39.3000882,25.3522059 L39.3000882,25.3522059 Z M42.4408235,22.2352941 C41.8805292,21.2531376 40.8366172,20.6468293 39.7058824,20.6468293 C38.5751475,20.6468293 37.5312355,21.2531376 36.9709412,22.2352941 L34.4996471,22.2352941 C33.9393527,21.2531376 32.8954407,20.6468293 31.7647059,20.6468293 C30.633971,20.6468293 29.5900591,21.2531376 29.0297647,22.2352941 L26.9364706,22.2352941 C27.0211765,21.7092706 27.0211765,21.1730824 26.9364706,20.6470588 L44.4705882,20.6470588 L44.4705882,22.2352941 L42.4408235,22.2352941 Z M46.0588235,23.8235294 L46.0588235,20.6470588 L47.1562941,20.6470588 L48.7445294,23.8235294 L46.0588235,23.8235294 Z" id="Shape"></path>
                <path d="M6.35294118,13.5 L14.2941176,13.5 C14.7326967,13.5 15.0882353,13.1444614 15.0882353,12.7058824 L15.0882353,7.94117647 C15.0882353,7.5025974 14.7326967,7.14705882 14.2941176,7.14705882 L6.35294118,7.14705882 C5.91436211,7.14705882 5.55882353,7.5025974 5.55882353,7.94117647 L5.55882353,12.7058824 C5.55882353,13.1444614 5.91436211,13.5 6.35294118,13.5 Z M13.5,11.9117647 L11.1176471,11.9117647 L11.1176471,8.73529412 L13.5,8.73529412 L13.5,11.9117647 Z M7.14705882,8.73529412 L9.52941176,8.73529412 L9.52941176,11.9117647 L7.14705882,11.9117647 L7.14705882,8.73529412 Z" id="Shape"></path>
            </g>
        </g>
    </g>
</svg>