<?xml version="1.0" encoding="UTF-8"?>
<svg width="15px" height="13px" viewBox="0 0 15 13" version="1.1" xmlns="http://www.w3.org/2000/svg" xmlns:xlink="http://www.w3.org/1999/xlink">
    <title>3C755F2E-F613-410B-AF0D-8E4D724827B2</title>
    <g id="Welcome" stroke="none" stroke-width="1" fill="none" fill-rule="evenodd">
        <g id="Marchand-/-Apperçu_de_lannonce" transform="translate(-311.000000, -558.000000)" fill-rule="nonzero">
            <g id="Group" transform="translate(153.000000, 220.000000)">
                <g id="move-by-trolley" transform="translate(158.500000, 338.500000)">
                    <path d="M2.98421053,9.17647059 C2.72631579,9.17647059 2.54210526,9 2.50526316,8.75294118 L1.54736842,0.952941176 C1.47368421,0.388235294 0.994736842,0 0.442105263,0 L0,0 L0,0.705882353 L0.442105263,0.705882353 C0.626315789,0.705882353 0.773684211,0.847058824 0.810526316,1.02352941 L1.76842105,8.85882353 C1.84210526,9.45882353 2.35789474,9.88235294 2.98421053,9.88235294 L7,9.88235294 L7,9.17647059 L2.98421053,9.17647059 Z" id="Path" fill="#FFFFFF"></path>
                    <polygon id="Path" fill="#FFFFFF" points="3.31578947 8.47058824 14 8.47058824 14 9.88235294 3.31578947 9.88235294"></polygon>
                    <path d="M12.1578947,9.88235294 C11.5474748,9.88235294 11.0526316,10.3564044 11.0526316,10.9411765 C11.0526316,11.5259486 11.5474748,12 12.1578947,12 C12.7683147,12 13.2631579,11.5259486 13.2631579,10.9411765 C13.2631579,10.3564044 12.7683147,9.88235294 12.1578947,9.88235294 Z M5.15789474,9.88235294 C4.54747475,9.88235294 4.05263158,10.3564044 4.05263158,10.9411765 C4.05263158,11.5259486 4.54747475,12 5.15789474,12 C5.76831472,12 6.26315789,11.5259486 6.26315789,10.9411765 C6.26315789,10.3564044 5.76831472,9.88235294 5.15789474,9.88235294 Z" id="Shape" fill="#191970"></path>
                    <path d="M12.2,10.5 C11.9238576,10.5 11.7,10.7238576 11.7,11 C11.7,11.2761424 11.9238576,11.5 12.2,11.5 C12.4761424,11.5 12.7,11.2761424 12.7,11 C12.7,10.7238576 12.4761424,10.5 12.2,10.5 Z M5.2,10.5 C4.92385763,10.5 4.7,10.7238576 4.7,11 C4.7,11.2761424 4.92385763,11.5 5.2,11.5 C5.47614237,11.5 5.7,11.2761424 5.7,11 C5.7,10.7238576 5.47614237,10.5 5.2,10.5 Z" id="Shape" fill="#FFFFFF"></path>
                    <path d="M12.1578947,8.47058824 L4.78947368,8.47058824 C4.38421053,8.47058824 4.05263158,8.15294118 4.05263158,7.76470588 L4.05263158,0.705882353 C4.05263158,0.317647059 4.38421053,0 4.78947368,0 L12.1578947,0 C12.5631579,0 12.8947368,0.317647059 12.8947368,0.705882353 L12.8947368,7.76470588 C12.8947368,8.15294118 12.5631579,8.47058824 12.1578947,8.47058824 Z" id="Path" fill="#191970"></path>
                    <path d="M9.21052632,1.41176471 L7.73684211,1.41176471 C7.51578947,1.41176471 7.36842105,1.27058824 7.36842105,1.05882353 L7.36842105,1.05882353 C7.36842105,0.847058824 7.51578947,0.705882353 7.73684211,0.705882353 L9.21052632,0.705882353 C9.43157895,0.705882353 9.57894737,0.847058824 9.57894737,1.05882353 L9.57894737,1.05882353 C9.57894737,1.27058824 9.43157895,1.41176471 9.21052632,1.41176471 Z M9.21052632,6 L7.73684211,6 C7.51578947,6 7.36842105,5.85882353 7.36842105,5.64705882 L7.36842105,5.64705882 C7.36842105,5.43529412 7.51578947,5.29411765 7.73684211,5.29411765 L9.21052632,5.29411765 C9.43157895,5.29411765 9.57894737,5.43529412 9.57894737,5.64705882 L9.57894737,5.64705882 C9.57894737,5.85882353 9.43157895,6 9.21052632,6 Z" id="Shape" fill="#FFFFFF"></path>
                    <polygon id="Path" fill="#FFFFFF" points="4.05263158 3.88235294 12.8947368 3.88235294 12.8947368 4.58823529 4.05263158 4.58823529"></polygon>
                </g>
            </g>
        </g>
    </g>
</svg>