<?xml version="1.0" encoding="UTF-8"?>
<svg width="14px" height="16px" viewBox="0 0 14 16" version="1.1" xmlns="http://www.w3.org/2000/svg" xmlns:xlink="http://www.w3.org/1999/xlink">
    <title>B0E794B9-9FEE-4A9A-AEA3-79E142EE816E</title>
    <g id="Welcome" stroke="none" stroke-width="1" fill="none" fill-rule="evenodd" stroke-linecap="round" stroke-linejoin="round">
        <g id="Marchand-/-Corbeille" transform="translate(-1271.000000, -362.000000)" stroke="#1A7EF5">
            <g id="Group-20" transform="translate(119.000000, 341.000000)">
                <g id="Group-18" transform="translate(990.000000, 0.000000)">
                    <g id="Group-16" transform="translate(30.000000, 16.000000)">
                        <g id="Group-15" transform="translate(90.000000, 0.000000)">
                            <g id="Group-5-Copy-12" transform="translate(36.000000, 0.000000)">
                                <g id="Waste-Basket" transform="translate(7.250000, 5.500000)">
                                    <line x1="0" y1="1.68457051" x2="11.5" y2="1.68457051" id="Path"></line>
                                    <path d="M7.33703715,15 L4.16296179,15 C3.19314231,15.0033391 2.36274317,14.2784585 2.19847735,13.2851304 L0.699700135,4.01153729 L10.800302,4.01153729 L9.30152159,13.2851304 C9.13725657,14.278459 8.30685695,15.00334 7.33703715,15 L7.33703715,15 Z" id="Path"></path>
                                    <path d="M4.11492574,1.68457051 C4.12271348,0.751852807 4.85247526,0 5.75,0 C6.64752474,0 7.37728652,0.751852807 7.38507426,1.68457051" id="Path"></path>
                                    <line x1="3.63049314" y1="5.79239658" x2="4.16962562" y2="12.5291414" id="Path"></line>
                                    <line x1="5.75" y1="5.79239658" x2="5.75" y2="12.5291414" id="Path"></line>
                                    <line x1="7.86950686" y1="5.79239658" x2="7.33037332" y2="12.5291414" id="Path"></line>
                                </g>
                            </g>
                        </g>
                    </g>
                </g>
            </g>
        </g>
    </g>
</svg>