<svg xmlns="http://www.w3.org/2000/svg" xmlns:xlink="http://www.w3.org/1999/xlink" width="34" height="22" viewBox="0 0 34 22"><defs><polygon id="a" points="-.2 .4 17.8 .4 17.8 6.4 -.2 6.4"/></defs><g fill="none" fill-rule="evenodd"><path fill="#FFF" stroke="#D8D8D8" d="M28,0.5 C29.5187831,0.5 30.8937831,1.11560847 31.8890873,2.1109127 C32.8843915,3.10621694 33.5,4.48121694 33.5,6 L33.5,6 L33.5,16 C33.5,17.5187831 32.8843915,18.8937831 31.8890873,19.8890873 C30.8937831,20.8843915 29.5187831,21.5 28,21.5 L28,21.5 L6,21.5 C4.48121694,21.5 3.10621694,20.8843915 2.1109127,19.8890873 C1.11560847,18.8937831 0.5,17.5187831 0.5,16 L0.5,16 L0.5,6 C0.5,4.48121694 1.11560847,3.10621694 2.1109127,2.1109127 C3.10621694,1.11560847 4.48121694,0.5 6,0.5 L6,0.5 Z"/><polygon fill="#E11F26" points="18.165 3 18.165 3.01 18.086 3.01 18.086 3.02 17.998 3.02 17.998 3.03 17.918 3.03 17.918 3.041 17.849 3.041 17.849 3.051 17.8 3.051 17.8 3.061 17.751 3.061 17.751 3.071 17.701 3.071 17.701 3.081 17.652 3.081 17.652 3.091 17.602 3.091 17.602 3.101 17.553 3.101 17.553 3.111 17.523 3.111 17.523 3.122 17.484 3.122 17.484 3.132 17.444 3.132 17.444 3.142 17.405 3.142 17.405 3.152 17.375 3.152 17.375 3.162 17.336 3.162 17.336 3.172 17.296 3.172 17.296 3.182 17.257 3.182 17.257 3.192 17.227 3.192 17.227 3.203 17.198 3.203 17.198 3.213 17.168 3.213 17.168 3.223 17.138 3.223 17.138 3.233 17.109 3.233 17.109 3.243 17.079 3.243 17.079 3.253 17.049 3.253 17.049 3.263 17.02 3.263 17.02 3.273 16.99 3.273 16.99 3.284 16.961 3.284 16.961 3.294 16.931 3.294 16.931 3.304 16.901 3.304 16.901 3.314 16.872 3.314 16.872 3.324 16.842 3.324 16.842 3.334 16.822 3.334 16.822 3.344 16.793 3.344 16.793 3.354 16.773 3.354 16.773 3.365 16.743 3.365 16.743 3.375 16.723 3.375 16.723 3.385 16.694 3.385 16.694 3.395 16.664 3.395 16.664 3.405 16.644 3.405 16.644 3.415 16.615 3.415 16.615 3.425 16.595 3.425 16.595 3.435 16.565 3.435 16.565 3.446 16.546 3.446 16.546 3.456 16.516 3.456 16.516 3.466 16.496 3.466 16.496 3.476 16.477 3.476 16.477 3.486 16.457 3.486 16.457 3.496 16.427 3.496 16.427 3.506 16.407 3.506 16.407 3.516 16.388 3.516 16.388 3.527 16.368 3.527 16.368 3.537 16.348 3.537 16.348 3.547 16.319 3.547 16.319 3.557 16.299 3.557 16.299 3.567 16.279 3.567 16.279 3.577 16.259 3.577 16.259 3.587 16.24 3.587 16.24 3.597 16.21 3.597 16.21 3.608 16.19 3.608 16.19 3.618 16.17 3.618 16.17 3.628 16.151 3.628 16.151 3.638 16.131 3.638 16.131 3.648 16.111 3.648 16.111 3.658 16.091 3.658 16.091 3.668 16.072 3.668 16.072 3.678 16.052 3.678 16.052 3.689 16.032 3.689 16.032 3.699 16.012 3.699 16.012 3.709 15.993 3.709 15.993 3.719 15.973 3.719 15.973 3.729 15.953 3.729 15.953 3.739 15.933 3.739 15.933 3.749 15.914 3.749 15.914 3.759 15.894 3.759 15.894 3.77 15.884 3.77 15.884 3.78 15.864 3.78 15.864 3.79 15.844 3.79 15.844 3.8 15.825 3.8 15.825 3.81 15.805 3.81 15.805 3.82 15.785 3.82 15.785 3.83 15.765 3.83 15.765 3.84 15.756 3.84 15.756 3.851 15.736 3.851 15.736 3.861 15.716 3.861 15.716 3.871 15.696 3.871 15.696 3.881 15.686 3.881 15.686 3.891 15.667 3.891 15.667 3.901 15.647 3.901 15.647 3.911 15.627 3.911 15.627 3.921 15.617 3.921 15.617 3.932 15.598 3.932 15.598 3.942 15.578 3.942 15.578 3.952 15.558 3.952 15.558 3.962 15.538 3.962 15.538 3.972 15.528 3.972 15.528 3.982 15.509 3.982 15.509 3.992 15.489 3.992 15.489 4.003 15.469 4.003 15.469 4.013 15.459 4.013 15.459 4.023 15.44 4.023 15.44 4.033 15.43 4.033 15.43 4.043 15.41 4.043 15.41 4.053 15.4 4.053 15.4 4.063 15.38 4.063 15.38 4.073 15.36 4.073 15.36 4.083 15.351 4.083 15.351 4.094 15.331 4.094 15.331 4.104 15.321 4.104 15.321 4.114 15.301 4.114 15.301 4.124 15.281 4.124 15.281 4.134 15.272 4.134 15.272 4.144 15.252 4.144 15.252 4.154 15.242 4.154 15.242 4.165 15.222 4.165 15.222 4.175 15.212 4.175 15.212 4.185 15.193 4.185 15.193 4.195 15.173 4.195 15.173 4.205 15.163 4.205 15.163 4.215 15.143 4.215 15.143 4.225 15.133 4.225 15.133 4.235 15.114 4.235 15.114 4.246 15.104 4.246 15.104 4.256 15.084 4.256 15.084 4.266 15.074 4.266 15.074 4.276 15.064 4.276 15.064 4.286 15.044 4.286 15.044 4.296 15.035 4.296 15.035 4.306 15.015 4.306 15.015 4.316 15.005 4.316 15.005 4.327 14.985 4.327 14.985 4.337 14.975 4.337 14.975 4.347 14.965 4.347 14.965 4.357 14.946 4.357 14.946 4.367 14.936 4.367 14.936 4.377 14.916 4.377 14.916 4.387 14.906 4.387 14.906 4.397 14.886 4.397 14.886 4.408 14.877 4.408 14.877 4.418 14.867 4.418 14.867 4.428 14.847 4.428 14.847 4.438 14.837 4.438 14.837 4.448 14.817 4.448 14.817 4.458 14.807 4.458 14.807 4.468 14.797 4.468 14.797 4.479 14.778 4.479 14.778 4.489 14.768 4.489 14.768 4.499 14.758 4.499 14.758 4.509 14.738 4.509 14.738 4.519 14.728 4.519 14.728 4.529 14.718 4.529 14.718 4.539 14.709 4.539 14.709 4.549 14.689 4.549 14.689 4.559 14.679 4.559 14.679 4.57 14.669 4.57 14.669 4.58 14.649 4.58 14.649 4.59 14.639 4.59 14.639 4.6 14.63 4.6 14.63 4.61 14.62 4.61 14.62 4.62 14.6 4.62 14.6 4.63 14.59 4.63 14.59 4.64 14.58 4.64 14.58 4.651 14.56 4.651 14.56 4.661 14.551 4.661 14.551 4.671 14.541 4.671 14.541 4.681 14.521 4.681 14.521 4.691 14.511 4.691 14.511 4.701 14.501 4.701 14.501 4.711 14.491 4.711 14.491 4.721 14.481 4.721 14.481 4.732 14.472 4.732 14.472 4.742 14.452 4.742 14.452 4.752 14.442 4.752 14.442 4.762 14.432 4.762 14.432 4.772 14.422 4.772 14.422 4.782 14.412 4.782 14.412 4.792 14.402 4.792 14.402 4.803 14.383 4.803 14.383 4.813 14.373 4.813 14.373 4.823 14.363 4.823 14.363 4.833 14.353 4.833 14.353 4.843 14.343 4.843 14.343 4.853 14.333 4.853 14.333 4.863 14.314 4.863 14.314 4.873 14.304 4.873 14.304 4.884 14.294 4.884 14.294 4.894 14.284 4.894 14.284 4.904 14.274 4.904 14.274 4.914 14.264 4.914 14.264 4.924 14.244 4.924 14.244 4.934 14.235 4.934 14.235 4.944 14.225 4.944 14.225 4.954 14.215 4.954 14.215 4.965 14.205 4.965 14.205 4.975 14.195 4.975 14.195 4.985 14.185 4.985 14.185 4.995 14.175 4.995 14.175 5.005 14.165 5.005 14.165 5.015 14.156 5.015 14.156 5.025 14.146 5.025 14.146 5.035 14.136 5.035 14.136 5.046 14.126 5.046 14.126 5.056 14.116 5.056 14.116 5.066 14.106 5.066 14.106 5.076 14.096 5.076 14.096 5.086 14.086 5.086 14.086 5.096 14.077 5.096 14.077 5.106 14.067 5.106 14.067 5.116 14.057 5.116 14.057 5.127 14.047 5.127 14.047 5.137 14.027 5.137 14.027 5.147 14.017 5.147 14.017 5.157 14.007 5.157 14.007 5.167 13.997 5.167 13.997 5.177 13.988 5.177 13.988 5.187 13.978 5.187 13.978 5.197 13.968 5.197 13.968 5.208 13.958 5.208 13.958 5.218 13.948 5.218 13.948 5.228 13.938 5.228 13.938 5.238 13.928 5.238 13.928 5.258 13.918 5.258 13.918 5.268 13.909 5.268 13.909 5.279 13.899 5.279 13.899 5.289 13.889 5.289 13.889 5.299 13.879 5.299 13.879 5.309 13.869 5.309 13.869 5.319 13.859 5.319 13.859 5.329 13.849 5.329 13.849 5.339 13.84 5.339 13.84 5.349 13.83 5.349 13.83 5.37 13.82 5.37 13.82 5.38 13.81 5.38 13.81 5.39 13.8 5.39 13.8 5.4 13.79 5.4 13.79 5.41 13.78 5.41 13.78 5.42 13.77 5.42 13.77 5.43 13.76 5.43 13.76 5.441 13.751 5.441 13.751 5.451 13.741 5.451 13.741 5.471 13.731 5.471 13.731 5.481 13.721 5.481 13.721 5.491 13.711 5.491 13.711 5.501 13.701 5.501 13.701 5.511 13.691 5.511 13.691 5.521 13.681 5.521 13.681 5.542 13.672 5.542 13.672 5.552 13.662 5.552 13.662 5.562 13.652 5.562 13.652 5.582 13.642 5.582 13.642 5.592 13.632 5.592 13.632 5.603 13.622 5.603 13.622 5.613 13.612 5.613 13.612 5.633 13.602 5.633 13.602 5.643 13.593 5.643 13.593 5.653 13.583 5.653 13.583 5.673 13.573 5.673 13.573 5.684 13.563 5.684 13.563 5.694 13.553 5.694 13.553 5.704 13.543 5.704 13.543 5.724 13.533 5.724 13.533 5.734 13.523 5.734 13.523 5.744 13.514 5.744 13.514 5.765 13.504 5.765 13.504 5.775 13.494 5.775 13.494 5.785 13.484 5.785 13.484 5.805 13.474 5.805 13.474 5.815 13.464 5.815 13.464 5.835 13.454 5.835 13.454 5.846 13.444 5.846 13.444 5.856 13.435 5.856 13.435 5.876 13.425 5.876 13.425 5.886 13.415 5.886 13.415 5.906 13.405 5.906 13.405 5.916 13.395 5.916 13.395 5.937 13.385 5.937 13.385 5.957 13.375 5.957 13.375 5.967 13.365 5.967 13.365 5.987 13.356 5.987 13.356 5.997 13.346 5.997 13.346 6.018 13.336 6.018 13.336 6.038 13.326 6.038 13.326 6.048 13.316 6.048 13.316 6.068 13.306 6.068 13.306 6.078 13.296 6.078 13.296 6.099 13.286 6.099 13.286 6.119 13.276 6.119 13.276 6.139 13.267 6.139 13.267 6.159 13.257 6.159 13.257 6.17 13.247 6.17 13.247 6.19 13.237 6.19 13.237 6.21 13.227 6.21 13.227 6.23 13.217 6.23 13.217 6.251 13.207 6.251 13.207 6.271 13.197 6.271 13.197 6.291 13.188 6.291 13.188 6.311 13.178 6.311 13.178 6.332 13.168 6.332 13.168 6.352 13.158 6.352 13.158 6.382 13.148 6.382 13.148 6.403 13.138 6.403 13.138 6.423 13.128 6.423 13.128 6.453 13.119 6.453 13.119 6.473 13.109 6.473 13.109 6.504 13.099 6.504 13.099 6.534 13.089 6.534 13.089 6.554 13.079 6.554 13.079 6.595 13.069 6.595 13.069 6.625 13.059 6.625 13.059 6.656 13.049 6.656 13.049 6.696 13.039 6.696 13.039 6.747 13.03 6.747 13.03 6.787 13.02 6.787 13.02 6.858 13.01 6.858 13.01 6.98 13 6.98 13 7.091 13.01 7.091 13.01 7.192 13.02 7.192 13.02 7.243 13.03 7.243 13.03 7.284 13.039 7.284 13.039 7.324 13.049 7.324 13.049 7.354 13.059 7.354 13.059 7.385 13.069 7.385 13.069 7.415 13.079 7.415 13.079 7.435 13.089 7.435 13.089 7.456 13.099 7.456 13.099 7.476 13.109 7.476 13.109 7.496 13.119 7.496 13.119 7.516 13.128 7.516 13.128 7.537 13.138 7.537 13.138 7.557 13.148 7.557 13.148 7.567 13.158 7.567 13.158 7.587 13.168 7.587 13.168 7.597 13.178 7.597 13.178 7.618 13.188 7.618 13.188 7.628 13.197 7.628 13.197 7.648 13.207 7.648 13.207 7.658 13.217 7.658 13.217 7.668 13.227 7.668 13.227 7.679 13.237 7.679 13.237 7.689 13.247 7.689 13.247 7.699 13.257 7.699 13.257 7.709 13.267 7.709 13.267 7.719 13.276 7.719 13.276 7.729 13.286 7.729 13.286 7.739 13.296 7.739 13.296 7.749 13.306 7.749 13.306 7.76 13.316 7.76 13.316 7.77 13.326 7.77 13.326 7.78 13.336 7.78 13.336 7.79 13.346 7.79 13.346 7.8 13.356 7.8 13.356 7.81 13.365 7.81 13.365 7.82 13.375 7.82 13.375 7.83 13.385 7.83 13.385 7.841 13.405 7.841 13.405 7.851 13.415 7.851 13.415 7.861 13.435 7.861 13.435 7.871 13.444 7.871 13.444 7.881 13.464 7.881 13.464 7.891 13.474 7.891 13.474 7.901 13.494 7.901 13.494 7.911 13.504 7.911 13.504 7.921 13.523 7.921 13.523 7.932 13.533 7.932 13.533 7.942 13.553 7.942 13.553 7.952 13.563 7.952 13.563 7.962 13.583 7.962 13.583 7.972 13.602 7.972 13.602 7.982 13.632 7.982 13.632 7.992 13.652 7.992 13.652 8.003 13.672 8.003 13.672 8.013 13.701 8.013 13.701 8.023 13.721 8.023 13.721 8.033 13.741 8.033 13.741 8.043 13.78 8.043 13.78 8.053 13.83 8.053 13.83 8.063 13.879 8.063 13.879 8.073 13.928 8.073 13.928 8.084 14.175 8.084 14.175 8.073 14.244 8.073 14.244 8.063 14.304 8.063 14.304 8.053 14.343 8.053 14.343 8.043 14.383 8.043 14.383 8.033 14.412 8.033 14.412 8.023 14.442 8.023 14.442 8.013 14.481 8.013 14.481 8.003 14.511 8.003 14.511 7.992 14.531 7.992 14.531 7.982 14.56 7.982 14.56 7.972 14.58 7.972 14.58 7.962 14.6 7.962 14.6 7.952 14.63 7.952 14.63 7.942 14.649 7.942 14.649 7.932 14.669 7.932 14.669 7.921 14.689 7.921 14.689 7.911 14.709 7.911 14.709 7.901 14.728 7.901 14.728 7.891 14.748 7.891 14.748 7.881 14.768 7.881 14.768 7.871 14.788 7.871 14.788 7.861 14.807 7.861 14.807 7.851 14.827 7.851 14.827 7.841 14.847 7.841 14.847 7.83 14.867 7.83 14.867 7.82 14.877 7.82 14.877 7.81 14.896 7.81 14.896 7.8 14.906 7.8 14.906 7.79 14.926 7.79 14.926 7.78 14.946 7.78 14.946 7.77 14.956 7.77 14.956 7.76 14.975 7.76 14.975 7.749 14.995 7.749 14.995 7.739 15.005 7.739 15.005 7.729 15.025 7.729 15.025 7.719 15.035 7.719 15.035 7.709 15.054 7.709 15.054 7.699 15.064 7.699 15.064 7.689 15.084 7.689 15.084 7.679 15.094 7.679 15.094 7.668 15.114 7.668 15.114 7.658 15.123 7.658 15.123 7.648 15.143 7.648 15.143 7.638 15.153 7.638 15.153 7.628 15.173 7.628 15.173 7.618 15.183 7.618 15.183 7.608 15.203 7.608 15.203 7.597 15.212 7.597 15.212 7.587 15.222 7.587 15.222 7.577 15.242 7.577 15.242 7.567 15.252 7.567 15.252 7.557 15.262 7.557 15.262 7.547 15.281 7.547 15.281 7.537 15.291 7.537 15.291 7.527 15.311 7.527 15.311 7.516 15.321 7.516 15.321 7.506 15.331 7.506 15.331 7.496 15.351 7.496 15.351 7.486 15.36 7.486 15.36 7.476 15.37 7.476 15.37 7.466 15.39 7.466 15.39 7.456 15.4 7.456 15.4 7.446 15.41 7.446 15.41 7.435 15.43 7.435 15.43 7.425 15.44 7.425 15.44 7.415 15.449 7.415 15.449 7.405 15.469 7.405 15.469 7.395 15.479 7.395 15.479 7.385 15.489 7.385 15.489 7.375 15.509 7.375 15.509 7.365 15.519 7.365 15.519 7.354 15.528 7.354 15.528 7.344 15.538 7.344 15.538 7.334 15.558 7.334 15.558 7.324 15.568 7.324 15.568 7.314 15.578 7.314 15.578 7.304 15.598 7.304 15.598 7.294 15.607 7.294 15.607 7.284 15.617 7.284 15.617 7.273 15.637 7.273 15.637 7.263 15.647 7.263 15.647 7.253 15.657 7.253 15.657 7.243 15.667 7.243 15.667 7.233 15.686 7.233 15.686 7.223 15.696 7.223 15.696 7.213 15.706 7.213 15.706 7.203 15.726 7.203 15.726 7.192 15.736 7.192 15.736 7.182 15.746 7.182 15.746 7.172 15.765 7.172 15.765 7.162 15.775 7.162 15.775 7.152 15.785 7.152 15.785 7.142 15.805 7.142 15.805 7.132 15.815 7.132 15.815 7.121 15.825 7.121 15.825 7.111 15.844 7.111 15.844 7.101 15.854 7.101 15.854 7.091 15.864 7.091 15.864 7.081 15.884 7.081 15.884 7.071 15.894 7.071 15.894 7.061 15.914 7.061 15.914 7.051 15.923 7.051 15.923 7.04 15.933 7.04 15.933 7.03 15.953 7.03 15.953 7.02 15.963 7.02 15.963 7.01 15.983 7.01 15.983 7 15.993 7 15.993 6.99 16.012 6.99 16.012 6.98 16.022 6.98 16.022 6.97 16.042 6.97 16.042 6.959 16.052 6.959 16.052 6.949 16.072 6.949 16.072 6.939 16.081 6.939 16.081 6.929 16.091 6.929 16.091 6.919 16.111 6.919 16.111 6.909 16.121 6.909 16.121 6.899 16.141 6.899 16.141 6.889 16.151 6.889 16.151 6.879 16.17 6.879 16.17 6.868 16.18 6.868 16.18 6.858 16.2 6.858 16.2 6.848 16.21 6.848 16.21 6.838 16.23 6.838 16.23 6.828 16.24 6.828 16.24 6.818 16.259 6.818 16.259 6.808 16.269 6.808 16.269 6.797 16.289 6.797 16.289 6.787 16.299 6.787 16.299 6.777 16.319 6.777 16.319 6.767 16.328 6.767 16.328 6.757 16.348 6.757 16.348 6.747 16.358 6.747 16.358 6.737 16.368 6.737 16.368 6.727 16.388 6.727 16.388 6.716 16.398 6.716 16.398 6.706 16.417 6.706 16.417 6.696 16.427 6.696 16.427 6.686 16.447 6.686 16.447 6.676 16.457 6.676 16.457 6.666 16.477 6.666 16.477 6.656 16.486 6.656 16.486 6.646 16.506 6.646 16.506 6.635 16.516 6.635 16.516 6.625 16.536 6.625 16.536 6.615 16.546 6.615 16.546 6.605 16.565 6.605 16.565 6.595 16.575 6.595 16.575 6.585 16.595 6.585 16.595 6.575 16.605 6.575 16.605 6.565 16.625 6.565 16.625 6.554 16.635 6.554 16.635 6.544 16.654 6.544 16.654 6.534 16.664 6.534 16.664 6.524 16.684 6.524 16.684 6.514 16.694 6.514 16.694 6.504 16.714 6.504 16.714 6.494 16.723 6.494 16.723 6.483 16.743 6.483 16.743 6.473 16.753 6.473 16.753 6.463 16.773 6.463 16.773 6.453 16.783 6.453 16.783 6.443 16.802 6.443 16.802 6.433 16.812 6.433 16.812 6.423 16.832 6.423 16.832 6.413 16.842 6.413 16.842 6.403 16.862 6.403 16.862 6.392 16.872 6.392 16.872 6.382 16.891 6.382 16.891 6.372 16.901 6.372 16.901 6.362 16.921 6.362 16.921 6.352 16.941 6.352 16.941 6.342 16.951 6.342 16.951 6.332 16.97 6.332 16.97 6.321 16.98 6.321 16.98 6.311 17 6.311 17 6.301 17.01 6.301 17.01 6.291 17.03 6.291 17.03 6.281 17.04 6.281 17.04 6.271 17.059 6.271 17.059 6.261 17.069 6.261 17.069 6.251 17.089 6.251 17.089 6.24 17.109 6.24 17.109 6.23 17.119 6.23 17.119 6.22 17.138 6.22 17.138 6.21 17.148 6.21 17.148 6.2 17.168 6.2 17.168 6.19 17.188 6.19 17.188 6.18 17.198 6.18 17.198 6.17 17.217 6.17 17.217 6.159 17.227 6.159 17.227 6.149 17.247 6.149 17.247 6.139 17.257 6.139 17.257 6.129 17.277 6.129 17.277 6.119 17.296 6.119 17.296 6.109 17.306 6.109 17.306 6.099 17.326 6.099 17.326 6.089 17.346 6.089 17.346 6.078 17.356 6.078 17.356 6.068 17.375 6.068 17.375 6.058 17.395 6.058 17.395 6.048 17.405 6.048 17.405 6.038 17.425 6.038 17.425 6.028 17.444 6.028 17.444 6.018 17.454 6.018 17.454 6.008 17.474 6.008 17.474 5.997 17.494 5.997 17.494 5.987 17.504 5.987 17.504 5.977 17.523 5.977 17.523 5.967 17.543 5.967 17.543 5.957 17.553 5.957 17.553 5.947 17.573 5.947 17.573 5.937 17.593 5.937 17.593 5.927 17.612 5.927 17.612 5.916 17.622 5.916 17.622 5.906 17.642 5.906 17.642 5.896 17.662 5.896 17.662 5.886 17.681 5.886 17.681 5.876 17.691 5.876 17.691 5.866 17.711 5.866 17.711 5.856 17.731 5.856 17.731 5.846 17.751 5.846 17.751 5.835 17.77 5.835 17.77 5.825 17.78 5.825 17.78 5.815 17.8 5.815 17.8 5.805 17.82 5.805 17.82 5.795 17.84 5.795 17.84 5.785 17.859 5.785 17.859 5.775 17.879 5.775 17.879 5.765 17.899 5.765 17.899 5.754 17.918 5.754 17.918 5.744 17.938 5.744 17.938 5.734 17.958 5.734 17.958 5.724 17.978 5.724 17.978 5.714 17.998 5.714 17.998 5.704 18.017 5.704 18.017 5.694 18.027 5.694 18.027 5.684 18.057 5.684 18.057 5.673 18.077 5.673 18.077 5.663 18.096 5.663 18.096 5.653 18.116 5.653 18.116 5.643 18.136 5.643 18.136 5.633 18.165 5.633 18.165 5.623 18.185 5.623 18.185 5.613 18.205 5.613 18.205 5.603 18.225 5.603 18.225 5.592 18.244 5.592 18.244 5.582 18.274 5.582 18.274 5.572 18.294 5.572 18.294 5.562 18.323 5.562 18.323 5.552 18.343 5.552 18.343 5.542 18.373 5.542 18.373 5.532 18.402 5.532 18.402 5.521 18.422 5.521 18.422 5.511 18.452 5.511 18.452 5.501 18.472 5.501 18.472 5.491 18.501 5.491 18.501 5.481 18.541 5.481 18.541 5.471 18.57 5.471 18.57 5.461 18.61 5.461 18.61 5.451 18.639 5.451 18.639 5.441 18.679 5.441 18.679 5.43 18.718 5.43 18.718 5.42 18.768 5.42 18.768 5.41 18.827 5.41 18.827 5.4 18.877 5.4 18.877 5.39 19.044 5.39 19.044 5.38 19.064 5.38 19.064 5.39 19.153 5.39 19.153 5.4 19.232 5.4 19.232 5.41 19.262 5.41 19.262 5.42 19.291 5.42 19.291 5.43 19.321 5.43 19.321 5.441 19.341 5.441 19.341 5.451 19.37 5.451 19.37 5.461 19.39 5.461 19.39 5.471 19.41 5.471 19.41 5.481 19.42 5.481 19.42 5.491 19.44 5.491 19.44 5.501 19.459 5.501 19.459 5.511 19.469 5.511 19.469 5.521 19.489 5.521 19.489 5.532 19.499 5.532 19.499 5.542 19.519 5.542 19.519 5.552 19.528 5.552 19.528 5.562 19.538 5.562 19.538 5.572 19.548 5.572 19.548 5.582 19.558 5.582 19.558 5.592 19.568 5.592 19.568 5.603 19.578 5.603 19.578 5.613 19.588 5.613 19.588 5.623 19.598 5.623 19.598 5.633 19.607 5.633 19.607 5.643 19.617 5.643 19.617 5.653 19.627 5.653 19.627 5.673 19.637 5.673 19.637 5.684 19.647 5.684 19.647 5.694 19.657 5.694 19.657 5.714 19.667 5.714 19.667 5.724 19.677 5.724 19.677 5.744 19.686 5.744 19.686 5.754 19.696 5.754 19.696 5.775 19.706 5.775 19.706 5.795 19.716 5.795 19.716 5.805 19.726 5.805 19.726 5.825 19.736 5.825 19.736 5.846 19.746 5.846 19.746 5.866 19.756 5.866 19.756 5.886 19.765 5.886 19.765 5.916 19.775 5.916 19.775 5.937 19.785 5.937 19.785 5.967 19.795 5.967 19.795 5.987 19.805 5.987 19.805 6.018 19.815 6.018 19.815 6.048 19.825 6.048 19.825 6.089 19.835 6.089 19.835 6.119 19.844 6.119 19.844 6.159 19.854 6.159 19.854 6.22 19.864 6.22 19.864 6.271 19.874 6.271 19.874 6.382 19.884 6.382 19.884 6.635 19.874 6.635 19.874 6.716 19.864 6.716 19.864 6.808 19.854 6.808 19.854 6.858 19.844 6.858 19.844 6.909 19.835 6.909 19.835 6.949 19.825 6.949 19.825 7 19.815 7 19.815 7.04 19.805 7.04 19.805 7.081 19.795 7.081 19.795 7.111 19.785 7.111 19.785 7.142 19.775 7.142 19.775 7.172 19.765 7.172 19.765 7.213 19.756 7.213 19.756 7.243 19.746 7.243 19.746 7.273 19.736 7.273 19.736 7.304 19.726 7.304 19.726 7.324 19.716 7.324 19.716 7.354 19.706 7.354 19.706 7.375 19.696 7.375 19.696 7.405 19.686 7.405 19.686 7.425 19.677 7.425 19.677 7.456 19.667 7.456 19.667 7.476 19.657 7.476 19.657 7.506 19.647 7.506 19.647 7.527 19.637 7.527 19.637 7.547 19.627 7.547 19.627 7.567 19.617 7.567 19.617 7.587 19.607 7.587 19.607 7.618 19.598 7.618 19.598 7.638 19.588 7.638 19.588 7.658 19.578 7.658 19.578 7.679 19.568 7.679 19.568 7.699 19.558 7.699 19.558 7.709 19.548 7.709 19.548 7.729 19.538 7.729 19.538 7.749 19.528 7.749 19.528 7.77 19.519 7.77 19.519 7.79 19.509 7.79 19.509 7.8 19.499 7.8 19.499 7.82 19.489 7.82 19.489 7.841 19.479 7.841 19.479 7.851 19.469 7.851 19.469 7.871 19.459 7.871 19.459 7.891 19.449 7.891 19.449 7.901 19.44 7.901 19.44 7.921 19.43 7.921 19.43 7.942 19.42 7.942 19.42 7.952 19.41 7.952 19.41 7.972 19.4 7.972 19.4 7.982 19.39 7.982 19.39 8.003 19.38 8.003 19.38 8.013 19.37 8.013 19.37 8.033 19.361 8.033 19.361 8.043 19.351 8.043 19.351 8.063 19.341 8.063 19.341 8.073 19.331 8.073 19.331 8.094 19.321 8.094 19.321 8.104 19.311 8.104 19.311 8.124 19.301 8.124 19.301 8.134 19.291 8.134 19.291 8.144 19.281 8.144 19.281 8.165 19.272 8.165 19.272 8.175 19.262 8.175 19.262 8.185 19.252 8.185 19.252 8.205 19.242 8.205 19.242 8.215 19.232 8.215 19.232 8.225 19.222 8.225 19.222 8.246 19.212 8.246 19.212 8.256 19.203 8.256 19.203 8.276 19.193 8.276 19.193 8.286 19.183 8.286 19.183 8.296 19.173 8.296 19.173 8.306 19.163 8.306 19.163 8.327 19.153 8.327 19.153 8.337 19.143 8.337 19.143 8.347 19.133 8.347 19.133 8.357 19.124 8.357 19.124 8.377 19.114 8.377 19.114 8.387 19.104 8.387 19.104 8.397 19.094 8.397 19.094 8.408 19.084 8.408 19.084 8.428 19.074 8.428 19.074 8.438 19.064 8.438 19.064 8.448 19.054 8.448 19.054 8.458 19.044 8.458 19.044 8.468 19.035 8.468 19.035 8.489 19.025 8.489 19.025 8.499 19.015 8.499 19.015 8.509 19.005 8.509 19.005 8.519 18.995 8.519 18.995 8.529 18.985 8.529 18.985 8.549 18.975 8.549 18.975 8.559 18.965 8.559 18.965 8.57 18.956 8.57 18.956 8.58 18.946 8.58 18.946 8.59 18.936 8.59 18.936 8.6 18.926 8.6 18.926 8.61 18.916 8.61 18.916 8.62 18.906 8.62 18.906 8.64 18.896 8.64 18.896 8.651 18.886 8.651 18.886 8.661 18.877 8.661 18.877 8.671 18.867 8.671 18.867 8.681 18.857 8.681 18.857 8.691 18.847 8.691 18.847 8.701 18.837 8.701 18.837 8.711 18.827 8.711 18.827 8.721 18.817 8.721 18.817 8.742 18.807 8.742 18.807 8.752 18.798 8.752 18.798 8.762 18.788 8.762 18.788 8.772 18.778 8.772 18.778 8.782 18.768 8.782 18.768 8.792 18.758 8.792 18.758 8.803 18.748 8.803 18.748 8.813 18.738 8.813 18.738 8.823 18.728 8.823 18.728 8.833 18.718 8.833 18.718 8.843 18.709 8.843 18.709 8.853 18.699 8.853 18.699 8.863 18.689 8.863 18.689 8.873 18.679 8.873 18.679 8.883 18.669 8.883 18.669 8.894 18.659 8.894 18.659 8.904 18.649 8.904 18.649 8.914 18.639 8.914 18.639 8.924 18.63 8.924 18.63 8.934 18.62 8.934 18.62 8.944 18.61 8.944 18.61 8.954 18.6 8.954 18.6 8.965 18.59 8.965 18.59 8.975 18.58 8.975 18.58 8.985 18.57 8.985 18.57 8.995 18.561 8.995 18.561 9.005 18.551 9.005 18.551 9.015 18.541 9.015 18.541 9.025 18.531 9.025 18.531 9.035 18.521 9.035 18.521 9.046 18.511 9.046 18.511 9.056 18.501 9.056 18.501 9.066 18.491 9.066 18.491 9.076 18.481 9.076 18.481 9.086 18.472 9.086 18.472 9.096 18.462 9.096 18.462 9.106 18.452 9.106 18.452 9.116 18.442 9.116 18.442 9.127 18.432 9.127 18.432 9.137 18.422 9.137 18.422 9.147 18.412 9.147 18.412 9.157 18.402 9.157 18.402 9.167 18.383 9.167 18.383 9.177 18.373 9.177 18.373 9.187 18.363 9.187 18.363 9.197 18.353 9.197 18.353 9.208 18.343 9.208 18.343 9.218 18.333 9.218 18.333 9.228 18.323 9.228 18.323 9.238 18.314 9.238 18.314 9.248 18.304 9.248 18.304 9.258 18.294 9.258 18.294 9.268 18.274 9.268 18.274 9.279 18.264 9.279 18.264 9.289 18.254 9.289 18.254 9.299 18.244 9.299 18.244 9.309 18.235 9.309 18.235 9.319 18.225 9.319 18.225 9.329 18.215 9.329 18.215 9.339 18.205 9.339 18.205 9.349 18.185 9.349 18.185 9.359 18.175 9.359 18.175 9.37 18.165 9.37 18.165 9.38 18.156 9.38 18.156 9.39 18.146 9.39 18.146 9.4 18.136 9.4 18.136 9.41 18.126 9.41 18.126 9.42 18.106 9.42 18.106 9.43 18.096 9.43 18.096 9.44 18.086 9.44 18.086 9.451 18.077 9.451 18.077 9.461 18.067 9.461 18.067 9.471 18.047 9.471 18.047 9.481 18.037 9.481 18.037 9.491 18.027 9.491 18.027 9.501 18.017 9.501 18.017 9.511 18.007 9.511 18.007 9.521 17.988 9.521 17.988 9.532 17.978 9.532 17.978 9.542 17.968 9.542 17.968 9.552 17.958 9.552 17.958 9.562 17.948 9.562 17.948 9.572 17.928 9.572 17.928 9.582 17.918 9.582 17.918 9.592 17.909 9.592 17.909 9.603 17.899 9.603 17.899 9.613 17.879 9.613 17.879 9.623 17.869 9.623 17.869 9.633 17.859 9.633 17.859 9.643 17.849 9.643 17.849 9.653 17.83 9.653 17.83 9.663 17.82 9.663 17.82 9.673 17.81 9.673 17.81 9.684 17.8 9.684 17.8 9.694 17.78 9.694 17.78 9.704 17.77 9.704 17.77 9.714 17.761 9.714 17.761 9.724 17.751 9.724 17.751 9.734 17.731 9.734 17.731 9.744 17.721 9.744 17.721 9.754 17.711 9.754 17.711 9.765 17.691 9.765 17.691 9.775 17.681 9.775 17.681 9.785 17.672 9.785 17.672 9.795 17.652 9.795 17.652 9.805 17.642 9.805 17.642 9.815 17.632 9.815 17.632 9.825 17.612 9.825 17.612 9.835 17.602 9.835 17.602 9.846 17.593 9.846 17.593 9.856 17.573 9.856 17.573 9.866 17.563 9.866 17.563 9.876 17.553 9.876 17.553 9.886 17.533 9.886 17.533 9.896 17.523 9.896 17.523 9.906 17.514 9.906 17.514 9.916 17.494 9.916 17.494 9.927 17.484 9.927 17.484 9.937 17.464 9.937 17.464 9.947 17.454 9.947 17.454 9.957 17.444 9.957 17.444 9.967 17.425 9.967 17.425 9.977 17.415 9.977 17.415 9.987 17.395 9.987 17.395 9.997 17.385 9.997 17.385 10.008 17.365 10.008 17.365 10.018 17.356 10.018 17.356 10.028 17.346 10.028 17.346 10.038 17.326 10.038 17.326 10.048 17.316 10.048 17.316 10.058 17.296 10.058 17.296 10.068 17.286 10.068 17.286 10.079 17.267 10.079 17.267 10.089 17.257 10.089 17.257 10.099 17.237 10.099 17.237 10.109 17.227 10.109 17.227 10.119 17.207 10.119 17.207 10.129 17.198 10.129 17.198 10.139 17.178 10.139 17.178 10.149 17.168 10.149 17.168 10.16 17.148 10.16 17.148 10.17 17.138 10.17 17.138 10.18 17.119 10.18 17.119 10.19 17.099 10.19 17.099 10.2 17.089 10.2 17.089 10.21 17.069 10.21 17.069 10.22 17.059 10.22 17.059 10.23 17.04 10.23 17.04 10.24 17.02 10.24 17.02 10.251 17.01 10.251 17.01 10.261 16.99 10.261 16.99 10.271 16.98 10.271 16.98 10.281 16.961 10.281 16.961 10.291 16.941 10.291 16.941 10.301 16.921 10.301 16.921 10.311 16.911 10.311 16.911 10.321 16.891 10.321 16.891 10.332 16.872 10.332 16.872 10.342 16.862 10.342 16.862 10.352 16.842 10.352 16.842 10.362 16.822 10.362 16.822 10.372 16.802 10.372 16.802 10.382 16.793 10.382 16.793 10.392 16.773 10.392 16.773 10.403 16.753 10.403 16.753 10.413 16.733 10.413 16.733 10.423 16.714 10.423 16.714 10.433 16.694 10.433 16.694 10.443 16.684 10.443 16.684 10.453 16.664 10.453 16.664 10.463 16.644 10.463 16.644 10.473 16.625 10.473 16.625 10.484 16.605 10.484 16.605 10.494 16.585 10.494 16.585 10.504 16.565 10.504 16.565 10.514 16.546 10.514 16.546 10.524 16.526 10.524 16.526 10.534 16.496 10.534 16.496 10.544 16.477 10.544 16.477 10.554 16.457 10.554 16.457 10.565 16.437 10.565 16.437 10.575 16.417 10.575 16.417 10.585 16.388 10.585 16.388 10.595 16.368 10.595 16.368 10.605 16.338 10.605 16.338 10.615 16.319 10.615 16.319 10.625 16.289 10.625 16.289 10.635 16.259 10.635 16.259 10.646 16.24 10.646 16.24 10.656 16.2 10.656 16.2 10.666 16.17 10.666 16.17 10.676 16.141 10.676 16.141 10.686 16.101 10.686 16.101 10.696 16.052 10.696 16.052 10.706 15.983 10.706 15.983 10.716 15.884 10.716 15.884 10.706 15.844 10.706 15.844 10.696 15.815 10.696 15.815 10.686 15.795 10.686 15.795 10.676 15.775 10.676 15.775 10.666 15.765 10.666 15.765 10.656 15.756 10.656 15.756 10.646 15.746 10.646 15.746 10.635 15.736 10.635 15.736 10.615 15.726 10.615 15.726 10.595 15.716 10.595 15.716 10.575 15.706 10.575 15.706 10.544 15.696 10.544 15.696 10.443 15.706 10.443 15.706 10.392 15.716 10.392 15.716 10.362 15.726 10.362 15.726 10.332 15.736 10.332 15.736 10.311 15.746 10.311 15.746 10.291 15.756 10.291 15.756 10.271 15.765 10.271 15.765 10.251 15.775 10.251 15.775 10.23 15.785 10.23 15.785 10.21 15.795 10.21 15.795 10.2 15.805 10.2 15.805 10.18 15.815 10.18 15.815 10.16 15.825 10.16 15.825 10.149 15.835 10.149 15.835 10.129 15.844 10.129 15.844 10.119 15.854 10.119 15.854 10.099 15.864 10.099 15.864 10.089 15.874 10.089 15.874 10.068 15.884 10.068 15.884 10.058 15.894 10.058 15.894 10.048 15.904 10.048 15.904 10.028 15.914 10.028 15.914 10.018 15.923 10.018 15.923 10.008 15.933 10.008 15.933 9.987 15.943 9.987 15.943 9.977 15.953 9.977 15.953 9.967 15.963 9.967 15.963 9.947 15.973 9.947 15.973 9.937 15.983 9.937 15.983 9.927 15.993 9.927 15.993 9.916 16.002 9.916 16.002 9.906 16.012 9.906 16.012 9.886 16.022 9.886 16.022 9.876 16.032 9.876 16.032 9.866 16.042 9.866 16.042 9.856 16.052 9.856 16.052 9.846 16.062 9.846 16.062 9.835 16.072 9.835 16.072 9.815 16.081 9.815 16.081 9.805 16.091 9.805 16.091 9.795 16.101 9.795 16.101 9.785 16.111 9.785 16.111 9.775 16.121 9.775 16.121 9.765 16.131 9.765 16.131 9.754 16.141 9.754 16.141 9.744 16.151 9.744 16.151 9.734 16.16 9.734 16.16 9.724 16.17 9.724 16.17 9.704 16.18 9.704 16.18 9.694 16.19 9.694 16.19 9.684 16.2 9.684 16.2 9.673 16.21 9.673 16.21 9.663 16.22 9.663 16.22 9.653 16.23 9.653 16.23 9.643 16.24 9.643 16.24 9.633 16.249 9.633 16.249 9.623 16.259 9.623 16.259 9.613 16.269 9.613 16.269 9.603 16.279 9.603 16.279 9.592 16.289 9.592 16.289 9.582 16.299 9.582 16.299 9.572 16.309 9.572 16.309 9.562 16.319 9.562 16.319 9.552 16.328 9.552 16.328 9.542 16.338 9.542 16.338 9.532 16.348 9.532 16.348 9.521 16.358 9.521 16.358 9.511 16.368 9.511 16.368 9.501 16.378 9.501 16.378 9.491 16.388 9.491 16.388 9.481 16.398 9.481 16.398 9.471 16.407 9.471 16.407 9.461 16.417 9.461 16.417 9.451 16.427 9.451 16.427 9.44 16.437 9.44 16.437 9.43 16.447 9.43 16.447 9.42 16.457 9.42 16.457 9.41 16.467 9.41 16.467 9.4 16.477 9.4 16.477 9.39 16.486 9.39 16.486 9.38 16.496 9.38 16.496 9.37 16.506 9.37 16.506 9.359 16.516 9.359 16.516 9.349 16.526 9.349 16.526 9.339 16.536 9.339 16.536 9.329 16.546 9.329 16.546 9.319 16.556 9.319 16.556 9.309 16.565 9.309 16.565 9.299 16.575 9.299 16.575 9.289 16.585 9.289 16.585 9.279 16.595 9.279 16.595 9.268 16.605 9.268 16.605 9.258 16.615 9.258 16.615 9.248 16.625 9.248 16.625 9.238 16.635 9.238 16.635 9.228 16.644 9.228 16.644 9.218 16.654 9.218 16.654 9.208 16.664 9.208 16.664 9.197 16.674 9.197 16.674 9.187 16.684 9.187 16.684 9.177 16.694 9.177 16.694 9.167 16.714 9.167 16.714 9.157 16.723 9.157 16.723 9.137 16.733 9.137 16.733 9.127 16.743 9.127 16.743 9.116 16.753 9.116 16.753 9.106 16.763 9.106 16.763 9.096 16.773 9.096 16.773 9.086 16.783 9.086 16.783 9.076 16.793 9.076 16.793 9.066 16.802 9.066 16.802 9.056 16.812 9.056 16.812 9.046 16.822 9.046 16.822 9.035 16.832 9.035 16.832 9.015 16.842 9.015 16.842 9.005 16.852 9.005 16.852 8.995 16.862 8.995 16.862 8.985 16.872 8.985 16.872 8.975 16.881 8.975 16.881 8.965 16.891 8.965 16.891 8.944 16.901 8.944 16.901 8.934 16.911 8.934 16.911 8.924 16.921 8.924 16.921 8.904 16.931 8.904 16.931 8.894 16.941 8.894 16.941 8.883 16.951 8.883 16.951 8.873 16.961 8.873 16.961 8.853 16.97 8.853 16.97 8.843 16.98 8.843 16.98 8.823 16.99 8.823 16.99 8.813 17 8.813 17 8.792 17.01 8.792 17.01 8.772 17.02 8.772 17.02 8.762 17.03 8.762 17.03 8.742 17.04 8.742 17.04 8.721 17.049 8.721 17.049 8.711 17.059 8.711 17.059 8.681 17.069 8.681 17.069 8.651 17.079 8.651 17.079 8.62 17.089 8.62 17.089 8.6 17.099 8.6 17.099 8.448 17.089 8.448 17.089 8.408 17.079 8.408 17.079 8.377 17.069 8.377 17.069 8.367 17.059 8.367 17.059 8.347 17.049 8.347 17.049 8.337 17.04 8.337 17.04 8.316 17.03 8.316 17.03 8.306 17.02 8.306 17.02 8.296 17.01 8.296 17.01 8.286 17 8.286 17 8.276 16.99 8.276 16.99 8.266 16.98 8.266 16.98 8.256 16.97 8.256 16.97 8.246 16.961 8.246 16.961 8.235 16.941 8.235 16.941 8.225 16.931 8.225 16.931 8.215 16.911 8.215 16.911 8.205 16.901 8.205 16.901 8.195 16.881 8.195 16.881 8.185 16.862 8.185 16.862 8.175 16.842 8.175 16.842 8.165 16.822 8.165 16.822 8.154 16.793 8.154 16.793 8.144 16.763 8.144 16.763 8.134 16.743 8.134 16.743 8.124 16.714 8.124 16.714 8.114 16.664 8.114 16.664 8.104 16.625 8.104 16.625 8.094 16.565 8.094 16.565 8.084 16.477 8.084 16.477 8.073 16.467 8.073 16.467 8.084 16.289 8.084 16.289 8.094 16.23 8.094 16.23 8.104 16.18 8.104 16.18 8.114 16.151 8.114 16.151 8.124 16.121 8.124 16.121 8.134 16.081 8.134 16.081 8.144 16.052 8.144 16.052 8.154 16.032 8.154 16.032 8.165 16.012 8.165 16.012 8.175 15.993 8.175 15.993 8.185 15.963 8.185 15.963 8.195 15.943 8.195 15.943 8.205 15.923 8.205 15.923 8.215 15.904 8.215 15.904 8.225 15.884 8.225 15.884 8.235 15.874 8.235 15.874 8.246 15.854 8.246 15.854 8.256 15.844 8.256 15.844 8.266 15.825 8.266 15.825 8.276 15.815 8.276 15.815 8.286 15.795 8.286 15.795 8.296 15.785 8.296 15.785 8.306 15.775 8.306 15.775 8.316 15.756 8.316 15.756 8.327 15.746 8.327 15.746 8.337 15.726 8.337 15.726 8.347 15.716 8.347 15.716 8.357 15.706 8.357 15.706 8.367 15.696 8.367 15.696 8.377 15.686 8.377 15.686 8.387 15.677 8.387 15.677 8.397 15.657 8.397 15.657 8.408 15.647 8.408 15.647 8.418 15.637 8.418 15.637 8.428 15.627 8.428 15.627 8.438 15.617 8.438 15.617 8.448 15.607 8.448 15.607 8.458 15.598 8.458 15.598 8.468 15.588 8.468 15.588 8.478 15.578 8.478 15.578 8.489 15.568 8.489 15.568 8.499 15.558 8.499 15.558 8.509 15.548 8.509 15.548 8.519 15.538 8.519 15.538 8.529 15.528 8.529 15.528 8.539 15.519 8.539 15.519 8.549 15.509 8.549 15.509 8.57 15.499 8.57 15.499 8.58 15.489 8.58 15.489 8.59 15.479 8.59 15.479 8.6 15.469 8.6 15.469 8.61 15.459 8.61 15.459 8.63 15.449 8.63 15.449 8.64 15.44 8.64 15.44 8.651 15.43 8.651 15.43 8.661 15.42 8.661 15.42 8.671 15.41 8.671 15.41 8.681 15.4 8.681 15.4 8.701 15.39 8.701 15.39 8.711 15.38 8.711 15.38 8.732 15.37 8.732 15.37 8.742 15.36 8.742 15.36 8.762 15.351 8.762 15.351 8.772 15.341 8.772 15.341 8.792 15.331 8.792 15.331 8.803 15.321 8.803 15.321 8.823 15.311 8.823 15.311 8.833 15.301 8.833 15.301 8.853 15.291 8.853 15.291 8.863 15.281 8.863 15.281 8.883 15.272 8.883 15.272 8.894 15.262 8.894 15.262 8.914 15.252 8.914 15.252 8.924 15.242 8.924 15.242 8.944 15.232 8.944 15.232 8.965 15.222 8.965 15.222 8.985 15.212 8.985 15.212 9.005 15.203 9.005 15.203 9.025 15.193 9.025 15.193 9.046 15.183 9.046 15.183 9.066 15.173 9.066 15.173 9.076 15.163 9.076 15.163 9.096 15.153 9.096 15.153 9.116 15.143 9.116 15.143 9.137 15.133 9.137 15.133 9.157 15.123 9.157 15.123 9.177 15.114 9.177 15.114 9.197 15.104 9.197 15.104 9.218 15.094 9.218 15.094 9.238 15.084 9.238 15.084 9.258 15.074 9.258 15.074 9.289 15.064 9.289 15.064 9.309 15.054 9.309 15.054 9.329 15.044 9.329 15.044 9.359 15.035 9.359 15.035 9.38 15.025 9.38 15.025 9.4 15.015 9.4 15.015 9.43 15.005 9.43 15.005 9.451 14.995 9.451 14.995 9.471 14.985 9.471 14.985 9.501 14.975 9.501 14.975 9.521 14.965 9.521 14.965 9.552 14.956 9.552 14.956 9.582 14.946 9.582 14.946 9.613 14.936 9.613 14.936 9.643 14.926 9.643 14.926 9.684 14.916 9.684 14.916 9.714 14.906 9.714 14.906 9.744 14.896 9.744 14.896 9.785 14.886 9.785 14.886 9.856 14.877 9.856 14.877 9.927 14.867 9.927 14.867 10.008 14.857 10.008 14.857 10.018 14.867 10.018 14.867 10.22 14.877 10.22 14.877 10.261 14.886 10.261 14.886 10.301 14.896 10.301 14.896 10.352 14.906 10.352 14.906 10.392 14.916 10.392 14.916 10.413 14.926 10.413 14.926 10.433 14.936 10.433 14.936 10.463 14.946 10.463 14.946 10.484 14.956 10.484 14.956 10.504 14.965 10.504 14.965 10.524 14.975 10.524 14.975 10.544 14.985 10.544 14.985 10.565 14.995 10.565 14.995 10.575 15.005 10.575 15.005 10.595 15.015 10.595 15.015 10.605 15.025 10.605 15.025 10.625 15.035 10.625 15.035 10.635 15.044 10.635 15.044 10.646 15.054 10.646 15.054 10.666 15.064 10.666 15.064 10.676 15.074 10.676 15.074 10.686 15.084 10.686 15.084 10.706 15.104 10.706 15.104 10.716 15.114 10.716 15.114 10.727 15.123 10.727 15.123 10.737 15.133 10.737 15.133 10.747 15.143 10.747 15.143 10.757 15.153 10.757 15.153 10.767 15.163 10.767 15.163 10.777 15.173 10.777 15.173 10.787 15.183 10.787 15.183 10.797 15.193 10.797 15.193 10.808 15.203 10.808 15.203 10.818 15.222 10.818 15.222 10.828 15.232 10.828 15.232 10.838 15.252 10.838 15.252 10.848 15.262 10.848 15.262 10.858 15.281 10.858 15.281 10.868 15.291 10.868 15.291 10.878 15.311 10.878 15.311 10.889 15.321 10.889 15.321 10.899 15.341 10.899 15.341 10.909 15.36 10.909 15.36 10.919 15.38 10.919 15.38 10.929 15.4 10.929 15.4 10.939 15.43 10.939 15.43 10.949 15.459 10.949 15.459 10.96 15.489 10.96 15.489 10.97 15.538 10.97 15.538 10.98 15.598 10.98 15.598 10.99 15.696 10.99 15.696 11 15.854 11 15.854 10.99 15.973 10.99 15.973 10.98 16.042 10.98 16.042 10.97 16.101 10.97 16.101 10.96 16.151 10.96 16.151 10.949 16.2 10.949 16.2 10.939 16.24 10.939 16.24 10.929 16.279 10.929 16.279 10.919 16.319 10.919 16.319 10.909 16.348 10.909 16.348 10.899 16.378 10.899 16.378 10.889 16.417 10.889 16.417 10.878 16.447 10.878 16.447 10.868 16.477 10.868 16.477 10.858 16.506 10.858 16.506 10.848 16.536 10.848 16.536 10.838 16.556 10.838 16.556 10.828 16.585 10.828 16.585 10.818 16.615 10.818 16.615 10.808 16.635 10.808 16.635 10.797 16.664 10.797 16.664 10.787 16.684 10.787 16.684 10.777 16.714 10.777 16.714 10.767 16.733 10.767 16.733 10.757 16.763 10.757 16.763 10.747 16.783 10.747 16.783 10.737 16.802 10.737 16.802 10.727 16.822 10.727 16.822 10.716 16.852 10.716 16.852 10.706 16.872 10.706 16.872 10.696 16.891 10.696 16.891 10.686 16.911 10.686 16.911 10.676 16.931 10.676 16.931 10.666 16.951 10.666 16.951 10.656 16.97 10.656 16.97 10.646 17 10.646 17 10.635 17.02 10.635 17.02 10.625 17.04 10.625 17.04 10.615 17.059 10.615 17.059 10.605 17.079 10.605 17.079 10.595 17.089 10.595 17.089 10.585 17.109 10.585 17.109 10.575 17.128 10.575 17.128 10.565 17.148 10.565 17.148 10.554 17.168 10.554 17.168 10.544 17.188 10.544 17.188 10.534 17.207 10.534 17.207 10.524 17.227 10.524 17.227 10.514 17.237 10.514 17.237 10.504 17.257 10.504 17.257 10.494 17.277 10.494 17.277 10.484 17.296 10.484 17.296 10.473 17.316 10.473 17.316 10.463 17.326 10.463 17.326 10.453 17.346 10.453 17.346 10.443 17.365 10.443 17.365 10.433 17.385 10.433 17.385 10.423 17.395 10.423 17.395 10.413 17.415 10.413 17.415 10.403 17.435 10.403 17.435 10.392 17.444 10.392 17.444 10.382 17.464 10.382 17.464 10.372 17.484 10.372 17.484 10.362 17.494 10.362 17.494 10.352 17.514 10.352 17.514 10.342 17.533 10.342 17.533 10.332 17.543 10.332 17.543 10.321 17.563 10.321 17.563 10.311 17.573 10.311 17.573 10.301 17.593 10.301 17.593 10.291 17.612 10.291 17.612 10.281 17.622 10.281 17.622 10.271 17.642 10.271 17.642 10.261 17.652 10.261 17.652 10.251 17.672 10.251 17.672 10.24 17.691 10.24 17.691 10.23 17.701 10.23 17.701 10.22 17.721 10.22 17.721 10.21 17.731 10.21 17.731 10.2 17.751 10.2 17.751 10.19 17.761 10.19 17.761 10.18 17.78 10.18 17.78 10.17 17.79 10.17 17.79 10.16 17.81 10.16 17.81 10.149 17.82 10.149 17.82 10.139 17.84 10.139 17.84 10.129 17.849 10.129 17.849 10.119 17.869 10.119 17.869 10.109 17.879 10.109 17.879 10.099 17.899 10.099 17.899 10.089 17.909 10.089 17.909 10.079 17.918 10.079 17.918 10.068 17.938 10.068 17.938 10.058 17.948 10.058 17.948 10.048 17.968 10.048 17.968 10.038 17.978 10.038 17.978 10.028 17.998 10.028 17.998 10.018 18.007 10.018 18.007 10.008 18.027 10.008 18.027 9.997 18.037 9.997 18.037 9.987 18.047 9.987 18.047 9.977 18.067 9.977 18.067 9.967 18.077 9.967 18.077 9.957 18.086 9.957 18.086 9.947 18.106 9.947 18.106 9.937 18.116 9.937 18.116 9.927 18.136 9.927 18.136 9.916 18.146 9.916 18.146 9.906 18.156 9.906 18.156 9.896 18.175 9.896 18.175 9.886 18.185 9.886 18.185 9.876 18.195 9.876 18.195 9.866 18.215 9.866 18.215 9.856 18.225 9.856 18.225 9.846 18.244 9.846 18.244 9.835 18.254 9.835 18.254 9.825 18.264 9.825 18.264 9.815 18.284 9.815 18.284 9.805 18.294 9.805 18.294 9.795 18.304 9.795 18.304 9.785 18.323 9.785 18.323 9.775 18.333 9.775 18.333 9.765 18.343 9.765 18.343 9.754 18.353 9.754 18.353 9.744 18.373 9.744 18.373 9.734 18.383 9.734 18.383 9.724 18.393 9.724 18.393 9.714 18.412 9.714 18.412 9.704 18.422 9.704 18.422 9.694 18.432 9.694 18.432 9.684 18.452 9.684 18.452 9.673 18.462 9.673 18.462 9.663 18.472 9.663 18.472 9.653 18.481 9.653 18.481 9.643 18.501 9.643 18.501 9.633 18.511 9.633 18.511 9.623 18.521 9.623 18.521 9.613 18.541 9.613 18.541 9.603 18.551 9.603 18.551 9.592 18.561 9.592 18.561 9.582 18.57 9.582 18.57 9.572 18.59 9.572 18.59 9.562 18.6 9.562 18.6 9.552 18.61 9.552 18.61 9.542 18.62 9.542 18.62 9.532 18.639 9.532 18.639 9.521 18.649 9.521 18.649 9.511 18.659 9.511 18.659 9.501 18.669 9.501 18.669 9.491 18.689 9.491 18.689 9.481 18.699 9.481 18.699 9.471 18.709 9.471 18.709 9.461 18.718 9.461 18.718 9.451 18.728 9.451 18.728 9.44 18.748 9.44 18.748 9.43 18.758 9.43 18.758 9.42 18.768 9.42 18.768 9.41 18.778 9.41 18.778 9.4 18.798 9.4 18.798 9.39 18.807 9.39 18.807 9.38 18.817 9.38 18.817 9.37 18.827 9.37 18.827 9.359 18.837 9.359 18.837 9.349 18.857 9.349 18.857 9.339 18.867 9.339 18.867 9.329 18.877 9.329 18.877 9.319 18.886 9.319 18.886 9.309 18.896 9.309 18.896 9.299 18.916 9.299 18.916 9.289 18.926 9.289 18.926 9.279 18.936 9.279 18.936 9.268 18.946 9.268 18.946 9.258 18.956 9.258 18.956 9.248 18.965 9.248 18.965 9.238 18.985 9.238 18.985 9.228 18.995 9.228 18.995 9.218 19.005 9.218 19.005 9.208 19.015 9.208 19.015 9.197 19.025 9.197 19.025 9.187 19.035 9.187 19.035 9.177 19.054 9.177 19.054 9.167 19.064 9.167 19.064 9.157 19.074 9.157 19.074 9.147 19.084 9.147 19.084 9.137 19.094 9.137 19.094 9.127 19.104 9.127 19.104 9.116 19.114 9.116 19.114 9.106 19.133 9.106 19.133 9.096 19.143 9.096 19.143 9.086 19.153 9.086 19.153 9.076 19.163 9.076 19.163 9.066 19.173 9.066 19.173 9.056 19.183 9.056 19.183 9.046 19.193 9.046 19.193 9.035 19.203 9.035 19.203 9.025 19.212 9.025 19.212 9.015 19.232 9.015 19.232 9.005 19.242 9.005 19.242 8.995 19.252 8.995 19.252 8.985 19.262 8.985 19.262 8.975 19.272 8.975 19.272 8.965 19.281 8.965 19.281 8.954 19.291 8.954 19.291 8.944 19.301 8.944 19.301 8.934 19.311 8.934 19.311 8.924 19.321 8.924 19.321 8.914 19.331 8.914 19.331 8.904 19.341 8.904 19.341 8.894 19.351 8.894 19.351 8.883 19.361 8.883 19.361 8.873 19.37 8.873 19.37 8.863 19.38 8.863 19.38 8.853 19.39 8.853 19.39 8.843 19.4 8.843 19.4 8.833 19.41 8.833 19.41 8.823 19.42 8.823 19.42 8.813 19.43 8.813 19.43 8.803 19.44 8.803 19.44 8.792 19.449 8.792 19.449 8.782 19.459 8.782 19.459 8.772 19.469 8.772 19.469 8.762 19.479 8.762 19.479 8.752 19.489 8.752 19.489 8.742 19.499 8.742 19.499 8.732 19.509 8.732 19.509 8.721 19.519 8.721 19.519 8.711 19.528 8.711 19.528 8.701 19.538 8.701 19.538 8.691 19.548 8.691 19.548 8.681 19.558 8.681 19.558 8.671 19.568 8.671 19.568 8.661 19.578 8.661 19.578 8.651 19.588 8.651 19.588 8.63 19.598 8.63 19.598 8.62 19.607 8.62 19.607 8.61 19.617 8.61 19.617 8.6 19.627 8.6 19.627 8.59 19.637 8.59 19.637 8.58 19.647 8.58 19.647 8.57 19.657 8.57 19.657 8.559 19.667 8.559 19.667 8.549 19.677 8.549 19.677 8.539 19.686 8.539 19.686 8.519 19.696 8.519 19.696 8.509 19.706 8.509 19.706 8.499 19.716 8.499 19.716 8.489 19.726 8.489 19.726 8.478 19.736 8.478 19.736 8.468 19.746 8.468 19.746 8.448 19.756 8.448 19.756 8.438 19.765 8.438 19.765 8.428 19.775 8.428 19.775 8.418 19.785 8.418 19.785 8.408 19.795 8.408 19.795 8.397 19.805 8.397 19.805 8.377 19.815 8.377 19.815 8.367 19.825 8.367 19.825 8.357 19.835 8.357 19.835 8.347 19.844 8.347 19.844 8.337 19.854 8.337 19.854 8.316 19.864 8.316 19.864 8.306 19.874 8.306 19.874 8.296 19.884 8.296 19.884 8.276 19.894 8.276 19.894 8.266 19.904 8.266 19.904 8.256 19.914 8.256 19.914 8.246 19.923 8.246 19.923 8.225 19.933 8.225 19.933 8.215 19.943 8.215 19.943 8.205 19.953 8.205 19.953 8.195 19.963 8.195 19.963 8.175 19.973 8.175 19.973 8.165 19.983 8.165 19.983 8.154 19.993 8.154 19.993 8.134 20.002 8.134 20.002 8.124 20.012 8.124 20.012 8.114 20.022 8.114 20.022 8.094 20.032 8.094 20.032 8.084 20.042 8.084 20.042 8.073 20.052 8.073 20.052 8.053 20.062 8.053 20.062 8.043 20.072 8.043 20.072 8.023 20.082 8.023 20.082 8.013 20.091 8.013 20.091 8.003 20.101 8.003 20.101 7.982 20.111 7.982 20.111 7.972 20.121 7.972 20.121 7.952 20.131 7.952 20.131 7.942 20.141 7.942 20.141 7.932 20.151 7.932 20.151 7.911 20.161 7.911 20.161 7.901 20.17 7.901 20.17 7.881 20.18 7.881 20.18 7.871 20.19 7.871 20.19 7.851 20.2 7.851 20.2 7.841 20.21 7.841 20.21 7.82 20.22 7.82 20.22 7.81 20.23 7.81 20.23 7.79 20.24 7.79 20.24 7.78 20.249 7.78 20.249 7.76 20.259 7.76 20.259 7.749 20.269 7.749 20.269 7.729 20.279 7.729 20.279 7.709 20.289 7.709 20.289 7.699 20.299 7.699 20.299 7.679 20.309 7.679 20.309 7.668 20.319 7.668 20.319 7.648 20.328 7.648 20.328 7.628 20.338 7.628 20.338 7.618 20.348 7.618 20.348 7.597 20.358 7.597 20.358 7.577 20.368 7.577 20.368 7.567 20.378 7.567 20.378 7.547 20.388 7.547 20.388 7.527 20.398 7.527 20.398 7.516 20.407 7.516 20.407 7.496 20.417 7.496 20.417 7.476 20.427 7.476 20.427 7.456 20.437 7.456 20.437 7.446 20.447 7.446 20.447 7.425 20.457 7.425 20.457 7.405 20.467 7.405 20.467 7.385 20.477 7.385 20.477 7.365 20.486 7.365 20.486 7.344 20.496 7.344 20.496 7.324 20.506 7.324 20.506 7.314 20.516 7.314 20.516 7.294 20.526 7.294 20.526 7.273 20.536 7.273 20.536 7.253 20.546 7.253 20.546 7.233 20.556 7.233 20.556 7.213 20.565 7.213 20.565 7.192 20.575 7.192 20.575 7.172 20.585 7.172 20.585 7.152 20.595 7.152 20.595 7.132 20.605 7.132 20.605 7.101 20.615 7.101 20.615 7.081 20.625 7.081 20.625 7.061 20.635 7.061 20.635 7.04 20.645 7.04 20.645 7.02 20.654 7.02 20.654 7 20.664 7 20.664 6.98 20.674 6.98 20.674 6.949 20.684 6.949 20.684 6.929 20.694 6.929 20.694 6.899 20.704 6.899 20.704 6.879 20.714 6.879 20.714 6.848 20.723 6.848 20.723 6.828 20.733 6.828 20.733 6.797 20.743 6.797 20.743 6.777 20.753 6.777 20.753 6.747 20.763 6.747 20.763 6.727 20.773 6.727 20.773 6.696 20.783 6.696 20.783 6.666 20.793 6.666 20.793 6.635 20.802 6.635 20.802 6.605 20.812 6.605 20.812 6.575 20.822 6.575 20.822 6.544 20.832 6.544 20.832 6.514 20.842 6.514 20.842 6.483 20.852 6.483 20.852 6.453 20.862 6.453 20.862 6.413 20.872 6.413 20.872 6.372 20.882 6.372 20.882 6.342 20.891 6.342 20.891 6.301 20.901 6.301 20.901 6.261 20.911 6.261 20.911 6.22 20.921 6.22 20.921 6.17 20.931 6.17 20.931 6.119 20.941 6.119 20.941 6.068 20.951 6.068 20.951 6.018 20.961 6.018 20.961 5.957 20.97 5.957 20.97 5.876 20.98 5.876 20.98 5.795 20.99 5.795 20.99 5.663 21 5.663 21 5.349 20.99 5.349 20.99 5.157 20.98 5.157 20.98 5.076 20.97 5.076 20.97 5.015 20.961 5.015 20.961 4.954 20.951 4.954 20.951 4.894 20.941 4.894 20.941 4.833 20.931 4.833 20.931 4.782 20.921 4.782 20.921 4.752 20.911 4.752 20.911 4.721 20.901 4.721 20.901 4.681 20.891 4.681 20.891 4.651 20.882 4.651 20.882 4.62 20.872 4.62 20.872 4.58 20.862 4.58 20.862 4.549 20.852 4.549 20.852 4.519 20.842 4.519 20.842 4.489 20.832 4.489 20.832 4.468 20.822 4.468 20.822 4.448 20.812 4.448 20.812 4.418 20.802 4.418 20.802 4.397 20.793 4.397 20.793 4.377 20.783 4.377 20.783 4.357 20.773 4.357 20.773 4.327 20.763 4.327 20.763 4.306 20.753 4.306 20.753 4.286 20.743 4.286 20.743 4.266 20.733 4.266 20.733 4.246 20.723 4.246 20.723 4.225 20.714 4.225 20.714 4.205 20.704 4.205 20.704 4.195 20.694 4.195 20.694 4.175 20.684 4.175 20.684 4.165 20.674 4.165 20.674 4.144 20.664 4.144 20.664 4.124 20.654 4.124 20.654 4.114 20.645 4.114 20.645 4.094 20.635 4.094 20.635 4.073 20.625 4.073 20.625 4.063 20.615 4.063 20.615 4.043 20.605 4.043 20.605 4.033 20.595 4.033 20.595 4.013 20.585 4.013 20.585 4.003 20.575 4.003 20.575 3.992 20.565 3.992 20.565 3.972 20.556 3.972 20.556 3.962 20.546 3.962 20.546 3.952 20.536 3.952 20.536 3.942 20.526 3.942 20.526 3.921 20.516 3.921 20.516 3.911 20.506 3.911 20.506 3.901 20.496 3.901 20.496 3.891 20.486 3.891 20.486 3.871 20.477 3.871 20.477 3.861 20.467 3.861 20.467 3.851 20.457 3.851 20.457 3.84 20.447 3.84 20.447 3.83 20.437 3.83 20.437 3.81 20.427 3.81 20.427 3.8 20.417 3.8 20.417 3.79 20.407 3.79 20.407 3.78 20.398 3.78 20.398 3.77 20.388 3.77 20.388 3.759 20.378 3.759 20.378 3.749 20.358 3.749 20.358 3.739 20.348 3.739 20.348 3.729 20.338 3.729 20.338 3.719 20.328 3.719 20.328 3.709 20.319 3.709 20.319 3.699 20.309 3.699 20.309 3.689 20.299 3.689 20.299 3.678 20.289 3.678 20.289 3.668 20.279 3.668 20.279 3.658 20.269 3.658 20.269 3.648 20.259 3.648 20.259 3.638 20.249 3.638 20.249 3.628 20.24 3.628 20.24 3.618 20.22 3.618 20.22 3.608 20.21 3.608 20.21 3.597 20.2 3.597 20.2 3.587 20.18 3.587 20.18 3.577 20.17 3.577 20.17 3.567 20.161 3.567 20.161 3.557 20.141 3.557 20.141 3.547 20.131 3.547 20.131 3.537 20.121 3.537 20.121 3.527 20.101 3.527 20.101 3.516 20.091 3.516 20.091 3.506 20.082 3.506 20.082 3.496 20.072 3.496 20.072 3.486 20.052 3.486 20.052 3.476 20.032 3.476 20.032 3.466 20.022 3.466 20.022 3.456 20.002 3.456 20.002 3.446 19.983 3.446 19.983 3.435 19.973 3.435 19.973 3.425 19.953 3.425 19.953 3.415 19.943 3.415 19.943 3.405 19.923 3.405 19.923 3.395 19.904 3.395 19.904 3.385 19.894 3.385 19.894 3.375 19.874 3.375 19.874 3.365 19.854 3.365 19.854 3.354 19.835 3.354 19.835 3.344 19.815 3.344 19.815 3.334 19.795 3.334 19.795 3.324 19.775 3.324 19.775 3.314 19.756 3.314 19.756 3.304 19.736 3.304 19.736 3.294 19.716 3.294 19.716 3.284 19.696 3.284 19.696 3.273 19.677 3.273 19.677 3.263 19.657 3.263 19.657 3.253 19.627 3.253 19.627 3.243 19.607 3.243 19.607 3.233 19.578 3.233 19.578 3.223 19.558 3.223 19.558 3.213 19.528 3.213 19.528 3.203 19.499 3.203 19.499 3.192 19.479 3.192 19.479 3.182 19.449 3.182 19.449 3.172 19.42 3.172 19.42 3.162 19.39 3.162 19.39 3.152 19.361 3.152 19.361 3.142 19.321 3.142 19.321 3.132 19.291 3.132 19.291 3.122 19.262 3.122 19.262 3.111 19.222 3.111 19.222 3.101 19.183 3.101 19.183 3.091 19.143 3.091 19.143 3.081 19.094 3.081 19.094 3.071 19.054 3.071 19.054 3.061 19.005 3.061 19.005 3.051 18.946 3.051 18.946 3.041 18.886 3.041 18.886 3.03 18.827 3.03 18.827 3.02 18.738 3.02 18.738 3.01 18.649 3.01 18.649 3"/><g transform="translate(8.2 12.6)"><mask id="b" fill="#fff"><use xlink:href="#a"/></mask><path fill="#E11F26" d="M2.23990002,5.51511264 C2.12829003,5.58884037 1.89978674,5.65198037 1.65155358,5.65198037 C1.19595038,5.65198037 0.990891788,5.32445612 0.99939462,4.94345222 C1.00657662,4.62775223 1.21675342,4.26993315 1.7858653,4.26993315 L2.23990002,4.2697013 L2.23990002,5.51511264 Z M1.77133619,2.01304533 C1.23062212,2.01304533 0.743979454,2.15617296 0.243963402,2.38871672 L0.116255819,2.45031106 L0.420706735,3.08627072 L0.592331858,3.01030179 C0.946396386,2.86191893 1.32374051,2.76245605 1.66294572,2.77574868 C2.07364076,2.7917462 2.24155106,2.96802813 2.24155106,3.3357394 L2.24155106,3.55159009 L1.57015754,3.55159009 C0.490958288,3.55159009 -0.180517783,4.08708219 -0.2,4.91864446 C-0.2,5.70886047 0.503836364,6.38918042 1.4822399,6.38918042 C2.27168245,6.38918042 2.94068197,6.1492948 3.39133206,5.7266355 L3.39133206,3.47175702 C3.39133206,2.37380115 2.55400949,2.01304533 1.77133619,2.01304533 L1.77133619,2.01304533 Z M17.8,5.64919819 L17.8,6.31607095 C17.8,6.31607095 17.560765,6.35888558 17.367016,6.35888558 C16.4624137,6.35888558 15.9222775,5.9598748 15.9222775,5.02823138 L15.9222775,1.09909966 L17.0581898,0.917948916 L17.0581898,5.09716759 C17.0581898,5.42005487 17.1573345,5.613339 17.6290353,5.64765254 C17.6934257,5.65198037 17.8,5.64919819 17.8,5.64919819 L17.8,5.64919819 Z M12.8176707,3.665273 C12.8368227,3.2560609 13.0188493,2.83541095 13.4661973,2.83541095 C13.9697631,2.83541095 14.0440597,3.34686812 14.0440597,3.665273 L12.8176707,3.665273 Z M13.7111284,5.64440666 C13.4005687,5.64440666 13.1910523,5.54896248 13.0535211,5.41023996 C12.8496182,5.2041269 12.7593066,4.78023108 12.783907,4.32967271 L15.2268614,4.32967271 L15.2268614,4.22456818 C15.2050678,2.72744696 14.6597308,2.04542679 13.4661973,2.04542679 C12.1340595,2.04542679 11.6152216,3.19261177 11.6054805,4.2706287 C11.5973079,4.95257158 11.8719576,5.63915144 12.3742851,6.03027938 C12.680222,6.26815565 13.1045381,6.4 13.5962164,6.4 C13.8640143,6.4 14.1440299,6.36274972 14.39928,6.28863557 C14.8895549,6.1465899 15.2512142,5.90090807 15.2512142,5.90090807 L14.9316563,5.28535106 C14.8740352,5.32607906 14.3848334,5.64440666 13.7111284,5.64440666 L13.7111284,5.64440666 Z M11.2070857,5.65306233 L11.2070857,6.31042931 C11.2070857,6.31042931 10.9975693,6.34930252 10.7752574,6.34930252 C9.8500172,6.34930252 9.29791098,5.93112562 9.29791098,5.04677924 L9.29791098,1.09848139 L10.4594969,0.923822404 L10.4594969,2.09032807 L11.206838,2.09032807 L11.206838,2.86987905 L10.4594969,2.86987905 L10.4594969,5.09168051 C10.4594969,5.38249546 10.5553395,5.63381893 11.0424775,5.64981645 C11.1083538,5.65198037 11.194868,5.65198037 11.2070857,5.65306233 L11.2070857,5.65306233 Z M4.23971657,2.2612002 L5.37290468,2.08800958 L5.37290468,6.31259322 L4.23971657,6.31259322 L4.23971657,2.2612002 Z M4.8179917,0.4 C5.01496021,0.4 5.19739962,0.471872947 5.33146369,0.602094362 C5.46387672,0.731311102 5.53379807,0.900405734 5.52777179,1.07869701 C5.52777179,1.45452297 5.21151597,1.75005217 4.80783783,1.75005217 C4.40482011,1.75005217 4.08823408,1.45359558 4.08823408,1.0742919 C4.08823408,0.702716488 4.41571694,0.4 4.8179917,0.4 L4.8179917,0.4 Z M8.99246944,2.15215426 L8.672829,2.82327756 C8.672829,2.82327756 8.49022449,2.76856138 8.20913573,2.7792264 C7.90493247,2.79058696 7.58504437,2.91114804 7.43446995,3.04863403 L7.43446995,6.31560725 L6.27833245,6.31560725 L6.27907542,2.84514858 C6.9674746,2.1600371 7.7313261,2.02363306 8.2288656,2.02363306 C8.57252861,2.02363306 8.86831159,2.09481046 8.99246944,2.15215426 L8.99246944,2.15215426 Z" mask="url(#b)"/></g></g></svg>