<?xml version="1.0" encoding="UTF-8"?>
<svg width="25px" height="25px" viewBox="0 0 25 25" version="1.1" xmlns="http://www.w3.org/2000/svg" xmlns:xlink="http://www.w3.org/1999/xlink">
    <title>73262C3D-583A-41D8-9052-40D4DBF1A21A</title>
    <g id="Welcome" stroke="none" stroke-width="1" fill="none" fill-rule="evenodd">
        <g id="Assets" transform="translate(-1876.000000, -105.000000)" fill="#1A7EF5" fill-rule="nonzero">
            <g id="Icone-pannier" transform="translate(1850.000000, 77.000000)">
                <g id="Icons/Chariot" transform="translate(26.500000, 28.500000)">
                    <path d="M23.9228686,5.01666147 C23.8631029,4.94203639 23.7754466,4.89492697 23.6802434,4.88630196 L4.27012944,3.124597 C4.25925443,2.85740922 4.15326994,2.59336207 3.94973848,2.38983061 L1.88306446,0.323109711 C1.67475174,0.114796994 1.3977202,-8.8817842e-16 1.10306365,-8.8817842e-16 C0.808407091,-8.8817842e-16 0.531422428,0.114796994 0.323109711,0.323109711 C0.114750119,0.531469303 -1.59872116e-14,0.808500841 -1.59872116e-14,1.1031574 C-1.59872116e-14,1.39781395 0.114750119,1.67479862 0.323109711,1.88315821 L2.38978374,3.94978536 C2.59809645,4.15814495 2.87512799,4.27289507 3.16978455,4.27289507 C3.28064404,4.27289507 3.38901915,4.25662943 3.49219113,4.22527002 L6.43064731,13.955452 C6.66994444,14.7478278 7.38652331,15.2740471 8.2020554,15.2740471 C8.24818045,15.2740471 8.29472738,15.2723596 8.34141492,15.2689378 L21.6301631,14.2965617 C22.3269607,14.2456086 22.8982738,13.7057486 22.9886489,13.0129354 L23.997025,5.28192737 C24.0094468,5.18709914 23.9826343,5.09133342 23.9228686,5.01666147 Z M3.45253484,3.45258172 C3.37697226,3.52809742 3.27656591,3.56972246 3.16973767,3.56972246 C3.06290944,3.56972246 2.96250308,3.52814429 2.8869405,3.45258172 L0.820266478,1.38590769 C0.744703899,1.31039199 0.703125731,1.20993876 0.703125731,1.1031574 C0.703125731,0.996376036 0.744703899,0.895875932 0.820266478,0.820313353 C0.895829057,0.744797649 0.996235411,0.703172606 1.10306365,0.703172606 C1.20989188,0.703172606 1.31029824,0.744797649 1.38586082,0.820313353 L3.45253484,2.88698738 C3.60848813,3.04294066 3.60848813,3.2966753 3.45253484,3.45258172 Z M12.1066532,4.5418641 L12.2651846,7.11399177 L8.97872809,6.9942729 L8.46014942,4.21092625 L12.1066532,4.5418641 Z M4.10287927,3.81539459 L7.73264867,4.14487931 L8.25863359,6.96806975 L5.01928647,6.85003837 L4.10287927,3.81539459 Z M6.23977211,10.8913238 L5.23416169,7.56146099 L8.39063373,7.67644548 L8.97825934,10.83048 L6.23977211,10.8913238 Z M8.29003987,14.5676401 C7.74816431,14.6071558 7.26071068,14.2719055 7.10372614,13.7521549 L6.45075671,11.5899496 L9.10875947,11.530887 L9.65593192,14.4677494 L8.29003987,14.5676401 Z M9.11072822,7.70269551 L12.3086378,7.81918001 L12.4894349,10.7524331 L9.6905257,10.8146362 L9.11072822,7.70269551 Z M10.3614951,14.4160931 L9.82097896,11.5150432 L12.5326537,11.4547619 L12.7045913,14.2446242 L10.3614951,14.4160931 Z M15.8925165,14.0113739 L13.4059358,14.193296 L13.2362013,11.4391056 L15.9625947,11.3785431 L15.8925165,14.0113739 Z M15.9813447,10.6748549 L13.1929356,10.7368237 L13.0147167,7.84491441 L16.0537198,7.9555864 L15.9813447,10.6748549 Z M16.072423,7.25264817 L12.9712166,7.1396793 L12.8150758,4.60617666 L16.1348137,4.90748948 L16.072423,7.25264817 Z M19.2747388,13.7638737 L16.5972829,13.9598114 L16.6664236,11.3629337 L19.4729734,11.300543 L19.2747388,13.7638737 Z M19.5296453,10.596011 L16.6851267,10.6591986 L16.7564237,7.98118017 L19.7313486,8.08955529 L19.5296453,10.596011 Z M19.7877862,7.38802331 L16.7751268,7.27828882 L16.8365331,4.97119267 L19.9594426,5.25464609 L19.7877862,7.38802331 Z M22.2914294,12.9219978 C22.2440856,13.2853732 21.9443666,13.5685454 21.5788818,13.595311 L19.9843333,13.711983 L20.1796147,11.2848399 L22.5117422,11.2329961 L22.2914294,12.9219978 Z M22.6037579,10.5276672 L20.2363335,10.5803079 L20.4347087,8.11519594 L22.9067113,8.20524291 L22.6037579,10.5276672 Z M22.9980239,7.50492968 L20.4910994,7.41361708 L20.659709,5.31816178 L23.2525554,5.5535214 L22.9980239,7.50492968 Z M20.6182246,20.7092559 L20.6182246,19.8667707 L21.3939129,19.8667707 L21.3939129,19.8667707 C21.5880693,19.8667707 21.7454757,19.7093642 21.7454757,19.5152078 C21.7454757,19.3210513 21.5880693,19.1636449 21.3939129,19.1636449 L6.75188202,19.1636449 C6.61505375,19.1636449 6.49331925,19.0981136 6.41799105,18.9838791 C6.34266285,18.8695977 6.33033471,18.7319726 6.38424101,18.60616 L7.37728892,16.2890326 C7.453789,16.1105793 7.37110142,15.9039072 7.1926481,15.8274071 C7.01419479,15.750907 6.8075227,15.8335477 6.73102262,16.0120479 L5.73797472,18.3291284 C5.59149019,18.6709882 5.62627148,19.0604261 5.83097481,19.3709264 C6.03567815,19.6813798 6.37992851,19.8667707 6.75188202,19.8667707 L7.13939805,19.8667707 L7.13939805,20.7092559 C6.49317863,20.8674592 6.01214688,21.4512411 6.01214688,22.1455074 C6.01214688,22.9609458 6.67552257,23.6243683 7.49096091,23.6243683 C8.30639926,23.6243683 8.96977495,22.9609458 8.96977495,22.1455074 C8.96977495,21.4512411 8.4887432,20.8674592 7.84252378,20.7092559 L7.84252378,19.8667707 L19.9150988,19.8667707 L19.9150988,20.7092559 C19.2688794,20.8674592 18.7878477,21.4512411 18.7878477,22.1455074 C18.7878477,22.9609458 19.4512234,23.6243683 20.2666617,23.6243683 C21.0821,23.6243683 21.7454757,22.9609458 21.7454757,22.1455074 C21.7454757,21.4512411 21.264444,20.8674592 20.6182246,20.7092559 Z M8.26664922,22.1454605 C8.26664922,22.5731953 7.91869573,22.9211957 7.49096091,22.9211957 C7.06322609,22.9211957 6.71527261,22.5731953 6.71527261,22.1454605 C6.71527261,21.7177257 7.06322609,21.3697722 7.49096091,21.3697722 C7.91869573,21.3697722 8.26664922,21.7177726 8.26664922,22.1454605 Z M20.2666617,22.9211957 C19.8389269,22.9211957 19.4909734,22.5731953 19.4909734,22.1454605 C19.4909734,21.7177257 19.8389269,21.3697722 20.2666617,21.3697722 C20.6943965,21.3697722 21.04235,21.7177726 21.04235,22.1454605 C21.04235,22.5731953 20.6943965,22.9211957 20.2666617,22.9211957 Z" id="Combined-Shape"></path>
                </g>
            </g>
        </g>
    </g>
</svg>