<?xml version="1.0" encoding="UTF-8"?>
<svg width="17px" height="17px" viewBox="0 0 17 17" version="1.1" xmlns="http://www.w3.org/2000/svg" xmlns:xlink="http://www.w3.org/1999/xlink">
    <title>41274DAE-43F0-40C9-BA31-D554B00E0C61</title>
    <g id="Welcome" stroke="none" stroke-width="1" fill="none" fill-rule="evenodd">
        <g id="Profil-/-Mode-de-paiement-/-Comptes_Enregistrés" transform="translate(-710.000000, -428.000000)">
            <g id="Group-12" transform="translate(105.000000, 167.000000)">
                <g id="Group-3" transform="translate(350.000000, 48.000000)">
                    <g id="Group-5" transform="translate(55.500000, 109.000000)">
                        <g id="Group-4" transform="translate(5.000000, 5.000000)">
                            <g id="Group-15-Copy" transform="translate(195.000000, 99.500000)">
                                <circle id="Oval" fill="#1A7EF5" cx="8" cy="8" r="8"></circle>
                                <g id="Icons/Adress" transform="translate(4.250000, 4.000000)" fill="#FFFFFF" fill-rule="nonzero">
                                    <path d="M2.72285685,0.8 C2.83121936,0.8 2.91904355,0.88946183 2.91904355,0.999670682 C2.91904355,1.10995753 2.83121936,1.19934136 2.72285685,1.19934136 L2.72285685,1.19934136 L0.980933515,1.19934136 C0.655999288,1.19973134 0.392756578,1.46772683 0.392373406,1.79835341 L0.392373406,1.79835341 L0.392373406,7.0015686 C0.392756578,7.33227317 0.655999288,7.60026866 0.980933515,7.60058064 L0.980933515,7.60058064 L6.48573315,7.60058064 C6.81066738,7.60026866 7.07391007,7.33227317 7.07429326,7.0015686 L7.07429326,7.0015686 L7.07429326,5.22871132 C7.07429326,5.11842448 7.16211745,5.02904064 7.27047996,5.02904064 C7.37884245,5.02904064 7.46666667,5.11842448 7.46666667,5.22871132 L7.46666667,5.22871132 L7.46666667,7.00164659 C7.46605358,7.55276888 7.0272391,7.99937603 6.48573315,8 L6.48573315,8 L0.980933515,8 C0.43942757,7.99937603 0.000613083447,7.55276888 0,7.00164659 L0,7.00164659 L0,1.79835341 C0.000613083447,1.24723112 0.43942757,0.800623971 0.980933515,0.8 L0.980933515,0.8 Z M6.22929884,0.263589582 C6.58078283,-0.087863194 7.15062596,-0.087863194 7.50210993,0.263589582 L7.50210993,0.263589582 L7.73679717,0.498255993 C8.08773428,0.849943148 8.08773428,1.41926698 7.73679717,1.77095412 L7.73679717,1.77095412 L4.16875426,5.3388366 C4.14430115,5.36328754 4.11398869,5.3809422 4.08070748,5.39016013 L4.08070748,5.39016013 L2.38672498,5.85941482 C2.31727194,5.87863185 2.24289702,5.85902423 2.19188146,5.80809131 C2.14094399,5.75708028 2.12133466,5.68271196 2.14063151,5.61326508 L2.14063151,5.61326508 L2.60984973,3.91943292 C2.61906846,3.88615467 2.6367247,3.85584487 2.6611778,3.83139395 L2.6611778,3.83139395 Z M2.90883378,4.33884835 L2.62047472,5.3796142 L3.66125483,5.09128073 L2.90883378,4.33884835 Z M6.01718969,1.04133219 L3.09695857,3.96138227 L4.03867627,4.90309452 L6.95898553,1.98304444 L6.01718969,1.04133219 Z M7.21921962,0.546376668 C7.02398546,0.351159832 6.70742331,0.351159832 6.51218915,0.546376668 L6.51218915,0.546376668 L6.3000019,0.758466988 L7.24187586,1.70025735 L7.45398498,1.48816703 C7.64890664,1.29279397 7.64890664,0.976494275 7.45398498,0.78104308 L7.45398498,0.78104308 Z" id="Combined-Shape"></path>
                                </g>
                            </g>
                        </g>
                    </g>
                </g>
            </g>
        </g>
    </g>
</svg>