<?xml version="1.0" encoding="UTF-8"?>
<svg width="30px" height="30px" viewBox="0 0 30 30" version="1.1" xmlns="http://www.w3.org/2000/svg" xmlns:xlink="http://www.w3.org/1999/xlink">
    <title>661B8AE5-8FCB-4FBD-97D7-17B043CCFA73</title>
    <g id="Welcome" stroke="none" stroke-width="1" fill="none" fill-rule="evenodd">
        <g id="Pannier-/-Livraison-/-Confirmé" transform="translate(-984.000000, -310.000000)">
            <g id="Group-5-Copy" transform="translate(91.000000, 158.000000)">
                <g id="Group" transform="translate(20.000000, 79.000000)">
                    <g id="Icons/Validé-Copy-2" transform="translate(873.000000, 73.000000)">
                        <circle id="Oval-Copy-4" stroke="#0A7AFF" stroke-width="1.75" fill="#FFFFFF" cx="15" cy="15" r="14.125"></circle>
                        <g id="Icons/Modifier-Copy-4" transform="translate(8.500000, 8.500000)" fill="#1A7EF5" fill-rule="nonzero">
                            <path d="M4.42464238,1.3 C4.60073145,1.3 4.74344577,1.44537547 4.74344577,1.62446486 C4.74344577,1.80368098 4.60073145,1.94892972 4.42464238,1.94892972 L4.42464238,1.94892972 L1.59401696,1.94892972 C1.06599884,1.94956343 0.638229439,2.38505611 0.637606785,2.92232429 L0.637606785,2.92232429 L0.637606785,11.377549 C0.638229439,11.9149439 1.06599884,12.3504366 1.59401696,12.3509435 L1.59401696,12.3509435 L10.5393164,12.3509435 C11.0673345,12.3504366 11.4951039,11.9149439 11.4957265,11.377549 L11.4957265,11.377549 L11.4957265,8.4966559 C11.4957265,8.31743978 11.6384409,8.17219104 11.8145299,8.17219104 C11.990619,8.17219104 12.1333333,8.31743978 12.1333333,8.4966559 L12.1333333,8.4966559 L12.1333333,11.3776757 C12.1323371,12.2732494 11.4192635,12.998986 10.5393164,13 L10.5393164,13 L1.59401696,13 C0.714069802,12.998986 0.000996260601,12.2732494 0,11.3776757 L0,11.3776757 L0,2.92232429 C0.000996260601,2.02675057 0.714069802,1.30101395 1.59401696,1.3 L1.59401696,1.3 Z M10.1226106,0.428333071 C10.6937721,-0.14277769 11.6197672,-0.14277769 12.1909286,0.428333071 L12.1909286,0.428333071 L12.5722954,0.809665989 C13.1425682,1.38115762 13.1425682,2.30630885 12.5722954,2.87780044 L12.5722954,2.87780044 L6.77422568,8.67560948 C6.73448937,8.71534226 6.68523161,8.74403107 6.63114966,8.75901021 L6.63114966,8.75901021 L3.8784281,9.52154908 C3.7655669,9.55277676 3.64470766,9.52091438 3.56180737,9.43814838 C3.47903399,9.35525545 3.44716882,9.23440693 3.47852621,9.12155575 L3.47852621,9.12155575 L4.24100582,6.3690785 C4.25598625,6.31500134 4.28467764,6.26574792 4.32441392,6.22601517 L4.32441392,6.22601517 Z M4.7268549,7.05062857 L4.25827142,8.74187307 L5.9495391,8.27333118 L4.7268549,7.05062857 Z M9.77793325,1.69216481 L5.03255768,6.43724619 L6.56284894,7.9675286 L11.3083515,3.22244721 L9.77793325,1.69216481 Z M11.7312319,0.887862086 C11.4139764,0.570634727 10.8995629,0.570634727 10.5823074,0.887862086 L10.5823074,0.887862086 L10.2375031,1.23250886 L11.7680483,2.7629182 L12.1127256,2.41827143 C12.4294733,2.1007902 12.4294733,1.5868032 12.1127256,1.269195 L12.1127256,1.269195 Z" id="Combined-Shape"></path>
                        </g>
                    </g>
                </g>
            </g>
        </g>
    </g>
</svg>