<?xml version="1.0" encoding="UTF-8"?>
<svg width="12px" height="12px" viewBox="0 0 12 12" version="1.1" xmlns="http://www.w3.org/2000/svg" xmlns:xlink="http://www.w3.org/1999/xlink">
    <title>EF874BFC-B536-46F6-A020-5B9FED694B31</title>
    <g id="Welcome" stroke="none" stroke-width="1" fill="none" fill-rule="evenodd">
        <g id="Home-page-/-Récapitulatif_Produits-/-Modification_Produits" transform="translate(-118.000000, -823.000000)" fill="#FFFFFF" fill-rule="nonzero">
            <g id="Icons/Info" transform="translate(118.000000, 823.000000)">
                <path d="M6,0 C2.68624219,0 0,2.68633594 0,6 C0,9.31385156 2.68624219,12 6,12 C9.31375781,12 12,9.31385156 12,6 C12,2.68633594 9.31375781,0 6,0 Z M6,3 C6.41423437,3 6.75,3.3358125 6.75,3.75 C6.75,4.164375 6.41423437,4.5 6,4.5 C5.58576563,4.5 5.25,4.164375 5.25,3.75 C5.25,3.3358125 5.58576562,3 6,3 Z M7.125,9 L4.875,9 C4.66790625,9 4.5,8.83228125 4.5,8.625 C4.5,8.41790625 4.66790625,8.25 4.875,8.25 L5.25,8.25 L5.25,6 L4.875,6 C4.66790625,6 4.5,5.83228125 4.5,5.625 C4.5,5.41790625 4.66790625,5.25 4.875,5.25 L6.375,5.25 C6.58209375,5.25 6.75,5.41790625 6.75,5.625 L6.75,8.25 L7.125,8.25 C7.33209375,8.25 7.5,8.41790625 7.5,8.625 C7.5,8.83228125 7.33209375,9 7.125,9 Z" id="Shape"></path>
            </g>
        </g>
    </g>
</svg>