<?xml version="1.0" encoding="UTF-8"?>
<svg width="14px" height="15px" viewBox="0 0 14 15" version="1.1" xmlns="http://www.w3.org/2000/svg" xmlns:xlink="http://www.w3.org/1999/xlink">
    <title>818B572D-D3C8-46F0-A691-48B8C7E5D68E</title>
    <g id="Welcome" stroke="none" stroke-width="1" fill="none" fill-rule="evenodd">
        <g id="Accueil-/-Général-/--Mon_Profil-/-Général" transform="translate(-1050.000000, -231.000000)" fill="#4A4A4A" fill-rule="nonzero">
            <g id="Group-7" transform="translate(105.000000, 167.000000)">
                <g id="Group-4" transform="translate(945.500000, 62.000000)">
                    <g id="Group-3" transform="translate(0.000000, 2.000000)">
                        <g id="padlock" transform="translate(0.760000, 0.000000)">
                            <path d="M9.95014663,6.375 L9.95014663,4.00105932 C9.95687425,2.92690678 9.50276005,1.8940678 8.69208211,1.14088983 C7.90831465,0.403601695 6.88235294,0 5.79584268,0 C5.77902363,0 5.75884078,0 5.74202174,0 C3.42435743,0.0031779661 1.54062446,1.79555085 1.54062446,4.00105932 L1.54062446,6.375 C0.666034156,6.47351695 0.0269104709,7.16631356 0.0269104709,8.00529661 L0.0269104709,13.3379237 C0.0269104709,14.2436441 0.793858893,14.9904661 1.75254442,14.9904661 L9.74159048,14.9904661 C10.700276,14.9904661 11.4672244,14.2436441 11.4672244,13.3379237 L11.4672244,8.00529661 C11.4638606,7.16949153 10.8247369,6.47351695 9.95014663,6.375 Z M2.21002243,4.00105932 L2.21338623,4.00105932 C2.21338623,2.14512712 3.79774021,0.626037647 5.74538554,0.626037647 L5.74874935,0.626037647 C6.67379679,0.622881356 7.56184233,0.969279661 8.21778506,1.58580508 C8.90063826,2.22457627 9.28074866,3.09533898 9.27402105,4.00105932 L9.27402105,6.37817797 L8.53398309,6.37817797 L8.53398309,4.00105932 C8.54071071,3.27966102 8.23796791,2.58686441 7.69639469,2.07838983 C7.18509574,1.59533898 6.49215111,1.3220339 5.76893221,1.3220339 L5.74874935,1.3220339 C4.20139727,1.3220339 2.95006038,2.52330508 2.95006038,3.99788136 L2.95006038,6.37817797 L2.21002243,6.37817797 L2.21002243,4.00105932 L2.21002243,4.00105932 Z M7.86458513,4.00105932 L7.86458513,6.37817797 L3.62618596,6.37817797 L3.62618596,4.00105932 C3.62618596,2.87605932 4.57478006,1.96080508 5.75211316,1.96080508 L5.77229602,1.96080508 C6.31723305,1.96080508 6.84198723,2.16737288 7.22882525,2.53283898 C7.63920994,2.92055085 7.87131275,3.45127119 7.86458513,4.00105932 Z M10.8247369,13.3474576 L10.8247369,13.3474576 C10.8247369,13.9036017 10.3470761,14.3548729 9.75840952,14.3548729 L1.76599965,14.3548729 C1.1773331,14.3548729 0.699672244,13.9036017 0.699672244,13.3474576 L0.699672244,8.02118644 C0.699672244,7.46504237 1.1773331,7.01377119 1.76599965,7.01377119 L9.75840952,7.01377119 C10.3470761,7.01377119 10.8247369,7.46504237 10.8247369,8.02118644 L10.8247369,13.3474576 Z" id="Shape"></path>
                            <path d="M6.90926341,10.4872881 C6.76125582,9.99470339 6.28695877,9.65783898 5.74538554,9.65783898 C5.07598758,9.65783898 4.53105054,10.1694915 4.53105054,10.8050847 C4.53105054,11.3167373 4.88761428,11.7648305 5.40900466,11.904661 L5.40900466,12.7944915 C5.40900466,12.9692797 5.56037606,13.1122881 5.74538554,13.1122881 C5.93039503,13.1122881 6.08176643,12.9692797 6.08176643,12.7944915 L6.08176643,11.904661 C6.72425392,11.7298729 7.09763671,11.0942797 6.90926341,10.4872881 Z M5.74538554,11.3135593 C5.44600656,11.3135593 5.20381232,11.0847458 5.20381232,10.8019068 C5.20381232,10.5190678 5.44600656,10.2902542 5.74538554,10.2902542 C6.04476453,10.2902542 6.28695877,10.5190678 6.28695877,10.8019068 C6.28695877,11.0847458 6.04476453,11.3135593 5.74538554,11.3135593 Z" id="Shape"></path>
                        </g>
                    </g>
                </g>
            </g>
        </g>
    </g>
</svg>