<svg xmlns="http://www.w3.org/2000/svg" width="34" height="22" viewBox="0 0 34 22"><g fill="none" fill-rule="evenodd"><path fill="#FFF" stroke="#D8D8D8" d="M28,0.5 C29.5187831,0.5 30.8937831,1.11560847 31.8890873,2.1109127 C32.8843915,3.10621694 33.5,4.48121694 33.5,6 L33.5,6 L33.5,16 C33.5,17.5187831 32.8843915,18.8937831 31.8890873,19.8890873 C30.8937831,20.8843915 29.5187831,21.5 28,21.5 L28,21.5 L6,21.5 C4.48121694,21.5 3.10621694,20.8843915 2.1109127,19.8890873 C1.11560847,18.8937831 0.5,17.5187831 0.5,16 L0.5,16 L0.5,6 C0.5,4.48121694 1.11560847,3.10621694 2.1109127,2.1109127 C3.10621694,1.11560847 4.48121694,0.5 6,0.5 L6,0.5 Z"/><path fill="#EA6607" d="M9.00233546 1.7233077 9.00233546 1.72341388 9.00233546 1.72344927C9.00313951 1.79769879 9.00398011 1.87198371 9.00398011 1.94623323L8.99794975 1.94623323C8.99794975 2.0150326 8.99776701 2.08390275 8.99758427 2.1528083 8.99725982 2.29079633 8.99692641 2.42899671 8.99794975 2.56719709 9.00171415 3.06047158 9.2247643 3.4347982 9.67612745 3.66027185 10.2563575 3.94997948 10.859174 3.96017198 11.4544983 3.70769528 11.9556027 3.49538694 12.2215963 3.11228346 12.2268592 2.57523076 12.2306236 2.15493173 12.2298926 1.73537591 12.2268592 1.31507688 12.2238623.82619082 12.0015431.454766239 11.5532134.229292585 10.9797446-.058928643 10.3829585-.0720585639 9.79216615.170898058 9.31291717.367917652 9.02733404.718921844 9.00547856 1.23771298 8.9987538 1.39930656 9.00054463 1.56125404 9.00233546 1.7233077ZM11.2357242 2.12622994 11.2357607 2.12594681C11.2362358 2.06387166 11.236711 2.00176112 11.236711 1.93968597 11.236711 1.87155902 11.2363089 1.80343207 11.2358704 1.73530512 11.2350298 1.59919279 11.2342257 1.46318663 11.236711 1.32746359 11.2412429 1.15819025 11.1621173 1.03998557 11.0121624.969204324 10.757462.848805427 10.4944653.842222772 10.2360005.956782216 10.0694895 1.03050088 9.98356605 1.15744704 9.98659951 1.34572515 9.99336082 1.7456038 9.99262987 2.14544705 9.98659951 2.54532569 9.98433355 2.71973067 10.0611932 2.83864316 10.21568 2.9087166 10.4816736 3.02911549 10.7529301 3.03056651 11.0174252 2.90362035 11.1621173 2.83354691 11.2435088 2.72043849 11.2382094 2.55261615 11.2334948 2.41048742 11.2346277 2.26835868 11.2357242 2.12622994ZM15.7482592.057152598 15.490233.0570464261C15.5060581.100541501 15.5211523.141169935 15.5358079.180630479L15.5358079.18070126 15.5359541.180984385C15.5470646.210924852 15.5579192.240157506 15.5686277.26939016 15.9996338 1.42814991 16.4306765 2.58690967 16.8594532 3.74637723 16.8813087 3.80693059 16.9114239 3.82370574 16.9747244 3.82299793 17.2098352 3.8193527 17.4449461 3.81715848 17.680057 3.82370574 17.7659439 3.82664317 17.8036245 3.79964012 17.8322778 3.72156841 18.133613 2.90510675 18.4369948 2.08963603 18.7403401 1.27434227L18.7406324 1.27352829 18.7409614 1.27267891 18.9339328.753923169C18.9750124.643008959 19.0159457.532130139 19.0571714.420331164L19.0575369.419340226C19.1016499.299755314 19.1461649.179108682 19.1916667.0563386137 19.1050853.0563386137 19.0191619.0564093949 18.9337501.0565155668 18.6794152.0567986918 18.4295391.0570464261 18.179663.0548759009 18.1329186.054250567 18.1252801.079731815 18.1170569.107124157 18.1158874.111087906 18.1146813.115122437 18.113329.119086187 18.0806555.216870476 18.0477626.314548594 18.0148332.41215593 17.9301524.66353552 17.8455081.914667375 17.7652129 1.16693173 17.736121 1.25802719 17.7047632 1.34845023 17.6734053 1.43887327 17.5909539 1.67659208 17.5085024 1.91438167 17.4675325 2.16441642 17.4445075 2.30325383 17.4155253 2.44141882 17.3865795 2.5796192L17.386543 2.57972537 17.3865065 2.57993772 17.3864699 2.58018545C17.3728376 2.64516263 17.3592419 2.71010442 17.346231 2.77515239 17.3258739 2.74669833 17.3183451 2.71895208 17.3130823 2.69049802 17.295978 2.60563131 17.2811762 2.52009217 17.266411 2.43448226L17.2663744 2.43441148 17.2663744 2.4343053C17.2348704 2.25214977 17.2033663 2.06988807 17.1495682 1.89367816 17.0185815 1.46463765 16.8760093 1.03860533 16.7335101.612573024 16.6767516.443016552 16.6200297.273495472 16.5640387.103762047 16.554244.0738569717 16.5414523.0563386137 16.5022733.0563386137 16.2523972.057435723 16.0025576.0572941605 15.7482592.057152598ZM7.25283728 1.09915869C7.13756608 1.35743945 7.02149082 1.6157556 6.89715581 1.89233332 6.89160057 1.8803005 6.88644736 1.86940019 6.88169616 1.85931386 6.86594414 1.82590512 6.85443164 1.80152098 6.84518509 1.77628746 6.60254542 1.23049329 6.35990575.684663721 6.11953203.138161732 6.09314464.0783161901 6.0622619.0564093949 5.99366201.0578958011 5.72240555.0622488476 5.45111254.0615410351 5.17985608.0586036135 5.11505715.0578958011 5.09166667.0695393158 5.09166667.138869545 5.09393262 1.3406643 5.09393262 2.54320225 5.09243417 3.744997 5.09243417 3.80409934 5.10526238 3.82600613 5.17079227 3.82528736 5.45111254 3.8216177 5.73143281 3.82232551 6.01175308 3.82528736 6.07278762 3.82600613 6.08634678 3.80700137 6.08561583 3.75157966 6.0845925 3.63730334 6.08481178 3.52299163 6.08503107 3.40871531 6.08579857 3.00696096 6.08656607 2.6052774 6.03437606 2.20536337 6.02816297 2.15627658 6.02586047 2.10616345 6.02355797 2.0561919 6.02249809 2.03336494 6.02147475 2.01057338 6.0200494 1.987888 6.04716773 2.00469854 6.05773 2.02437573 6.06602631 2.04483151L6.13495512 2.21470649 6.13499167 2.21477727C6.26809812 2.54270678 6.40127765 2.87077785 6.53171612 3.19991064 6.5520366 3.25172251 6.57842399 3.27069188 6.63569411 3.26924086 6.81050139 3.26559563 6.98534522 3.26414462 7.16015251 3.26924086 7.22272204 3.27069188 7.24834192 3.24807727 7.2694299 3.19407118 7.41485289 2.81832895 7.56404029 2.44329452 7.71322769 2.0682601L7.71326424 2.06815393C7.71589567 2.06118197 7.71812507 2.05382072 7.72039103 2.04642408 7.72777364 2.02207534 7.73537555 1.99698339 7.75847365 1.98134073 7.77930579 1.9954262 7.7768571 2.01103346 7.7746277 2.02515432L7.7746277 2.02515432 7.7746277 2.02515432C7.77422567 2.0278794 7.7737871 2.03056909 7.77353127 2.0331526 7.71465305 2.53845991 7.7122409 3.0460676 7.70979221 3.55342756 7.70946329 3.61751998 7.7091709 3.68164779 7.70873233 3.7457402 7.70873233 3.80409934 7.72002555 3.82600613 7.78635949 3.82528736 8.06967666 3.8216177 8.35303039 3.82232551 8.63634756 3.82528736 8.69285019 3.82600613 8.7064459 3.80993879 8.7064459 3.75667591 8.7049109 2.5490417 8.7049109 1.3406643 8.7064459.133030092 8.7064459.0753787684 8.69062078.0586036135 8.6310847.0593468166 8.35376134.0622488476 8.07647452.0629920507 7.79915115.0586036135 7.73208626.057152598 7.70573543.0827046273 7.681614.136675326 7.54072291.458411473 7.39683492.778661214 7.25294692 1.09891095L7.25294692 1.09894635 7.25283728 1.09915869ZM15.6515542 1.94340198C15.6515542 2.0044862 15.6512618 2.0656058 15.651006 2.12669002L15.651006 2.1267608C15.6503482 2.26404102 15.6497268 2.40125046 15.6523217 2.538106 15.662884 3.11380525 15.3795303 3.51003866 14.8437787 3.72383341 14.2281339 3.96901964 13.6117217 3.94711284 13.0299932 3.61730763 12.6268364 3.38889656 12.4301736 3.03353932 12.4309046 2.57823897 12.4311238 2.46459968 12.432001 2.35096039 12.4328781 2.23735649 12.4351075 1.9482505 12.4373004 1.65921529 12.4286752 1.37060476 12.4098166.740864029 12.7722594.318370781 13.3103135.134516498 13.9297226-.0778272353 14.5378385-.0479221595 15.1029744.30014461 15.4729825.528520296 15.6515542.869296598 15.6523217 1.29543508 15.6523217 1.40344726 15.652139 1.51142405 15.6519562 1.61940084L15.6519562 1.62060412C15.651737 1.72819161 15.6515542 1.83581449 15.6515542 1.94340198ZM14.6697023 1.94117237C14.6697023 2.00314135 14.6694099 2.06514572 14.6691176 2.1271147L14.6691176 2.12718548C14.6684963 2.26658915 14.6678384 2.40595742 14.6704698 2.54536108 14.6734667 2.70514974 14.6026374 2.82335441 14.4594804 2.89413566 14.1776251 3.03495495 13.8912745 3.03205291 13.6109908 2.88974722 13.4790904 2.8226466 13.4120255 2.70953817 13.4127865 2.55994201 13.4142915 2.14838447 13.4142915 1.73686231 13.4127865 1.32530477 13.4120255 1.16622392 13.4866558 1.04801924 13.6275468.97578698 13.9101331.832030272 14.1964837.841514959 14.474538.98601487 14.6071693 1.0546019 14.6697023 1.17206337 14.6697023 1.3187575L14.6697023 1.94117237ZM3.93956333 7.85108797 3.93913056 7.8518656 3.93822897 7.85345791C3.78308251 8.13055611 3.62606073 8.41095002 3.46438672 8.69926842 3.40120294 8.47327212 3.34393363 8.26941997 3.28370709 8.06864135L3.1272984 7.51311184C2.94207473 6.85560072 2.75692319 6.19823772 2.5736109 5.53994896 2.55352337 5.46892473 2.52676403 5.44600293 2.45312175 5.44678057 1.96539494 5.4505947 1.47766813 5.44907645.989905261 5.44755821L.98979707 5.44755821C.928813187 5.44755821.898339278 5.45289058.88867418 5.53076543.848535172 5.85122619.804501274 6.17087228.760539504 6.49033322L.760539504 6.49033322.760539504 6.49033322.760539504 6.49033322.760539504 6.49033322.760539504 6.49033322.760539504 6.49033322C.743445264 6.61460712.726351023 6.73884399.709473166 6.86308086.666521182 7.17824627.623388879 7.49359684.580256576 7.80902147L.580220513 7.80913256C.530055769 8.17599237.479854962 8.54300029.429870537 8.91000822.343641996 9.54370882.25662005 10.1781871.169634169 10.8118877L.00457016371 12.025854.00374069635 12.0317789C-.00339993572 12.0830289-.00873737787 12.1212442.0715045734 12.1205142.571096372 12.1159119 1.07072423 12.1174672 1.5703521 12.1189854L1.57053241 12.1189854C1.62033652 12.1189854 1.64266001 12.1098389 1.64933181 12.0518123 1.66952754 11.885546 1.6922838 11.7197981 1.71507612 11.5541242L1.71507612 11.5540872C1.73087206 11.4390339 1.74670407 11.3240176 1.76163448 11.2088902 1.77331915 11.1197581 1.78547265 11.030663 1.79759009 10.941568L1.79759009 10.941568 1.79759009 10.941568 1.79759009 10.941531 1.79759009 10.941531 1.79759009 10.941531 1.79759009 10.941531C1.83397846 10.6742828 1.87036683 10.4069977 1.89546724 10.1384535 1.91876445 9.88809119 1.93279327 9.63632175 1.94685815 9.38455232L1.94685815 9.38455232 1.94685815 9.38455232 1.94685815 9.38451529 1.94685815 9.38451529 1.94685815 9.38447826 1.94685815 9.38447826 1.94685815 9.38447826 1.94685815 9.38447826 1.94685815 9.38447826 1.94685815 9.38444123 1.94685815 9.38444123 1.94685815 9.38444123C1.95389059 9.25857502 1.96088697 9.13267179 1.96907345 9.00695371 1.96993898 8.99528914 1.97019143 8.98347646 1.97044387 8.97155268 1.97138153 8.93118959 1.97231919 8.88975261 1.99583279 8.84968576 2.02208723 8.8736444 2.02684765 8.90089875 2.03124744 8.92626455 2.03247361 8.93326329 2.03366371 8.94007687 2.03525052 8.94666828L2.03528658 8.94674234C2.20850101 9.64987487 2.38175149 10.3530444 2.55053007 11.0569546 2.56614569 11.1218688 2.59142642 11.137903 2.6524103 11.1371253 2.97067332 11.1340888 3.28890028 11.1325336 3.6071633 11.137903 3.68224813 11.1386436 3.71719395 11.1096488 3.74918253 11.0462528 4.10459127 10.3430833 4.46227202 9.64143194 4.82067405 8.93978063 4.82489351 8.9314488 4.8283917 8.92078405 4.83196202 8.90982307 4.84220413 8.87849538 4.85320359 8.84487181 4.88461516 8.85731401 4.91537758 8.86938591 4.90318802 8.9052313 4.89211643 8.93785505 4.88847399 8.94859386 4.88493974 8.95896236 4.88310048 8.9680348 4.85176104 9.1251176 4.81937575 9.28190415 4.78702652 9.43869071L4.78702652 9.43872774 4.78702652 9.43876477 4.78699046 9.4388018 4.78699046 9.43883883 4.78699046 9.43891289 4.78699046 9.43894992 4.7869544 9.43898695C4.74494007 9.64261692 4.70292575 9.84628391 4.66303918 10.0506545 4.61121551 10.3155697 4.57645 10.58304 4.5416845 10.8505473 4.52300346 10.99404 4.50435847 11.1375327 4.48308083 11.280655 4.44589905 11.5303137 4.41171057 11.7815277 4.37824337 12.031927 4.37752209 12.0378889 4.37625986 12.04411 4.37499763 12.0504422 4.36847008 12.08314 4.36161796 12.1174672 4.42581152 12.1174672 4.94036979 12.1159119 5.45492807 12.1159119 5.96948634 12.1174672 6.01853311 12.1174672 6.02895555 12.0938047 6.03414873 12.0518123 6.05127904 11.9159109 6.06985189 11.7799724 6.08842475 11.644071 6.13451428 11.3061319 6.18020712 10.9681558 6.22589995 10.6301797L6.22589995 10.6300686 6.22593601 10.6299204 6.22593601 10.6298094 6.22597208 10.6296612 6.22597208 10.6295501 6.22600814 10.629402C6.27173704 10.2911667 6.31746593 9.95293136 6.36355547 9.61469602 6.409645 9.27649772 6.45613124 8.93826239 6.50261747 8.60002705 6.54906765 8.26179172 6.59555388 7.92355639 6.64164342 7.58532105L6.6958473 7.18691138C6.77060756 6.63719564 6.84533175 6.08755397 6.92196732 5.53839369 6.93163242 5.46892473 6.92272466 5.44374408 6.84612515 5.44446401 6.35241175 5.44755821 5.85866229 5.44678057 5.36494889 5.44446401 5.30620096 5.44374408 5.27572705 5.46281472 5.24673176 5.51473129 4.97149285 6.00975318 4.69427043 6.50425664 4.41708408 6.99868604L4.23546679 7.32270172C4.13708475 7.4982997 4.03870271 7.6740458 3.93956333 7.85108797ZM20.9662562 12.1938608C21.1038036 12.1778266 21.236915 12.1373895 21.3707478 12.089287 21.3439885 12.4107106 21.1670234 12.6244869 20.8725625 12.6809952 20.5067313 12.7512418 20.1706528 12.6672569 19.8680054 12.4473707 19.8204372 12.4130065 19.7981137 12.4084147 19.7564601 12.4580354 19.5385987 12.7206918 19.31778 12.9802746 19.0939681 13.2375616 19.0493572 13.2887375 19.0478425 13.3116223 19.1013972 13.3559106 19.6865684 13.8453039 20.3483391 14.0766696 21.1053182 13.9773912 21.543277 13.9201422 21.9254451 13.7407301 22.2310858 13.4047907 22.538169 13.067333 22.7061903 12.6573328 22.8073492 12.2152643 22.8804505 11.8949887 22.9208059 11.5690475 22.9611974 11.2430322L22.9612334 11.24281C22.976272 11.1212393 22.9913467 10.9996686 23.0080803 10.8783572 23.0902336 10.2821683 23.1716657 9.68579432 23.2530617 9.0893833L23.2530617 9.08927221 23.2530978 9.08916111 23.2530978 9.08905002 23.2531338 9.08893893 23.2531338 9.08882784 23.2531699 9.08871675C23.3345659 8.49237979 23.4159619 7.8960058 23.4981152 7.29985399 23.504787 7.2502333 23.4951219 7.23727267 23.4467964 7.23727267 22.9768851 7.23879092 22.5069378 7.23879092 22.0369904 7.23727267 21.9871863 7.23727267 21.9745279 7.25404743 21.9685774 7.30366811 21.9530699 7.43856972 21.9343168 7.57313806 21.9155636 7.70755828L21.9155636 7.70763234 21.9155275 7.70778046 21.9155275 7.70792858 21.9154915 7.7080767 21.9154915 7.70822483C21.907305 7.76680686 21.8991546 7.82538889 21.8912566 7.8839339 21.8050281 8.52652178 21.7188356 9.16985027 21.632607 9.81317877L21.6324988 9.8140675C21.6105721 9.97707515 21.5890059 10.140268 21.5674398 10.3034608 21.5458736 10.4666536 21.5243075 10.6298464 21.5023807 10.792854 21.4971514 10.83181 21.4904796 10.8653965 21.44659 10.886763 21.281526 10.9669338 21.1105114 10.9844862 20.9342676 10.9417531 20.784098 10.9050931 20.7097344 10.8050741 20.7045052 10.6462508 20.7011152 10.5568966 20.7146752 10.4692827 20.7282352 10.381743 20.7323825 10.3548959 20.7365659 10.3280489 20.7402083 10.3011649 20.826473 9.66746429 20.9134588 9.03298605 21.0004808 8.39928546 21.019847 8.25942178 21.0389969 8.11952107 21.0581468 7.97969442 21.088224 7.7600303 21.1182651 7.54051431 21.1491718 7.32125753 21.1573583 7.26245332 21.1514078 7.2357174 21.0815161 7.23647856 20.6264631 7.23953152 20.1713741 7.23953152 19.7163211 7.23647856 19.662045 7.23647856 19.6441935 7.25482506 19.6374856 7.30596399 19.615667 7.47456324 19.5926583 7.64279217 19.5696135 7.81116923 19.5612467 7.87226933 19.5528799 7.93344349 19.5445492 7.99465468 19.5203864 8.17003048 19.4960434 8.34533222 19.4717364 8.52063395L19.47152 8.52207814C19.4083001 8.97740348 19.3451524 9.4325807 19.2850341 9.88812822 19.2749723 9.96455889 19.2632155 10.0408785 19.2514587 10.1172721L19.2514587 10.1172721C19.2163326 10.3453051 19.1811343 10.5736343 19.1906191 10.8058517 19.2084706 11.2509567 19.3549618 11.6357762 19.7118491 11.9106155 20.0866241 12.1999708 20.5163964 12.246555 20.9662562 12.1938608ZM13.8406988 12.1152824C13.7735841 12.1152824 13.7064333 12.1151342 13.6393186 12.1150231 13.4714777 12.1146899 13.3036368 12.1143936 13.1357958 12.116023 13.0800051 12.1168006 13.0681401 12.1045806 13.0770479 12.0442581 13.1350024 11.6301846 13.1920914 11.2158148 13.2491444 10.8014081 13.3297109 10.2164024 13.4103135 9.63132266 13.4934405 9.04676135 13.5536671 8.62380055 13.338799 8.51844916 13.0086349 8.54514805 12.7877802 8.56270045 12.7840656 8.56881046 12.7535917 8.78947439 12.6851065 9.28223743 12.6175951 9.77500046 12.5501197 10.2679116 12.5018303 10.6204407 12.4535409 10.9730808 12.4048548 11.325795 12.3932783 11.4100391 12.381269 11.4942461 12.3692237 11.5784532L12.3691877 11.5787494 12.3691877 11.5788605C12.3471888 11.7327957 12.3251898 11.8868421 12.3059678 12.0412216 12.2985387 12.0984706 12.2821657 12.1168006 12.2249325 12.1168006 11.7549851 12.1145047 11.2850378 12.1145047 10.8151265 12.1168006 10.7533853 12.1168006 10.7400056 12.0984706 10.7489494 12.0381481 10.7985011 11.6859523 10.8474036 11.3337936 10.8963061 10.9815978 10.9207573 10.8054444 10.9452447 10.6292909 10.969768 10.4531375 11.0567539 9.82554691 11.1437759 9.19717868 11.2300044 8.56958809 11.2452594 8.4594598 11.2604423 8.34925744 11.2755891 8.23898102L11.2756612 8.23853665C11.3040795 8.03172207 11.3325338 7.82483344 11.3616373 7.61827807L11.3623946 7.61261243C11.3679484 7.57132357 11.3729613 7.534034 11.4255784 7.51137142 12.2211818 7.17317311 13.0398661 7.04489994 13.8919816 7.21972028 14.1871998 7.28082038 14.4578586 7.40372415 14.6794346 7.62057396 14.9322418 7.86715914 15.0393152 8.18021383 15.0638747 8.52911391 15.080464 8.76492326 15.0464198 8.99588163 15.0123395 9.22702515 15.0037203 9.2854961 14.995065 9.34396704 14.9872752 9.40254907 14.923875 9.87668584 14.8579143 10.3504153 14.7919897 10.8239966L14.7918815 10.8249964 14.7917373 10.8260332 14.7917012 10.8262925 14.7916651 10.8265517C14.7703154 10.9797463 14.7490017 11.1329039 14.7277601 11.2860985 14.7183474 11.3543454 14.7087905 11.4225924 14.6992336 11.4908394L14.6991976 11.4910245C14.6732316 11.6762504 14.6472296 11.8615873 14.6244012 12.0473316 14.6177294 12.1045806 14.5968846 12.116023 14.5463231 12.1152824 14.3891571 12.1142455 14.2323156 12.1145788 14.0756184 12.1149121L14.0755102 12.1149121C13.9972157 12.1150972 13.9189573 12.1152824 13.8406988 12.1152824ZM6.68928369 10.7149051C6.69934549 10.4889088 6.73263238 10.2632088 6.76599139 10.0369532L6.76599139 10.0368792C6.78189553 9.92915786 6.79779966 9.82128842 6.8112154 9.71319679 6.81727411 9.66409453 6.82315251 9.6149182 6.82903091 9.56570485L6.82903091 9.56570485C6.85860323 9.31815688 6.88824767 9.07009048 6.93909762 8.82676396 7.10863354 8.01365126 7.61724129 7.51126033 8.37046978 7.26086101 8.87907753 7.09211365 9.3936358 7.08981777 9.89852898 7.29292931 10.5402121 7.55021627 10.8889491 8.1174844 10.8131069 8.82143159 10.7506444 9.40321562 10.6688517 9.98270377 10.5773939 10.5606737 10.4777496 11.186746 10.1230622 11.6341469 9.5810233 11.9166515 8.90659421 12.2678475 8.20464843 12.3365758 7.50198139 12.0158929 6.96437835 11.7716036 6.69224092 11.3287575 6.68928369 10.7149051ZM8.59049501 10.8685104C8.33693045 10.8677294 8.20457631 10.7058697 8.24027947 10.4485828 8.28651326 10.1130877 8.33083566 9.77725932 8.37512201 9.44154205L8.3752302 9.44076441C8.39780614 9.26942492 8.42041814 9.09812246 8.44324652 8.92693109 8.46780597 8.74370486 8.58750172 8.64749998 8.7444153 8.59021401 8.90277144 8.53218743 9.04926259 8.55588686 9.17642354 8.67194002 9.2507871 8.73911309 9.27678909 8.82768972 9.26268815 8.92844934 9.23646977 9.12182189 9.2105399 9.31530554 9.18464609 9.50882622L9.18461003 9.50919652C9.142199 9.82595424 9.09978797 10.142749 9.05597046 10.4592845 9.01878868 10.7333833 8.86115382 10.8692847 8.59049501 10.8685104ZM16.7556635 10.3073119C16.9273993 10.3454902 17.1021645 10.3637832 17.275415 10.3554144 17.4367644 10.362265 17.5929207 10.3470085 17.7460836 10.3164584 18.1082002 10.2431753 18.4383282 10.1003863 18.7105017 9.83621165 19.0673891 9.48960746 19.1960286 9.0543896 19.1900781 8.56195984 19.182649 7.9595499 18.8710938 7.48693138 18.3208684 7.27393273 17.8776804 7.10214888 17.4218701 7.09755711 16.9720103 7.2265709 16.1176589 7.47167487 15.561483 8.02598237 15.4001335 8.93989172 15.3071611 9.47049979 15.2313189 10.0056996 15.1800362 10.5424547 15.1227669 11.1402729 15.3532867 11.6128914 15.8581438 11.9327967 16.167499 12.1289836 16.5095281 12.2084137 16.8686875 12.2137461 17.5705972 12.2244479 18.1773345 11.983158 18.6866996 11.4846183 18.7439329 11.4296282 18.7365037 11.401374 18.6859423 11.3502351 18.4799819 11.1425688 18.2762575 10.9333472 18.0762116 10.719571 18.0219356 10.6615444 17.9929403 10.6539161 17.9222913 10.7050921 17.633817 10.913499 17.31779 10.9814497 16.9787181 10.85014 16.7809442 10.7737834 16.6664056 10.5859654 16.6738708 10.3790768 16.6760707 10.3240867 16.6820213 10.2905001 16.7556635 10.3073119ZM16.8758281 9.36596308C16.9665286 9.39729076 17.0579863 9.42169377 17.1643024 9.41865728 17.5048889 9.41865728 17.7316581 9.22321103 17.7733118 8.88345745 17.7955992 8.7032677 17.7152851 8.54596272 17.5695513 8.4864179 17.2996499 8.37647475 16.9523915 8.5711804 16.9003515 8.86512742 16.8852047 8.95148223 16.8732676 9.03813327 16.8613665 9.12474729 16.8533604 9.1828109 16.8453542 9.24087451 16.8364104 9.29879 16.8304598 9.33619066 16.8408823 9.35374306 16.8758281 9.36596308Z" transform="translate(5.25 4)"/></g></svg>