<?xml version="1.0" encoding="UTF-8"?>
<svg width="13px" height="13px" viewBox="0 0 13 13" version="1.1" xmlns="http://www.w3.org/2000/svg" xmlns:xlink="http://www.w3.org/1999/xlink">
    <title>90B44A04-BF19-45D8-A65D-39CFDCBAF0B6</title>
    <g id="Welcome" stroke="none" stroke-width="1" fill="none" fill-rule="evenodd">
        <g id="Boutique-/-Présentoire-/-Voir_Produit" transform="translate(-774.000000, -462.000000)" fill-rule="nonzero">
            <g id="Group-3" transform="translate(247.000000, 137.500000)">
                <g id="Infos-statiques" transform="translate(515.477657, 316.500000)">
                    <g id="Icons/Chariot" transform="translate(12.502343, 8.500000)">
                        <path d="M12,5.5893438 C12,5.17889411 11.6535953,4.84299654 11.2303064,4.84299654 L0.769587094,4.84299654 C0.346298219,4.84299654 0,5.17889411 0,5.5893438 C0,5.93825185 0.251098155,6.23098766 0.586108671,6.31163199 L1.64736576,11.1800299 C1.64736576,11.6310599 2.02784655,12 2.49298512,12 L9.64534249,12 C10.1104811,12 10.4909619,11.6310599 10.4909619,11.1800299 L11.5638261,6.25845423 C11.8205681,6.13722959 12,5.88362848 12,5.5893438 Z" id="Shape" fill="#FFFFFF"></path>
                        <path d="M3.45712536,10.2286127 C3.45712536,10.3695596 3.33817853,10.4847953 3.19282272,10.4847953 L3.11998509,10.4847953 C2.97462929,10.4847953 2.85568245,10.3694563 2.85568245,10.2286127 L2.85568245,7.22949042 C2.85568245,7.08854355 2.97462929,6.97330786 3.11998509,6.97330786 L3.19282272,6.97330786 C3.33817853,6.97330786 3.45712536,7.08854355 3.45712536,7.22949042 L3.45712536,10.2286127 Z" id="Path" fill="#191970"></path>
                        <path d="M5.39190161,10.2286127 C5.39190161,10.3695596 5.27295477,10.4847953 5.12759897,10.4847953 L5.05476133,10.4847953 C4.90940553,10.4847953 4.7904587,10.3694563 4.7904587,10.2286127 L4.7904587,7.22949042 C4.7904587,7.08854355 4.90929904,6.97330786 5.05476133,6.97330786 L5.12759897,6.97330786 C5.27295477,6.97330786 5.39190161,7.08854355 5.39190161,7.22949042 L5.39190161,10.2286127 Z" id="Path" fill="#191970"></path>
                        <path d="M7.32657136,10.2286127 C7.32657136,10.3695596 7.20773101,10.4847953 7.06226872,10.4847953 L6.98953758,10.4847953 C6.84418177,10.4847953 6.72534143,10.3694563 6.72534143,10.2286127 L6.72534143,7.22949042 C6.72534143,7.08854355 6.84418177,6.97330786 6.98953758,6.97330786 L7.06237521,6.97330786 C7.20773101,6.97330786 7.32667785,7.08854355 7.32667785,7.22949042 L7.32667785,10.2286127 L7.32657136,10.2286127 Z" id="Path" fill="#191970"></path>
                        <path d="M9.2613476,10.2286127 C9.2613476,10.3695596 9.14240077,10.4847953 8.99715145,10.4847953 L8.92431382,10.4847953 C8.77895802,10.4847953 8.66001118,10.3694563 8.66001118,10.2286127 L8.66001118,7.22949042 C8.66001118,7.08854355 8.77895802,6.97330786 8.92431382,6.97330786 L8.99715145,6.97330786 C9.14250725,6.97330786 9.2613476,7.08854355 9.2613476,7.22949042 L9.2613476,10.2286127 Z" id="Path" fill="#191970"></path>
                        <path d="M2.61108005,3.60039238 C2.85067753,1.98254943 4.28187312,0.73777686 6.01666534,0.73777686 C7.75145755,0.73777686 9.18275963,1.98254943 9.42235711,3.60039238 C9.45728509,4.15282152 10.1911988,4.06443286 10.1911988,3.60039238 C9.94680936,1.57364861 8.17251018,0 6.01666534,0 C3.86092698,0 2.08652131,1.57364861 1.84223837,3.60039238 C1.84223837,4.17502194 2.62045098,4.19711911 2.61108005,3.60039238 Z" id="Path" fill="#191970"></path>
                    </g>
                </g>
            </g>
        </g>
    </g>
</svg>