<?xml version="1.0" encoding="UTF-8"?>
<svg width="24px" height="23px" viewBox="0 0 24 23" version="1.1" xmlns="http://www.w3.org/2000/svg" xmlns:xlink="http://www.w3.org/1999/xlink">
    <title>7C5ADF3B-077B-4A83-A0E3-58D4F174FC08</title>
    <defs>
        <polygon id="path-1" points="0.000136126893 0.00345762307 7.25787753 0.00345762307 7.25787753 15.1100851 0.000136126893 15.1100851"></polygon>
    </defs>
    <g id="Welcome" stroke="none" stroke-width="1" fill="none" fill-rule="evenodd">
        <g id="Boutique-/-Présentoire-/-Voir_Produit" transform="translate(-772.000000, -574.000000)">
            <g id="Group-3" transform="translate(247.000000, 137.500000)">
                <g id="Autres-offres" transform="translate(515.500000, 428.500000)">
                    <g id="Icons/Favicons" transform="translate(10.000000, 8.000000)">
                        <rect id="Rectangle" stroke="#191970" fill="#F5F5F5" x="0.5" y="0.5" width="22" height="22" rx="6"></rect>
                        <g id="Group-10" transform="translate(2.515625, 3.881250)">
                            <path d="M16.3487173,15.0457923 C15.8480426,15.0457923 15.4407509,14.6386368 15.4407509,14.1379621 L15.4407509,6.85177017 L13.7790499,11.886151 C13.6637505,12.2353165 13.3393601,12.4699993 12.9715452,12.4699993 C12.6026413,12.4699993 12.2778426,12.2344998 12.1633598,11.8837008 L10.5209889,6.85844039 L10.5209889,14.1379621 C10.5209889,14.6386368 10.1138334,15.0457923 9.61329477,15.0457923 L9.08798109,15.0457923 C8.58730638,15.0457923 8.18001471,14.6386368 8.18001471,14.1379621 L8.18001471,1.24116417 C8.18001471,0.740489458 8.58730638,0.333197795 9.08798109,0.333197795 L9.75500286,0.333197795 C10.1410587,0.333197795 10.485732,0.578362328 10.61233,0.943046274 L12.9805296,7.75783077 L15.3298075,0.945088177 C15.455861,0.57917909 15.8009427,0.333197795 16.1879514,0.333197795 L16.8738948,0.333197795 C17.3745695,0.333197795 17.7817251,0.740489458 17.7817251,1.24116417 L17.7817251,14.1379621 C17.7817251,14.6386368 17.3745695,15.0457923 16.8738948,15.0457923 L16.3487173,15.0457923 Z" id="Fill-1" fill="#191970"></path>
                            <path d="M16.8739493,0.197070902 L16.1880059,0.197070902 C15.7427348,0.197070902 15.3461972,0.479942585 15.2010859,0.900846937 L12.9801757,7.34169086 L10.7410244,0.898396653 C10.5953686,0.47885357 10.1989671,0.197070902 9.75492119,0.197070902 L9.08803554,0.197070902 C8.51221878,0.197070902 8.04394227,0.665347413 8.04394227,1.24116417 L8.04394227,14.1379621 C8.04394227,14.7136427 8.51221878,15.1819192 9.08803554,15.1819192 L9.61321309,15.1819192 C10.1888937,15.1819192 10.6571702,14.7136427 10.6571702,14.1379621 L10.6571702,7.71331728 L12.0338215,11.9260362 C12.1668175,12.3327834 12.5436167,12.6061262 12.9715997,12.6061262 C13.3982213,12.6061262 13.7746122,12.3338724 13.9084249,11.929031 L15.3046785,7.69834332 L15.3046785,14.1379621 C15.3046785,14.7136427 15.772955,15.1819192 16.3486356,15.1819192 L16.8739493,15.1819192 C17.4496299,15.1819192 17.9179064,14.7136427 17.9179064,14.1379621 L17.9179064,1.24116417 C17.9179064,0.665347413 17.4496299,0.197070902 16.8739493,0.197070902 M16.8739493,0.469324688 C17.3001626,0.469324688 17.6456526,0.814950868 17.6456526,1.24116417 L17.6456526,14.1379621 C17.6456526,14.5641754 17.3001626,14.9096655 16.8739493,14.9096655 L16.3486356,14.9096655 C15.9224223,14.9096655 15.5769323,14.5641754 15.5769323,14.1379621 L15.5769323,6.12771123 L15.5363664,6.12771123 L13.6497838,11.8436795 C13.5531337,12.1362161 13.2797909,12.3338724 12.9715997,12.3338724 C12.6625916,12.3338724 12.3887043,12.1352633 12.2927348,11.8415014 L10.4254823,6.12771123 L10.3849164,6.12771123 L10.3849164,14.1379621 C10.3849164,14.5641754 10.0394264,14.9096655 9.61321309,14.9096655 L9.08803554,14.9096655 C8.66168611,14.9096655 8.31619606,14.5641754 8.31619606,14.1379621 L8.31619606,1.24116417 C8.31619606,0.814950868 8.66168611,0.469324688 9.08803554,0.469324688 L9.75492119,0.469324688 C10.0833954,0.469324688 10.3760682,0.677326579 10.4838807,0.987832021 L12.9607095,8.11543612 L13.0012753,8.11543612 L15.4585019,0.989465544 C15.5657698,0.678279468 15.8587149,0.469324688 16.1880059,0.469324688 L16.8739493,0.469324688" id="Fill-3"></path>
                            <path d="M3.4372721,15.1066819 C2.93659739,15.1066819 2.52930573,14.6995264 2.52930573,14.1988517 L2.52930573,2.49153051 L1.0440252,2.49153051 C0.543350492,2.49153051 0.136058829,2.08437498 0.136058829,1.58370027 L0.136058829,1.18022016 C0.136058829,0.679681575 0.543350492,0.272253785 1.0440252,0.272253785 L6.2137162,0.272253785 C6.71439091,0.272253785 7.12154645,0.679681575 7.12154645,1.18022016 L7.12154645,1.58370027 C7.12154645,2.08437498 6.71439091,2.49153051 6.2137162,2.49153051 L4.8702799,2.49153051 L4.8702799,14.1988517 C4.8702799,14.6995264 4.46312436,15.1066819 3.96244965,15.1066819 L3.4372721,15.1066819 Z" id="Fill-5" fill="#D0021B"></path>
                            <g id="Group-9" transform="translate(0.000000, 0.132724)">
                                <mask id="mask-2" fill="white">
                                    <use xlink:href="#path-1"></use>
                                </mask>
                                <g id="Clip-8"></g>
                                <path d="M6.21378427,0.00345762307 L1.04395714,0.00345762307 C0.46827651,0.00345762307 0.000136126893,0.471734134 0.000136126893,1.04755089 L0.000136126893,1.451031 C0.000136126893,2.0265755 0.46827651,2.49498814 1.04395714,2.49498814 L2.3932469,2.49498814 L2.3932469,14.0661824 C2.3932469,14.6417269 2.86165954,15.1101395 3.43734016,15.1101395 L3.96251772,15.1101395 C4.53819834,15.1101395 5.00647486,14.6417269 5.00647486,14.0661824 L5.00647486,2.49498814 L6.21378427,2.49498814 C6.78946489,2.49498814 7.25787753,2.0265755 7.25787753,1.451031 L7.25787753,1.04755089 C7.25787753,0.471734134 6.78946489,0.00345762307 6.21378427,0.00345762307 M6.21378427,0.275711408 C6.63999757,0.275711408 6.98562375,0.621337588 6.98562375,1.04755089 L6.98562375,1.451031 C6.98562375,1.8772443 6.63999757,2.22273435 6.21378427,2.22273435 L4.73422107,2.22273435 L4.73422107,14.0661824 C4.73422107,14.4923957 4.38873102,14.8378857 3.96251772,14.8378857 L3.43734016,14.8378857 C3.01112686,14.8378857 2.66550068,14.4923957 2.66550068,14.0661824 L2.66550068,2.22273435 L1.04395714,2.22273435 C0.617879965,2.22273435 0.272389912,1.8772443 0.272389912,1.451031 L0.272389912,1.04755089 C0.272389912,0.621337588 0.617879965,0.275711408 1.04395714,0.275711408 L6.21378427,0.275711408" id="Fill-7" fill="#D0021B" mask="url(#mask-2)"></path>
                            </g>
                        </g>
                    </g>
                </g>
            </g>
        </g>
    </g>
</svg>