<svg width="15" height="15" viewBox="0 0 15 15" fill="none" xmlns="http://www.w3.org/2000/svg">
<path d="M7.5 0C3.36433 0 0 3.36433 0 7.5C0 11.6357 3.36433 15 7.5 15C11.6357 15 15 11.6357 15 7.5C15 3.36433 11.6357 0 7.5 0Z" fill="#00B517"/>
<path d="M10.9406 5.95294L6.93483 9.90809C6.81465 10.0268 6.6569 10.0865 6.49915 10.0865C6.3414 10.0865 6.18365 10.0268 6.06347 9.90809L4.06065 7.93051C3.81963 7.69263 3.81963 7.30802 4.06065 7.07014C4.30157 6.83214 4.69098 6.83214 4.93201 7.07014L6.49915 8.61753L10.0692 5.09256C10.3101 4.85456 10.6995 4.85456 10.9406 5.09256C11.1815 5.33044 11.1815 5.71494 10.9406 5.95294Z" fill="#FAFAFA"/>
</svg>
