<svg xmlns="http://www.w3.org/2000/svg" width="42" height="42" viewBox="0 0 42 42"><g fill="none" fill-rule="evenodd"><rect width="42" height="42" fill="#FFF" rx="21"/><g fill="#191970" fill-rule="nonzero" transform="translate(9 8.5)"><path d="M13.5876923,2.83018868 C13.3965168,2.83018868 13.2415385,2.67179885 13.2415385,2.47641509 L13.2415385,1.88679245 C13.2415385,1.23551327 12.7249439,0.70754717 12.0876923,0.70754717 C11.4504407,0.70754717 10.9338462,1.23551327 10.9338462,1.88679245 L10.9338462,2.47641509 C10.9338462,2.67179885 10.7788678,2.83018868 10.5876923,2.83018868 C10.3965168,2.83018868 10.2415385,2.67179885 10.2415385,2.47641509 L10.2415385,1.88679245 C10.2415385,0.844745755 11.0680897,0 12.0876923,0 C13.1072949,0 13.9338462,0.844745755 13.9338462,1.88679245 L13.9338462,2.47641509 C13.9338462,2.67179885 13.7788678,2.83018868 13.5876923,2.83018868 L13.5876923,2.83018868 Z"/><path d="M17.0330769,25.0000031 L7.14,25.0000031 C6.3196463,25.0011928 5.53494106,24.6574141 4.97011737,24.0493761 C4.40529367,23.4413381 4.11010153,22.6225972 4.15384615,21.7853774 L4.81153846,9.16981132 C5.02887202,5.22917789 8.21889073,2.14753021 12.0807692,2.14753021 C15.9426477,2.14753021 19.1326664,5.22917789 19.35,9.16981132 L20.0076923,21.7853774 C20.0473118,22.6194795 19.7523203,23.43401 19.1908852,24.0407446 C18.6294501,24.6474791 17.8501532,24.9939162 17.0330769,25.0000031 L17.0330769,25.0000031 Z M12.0876923,2.83018868 C8.58735184,2.82985839 5.6973489,5.62606185 5.50615385,9.19811321 L4.84615385,21.8231132 C4.81187161,22.4664124 5.03839966,23.0957352 5.47242189,23.5629629 C5.90644413,24.0301905 6.5096255,24.294055 7.14,24.2924601 L17.0330769,24.2924601 C17.6630509,24.2934056 18.2656239,24.0292569 18.6991398,23.5621044 C19.1326557,23.0949518 19.3588745,22.4660025 19.3246154,21.8231132 L18.6669231,9.19811321 C18.4769104,5.62643498 15.5876038,2.82992478 12.0876923,2.83018868 Z"/><path d="M12.0876923,22.4056604 C10.7051449,22.4056604 9.38267073,21.8281412 8.42731957,20.806772 C7.47196841,19.7854027 6.96684599,18.4091831 7.02923077,16.9976415 L7.35461538,9.57783019 C7.49064017,7.00911021 9.56831278,4.99751399 12.0853846,4.99751399 C14.6024565,4.99751399 16.6801291,7.00911021 16.8161538,9.57783019 L17.1461538,16.9976415 C17.2085386,18.4091831 16.7034162,19.7854027 15.748065,20.806772 C14.7927139,21.8281412 13.4702397,22.4056604 12.0876923,22.4056604 Z M12.0876923,5.66036841 C9.92267793,5.65581203 8.13975805,7.39784904 8.04692308,9.60849057 L7.71923077,17.0306604 C7.65544448,18.6676836 8.4736165,20.2090418 9.85112882,21.0469534 C11.2286411,21.884865 12.9444358,21.884865 14.3219481,21.0469534 C15.6994604,20.2090418 16.5176324,18.6676836 16.4538462,17.0306604 L16.1284615,9.60849057 C16.0344611,7.39838888 14.2522314,5.65702624 12.0876923,5.66036841 Z"/><path d="M12.8569231 18.9316038 11.8569231 18.9316038 11.8569231 18.2240566 12.8569231 18.2240566 12.8569231 18.9316038ZM12.8569231 17.5165094 11.8569231 17.5165094 11.8569231 16.8089623 12.8569231 16.8089623 12.8569231 17.5165094ZM12.8569231 16.1014151 11.8569231 16.1014151 11.8569231 15.3938679 12.8569231 15.3938679 12.8569231 16.1014151ZM12.8569231 14.6863208 11.8569231 14.6863208 11.8569231 13.9787736 12.8569231 13.9787736 12.8569231 14.6863208ZM12.2030769 13.134434C12.0119014 13.134434 11.8569231 12.9760441 11.8569231 12.7806604L11.8569231 7.9009434C11.8569231 7.70555964 12.0119014 7.54716981 12.2030769 7.54716981 12.3942524 7.54716981 12.5492308 7.70555964 12.5492308 7.9009434L12.5492308 12.7806604C12.5492308 12.9760441 12.3942524 13.134434 12.2030769 13.134434L12.2030769 13.134434Z"/><path d="M11.28 10.1415094C11.1488866 10.1415094 11.0290263 10.065801 10.9703906 9.94594821 10.9117549 9.82609537 10.9244089 9.68267134 11.0030769 9.5754717L11.6953846 8.63207547C11.8100899 8.47576847 12.0270596 8.4440905 12.18 8.56132075 12.3329404 8.67855101 12.3639361 8.90029677 12.2492308 9.05660377L11.5569231 10C11.4910807 10.0885052 11.3887845 10.1407792 11.28 10.1415094L11.28 10.1415094ZM19.6407692 23.2596322C19.4924287 23.2644922 19.3574419 23.1723362 19.3052127 23.0303481 19.2529834 22.8883601 19.295137 22.728144 19.41 22.6320755 19.9765834 22.1531074 20.359144 21.4847627 20.49 20.745283L23.2153846 5.00707547C23.5142556 3.27467285 22.382397 1.62266696 20.6873077 1.31721703 18.9922184 1.01176709 17.3757941 2.16854078 17.0769231 3.9009434L17.0353846 4.13679245C17.0139487 4.26318358 16.9281645 4.36828613 16.8103462 4.41250899 16.6925278 4.45673184 16.5605747 4.4333565 16.4641923 4.35118823 16.3678099 4.26901996 16.321641 4.14054207 16.3430769 4.01415094L16.3869231 3.77830189C16.7520683 1.66164456 18.7270091.248279352 20.7980769.621462321 22.8691447.994645291 24.2520682 3.01305964 23.8869231 5.12971698L21.1846154 20.8561321C21.0268198 21.7660627 20.5582568 22.5892637 19.8623077 23.1792453 19.7998717 23.2315618 19.7215059 23.2599273 19.6407692 23.2596322Z"/><path d="M18.78,7.81839623 L18.72,7.81839623 C18.531913,7.78366539 18.4063034,7.60057377 18.4384615,7.40801887 L18.8838462,4.82783019 C19.1234528,3.43930296 20.4190718,2.5121945 21.7776923,2.75707547 C23.1363128,3.00195645 24.0434528,4.32609542 23.8038462,5.71462264 L23.7,6.32311321 C23.6662257,6.51849696 23.4838678,6.64890458 23.2926923,6.61438678 C23.1015168,6.57986899 22.973918,6.39349696 23.0076923,6.19811321 L23.1138462,5.59198113 C23.2085025,4.63002786 22.5611763,3.75628603 21.6295462,3.58851664 C20.6979162,3.42074726 19.7973679,4.01574549 19.5646154,4.95283019 L19.1215385,7.5259434 C19.0915133,7.69479913 18.9479237,7.81775216 18.78,7.81839623 L18.78,7.81839623 Z"/><path d="M19.3569231 16.2735849C19.3354446 16.2759085 19.3137862 16.2759085 19.2923077 16.2735849 19.2020197 16.2564075 19.1221116 16.2032647 19.070174 16.1258551 19.0182364 16.0484456 18.9985271 15.9531149 19.0153846 15.8608491L21.3230769 3.36084906C21.3371199 3.2659181 21.3883123 3.18089726 21.4649026 3.12530329 21.541493 3.06970932 21.6369029 3.04831726 21.7292308 3.06603774 21.8193934 3.08317703 21.8991208 3.13641724 21.9506897 3.21392321 22.0022586 3.29142918 22.0213954 3.38677789 22.0038462 3.47877358L19.6961538 15.9787736C19.6690167 16.1487101 19.5253993 16.273522 19.3569231 16.2735849L19.3569231 16.2735849ZM4.54615385 23.2596158C4.46226221 23.2621825 4.38025105 23.2336849 4.31538462 23.1792453 3.62201016 22.5881336 3.15597808 21.7650699 3 20.8561321L.288461538 5.12971698C-.0779581513 3.01305963 1.30393219.993589306 3.375.619103774 5.44606781.244618242 7.42204185 1.65692755 7.78846154 3.77358491L7.83230769 4.00943396C7.86544478 4.20481772 7.73732934 4.39066178 7.54615385 4.4245283 7.35497836 4.45839482 7.17313708 4.32745923 7.14 4.13207547L7.09846154 3.89622642C6.72547312 2.24458954 5.15175272 1.18116795 3.51870294 1.47724998 1.88565316 1.773332.765878012 3.325101.971538462 5.00707547L3.69230769 20.7334906C3.82259344 21.4731856 4.2052611 22.1417175 4.77230769 22.620283 4.88537274 22.7150172 4.92800794 22.8721369 4.87883395 23.0128549 4.82965997 23.1535729 4.69928166 23.247542 4.55307692 23.2476415L4.54615385 23.2596158Z"/><path d="M5.40692308,7.81839623 C5.24337314,7.8122094 5.10607514,7.69053307 5.07692308,7.5259434 L4.61538462,4.95283019 C4.38819521,4.01012617 3.48556206,3.40819433 2.54978272,3.57535856 C1.61400338,3.74252279 0.964674186,4.62169156 1.06384615,5.58726415 L1.17,6.19339623 C1.20377433,6.38877998 1.07617549,6.57515201 0.884999999,6.6096698 C0.693824511,6.6441876 0.511466648,6.51377998 0.477692308,6.31839623 L0.383076923,5.70990566 C0.207200731,4.69286781 0.648490927,3.66776327 1.50095303,3.11311135 C2.35341513,2.55845943 3.44894701,2.58363528 4.27615385,3.17688679 C4.82135388,3.56407587 5.19139707,4.15897959 5.30307692,4.82783019 L5.74846154,7.40801887 C5.78061969,7.60057377 5.6550101,7.78366539 5.46692308,7.81839623 L5.40692308,7.81839623 Z"/><path d="M4.83,16.2735849 C4.66372419,16.2741171 4.52089908,16.1529727 4.49076923,15.9858491 L2.18307692,3.48584906 C2.16344849,3.39280528 2.18158906,3.29560376 2.23334956,3.2164762 C2.28511006,3.13734865 2.36606275,3.08306386 2.45769231,3.06603774 C2.64546874,3.02997085 2.82664318,3.15516598 2.86384615,3.34669811 L5.17153846,15.8466981 C5.19256943,15.9410558 5.17486068,16.0400995 5.1225373,16.1207578 C5.07021391,16.2014162 4.9878442,16.2566471 4.89461538,16.2735849 C4.87313692,16.2759085 4.85147847,16.2759085 4.83,16.2735849 Z"/></g></g></svg>