<svg xmlns="http://www.w3.org/2000/svg" width="42" height="42" viewBox="0 0 42 42"><g fill="none" fill-rule="evenodd"><rect width="42" height="42" fill="#FFF" rx="21"/><g fill="#191970" fill-rule="nonzero" transform="translate(11 8.5)"><path d="M20.0000763,7.91664121 L20.0000763,1.25007627 C20.0000763,0.559616113 19.4402695,0 18.75,0 L1.25007627,0 C0.559616113,0 0,0.559616113 0,1.25007627 L0,7.91664121 C0,8.02707671 0.043869043,8.13312529 0.122070313,8.21132661 L0.660896289,8.74996187 L0.122070313,9.28878784 C0.118255615,9.29241182 0.11711123,9.29794312 0.113296484,9.30213926 C0.0823974609,9.34543608 0.0545501953,9.39083101 0.0299453613,9.43794248 C0.0215530273,9.46502686 0.0160217285,9.49306489 0.0133514648,9.52129365 C0.00724794922,9.54151152 0.00267028809,9.56230166 0,9.58328247 L0,20.4166412 C0,20.4813003 0.0148773438,20.5450058 0.0436782715,20.6029892 L2.1270752,24.7695923 C2.14653018,24.8073578 2.17151641,24.8418808 2.20127104,24.8720169 C2.20794678,24.8786926 2.21576689,24.8832703 2.22282412,24.8895645 C2.25162505,24.9158859 2.28405,24.9378204 2.31914521,24.9546051 C2.33097075,24.9608994 2.34317778,24.9662399 2.35576631,24.9708176 C2.4017334,24.9891281 2.45056152,24.9990463 2.49996187,25 L17.4999237,25 C17.549324,24.9990463 17.5983429,24.9891281 17.6441192,24.9708176 C17.6570893,24.9662399 17.6687241,24.9603271 17.6813125,24.9546051 C17.7158355,24.9376297 17.747879,24.9158859 17.77668,24.8903274 C17.7837372,24.8838425 17.7921295,24.8786926 17.7988052,24.8716354 C17.8285599,24.84169 17.8535461,24.807167 17.8730011,24.7695923 L19.9562073,20.6029892 C19.9850083,20.5450058 20.0000763,20.4813003 20.0000763,20.4166412 L20.0000763,9.58328247 C19.9975967,9.56287383 19.9935913,9.54265596 19.9878692,9.52301025 C19.985199,9.49459077 19.9796677,9.46674346 19.9712753,9.43965913 C19.9466705,9.39235688 19.9188232,9.34696196 19.8879242,9.30366514 C19.8841095,9.29965972 19.8829651,9.29412842 19.8791504,9.29050444 L19.33918,8.74996187 L19.878006,8.21132661 C19.9560166,8.13312529 20.0000763,8.02707671 20.0000763,7.91664121 L20.0000763,7.91664121 Z M0.833320605,1.25007627 C0.833320605,1.01985933 1.01985933,0.833320605 1.25007627,0.833320605 L18.75,0.833320605 C18.9800263,0.833320605 19.1667557,1.01985933 19.1667557,1.25007627 L19.1667557,7.74421689 L18.5775757,8.33339692 L1.42250059,8.33339692 L0.833320605,7.74421689 L0.833320605,1.25007627 Z M10.0000381,24.1666794 L2.91671753,24.1666794 L2.91671753,14.1666412 L8.74996187,14.1666412 L8.74996187,21.2499619 C8.74996187,21.7102051 9.12303926,22.0832825 9.58328247,22.0832825 L15.4167175,22.0832825 C15.8769607,22.0832825 16.2500381,21.7102051 16.2500381,21.2499619 L16.2500381,14.1666412 L17.0833588,14.1666412 L17.0833588,24.1666794 L10.0000381,24.1666794 Z M10.0000381,14.1666412 L15.4167175,14.1666412 L15.4167175,21.2499619 L9.58328247,21.2499619 L9.58328247,14.1666412 L10.0000381,14.1666412 Z M17.2424316,13.3333206 L2.75745391,13.3333206 L0.9241104,9.66663359 L1.42421724,9.16671753 L18.5775757,9.16671753 L19.0774917,9.66663359 L17.2424316,13.3333206 Z M0.833320605,11.3483429 L2.08339692,13.8483047 L2.08339692,22.8183746 L0.833320605,20.3184128 L0.833320605,11.3483429 Z M17.9166794,22.8183746 L17.9166794,13.8483047 L19.1667557,11.3483429 L19.1667557,20.3184128 L17.9166794,22.8183746 Z"/><path d="M8.22505952 4.58335879 11.7750168 4.58335879C12.3353958 4.58297729 12.8126145 4.17633057 12.9022598 3.62319946 12.9919052 3.07006836 12.6672745 2.5335312 12.1358872 2.35633848L10.36129 1.76448823C10.1266861 1.68666841 9.87319946 1.68666841 9.63878633 1.76448823L7.86457061 2.35576631C7.33356475 2.53372192 7.00950625 3.06987764 7.09896089 3.62262725 7.18841553 4.1753769 7.66506196 4.58202363 8.22505952 4.58335879L8.22505952 4.58335879ZM8.12759399 3.14674375 9.90257266 2.55508423C9.96570586 2.53391265 10.0341797 2.53391265 10.0975037 2.55508423L11.8728638 3.14712524C12.0162964 3.19557188 12.1038437 3.34053037 12.0794296 3.4900665 12.0552063 3.63960264 11.9264603 3.74946592 11.7750168 3.75003813L8.22505952 3.75003813C8.07323457 3.74984741 7.94391631 3.63960264 7.91969297 3.48987578 7.89546968 3.3399582 7.98339844 3.19461821 8.12759399 3.14674375ZM11.2499237 20.4166412 13.7500763 20.4166412C14.2103195 20.4166412 14.5833969 20.0435639 14.5833969 19.5833206L14.5833969 17.9166794C14.5824433 17.6202774 14.4235611 17.3467636 14.1666412 17.1991348L14.1666412 15.8332825C14.1666412 15.3730393 13.7935639 14.9999619 13.3333206 14.9999619L11.6666794 14.9999619C11.2064361 14.9999619 10.8333588 15.3730393 10.8333588 15.8332825L10.8333588 17.1991348C10.5764389 17.3467636 10.4175567 17.6202774 10.4166031 17.9166794L10.4166031 19.5833206C10.4166031 20.0435639 10.7896805 20.4166412 11.2499237 20.4166412L11.2499237 20.4166412ZM12.9167557 19.5833206 12.9167557 19.1667557C12.9167557 18.9365387 12.7300263 18.75 12.5 18.75 12.2699737 18.75 12.0832443 18.9365387 12.0832443 19.1667557L12.0832443 19.5833206 11.2499237 19.5833206 11.2499237 17.9166794 13.7500763 17.9166794 13.7500763 19.5833206 12.9167557 19.5833206ZM11.6666794 15.8332825 13.3333206 15.8332825 13.3333206 17.0833588 11.6666794 17.0833588 11.6666794 15.8332825ZM3.33328247 10.0000381 2.91671753 10.0000381C2.68650054 10.0000381 2.49996187 10.1865769 2.49996187 10.4166031 2.49996187 10.6468201 2.68650054 10.8333588 2.91671753 10.8333588L3.33328247 10.8333588C3.56349946 10.8333588 3.75003813 10.6468201 3.75003813 10.4166031 3.75003813 10.1865769 3.56349946 10.0000381 3.33328247 10.0000381ZM17.0833588 10.0000381 4.99992373 10.0000381C4.76989746 10.0000381 4.58335879 10.1865769 4.58335879 10.4166031 4.58335879 10.6468201 4.76989746 10.8333588 4.99992373 10.8333588L17.0833588 10.8333588C17.313385 10.8333588 17.4999237 10.6468201 17.4999237 10.4166031 17.4999237 10.1865769 17.313385 10.0000381 17.0833588 10.0000381ZM5.49049375 19.7633743C5.2175522 20.1583862 4.58335879 21.1341858 4.58335879 21.6667175 4.58335879 22.356987 5.14297485 22.9166031 5.83324434 22.9166031 6.52370454 22.9166031 7.08332061 22.356987 7.08332061 21.6667175 7.08332061 21.1341858 6.4491272 20.1583862 6.1761856 19.7633743 6.09436035 19.6567535 5.9677124 19.5943833 5.83324434 19.5943833 5.69896699 19.5943833 5.57231904 19.6567535 5.49049375 19.7633743L5.49049375 19.7633743ZM5.83324434 22.0832825C5.60321807 22.0832825 5.41667939 21.8967438 5.41667939 21.6667175 5.5070877 21.3481903 5.64765928 21.046257 5.83324434 20.772171 6.01902007 21.046257 6.1595917 21.3481903 6.25 21.6667175 6.25 21.777153 6.20613096 21.8832016 6.12792969 21.9612122 6.04972842 22.0394135 5.94387056 22.0832825 5.83324434 22.0832825ZM5.49049375 15.5965805C5.2175522 15.9915924 4.58335879 16.9675827 4.58335879 17.4999237 4.58335879 18.1903839 5.14297485 18.75 5.83324434 18.75 6.52370454 18.75 7.08332061 18.1903839 7.08332061 17.4999237 7.08332061 16.9675827 6.4491272 15.9915924 6.1761856 15.5965805 6.09436035 15.4901504 5.9677124 15.4277802 5.83324434 15.4277802 5.69896699 15.4277802 5.57231904 15.4901504 5.49049375 15.5965805L5.49049375 15.5965805ZM5.83324434 17.9166794C5.60321807 17.9166794 5.41667939 17.7301407 5.41667939 17.4999237 5.5070877 17.1815872 5.64765928 16.8794632 5.83324434 16.6053772 6.01902007 16.8794632 6.1595917 17.1815872 6.25 17.4999237 6.25 17.7301407 6.06346133 17.9166794 5.83324434 17.9166794L5.83324434 17.9166794ZM4.58335879 11.6666794 4.16660308 11.6666794C3.93657686 11.6666794 3.75003813 11.8532181 3.75003813 12.0832443 3.75003813 12.3134613 3.93657686 12.5 4.16660308 12.5L4.58335879 12.5C4.81338501 12.5 4.99992373 12.3134613 4.99992373 12.0832443 4.99992373 11.8532181 4.81338501 11.6666794 4.58335879 11.6666794ZM15.8332825 11.6666794 6.25 11.6666794C6.01997373 11.6666794 5.83324434 11.8532181 5.83324434 12.0832443 5.83324434 12.3134613 6.01997373 12.5 6.25 12.5L15.8332825 12.5C16.0634995 12.5 16.2500381 12.3134613 16.2500381 12.0832443 16.2500381 11.8532181 16.0634995 11.6666794 15.8332825 11.6666794Z"/></g></g></svg>