<svg xmlns="http://www.w3.org/2000/svg" width="42" height="42" viewBox="0 0 42 42"><g fill="none" fill-rule="evenodd"><rect width="42" height="42" fill="#FFF" rx="21"/><g fill="#191970" fill-rule="nonzero" transform="translate(10.5 8.5)"><path d="M3.740432 18.4772491C2.54451288 18.4772491 1.57152576 19.4387436 1.57152576 20.6205368 1.57152576 21.80233 2.54451288 22.7638245 3.740432 22.7638245 4.93635112 22.7638245 5.90933824 21.80233 5.90933824 20.6205368 5.90933824 19.4387436 4.93635112 18.4772491 3.740432 18.4772491L3.740432 18.4772491ZM3.740432 22.0321655C2.95273895 22.0321655 2.31193012 21.3989258 2.31193012 20.6205368 2.31193012 19.8421479 2.95273895 19.2090988 3.740432 19.2090988 4.528125 19.2090988 5.16874082 19.8421479 5.16874082 20.6205368 5.16874082 21.3989258 4.528125 22.0321655 3.740432 22.0321655ZM10.4832077 18.4772491C9.28709559 18.4772491 8.31430147 19.4387436 8.31430147 20.6205368 8.31430147 21.80233 9.28709559 22.7638245 10.4832077 22.7638245 11.6791268 22.7638245 12.652114 21.80233 12.652114 20.6205368 12.652114 19.4387436 11.6791268 18.4772491 10.4832077 18.4772491L10.4832077 18.4772491ZM10.4832077 22.0321655C9.69551471 22.0321655 9.05470588 21.3989258 9.05470588 20.6205368 9.05470588 19.8421479 9.69551471 19.2090988 10.4832077 19.2090988 11.2707077 19.2090988 11.9115165 19.8421479 11.9115165 20.6205368 11.9115165 21.3989258 11.2707077 22.0321655 10.4832077 22.0321655ZM1.97569853 15.7943726 5.50516542 15.7943726C5.84545036 15.7943726 6.12223347 15.520668 6.12223347 15.1845932L6.12223347 2.60658262C6.12223347 2.27031709 5.84545036 1.99680327 5.50516542 1.99680327L1.97569853 1.99680327C1.63541359 1.99680327 1.35863053 2.27031709 1.35863053 2.60658262L1.35863053 15.1844024C1.35863053 15.520668 1.63541359 15.7943726 1.97569853 15.7943726L1.97569853 15.7943726ZM2.09903494 2.72865293 5.381636 2.72865293 5.381636 3.92150879 2.09903494 3.92150879 2.09903494 2.72865293ZM2.09903494 4.65335845 5.381636 4.65335845 5.381636 13.1378174 2.09903494 13.1378174 2.09903494 4.65335845ZM2.09903494 13.8694763 5.381636 13.8694763 5.381636 15.0625229 2.09903494 15.0625229 2.09903494 13.8694763ZM8.71847424 15.7943726 12.2479412 15.7943726C12.5882261 15.7943726 12.8650092 15.520668 12.8650092 15.1845932L12.8650092 11.7195129C12.8650092 11.517334 12.6992095 11.3534927 12.494614 11.3534927 12.2902114 11.3534927 12.1244118 11.517334 12.1244118 11.7195129L12.1244118 13.1378174 8.84181065 13.1378174 8.84181065 4.65335845 12.1244118 4.65335845 12.1244118 10.0118637C12.1244118 10.2140427 12.2902114 10.3778839 12.494614 10.3778839 12.6992095 10.3778839 12.8650092 10.2140427 12.8650092 10.0118637L12.8650092 2.60658262C12.8650092 2.27031709 12.5882261 1.99680327 12.2479412 1.99680327L8.71847424 1.99680327C8.37818935 1.99680327 8.10140614 2.27031709 8.10140614 2.60658262L8.10140614 15.1844024C8.10121324 15.520668 8.37818935 15.7943726 8.71847424 15.7943726L8.71847424 15.7943726ZM8.84181065 2.72865293 12.1244118 2.72865293 12.1244118 3.92150879 8.84181065 3.92150879 8.84181065 2.72865293ZM8.84181065 13.8694763 12.1244118 13.8694763 12.1244118 15.0625229 8.84181065 15.0625229 8.84181065 13.8694763ZM19.5969761 15.1844024 19.5969761 2.60658262C19.5969761 2.27031709 19.320193 1.99680327 18.9799081 1.99680327L15.4504412 1.99680327C15.1101562 1.99680327 14.8333732 2.27031709 14.8333732 2.60658262L14.8333732 15.1844024C14.8333732 15.520668 15.1101562 15.7943726 15.4504412 15.7943726L18.9799081 15.7943726C19.320193 15.7943726 19.5969761 15.520668 19.5969761 15.1844024L19.5969761 15.1844024ZM18.8563787 15.0625229 15.5737776 15.0625229 15.5737776 13.8694763 18.8563787 13.8694763 18.8563787 15.0625229ZM18.8563787 13.1378174 15.5737776 13.1378174 15.5737776 4.65335845 18.8563787 4.65335845 18.8563787 13.1378174ZM18.8563787 3.92150879 15.5737776 3.92150879 15.5737776 2.72865293 18.8563787 2.72865293 18.8563787 3.92150879Z"/><path d="M20.1717739,-1.38777878e-15 L18.5743842,-1.38777878e-15 C18.3699816,-1.38777878e-15 18.204182,0.16384126 18.204182,0.365829492 C18.204182,0.568008398 18.3699816,0.731849658 18.5743842,0.731849658 L20.1717739,0.731849658 C20.1957077,0.731849658 20.2150092,0.750923145 20.2150092,0.774383545 L20.2150092,24.2256165 C20.2150092,24.2490769 20.1957077,24.2683411 20.1717739,24.2683411 L14.2236397,24.2683411 L14.2236397,0.731849658 L16.8629228,0.731849658 C17.0675184,0.731849658 17.233318,0.568008398 17.233318,0.365829492 C17.233318,0.16384126 17.0675184,-1.38777878e-15 16.8629228,-1.38777878e-15 L7.11297794,-1.38777878e-15 C7.11259189,-1.38777878e-15 7.11220588,-1.38777878e-15 7.11181988,-1.38777878e-15 C7.11143382,-1.38777878e-15 7.11085477,-1.38777878e-15 7.11046876,-1.38777878e-15 L0.783639706,-1.38777878e-15 C0.351479767,-1.38777878e-15 0,0.347328174 0,0.774383545 L0,24.2256165 C0,24.6526718 0.351479767,25 0.783639706,25 L7.11046876,25 L7.11181988,25 L7.11297794,25 L20.1717739,25 C20.6039338,25 20.9556066,24.6526718 20.9556066,24.2256165 L20.9556066,0.774383545 C20.9556066,0.347328174 20.6039338,-1.38777878e-15 20.1717739,-1.38777878e-15 Z M6.74026653,24.2681503 L0.783639706,24.2681503 C0.759898885,24.2681503 0.740597414,24.2490769 0.740597414,24.2256165 L0.740597414,0.774383545 C0.740597414,0.750923145 0.759898885,0.731849658 0.783639706,0.731849658 L6.74026653,0.731849658 L6.74026653,24.2681503 Z M13.4747426,24.2681503 L7.48337317,24.2681503 L7.48337317,0.731849658 L13.4747426,0.731849658 L13.4747426,24.2681503 Z"/><path d="M15.0462684,20.6205368 C15.0462684,21.80233 16.0190625,22.7638245 17.2151746,22.7638245 C18.4110938,22.7638245 19.3840809,21.80233 19.3840809,20.6205368 C19.3840809,19.4387436 18.4110938,18.4772491 17.2151746,18.4772491 C16.0190625,18.4772491 15.0462684,19.4387436 15.0462684,20.6205368 Z M15.7866728,20.6205368 C15.7866728,19.8421479 16.4274816,19.2090988 17.2151746,19.2090988 C18.0026746,19.2090988 18.6434835,19.8421479 18.6434835,20.6205368 C18.6434835,21.3989258 18.0026746,22.0321655 17.2151746,22.0321655 C16.4274816,22.0321655 15.7866728,21.3989258 15.7866728,20.6205368 Z"/></g></g></svg>