<svg xmlns="http://www.w3.org/2000/svg" width="42" height="42" viewBox="0 0 42 42"><g fill="none" fill-rule="evenodd"><rect width="42" height="42" fill="#FFF" rx="21"/><g fill="#191970" fill-rule="nonzero" transform="translate(13 8.5)"><path d="M11.4741379,5.17241379 L3.61206897,5.17241379 C3.51775946,5.1722716 3.42821431,5.13095312 3.36690668,5.05928947 C3.30559905,4.98762583 3.27864253,4.89276331 3.29310345,4.79956897 L3.83405172,1.38146552 C3.95671793,0.584416198 4.64400329,-0.00298368477 5.45043103,-1.13153765e-05 L9.63577586,-1.13153765e-05 C10.4422036,-0.00298368477 11.129489,0.584416198 11.2521552,1.38146552 L11.7931034,4.79956897 C11.8075644,4.89276331 11.7806078,4.98762583 11.7193002,5.05928947 C11.6579926,5.13095312 11.5684474,5.1722716 11.4741379,5.17241379 Z M3.99137931,4.52586207 L11.1034483,4.52586207 L10.6142241,1.48275862 C10.5404945,0.999992295 10.124134,0.644159954 9.63577586,0.646539739 L5.45043103,0.646539739 C4.9620729,0.644159954 4.54571238,0.999992295 4.47198276,1.48275862 L3.99137931,4.52586207 Z"/><path d="M10.9913793 3.44827586 4.09482759 3.44827586C3.9758007 3.44827586 3.87931034 3.35178551 3.87931034 3.23275862 3.87931034 3.11373173 3.9758007 3.01724138 4.09482759 3.01724138L10.9913793 3.01724138C11.1104062 3.01724138 11.2068966 3.11373173 11.2068966 3.23275862 11.2068966 3.35178551 11.1104062 3.44827586 10.9913793 3.44827586ZM9.63577586 25.0000113 5.45043103 25.0000113C4.64400329 25.0029837 3.95671793 24.4155838 3.83405172 23.6185345L3.29310345 20.200431C3.27864253 20.1072367 3.30559905 20.0123742 3.36690668 19.9407105 3.42821431 19.8690469 3.51775946 19.8277284 3.61206897 19.8275862L11.4741379 19.8275862C11.5684474 19.8277284 11.6579926 19.8690469 11.7193002 19.9407105 11.7806078 20.0123742 11.8075644 20.1072367 11.7931034 20.200431L11.2521552 23.6185345C11.129489 24.4155838 10.4422036 25.0029837 9.63577586 25.0000113L9.63577586 25.0000113ZM3.99137931 20.4741379 4.47198276 23.5172414C4.54571238 24.0000077 4.9620729 24.35584 5.45043103 24.3534603L9.63577586 24.3534603C10.124134 24.35584 10.5404945 24.0000077 10.6142241 23.5172414L11.0948276 20.4741379 3.99137931 20.4741379Z"/><path d="M10.9913793 21.9827586 4.09482759 21.9827586C3.9758007 21.9827586 3.87931034 21.8862683 3.87931034 21.7672414 3.87931034 21.6482145 3.9758007 21.5517241 4.09482759 21.5517241L10.9913793 21.5517241C11.1104062 21.5517241 11.2068966 21.6482145 11.2068966 21.7672414 11.2068966 21.8862683 11.1104062 21.9827586 10.9913793 21.9827586ZM13.362069 16.5948276 1.72413793 16.5948276C1.60511105 16.5948276 1.50862069 16.4983372 1.50862069 16.3793103 1.50862069 16.2602835 1.60511105 16.1637931 1.72413793 16.1637931L13.362069 16.1637931C13.4810959 16.1637931 13.5775862 16.2602835 13.5775862 16.3793103 13.5775862 16.4983372 13.4810959 16.5948276 13.362069 16.5948276ZM14.5150862 10.5603448 13.7931034 10.5603448C13.6740766 10.5603448 13.5775862 10.4638545 13.5775862 10.3448276L13.5775862 7.97413793C13.5775862 7.85511105 13.6740766 7.75862069 13.7931034 7.75862069L14.5150862 7.75862069C14.8305075 7.75862069 15.0862069 8.01432013 15.0862069 8.32974138L15.0862069 9.98922414C15.0862069 10.3046454 14.8305075 10.5603448 14.5150862 10.5603448ZM14.0086207 10.1293103 14.5150862 10.1293103C14.5522394 10.1293103 14.5878709 10.1145513 14.6141421 10.08828 14.6404134 10.0620088 14.6551724 10.0263773 14.6551724 9.98922414L14.6551724 8.32974138C14.6551724 8.29258821 14.6404134 8.25695673 14.6141421 8.23068547 14.5878709 8.20441421 14.5522394 8.18965517 14.5150862 8.18965517L14.0086207 8.18965517 14.0086207 10.1293103ZM1.29310345 10.5603448.57112069 10.5603448C.255699442 10.5603448 0 10.3046454 0 9.98922414L0 8.32974138C0 8.01432013.255699442 7.75862069.57112069 7.75862069L1.29310345 7.75862069C1.41213033 7.75862069 1.50862069 7.85511105 1.50862069 7.97413793L1.50862069 10.3448276C1.50862069 10.4638545 1.41213033 10.5603448 1.29310345 10.5603448ZM.57112069 8.18965517C.493753214 8.18965517.431034483 8.2523739.431034483 8.32974138L.431034483 9.98922414C.431034483 10.0665916.493753214 10.1293103.57112069 10.1293103L1.07758621 10.1293103 1.07758621 8.18965517.57112069 8.18965517ZM14.5150862 14.6551724 13.7931034 14.6551724C13.6740766 14.6551724 13.5775862 14.5586821 13.5775862 14.4396552L13.5775862 12.0689655C13.5775862 11.9499386 13.6740766 11.8534483 13.7931034 11.8534483L14.5150862 11.8534483C14.8305075 11.8534483 15.0862069 12.1091477 15.0862069 12.424569L15.0862069 14.0840517C15.0862069 14.399473 14.8305075 14.6551724 14.5150862 14.6551724L14.5150862 14.6551724ZM14.0086207 14.2241379 14.5150862 14.2241379C14.5522394 14.2241379 14.5878709 14.2093789 14.6141421 14.1831076 14.6404134 14.1568364 14.6551724 14.1212049 14.6551724 14.0840517L14.6551724 12.424569C14.6551724 12.3472015 14.5924537 12.2844828 14.5150862 12.2844828L14.0086207 12.2844828 14.0086207 14.2241379ZM7.67456897 14.6551724C7.63688847 14.6548635 7.59986949 14.6452385 7.56681034 14.6271552 7.41810345 14.5409483 3.92241166 12.4935345 3.92241166 10.0387931 3.92120907 9.15047392 4.42989025 8.34028922 5.23049426 7.95539229 6.03109827 7.57049536 6.9815404 7.67919458 7.67456897 8.23491379 8.36705092 7.68234685 9.31469561 7.5748818 10.1133264 7.95835318 10.9119572 8.34182457 11.4206383 9.14856045 11.4224117 10.0344828 11.4224117 12.5 7.93103448 14.5366379 7.78232759 14.6228448 7.74942349 14.6418834 7.71251931 14.6529547 7.67456897 14.6551724L7.67456897 14.6551724ZM6.23275862 8.15517062C5.19533652 8.15636008 4.35463594 8.99706066 4.35344828 10.0344828 4.35344828 12.0172414 7.09051724 13.8211207 7.67456897 14.1831897 8.25646552 13.8211207 10.9913793 12.0150862 10.9913793 10.0344828 10.9910961 9.28460903 10.5445566 8.60684596 9.85565365 8.31066456 9.1667507 8.01448315 8.36766957 8.15671409 7.82327586 8.67241379 7.74002192 8.75177892 7.60911601 8.75177892 7.52586207 8.67241379 7.17758852 8.33980397 6.71434279 8.15450568 6.23275862 8.15517062L6.23275862 8.15517062Z"/><path d="M7.54310345 12.6745698C7.4641263 12.6747845 7.39135715 12.6317846 7.35344828 12.5625L6.02155172 10.0991379 5.41163793 11.5086207C5.37725148 11.5874114 5.29932898 11.6382304 5.21336207 11.637931L2.80172414 11.637931C2.68269725 11.637931 2.5862069 11.5414407 2.5862069 11.4224138 2.5862069 11.3033869 2.68269725 11.2068966 2.80172414 11.2068966L5.07112069 11.2068966 5.80172414 9.51939655C5.83448258 9.44409008 5.90719192 9.39394571 5.98922414 9.39008621 6.07203032 9.38577505 6.14996652 9.42935228 6.18965517 9.50215517L7.55818966 12.0344828 8.63577586 10.3297414C8.67918415 10.269021 8.74865418 10.2322898 8.82327586 10.2306034 8.8994793 10.2322694 8.96913512 10.2740629 9.00646552 10.3405172L9.49568966 11.2025862 12.0689655 11.2025862C12.1879924 11.2025862 12.2844828 11.2990766 12.2844828 11.4181034 12.2844828 11.5371303 12.1879924 11.6336207 12.0689655 11.6336207L9.37715517 11.6336207C9.29940429 11.6334867 9.22775304 11.5914842 9.18965517 11.5237069L8.81465517 10.8642241 7.72413793 12.575431C7.68456993 12.6371035 7.6163776 12.6744469 7.54310345 12.6745698ZM9.05172414 18.887931 8.40517241 18.887931 8.40517241 17.887931 9.05172414 17.887931 9.05172414 18.887931ZM7.75862069 18.887931 7.11206897 18.887931 7.11206897 17.887931 7.75862069 17.887931 7.75862069 18.887931ZM6.46551724 18.887931 5.81896552 18.887931 5.81896552 17.887931 6.46551724 17.887931 6.46551724 18.887931Z"/><path d="M12.4784483,20.4741379 L2.60775862,20.4741379 C1.76266773,20.4741379 1.07758621,19.7890564 1.07758621,18.9439655 L1.07758621,6.05603448 C1.07758621,5.21094359 1.76266773,4.52586207 2.60775862,4.52586207 L12.4784483,4.52586207 C13.3235392,4.52586207 14.0086207,5.21094359 14.0086207,6.05603448 L14.0086207,18.9439655 C14.0086207,19.7890564 13.3235392,20.4741379 12.4784483,20.4741379 Z M2.60775862,5.17241379 C2.12023997,5.17359853 1.72532267,5.56851583 1.72413793,6.05603448 L1.72413793,18.9439655 C1.72532267,19.4314842 2.12023997,19.8264015 2.60775862,19.8275862 L12.4784483,19.8275862 C12.9659669,19.8264015 13.3608842,19.4314842 13.362069,18.9439655 L13.362069,6.05603448 C13.3608842,5.56851583 12.9659669,5.17359853 12.4784483,5.17241379 L2.60775862,5.17241379 Z"/></g></g></svg>