<svg xmlns="http://www.w3.org/2000/svg" width="42" height="42" viewBox="0 0 42 42"><g fill="none" fill-rule="evenodd"><rect width="42" height="42" fill="#FFF" rx="21"/><g stroke="#191970" stroke-linecap="round" stroke-linejoin="round" transform="translate(13 8.5)"><path d="M15.5882353,7.99448529 C15.6137048,11.5946958 13.2150171,14.7620197 9.74264706,15.7132353 C8.52550765,16.032683 7.24855895,16.0484634 6.02389706,15.7591912 C2.57352941,14.9393382 -6.39488462e-14,11.7738971 -6.39488462e-14,7.99448529 L15.5882353,7.99448529 Z"/><line x1="9.744" x2="2.101" y1="15.713" y2="25"/><line x1="6.026" x2="13.632" y1="15.759" y2="25"/><line x1="6.248" x2="9.649" y1="20.169" y2="20.169"/><path d="M1.87867647 2.86764706C1.87867647 2.86764706 1.25919118 3.90992647 2.24632353 4.65808824 3.23345588 5.40625 1.87867647 6.88051471 1.87867647 6.88051471M12.3897059 2.86764706C12.3897059 2.86764706 11.7647059 3.90992647 12.7683824 4.65808824 13.7720588 5.40625 12.3897059 6.88051471 12.3897059 6.88051471M7.51838235-4.27657909e-13C7.51838235-4.27657909e-13 6.89889706 1.69852941 7.90441176 2.91727941 8.90992647 4.13602941 7.51838235 6.53492647 7.51838235 6.53492647"/><line x1=".105" x2="15.443" y1="9.3" y2="9.3"/></g></g></svg>