<svg xmlns="http://www.w3.org/2000/svg" width="42" height="42" viewBox="0 0 42 42"><g fill="none" fill-rule="evenodd"><rect width="42" height="42" fill="#FFF" rx="21"/><g fill="#191970" fill-rule="nonzero" transform="translate(10.5 8.5)"><path d="M12.3454171,4.44240011 L12.3454171,4.19948609 L13.5116772,4.19948609 C14.4407017,4.19948609 15.2090448,3.4420694 15.2090448,2.48406164 L15.2090448,1.70978139 C15.2090448,0.751576776 14.4410199,0 13.5116772,0 L8.12207539,0 C7.19305093,0 6.42725325,0.751576776 6.42725325,1.70984701 L6.42725325,2.48412725 C6.42725325,3.44233187 7.19273275,4.19948609 8.12207539,4.19948609 L9.29088094,4.19948609 L9.29088094,4.396337 L9.16322678,4.396337 C4.1280784,4.396337 0,8.65304108 0,13.8452463 L0,14.5987916 C0,19.3203263 3.40345332,23.2406778 7.8038309,23.9127268 C7.7283584,24.024735 7.69164033,24.1605621 7.69164033,24.3072816 C7.69164033,24.6896973 8.00046667,25 8.37133827,25 L12.8343975,25 C13.2055873,25 13.5062682,24.6900254 13.5062682,24.3072816 C13.5062682,24.1475043 13.4646501,24.0008504 13.3766413,23.8837241 C17.6911737,23.1352313 21,19.2568091 21,14.598726 L21,13.8451807 C21,8.82226725 17.1181299,4.70545854 12.3454171,4.44240011 Z M14.2545023,2.48373355 C14.2545023,2.92395781 13.9083851,3.28084851 13.4814501,3.28084851 L8.09127548,3.28084851 C7.66434041,3.28084851 7.31822328,2.92395781 7.31822328,2.48373355 L7.31822328,1.71575253 C7.31822328,1.27552828 7.66434041,0.918637582 8.09127548,0.918637582 L13.4814501,0.918637582 C13.9083851,0.918637582 14.2545023,1.27552828 14.2545023,1.71575253 L14.2545023,2.48373355 Z M20.0453938,14.5987916 C20.0453938,19.2722291 16.3777867,23.0971735 11.8454277,23.0971735 L9.16322678,23.0971735 C4.63093142,23.0971735 0.954542562,19.2722291 0.954542562,14.5988572 L0.954542562,13.8453119 C0.954542562,9.17154638 4.63093142,5.38059155 9.16322678,5.38059155 L11.8454277,5.38059155 C16.3777867,5.38059155 20.0453938,9.17180885 20.0453938,13.8452463 L20.0453938,14.5987916 Z"/><circle cx="10.817" cy="2.097" r="1"/><path d="M6.39441699,12.0497692 C4.90265787,11.331329 3.58793458,11.2071816 2.35428377,11.7134166 C2.13537535,12.526214 2.03635747,12.9638136 2.03635747,13.9157846 L2.03635747,14.5524004 C2.03635747,18.7093011 5.32672931,22.1129189 9.35814437,22.1129189 L11.6241648,22.1129189 C15.6555162,22.1129189 18.9635789,18.7093011 18.9635789,14.552466 L18.9635789,14.5211011 C18.5817619,14.6816002 18.1546359,14.8201176 17.71141,14.9295667 C13.1009694,16.069596 12.2348811,14.8624406 6.39441699,12.0497692 Z M4.72212205,16.0407901 C4.3965594,16.0407901 4.13234202,15.7686766 4.13234202,15.4329801 C4.13234202,15.0972837 4.39624122,14.8248421 4.72212205,14.8248421 C5.0476847,14.8248421 5.31190209,15.0969556 5.31190209,15.4329801 C5.31183845,15.7686766 5.0476847,16.0407901 4.72212205,16.0407901 Z M7.10975118,15.8686768 C7.10975118,15.5329804 7.37365038,15.2605387 7.69953121,15.2605387 C8.02509386,15.2605387 8.28931124,15.5326523 8.28931124,15.8686768 C8.28931124,16.2043732 8.02541204,16.4768149 7.69953121,16.4768149 C7.37390493,16.4768149 7.10975118,16.2043732 7.10975118,15.8686768 Z M8.69416456,20.6803036 C8.36860191,20.6803036 8.10438453,20.40819 8.10438453,20.0721655 C8.10438453,19.7364691 8.36828373,19.4640275 8.69416456,19.4640275 C9.01972721,19.4640275 9.28394459,19.736141 9.28394459,20.0721655 C9.28362641,20.4082557 9.01979085,20.6803036 8.69416456,20.6803036 Z M11.744819,19.0619267 C11.4192563,19.0619267 11.1550389,18.7898131 11.1550389,18.4537886 C11.1550389,18.1180922 11.4189381,17.8456505 11.744819,17.8456505 C12.0703816,17.8456505 12.334599,18.1177641 12.334599,18.4537886 C12.334599,18.7898131 12.0703816,19.0619267 11.744819,19.0619267 Z M15.7272342,17.0322626 C16.0527968,17.0322626 16.3170142,17.3043761 16.3170142,17.6404006 C16.316696,17.9760971 16.0528604,18.2485387 15.7272342,18.2485387 C15.4016079,18.2485387 15.1377723,17.9764251 15.1377723,17.6404006 C15.1377723,17.3046386 15.4016715,17.0322626 15.7272342,17.0322626 Z"/><circle cx="14.096" cy="12.827" r="1"/><circle cx="10.491" cy="10.545" r="1"/><circle cx="14.096" cy="9.04" r="1"/></g></g></svg>