<svg xmlns="http://www.w3.org/2000/svg" width="42" height="42" viewBox="0 0 42 42"><g fill="none" fill-rule="evenodd"><rect width="42" height="42" fill="#FFF" rx="21"/><g fill="#191970" fill-rule="nonzero" transform="translate(10.5 8.5)"><path d="M14.3592725,14.6312988 L14.3592725,18.6210937 C14.3592725,18.8237793 14.5267251,18.9880371 14.7332417,18.9880371 C14.9397583,18.9880371 15.1072109,18.8237793 15.1072109,18.6210937 L15.1072109,14.3660645 C15.1072109,14.2037109 14.9984787,14.0605957 14.8398341,14.0143555 C13.9929668,13.7671875 13.2310948,13.2483398 12.6945995,12.5532227 C12.1403886,11.8352539 11.8474336,10.9782227 11.8474336,10.0749023 C11.8474336,7.80878906 13.7263365,5.96518555 16.0358389,5.96518555 C16.4672844,5.96518555 16.8895735,6.02963867 17.2904147,6.1527832 C17.1775521,6.57539062 17.0002962,6.97573242 16.7677038,7.3418457 C16.5538223,7.24262695 16.3150095,7.18686523 16.0631588,7.18686523 C15.1511019,7.18686523 14.4090355,7.91494141 14.4090355,8.80991211 C14.4090355,9.70483398 15.1510521,10.4329102 16.0631588,10.4329102 C16.9752654,10.4329102 17.717282,9.70483398 17.717282,8.80991211 C17.717282,8.42856445 17.5822251,8.07783203 17.3570474,7.80048828 C17.6331327,7.38144531 17.8457204,6.92226563 17.9860521,6.43686523 C18.4748246,6.68935547 18.9138839,7.03759766 19.275064,7.46938477 C19.40609,7.62602539 19.6417678,7.64873047 19.8014076,7.52016602 C19.9610474,7.39160156 19.984237,7.16040039 19.8532109,7.00371094 C19.3804123,6.43857422 18.7945521,5.99438477 18.1407156,5.69204102 C18.1676872,5.48251953 18.1823175,5.2699707 18.1823175,5.05493164 C18.1823175,2.26767578 15.8712227,0 13.0305,0 C10.1897773,0 7.87873223,2.26767578 7.87873223,5.05498047 C7.87873223,5.81357422 8.05424645,6.56577148 8.38691232,7.24506836 C7.34323223,8.76376953 7.25087204,10.7679687 8.20129621,12.3794434 L4.76993602,15.7463379 C4.62388152,15.8896973 4.62388152,16.1219727 4.76993602,16.265332 C4.91599052,16.4085937 5.15276303,16.4085937 5.29881754,16.265332 L8.93982938,12.6927246 C9.06582938,12.5690918 9.08543602,12.3753906 8.9866564,12.2298828 C7.88624645,10.6082031 8.1082891,8.4296875 9.51459242,7.04985352 C10.5507085,6.03320312 12.0486754,5.6362793 13.4403981,5.95673828 C12.947346,6.25698242 12.5117701,6.63979492 12.1543223,7.08569336 C11.489936,7.15712891 10.8706351,7.44692383 10.3949502,7.91362305 C9.24731517,9.03969727 9.24731517,10.8719238 10.3949502,11.9980469 C10.8245545,12.4195313 11.3603531,12.6932129 11.9530308,12.7969238 C11.9998578,12.8642578 12.0478294,12.9310059 12.0983389,12.9964355 C12.3983602,13.3850586 12.7586943,13.726416 13.1608294,14.0095703 C12.1233199,14.1778809 11.0463981,13.9599609 10.1582773,13.3796875 C10.0099336,13.2828125 9.8125237,13.3019531 9.68657346,13.4255859 L6.25929384,16.7884766 C6.11323934,16.9317871 6.11323934,17.1641113 6.25929384,17.3074219 L7.06938626,18.1023438 C7.27426066,18.2952148 7.27426066,18.6422363 7.06933649,18.8351074 C6.87277251,19.036084 6.51905687,19.0361328 6.32254265,18.8350586 L5.51245024,18.0401855 C5.36639573,17.8969238 5.12962322,17.8969238 4.98356872,18.0401855 L4.01338863,18.9921387 C3.86852844,19.1288086 3.86852844,19.3744141 4.01338863,19.5111328 L4.82343128,20.3059082 C5.02935071,20.507959 5.02935071,20.8367188 4.82348104,21.0387207 C4.61756161,21.2408203 4.28255687,21.2407227 4.0766872,21.0387207 L3.26659479,20.2437988 C3.12054028,20.1005371 2.88376777,20.1005371 2.73771327,20.2437988 L1.67661611,21.2849609 C1.47069668,21.4870117 1.13569194,21.4869629 0.929822275,21.2850098 C0.723902844,21.082959 0.723902844,20.7541992 0.929822275,20.5521973 L4.2410545,17.3031738 C4.387109,17.1598145 4.387109,16.9275391 4.2410545,16.7841797 C4.095,16.640918 3.85822749,16.640918 3.71217299,16.7841797 L0.400890995,20.033252 C-0.0965900474,20.5213867 -0.0965900474,21.3157227 0.400890995,21.8039551 C0.898421801,22.292041 1.70791706,22.292041 2.20544787,21.8039551 L3.00210427,21.0222656 L3.54780569,21.5577148 C4.04528673,22.0458008 4.85483175,22.0458496 5.35236256,21.557666 C5.8498436,21.0695312 5.8498436,20.2751953 5.35236256,19.7869629 L4.8067109,19.2516113 L5.24800948,18.8186035 L5.79366114,19.3539551 C6.26864929,19.8397461 7.12327962,19.8396973 7.59826777,19.3540039 C8.09326066,18.8879883 8.09331043,18.0493164 7.59826777,17.5833496 L7.05261611,17.0479004 L10.0058531,14.1501465 C11.2427133,14.8521973 12.741327,14.9931641 14.099609,14.5296875 C14.1852512,14.5657715 14.2716398,14.6001465 14.3592725,14.6312988 L14.3592725,14.6312988 Z M16.0631588,7.92075195 C16.1447701,7.92075195 16.223545,7.93237305 16.2988365,7.95229492 C15.9757251,8.30332031 15.5919526,8.60405273 15.1584668,8.83867187 C15.1581682,8.82900391 15.1569739,8.81958008 15.1569739,8.80986328 C15.1569739,8.31962891 15.5634882,7.92075195 16.0631588,7.92075195 L16.0631588,7.92075195 Z M16.9693436,8.80996094 C16.9693436,9.30019531 16.5628294,9.69907227 16.0631588,9.69907227 C15.8455948,9.69907227 15.6457464,9.62333984 15.489391,9.49746094 C16.0189692,9.21538086 16.4864431,8.84960938 16.8764858,8.4203125 C16.9353057,8.53813477 16.9693436,8.67006836 16.9693436,8.80996094 L16.9693436,8.80996094 Z M8.9857109,6.53085937 C8.96237204,6.55375977 8.94022749,6.57744141 8.91743602,6.60073242 C8.72639573,6.10991211 8.62662085,5.58432617 8.62662085,5.0550293 C8.62662085,2.67236328 10.6021635,0.733935547 13.0304502,0.733935547 C15.458737,0.733935547 17.4342796,2.67236328 17.4342796,5.0550293 C17.4342796,5.17905273 17.4283081,5.30205078 17.4177085,5.42407227 C16.9742204,5.29760742 16.5097322,5.23134766 16.0357393,5.23134766 C15.4677441,5.23134766 14.9219929,5.32626953 14.4136635,5.50029297 C12.5716351,4.72978516 10.4089336,5.13432617 8.9857109,6.53085937 L8.9857109,6.53085937 Z M11.5815995,7.98833008 C11.42609,8.3065918 11.3050664,8.64399414 11.2231564,8.99584961 C11.0371919,8.91362305 10.857,8.81933594 10.6840237,8.71220703 C10.7547867,8.61411133 10.8343081,8.5203125 10.923782,8.43251953 C11.1156185,8.24428711 11.3388057,8.09462891 11.5815995,7.98833008 Z M10.9238318,11.4790039 C10.3451374,10.9111816 10.1582275,10.1026855 10.3620569,9.37885742 C10.6013175,9.52133789 10.8515758,9.64414063 11.1111398,9.74638672 C11.1036754,9.85498047 11.099545,9.96450195 11.099545,10.0749512 C11.099545,10.695166 11.2175829,11.2966309 11.4446517,11.8583008 C11.2550545,11.7592773 11.0800379,11.6322754 10.9238318,11.4790039 Z"/><path d="M20.6614621,8.38022461 C20.5892062,8.19033203 20.3737322,8.09404297 20.1802536,8.16494141 C19.9867749,8.23583984 19.8885427,8.4472168 19.9607986,8.63710937 C20.1355664,9.09614258 20.2241943,9.57993164 20.2241943,10.0749512 C20.2241943,11.859082 19.0636209,13.4293945 17.3361967,13.9824707 C17.1823294,14.0317383 17.0782251,14.1725098 17.0782251,14.3312988 L17.0782251,16.36875 L16.0188697,17.1748535 C15.8278294,17.3125977 15.8278791,17.617041 16.0188697,17.7547852 L16.8419502,18.3811035 L16.0188199,19.0074707 C15.8278294,19.1452148 15.8278294,19.4496582 16.0188199,19.5874023 L16.8419005,20.2137207 L16.0188199,20.8400391 C15.8277796,20.9777832 15.8278294,21.2822266 16.0188199,21.4199707 L17.0781754,22.2260742 L17.0781754,23.1066406 L16.0490758,24.1069336 L15.1072109,23.1152344 L15.1072109,20.0888672 C15.1072109,19.8861816 14.9397583,19.7219238 14.7332417,19.7219238 C14.5267251,19.7219238 14.3592725,19.8861816 14.3592725,20.0888672 L14.3592725,23.2597168 C14.3592725,23.3525391 14.3951517,23.4419434 14.4596445,23.5099121 L15.7648294,24.8841797 C15.9016777,25.0342285 16.1587038,25.0393066 16.3016232,24.8946777 L17.7154408,23.5204102 C17.7863531,23.4515137 17.8262133,23.3576172 17.8262133,23.2597168 L17.8262133,22.0463867 C17.8262133,21.932959 17.7727678,21.8259277 17.6814028,21.7563965 L16.8583223,21.1300781 L17.6814028,20.5037598 C17.8724431,20.3660156 17.8723934,20.0615723 17.6814028,19.9238281 L16.8583223,19.2975098 L17.6814028,18.6711426 C17.8724431,18.5333984 17.8723934,18.2289551 17.6814028,18.0912109 L16.8583223,17.4648926 L17.6814028,16.8385742 C17.7727678,16.769043 17.8262133,16.6620117 17.8262133,16.548584 L17.8262133,14.5898437 C19.7189502,13.8692383 20.9721825,12.0875488 20.9721825,10.0749512 C20.9721825,9.49194336 20.8676303,8.92172852 20.6614621,8.38022461 L20.6614621,8.38022461 Z"/></g></g></svg>