<svg xmlns="http://www.w3.org/2000/svg" width="42" height="42" viewBox="0 0 42 42"><g fill="none" fill-rule="evenodd"><rect width="42" height="42" fill="#FFF" rx="21"/><g fill="#191970" fill-rule="nonzero" transform="translate(21.885 8.5)"><path d="M9.48146531,24.5809173 C9.48146531,24.8114128 9.33228142,25 9.14994555,25 L0.331519766,25 C0.149183895,25 0,24.8114128 0,24.5809173 L0,0.345303867 C0,0.15538674 0.149183895,0 0.331519766,0 L9.14994555,0 C9.33228142,0 9.48146531,0.15538674 9.48146531,0.345303867 L9.48146531,24.5809173 Z M0.663039532,24.1618346 L8.81842578,24.1618346 L8.81842578,0.690607735 L0.663039532,0.690607735 L0.663039532,24.1618346 Z"/><path d="M1.26530044 6.99815838.331519766 6.99815838C.149183895 6.99815838 0 6.84277164 0 6.65285451 0 6.46293738.149183895 6.30755064.331519766 6.30755064L1.26530044 6.30755064C1.44763631 6.30755064 1.59682021 6.46293738 1.59682021 6.65285451 1.59682021 6.84277164 1.44763631 6.99815838 1.26530044 6.99815838ZM1.26530044.690607735.331519766.690607735C.149183895.690607735 0 .535220994 0 .345303867 0 .15538674.149183895 0 .331519766 0L1.26530044 0C1.44763631 0 1.59682021.15538674 1.59682021.345303867 1.59682021.535220994 1.44763631.690607735 1.26530044.690607735ZM.795647439 10.7849908.331519766 10.7849908C.149183895 10.7849908 0 10.6296041 0 10.4396869 0 10.2497698.149183895 10.0943831.331519766 10.0943831L.795647439 10.0943831C.97798331 10.0943831 1.12716721 10.2497698 1.12716721 10.4396869 1.12716721 10.6296041.97798331 10.7849908.795647439 10.7849908ZM.795647439 9.52463168.331519766 9.52463168C.149183895 9.52463168 0 9.36924494 0 9.17932781 0 8.98941068.149183895 8.83402394.331519766 8.83402394L.795647439 8.83402394C.97798331 8.83402394 1.12716721 8.98941068 1.12716721 9.17932781 1.12716721 9.36924494.97798331 9.52463168.795647439 9.52463168ZM.795647439 8.26427256.331519766 8.26427256C.149183895 8.26427256 0 8.10888582 0 7.91896869 0 7.72905157.149183895 7.57366483.331519766 7.57366483L.795647439 7.57366483C.97798331 7.57366483 1.12716721 7.72905157 1.12716721 7.91896869 1.12716721 8.10888582.97798331 8.26427256.795647439 8.26427256ZM.795647439 4.47744015.331519766 4.47744015C.149183895 4.47744015 0 4.32205341 0 4.13213628 0 3.94221915.149183895 3.78683241.331519766 3.78683241L.795647439 3.78683241C.97798331 3.78683241 1.12716721 3.94221915 1.12716721 4.13213628 1.12716721 4.32205341.97798331 4.47744015.795647439 4.47744015ZM.795647439 5.73779926.331519766 5.73779926C.149183895 5.73779926 0 5.58241252 0 5.3924954 0 5.20257827.149183895 5.04719153.331519766 5.04719153L.795647439 5.04719153C.97798331 5.04719153 1.12716721 5.20257827 1.12716721 5.3924954 1.12716721 5.58241252.97798331 5.73779926.795647439 5.73779926ZM.795647439 3.21708103.331519766 3.21708103C.149183895 3.21708103 0 3.06169429 0 2.87177716 0 2.68186004.149183895 2.5264733.331519766 2.5264733L.795647439 2.5264733C.97798331 2.5264733 1.12716721 2.68186004 1.12716721 2.87177716 1.12716721 3.06169429.97798331 3.21708103.795647439 3.21708103ZM.795647439 1.95672192.331519766 1.95672192C.149183895 1.95672192 0 1.80133517 0 1.61141805 0 1.42150092.149183895 1.26611418.331519766 1.26611418L.795647439 1.26611418C.97798331 1.26611418 1.12716721 1.42150092 1.12716721 1.61141805 1.12716721 1.80133517.97798331 1.95672192.795647439 1.95672192Z" transform="translate(.989 3.32)"/></g><polyline fill="#FFF" points="22 22 22.096 22.096 32 32 32 33 21 33 21 29 23 29 21 27 21 21"/><g fill-rule="nonzero" transform="translate(9 8.503)"><path d="M10.6141578,11.0981129 L0.331519766,0.38793797 L0.331519766,24.6973302 L23.6705113,24.6973302 L11.4540079,11.9728827 M4.52524481,10.8276249 L13.6254624,20.3062161 L4.52524481,20.3062161 L4.52524481,10.8276249 Z"/><path fill="#191970" d="M0.204437189,0.0253689095 C0.325994437,-0.0264266707 0.469653002,0.00234865163 0.563583603,0.100184747 L0.563583603,0.100184747 L9.66380118,9.57302084 C9.79088376,9.71114239 9.79088376,9.92983484 9.66380118,10.0622013 C9.53119328,10.1945678 9.32123076,10.1945678 9.19414818,10.0622013 L9.19414818,10.0622013 L0.663039532,1.1763818 L0.663039532,13.6878919 C0.663039532,13.6933181 0.66291775,13.6987161 0.66267689,13.7040832 L0.663039532,13.7444456 L0.663039532,16.3534837 C0.663039532,16.3616787 0.662982734,16.3698446 0.66287,16.3779794 L0.663039532,16.3870172 L0.663039532,24.3059859 L22.8693385,24.3059859 L9.73563047,10.6261976 C9.60854789,10.4880761 9.60854789,10.2693836 9.73563047,10.1370172 C9.86823837,10.0046507 10.0782009,10.0046507 10.2052835,10.1370172 L10.2052835,10.1370172 L23.9025751,24.4038219 C24.0020311,24.501658 24.0241324,24.6512897 23.9744044,24.7779011 C23.9246765,24.9045126 23.8031192,24.9908385 23.6705113,24.9908385 L23.6705113,24.9908385 L0.331519766,24.9908385 C0.149183895,24.9908385 0,24.8354518 0,24.6455347 L0,24.6455347 L0,16.3870172 C0,16.3839649 3.853283e-05,16.3809216 0.00011511683,16.3778877 L0,16.3534837 L0,13.7444456 C0,13.7304459 0.000165759883,13.716531 0.000492982171,13.7027109 L0,13.6878919 L0,0.341897455 C0,0.203775908 0.0828799416,0.0771644896 0.204437189,0.0253689095 Z"/><path fill="#191970" d="M4.39816223,10.4650558 C4.27660498,10.5168514 4.19372504,10.6434628 4.19372504,10.7815844 L4.19372504,20.2601755 C4.19372504,20.4500927 4.34290894,20.6054794 4.52524481,20.6054794 L13.6254624,20.6054794 C13.7580703,20.6054794 13.8796275,20.5191534 13.9293555,20.392542 C13.9790835,20.2659306 13.9514568,20.1162989 13.8575262,20.0184628 L4.75730865,10.5398717 C4.66337804,10.4362805 4.51971948,10.4075052 4.39816223,10.4650558 Z M4.85676457,11.6160687 L12.8242896,19.9148717 L4.85676457,19.9148717 L4.85676457,11.6160687 Z"/><path fill="#191970" d="M1.27082577 12.6151013.331519766 12.6151013C.149183895 12.6151013 0 12.770488 0 12.9604052 0 13.1503223.149183895 13.305709.331519766 13.305709L1.27082577 13.305709C1.45316164 13.305709 1.60234554 13.1503223 1.60234554 12.9604052 1.60234554 12.770488 1.45316164 12.6151013 1.27082577 12.6151013ZM1.27082577 6.30755064.331519766 6.30755064C.149183895 6.30755064 0 6.46293738 0 6.65285451 0 6.84277164.149183895 6.99815838.331519766 6.99815838L1.27082577 6.99815838C1.45316164 6.99815838 1.60234554 6.84277164 1.60234554 6.65285451 1.60234554 6.46293738 1.45316164 6.30755064 1.27082577 6.30755064ZM.331519766.690607735 1.27082577.690607735C1.45316164.690607735 1.60234554.535220994 1.60234554.345303867 1.60234554.15538674 1.45316164 1.6356877e-15 1.27082577 1.6356877e-15L.331519766 1.6356877e-15C.149183895 1.6356877e-15 0 .15538674 0 .345303867 0 .535220994.149183895.690607735.331519766.690607735ZM.801172768 16.3961786.331519766 16.3961786C.149183895 16.3961786 0 16.5515654 0 16.7414825 0 16.9313996.149183895 17.0867864.331519766 17.0867864L.801172768 17.0867864C.98350864 17.0867864 1.13269253 16.9313996 1.13269253 16.7414825 1.13269253 16.5515654.98350864 16.3961786.801172768 16.3961786ZM.801172768 17.6622928.331519766 17.6622928C.149183895 17.6622928 0 17.8176796 0 18.0075967 0 18.1975138.149183895 18.3529006.331519766 18.3529006L.801172768 18.3529006C.98350864 18.3529006 1.13269253 18.1975138 1.13269253 18.0075967 1.13269253 17.8176796.98350864 17.6622928.801172768 17.6622928ZM.801172768 15.1358195.331519766 15.1358195C.149183895 15.1358195 0 15.2912063 0 15.4811234 0 15.6710405.149183895 15.8264273.331519766 15.8264273L.801172768 15.8264273C.98350864 15.8264273 1.13269253 15.6710405 1.13269253 15.4811234 1.13269253 15.2912063.98350864 15.1358195.801172768 15.1358195ZM.801172768 13.8754604.331519766 13.8754604C.149183895 13.8754604 0 14.0308471 0 14.2207643 0 14.4106814.149183895 14.5660681.331519766 14.5660681L.801172768 14.5660681C.98350864 14.5660681 1.13269253 14.4106814 1.13269253 14.2207643 1.13269253 14.0308471.98350864 13.8754604.801172768 13.8754604ZM.331519766 10.7792357.801172768 10.7792357C.98350864 10.7792357 1.13269253 10.623849 1.13269253 10.4339319 1.13269253 10.2440147.98350864 10.088628.801172768 10.088628L.331519766 10.088628C.149183895 10.088628 0 10.2440147 0 10.4339319 0 10.623849.149183895 10.7792357.331519766 10.7792357ZM.331519766 12.0453499.801172768 12.0453499C.98350864 12.0453499 1.13269253 11.8899632 1.13269253 11.700046 1.13269253 11.5101289.98350864 11.3547422.801172768 11.3547422L.331519766 11.3547422C.149183895 11.3547422 0 11.5101289 0 11.700046 0 11.8899632.149183895 12.0453499.331519766 12.0453499ZM.331519766 9.51887661.801172768 9.51887661C.98350864 9.51887661 1.13269253 9.36348987 1.13269253 9.17357274 1.13269253 8.98365562.98350864 8.82826888.801172768 8.82826888L.331519766 8.82826888C.149183895 8.82826888 0 8.98365562 0 9.17357274 0 9.36348987.149183895 9.51887661.331519766 9.51887661ZM.331519766 8.2585175.801172768 8.2585175C.98350864 8.2585175 1.13269253 8.10313076 1.13269253 7.91321363 1.13269253 7.7232965.98350864 7.56790976.801172768 7.56790976L.331519766 7.56790976C.149183895 7.56790976 0 7.7232965 0 7.91321363 0 8.10313076.149183895 8.2585175.331519766 8.2585175ZM.331519766 4.47168508.801172768 4.47168508C.98350864 4.47168508 1.13269253 4.31629834 1.13269253 4.12638122 1.13269253 3.93646409.98350864 3.78107735.801172768 3.78107735L.331519766 3.78107735C.149183895 3.78107735 0 3.93646409 0 4.12638122 0 4.31629834.149183895 4.47168508.331519766 4.47168508ZM.331519766 5.73779926.801172768 5.73779926C.98350864 5.73779926 1.13269253 5.58241252 1.13269253 5.3924954 1.13269253 5.20257827.98350864 5.04719153.801172768 5.04719153L.331519766 5.04719153C.149183895 5.04719153 0 5.20257827 0 5.3924954 0 5.58241252.149183895 5.73779926.331519766 5.73779926ZM.331519766 3.21132597.801172768 3.21132597C.98350864 3.21132597 1.13269253 3.05593923 1.13269253 2.8660221 1.13269253 2.67610497.98350864 2.52071823.801172768 2.52071823L.331519766 2.52071823C.149183895 2.52071823 0 2.67610497 0 2.8660221 0 3.05593923.149183895 3.21132597.331519766 3.21132597ZM.331519766 1.95096685.801172768 1.95096685C.98350864 1.95096685 1.13269253 1.79558011 1.13269253 1.60566298 1.13269253 1.41574586.98350864 1.26035912.801172768 1.26035912L.331519766 1.26035912C.149183895 1.26035912 0 1.41574586 0 1.60566298 0 1.79558011.149183895 1.95096685.331519766 1.95096685Z" transform="translate(1.022 5.418)"/></g></g></svg>