<svg xmlns="http://www.w3.org/2000/svg" width="42" height="42" viewBox="0 0 42 42"><g fill="none" fill-rule="evenodd"><rect width="42" height="42" fill="#FFF" rx="21"/><g fill="#191970" fill-rule="nonzero" transform="translate(11.5 8.5)"><path d="M17.8125,0 L1.1875,0 C0.53166186,0 0,0.524666309 0,1.171875 L0,23.828125 C0,24.4753337 0.53166186,25 1.1875,25 L17.8125,25 C18.4683381,25 19,24.4753337 19,23.828125 L19,1.171875 C19,0.524666309 18.4683381,0 17.8125,0 Z M0.791666667,1.171875 C0.791666667,0.95613877 0.968887287,0.78125 1.1875,0.78125 L17.8125,0.78125 C18.0311127,0.78125 18.2083333,0.95613877 18.2083333,1.171875 L18.2083333,4.6875 L0.791666667,4.6875 L0.791666667,1.171875 Z M17.8125,24.21875 L1.1875,24.21875 C0.968887287,24.21875 0.791666667,24.0438612 0.791666667,23.828125 L0.791666667,5.46875 L18.2083333,5.46875 L18.2083333,23.828125 C18.2083333,24.0438612 18.0311127,24.21875 17.8125,24.21875 Z"/><path d="M13.6914792,9.15742188 C13.5774561,9.07047953 13.4245645,9.05155149 13.2923125,9.10800488 C13.1600604,9.16445826 13.069342,9.28737415 13.0554664,9.42891159 C13.0415907,9.57044902 13.1067501,9.70824687 13.2255833,9.78867187 C15.7450354,11.5963973 16.5583621,14.9437211 15.1435842,17.682388 C13.7288063,20.4210549 10.5060216,21.7378575 7.54355831,20.7876943 C4.581095,19.8375311 2.7586137,16.9025393 3.24575174,13.8663466 C3.73288977,10.8301539 6.38499854,8.59431367 9.5,8.59375 C10.3993215,8.59166185 11.288614,8.7801548 12.10775,9.14648438 C12.3070155,9.2353677 12.541567,9.14801076 12.6316354,8.95136719 C12.7217039,8.75472361 12.6331822,8.52325833 12.4339167,8.434375 C9.55508737,7.15064834 6.16340763,7.89089902 4.10164395,10.2529343 C2.03988027,12.6149695 1.80037305,16.0347453 3.51325127,18.65423 C5.22612949,21.2737148 8.48236513,22.4673866 11.5127812,21.5867002 C14.5431972,20.7060137 16.6241431,17.9612731 16.625,14.84375 C16.6205249,12.59546 15.5311026,10.4837271 13.6914792,9.15742188 Z"/><path d="M4.75 14.84375C4.75 17.4325848 6.87664744 19.53125 9.5 19.53125 12.1233526 19.53125 14.25 17.4325848 14.25 14.84375 14.25 12.2549152 12.1233526 10.15625 9.5 10.15625 6.87782308 10.1590488 4.75283609 12.2560754 4.75 14.84375ZM9.5 18.75C7.31486762 18.7476319 5.54406635 17.0001306 5.54166667 14.84375 5.54166667 14.765625 5.54879167 14.6914062 5.55354167 14.615625 6.02181496 15.0232351 6.73028316 15.0022146 7.17289583 14.5675781L7.6368125 14.1097656C7.79351877 13.9624442 8.03981457 13.9624442 8.19652083 14.1097656L8.6604375 14.5675781C9.12415607 15.025057 9.87584393 15.025057 10.3395625 14.5675781L10.8034792 14.1097656C10.958052 13.9572727 11.2086146 13.9572727 11.3631875 14.1097656L11.8271042 14.5675781C12.2684559 15.0050958 12.9792683 15.0261859 13.4464583 14.615625 13.4512083 14.6914062 13.4583333 14.7667969 13.4583333 14.84375 13.4559336 17.0001306 11.6851324 18.7476319 9.5 18.75ZM13.2806042 13.6855469 12.9465208 14.0152344C12.791948 14.1677273 12.5413854 14.1677273 12.3868125 14.0152344L11.9228958 13.5574219C11.4591773 13.099943 10.7074894 13.099943 10.2437708 13.5574219L9.77985417 14.0152344C9.62528131 14.1677273 9.37471869 14.1677273 9.22014583 14.0152344L8.75622917 13.5574219C8.29251059 13.099943 7.54082274 13.099943 7.07710417 13.5574219L6.6131875 14.0152344C6.45861464 14.1677273 6.20805202 14.1677273 6.05347917 14.0152344L5.71939583 13.6855469C6.233672 12.0514876 7.76573324 10.9379133 9.49960417 10.9379133 11.2334751 10.9379133 12.7655363 12.0514876 13.2798125 13.6855469L13.2806042 13.6855469ZM9.5 1.171875C8.62554915 1.171875 7.91666667 1.87143008 7.91666667 2.734375 7.91666667 3.59731992 8.62554915 4.296875 9.5 4.296875 10.3744509 4.296875 11.0833333 3.59731992 11.0833333 2.734375 11.0833333 2.31997423 10.9165183 1.92254625 10.6195857 1.62952065 10.3226531 1.33649506 9.91992611 1.171875 9.5 1.171875ZM9.5 3.515625C9.06277457 3.515625 8.70833333 3.16584746 8.70833333 2.734375 8.70833333 2.30290254 9.06277457 1.953125 9.5 1.953125 9.93722543 1.953125 10.2916667 2.30290254 10.2916667 2.734375 10.2916667 2.94157538 10.2082592 3.14028938 10.0597929 3.28680217 9.91132657 3.43331497 9.70996305 3.515625 9.5 3.515625ZM17.0208333 1.171875 12.2708333 1.171875C12.0522206 1.171875 11.875 1.34676377 11.875 1.5625L11.875 3.90625C11.875 4.12198623 12.0522206 4.296875 12.2708333 4.296875L17.0208333 4.296875C17.239446 4.296875 17.4166667 4.12198623 17.4166667 3.90625L17.4166667 1.5625C17.4166667 1.34676377 17.239446 1.171875 17.0208333 1.171875ZM16.625 3.515625 12.6666667 3.515625 12.6666667 1.953125 16.625 1.953125 16.625 3.515625ZM5.9375 1.953125 2.77083333 1.953125C2.11499519 1.953125 1.58333333 2.47779131 1.58333333 3.125 1.58333333 3.77220869 2.11499519 4.296875 2.77083333 4.296875L5.9375 4.296875C6.59333814 4.296875 7.125 3.77220869 7.125 3.125 7.125 2.47779131 6.59333814 1.953125 5.9375 1.953125ZM5.9375 3.515625 2.77083333 3.515625C2.55222062 3.515625 2.375 3.34073623 2.375 3.125 2.375 2.90926377 2.55222062 2.734375 2.77083333 2.734375L5.9375 2.734375C6.15611271 2.734375 6.33333333 2.90926377 6.33333333 3.125 6.33333333 3.34073623 6.15611271 3.515625 5.9375 3.515625Z"/></g></g></svg>