<svg xmlns="http://www.w3.org/2000/svg" width="42" height="42" viewBox="0 0 42 42"><g fill="none" fill-rule="evenodd"><rect width="42" height="42" fill="#FFF" rx="21"/><g stroke="#191970" stroke-linecap="round" transform="translate(8.5 9)"><path d="M0.1875,9.22727273 C0.1875,7.56818182 1.14772727,5.99431818 2.52840909,4.59090909 C5.12961948,1.98833476 8.6584366,0.526109018 12.3380682,0.526109018 C16.0176998,0.526109018 19.5465169,1.98833476 22.1477273,4.59090909 C23.5397727,6 24.5113636,7.57954545 24.5113636,9.24431818"/><circle cx="5.563" cy="19.795" r="3.29"/><path stroke-linejoin="round" d="M10.5568182,15.7159091 L10.7954545,13.8125 C10.8114636,13.708289 10.7728439,13.6031574 10.6931818,13.5340909 L9.25,12.2670455 C9.14791322,12.1893505 9.10247232,12.0579477 9.13475432,11.9337861 C9.16703633,11.8096246 9.27072549,11.7169956 9.39772727,11.6988636 L11.2613636,11.3636364 C11.3641564,11.344952 11.4512266,11.2769947 11.4943182,11.1818182 L12.25,9.41477273 C12.2985123,9.30457659 12.4050702,9.23120224 12.525322,9.22518966 C12.6455737,9.21917707 12.7589193,9.28155624 12.8181818,9.38636364 L13.7613636,11.0625 C13.8122867,11.151917 13.9033084,11.211187 14.0056818,11.2215909 L15.9090909,11.3636364 C16.0302513,11.3743484 16.1347036,11.4531972 16.1782053,11.566785 C16.221707,11.6803728 16.1966456,11.8088226 16.1136364,11.8977273 L14.8068182,13.3068182 C14.7381742,13.4029833 14.7252225,13.5281831 14.7727273,13.6363636 L15.1931818,15.5056818 C15.2192373,15.6235585 15.1763393,15.7460278 15.0824247,15.8218819 C14.9885101,15.897736 14.8597567,15.9139082 14.75,15.8636364 L13.0056818,15.0625 C12.9136811,15.0119594 12.802228,15.0119594 12.7102273,15.0625 L11.0625,16.0397727 C10.9560645,16.1230354 10.8086464,16.1299848 10.6948501,16.057104 C10.5810539,15.9842233 10.5257066,15.8474129 10.5568182,15.7159091 Z"/><polygon stroke-linejoin="round" points="19.494 23.085 16.631 21.432 16.631 18.131 19.494 16.477 22.352 18.131 22.352 21.432"/><path d="M6.81818182,19.7954545 C6.81818182,20.4920864 6.25345008,21.0568182 5.55681818,21.0568182 C4.86018628,21.0568182 4.29545455,20.4920864 4.29545455,19.7954545"/><line x1="5.563" x2="5.563" y1="16.506" y2="2.273"/><line x1="19.494" x2="19.494" y1="16.477" y2="2.489"/><line x1="12.54" x2="12.54" y1="9.199" y2=".517"/></g></g></svg>