<svg xmlns="http://www.w3.org/2000/svg" width="42" height="42" viewBox="0 0 42 42"><g fill="none" fill-rule="evenodd"><rect width="42" height="42" fill="#FFF" rx="21"/><g fill="#191970" fill-rule="nonzero" transform="translate(9.5 8.5)"><path d="M22.9220717,20.6758789 L22.0720907,15.8291504 C21.9171076,14.9454102 21.1573797,14.3040527 20.2656203,14.3040527 L19.9451245,14.3040527 L19.6228819,11.8132813 C19.7425401,11.7239258 19.8525907,11.6197754 19.949443,11.5010742 C20.2992954,11.0723145 20.4383629,10.5143066 20.3310295,9.97011719 L19.9413882,7.99838867 C19.9021814,7.80004883 19.7105633,7.67114258 19.513462,7.71064453 C19.3163608,7.75009766 19.188308,7.94287109 19.2275148,8.14121094 L19.6171561,10.112793 C19.6818861,10.4410645 19.5979895,10.7776367 19.3869135,11.0363281 C19.1758376,11.2950195 18.8640759,11.4433594 18.5314979,11.4433594 L4.46850211,11.4433594 C4.13592405,11.4433594 3.82416245,11.2950195 3.6130865,11.0363281 C3.40201055,10.7776367 3.31811392,10.4410645 3.38284388,10.1128906 L4.26936287,5.62412109 C4.37203797,5.10458984 4.82844726,4.72753906 5.35453586,4.72753906 L17.6454641,4.72753906 C18.1715527,4.72753906 18.627962,5.10463867 18.7306371,5.62397461 L18.8965865,6.4652832 C18.9356962,6.66362305 19.1271203,6.79248047 19.3243671,6.75317383 C19.5215169,6.71376953 19.6496181,6.52104492 19.6104599,6.32270508 L19.4445105,5.48125 C19.2972911,4.73632812 18.7110823,4.16845703 17.9909494,4.02866211 L17.9909494,1.35268555 C17.9909979,0.606835938 17.3879515,0 16.646711,0 L14.097884,0 C13.356692,0 12.7536456,0.606835938 12.7536456,1.35268555 L12.7536456,3.99511719 L10.2461603,3.99511719 L10.2461603,1.35253906 C10.2461603,0.606738281 9.64321097,0 8.90206751,0 L6.35314346,0 C5.612,0 5.00905063,0.606738281 5.00905063,1.35253906 L5.00905063,1.50927734 C5.00905063,1.71157227 5.17199156,1.87548828 5.37297468,1.87548828 C5.57395781,1.87548828 5.73689873,1.71157227 5.73689873,1.50927734 L5.73689873,1.35253906 C5.73689873,1.0105957 6.01333544,0.732421875 6.35314346,0.732421875 L8.90206751,0.732421875 C9.24187553,0.732421875 9.51831224,1.0105957 9.51831224,1.35253906 L9.51831224,3.99511719 L5.73689873,3.99511719 L5.73689873,3.21826172 C5.73689873,3.0159668 5.57395781,2.85205078 5.37297468,2.85205078 C5.17199156,2.85205078 5.00905063,3.0159668 5.00905063,3.21826172 L5.00905063,4.02866211 C4.28891772,4.16845703 3.70270886,4.73637695 3.55548945,5.48129883 L2.66892194,9.97021484 C2.56158861,10.5143066 2.70065612,11.0722656 3.05050844,11.5010742 C3.14736076,11.6198242 3.25741139,11.7239258 3.37706962,11.8132813 L3.054827,14.3040527 L2.73433122,14.3040527 C1.84257173,14.3040527 1.08279536,14.945459 0.927860759,15.8291504 L0.0778797468,20.6758789 C-0.0418755274,21.3585937 0.143434599,22.0547852 0.586257384,22.5858887 C1.02903165,23.1169922 1.67812658,23.421582 2.36705907,23.421582 L2.5705654,23.421582 C2.70555696,23.6481934 2.86917722,23.8595703 3.05967932,24.051123 C3.6672384,24.6630371 4.47534388,25 5.33522363,25 L17.6648249,25 C18.8366603,25 19.8638966,24.3662109 20.4266688,23.4216309 L20.6328924,23.4216309 C21.3218249,23.4216309 21.9709198,23.117041 22.4136941,22.5859375 C22.8565169,22.054834 23.041827,21.3586426 22.9220717,20.6758789 Z M13.4814451,1.35268555 C13.4814451,1.01064453 13.7579789,0.732421875 14.0978354,0.732421875 L16.6466624,0.732421875 C16.9865675,0.732421875 17.2631013,1.01064453 17.2631013,1.35268555 L17.2631013,3.99511719 L13.4814451,3.99511719 L13.4814451,1.35268555 Z M1.14388608,22.1151855 C0.839694093,21.7503418 0.712417722,21.2721191 0.794664557,20.8032227 L1.64464557,15.9564941 C1.73814979,15.4233887 2.19645148,15.0364746 2.73437975,15.0364746 L2.9601097,15.0364746 L2.14424051,21.3430664 C2.12618987,21.4799805 2.11706751,21.6208008 2.11706751,21.7616211 C2.11706751,22.0786621 2.16248523,22.388623 2.24934177,22.6842773 C1.82054219,22.6526367 1.4226519,22.4495117 1.14388608,22.1151855 L1.14388608,22.1151855 Z M17.6647764,24.2675781 L5.33522363,24.2675781 C4.66992194,24.2675781 4.0446519,24.0068848 3.5744135,23.533252 C3.10398101,23.0603027 2.84491561,22.4311523 2.84491561,21.7616699 C2.84491561,21.6528809 2.85195148,21.5444824 2.86592616,21.4384766 L4.06988397,12.1319336 C4.19939241,12.160791 4.33287975,12.1758301 4.46855063,12.1758301 L18.5315464,12.1758301 C18.6671688,12.1758301 18.8007046,12.160791 18.9302131,12.1319336 L20.1342679,21.4393555 C20.1481456,21.5444824 20.1551329,21.6529297 20.1551329,21.7617188 C20.1551329,23.143457 19.0379346,24.2675781 17.6647764,24.2675781 L17.6647764,24.2675781 Z M21.8561139,22.1151855 C21.5770084,22.4499023 21.1784873,22.6531738 20.7491055,22.6844727 C20.8357194,22.3918457 20.882981,22.0822754 20.882981,21.7616699 C20.882981,21.6208008 20.8738586,21.4799805 20.8559051,21.3439453 L20.0398903,15.0364746 L20.2656203,15.0364746 C20.8035485,15.0364746 21.2618502,15.4233887 21.3553544,15.9564941 L22.2053354,20.8032227 C22.2875338,21.2721191 22.1602574,21.7503418 21.8561139,22.1151855 L21.8561139,22.1151855 Z"/><path d="M18.7357321 17.1601562C18.6494578 16.4878418 18.0764473 15.980957 17.4028481 15.980957L8.61723629 15.980957C8.41625316 15.980957 8.25331224 16.144873 8.25331224 16.347168 8.25331224 16.5494629 8.41625316 16.7133789 8.61723629 16.7133789L17.4028481 16.7133789C17.7116498 16.7133789 17.9743059 16.9458008 18.0138523 17.2540527L18.5789051 21.6438965C18.5838544 21.680957 18.5863291 21.7205566 18.5863291 21.7616699 18.5863291 22.272998 18.1729599 22.688916 17.6648734 22.688916L5.33512658 22.688916C4.82704008 22.688916 4.41367089 22.2729492 4.41367089 21.7616699 4.41367089 21.7205566 4.41619409 21.680957 4.42133755 21.6421875L4.98614768 17.2539062C5.02569409 16.945752 5.28839873 16.7133789 5.5971519 16.7133789L6.91892405 16.7133789C7.11990717 16.7133789 7.2828481 16.5494629 7.2828481 16.347168 7.2828481 16.144873 7.11990717 15.980957 6.91892405 15.980957L5.5971519 15.980957C4.92355274 15.980957 4.35054219 16.4878906 4.26431646 17.1600098L3.69974895 21.5464355C3.69052954 21.6156738 3.68582278 21.6880859 3.68582278 21.7616699 3.68582278 22.6768066 4.42570464 23.4213379 5.33512658 23.4213379L17.6648734 23.4213379C18.5742954 23.4213379 19.3141772 22.6768066 19.3141772 21.7616699 19.3141772 21.6880859 19.3094705 21.6156738 19.3004937 21.5481445L18.7357321 17.1601562ZM9.04918987 6.14091797C8.57822363 6.14091797 8.19508439 6.52646484 8.19508439 7.00039062L8.19508439 9.1706543C8.19508439 9.64453125 8.57822363 10.030127 9.04918987 10.030127L13.9508586 10.030127C14.4218249 10.030127 14.8049641 9.64458008 14.8049641 9.1706543L14.8049641 7.00039062C14.8049641 6.52651367 14.4218249 6.14091797 13.9508586 6.14091797L9.04918987 6.14091797ZM14.0770675 7.0003418 14.0770675 9.17060547C14.0770675 9.24067383 14.0204409 9.29765625 13.9508101 9.29765625L9.04918987 9.29765625C8.97955907 9.29765625 8.92293249 9.24067383 8.92293249 9.17060547L8.92293249 7.0003418C8.92293249 6.93027344 8.97955907 6.87329102 9.04918987 6.87329102L13.9508586 6.87329102C14.0204409 6.87333984 14.0770675 6.93032227 14.0770675 7.0003418Z"/><path d="M14.8331076,19.4756348 C15.0340907,19.4756348 15.1970316,19.3117187 15.1970316,19.1094238 L15.1970316,18.4891602 L15.9114873,18.4891602 C16.1124705,18.4891602 16.2754114,18.3252441 16.2754114,18.1229492 C16.2754114,17.9206543 16.1124705,17.7567383 15.9114873,17.7567383 L7.08851266,17.7567383 C6.88752954,17.7567383 6.72458861,17.9206543 6.72458861,18.1229492 C6.72458861,18.3252441 6.88752954,18.4891602 7.08851266,18.4891602 L14.469135,18.4891602 L14.469135,19.1094238 C14.4691835,19.3117187 14.6321245,19.4756348 14.8331076,19.4756348 L14.8331076,19.4756348 Z"/></g></g></svg>