<svg xmlns="http://www.w3.org/2000/svg" width="42" height="42" viewBox="0 0 42 42"><g fill="none" fill-rule="evenodd"><rect width="42" height="42" fill="#FFF" rx="21"/><g fill="#191970" fill-rule="nonzero" transform="translate(8.5 12)"><path d="M24.6900958,4.8707027 L20.4822684,3.06008108 C18.8960064,2.29386486 16.8460863,0.21372973 16.8257987,0.192810811 C16.7268371,0.0921081081 16.5853035,0.0465405405 16.4467252,0.0702972973 C16.3082268,0.0946216216 16.1902556,0.185756757 16.1304313,0.315081081 C15.4253195,1.833 13.3745208,2.283 13.3269169,2.29386486 L0.31701278,5.92451351 C0.149600639,5.97154054 0.0261980831,6.11497297 0.00383386581,6.28921622 C-0.0190894569,6.46362162 0.0638977636,6.63510811 0.212939297,6.72405405 L7.17052716,10.8672973 C7.23730032,10.907027 7.31269968,10.9275405 7.38873802,10.9275405 C7.43003195,10.9275405 7.47196486,10.9215405 7.51253994,10.9091351 L24.6452875,5.69245946 C24.8197284,5.63951351 24.9422524,5.48140541 24.9519968,5.29718919 C24.9621406,5.11297297 24.8572684,4.94254054 24.6900958,4.8707027 Z M7.44480831,10.0159459 L1.53115016,6.49418919 L13.5277955,3.14521622 C13.6192492,3.12640541 15.5816294,2.70154054 16.615655,1.20381081 C17.3198882,1.87597297 18.8222843,3.22840541 20.1288339,3.85881081 L23.2528754,5.20289189 L7.44480831,10.0159459 Z"/><path d="M24.3981629,6.60535135 L7.44520767,11.7672973 L0.649600639,7.72054054 C0.444648562,7.59802703 0.179952077,7.66816216 0.0595047923,7.87637838 C-0.0611821086,8.08475676 0.00774760383,8.3532973 0.213019169,8.47540541 L7.33282748,12.7152973 L24.6454473,7.44389189 C24.873722,7.37440541 25.0034345,7.13043243 24.9348243,6.8987027 C24.8665335,6.66762162 24.6260383,6.53716216 24.3981629,6.60535135 Z"/><path d="M24.3981629,8.35678378 L7.44520767,13.5186486 L0.649600639,9.47164865 C0.444648562,9.34889189 0.179952077,9.41943243 0.0595047923,9.62772973 C-0.0611821086,9.83594595 0.00774760383,10.1044865 0.213019169,10.2268378 L7.33282748,14.4666486 L24.6454473,9.19524324 C24.873722,9.12575676 25.0034345,8.88186486 24.9348243,8.65005405 C24.8665335,8.41889189 24.6260383,8.2877027 24.3981629,8.35678378 Z"/><path d="M24.3981629,10.1078919 L7.44520767,15.27 L0.649600639,11.223 C0.444648562,11.1002432 0.179952077,11.1711892 0.0595047923,11.379 C-0.0611821086,11.5872162 0.00774760383,11.8558378 0.213019169,11.9781081 L7.33282748,16.2179189 L24.6454473,10.9463514 C24.873722,10.8771081 25.0034345,10.632973 24.9348243,10.4011622 C24.8665335,10.1703243 24.6260383,10.0394595 24.3981629,10.1078919 Z"/><path d="M24.3981629,11.8592432 L7.44520767,17.0213514 L0.649600639,12.9743514 C0.444648562,12.8515946 0.179952077,12.9221351 0.0595047923,13.1304324 C-0.0611821086,13.3386486 0.00774760383,13.6071892 0.213019169,13.7294595 L7.33282748,17.9693514 L24.6454473,12.6977027 C24.873722,12.6284595 25.0034345,12.3843243 24.9348243,12.1525135 C24.8665335,11.9216757 24.6260383,11.7904054 24.3981629,11.8592432 Z"/></g></g></svg>