<svg xmlns="http://www.w3.org/2000/svg" width="42" height="42" viewBox="0 0 42 42"><g fill="none" fill-rule="evenodd"><rect width="42" height="42" fill="#FFF" rx="21"/><g fill="#191970" fill-rule="nonzero" transform="translate(14 9)"><path d="M12.1883475,0.132415254 L2.64216102,0.132415254 C1.26784623,0.133933379 0.154155404,1.24771899 0.152754237,2.6220339 L0.152754237,22.3779661 C0.154272147,23.7521983 1.26792885,24.865855 2.64216102,24.8673729 L12.1883475,24.8673729 C13.5625796,24.865855 14.6762363,23.7521983 14.6777542,22.3779661 L14.6777542,2.6220339 C14.6763531,1.24771899 13.5626622,0.133933379 12.1883475,0.132415254 Z M13.9362288,22.378178 C13.9351779,23.3430706 13.15324,24.1250084 12.1883475,24.1260593 L2.64216102,24.1260593 C1.67726843,24.1250084 0.895330552,23.3430706 0.894279661,22.378178 L0.894279661,2.6220339 C0.895330328,1.6571069 1.67723416,0.875108299 2.64216102,0.873940678 L12.1883475,0.873940678 C13.1532743,0.875108299 13.9351781,1.6571069 13.9362288,2.6220339 L13.9362288,22.378178 Z"/><path d="M11.5527542 4.34555085 3.27775424 4.34555085C2.72224956 4.34625121 2.27209867 4.7964021 2.27139831 5.35190678L2.27139831 19.6173729C2.27209867 20.1728776 2.72224956 20.6230284 3.27775424 20.6237288L11.5527542 20.6237288C12.1082589 20.6230284 12.5584098 20.1728776 12.5591102 19.6173729L12.5591102 5.35190678C12.5584098 4.7964021 12.1082589 4.34625121 11.5527542 4.34555085L11.5527542 4.34555085ZM11.8175847 19.6173729C11.8174679 19.7635863 11.6989677 19.8822034 11.5527542 19.8822034L3.27775424 19.8822034C3.13154081 19.8822034 3.01304056 19.7635863 3.01292373 19.6173729L3.01292373 5.35190678C3.01304056 5.20569335 3.13154081 5.08707627 3.27775424 5.08707627L11.5527542 5.08707627C11.6989677 5.08707627 11.8174679 5.20569335 11.8175847 5.35190678L11.8175847 19.6173729ZM7.41525424 21.1516949C6.7397585 21.1516949 6.19216102 21.6992924 6.19216102 22.3747881 6.19216102 23.0502839 6.7397585 23.5978814 7.41525424 23.5978814 8.09074997 23.5978814 8.63834746 23.0502839 8.63834746 22.3747881 8.63764679 21.6995828 8.09045953 21.1523956 7.41525424 21.1516949L7.41525424 21.1516949ZM7.41525424 22.8563559C7.22047825 22.8563559 7.04488115 22.7390257 6.97034361 22.5590762 6.89580606 22.3791266 6.93700696 22.1719957 7.07473438 22.0342683 7.21246181 21.8965409 7.4195927 21.85534 7.59954225 21.9298775 7.77949181 22.004415 7.89682203 22.1800121 7.89682203 22.3747881 7.89647189 22.6406055 7.68107162 22.8560058 7.41525424 22.8563559L7.41525424 22.8563559ZM4.70169492 2.96610169 10.1288136 2.96610169C10.3335802 2.96610169 10.4995763 2.80010557 10.4995763 2.59533898 10.4995763 2.39057239 10.3335802 2.22457627 10.1288136 2.22457627L4.70169492 2.22457627C4.49692832 2.22457627 4.3309322 2.39057239 4.3309322 2.59533898 4.3309322 2.80010557 4.49692832 2.96610169 4.70169492 2.96610169Z"/></g></g></svg>