<svg xmlns="http://www.w3.org/2000/svg" width="42" height="42" viewBox="0 0 42 42"><g fill="none" fill-rule="evenodd"><rect width="42" height="42" fill="#FFF" rx="21"/><path fill="#191970" fill-rule="nonzero" d="M23.9625,0.0290769231 L1.0375,0.0290769231 C0.466796875,0.0290769231 0,0.509048077 0,1.10169231 L0,16.3856538 C0,16.9782981 0.466796875,17.4582692 1.0375,17.4582692 L17.6912109,17.4582692 L19.9191406,20.5337596 L20.134375,20.3702019 L20.4119141,20.7562788 C20.515625,20.8958077 20.6712891,20.9707212 20.8294922,20.9707212 C20.9384766,20.9707212 21.0474609,20.9357885 21.1380859,20.8635 L21.6152344,20.493375 C21.8460938,20.3164904 21.8927734,19.9812981 21.7214844,19.742625 L21.4414062,19.3565481 L21.6541016,19.1929904 L20.3988281,17.4580673 L23.9625,17.4580673 C24.5330078,17.4580673 25,16.9780962 25,16.3854519 L25,1.10169231 C25,0.509048077 24.5332031,0.0290769231 23.9625,0.0290769231 Z M21.3041016,20.0646923 L20.8294922,20.4348173 L20.5494141,20.0487404 L21.0265625,19.6786154 L21.3041016,20.0646923 Z M20.9279297,19.0831442 L20.9253906,19.0883942 C20.9228516,19.0883942 20.9228516,19.0883942 20.9228516,19.0883942 C20.9228516,19.0883942 20.9203125,19.0883942 20.9203125,19.0910192 L20.0359375,19.7747308 C20.0333984,19.7773558 20.0333984,19.7773558 20.0306641,19.7801827 C20.028125,19.7801827 20.0253906,19.7828077 20.0253906,19.7828077 L20.0228516,19.7828077 L18.3396484,17.4582692 L17.9505859,16.9219615 L16.809375,15.3453462 L16.4228516,14.8090385 L13.3882813,10.6179231 L14.2933594,9.91805769 L17.8337891,14.8090385 L18.2228516,15.3453462 L19.3640625,16.9219615 L19.7505859,17.4582692 L20.9279297,19.0831442 Z M11.9177734,7.70861538 L12.7789062,10.6474038 C12.7867187,10.6742596 12.8021484,10.7011154 12.8177734,10.7251442 L15.7744141,14.8090385 L2.85292969,14.8090385 L2.85292969,2.67830769 L18.7234375,2.67830769 L18.7234375,14.8090385 L18.4822266,14.8090385 L14.5529297,9.38195192 L14.521875,9.34176923 L11.9177734,7.70861538 Z M13.8837891,9.56428846 L13.1679688,10.119375 L12.8074219,8.89127885 L13.8837891,9.56428846 Z M24.48125,16.3856538 C24.48125,16.6806635 24.2478516,16.9219615 23.9625,16.9219615 L20.0097656,16.9219615 L18.8685547,15.3453462 L19.2419922,15.3453462 L19.2419922,2.142 L2.33417969,2.142 L2.33417969,15.3453462 L16.1634766,15.3453462 L17.3046875,16.9219615 L1.0375,16.9219615 C0.752148438,16.9219615 0.51875,16.6806635 0.51875,16.3856538 L0.51875,1.10169231 C0.51875,0.806682692 0.752148438,0.565384615 1.0375,0.565384615 L23.9625,0.565384615 C24.2478516,0.565384615 24.48125,0.806682692 24.48125,1.10169231 L24.48125,16.3856538 Z M21.8746094,7.02752885 C20.9589844,7.02752885 20.2146484,7.79705769 20.2146484,8.74367308 C20.2146484,9.69028846 20.9589844,10.4598173 21.8746094,10.4598173 C22.7902344,10.4598173 23.5345703,9.69028846 23.5345703,8.74367308 C23.5345703,7.79705769 22.7902344,7.02752885 21.8746094,7.02752885 Z M21.8746094,9.92350962 C21.2443359,9.92350962 20.7333984,9.39527885 20.7333984,8.74367308 C20.7333984,8.09206731 21.2443359,7.56383654 21.8746094,7.56383654 C22.5023438,7.56383654 23.0158203,8.09206731 23.0158203,8.74367308 C23.0158203,9.39527885 22.5023438,9.92350962 21.8746094,9.92350962 Z M21.8746094,7.02752885 C20.9589844,7.02752885 20.2146484,7.79705769 20.2146484,8.74367308 C20.2146484,9.69028846 20.9589844,10.4598173 21.8746094,10.4598173 C22.7902344,10.4598173 23.5345703,9.69028846 23.5345703,8.74367308 C23.5345703,7.79705769 22.7902344,7.02752885 21.8746094,7.02752885 Z M21.8746094,9.92350962 C21.2443359,9.92350962 20.7333984,9.39527885 20.7333984,8.74367308 C20.7333984,8.09206731 21.2443359,7.56383654 21.8746094,7.56383654 C22.5023438,7.56383654 23.0158203,8.09206731 23.0158203,8.74367308 C23.0158203,9.39527885 22.5023438,9.92350962 21.8746094,9.92350962 Z M11.8347656,7.32778846 C11.4328125,6.98734615 10.8335938,7.44853846 10.2007812,7.93638462 C9.90253906,8.16435577 9.34746094,8.58536538 9.21523437,8.57183654 C9.15039062,8.42160577 9.45117188,7.78090385 9.61464844,7.43500962 C9.95957031,6.70021154 10.2863281,6.00579808 9.88691406,5.66252885 C9.4875,5.31925962 8.88828125,5.78327885 8.25292969,6.271125 C7.96503906,6.49364423 7.44121094,6.8985 7.26484375,6.890625 C7.22597656,6.71636538 7.51386719,6.10494231 7.66953125,5.77257692 C8.01699219,5.03515385 8.34394531,4.34074038 7.94453125,4.00009615 C7.83300781,3.90357692 7.66445313,3.91427885 7.57363281,4.02957692 C7.4828125,4.14225 7.49316406,4.30843269 7.6046875,4.40232692 C7.66699219,4.55255769 7.36601563,5.19325962 7.20273438,5.53652885 C6.8578125,6.27132692 6.53105469,6.96836538 6.93046875,7.30900962 C7.32988281,7.65227885 7.92910156,7.19108654 8.56445313,6.70041346 C8.86015625,6.47244231 9.4125,6.04880769 9.54746094,6.06496154 C9.61230469,6.21519231 9.30878906,6.85589423 9.14804688,7.20178846 C8.803125,7.93658654 8.47636719,8.631 8.87578125,8.97426923 C8.97167969,9.05746154 9.08066406,9.09219231 9.19746094,9.09219231 C9.56835938,9.09219231 10.0273438,8.73822115 10.5097656,8.36547115 C10.8080078,8.1375 11.3605469,7.71124038 11.503125,7.74072115 C11.6146484,7.83724038 11.778125,7.82108654 11.86875,7.70578846 C11.9591797,7.59331731 11.94375,7.42450962 11.8347656,7.32778846 Z M22.834375,2.58178846 L21.0369141,2.58178846 C20.8943359,2.58178846 20.7775391,2.70253846 20.7775391,2.84994231 C20.7775391,2.99734615 20.8943359,3.11809615 21.0369141,3.11809615 L22.834375,3.11809615 C22.9769531,3.11809615 23.09375,2.99734615 23.09375,2.84994231 C23.09375,2.70253846 22.9769531,2.58178846 22.834375,2.58178846 Z M22.834375,4.04855769 L21.0369141,4.04855769 C20.8943359,4.04855769 20.7775391,4.16930769 20.7775391,4.31671154 C20.7775391,4.46411538 20.8943359,4.58486538 21.0369141,4.58486538 L22.834375,4.58486538 C22.9769531,4.58486538 23.09375,4.46411538 23.09375,4.31671154 C23.09375,4.16910577 22.9769531,4.04855769 22.834375,4.04855769 Z M22.834375,5.51532692 L21.0369141,5.51532692 C20.8943359,5.51532692 20.7775391,5.63607692 20.7775391,5.78348077 C20.7775391,5.93371154 20.8943359,6.05163462 21.0369141,6.05163462 L22.834375,6.05163462 C22.9769531,6.05163462 23.09375,5.93371154 23.09375,5.78348077 C23.09375,5.635875 22.9769531,5.51532692 22.834375,5.51532692 Z M22.834375,11.4090577 L21.0369141,11.4090577 C20.8943359,11.4090577 20.7775391,11.5298077 20.7775391,11.6772115 C20.7775391,11.8246154 20.8943359,11.9453654 21.0369141,11.9453654 L22.834375,11.9453654 C22.9769531,11.9453654 23.09375,11.8246154 23.09375,11.6772115 C23.09375,11.5296058 22.9769531,11.4090577 22.834375,11.4090577 Z M22.834375,12.8758269 L21.0369141,12.8758269 C20.8943359,12.8758269 20.7775391,12.9965769 20.7775391,13.1439808 C20.7775391,13.2942115 20.8943359,13.4121346 21.0369141,13.4121346 L22.834375,13.4121346 C22.9769531,13.4121346 23.09375,13.2942115 23.09375,13.1439808 C23.09375,12.996375 22.9769531,12.8758269 22.834375,12.8758269 Z M22.834375,14.3423942 L21.0369141,14.3423942 C20.8943359,14.3423942 20.7775391,14.4631442 20.7775391,14.6105481 C20.7775391,14.7607788 20.8943359,14.8787019 21.0369141,14.8787019 L22.834375,14.8787019 C22.9769531,14.8787019 23.09375,14.7607788 23.09375,14.6105481 C23.09375,14.4631442 22.9769531,14.3423942 22.834375,14.3423942 Z M12.7789062,10.6474038 L12.7892578,10.6875865 L12.8177734,10.7251442 C12.8021484,10.7011154 12.7865234,10.6742596 12.7789062,10.6474038 Z" transform="translate(8.5 10.5)"/></g></svg>