<svg xmlns="http://www.w3.org/2000/svg" width="42" height="42" viewBox="0 0 42 42"><g fill="none" fill-rule="evenodd"><rect width="42" height="42" fill="#FFF" rx="21"/><g fill="#191970" fill-rule="nonzero" transform="translate(7.5 7.5)"><path d="M10.4166667,7.08333333 C10.6466667,7.08333333 10.8333333,6.89708333 10.8333333,6.66666667 L10.8333333,5.41666667 C10.8333333,3.96708333 10.2704167,2.60625 9.24875,1.58458333 C8.22708333,0.562916667 6.86583333,0 5.41666667,0 C2.43,0 0,2.43 0,5.41666667 L0,6.66666667 C0,6.89708333 0.186666667,7.08333333 0.416666667,7.08333333 L0.833333333,7.08333333 L0.833333333,7.99333333 C0.349583333,8.16583333 0,8.62416667 0,9.16666667 L0,23.75 C0,24.4391667 0.560833333,25 1.25,25 L9.58333333,25 C10.2725,25 10.8333333,24.4391667 10.8333333,23.75 L10.8333333,9.16666667 C10.8333333,8.62416667 10.48375,8.16583333 10,7.99333333 L10,7.08333333 L10.4166667,7.08333333 Z M0.833333333,5.41666667 C0.833333333,2.88958333 2.88958333,0.833333333 5.41666667,0.833333333 C6.64333333,0.833333333 7.795,1.30958333 8.65958333,2.17375 C9.52375,3.03791667 10,4.19 10,5.41666667 L10,6.25 L9.58333333,6.25 L1.25,6.25 L0.833333333,6.25 L0.833333333,5.41666667 Z M9.58333333,24.1666667 L1.25,24.1666667 C1.02041667,24.1666667 0.833333333,23.98 0.833333333,23.75 L0.833333333,11.25 L5.41666667,11.25 C5.64666667,11.25 5.83333333,11.06375 5.83333333,10.8333333 C5.83333333,10.6029167 5.64666667,10.4166667 5.41666667,10.4166667 L0.833333333,10.4166667 L0.833333333,9.16666667 C0.833333333,8.93666667 1.02041667,8.75 1.25,8.75 L9.58333333,8.75 C9.81291667,8.75 10,8.93666667 10,9.16666667 L10,21.6666667 L5.41666667,21.6666667 C5.18666667,21.6666667 5,21.8529167 5,22.0833333 C5,22.31375 5.18666667,22.5 5.41666667,22.5 L10,22.5 L10,23.75 C10,23.98 9.81291667,24.1666667 9.58333333,24.1666667 Z M9.16666667,7.91666667 L1.66666667,7.91666667 L1.66666667,7.08333333 L9.16666667,7.08333333 L9.16666667,7.91666667 Z"/><path d="M5.83333333 19.1666667 3.33333333 19.1666667C3.10333333 19.1666667 2.91666667 19.3529167 2.91666667 19.5833333 2.91666667 19.81375 3.10333333 20 3.33333333 20L5.83333333 20C6.98208333 20 7.91666667 19.0654167 7.91666667 17.9166667 7.91666667 16.7679167 6.98208333 15.8333333 5.83333333 15.8333333L4.79166667 15.8333333C4.2175 15.8333333 3.75 15.36625 3.75 14.7916667 3.75 14.2170833 4.2175 13.75 4.79166667 13.75L7.5 13.75C7.73 13.75 7.91666667 13.56375 7.91666667 13.3333333 7.91666667 13.1029167 7.73 12.9166667 7.5 12.9166667L4.79166667 12.9166667C3.75791667 12.9166667 2.91666667 13.7579167 2.91666667 14.7916667 2.91666667 15.8254167 3.75791667 16.6666667 4.79166667 16.6666667L5.83333333 16.6666667C6.5225 16.6666667 7.08333333 17.2275 7.08333333 17.9166667 7.08333333 18.6058333 6.5225 19.1666667 5.83333333 19.1666667ZM7.08333333 11.25 7.91666667 11.25C8.14666667 11.25 8.33333333 11.06375 8.33333333 10.8333333 8.33333333 10.6029167 8.14666667 10.4166667 7.91666667 10.4166667L7.08333333 10.4166667C6.85333333 10.4166667 6.66666667 10.6029167 6.66666667 10.8333333 6.66666667 11.06375 6.85333333 11.25 7.08333333 11.25ZM3.75 21.6666667 2.91666667 21.6666667C2.68666667 21.6666667 2.5 21.8529167 2.5 22.0833333 2.5 22.31375 2.68666667 22.5 2.91666667 22.5L3.75 22.5C3.98 22.5 4.16666667 22.31375 4.16666667 22.0833333 4.16666667 21.8529167 3.98 21.6666667 3.75 21.6666667Z"/><circle cx="3.75" cy="3.333" r="1"/><circle cx="5.417" cy="4.583" r="1"/><circle cx="5.417" cy="2.083" r="1"/><circle cx="7.083" cy="3.333" r="1"/><g transform="translate(14.167)"><circle cx="3.75" cy="3.333" r="1"/><circle cx="5.417" cy="4.583" r="1"/><circle cx="5.417" cy="2.083" r="1"/><circle cx="7.083" cy="3.333" r="1"/><path d="M10.4166667,7.08333333 C10.6466667,7.08333333 10.8333333,6.89708333 10.8333333,6.66666667 L10.8333333,5.41666667 C10.8333333,3.96708333 10.2704167,2.60625 9.24875,1.58458333 C8.22708333,0.562916667 6.86583333,0 5.41666667,0 C2.43,0 0,2.43 0,5.41666667 L0,6.66666667 C0,6.89708333 0.186666667,7.08333333 0.416666667,7.08333333 L0.833333333,7.08333333 L0.833333333,7.99333333 C0.349583333,8.16583333 0,8.62416667 0,9.16666667 L0,23.75 C0,24.4391667 0.560833333,25 1.25,25 L9.58333333,25 C10.2725,25 10.8333333,24.4391667 10.8333333,23.75 L10.8333333,9.16666667 C10.8333333,8.62416667 10.48375,8.16583333 10,7.99333333 L10,7.08333333 L10.4166667,7.08333333 Z M0.833333333,5.41666667 C0.833333333,2.88958333 2.88958333,0.833333333 5.41666667,0.833333333 C6.64333333,0.833333333 7.795,1.30958333 8.65958333,2.17375 C9.52375,3.03791667 10,4.19 10,5.41666667 L10,6.25 L9.58333333,6.25 L1.25,6.25 L0.833333333,6.25 L0.833333333,5.41666667 Z M9.58333333,24.1666667 L1.25,24.1666667 C1.02041667,24.1666667 0.833333333,23.98 0.833333333,23.75 L0.833333333,11.25 L5.41666667,11.25 C5.64666667,11.25 5.83333333,11.06375 5.83333333,10.8333333 C5.83333333,10.6029167 5.64666667,10.4166667 5.41666667,10.4166667 L0.833333333,10.4166667 L0.833333333,9.16666667 C0.833333333,8.93666667 1.02041667,8.75 1.25,8.75 L9.58333333,8.75 C9.81291667,8.75 10,8.93666667 10,9.16666667 L10,21.6666667 L5.41666667,21.6666667 C5.18666667,21.6666667 5,21.8529167 5,22.0833333 C5,22.31375 5.18666667,22.5 5.41666667,22.5 L10,22.5 L10,23.75 C10,23.98 9.81291667,24.1666667 9.58333333,24.1666667 Z M9.16666667,7.91666667 L1.66666667,7.91666667 L1.66666667,7.08333333 L9.16666667,7.08333333 L9.16666667,7.91666667 Z"/><path d="M7.08333333 11.25 7.91666667 11.25C8.14666667 11.25 8.33333333 11.06375 8.33333333 10.8333333 8.33333333 10.6029167 8.14666667 10.4166667 7.91666667 10.4166667L7.08333333 10.4166667C6.85333333 10.4166667 6.66666667 10.6029167 6.66666667 10.8333333 6.66666667 11.06375 6.85333333 11.25 7.08333333 11.25ZM3.75 21.6666667 2.91666667 21.6666667C2.68666667 21.6666667 2.5 21.8529167 2.5 22.0833333 2.5 22.31375 2.68666667 22.5 2.91666667 22.5L3.75 22.5C3.98 22.5 4.16666667 22.31375 4.16666667 22.0833333 4.16666667 21.8529167 3.98 21.6666667 3.75 21.6666667ZM6.25 16.6666667C7.39875 16.6666667 8.33333333 15.7320833 8.33333333 14.5833333 8.33333333 13.4345833 7.39875 12.5 6.25 12.5L4.58333333 12.5C3.89416667 12.5 3.33333333 13.0608333 3.33333333 13.75L3.33333333 16.25 3.33333333 20C3.33333333 20.2304167 3.52 20.4166667 3.75 20.4166667 3.98 20.4166667 4.16666667 20.2304167 4.16666667 20L4.16666667 16.6666667 6.25 16.6666667ZM4.16666667 13.75C4.16666667 13.52 4.35375 13.3333333 4.58333333 13.3333333L6.25 13.3333333C6.93916667 13.3333333 7.5 13.8941667 7.5 14.5833333 7.5 15.2725 6.93916667 15.8333333 6.25 15.8333333L4.16666667 15.8333333 4.16666667 13.75Z"/></g></g></g></svg>