<svg xmlns="http://www.w3.org/2000/svg" width="42" height="42" viewBox="0 0 42 42"><g fill="none" fill-rule="evenodd"><rect width="42" height="42" fill="#FFF" rx="21"/><g fill-rule="nonzero" transform="translate(8.5 8.5)"><polygon fill="#FFF" points="11.413 24.457 5.978 24.457 6.522 21.196 10.87 21.196"/><polygon fill="#FFF" points="10.326 21.196 7.065 21.196 7.609 16.848 9.783 16.848"/><path fill="#F8F9F9" d="M13.0434783,12.5 L16.3043478,12.5 L16.3043478,17.9347826 L13.0434783,17.9347826 C12.4431688,17.9347826 11.9565217,17.4481356 11.9565217,16.8478261 L11.9565217,13.5869565 C11.9565217,12.986647 12.4431688,12.5 13.0434783,12.5 Z"/><rect width="7.065" height="3.261" x="4.891" y="13.587" fill="#F8F9F9"/><path fill="#F8F9F9" d="M0.543478261,11.9565217 C3.54347826,11.9565217 5.97826087,13.4184783 5.97826087,15.2173913 C5.97826087,17.0163043 3.54347826,18.4782609 0.543478261,18.4782609 L0.543478261,11.9565217 Z"/><path fill="#FFF" d="M13.7601988,10.9308234 L23.9770838,10.9308234 C25.633938,10.9308234 26.9770838,12.2739692 26.9770838,13.9308234 L26.9770838,16.5798287 C26.9770838,18.236683 25.633938,19.5798287 23.9770838,19.5798287 L13.7601988,19.5798287 C12.1033446,19.5798287 10.7601988,18.236683 10.7601988,16.5798287 L10.7601988,13.9308234 C10.7601988,12.2739692 12.1033446,10.9308234 13.7601988,10.9308234 Z" transform="rotate(-80.159 18.869 15.255)"/><path fill="#191970" d="M14.6195652 18.75C14.3194105 18.7935224 14.0408051 18.5854808 13.9972826 18.2853261 13.9537602 17.9851713 14.1618018 17.7065659 14.4619565 17.6630435L15.6304348 17.3152174C15.9169698 17.2307591 16.2179573 17.3933895 16.3043478 17.6793478 16.3465794 17.817723 16.3318951 17.9672257 16.2635476 18.0947398 16.1952001 18.2222538 16.0788311 18.3172535 15.9402174 18.3586957 15.5157913 18.5374727 15.0728755 18.668707 14.6195652 18.75ZM14.2391304 20.8913043C14.0449644 20.9184876 13.8510454 20.8400196 13.730421 20.6854585 13.6097965 20.5308973 13.5807924 20.3237246 13.654334 20.1419802 13.7278757 19.9602358 13.8927904 19.8315311 14.0869565 19.8043478L15.25 19.4619565C15.536535 19.3774982 15.8375226 19.5401286 15.923913 19.826087 15.9661446 19.9644622 15.9514603 20.1139649 15.8831128 20.2414789 15.8147653 20.3689929 15.6983963 20.4639926 15.5597826 20.5054348 15.1341247 20.6794708 14.6915289 20.8087889 14.2391304 20.8913043ZM14.9945652 16.6141304C14.6944105 16.6561521 14.4170217 16.4468939 14.375 16.1467391 14.3329783 15.8465844 14.5422365 15.5691956 14.8423913 15.5271739L16.0054348 15.2173913C16.2919698 15.132933 16.5929573 15.2955634 16.6793478 15.5815217 16.7560608 15.8678164 16.5892357 16.1627826 16.3043478 16.2445652 15.8816722 16.4126093 15.4427397 16.5364575 14.9945652 16.6141304L14.9945652 16.6141304ZM15.375 14.4728261C15.0748452 14.5163485 14.7962398 14.3083069 14.7527174 14.0081522 14.709195 13.7079974 14.9172365 13.429392 15.2173913 13.3858696L16.3858696 13.0434783C16.6860243 12.9579342 16.998695 13.1319105 17.0842391 13.4320652 17.1697832 13.73222 16.9958069 14.0448907 16.6956522 14.1304348 16.2678439 14.2879678 15.8254591 14.4026602 15.375 14.4728261L15.375 14.4728261ZM15.7608696 12.3315217C15.4607148 12.3735434 15.183326 12.1642852 15.1413043 11.8641304 15.0992827 11.5639757 15.3085409 11.2865869 15.6086957 11.2445652L16.7717391 10.8967391C17.0582741 10.8122808 17.3592617 10.9749112 17.4456522 11.2608696 17.4926405 11.4028365 17.4790559 11.5578919 17.4080973 11.6895254 17.3371386 11.8211589 17.2150763 11.9177381 17.0706522 11.9565217 16.6478587 12.1254812 16.2090189 12.2511242 15.7608696 12.3315217L15.7608696 12.3315217ZM16.1304348 10.1902174C15.9362687 10.2183715 15.7418318 10.1408005 15.6203666 9.98672483 15.4989014 9.83264911 15.4688614 9.62547637 15.5415623 9.44324657 15.6142632 9.26101677 15.77866 9.13141495 15.9728261 9.10326087L17.1358696 8.75543478C17.274972 8.7134095 17.4251108 8.7288397 17.5527576 8.79827959 17.6804045 8.86771947 17.7749272 8.98538512 17.8152174 9.125 17.8992607 9.41314857 17.7338007 9.71486971 17.4456522 9.79891304 17.020647 9.97075975 16.5802574 10.1017848 16.1304348 10.1902174ZM22.0923913 20.2608696C21.8532609 20.2608696 21.8369565 20.2065217 20.7934783 19.4293478 20.5794841 19.2428443 20.545065 18.9230664 20.7144692 18.6952961 20.8838734 18.4675258 21.2000339 18.4084915 21.4402174 18.5597826L22.4184783 19.2826087C22.6056219 19.4229664 22.6819551 19.6673291 22.6079801 19.8892542 22.534005 20.1111793 22.3263209 20.2608696 22.0923913 20.2608696ZM21.7391304 22.4021739C21.5 22.4021739 21.4782609 22.3423913 20.4402174 21.5706522 20.2674231 21.4618094 20.1702296 21.2652871 20.1886044 21.0618983 20.2069792 20.8585095 20.3378203 20.6825886 20.527324 20.606477 20.7168277 20.5303653 20.9330034 20.5669114 21.0869565 20.701087L22.0652174 21.423913C22.252361 21.5642708 22.3286942 21.8086335 22.2547192 22.0305586 22.1807442 22.2524836 21.97306 22.4021739 21.7391304 22.4021739L21.7391304 22.4021739ZM22.4728261 18.1195652C22.2336957 18.1195652 22.2119565 18.0597826 21.173913 17.2880435 20.9354332 17.1099641 20.8845538 16.7731908 21.0597826 16.5326087 21.1454535 16.4164521 21.2738103 16.3391441 21.4165459 16.3177338 21.5592815 16.2963234 21.7046715 16.3325694 21.8206522 16.4184783L22.7934783 17.1413043C22.9798454 17.2810558 23.0564259 17.5240356 22.9838701 17.7453923 22.9113143 17.9667491 22.7057591 18.1172511 22.4728261 18.1195652L22.4728261 18.1195652ZM22.826087 15.9782609C22.5923913 15.9782609 22.5652174 15.9184783 21.5271739 15.1521739 21.4110173 15.066503 21.3337093 14.9381462 21.312299 14.7954106 21.2908886 14.652675 21.3271346 14.5072851 21.4130435 14.3913043 21.4987144 14.2751478 21.6270712 14.1978398 21.7698068 14.1764294 21.9125424 14.1550191 22.0579323 14.1912651 22.173913 14.2771739L23.1521739 15C23.3393176 15.1403577 23.4156507 15.3847204 23.3416757 15.6066455 23.2677007 15.8285706 23.0600165 15.9782609 22.826087 15.9782609ZM23.2282609 13.8369565C22.9891304 13.8369565 22.9673913 13.7771739 21.9293478 13.0108696 21.6877232 12.8322775 21.6366253 12.4916246 21.8152174 12.25 21.9938095 12.0083754 22.3344624 11.9572775 22.576087 12.1358696L23.548913 12.8586957C23.7352802 12.9984471 23.8118607 13.2414269 23.7393049 13.4627836 23.666749 13.6841404 23.4611939 13.8346424 23.2282609 13.8369565ZM23.6032609 11.701087C23.3695652 11.701087 23.3695652 11.6413043 22.2826087 10.8695652 22.126305 10.7540364 22.0435083 10.5638963 22.0654074 10.370769 22.0873064 10.1776416 22.2105742 10.0108675 22.3887769 9.93326896 22.5669797 9.8556704 22.7730441 9.8790364 22.9293478 9.99456522L23.9130435 10.7173913C24.1026249 10.8545808 24.1831034 11.097721 24.1128118 11.3209275 24.0425203 11.5441341 23.8372429 11.6972848 23.6032609 11.701087Z"/><path fill="#191970" d="M23.201087 7.125C17.3967391 6.09782609 17.7663043 6.14673913 17.4782609 6.14673913 16.4202744 6.1441048 15.5140217 6.90352161 15.3315217 7.94565217L14.625 11.9565217 13.0434783 11.9565217C12.3542093 11.9584589 11.7406241 12.3936257 11.5108696 13.0434783L5.47282609 13.0434783C4.38586957 12.0543478 2.61413043 11.4130435.543478261 11.4130435.243323506 11.4130435 0 11.656367 0 11.9565217 0 12.2566765.243323506 12.5.543478261 12.5 4.41847826 12.5 7.01630435 15.0543478 4.34782609 16.9021739 3.20718165 17.6091757 1.88505018 17.96804.543478261 17.9347826.243323506 17.9347826 0 18.1781061 0 18.4782609 0 18.7784156.243323506 19.0217391.543478261 19.0217391 2.61413043 19.0217391 4.4076087 18.3804348 5.47282609 17.3913043L6.99456522 17.3913043 6.58695652 20.6521739C6.29557535 20.6164453 6.02848349 20.8185688 5.98369565 21.1086957L5.51630435 23.9130435 4.89130435 23.9130435C4.59114959 23.9130435 4.34782609 24.156367 4.34782609 24.4565217 4.34782609 24.7566765 4.59114959 25 4.89130435 25L12.5 25C12.8001548 25 13.0434783 24.7566765 13.0434783 24.4565217 13.0434783 24.156367 12.8001548 23.9130435 12.5 23.9130435L11.875 23.9130435 11.4130435 21.1086957C11.3699846 20.8429034 11.1388004 20.6487087 10.8695652 20.6521739L10.8043478 20.6521739 10.3967391 17.3913043 11.5108696 17.3913043C11.7406241 18.0411569 12.3542093 18.4763237 13.0434783 18.4782609L13.4728261 18.4782609 13.0434783 20.7880435C12.9424386 21.3567797 13.0719053 21.9423446 13.4032979 22.4154714 13.7346906 22.8885981 14.2407579 23.2103802 14.8097826 23.3097826 20.5923913 24.3315217 20.2445652 24.2880435 20.5380435 24.2880435 21.5939786 24.2880334 22.497199 23.5292366 22.6793478 22.4891304L24.9456522 9.64673913C25.1569737 8.46934364 24.3773683 7.34243745 23.201087 7.125ZM6.61956522 23.9130435 6.98369565 21.7391304 10.4076087 21.7391304 10.7717391 23.9130435 6.61956522 23.9130435ZM9.71195652 20.6521739 7.67934783 20.6521739 8.08695652 17.3913043 9.30434783 17.3913043 9.71195652 20.6521739ZM6.2826087 16.3043478C6.60333728 15.6151992 6.60333728 14.8195834 6.2826087 14.1304348L11.4130435 14.1304348 11.4130435 16.3043478 6.2826087 16.3043478ZM13.0434783 17.3913043C12.7433235 17.3913043 12.5 17.1479808 12.5 16.8478261L12.5 13.5869565C12.5 13.2868018 12.7433235 13.0434783 13.0434783 13.0434783L14.4293478 13.0434783 13.6630435 17.3913043 13.0434783 17.3913043ZM23.9130435 9.45652174 21.6304348 22.2826087C21.5813691 22.5676202 21.4207446 22.8213275 21.1841072 22.9875857 20.9474699 23.1538438 20.6543322 23.2189435 20.3695652 23.1684783L15.0217391 22.2228261C14.4333521 22.1230036 14.035492 21.5674549 14.1304348 20.9782609 15.4184783 13.6684783 14.201087 20.5978261 16.3967391 8.13586957 16.4458048 7.85085807 16.6064293 7.59715071 16.8430667 7.43089259 17.079704 7.26463446 17.3728417 7.19953477 17.6576087 7.25L23.0108696 8.19565217C23.2988716 8.24086244 23.5566412 8.39986861 23.7262823 8.63695734 23.8959233 8.87404607 23.9632151 9.16934241 23.9130435 9.45652174ZM9.82608696 2.38043478C9.88586957 2.52717391 9.82608696 2.42391304 11.5706522 4.19021739 11.7837621 4.40332727 12.1292814 4.40332727 12.3423913 4.19021739 12.5555012 3.97710752 12.5555012 3.63158814 12.3423913 3.41847826L11.6358696 2.7173913 12.4347826 2.7173913C13.4953084 2.72525924 14.4162373 3.4494849 14.673913 4.47826087 14.7459502 4.77841562 15.0476713 4.96334149 15.3478261 4.89130435 15.6479808 4.81926721 15.8329067 4.51754606 15.7608696 4.2173913 15.3803479 2.69192085 14.0069824 1.62374765 12.4347826 1.63043478L11.6358696 1.63043478 12.3423913.929347826C12.5555012.71623795 12.5555012.370718572 12.3423913.157608696 12.1292814-.0555011806 11.7837621-.0555011806 11.5706522.157608696 9.7826087 1.94021739 9.88043478 1.82608696 9.82608696 1.9673913 9.77172934 2.09970726 9.77172934 2.24811883 9.82608696 2.38043478ZM19.0217391 4.34782609C19.3218939 4.34782609 19.5652174 4.10450258 19.5652174 3.80434783L19.5652174 2.7173913C19.5652174 2.41723655 19.3218939 2.17391304 19.0217391 2.17391304 18.7215844 2.17391304 18.4782609 2.41723655 18.4782609 2.7173913L18.4782609 3.80434783C18.4782609 4.10450258 18.7215844 4.34782609 19.0217391 4.34782609Z"/><path fill="#191970" d="M19.5652174 22.826087C19.5652174 22.5259322 19.3218939 22.2826087 19.0217391 22.2826087 18.7215844 22.2826087 18.4782609 22.5259322 18.4782609 22.826087L18.4782609 24.4565217C18.4782609 24.7566765 18.7215844 25 19.0217391 25 19.3218939 25 19.5652174 24.7566765 19.5652174 24.4565217L19.5652174 22.826087ZM19.0217391 19.0217391C18.7215844 19.0217391 18.4782609 19.2650626 18.4782609 19.5652174L18.4782609 20.6521739C18.4782609 20.9523287 18.7215844 21.1956522 19.0217391 21.1956522 19.3218939 21.1956522 19.5652174 20.9523287 19.5652174 20.6521739L19.5652174 19.5652174C19.5652174 19.2650626 19.3218939 19.0217391 19.0217391 19.0217391ZM19.5652174 16.3043478C19.5652174 16.0041931 19.3218939 15.7608696 19.0217391 15.7608696 18.7215844 15.7608696 18.4782609 16.0041931 18.4782609 16.3043478L18.4782609 17.3913043C18.4782609 17.6914591 18.7215844 17.9347826 19.0217391 17.9347826 19.3218939 17.9347826 19.5652174 17.6914591 19.5652174 17.3913043L19.5652174 16.3043478ZM19.5652174 13.0434783C19.5652174 12.7433235 19.3218939 12.5 19.0217391 12.5 18.7215844 12.5 18.4782609 12.7433235 18.4782609 13.0434783L18.4782609 14.1304348C18.4782609 14.4305895 18.7215844 14.673913 19.0217391 14.673913 19.3218939 14.673913 19.5652174 14.4305895 19.5652174 14.1304348L19.5652174 13.0434783ZM19.5652174 9.7826087C19.5652174 9.48245394 19.3218939 9.23913043 19.0217391 9.23913043 18.7215844 9.23913043 18.4782609 9.48245394 18.4782609 9.7826087L18.4782609 10.8695652C18.4782609 11.16972 18.7215844 11.4130435 19.0217391 11.4130435 19.3218939 11.4130435 19.5652174 11.16972 19.5652174 10.8695652L19.5652174 9.7826087ZM19.0217391 8.15217391 19.0217391 8.15217391C19.3218939 8.15217391 19.5652174 7.90885041 19.5652174 7.60869565L19.5652174 5.97826087C19.5652174 5.67810611 19.3218939 5.43478261 19.0217391 5.43478261 18.7215844 5.43478261 18.4782609 5.67810611 18.4782609 5.97826087L18.4782609 7.60869565C18.4782609 7.90885041 18.7215844 8.15217391 19.0217391 8.15217391Z"/></g></g></svg>