<svg xmlns="http://www.w3.org/2000/svg" width="42" height="42" viewBox="0 0 42 42"><g fill="none" fill-rule="evenodd"><rect width="42" height="42" fill="#FFF" rx="21"/><g fill="#191970" fill-rule="nonzero" transform="translate(8.5 8.5)"><path d="M0 23.2758621C.00103330928 24.227634.746620434 24.9989311 1.66666667 25L23.3333333 25C24.1458928 25 24.8399098 24.3935337 24.9761036 23.5648464 25.1122975 22.7361591 24.6509676 21.9266525 23.8841146 21.6487069 24.2268962 21.1200859 24.2600623 20.4390368 23.970372 19.8774546 23.6806816 19.3158723 23.1153214 18.9652311 22.5 18.9655172L22.2760417 18.9655172C22.574538 18.4322817 22.5750152 17.7747293 22.2772929 17.2410308 21.9795707 16.7073323 21.4289841 16.3787555 20.8333333 16.3793103L8.33333333 16.3793103 8.33333333 13.4627694C8.59850646 13.2179378 8.75008855 12.8676851 8.75 12.5L8.75 9.05172414C8.75 7.88496767 9.4821875 7.32219828 10 7.0703125L10 7.32758621C10 7.56563998 10.186548 7.75862069 10.4166667 7.75862069L12.7777604 7.75862069 14.3333333 8.96551724C14.4054567 9.02147506 14.4931791 9.05172414 14.5833333 9.05172414L16.25 9.05172414C16.4801186 9.05172414 16.6666667 8.85874343 16.6666667 8.62068966L16.6666667.862068966C16.6666667.624015194 16.4801186.431034483 16.25.431034483L14.5833333.431034483C14.4931791.431034483 14.4054567.461283565 14.3333333.517241379L12.7777604 1.72413793 10.4166667 1.72413793C10.186548 1.72413793 10 1.91711864 10 2.15517241L10 2.5862069 5.41666667 2.5862069C4.43020882 2.5860934 3.57893411 3.30179887 3.37736453 4.30074119 3.17579496 5.29968351 3.67920773 6.30791883 4.58333333 6.71605603L4.58333333 12.5C4.58324479 12.8676851 4.73482687 13.2179378 5 13.4627694L5 16.3793103 4.16666667 16.3793103C3.57106237 16.3788519 3.02056121 16.7074668 2.72290258 17.2411477 2.42524394 17.7748285 2.4257458 18.4323233 2.72421875 18.9655172L2.5 18.9655172C1.88467856 18.9652311 1.3193184 19.3158723 1.02962805 19.8774546.739937693 20.4390368.773103778 21.1200859 1.11588542 21.6487069.448042396 21.8914676.000830412565 22.5435805 0 23.2758621ZM15 1.29310345 15.8333333 1.29310345 15.8333333 8.18965517 15 8.18965517 15 1.29310345ZM13.3333333 2.37068966 14.1666667 1.72413793 14.1666667 7.75862069 13.3333333 7.11206897 13.3333333 2.37068966ZM10.8333333 2.5862069 12.5 2.5862069 12.5 6.89655172 10.8333333 6.89655172 10.8333333 2.5862069ZM8.17890625 7.75862069 7.5 7.75862069C7.26988135 7.75862069 7.08333333 7.9516014 7.08333333 8.18965517 7.08333333 8.42770894 7.26988135 8.62068966 7.5 8.62068966L7.94270833 8.62068966C7.92526876 8.7636578 7.91657091 8.90762224 7.91666667 9.05172414L7.91666667 9.48275862 7.5 9.48275862C7.26988135 9.48275862 7.08333333 9.67573933 7.08333333 9.9137931 7.08333333 10.1518469 7.26988135 10.3448276 7.5 10.3448276L7.91666667 10.3448276 7.91666667 11.2068966 7.5 11.2068966C7.26988135 11.2068966 7.08333333 11.3998773 7.08333333 11.637931 7.08333333 11.8759848 7.26988135 12.0689655 7.5 12.0689655L7.91666667 12.0689655 7.91666667 12.5C7.91640834 12.737943 7.73001156 12.9307672 7.5 12.9310345L5.83333333 12.9310345C5.60332178 12.9307672 5.41692499 12.737943 5.41666667 12.5L5.41666667 6.89655172 8.78161458 6.89655172C8.52976666 7.14184458 8.32524047 7.43438357 8.17890625 7.75862069L8.17890625 7.75862069ZM7.5 13.7931034 7.5 16.3793103 5.83333333 16.3793103 5.83333333 13.7931034 7.5 13.7931034ZM4.16666667 4.74137931C4.16747029 4.02756263 4.72664387 3.44910719 5.41666667 3.44827586L10 3.44827586 10 6.03448276 5.41666667 6.03448276C4.72664387 6.03365143 4.16747029 5.45519599 4.16666667 4.74137931ZM4.16666667 17.2413793 20.8333333 17.2413793C21.2935706 17.2413793 21.6666667 17.6273407 21.6666667 18.1034483 21.6666667 18.5795558 21.2935706 18.9655172 20.8333333 18.9655172L4.16666667 18.9655172C3.70642938 18.9655172 3.33333333 18.5795558 3.33333333 18.1034483 3.33333333 17.6273407 3.70642938 17.2413793 4.16666667 17.2413793ZM2.5 19.8275862 22.5 19.8275862C22.9602373 19.8275862 23.3333333 20.2135476 23.3333333 20.6896552 23.3333333 21.1657627 22.9602373 21.5517241 22.5 21.5517241L2.5 21.5517241C2.03976271 21.5517241 1.66666667 21.1657627 1.66666667 20.6896552 1.66666667 20.2135476 2.03976271 19.8275862 2.5 19.8275862ZM1.66666667 22.4137931 23.3333333 22.4137931C23.7935706 22.4137931 24.1666667 22.7997545 24.1666667 23.2758621 24.1666667 23.7519696 23.7935706 24.137931 23.3333333 24.137931L1.66666667 24.137931C1.20642938 24.137931.833333333 23.7519696.833333333 23.2758621.833333333 22.7997545 1.20642938 22.4137931 1.66666667 22.4137931ZM24.9967708.377586207C24.983157.264113412 24.9264799.16089942 24.8392334.0906965634 24.7519869.020493707 24.6413339-.0109342879 24.5316667.00334051724L22.0316667.326616379C21.8134434.354884316 21.654034.553737688 21.6675589.780818214 21.6810838 1.00789874 21.8628853 1.18500388 22.0828125 1.18534483 22.1002247 1.18532524 22.117619 1.18419161 22.1348958 1.18195043L24.6348958.858674569C24.7445535.844521383 24.8442848.785884031 24.9121497.695662273 24.9800146.605440515 25.0104537.491024985 24.9967708.377586207L24.9967708.377586207ZM20.8301042.91637931C20.8015625.680174527 20.5933331.512622895 20.365.542133621L17.865.865409483C17.6467767.893677419 17.4873673 1.09253079 17.5008922 1.31961132 17.5144171 1.54669184 17.6962186 1.72379699 17.9161458 1.72413793 17.933558 1.72411834 17.9509523 1.72298471 17.9682292 1.72074353L20.4682292 1.39746767C20.5778868 1.38331449 20.6776182 1.32467713 20.745483 1.23445538 20.8133479 1.14423362 20.8437871 1.02981809 20.8301042.91637931L20.8301042.91637931ZM21.6698958 8.675C21.6413688 8.91120667 21.8033354 9.12661641 22.0316667 9.15614224L24.5316667 9.4794181C24.5489434 9.48166037 24.5663378 9.48279401 24.58375 9.4828125 24.8038378 9.4826977 24.9858841 9.30552998 24.999418 9.0782838 25.0129519 8.85103762 24.8533055 8.65209233 24.6348958 8.62403017L22.1348958 8.30075431C21.9066007 8.27130799 21.6984389 8.43884274 21.6698958 8.675Z"/><path d="M17.865 8.61734914 20.365 8.940625C20.3822768 8.94286727 20.3996711 8.94400091 20.4170833 8.9440194 20.6371711 8.94390459 20.8192174 8.76673687 20.8327514 8.5394907 20.8462853 8.31224452 20.6866388 8.11329923 20.4682292 8.08523707L17.9682292 7.76196121C17.740957 7.73448744 17.5347922 7.90175067 17.5064178 8.13663258 17.4780434 8.37151449 17.6380775 8.5861191 17.8648958 8.61734914L17.865 8.61734914ZM19.1666667 2.5862069 18.3333333 2.5862069C18.1032147 2.5862069 17.9166667 2.77918761 17.9166667 3.01724138 17.9166667 3.25529515 18.1032147 3.44827586 18.3333333 3.44827586L19.1666667 3.44827586C19.3967853 3.44827586 19.5833333 3.25529515 19.5833333 3.01724138 19.5833333 2.77918761 19.3967853 2.5862069 19.1666667 2.5862069ZM21.25 2.5862069 20.8333333 2.5862069C20.6032147 2.5862069 20.4166667 2.77918761 20.4166667 3.01724138 20.4166667 3.25529515 20.6032147 3.44827586 20.8333333 3.44827586L21.25 3.44827586C21.4801186 3.44827586 21.6666667 3.25529515 21.6666667 3.01724138 21.6666667 2.77918761 21.4801186 2.5862069 21.25 2.5862069ZM21.25 4.31034483 20.8333333 4.31034483C20.6032147 4.31034483 20.4166667 4.50332554 20.4166667 4.74137931 20.4166667 4.97943308 20.6032147 5.17241379 20.8333333 5.17241379L21.25 5.17241379C21.4801186 5.17241379 21.6666667 4.97943308 21.6666667 4.74137931 21.6666667 4.50332554 21.4801186 4.31034483 21.25 4.31034483ZM21.25 6.89655172C21.4801186 6.89655172 21.6666667 6.70357101 21.6666667 6.46551724 21.6666667 6.22746347 21.4801186 6.03448276 21.25 6.03448276L20.8333333 6.03448276C20.6032147 6.03448276 20.4166667 6.22746347 20.4166667 6.46551724 20.4166667 6.70357101 20.6032147 6.89655172 20.8333333 6.89655172L21.25 6.89655172ZM19.1666667 4.31034483 18.3333333 4.31034483C18.1032147 4.31034483 17.9166667 4.50332554 17.9166667 4.74137931 17.9166667 4.97943308 18.1032147 5.17241379 18.3333333 5.17241379L19.1666667 5.17241379C19.3967853 5.17241379 19.5833333 4.97943308 19.5833333 4.74137931 19.5833333 4.50332554 19.3967853 4.31034483 19.1666667 4.31034483ZM19.1666667 6.03448276 18.3333333 6.03448276C18.1032147 6.03448276 17.9166667 6.22746347 17.9166667 6.46551724 17.9166667 6.70357101 18.1032147 6.89655172 18.3333333 6.89655172L19.1666667 6.89655172C19.3967853 6.89655172 19.5833333 6.70357101 19.5833333 6.46551724 19.5833333 6.22746347 19.3967853 6.03448276 19.1666667 6.03448276Z"/><circle cx="22.917" cy="3.017" r="1"/><circle cx="22.917" cy="4.741" r="1"/><circle cx="22.917" cy="6.466" r="1"/><circle cx="24.583" cy="3.017" r="1"/><circle cx="24.583" cy="4.741" r="1"/><circle cx="24.583" cy="6.466" r="1"/></g></g></svg>