<svg xmlns="http://www.w3.org/2000/svg" width="42" height="42" viewBox="0 0 42 42"><g fill="none" fill-rule="evenodd"><rect width="42" height="42" fill="#FFF" rx="21"/><path fill="#191970" fill-rule="nonzero" d="M10.9457547,9.50235849 L10.9457547,10.2099057 L9.15330189,10.2099057 L9.15330189,9.50235849 L10.9457547,9.50235849 Z M5.53301887,23.0778302 L5.53301887,23.0778302 C5.07910839,22.623786 5.00960101,21.9121503 5.36707547,21.378856 C5.72454994,20.8455617 6.40922569,20.6394652 7.00168493,20.886817 C7.59414417,21.1341687 7.9290159,21.7659262 7.80116481,22.3950883 C7.67331372,23.0242504 7.11842643,23.4752013 6.47641509,23.4717184 C6.12230008,23.4700217 5.78320089,23.3284478 5.53301887,23.0778302 Z M6.93396226,22.5778302 C7.52830189,21.9834906 6.62735849,21.0825472 6.03301887,21.6768868 C5.43867925,22.2712264 6.33726415,23.1745283 6.93396226,22.5778302 L6.93396226,22.5778302 Z M6.48349057,18.2688679 C6.28159402,18.2688679 6.11792453,18.4325374 6.11792453,18.634434 C6.11792453,18.8363305 6.28159402,19 6.48349057,19 C6.68538711,19 6.8490566,18.8363305 6.8490566,18.634434 C6.8490566,18.4325374 6.68538711,18.2688679 6.48349057,18.2688679 Z M13.8561321,15.8018868 L13.7476415,15.0943396 C17.7570755,14.4646226 19.0448113,9.63915094 16.3419811,6.93396226 C14.5306196,5.1238294 11.6284671,5.02087968 9.69339623,6.69811321 L10.0165094,7.02122642 C12.8726415,4.5754717 17.3113208,6.61556604 17.3113208,10.3773585 C17.3492497,12.4385183 15.9009383,14.2290132 13.8773585,14.6226415 L13.7264151,13.9316038 C14.2696682,13.8023607 14.7819036,13.5666843 15.2334906,13.2382075 L13.625,11.6273585 L11.9882075,24.9504717 L3.93396226,24.9504717 L1.95754717,9.50235849 L6.50471698,9.50235849 C5.76179245,2.37264151 5.87264151,2.63207547 5.64150943,2.47641509 C5.41037736,2.32075472 5.55896226,2.35849057 0.606132075,4.05660377 L0,2.26886792 L5.73349057,0.299528302 C6.14362213,0.168020531 6.59132064,0.230453921 6.94982559,0.469151199 C7.30833054,0.707848476 7.53861317,1.09682379 7.5754717,1.5259434 L8.96226415,14.9764151 C9.84801602,14.9465734 10.7262685,14.8031043 11.5754717,14.5495283 L11.7783019,15.2264151 C10.8872246,15.494832 9.96539048,15.6478105 9.03537736,15.6816038 L9.50707547,20.3396226 L8.7995283,20.4103774 C6.72169811,0.139150943 6.95990566,1.33726415 6.55660377,1.06603774 C6.15330189,0.794811321 6.35849057,0.830188679 0.896226415,2.71698113 L1.04716981,3.16273585 C5.38443396,1.6509434 5.45754717,1.49292453 6.04009434,1.88679245 C6.62264151,2.28066038 6.35141509,1.20754717 8.34433962,20.3325472 L7.63679245,20.4056604 L7.13443396,15.5660377 C5.5754717,15.2193396 5.12971698,14.4245283 3.28537736,14.3136792 L4.55896226,24.254717 L11.3632075,24.254717 L12.990566,11.004717 L12.9316038,10.9457547 L13.1816038,10.6957547 C13.2903001,10.5874797 13.3329757,10.4294405 13.2935549,10.2811692 C13.2541341,10.1328978 13.138606,10.0169202 12.9904889,9.9769239 C12.8423717,9.93692762 12.6841681,9.97898908 12.5754717,10.0872642 L12.3231132,10.3396226 L10.004717,8.01886792 L10.004717,8.01886792 L8.68160377,6.69575472 C11.3207547,4.04481132 14.7759434,4.37028302 16.8396226,6.43396226 C19.9339623,9.52830189 18.4693396,15.0707547 13.8561321,15.8018868 Z M2.77122642,10.2169811 L3.20283019,13.5966981 C5.2004717,13.6816038 5.79716981,14.4575472 7.06603774,14.8136792 L6.59433962,10.2169811 L2.77122642,10.2169811 Z M12.6391509,9.27358491 L12.6391509,6.67924528 C11.8650681,6.72973627 11.1265333,7.02267467 10.5283019,7.51650943 L12.3726415,9.36320755 C12.4545859,9.3235086 12.5408525,9.29343401 12.629717,9.27358491 L12.6391509,9.27358491 Z M16.6014151,10.625 L14.0070755,10.625 C13.9871039,10.7179304 13.9562298,10.8081778 13.9150943,10.8938679 L15.7759434,12.7570755 C16.2678566,12.1512994 16.5537237,11.4044098 16.5919811,10.625 L16.6014151,10.625 Z M13.3372642,6.7004717 L13.3372642,9.34198113 C13.5958669,9.45361034 13.8024084,9.65930877 13.9150943,9.91745283 L16.5707547,9.91745283 C16.3620975,8.22857723 15.0271857,6.90048121 13.3372642,6.7004717 L13.3372642,6.7004717 Z M4.76179245,16.8608491 C4.76179245,17.0627456 4.92546194,17.2264151 5.12735849,17.2264151 C5.32925504,17.2264151 5.49292453,17.0627456 5.49292453,16.8608491 C5.49292453,16.6589525 5.32925504,16.495283 5.12735849,16.495283 C4.92546194,16.495283 4.76179245,16.6589525 4.76179245,16.8608491 Z" transform="translate(11.698 9)"/></g></svg>