<svg xmlns="http://www.w3.org/2000/svg" width="42" height="42" viewBox="0 0 42 42"><g fill="none" fill-rule="evenodd"><rect width="42" height="42" fill="#FFF" rx="21"/><g fill="#191970" fill-rule="nonzero" transform="translate(9.36 8.5)"><path d="M15.5172414 2.5862069C13.1367037 2.5862069 11.2068966 4.51601401 11.2068966 6.89655172 11.2068966 9.27708944 13.1367037 11.2068966 15.5172414 11.2068966 17.8977791 11.2068966 19.8275862 9.27708944 19.8275862 6.89655172 19.8275862 4.51601401 17.8977791 2.5862069 15.5172414 2.5862069L15.5172414 2.5862069ZM15.5172414 10.3448276C13.6128112 10.3448276 12.0689655 8.8009819 12.0689655 6.89655172 12.0689655 4.99212155 13.6128112 3.44827586 15.5172414 3.44827586 17.4216716 3.44827586 18.9655172 4.99212155 18.9655172 6.89655172 18.9655172 8.8009819 17.4216716 10.3448276 15.5172414 10.3448276ZM8.18965517 5.17241379 5.60344828 5.17241379C5.3653945 5.17241379 5.17241379 5.3653945 5.17241379 5.60344828 5.17241379 5.84150205 5.3653945 6.03448276 5.60344828 6.03448276L8.18965517 6.03448276C8.42770894 6.03448276 8.62068966 5.84150205 8.62068966 5.60344828 8.62068966 5.3653945 8.42770894 5.17241379 8.18965517 5.17241379ZM8.18965517 7.75862069 5.60344828 7.75862069C5.3653945 7.75862069 5.17241379 7.9516014 5.17241379 8.18965517 5.17241379 8.42770894 5.3653945 8.62068966 5.60344828 8.62068966L8.18965517 8.62068966C8.42770894 8.62068966 8.62068966 8.42770894 8.62068966 8.18965517 8.62068966 7.9516014 8.42770894 7.75862069 8.18965517 7.75862069Z"/><path d="M15.4655172,3.55276789e-15 L15.4655172,3.55276789e-15 L3.06034483,1.72413793 L0.568965517,0.862068966 C0.439158639,0.813205476 0.293503962,0.832626099 0.181034483,0.913793103 C0.0689499446,0.99699632 0.00202220129,1.12766477 -3.06268421e-15,1.26724138 L-3.06268421e-15,12.4741379 C0.00202220129,12.6137145 0.0689499446,12.744383 0.181034483,12.8275862 C0.29461355,12.905922 0.438829627,12.9251508 0.568965517,12.8793103 L3.06034483,12.0172414 L11.2068966,13.1982759 L11.2068966,15.0862069 C11.2068966,15.8003682 11.7858387,16.3793103 12.5,16.3793103 L13.7931034,16.3793103 L13.7931034,17.6637931 C13.7907635,18.0310561 13.58026,18.3651887 13.25,18.5258621 C12.38962,18.9714516 12.0147338,20.0023887 12.387931,20.8965517 C12.6817632,21.5989032 13.1766298,22.1987415 13.8103448,22.6206897 L13.8103448,24.5689655 C13.8103448,24.8070193 14.0033255,25 14.2413793,25 L16.8275862,25 C16.9419037,25 17.051539,24.9545876 17.1323736,24.8737529 C17.2132083,24.7929183 17.2586207,24.683283 17.2586207,24.5689655 L17.2586207,23.0344828 C18.8034742,22.4910404 19.8391475,21.0341932 19.8448276,19.3965517 L19.8448276,12.2758621 C22.1373411,10.43688 23.0125668,7.34709703 22.0250735,4.57900564 C21.0375802,1.81091425 18.4043486,-0.0272561699 15.4655172,3.55276789e-15 Z M2.5862069,11.3275862 L0.862068966,11.9051724 L0.862068966,1.88793103 L2.5862069,2.46551724 L2.5862069,11.3275862 Z M12.5,15.5172414 C12.2619462,15.5172414 12.0689655,15.3242607 12.0689655,15.0862069 L12.0689655,13.3189655 L13.7931034,13.5517241 L13.7931034,15.5172414 L12.5,15.5172414 Z M16.3793103,24.137931 L14.6551724,24.137931 L14.6551724,23.0431034 C15.0695234,23.1948108 15.5070315,23.2735623 15.9482759,23.2758621 C16.0918283,23.2843611 16.2357579,23.2843611 16.3793103,23.2758621 L16.3793103,24.137931 Z M18.9655354,19.3965517 C18.9704751,20.8364428 17.9573081,22.0791902 16.5459379,22.3644002 C15.1345676,22.6496103 13.7183391,21.8977957 13.1637931,20.5689655 C12.9650522,20.0900389 13.1725955,19.5391056 13.637931,19.3103448 C14.263654,19.0008202 14.6583923,18.3618793 14.6551724,17.6637931 L14.6551724,17.2413793 L15.0862069,17.2413793 C15.5985424,17.246407 16.0648646,16.9464784 16.27278,16.4782005 C16.4806953,16.0099227 16.3904327,15.4628704 16.0431034,15.0862069 C16.2583771,14.8505967 16.3782294,14.5432833 16.3793103,14.2241379 C16.3772556,14.0623866 16.3481167,13.9021225 16.2931034,13.75 C17.2336011,13.6489545 18.1432583,13.3555167 18.9655354,12.887931 L18.9655354,19.3965517 Z M15.0862069,15.5172414 C15.3242607,15.5172414 15.5172414,15.7102221 15.5172414,15.9482759 C15.5172414,16.1863296 15.3242607,16.3793103 15.0862069,16.3793103 L14.6551724,16.3793103 L14.6551724,15.5172414 L15.0862069,15.5172414 Z M14.6551724,14.6551724 L14.6551724,13.6724138 L15.0862069,13.7327586 C15.3337884,13.763388 15.5191288,13.9746761 15.5172414,14.2241379 C15.5172414,14.4621917 15.3242607,14.6551724 15.0862069,14.6551724 L14.6551724,14.6551724 Z M15.5775862,12.9310345 L3.44827586,11.2586207 L3.44827586,2.53448276 L15.5172414,0.861991911 C18.8499942,0.845405202 21.5652328,3.53362651 21.5819736,6.86637931 C21.5985603,10.1991321 18.910339,12.9143707 15.5775862,12.9310345 L15.5775862,12.9310345 Z"/></g></g></svg>