<svg xmlns="http://www.w3.org/2000/svg" width="42" height="42" viewBox="0 0 42 42"><g fill="none" fill-rule="evenodd"><rect width="42" height="42" fill="#FFF" rx="21"/><g fill="#191970" fill-rule="nonzero" transform="translate(8.5 8.5)"><polygon points="3.226 16.129 4.032 16.129 4.032 17.742 3.226 17.742"/><polygon points="12.097 18.548 12.903 18.548 12.903 20.161 12.097 20.161"/><path d="M24.8818548,10.1987903 L22.983871,8.30080645 L22.983871,6.0483871 C22.983871,5.82540323 22.803629,5.64516129 22.5806452,5.64516129 L21.7741935,5.64516129 L21.7741935,3.64758065 C22.2290323,3.28709677 22.6685484,2.9016129 23.0850806,2.48508065 L24.8818548,0.688306452 L24.3116935,0.118145161 L22.5149194,1.91491935 C19.8495968,4.58024194 16.3052419,6.0483871 12.5354839,6.0483871 L12.4645161,6.0483871 C8.69475806,6.0483871 5.15040323,4.58024194 2.48508065,1.91491935 L0.688306452,0.118145161 L0.118145161,0.688306452 L1.91491935,2.48508065 C2.33145161,2.9016129 2.77096774,3.28709677 3.22580645,3.64758065 L3.22580645,5.64516129 L2.41935484,5.64516129 C2.19637097,5.64516129 2.01612903,5.82540323 2.01612903,6.0483871 L2.01612903,8.30080645 L0.118145161,10.1987903 C0.0423387097,10.2741935 -1.43254584e-15,10.3766129 -1.43254584e-15,10.483871 L-1.43254584e-15,13.6189516 C-1.43254584e-15,16.628629 1.03548387,19.5806452 2.91572581,21.9314516 L3.3141129,22.4290323 C3.39072581,22.525 3.50645161,22.5806452 3.62903226,22.5806452 C3.7516129,22.5806452 3.86733871,22.525 3.94354839,22.4294355 L4.34233871,21.9318548 C6.22258065,19.5810484 7.25806452,16.628629 7.25806452,13.6189516 L7.25806452,10.483871 C7.25806452,10.3766129 7.21572581,10.2741935 7.13991935,10.1987903 L5.24193548,8.30080645 L5.24193548,6.0483871 C5.24193548,5.82540323 5.06169355,5.64516129 4.83870968,5.64516129 L4.03225806,5.64516129 L4.03225806,4.24435484 C6.39677419,5.87137097 9.17580645,6.77580645 12.0967742,6.84596774 L12.0967742,8.06451613 L11.2903226,8.06451613 C11.0673387,8.06451613 10.8870968,8.24475806 10.8870968,8.46774194 L10.8870968,10.7201613 L8.9891129,12.6181452 C8.91330645,12.6935484 8.87096774,12.7959677 8.87096774,12.9032258 L8.87096774,16.0383065 C8.87096774,19.0479839 9.90645161,22 11.7866935,24.3508065 L12.1850806,24.8483871 C12.2616935,24.9443548 12.3774194,25 12.5,25 C12.6225806,25 12.7383065,24.9443548 12.8145161,24.8487903 L13.2133065,24.3512097 C15.0935484,22.0004032 16.1290323,19.0479839 16.1290323,16.0383065 L16.1290323,12.9032258 C16.1290323,12.7959677 16.0866935,12.6935484 16.0108871,12.6181452 L14.1129032,10.7201613 L14.1129032,8.46774194 C14.1129032,8.24475806 13.9326613,8.06451613 13.7096774,8.06451613 L12.9032258,8.06451613 L12.9032258,6.84596774 C15.8241935,6.77580645 18.6032258,5.87137097 20.9677419,4.24435484 L20.9677419,5.64516129 L20.1612903,5.64516129 C19.9383065,5.64516129 19.7580645,5.82540323 19.7580645,6.0483871 L19.7580645,8.30080645 L17.8600806,10.1987903 C17.7842742,10.2741935 17.7419355,10.3766129 17.7419355,10.483871 L17.7419355,13.6189516 C17.7419355,16.628629 18.7774194,19.5806452 20.6576613,21.9314516 L21.0560484,22.4290323 C21.1326613,22.525 21.2483871,22.5806452 21.3709677,22.5806452 C21.4935484,22.5806452 21.6092742,22.525 21.6854839,22.4294355 L22.0842742,21.9318548 C23.9645161,19.5810484 25,16.628629 25,13.6189516 L25,10.483871 C25,10.3766129 24.9576613,10.2741935 24.8818548,10.1987903 Z M6.4516129,13.6189516 C6.4516129,16.446371 5.47903226,19.2197581 3.71290323,21.4274194 L3.62903226,21.5322581 L3.54556452,21.4274194 C1.77903226,19.2197581 0.806451613,16.446371 0.806451613,13.6189516 L0.806451613,10.6508065 L2.58629032,8.87096774 L3.22580645,8.87096774 L3.22580645,12.1540323 C2.53185484,12.3342742 2.01612903,12.9600806 2.01612903,13.7096774 C2.01612903,14.5991935 2.73951613,15.3225806 3.62903226,15.3225806 C4.51854839,15.3225806 5.24193548,14.5991935 5.24193548,13.7096774 C5.24193548,12.9600806 4.72620968,12.3342742 4.03225806,12.1540323 L4.03225806,8.87096774 L4.67177419,8.87096774 L6.4516129,10.6508065 L6.4516129,13.6189516 Z M3.62903226,12.9032258 C4.07379032,12.9032258 4.43548387,13.2649194 4.43548387,13.7096774 C4.43548387,14.1544355 4.07379032,14.516129 3.62903226,14.516129 C3.18427419,14.516129 2.82258065,14.1544355 2.82258065,13.7096774 C2.82258065,13.2649194 3.18427419,12.9032258 3.62903226,12.9032258 Z M4.43548387,8.06451613 L2.82258065,8.06451613 L2.82258065,6.4516129 L4.43548387,6.4516129 L4.43548387,8.06451613 Z M15.3225806,16.0383065 C15.3225806,18.8657258 14.35,21.6391129 12.583871,23.8467742 L12.5,23.9516129 L12.4165323,23.8467742 C10.65,21.6391129 9.67741935,18.8657258 9.67741935,16.0383065 L9.67741935,13.0701613 L11.4572581,11.2903226 L12.0967742,11.2903226 L12.0967742,14.5733871 C11.4028226,14.753629 10.8870968,15.3794355 10.8870968,16.1290323 C10.8870968,17.0185484 11.6104839,17.7419355 12.5,17.7419355 C13.3895161,17.7419355 14.1129032,17.0185484 14.1129032,16.1290323 C14.1129032,15.3794355 13.5971774,14.753629 12.9032258,14.5733871 L12.9032258,11.2903226 L13.5427419,11.2903226 L15.3225806,13.0701613 L15.3225806,16.0383065 Z M12.5,15.3225806 C12.9447581,15.3225806 13.3064516,15.6842742 13.3064516,16.1290323 C13.3064516,16.5737903 12.9447581,16.9354839 12.5,16.9354839 C12.0552419,16.9354839 11.6935484,16.5737903 11.6935484,16.1290323 C11.6935484,15.6842742 12.0552419,15.3225806 12.5,15.3225806 Z M13.3064516,10.483871 L11.6935484,10.483871 L11.6935484,8.87096774 L13.3064516,8.87096774 L13.3064516,10.483871 Z M20.5645161,6.4516129 L22.1774194,6.4516129 L22.1774194,8.06451613 L20.5645161,8.06451613 L20.5645161,6.4516129 Z M21.3709677,12.9032258 C21.8157258,12.9032258 22.1774194,13.2649194 22.1774194,13.7096774 C22.1774194,14.1544355 21.8157258,14.516129 21.3709677,14.516129 C20.9262097,14.516129 20.5645161,14.1544355 20.5645161,13.7096774 C20.5645161,13.2649194 20.9262097,12.9032258 21.3709677,12.9032258 Z M24.1935484,13.6189516 C24.1935484,16.446371 23.2209677,19.2197581 21.4548387,21.4274194 L21.3709677,21.5322581 L21.2875,21.4274194 C19.5209677,19.2197581 18.5483871,16.446371 18.5483871,13.6189516 L18.5483871,10.6508065 L20.3282258,8.87096774 L20.9677419,8.87096774 L20.9677419,12.1540323 C20.2737903,12.3342742 19.7580645,12.9600806 19.7580645,13.7096774 C19.7580645,14.5991935 20.4814516,15.3225806 21.3709677,15.3225806 C22.2604839,15.3225806 22.983871,14.5991935 22.983871,13.7096774 C22.983871,12.9600806 22.4681452,12.3342742 21.7741935,12.1540323 L21.7741935,8.87096774 L22.4137097,8.87096774 L24.1935484,10.6508065 L24.1935484,13.6189516 Z"/><polygon points="20.968 16.129 21.774 16.129 21.774 17.742 20.968 17.742"/><polygon points="12.097 0 12.903 0 12.903 .806 12.097 .806"/><polygon points="12.097 1.613 12.903 1.613 12.903 2.419 12.097 2.419"/><polygon points="12.903 .806 13.71 .806 13.71 1.613 12.903 1.613"/><polygon points="11.29 .806 12.097 .806 12.097 1.613 11.29 1.613"/><polygon points="8.065 1.613 8.871 1.613 8.871 2.419 8.065 2.419"/><polygon points="8.065 3.226 8.871 3.226 8.871 4.032 8.065 4.032"/><polygon points="8.871 2.419 9.677 2.419 9.677 3.226 8.871 3.226"/><polygon points="7.258 2.419 8.065 2.419 8.065 3.226 7.258 3.226"/><polygon points="16.129 1.613 16.935 1.613 16.935 2.419 16.129 2.419"/><polygon points="16.129 3.226 16.935 3.226 16.935 4.032 16.129 4.032"/><polygon points="16.935 2.419 17.742 2.419 17.742 3.226 16.935 3.226"/><polygon points="15.323 2.419 16.129 2.419 16.129 3.226 15.323 3.226"/></g></g></svg>