<svg xmlns="http://www.w3.org/2000/svg" width="42" height="42" viewBox="0 0 42 42"><g fill="none" fill-rule="evenodd"><rect width="42" height="42" fill="#FFF" rx="21"/><g fill-rule="nonzero" transform="translate(8.5 8.5)"><rect width="4.348" height="8.152" x="10.326" y="16.304" fill="#F8F9F9"/><rect width="23.913" height="2.174" x=".543" y="11.413" fill="#FFF"/><path fill="#FFF" d="M16.0543478,16.3043478 L8.94565217,16.3043478 C8.16908731,16.3039825 7.50055044,15.7559642 7.34782609,14.9945652 L7.06521739,13.5869565 L17.9347826,13.5869565 L17.6521739,14.9945652 C17.4994496,15.7559642 16.8309127,16.3039825 16.0543478,16.3043478 L16.0543478,16.3043478 Z"/><path fill="#F8F9F9" d="M10.076087,0.543478261 L17.5326087,0.543478261 C18.116604,0.544222954 18.6556014,0.85725603 18.9456522,1.36413043 L20.6521739,4.34782609 L23.0543478,4.69021739 C23.8647004,4.80475475 24.4645762,5.50228474 24.4566019,6.32065217 L24.4566019,9.23913043 L0.543464607,9.23913043 L0.543464607,6.38043478 C0.540045032,5.53429588 1.18446127,4.82614616 2.02717391,4.75 L6.52173913,4.34782609 L8.75,1.22826087 C9.05547843,0.799212087 9.54939969,0.544154384 10.076087,0.543478261 Z"/><path fill="#191970" d="M1.63043478 7.60869565.543478261 7.60869565C.243323506 7.60869565 0 7.36537215 0 7.06521739 0 6.76506264.243323506 6.52173913.543478261 6.52173913L1.63043478 6.52173913C1.93058954 6.52173913 2.17391304 6.76506264 2.17391304 7.06521739 2.17391304 7.36537215 1.93058954 7.60869565 1.63043478 7.60869565ZM24.4565217 7.60869565 23.3695652 7.60869565C23.0694105 7.60869565 22.826087 7.36537215 22.826087 7.06521739 22.826087 6.76506264 23.0694105 6.52173913 23.3695652 6.52173913L24.4565217 6.52173913C24.7566765 6.52173913 25 6.76506264 25 7.06521739 25 7.36537215 24.7566765 7.60869565 24.4565217 7.60869565Z"/><polygon fill="#191970" points="19.087 4.891 8.136 4.891 10.076 2.174 17.533 2.174"/><rect width="1.087" height="2.717" x="13.043" y="2.174" fill="#F8F9F9"/><circle cx="4.891" cy="9.239" r="2.174" fill="#FFF"/><circle cx="20.109" cy="9.239" r="2.174" fill="#FFF"/><circle cx="4.891" cy="9.239" r="1" fill="#191970"/><circle cx="20.109" cy="9.239" r="1" fill="#191970"/><path fill="#191970" d="M12.5,7.06521739 L11.4130435,7.06521739 C11.1128887,7.06521739 10.8695652,6.82189389 10.8695652,6.52173913 C10.8695652,6.22158438 11.1128887,5.97826087 11.4130435,5.97826087 L12.5,5.97826087 C12.8001548,5.97826087 13.0434783,6.22158438 13.0434783,6.52173913 C13.0434783,6.82189389 12.8001548,7.06521739 12.5,7.06521739 Z"/><path fill="#191970" d="M25.0001147,9.23913043 L25.0001147,6.30434783 C25.0111096,5.21498638 24.2141781,4.28562021 23.1358696,4.13043478 L20.9945652,3.82608696 L19.4184783,1.08695652 C19.029574,0.413352647 18.310418,-0.00114646815 17.5326087,-2.37212365e-06 L10.076087,-2.37212365e-06 C9.37546312,-2.37212365e-06 8.71789598,0.338120075 8.30978261,0.907608696 L6.22282609,3.83152174 L1.97826087,4.2173913 C0.854644013,4.31891952 -0.00457763879,5.26311914 -1.82053035e-05,6.39130435 L-1.82053035e-05,9.23913043 C-1.82053035e-05,9.53928519 0.243323506,9.7826087 0.543478261,9.7826087 L0.543478261,10.8695652 C0.243323506,10.8695652 -1.82053035e-05,11.1128887 -1.82053035e-05,11.4130435 L-1.82053035e-05,13.5869565 C-1.82053035e-05,13.8871113 0.243323506,14.1304348 0.543478261,14.1304348 L6.61956522,14.1304348 L6.81521739,15.0978261 C7.01734177,16.114465 7.90911552,16.8469934 8.94565217,16.8478261 L9.7826087,16.8478261 L9.7826087,24.4565217 C9.7826087,24.7566765 10.0259322,24.9999976 10.326087,24.9999976 C10.6262417,24.9999976 10.8695652,24.7566765 10.8695652,24.4565217 L10.8695652,16.8478261 L14.1304348,16.8478261 L14.1304348,24.4565217 C14.1304348,24.7566765 14.3737583,24.9999976 14.673913,24.9999976 C14.9740678,24.9999976 15.2173913,24.7566765 15.2173913,24.4565217 L15.2173913,16.8478261 L16.0543478,16.8478261 C17.0908845,16.8469934 17.9826582,16.114465 18.1847826,15.0978261 L18.3804348,14.1304348 L24.4565217,14.1304348 C24.7566765,14.1304348 25.0001147,13.8871113 25.0001147,13.5869565 L25.0001147,11.4130435 C25.0001147,11.1128887 24.7566765,10.8695652 24.4565217,10.8695652 L24.4565217,9.7826087 C24.7566765,9.7826087 25.0001147,9.53928519 25.0001147,9.23913043 Z M1.08694742,6.38043478 C1.0846677,5.81634218 1.51427853,5.34424237 2.07608696,5.29347826 L6.57065217,4.89130435 C6.72809248,4.87579673 6.87096114,4.79245668 6.96195652,4.66304348 L9.19565217,1.54347826 C9.39856069,1.25848307 9.72624198,1.08857425 10.076087,1.08694792 L17.5326087,1.08694792 C17.9224834,1.08540869 18.283325,1.29278892 18.4782609,1.63043478 L20.1793478,4.61956522 C20.2633857,4.76482619 20.4098179,4.86311625 20.576087,4.88586957 L22.9782609,5.22826087 C23.5184959,5.30461911 23.9184131,5.7696391 23.9130969,6.31521739 L23.9130969,8.69565217 L22.7717391,8.69565217 C22.5145693,7.42917175 21.4010226,6.51901491 20.1086957,6.51901491 C18.8163687,6.51901491 17.702822,7.42917175 17.4456522,8.69565217 L7.55434783,8.69565217 C7.29717801,7.42917175 6.18363131,6.51901491 4.89130435,6.51901491 C3.59897739,6.51901491 2.48543069,7.42917175 2.22826087,8.69565217 L1.08694742,8.69565217 L1.08694742,6.38043478 Z M21.7391304,9.23913043 C21.7391304,10.1395947 21.0091599,10.8695652 20.1086957,10.8695652 C19.2082314,10.8695652 18.4782609,10.1395947 18.4782609,9.23913043 C18.4782609,8.33866617 19.2082314,7.60869565 20.1086957,7.60869565 C21.0091599,7.60869565 21.7391304,8.33866617 21.7391304,9.23913043 Z M3.35869565,9.7826087 C3.22836862,9.4320096 3.22836862,9.04625127 3.35869565,8.69565217 C3.59273103,8.05084052 4.20533451,7.62148007 4.89130435,7.62148007 C5.57727419,7.62148007 6.18987767,8.05084052 6.42391304,8.69565217 C6.55424008,9.04625127 6.55424008,9.4320096 6.42391304,9.7826087 C6.18987767,10.4274203 5.57727419,10.8567808 4.89130435,10.8567808 C4.20533451,10.8567808 3.59273103,10.4274203 3.35869565,9.7826087 L3.35869565,9.7826087 Z M7.55434783,9.7826087 L17.4456522,9.7826087 C17.5248354,10.177115 17.6920325,10.548664 17.9347826,10.8695652 L7.06521739,10.8695652 C7.30796751,10.548664 7.47516456,10.177115 7.55434783,9.7826087 Z M1.63043478,9.7826087 L2.22826087,9.7826087 C2.30744413,10.177115 2.47464119,10.548664 2.7173913,10.8695652 L1.63043478,10.8695652 L1.63043478,9.7826087 Z M17.1195652,14.8858696 C17.0169908,15.4022998 16.5590305,15.7709578 16.0326087,15.7608696 L8.94565217,15.7608696 C8.4192304,15.7709578 7.96127009,15.4022998 7.85869565,14.8858696 L7.72826087,14.1304348 L17.2717391,14.1304348 L17.1195652,14.8858696 Z M23.9130435,13.0434783 L1.08695652,13.0434783 L1.08695652,11.9565217 L23.9130435,11.9565217 L23.9130435,13.0434783 Z M23.3695652,10.8695652 L22.2826087,10.8695652 C22.5253588,10.548664 22.6925559,10.177115 22.7717391,9.7826087 L23.3695652,9.7826087 L23.3695652,10.8695652 Z"/></g></g></svg>