<svg xmlns="http://www.w3.org/2000/svg" width="42" height="42" viewBox="0 0 42 42"><g fill="none" fill-rule="evenodd"><rect width="42" height="42" fill="#FFF" rx="21"/><g fill="#191970" fill-rule="nonzero" transform="translate(10 8.5)"><path d="M13.0906754,2.82202148 C12.8992368,2.63291016 12.5925877,2.63666992 12.4058289,2.83041992 C12.2190219,3.02412109 12.2226886,3.33447266 12.4141272,3.52353516 C12.8080044,3.91264648 13.0248684,4.43344727 13.0248684,4.99018555 C13.0248684,5.60878906 12.7663684,6.04848633 12.5496009,6.30844727 C12.3770263,6.51533203 12.402886,6.82456055 12.6073026,6.99916992 C12.6981974,7.07680664 12.809114,7.11474609 12.9194518,7.11474609 C13.057193,7.11474609 13.1940175,7.05556641 13.2897368,6.94072266 C13.6108114,6.55576172 13.9934474,5.90493164 13.9934474,4.99013672 C13.9934474,4.16713867 13.6728553,3.39716797 13.0906754,2.82202148 Z"/><path d="M21.4732061,17.376123 L13.5532544,17.376123 L13.5532544,11.6603516 C13.5532544,10.3737305 13.9855351,9.14667969 14.7703947,8.20522461 C15.518636,7.30805664 15.9307018,6.16625977 15.9307018,4.9902832 C15.9307018,3.63457031 15.4027018,2.36625977 14.4439167,1.41914063 C13.4855175,0.472167969 12.2191667,-0.0313964844 10.8784211,0.00151367187 C9.62326316,0.03203125 8.43622807,0.545166016 7.53596491,1.44628906 C6.63555702,2.34760742 6.11580702,3.54326172 6.07238596,4.81293945 C6.03070175,6.03022461 6.42675,7.21694336 7.18772807,8.15463867 C7.99960526,9.15415039 8.44669737,10.3850586 8.44669737,11.6205566 L8.44669737,17.3760254 L0.526745614,17.3760254 C0.25927193,17.3760254 0.0424078947,17.595459 0.0424078947,17.8662109 L0.0424078947,21.5076172 C0.0424078947,21.5147461 0.0431798246,21.521582 0.0434692982,21.5286133 C0.0437105263,21.5351074 0.0439035088,21.5415039 0.0444342105,21.5479492 C0.0457368421,21.5640625 0.0478114035,21.5799805 0.0506096491,21.5956543 C0.0510438596,21.5981445 0.0512368421,21.6006836 0.0517192982,21.6032227 C0.0554342105,21.6224121 0.0604517544,21.6411133 0.0662894737,21.659375 C0.067254386,21.6624512 0.0685087719,21.6654785 0.0695701754,21.6685059 C0.0747807018,21.6837402 0.0807631579,21.698584 0.087372807,21.7131348 C0.0883859649,21.715332 0.0890131579,21.7176758 0.0900745614,21.7199219 L1.51539474,24.722168 C1.59601316,24.8919922 1.76574123,25.0000488 1.9519693,25.0000488 L20.0477895,25.0000488 C20.2339693,25.0000488 20.4036974,24.892041 20.484364,24.722168 L21.9096842,21.7199219 C21.9107456,21.7177246 21.9113728,21.7153809 21.912386,21.7131348 C21.9190439,21.6986328 21.9249781,21.6837402 21.9301886,21.6685059 C21.93125,21.6654297 21.9325044,21.6624023 21.9334693,21.659375 C21.9393553,21.6411133 21.9443246,21.6223633 21.9480395,21.6032227 C21.9485219,21.6007324 21.9487149,21.5981934 21.9491491,21.5956543 C21.9519474,21.5799805 21.9540219,21.5641113 21.9553246,21.5479492 C21.9558553,21.5415039 21.956,21.5351074 21.9562895,21.5286621 C21.9565789,21.5216309 21.957351,21.5147461 21.957351,21.507666 L21.957351,17.8662598 C21.957351,17.5955566 21.7407281,17.376123 21.4732061,17.376123 Z M7.93611404,7.53237305 C7.32498684,6.77929688 7.00690351,5.82558594 7.04043421,4.846875 C7.11280263,2.73027344 8.80882895,1.03242188 10.9017719,0.981542969 C11.978807,0.954736328 12.9972237,1.3597168 13.7674167,2.12055664 C14.5378509,2.88168945 14.9621711,3.90083008 14.9621711,4.99018555 C14.9621711,5.93505859 14.6312544,6.85229492 14.0302105,7.57290039 C13.098057,8.69106445 12.5846754,10.142627 12.5846754,11.6603027 L12.5846754,17.3760742 L9.41532456,17.3760742 L9.41532456,11.6206055 C9.41532456,10.1586426 8.88992982,8.70668945 7.93611404,7.53237305 Z M19.7432632,24.0196777 L2.2566886,24.0196777 L1.29679386,21.9977539 L20.7032061,21.9977539 L19.7432632,24.0196777 Z M20.9889167,21.0174316 L1.01103509,21.0174316 L1.01103509,18.3563477 L20.9889167,18.3563477 L20.9889167,21.0174316 Z"/><path d="M11.3389737,1.88798828 C10.7156886,1.88798828 10.7146754,2.86831055 11.3389737,2.86831055 C11.9622588,2.86831055 11.9632719,1.88798828 11.3389737,1.88798828 Z"/></g></g></svg>