<svg xmlns="http://www.w3.org/2000/svg" width="42" height="42" viewBox="0 0 42 42"><g fill="none" fill-rule="evenodd"><rect width="42" height="42" fill="#FFF" rx="21"/><g fill="#191970" fill-rule="nonzero" transform="translate(8.5 9)"><path d="M15.2625,0.769655172 L14.8541667,0.682758621 L14.4375,2.56551724 L10.6208333,2.56551724 L10.2041667,0.682758621 L9.79583333,0.769655172 L9.625,1.1462069 C10.5208333,1.55586207 11.4666667,1.68827586 12.3166667,1.68827586 C14.0208333,1.68827586 15.3833333,1.16689655 15.4125,1.15448276 L15.2625,0.769655172 L14.8541667,0.682758621 L15.2625,0.769655172 L15.1125,0.384827586 L15.1041667,0.388965517 C14.9791667,0.434482759 13.7541667,0.864827586 12.3166667,0.860689655 C11.55,0.860689655 10.7291667,0.740689655 9.975,0.393103448 C9.83333333,0.326896552 9.6625,0.347586207 9.5375,0.446896552 C9.4125,0.546206897 9.35833333,0.703448276 9.39166667,0.856551724 L9.87916667,3.0662069 C9.92083333,3.25655172 10.0916667,3.39310345 10.2875,3.39310345 L14.775,3.39310345 C14.9708333,3.39310345 15.1416667,3.25655172 15.1833333,3.0662069 L15.6708333,0.856551724 C15.7041667,0.707586207 15.65,0.554482759 15.5375,0.455172414 C15.4208333,0.355862069 15.2583333,0.326896552 15.1166667,0.380689655 L15.2625,0.769655172 Z"/><path d="M14.775,2.97931034 L14.3666667,2.89241379 L12.5125,11.3089655 L10.8041667,3.39310345 L14.7791667,3.39310345 L14.7791667,2.97931034 L14.3708333,2.89241379 L14.775,2.97931034 L14.775,2.56551724 L10.2875,2.56551724 C10.1625,2.56551724 10.0416667,2.62344828 9.9625,2.71862069 C9.88333333,2.81793103 9.85416667,2.94206897 9.87916667,3.0662069 L12.1041667,13.3489655 C12.1458333,13.5393103 12.3125,13.6758621 12.5125,13.6758621 C12.7083333,13.6758621 12.8791667,13.5393103 12.9208333,13.3489655 L15.1875,3.0662069 C15.2125,2.94206897 15.1833333,2.81793103 15.1041667,2.71862069 C15.025,2.61931034 14.9041667,2.56551724 14.7791667,2.56551724 L14.7791667,2.97931034 L14.775,2.97931034 Z"/><path d="M24.2833333,19.7006897 L24.6833333,19.5848276 L19.5375,1.98206897 C19.5,1.8537931 19.4,1.75034483 19.2708333,1.70482759 L15.3958333,0.380689655 C15.2291667,0.322758621 15.0416667,0.376551724 14.9333333,0.517241379 C14.825,0.657931034 14.8125,0.844137931 14.9083333,0.993103448 L16.2333333,3.07862069 L15.1875,3.91862069 C15.0958333,3.99310345 15.0416667,4.09655172 15.0333333,4.21241379 C15.025,4.32827586 15.0666667,4.44 15.1458333,4.52275862 L16.2666667,5.6937931 L12.5083333,12.4137931 L8.66666667,5.58206897 L9.76666667,4.53931034 C9.85,4.46068966 9.89583333,4.35310345 9.89583333,4.24137931 C9.89583333,4.12965517 9.85,4.02206897 9.76666667,3.94344828 L8.7,2.9337931 L10.1333333,1.02206897 C10.2458333,0.873103448 10.2416667,0.670344828 10.1291667,0.525517241 C10.0166667,0.380689655 9.82083333,0.322758621 9.64583333,0.388965517 L5.51666667,1.96551724 C5.39583333,2.01103448 5.3,2.11448276 5.26666667,2.23862069 L0.3125,19.3944828 C0.254166667,19.5889655 0.354166667,19.8 0.5375,19.8827586 L3.84166667,21.3972414 C3.94583333,21.4468966 4.06666667,21.4468966 4.175,21.4055172 C4.28333333,21.36 4.36666667,21.2772414 4.40833333,21.1696552 L5.55416667,18.1406897 L4.85833333,22.2165517 C4.82083333,22.4317241 4.95833333,22.6386207 5.175,22.6882759 L10.025,23.822069 C10.1791667,23.8593103 10.3375,23.8055172 10.4375,23.6855172 L12.4625,21.2896552 L14.4333333,23.6813793 C14.5333333,23.8013793 14.6958333,23.8593103 14.85,23.822069 L19.55,22.7503448 C19.7583333,22.7048276 19.8958333,22.5062069 19.8708333,22.2951724 L19.2791667,17.5448276 L20.525,21.1572414 C20.5625,21.2648276 20.6416667,21.3517241 20.7458333,21.3972414 C20.85,21.4468966 20.9666667,21.4468966 21.075,21.4055172 L24.4416667,20.0813793 C24.6416667,20.0027586 24.75,19.7875862 24.6875,19.5806897 L24.2833333,19.7006897 L24.1291667,19.3158621 L21.1708333,20.4786207 L18.7708333,13.5062069 C18.7,13.3034483 18.4916667,13.1875862 18.2833333,13.2372414 C18.075,13.2868966 17.9375,13.4813793 17.9625,13.6924138 L18.9958333,22.0303448 L14.9125,22.9613793 L12.7875,20.3834483 C12.7083333,20.2882759 12.5916667,20.2344828 12.4666667,20.2303448 C12.3416667,20.2303448 12.225,20.2841379 12.1458333,20.3793103 L9.9625,22.9613793 L5.74583333,21.9724138 L7.1,14.0275862 C7.1375,13.8165517 7.00416667,13.6137931 6.79583333,13.56 C6.5875,13.5062069 6.37083333,13.6137931 6.29583333,13.8124138 L3.78333333,20.462069 L1.2125,19.2827586 L6.01666667,2.66068966 L8.60833333,1.67172414 L7.8125,2.73103448 C7.6875,2.90068966 7.70833333,3.13241379 7.85833333,3.27724138 L8.875,4.24137931 L7.85833333,5.20551724 C7.72083333,5.3337931 7.6875,5.54068966 7.78333333,5.7062069 L12.1458333,13.4648276 C12.2208333,13.5972414 12.3583333,13.6758621 12.5083333,13.6758621 C12.6583333,13.6758621 12.8,13.5931034 12.8708333,13.4648276 L17.1541667,5.83448276 C17.2416667,5.67724138 17.2166667,5.47862069 17.0916667,5.3462069 L16.0708333,4.28275862 L17.0541667,3.49241379 C17.2166667,3.36 17.2583333,3.12827586 17.1458333,2.95034483 L16.25,1.54758621 L18.8,2.41655172 L23.8875,19.8124138 L24.2833333,19.7006897 L24.1291667,19.3158621 L24.2833333,19.7006897 Z M12.5541667,16.9531034 L12.5916667,16.5393103 L12.5458333,16.5351724 L12.5291667,16.5351724 C12.2916667,16.5268966 12.0958333,16.3241379 12.0958333,16.0882759 C12.0958333,15.8441379 12.2875,15.6455172 12.5291667,15.6372414 L12.55,15.6372414 L12.5958333,15.6331034 L12.5583333,15.2193103 L12.5583333,15.6331034 C12.8041667,15.6331034 13.0125,15.8358621 13.0125,16.0882759 C13.0125,16.2124138 12.9625,16.3241379 12.8791667,16.4068966 C12.7958333,16.4896552 12.6833333,16.5393103 12.5583333,16.5393103 L12.5583333,16.9531034 L12.5958333,16.5393103 L12.5541667,16.9531034 L12.5541667,17.3668966 C13.2666667,17.3668966 13.8416667,16.7958621 13.8416667,16.0882759 C13.8416667,15.3806897 13.2666667,14.8055172 12.5541667,14.8055172 L12.5166667,14.8055172 L12.4708333,14.8096552 L12.5083333,15.2234483 L12.4916667,14.8096552 C11.8041667,14.8427586 11.2666667,15.4013793 11.2625,16.0882759 C11.2625,16.7710345 11.8041667,17.3296552 12.4916667,17.3627586 L12.5083333,16.9489655 L12.4708333,17.3627586 L12.5166667,17.3668966 L12.5541667,17.3668966 L12.5541667,16.9531034 Z"/><path d="M8.15,5.50344828 L8.4375,5.80137931 L9.77083333,4.53931034 C9.85416667,4.46068966 9.9,4.35310345 9.9,4.24137931 C9.9,4.12965517 9.85416667,4.02206897 9.77083333,3.94344828 L8.70416667,2.9337931 L9.59166667,1.75034483 L9.88333333,3.07034483 L9.88333333,3.07034483 L11.525,10.6551724 L8.51666667,5.30482759 L8.15,5.50344828 L8.4375,5.80137931 L8.15,5.50344828 L7.7875,5.7062069 L12.15,13.4648276 C12.25,13.6427586 12.4666667,13.7213793 12.6625,13.6510345 C12.8541667,13.5806897 12.9666667,13.377931 12.925,13.1751724 L10.7,2.89241379 L10.7,2.89241379 L10.2083333,0.682758621 C10.175,0.525517241 10.05,0.40137931 9.8875,0.368275862 C9.725,0.335172414 9.5625,0.397241379 9.46666667,0.525517241 L7.81666667,2.73517241 C7.69166667,2.90068966 7.7125,3.13655172 7.8625,3.28137931 L8.87916667,4.24137931 L7.8625,5.20551724 C7.725,5.3337931 7.69166667,5.54068966 7.7875,5.7062069 L8.15,5.50344828 Z"/><path d="M15.4541667 4.24137931 15.1541667 4.52689655 16.275 5.6937931 13.5208333 10.6055172 15.1833333 3.0662069 15.4541667 1.84137931 16.2375 3.07448276 15.1916667 3.91448276C15.1 3.98896552 15.0458333 4.09655172 15.0375 4.20827586 15.0291667 4.32413793 15.0708333 4.43586207 15.15 4.51862069L15.4541667 4.24137931 15.7166667 4.56413793 17.05 3.49241379C17.2125 3.36 17.2541667 3.12827586 17.1416667 2.95034483L15.6166667.554482759C15.525.413793103 15.3583333.339310345 15.1916667.368275862 15.025.397241379 14.8916667.525517241 14.8583333.686896552L14.3708333 2.89655172 12.1041667 13.1793103C12.0583333 13.377931 12.1708333 13.5806897 12.3625 13.6551724 12.5541667 13.7296552 12.775 13.6468966 12.875 13.4689655L17.1541667 5.83448276C17.2416667 5.67724138 17.2166667 5.47862069 17.0916667 5.3462069L15.7583333 3.96 15.4541667 4.24137931 15.7166667 4.56413793 15.4541667 4.24137931ZM5.2625 2.42896552C5.2625 2.42896552 5.28333333 2.52413793 5.31666667 2.70206897 5.43333333 3.32275862 5.725 4.93241379 5.99166667 6.76137931 6.25416667 8.59034483 6.4875 10.6427586 6.4875 12.1324138 6.4875 12.5131034 6.47083333 12.8565517 6.44166667 13.142069 6.40833333 13.4275862 6.35833333 13.6634483 6.30416667 13.8124138 6.225 14.0275862 6.33333333 14.2634483 6.55 14.3462069 6.76666667 14.4248276 7.00416667 14.3172414 7.0875 14.102069 7.18333333 13.8496552 7.2375 13.5641379 7.275 13.2331034 7.3125 12.902069 7.32916667 12.5337931 7.32916667 12.1324138 7.32916667 10.3406897 7.01666667 7.88689655 6.70833333 5.86758621 6.4 3.85241379 6.09166667 2.27586207 6.09166667 2.27172414 6.04583333 2.04827586 5.82916667 1.89931034 5.60416667 1.94482759 5.36666667 1.9862069 5.21666667 2.20551724 5.2625 2.42896552L5.2625 2.42896552ZM18.725 2.04C18.725 2.04413793 18.4958333 3.68689655 18.2666667 5.75172414 18.0375 7.81655172 17.8041667 10.2993103 17.8041667 12.0041379 17.8041667 12.3806897 17.8166667 12.7241379 17.8416667 13.017931 17.8708333 13.3158621 17.9083333 13.56 17.9791667 13.7751724 18.0541667 13.9903448 18.2916667 14.1062069 18.5083333 14.0317241 18.725 13.9572414 18.8416667 13.7213793 18.7666667 13.5062069 18.7291667 13.4027586 18.6916667 13.2 18.6708333 12.9434483 18.6458333 12.6827586 18.6375 12.3641379 18.6375 12.0041379 18.6375 10.3655172 18.8666667 7.89517241 19.0916667 5.84275862 19.2041667 4.81655172 19.3208333 3.8937931 19.4041667 3.22758621 19.4916667 2.56137931 19.5458333 2.15586207 19.5458333 2.15586207 19.5791667 1.92827586 19.4166667 1.72137931 19.1916667 1.68827586 18.9666667 1.65517241 18.7583333 1.81241379 18.725 2.04L18.725 2.04ZM12.925 20.6441379 12.925 16.9489655C12.925 16.7213793 12.7375 16.5351724 12.5083333 16.5351724 12.2791667 16.5351724 12.0916667 16.7213793 12.0916667 16.9489655L12.0916667 20.6441379C12.0916667 20.8717241 12.2791667 21.057931 12.5083333 21.057931 12.7416667 21.057931 12.925 20.8717241 12.925 20.6441379"/><path d="M12.925,15.2234483 L12.925,13.262069 C12.925,13.0344828 12.7375,12.8482759 12.5083333,12.8482759 C12.2791667,12.8482759 12.0916667,13.0344828 12.0916667,13.262069 L12.0916667,15.2234483 C12.0916667,15.4510345 12.2791667,15.6372414 12.5083333,15.6372414 C12.7416667,15.6372414 12.925,15.4510345 12.925,15.2234483"/><path d="M13.425 16.0882759 13.0083333 16.0882759C13.0083333 16.2124138 12.9583333 16.3241379 12.875 16.4068966 12.7916667 16.4896552 12.6791667 16.5393103 12.5541667 16.5393103L12.5541667 16.9531034 12.5916667 16.5393103 12.5458333 16.5351724 12.5291667 16.5351724C12.2916667 16.5268966 12.0958333 16.3241379 12.0958333 16.0882759 12.0958333 15.8441379 12.2875 15.6455172 12.5291667 15.6372414L12.55 15.6372414 12.5958333 15.6331034 12.5583333 15.2193103 12.5583333 15.6331034C12.8041667 15.6331034 13.0125 15.8358621 13.0125 16.0882759L13.425 16.0882759 13.8416667 16.0882759C13.8416667 15.3806897 13.2666667 14.8055172 12.5541667 14.8055172L12.5166667 14.8055172 12.4708333 14.8096552 12.5083333 15.2234483 12.4916667 14.8096552C11.8041667 14.8427586 11.2666667 15.4013793 11.2625 16.0882759 11.2625 16.7710345 11.8041667 17.3296552 12.4916667 17.3627586L12.5083333 16.9489655 12.4708333 17.3627586 12.5166667 17.3668966 12.5541667 17.3668966C13.2666667 17.3668966 13.8416667 16.7958621 13.8416667 16.0882759L13.425 16.0882759 13.425 16.0882759ZM6.95416667 17.2468966 6.79166667 18.1903448C6.75416667 18.4137931 6.90416667 18.6289655 7.13333333 18.6662069 7.35833333 18.7034483 7.575 18.5544828 7.6125 18.3268966L7.775 17.3834483C7.8125 17.16 7.6625 16.9448276 7.43333333 16.9075862 7.20833333 16.8703448 6.99583333 17.0234483 6.95416667 17.2468966M7.52916667 13.8868966 7.24166667 15.5710345C7.20416667 15.7944828 7.35416667 16.0096552 7.58333333 16.0468966 7.80833333 16.0841379 8.025 15.9351724 8.0625 15.7075862L8.35 14.0234483C8.3875 13.8 8.2375 13.5848276 8.00833333 13.5475862 7.78333333 13.5103448 7.56666667 13.6634483 7.52916667 13.8868966"/><path d="M7.73333333,11.9172414 C7.73333333,11.9875862 7.73333333,12.057931 7.73333333,12.1282759 C7.73333333,12.5089655 7.71666667,12.8524138 7.6875,13.142069 C7.65416667,13.4275862 7.60416667,13.6634483 7.55,13.8124138 C7.47083333,14.0275862 7.57916667,14.2634483 7.79166667,14.3462069 C8.00833333,14.4248276 8.24583333,14.3172414 8.32916667,14.1062069 C8.425,13.8537931 8.47916667,13.5682759 8.51666667,13.2372414 C8.55416667,12.9062069 8.57083333,12.537931 8.57083333,12.1324138 C8.57083333,12.057931 8.57083333,11.9834483 8.57083333,11.9089655 C8.56666667,11.6813793 8.37916667,11.4993103 8.15,11.4993103 C7.9125,11.5034483 7.72916667,11.6896552 7.73333333,11.9172414 L7.73333333,11.9172414 Z"/></g></g></svg>