<svg xmlns="http://www.w3.org/2000/svg" width="42" height="42" viewBox="0 0 42 42"><g fill="none" fill-rule="evenodd"><rect width="42" height="42" fill="#FFF" rx="21"/><path fill="#191970" fill-rule="nonzero" d="M21.9385598,9.33139648 L21.1116902,9.33139648 C20.7008355,9.33139648 20.3179936,9.55102539 20.1125171,9.90454102 C20.1023932,9.921875 20.0938419,9.93999023 20.0868141,9.95849609 C18.5791346,9.8328125 18.9620748,9.86474609 18.0344573,9.78740234 C17.7014487,9.75961914 17.3681453,9.78500977 17.0438846,9.86274414 C17.0376923,9.86420898 17.0187714,9.86870117 16.9984252,9.85219727 C16.989235,9.84477539 16.9739509,9.82797852 16.9748846,9.79941406 C16.9828953,9.56088867 16.9552756,9.32246094 16.892812,9.09082031 L16.5545449,7.83637695 C16.4226389,7.34741211 16.1070769,6.93876953 15.6658504,6.68574219 L15.6425064,6.67236328 L15.9110855,6.21015625 C16.1796154,6.28569336 16.4574829,6.32387695 16.7406581,6.32387695 C17.4869786,6.32387695 18.0941688,5.72060547 18.0941688,4.97905273 L18.0941688,2.91035156 C18.0941688,2.71074219 18.0669915,2.51274414 18.0133248,2.32182617 C17.7505449,1.38681641 16.8829338,0.726269531 15.8958996,0.726269531 C15.6870321,0.726269531 15.4848974,0.755371094 15.2933782,0.809667969 C15.1348846,0.339599609 14.6874658,0 14.1616603,0 C13.5037521,0 12.9685107,0.531787109 12.9685107,1.18544922 C12.9685107,1.70742187 13.3097756,2.15166016 13.7822094,2.30952148 C13.7271667,2.50048828 13.6976303,2.70205078 13.6976303,2.91030273 C13.6994979,3.27998047 13.6902094,3.44350586 13.7235299,3.69614258 C13.7535085,3.92397461 13.7080983,4.14985352 13.5920662,4.34951172 L13.0923568,5.20947266 L11.8635769,4.50463867 C11.6872436,4.4034668 11.4618632,4.46352539 11.3600833,4.63867188 C11.2583034,4.81381836 11.318703,5.03779297 11.4949872,5.13891602 L15.0442115,7.17485352 C15.3121026,7.32851562 15.4042009,7.67006836 15.2495406,7.93618164 C15.2085534,8.00673828 14.5645534,9.11494141 14.6056389,9.04418945 C14.3598632,9.4671875 13.813515,9.61259766 13.3878675,9.3684082 L12.8373419,9.05263672 C12.6610085,8.95146484 12.4356282,9.01152344 12.3338483,9.18666992 C12.2320684,9.36181641 12.2924679,9.58579102 12.4687521,9.68691406 L13.0192778,10.0026855 C13.299406,10.1633789 13.6128056,10.2342773 13.9244359,10.2165039 L12.8859957,12.0034668 L10.122359,10.4181641 L11.7145684,7.02416992 C11.8411667,6.7543457 11.7276902,6.43588867 11.4660406,6.29848633 L10.5968077,5.83911133 C10.4527628,5.75576172 10.3224786,5.65273438 10.2094936,5.53271484 C9.84817735,5.14897461 9.22177137,5.21020508 8.94827778,5.65483398 C8.81553632,5.87055664 8.64947436,6.06293945 8.45461325,6.2265625 L8.12239103,6.50551758 L7.62440171,6.01074219 L9.40783547,4.23881836 C9.51944444,4.12792969 9.69287821,4.10527344 9.82955128,4.18364258 L10.0529167,4.31176758 C10.2291517,4.41289063 10.4546303,4.35283203 10.5564103,4.17773438 C10.6581902,4.00258789 10.5977906,3.77861328 10.4215064,3.67749023 L10.198141,3.54936523 C9.77303419,3.30551758 9.23366453,3.37612305 8.88655128,3.72094727 L4.79839957,7.78271484 C4.55370513,8.02583008 4.41889957,8.34907227 4.41889957,8.69291992 C4.41889957,9.03676758 4.55365598,9.36000977 4.79839957,9.60317383 L5.04815598,9.85126953 C5.44692094,10.2474609 6.09563889,10.2474121 6.49440385,9.85126953 L7.07903632,9.27036133 C7.36722436,8.9840332 7.4786859,8.56943359 7.37715171,8.16123047 C7.36815812,8.12504883 7.38034615,8.08764648 7.40904701,8.06357422 C8.45422009,7.18588867 8.22318803,7.37993164 8.93043803,6.78603516 C9.18564957,6.57167969 9.4033141,6.31967773 9.57723932,6.03686523 C9.5805812,6.03144531 9.59065598,6.01499023 9.61694872,6.01235352 C9.62869444,6.01098633 9.65149786,6.01225586 9.67110684,6.03310547 C9.8351047,6.20732422 10.0243632,6.35654297 10.2334274,6.47651367 C10.241094,6.4809082 10.1835449,6.45039063 10.974391,6.86831055 C10.7878846,7.26591797 8.83745513,11.4233887 8.58907479,11.952832 C8.40409188,12.3471191 8.30103419,12.7670898 8.27975427,13.1899902 L6.56212607,16.1458496 C6.5158312,16.2254395 6.43351282,16.2765625 6.34185684,16.2825195 C5.0071688,16.3696289 3.7605,16.9988281 2.90242308,18.0341797 C2.54110684,18.4702148 2.10735043,18.8440918 1.61506197,19.1265137 C1.57299359,19.1506348 0.492337607,19.7705566 0.465946581,19.7856934 C0.057991453,20.0197266 -0.0823183761,20.5398926 0.153235043,20.9452637 L1.08527564,22.5492188 C1.27404274,22.8739746 1.57874359,23.10625 1.94325427,23.2033203 L2.89003846,23.4553711 C3.51138248,23.620752 4.14869872,23.254248 4.31387607,22.6365723 C4.40479487,22.2967773 4.2539188,21.9364746 3.94700641,21.760498 L3.14638034,21.3012207 C3.13625641,21.2954102 3.12873718,21.2856934 3.12569017,21.2744141 L3.09320513,21.1540527 C3.08799573,21.1347656 3.09649786,21.1143555 3.1138953,21.1043457 C3.68447222,20.7770508 3.98848504,20.6026367 4.37383333,20.3815918 C4.55011752,20.2804688 4.61051709,20.0564941 4.50873718,19.8813477 C4.40695726,19.7062012 4.18152778,19.6461914 4.00524359,19.7473145 L3.88994872,19.8134277 L3.26413248,18.7364258 C3.33529487,18.6595703 3.40458974,18.5804687 3.4714765,18.4997559 C3.88626282,17.9993164 4.41403419,17.6027832 5.01960256,17.3422363 L5.81418376,18.7096191 L5.56413248,18.8530762 C5.38784829,18.9541992 5.32744872,19.1781738 5.42922863,19.3533203 C5.53100855,19.5284668 5.75648718,19.5885254 5.93272222,19.4873535 C6.63392735,19.0851563 6.32244444,19.2638184 7.39759615,18.6470703 C7.86496795,18.3789551 8.29548077,18.0507812 8.67709402,17.6716309 L10.0642201,16.293457 C10.2807051,16.4061035 10.5110983,16.4958984 10.752156,16.5600586 L12.5713675,17.0442871 C12.1680321,17.3982422 11.8197885,17.8340332 11.5598098,18.3367676 C11.2342714,18.9662598 10.8157991,19.5636719 10.2957436,20.0803223 L8.70835043,21.6574707 C8.40989103,21.9540039 8.40989103,22.4364746 8.70835043,22.732959 L10.671312,24.683252 C11.0988761,25.107959 11.7950684,25.1067383 12.2204209,24.6731445 C12.4510107,24.4380371 12.4957329,24.0736816 12.3291303,23.7870605 L11.4788184,22.3237793 C11.4418611,22.2602051 11.4525256,22.1794922 11.5048162,22.1275879 L15.5967521,18.0620605 C16.0112927,17.6501953 16.2051709,17.0828125 16.1286517,16.5053223 C16.0521325,15.927832 15.7170598,15.4295898 15.2093397,15.1383789 C13.9885214,14.4380371 14.5033675,14.7344727 12.9238376,13.821875 C12.8234338,13.7638672 12.7889829,13.6353516 12.8470726,13.5354004 C13.4743632,12.4558594 14.0641068,11.4409668 14.6374359,10.4543457 L14.8345577,11.1853516 C14.9615983,11.6564453 15.3931923,11.9854492 15.8840556,11.9854492 L16.6503291,11.9854492 C16.8538889,11.9854492 17.0189188,11.8214844 17.0189188,11.6192383 C17.0189188,11.4169922 16.8538889,11.2530273 16.6503291,11.2530273 L15.8840556,11.2530273 C15.72625,11.2530273 15.5874637,11.1472168 15.5466239,10.995752 L15.1587201,9.55727539 C15.9572329,8.1831543 15.8932949,8.29370117 15.9075962,8.26733398 L16.1807949,9.28032227 C16.2244359,9.4421875 16.24375,9.60859375 16.2381474,9.77490234 C16.2204551,10.3012695 16.7083697,10.6966797 17.2168761,10.5745605 C17.4643226,10.5152832 17.7186496,10.4958496 17.9728782,10.5170898 L18.4062906,10.5532227 L18.4062906,11.2529785 L18.3704637,11.2529785 C18.1669038,11.2529785 18.0018739,11.4169434 18.0018739,11.6191895 C18.0018739,11.8214355 18.1669038,11.9854004 18.3704637,11.9854004 L21.6656068,11.9854004 C22.011688,11.9854004 22.3370299,11.8515137 22.5817244,11.6083496 C22.8264188,11.3652344 22.9611752,11.0419434 22.9611752,10.6981445 L22.9611752,10.3472656 C22.9611752,9.7871582 22.502453,9.33139648 21.9385598,9.33139648 Z M6.93332051,7.50415039 C6.68897009,7.70927734 6.58488034,8.02836914 6.6616453,8.33691406 C6.70066667,8.49379883 6.66189103,8.64912109 6.55789957,8.75244141 L5.97326709,9.33334961 C5.86190385,9.44389648 5.68085256,9.44394531 5.56953846,9.33334961 L5.31978205,9.08525391 C5.10206838,8.86894531 5.10206838,8.51694336 5.31978205,8.30063477 L7.10326496,6.52866211 L7.55751496,6.97998047 L6.93332051,7.50415039 Z M2.99437393,20.3271973 L2.97515812,20.3220703 C2.74869658,20.2618164 2.55938889,20.1174805 2.44212821,19.9157227 L2.2550812,19.5938477 C2.41327991,19.4897949 2.56671154,19.3767578 2.71449145,19.2552734 L3.25164957,20.1796387 L2.99437393,20.3271973 Z M3.57851496,22.3947754 C3.59758333,22.4057129 3.60701923,22.4277832 3.60146581,22.4484863 C3.54111538,22.6741699 3.30811752,22.8084473 3.08086966,22.7478516 L2.13408547,22.4958008 C1.95976709,22.4494141 1.81400214,22.3382813 1.72372222,22.182959 L0.791681624,20.5790039 C0.759393162,20.5233887 0.778608974,20.4520508 0.83458547,20.4199219 L1.62159829,19.968457 L1.80373077,20.2818848 C1.94949573,20.5327637 2.15585684,20.7353516 2.40291026,20.8745605 C2.34855556,21.0213379 2.33838248,21.184668 2.38123718,21.3435059 L2.41372222,21.4638672 C2.46778205,21.6642578 2.59708333,21.8317871 2.77793803,21.9354492 L3.57851496,22.3947754 Z M8.15590812,17.1537598 C7.81980342,17.4876465 7.44069658,17.776709 7.0291047,18.012793 L6.45272863,18.3434082 L5.73530556,17.1087891 C5.95041453,17.059668 6.16945513,17.0276855 6.39021581,17.0132812 C6.72808974,16.9913086 7.03107051,16.8038574 7.20067094,16.5119141 L8.43972222,14.3796875 C8.63025855,14.9609375 8.97712607,15.4785156 9.44282692,15.8750977 L8.15590812,17.1537598 Z M12.2155064,18.671582 C12.2755128,18.5555664 12.341859,18.442627 12.4140043,18.3333984 L13.3476175,19.2609863 L12.0583397,20.5419434 L11.4243654,19.9121094 C11.7199252,19.5327148 11.9853098,19.116748 12.2155064,18.671582 Z M10.6589274,21.0019043 L10.5348355,20.8786133 C10.8118675,20.6033691 10.8572778,20.5594238 10.9430855,20.4697266 L11.5370556,21.0598145 L11.2268996,21.3679687 C11.0144936,21.2871094 10.8204679,21.1624023 10.6589274,21.0019043 L10.6589274,21.0019043 Z M11.6907821,24.1533203 C11.6935342,24.1580566 11.6923056,24.1620605 11.692453,24.1620605 C11.5557799,24.301416 11.3312842,24.303125 11.1925962,24.1653809 L9.22963462,22.2150879 C9.21862607,22.2041504 9.21862607,22.1863281 9.22963462,22.1753906 L10.0136004,21.3965332 L10.1376923,21.5198242 C10.3210043,21.7019531 10.5331154,21.8523926 10.7642949,21.9655273 C10.6872842,22.2012695 10.7097436,22.4650391 10.8404701,22.6900391 L11.6907821,24.1533203 Z M14.84075,15.7727539 C15.4862735,16.1431152 15.6028462,17.0203125 15.0754679,17.5442383 L13.8688526,18.7430664 L12.8805406,17.761084 C13.0491581,17.5915527 13.2479509,17.4267578 13.466844,17.282666 L13.7205812,17.3501953 C13.9175556,17.4024902 14.1193462,17.2864258 14.1720299,17.0912109 C14.2247137,16.8958496 14.1079936,16.6950195 13.9113632,16.6426758 C12.9283098,16.3810059 11.9441261,16.119043 10.9430363,15.8525391 C9.38198504,15.4370117 8.57310256,13.7208008 9.25735256,12.2621582 L9.80979487,11.0845703 L12.5175043,12.6377441 L12.2086752,13.1691895 C12.1718162,13.2325684 12.143312,13.2985352 12.1227201,13.3657715 L11.8761581,13.2229492 C11.7003162,13.1210938 11.474641,13.1800781 11.3720748,13.354834 C11.2695577,13.529541 11.3289744,13.7537598 11.5048162,13.8556641 C11.7347179,13.9883301 14.610406,15.6405762 14.84075,15.7727539 L14.84075,15.7727539 Z M17.0752393,2.05351562 L16.873891,2.05351562 C16.4788611,2.05351562 16.1112051,2.22963867 15.8652329,2.53671875 L15.7787863,2.64458008 C15.6349872,2.5206543 15.4474487,2.44560547 15.2426111,2.44560547 C14.4240962,2.44560547 14.814359,2.44560547 14.7037821,2.44560547 C14.635765,2.44560547 14.5693205,2.45239258 14.5050385,2.4652832 C14.6945919,1.88188477 15.2464444,1.45869141 15.8958996,1.45869141 C16.37025,1.45869141 16.8053333,1.68857422 17.0752393,2.05351562 Z M13.7056902,1.18544922 C13.7056902,0.935644531 13.9102329,0.732421875 14.1616603,0.732421875 C14.3963782,0.732421875 14.5902564,0.909570312 14.6149765,1.13632812 C14.421344,1.27470703 14.251203,1.44360352 14.1117286,1.63579102 C13.8837436,1.61103516 13.7056902,1.41855469 13.7056902,1.18544922 Z M14.2304637,4.71577148 C14.2922885,4.609375 14.3423675,4.49858398 14.380406,4.38466797 C14.481891,4.41914062 14.5906987,4.4378418 14.7037821,4.4378418 C14.9073419,4.4378418 15.0723718,4.27387695 15.0723718,4.07163086 C15.0723718,3.86938477 14.9073419,3.70541992 14.7037821,3.70541992 C14.5732521,3.70541992 14.4643953,3.6112793 14.4424274,3.48774414 C14.4409038,3.46923828 14.4396261,3.45068359 14.438594,3.43217773 C14.4434103,3.29189453 14.5606709,3.17807617 14.7037821,3.17807617 L15.2426111,3.17807617 C15.2879231,3.17807617 15.3247821,3.21469727 15.3247821,3.2597168 C15.3247821,3.42705078 15.4316239,3.5765625 15.590609,3.63173828 C15.7496432,3.68681641 15.9268611,3.6359375 16.031688,3.50507812 L16.4420021,2.99287109 C16.5473205,2.86137695 16.7047329,2.78598633 16.873891,2.78598633 L17.3516816,2.78598633 C17.3552201,2.82724609 17.3569893,2.86875 17.3569893,2.91040039 L17.3569893,4.97915039 C17.3569893,5.3168457 17.0804979,5.59155273 16.7406581,5.59155273 C16.1425598,5.59155273 15.5863333,5.3652832 15.1649124,4.97314453 C15.0163462,4.83491211 14.7830534,4.84248047 14.6439231,4.99013672 C14.5047436,5.13774414 14.5124103,5.36953125 14.6610256,5.50776367 C14.8340662,5.66879883 15.0232265,5.80791016 15.2263932,5.9237793 L15.004109,6.30629883 L13.7307543,5.57587891 L14.2304637,4.71577148 Z M22.2240449,10.6983398 C22.2240449,10.8465332 22.1659551,10.9858398 22.0604893,11.090625 C21.9550235,11.1954102 21.8147628,11.253125 21.6656068,11.253125 L19.1434209,11.253125 L19.1434209,10.6148438 L20.1909038,10.7021973 C20.5301047,10.7306641 20.7885107,10.4976563 20.8085128,10.1939941 C20.8863098,10.1121094 20.9959038,10.0638184 21.111641,10.0638184 L21.9385107,10.0638184 C22.0959231,10.0638184 22.2239957,10.1910156 22.2239957,10.3474121 L22.2239957,10.6983398 L22.2240449,10.6983398 Z" transform="translate(9.5 8.5)"/></g></svg>