<svg xmlns="http://www.w3.org/2000/svg" width="42" height="42" viewBox="0 0 42 42"><g fill="none" fill-rule="evenodd"><rect width="42" height="42" fill="#FFF" rx="21"/><g fill="#191970" fill-rule="nonzero" transform="translate(12.5 8.5)"><path d="M6.24705882 10.5C6.17779101 10.7107764 6.13337258 10.9289202 6.11470588 11.15L6.09705882 11.5352941 6.86764706 11.5735294 6.88823529 11.1764706C6.91500629 10.9144616 6.98873131 10.6594129 7.10588235 10.4235294L7.12058824 10.4235294 7.14705882 10.3470588C7.38444185 9.91369185 7.77117062 9.58131415 8.23529412 9.41176471L8.59705882 9.27352941 8.32647059 8.55 7.96176471 8.68823529C7.71157118 8.78277392 7.47515816 8.9103776 7.25882353 9.06764706 7.21580816 8.84139855 7.14053027 8.62249837 7.03529412 8.41764706 6.6 7.57647059 5.67647059 6.96470588 4.29705882 6.6L3.92941176 6.50294118 3.82352941 6.87352941C3.80294118 6.94705882 3.32647059 8.63823529 4.22647059 9.70882353 4.67352941 10.2323529 5.35 10.4970588 6.24705882 10.5ZM4.49705882 7.47352941C5.42941176 7.76764706 6.05294118 8.21470588 6.34705882 8.77058824 6.50069927 9.0610263 6.56225302 9.39136476 6.52352941 9.71764706 5.72647059 9.77058824 5.15294118 9.59705882 4.82352941 9.21176471 4.41176471 8.71176471 4.42941176 7.94117647 4.49705882 7.47352941ZM3.64705882 14.2823529 3.94117647 14.05 3.47647059 13.4323529 3.16470588 13.6647059C3.1 13.7117647 1.58235294 14.8852941 2.13529412 17.2235294L2.22352941 17.6 2.97647059 17.4235294 2.90294118 17.0588235C2.47058824 15.2205882 3.59117647 14.3264706 3.64705882 14.2823529Z"/><path d="M16.1,7.60294118 C15.742991,7.18793992 15.2238906,6.94769509 14.6764706,6.94411765 L13.9705882,6.94411765 C13.9882353,5.91176471 13.9970588,1.89117647 13.1147059,0.335294118 L12.9235294,0 L12.25,0.382352941 L12.4411765,0.717647059 C13.1441176,1.95588235 13.2352941,5.44411765 13.1941176,6.94411765 L12.4970588,6.94411765 C11.9496388,6.94769509 11.4305384,7.18793992 11.0735294,7.60294118 C10.641205,8.09988928 10.4439969,8.75903579 10.5323529,9.41176471 L11.7647059,19.3529412 L11.6705882,19.6470588 C11.1823529,21.2558824 9.84705882,22.8823529 8.90882353,23.3617647 C8.4117985,23.6307575 7.79925815,23.5577238 7.37941176,23.1794118 C6.77647059,22.6470588 6.24117647,22.6470588 5.63823529,23.1794118 C5.21838891,23.5577238 4.60584856,23.6307575 4.10882353,23.3617647 C2.14117647,22.3529412 0.773529412,18.7705882 0.773529412,16.2088235 C0.773529412,13.9676471 1.74411765,12.7764706 3.91764706,12.3470588 C4.70328859,12.217942 5.50640567,12.434537 6.12058824,12.9411765 C6.34072001,13.1294634 6.66516234,13.1294634 6.88529412,12.9411765 C7.50007097,12.4381558 8.30150818,12.2238678 9.08529412,12.3529412 L9.46764706,12.4264706 L9.61764706,11.6676471 L9.23529412,11.5941176 C8.26903318,11.4259589 7.27669626,11.6737761 6.50294118,12.2764706 C5.72902176,11.6741136 4.73683555,11.426334 3.77058824,11.5941176 C1.23235294,12.0852941 0,13.6 0,16.2088235 C0,19.05 1.50294118,22.8823529 3.74411765,24.0617647 C4.52695948,24.4749771 5.48422079,24.3576657 6.14411765,23.7676471 C6.33235294,23.6029412 6.43823529,23.5676471 6.50294118,23.5676471 C6.56764706,23.5676471 6.67352941,23.6029412 6.86176471,23.7676471 C7.24818329,24.1116925 7.74732214,24.3021396 8.26470588,24.3029412 C8.61206734,24.3017785 8.95404798,24.2170399 9.26176471,24.0558824 C10.1176471,23.6029412 11.25,22.3911765 11.9588235,20.9794118 L12.2676471,23.4764706 C12.2676471,24.2074357 12.8602114,24.8 13.5911765,24.8 C14.3221416,24.8 14.9147059,24.2074357 14.9147059,23.4764706 L16.6411765,9.41176471 C16.7264415,8.75928121 16.5296066,8.10138178 16.1,7.60294118 L16.1,7.60294118 Z M14.1352941,23.3882353 C14.1352941,23.6919919 13.8890507,23.9382353 13.5852941,23.9382353 C13.2815375,23.9382353 13.0352941,23.6919919 13.0352941,23.3882353 L12.1529412,16.3294118 L13.2382353,16.3294118 L13.2382353,15.5588235 L12.0588235,15.5588235 L11.4705882,10.8117647 L12.9941176,10.8117647 L12.9941176,10.0382353 L11.3764706,10.0382353 L11.2852941,9.31176471 C11.2271033,8.88159431 11.3555365,8.44706193 11.6382353,8.11764706 C11.8477286,7.8674876 12.1560811,7.72136935 12.4823529,7.71764706 L14.6764706,7.71764706 C15.0018933,7.72143566 15.3093156,7.86762245 15.5176471,8.11764706 C15.8059297,8.44435587 15.9389033,8.87973744 15.8823529,9.31176471 L15.45,12.7323529 L14.1823529,12.7323529 L14.1823529,13.5088235 L15.3588235,13.5088235 L14.75,18.4147059 L13.7470588,18.4147059 L13.7470588,19.1882353 L14.6529412,19.1882353 L14.1352941,23.3882353 Z"/><path d="M12.0323529 6.26470588 12.1147059 6.64117647 12.8705882 6.47058824 12.7882353 6.09117647C12.43341 4.53322084 11.5692022 3.1380686 10.3323529 2.12647059L10.0382353 1.87941176 9.54411765 2.46764706 9.83823529 2.71764706C10.9455082 3.6215269 11.7179966 4.87034864 12.0323529 6.26470588L12.0323529 6.26470588ZM15.0382353 6.17647059C15.1089089 5.09585733 15.4955053 4.05981978 16.15 3.19705882L16.3941176 2.90294118 15.7911765 2.40294118 15.5470588 2.69705882C14.794761 3.67949776 14.3496427 4.8623868 14.2676471 6.09705882L14.2352941 6.48235294 15.0058824 6.54705882 15.0382353 6.17647059Z"/></g></g></svg>