<svg xmlns="http://www.w3.org/2000/svg" width="42" height="42" viewBox="0 0 42 42"><g fill="none" fill-rule="evenodd"><rect width="42" height="42" fill="#FFF" rx="21"/><g fill-rule="nonzero" transform="translate(12 8.5)"><path fill="#FFF" d="M9,1.63043478 L9,3.80434783 L2.25,3.80434783 L2.25,1.63043478 C2.25,1.03012527 2.75367966,0.543478261 3.375,0.543478261 L7.875,0.543478261 C8.49632034,0.543478261 9,1.03012527 9,1.63043478 Z"/><path fill="#191970" d="M4.5 4.34782609C4.18933983 4.34782609 3.9375 4.10450258 3.9375 3.80434783L3.9375 2.7173913C3.9375 2.41723655 4.18933983 2.17391304 4.5 2.17391304 4.81066017 2.17391304 5.0625 2.41723655 5.0625 2.7173913L5.0625 3.80434783C5.0625 4.10450258 4.81066017 4.34782609 4.5 4.34782609ZM6.75 4.34782609C6.43933983 4.34782609 6.1875 4.10450258 6.1875 3.80434783L6.1875 2.7173913C6.1875 2.41723655 6.43933983 2.17391304 6.75 2.17391304 7.06066017 2.17391304 7.3125 2.41723655 7.3125 2.7173913L7.3125 3.80434783C7.3125 4.10450258 7.06066017 4.34782609 6.75 4.34782609Z"/><path fill="#FFF" d="M16.025625,8.15217391 L9,5.43478261 L9,3.80434783 L2.25,3.80434783 L2.25,5.43478261 L1.220625,6.42934783 C0.798775715,6.83738501 0.562030616,7.39066023 0.562499303,7.9673913 L0.562499303,22.2826087 C0.562499303,23.4832277 1.56985931,24.4565217 2.8125,24.4565217 L15.1875,24.4565217 C16.4301407,24.4565217 17.4375,23.4832277 17.4375,22.2826087 L17.4375,10.1684783 C17.4370111,9.28092446 16.8781324,8.48278762 16.025625,8.15217391 Z M15.1875001,18.7173913 C15.1877458,19.2153242 14.837779,19.6497456 14.338125,19.7717391 L13.629375,19.9402174 C13.2327431,20.0388527 12.8223149,19.8359129 12.673125,19.4673913 C11.4191995,16.4406543 11.5417005,13.0437681 13.010625,10.1086957 C13.1436888,9.83842521 13.4264888,9.66685799 13.73625,9.66846688 C13.944375,9.66846688 14.02875,9.7173913 14.47875,9.89673913 C14.9051588,10.0608154 15.185648,10.4587183 15.1875001,10.9021739 L15.1875001,18.7173913 Z"/><path fill="#FFF" d="M10.6425,22.826087 L2.8125,22.826087 C2.50183983,22.826087 2.25,22.5827635 2.25,22.2826087 L2.25,8.15217391 C2.25,7.85201916 2.50183983,7.60869565 2.8125,7.60869565 C8.6625,7.60869565 8.353125,7.57608696 8.634375,7.68478261 L11.345625,8.69565217 C11.4535795,8.73465344 11.5392223,8.81624695 11.5810995,8.9199933 C11.6229767,9.02373965 11.6171213,9.13981074 11.565,9.23913043 C9.81989941,12.6190294 9.65207048,16.5581741 11.10375,20.0652174 L11.66625,21.2934783 C11.8225631,21.629451 11.7921274,22.0190518 11.5853901,22.3285487 C11.3786528,22.6380455 11.0237486,22.8253191 10.6425,22.826087 Z"/><path fill="#191970" d="M16.23375,7.64673913 L9.5625,5.06521739 L9.5625,1.63043478 C9.5625,0.729970517 8.80698052,0 7.875,0 L3.375,0 C2.44301948,0 1.6875,0.729970517 1.6875,1.63043478 L1.6875,5.21195652 C0.7875,6.08152174 -9.99200722e-16,6.65217391 -9.99200722e-16,7.9673913 L-9.99200722e-16,22.2826087 C-9.99200722e-16,23.7833825 1.25919914,25 2.8125,25 L15.1875,25 C16.7408009,25 18,23.7833825 18,22.2826087 L18,10.1684783 C17.9997326,9.0582055 17.3004123,8.05976058 16.23375,7.64673913 Z M2.8125,1.63043478 C2.8125,1.33028003 3.06433983,1.08695652 3.375,1.08695652 L7.875,1.08695652 C8.18566017,1.08695652 8.4375,1.33028003 8.4375,1.63043478 L8.4375,3.26086957 L2.8125,3.26086957 L2.8125,1.63043478 Z M16.875,22.2826087 C16.875,23.183073 16.1194805,23.9130435 15.1875,23.9130435 L2.8125,23.9130435 C1.88051948,23.9130435 1.125,23.183073 1.125,22.2826087 L1.125,7.9673913 C1.12539387,7.5351188 1.3034419,7.12068991 1.62,6.81521739 C2.745,5.72826087 2.8125,5.72826087 2.8125,5.43478261 L2.8125,4.34782609 L8.4375,4.34782609 L8.4375,5.43478261 C8.43727685,5.65750209 8.57771941,5.85781125 8.791875,5.94021739 L15.811875,8.6576087 C16.4524373,8.9040925 16.8733685,9.50230265 16.875,10.1684783 L16.875,22.2826087 Z"/><path fill="#191970" d="M14.6925 9.39130435 14.248125 9.23913043C13.5798003 8.98119124 12.8187621 9.26582452 12.504375 9.89130435 10.9707063 12.9596583 10.8421144 16.5094679 12.15 19.673913 12.4075795 20.2938647 13.0992548 20.6349687 13.77 20.4728261L14.473125 20.3043478C15.225761 20.1219208 15.7526299 19.467105 15.7500098 18.7173913L15.7500098 10.9021739C15.7492907 10.2373387 15.3308531 9.63950926 14.6925 9.39130435L14.6925 9.39130435ZM14.625 18.7173913C14.6327139 18.973205 14.4546656 19.1995568 14.1975 19.2608696L13.5 19.4130435C13.3765632 19.4436045 13.2488568 19.3807465 13.201875 19.2663043 11.9945987 16.3784961 12.1028306 13.1328206 13.5 10.326087 13.5410896 10.2454752 13.6263771 10.1947654 13.719375 10.1956407 13.78125 10.1956407 13.77 10.1956407 14.25375 10.3804348 14.4679056 10.4628409 14.6083482 10.6631501 14.608125 10.8858696L14.625 18.7173913ZM7.875 11.9565217C7.875 12.856986 7.11948052 13.5869565 6.1875 13.5869565 5.25551948 13.5869565 4.5 12.856986 4.5 11.9565217 4.5 11.0543478 6.1875 9.23913043 6.1875 9.23913043 6.1875 9.23913043 7.875 11.0543478 7.875 11.9565217ZM8.4375 16.3043478 3.9375 16.3043478C3.62683983 16.3043478 3.375 16.0610243 3.375 15.7608696 3.375 15.4607148 3.62683983 15.2173913 3.9375 15.2173913L8.4375 15.2173913C8.74816017 15.2173913 9 15.4607148 9 15.7608696 9 16.0610243 8.74816017 16.3043478 8.4375 16.3043478ZM8.4375 18.4782609 3.9375 18.4782609C3.62683983 18.4782609 3.375 18.2349374 3.375 17.9347826 3.375 17.6346279 3.62683983 17.3913043 3.9375 17.3913043L8.4375 17.3913043C8.74816017 17.3913043 9 17.6346279 9 17.9347826 9 18.2349374 8.74816017 18.4782609 8.4375 18.4782609Z"/><rect width="3.375" height="2.174" x="3.375" y="19.565" fill="#191970" rx="1"/></g></g></svg>