<svg xmlns="http://www.w3.org/2000/svg" width="42" height="42" viewBox="0 0 42 42"><g fill="none" fill-rule="evenodd"><rect width="42" height="42" fill="#FFF" rx="21"/><g stroke="#191970" stroke-linecap="round" transform="translate(13 8.5)"><polyline points="7.979 24.574 7.979 15.303 7.979 9.878"/><line x1="7.979" x2="7.979" y1="6.5" y2="1.069"/><path d="M9.67021277,8.19148936 C9.66759981,8.82848887 9.30512188,9.40927737 8.73404255,9.69148936 C8.50026051,9.81105299 8.2413048,9.87305647 7.9787234,9.87234043 C7.33559788,9.87662888 6.74751814,9.51011439 6.46808511,8.93085106 C6.35205667,8.70169926 6.29190685,8.44834093 6.29254804,8.19148936 C6.29213061,7.41049186 6.82808339,6.73141444 7.58780195,6.55034818 C8.34752052,6.36928192 9.13215391,6.73361964 9.48404255,7.43085106 C9.60550065,7.6660611 9.66931113,7.9267725 9.67021277,8.19148936 L9.67021277,8.19148936 Z"/><path d="M7.9787234 6.5 7.9787234 1.06382979C7.9787234.770061303 8.21686981.531914894 8.5106383.531914894L15.1329787.531914894C15.3564022.523374576 15.5613167.655466388 15.6457886.862482087 15.7302605 1.06949779 15.6762556 1.30724058 15.5106383 1.45744681 13.5070922 3.45035461 11.5 5.44680851 9.4893617 7.44680851M7.9787234 9.87234043 7.9787234 15.2978723C7.9787234 15.5916408 7.74057699 15.8297872 7.44680851 15.8297872L.824468085 15.8297872C.603548032 15.8357411.401960539 15.7044714.318052545 15.5000195.234144552 15.2955676.285398098 15.0605307.446808511 14.9095745L6.46808511 8.93085106C6.74751814 9.51011439 7.33559788 9.87662888 7.9787234 9.87234043L7.9787234 9.87234043ZM7.2287234 6.67553191C6.65336951 6.96126333 6.29035729 7.54909562 6.29255319 8.19148936L.824468085 8.19148936C.530699601 8.19148936.292553191 7.95334295.292553191 7.65957447L.292553191 1.06382979C.289021773.845349778.419463847.646935242.621440879.563561003.823417911.480186763 1.05583716.52881552 1.20744681.686170213L7.2287234 6.67553191ZM15.6702128 8.7287234 15.6702128 15.2978723C15.6760056 15.5173281 15.5463812 15.7177985 15.3438757 15.8025683 15.1413701 15.887338 14.9075895 15.8389907 14.7553191 15.6808511L8.73404255 9.69148936C9.30512188 9.40927737 9.66759981 8.82848887 9.67021277 8.19148936L15.1382979 8.19148936C15.2802969 8.19148936 15.416404 8.24825271 15.5163117 8.3491595 15.6162194 8.4500663 15.6716328 8.58673145 15.6702128 8.7287234Z"/><line x1="7.979" x2="3.713" y1="1.133" y2="3.191"/><line x1="13.043" x2="15.101" y1="3.92" y2="8.186"/><line x1="12.25" x2="7.984" y1="13.186" y2="15.245"/><line x1=".846" x2="2.904" y1="8.191" y2="12.457"/></g></g></svg>