<svg xmlns="http://www.w3.org/2000/svg" width="42" height="42" viewBox="0 0 42 42"><g fill="none" fill-rule="evenodd"><rect width="42" height="42" fill="#FFF" rx="21"/><g fill="#191970" fill-rule="nonzero" transform="translate(9 13)"><path d="M24.8087766,11.1659574 C24.7949468,11.0957447 24.7454787,10.7898936 24.6720745,10.3369681 C23.9037234,5.61303191 23.5042553,3.51090426 23.293617,3.08138298 C22.4140887,1.31719219 20.6250094,0.189903011 18.6539894,0.157978723 C18.6319519,0.154989916 18.6097392,0.153457447 18.5875,0.153457447 L6.4125,0.153457447 C6.39052588,0.153457447 6.3685785,0.154990406 6.34680851,0.157978723 C4.37549969,0.189607257 2.58604283,1.31694047 1.70638298,3.08138298 C1.49547872,3.51090426 1.0962766,5.61303191 0.327925532,10.3369681 C0.252659574,10.8007979 0.202659574,11.1103723 0.193351064,11.1574468 C-0.332276707,13.2506712 0.841736941,15.395805 2.88816879,16.0813628 C4.93460063,16.7669206 7.16391815,15.7619079 8.00531915,13.7744681 L8.49148936,12.8329787 C8.77915381,12.2712024 9.35768666,11.9183282 9.98882979,11.9196809 L15.0101064,11.9196809 C15.6412495,11.9183282 16.2197824,12.2712024 16.5074468,12.8329787 L16.993617,13.7744681 C17.6451366,15.3065436 19.1489775,16.3010639 20.8138298,16.3010639 C21.245659,16.3010639 21.6747616,16.232651 22.0851064,16.0981383 C24.1440942,15.4205037 25.331925,13.2695104 24.8087766,11.1659574 Z M14.9864362,1.08430851 L14.9265957,1.55239362 C14.876011,1.9435451 14.543344,2.2366197 14.1489362,2.2375 L10.8510638,2.2375 C10.4566436,2.23677047 10.1238584,1.94380569 10.0731383,1.55265957 L10.0132979,1.08430851 L14.9864362,1.08430851 Z M21.7960106,15.212766 C20.20819,15.725404 18.4921555,14.9376895 17.8457447,13.3994681 C17.8406915,13.387234 17.8351064,13.375266 17.8292553,13.3635638 L17.3351064,12.406117 C16.8882507,11.5340284 15.9900118,10.9862691 15.0101064,10.9882979 L9.98989362,10.9882979 C9.00998825,10.9862691 8.11174932,11.5340284 7.66489362,12.406117 L7.17074468,13.3635638 C7.16489362,13.375266 7.15930851,13.387234 7.15425532,13.3994681 C6.50978755,14.9466248 4.78094871,15.7346526 3.19040962,15.2062417 C1.59987053,14.6778308 0.686278431,13.0119314 1.09574468,11.3867021 C1.10771277,11.3390957 1.12234043,11.2465426 1.24680851,10.4864362 C1.94654255,6.18404255 2.38244681,3.83031915 2.54202128,3.49175532 C3.27496057,2.02370782 4.77272998,1.09409687 6.41356383,1.08882979 C6.43393097,1.08884325 6.45427673,1.08751055 6.47446809,1.08484043 L9.07526596,1.08484043 L9.15,1.66994681 C9.26084218,2.52577104 9.98915615,3.16668733 10.8521277,3.16781915 L14.1489362,3.16781915 C15.0119966,3.16666993 15.7403438,2.52561062 15.8510638,1.66968085 L15.9257979,1.08457447 L18.5260638,1.08457447 C18.5464335,1.08724416 18.5669561,1.0885768 18.5875,1.08856383 C20.2281965,1.09381895 21.7258537,2.02332123 22.4587766,3.4912234 C22.6183511,3.83058511 23.0545213,6.18430851 23.7542553,10.4859043 C23.8779255,11.2460106 23.8933511,11.3385638 23.9053191,11.3861702 C24.31424,13.0174483 23.393643,14.6875466 21.7960106,15.212766 Z"/><path d="M8.56382979 4.80957447 7.8018617 4.80957447 7.8018617 4.04707447C7.80127527 3.45287702 7.31972937 2.97133111 6.72553191 2.97074468L6.09973404 2.97074468C5.50549341 2.97133084 5.02387128 3.452834 5.0231383 4.04707447L5.0231383 4.80957447 4.2606383 4.80957447C3.66650152 4.81030716 3.1850412 5.29176748 3.18430851 5.88590426L3.18430851 6.51196809C3.18489494 7.10616554 3.66644085 7.58771144 4.2606383 7.58829787L5.0231383 7.58829787 5.0231383 8.35106383C5.02387128 8.9453043 5.50549341 9.42680745 6.09973404 9.42739362L6.72553191 9.42739362C7.31972937 9.42680719 7.80127527 8.94526128 7.8018617 8.35106383L7.8018617 7.58829787 8.56382979 7.58829787C9.15802724 7.58771144 9.63957315 7.10616554 9.64015957 6.51196809L9.64015957 5.88590426C9.63942689 5.29176748 9.15796656 4.81030716 8.56382979 4.80957447L8.56382979 4.80957447ZM8.70930851 6.51170213C8.70930851 6.59204781 8.64417547 6.65718085 8.56382979 6.65718085L7.33643617 6.65718085C7.07944955 6.65732757 6.87115736 6.86561976 6.87101064 7.12260638L6.87101064 8.35106383C6.87101064 8.43140951 6.8058776 8.49654255 6.72553191 8.49654255L6.09973404 8.49654255C6.01934523 8.49654255 5.95413606 8.43145251 5.95398936 8.35106383L5.95398936 7.12287234C5.95398936 6.86582492 5.74561125 6.65744681 5.48856383 6.65744681L4.2606383 6.65744681C4.18029262 6.65744681 4.11515957 6.59231377 4.11515957 6.51196809L4.11515957 5.88590426C4.11530595 5.80561928 4.18035333 5.7405719 4.2606383 5.74042553L5.48856383 5.74042553C5.61202399 5.74049614 5.73044782 5.69148305 5.81774735 5.60418352 5.90504688 5.51688399 5.95405997 5.39846016 5.95398936 5.275L5.95398936 4.04707447C5.95428187 3.96674649 6.01940567 3.90174153 6.09973404 3.90159574L6.72553191 3.90159574C6.80581689 3.90174212 6.87086427 3.9667895 6.87101064 4.04707447L6.87101064 5.275C6.87101064 5.53204742 7.07938875 5.74042553 7.33643617 5.74042553L8.56382979 5.74042553C8.64411476 5.7405719 8.70916214 5.80561928 8.70930851 5.88590426L8.70930851 6.51170213ZM18.3215426 2.93803191C17.8087697 2.93803191 17.3930851 3.35371647 17.3930851 3.86648936 17.3930851 4.37926225 17.8087697 4.79494681 18.3215426 4.79494681 18.8343154 4.79494681 19.25 4.37926225 19.25 3.86648936 19.25 3.35371647 18.8343154 2.93803191 18.3215426 2.93803191ZM18.3215426 7.60292553C17.9460166 7.60292553 17.6074673 7.82913693 17.4637597 8.1760777 17.3200521 8.52301847 17.399487 8.92236457 17.665024 9.18790154 17.930561 9.4534385 18.3299071 9.53287338 18.6768478 9.38916581 19.0237886 9.24545824 19.25 8.90690896 19.25 8.53138298 19.25 8.01861009 18.8343154 7.60292553 18.3215426 7.60292553L18.3215426 7.60292553ZM20.6539894 5.27047872C20.1412165 5.27047872 19.7255319 5.68616328 19.7255319 6.19893617 19.7255319 6.71170906 20.1412165 7.12739362 20.6539894 7.12739362 21.1667623 7.12739362 21.5824468 6.71170906 21.5824468 6.19893617 21.5824468 5.68616328 21.1667623 5.27047872 20.6539894 5.27047872L20.6539894 5.27047872ZM15.9890957 5.27047872C15.4763229 5.27047872 15.0606383 5.68616328 15.0606383 6.19893617 15.0606383 6.71170906 15.4763229 7.12739362 15.9890957 7.12739362 16.5018686 7.12739362 16.9175532 6.71170906 16.9175532 6.19893617 16.9175532 5.68616328 16.5018686 5.27047872 15.9890957 5.27047872L15.9890957 5.27047872ZM10.9898936 9.11196809 10.1462766 9.11196809C9.88922917 9.11196809 9.68085106 9.32034619 9.68085106 9.57739362 9.68085106 9.83444104 9.88922917 10.0428191 10.1462766 10.0428191L10.9898936 10.0428191C11.246941 10.0428191 11.4553191 9.83444104 11.4553191 9.57739362 11.4553191 9.32034619 11.246941 9.11196809 10.9898936 9.11196809L10.9898936 9.11196809ZM14.8537234 9.11196809 14.0101064 9.11196809C13.753059 9.11196809 13.5446809 9.32034619 13.5446809 9.57739362 13.5446809 9.83444104 13.753059 10.0428191 14.0101064 10.0428191L14.8537234 10.0428191C15.1107708 10.0428191 15.3191489 9.83444104 15.3191489 9.57739362 15.3191489 9.32034619 15.1107708 9.11196809 14.8537234 9.11196809Z"/></g></g></svg>