<svg xmlns="http://www.w3.org/2000/svg" width="42" height="42" viewBox="0 0 42 42"><g fill="none" fill-rule="evenodd"><rect width="42" height="42" fill="#FFF" rx="21"/><g fill="#191970" fill-rule="nonzero" transform="translate(13.5 8.5)"><path d="M12.28725,12.0050781 L8.4045,11.1964844 C7.87927874,11.085736 7.50127928,10.6054662 7.5,10.0472656 L7.5,5.859375 C7.50018021,5.30145949 7.87793285,4.8210328 8.403,4.7109375 L10.099125,8.28671875 C10.4127338,8.95514514 11.0656566,9.37791095 11.779875,9.375 L12.348,9.375 C12.4778846,9.37547102 12.5987544,9.30589727 12.6674906,9.19109842 C12.7362267,9.07629957 12.74304,8.93262465 12.6855,8.81132812 L10.728375,4.6875 L10.875,4.6875 C11.4963203,4.6875 12,4.16283369 12,3.515625 L12,1.953125 C12,1.30591631 11.4963203,0.78125 10.875,0.78125 L10.174875,0.78125 C7.33754227,-0.136018159 4.31598216,-0.243932561 1.425,0.46875 C0.58308589,0.678185794 -0.00811150042,1.4659628 -8.24487513e-05,2.36757812 L-8.24487513e-05,2.734375 C0.00123979363,3.81252076 0.839980068,4.68620855 1.875,4.6875 C2.08210678,4.6875 2.25,4.86238877 2.25,5.078125 L2.25,8.92148437 L1.76025,10.4515625 C1.58765386,10.9900859 1.49977015,11.554133 1.5,12.121875 L1.5,23.046875 C1.50123979,24.1250208 2.33998007,24.9987085 3.375,25 L13.125,25 C14.1600199,24.9987085 14.9987602,24.1250208 15,23.046875 L15,15.4527344 C14.9965252,13.7782642 13.8627749,12.3373715 12.28725,12.0050781 Z M4.5,8.59375 L4.5,7.03125 L5.25,7.03125 L5.25,8.59375 L4.5,8.59375 Z M3,8.59375 L3,7.03125 L3.75,7.03125 L3.75,8.59375 L3,8.59375 Z M6,7.03125 L6.75,7.03125 L6.75,8.59375 L6,8.59375 L6,7.03125 Z M10.7715,7.940625 L9.228375,4.6875 L9.892125,4.6875 L11.743875,8.59375 C11.3293639,8.5780304 10.9562921,8.32744549 10.7715,7.940625 L10.7715,7.940625 Z M11.25,1.953125 L11.25,3.515625 C11.25,3.73136123 11.0821068,3.90625 10.875,3.90625 L10.5,3.90625 L10.5,1.5625 L10.875,1.5625 C11.0821068,1.5625 11.25,1.73738877 11.25,1.953125 Z M1.875,3.90625 C1.25367966,3.90625 0.74999557,3.38158369 0.74999557,2.734375 L0.74999557,2.36757812 C0.748560693,1.83087893 1.09798942,1.36204272 1.5975,1.23046875 C4.287985,0.565298914 7.09883101,0.646107504 9.74999557,1.46484375 L9.74999557,3.90625 L8.625,3.90625 C7.58998007,3.90754145 6.75123979,4.78122924 6.74999557,5.859375 L6.74999557,6.25 L3,6.25 L3,5.078125 C3,4.43091631 2.49632034,3.90625 1.875,3.90625 Z M14.2499998,23.046875 C14.2499998,23.6940837 13.7463203,24.21875 13.125,24.21875 L3.375,24.21875 C2.75367966,24.21875 2.24999976,23.6940837 2.24999976,23.046875 L2.24999976,12.121875 C2.24984632,11.6381908 2.32468484,11.1576552 2.471625,10.6988281 L2.895375,9.375 L6.74999976,9.375 L6.74999976,10.0472656 C6.75243455,10.9772188 7.38243111,11.7771211 8.2575,11.9613281 L12.139875,12.7699219 C13.3658607,13.0283192 14.247935,14.1497883 14.2499998,15.4527344 L14.2499998,23.046875 Z"/><path d="M11.625,14.0625 L4.875,14.0625 C4.25367966,14.0625 3.75,14.5871663 3.75,15.234375 L3.75,16.796875 C3.75,17.0126112 3.91789322,17.1875 4.125,17.1875 C4.33210678,17.1875 4.5,17.0126112 4.5,16.796875 L4.5,15.234375 C4.5,15.0186388 4.66789322,14.84375 4.875,14.84375 L11.625,14.84375 C11.8321068,14.84375 12,15.0186388 12,15.234375 L12,22.265625 C12,22.4813612 11.8321068,22.65625 11.625,22.65625 L4.875,22.65625 C4.66789322,22.65625 4.5,22.4813612 4.5,22.265625 L4.5,18.359375 C4.5,18.1436388 4.33210678,17.96875 4.125,17.96875 C3.91789322,17.96875 3.75,18.1436388 3.75,18.359375 L3.75,22.265625 C3.75,22.9128337 4.25367966,23.4375 4.875,23.4375 L11.625,23.4375 C12.2463203,23.4375 12.75,22.9128337 12.75,22.265625 L12.75,15.234375 C12.75,14.5871663 12.2463203,14.0625 11.625,14.0625 Z"/></g></g></svg>