<svg xmlns="http://www.w3.org/2000/svg" width="42" height="42" viewBox="0 0 42 42"><g fill="none" fill-rule="evenodd"><rect width="42" height="42" fill="#FFF" rx="21"/><g fill="#191970" fill-rule="nonzero" transform="translate(8.5 11.5)"><path d="M22.7942383,0.03305 L2.20576172,0.03305 C0.989550781,0.03305 0,1.0463 0,2.29175 L0,7.46855 C0,8.714 0.989550781,9.72725 2.20576172,9.72725 L22.7941895,9.72725 C24.0104492,9.72725 24.9999512,8.714 24.9999512,7.46855 L24.9999512,2.29175 C24.9999512,1.0463 24.0104492,0.03305 22.7942383,0.03305 Z M24.2526855,7.6565 L9.71801758,7.6565 C9.51489258,7.6565 9.35029297,7.8251 9.35029297,8.03305 C9.35029297,8.241 9.51489258,8.4096 9.71801758,8.4096 L23.9407227,8.4096 C23.6710449,8.7534 23.2574219,8.97415 22.7942383,8.97415 L2.20576172,8.97415 C1.74257813,8.97415 1.32900391,8.7535 1.05927734,8.4096 L8.24707031,8.4096 C8.45019531,8.4096 8.61479492,8.241 8.61479492,8.03305 C8.61479492,7.8251 8.45019531,7.6565 8.24707031,7.6565 L0.747314453,7.6565 C0.728662109,7.5038 0.738037109,7.4317 0.735318727,7.1861 L15.2099609,7.1861 C15.4130859,7.1861 15.5776855,7.0175 15.5776855,6.80955 C15.5776855,6.6016 15.4130859,6.433 15.2099609,6.433 L0.735318727,6.433 L0.735318727,2.29175 C0.735318727,1.46155 1.39501953,0.78615 2.20576172,0.78615 L22.7941895,0.78615 C23.6049316,0.78615 24.2647068,1.46155 24.2647068,2.29175 L24.2647068,6.433 L16.6808594,6.433 C16.4777344,6.433 16.3131348,6.6016 16.3131348,6.80955 C16.3131348,7.0175 16.4777344,7.1861 16.6808594,7.1861 L24.2647068,7.1861 C24.2619629,7.4275 24.2714355,7.50285 24.2526855,7.6565 Z"/><circle cx="21.237" cy="5.162" r="1"/><circle cx="23.185" cy="5.162" r="1"/><path d="M23.2371094 15.3248 21.9487305 14.50495 23.2371094 13.6851C23.409668 13.57535 23.4625977 13.34315 23.3553711 13.1665 23.2481934 12.9898 23.0213379 12.93565 22.8489746 13.0454L21.6197754 13.82755 21.6197754 12.3456C21.6197754 12.13765 21.4551758 11.96905 21.2520508 11.96905 21.0489258 11.96905 20.8843262 12.13765 20.8843262 12.3456L20.8843262 13.8276 19.6550781 13.0454C19.482666 12.93555 19.2558105 12.9898 19.1486816 13.1665 19.0414551 13.34315 19.0944336 13.57535 19.2669434 13.6851L20.5553223 14.50495 19.2669434 15.3248C19.0943848 15.43455 19.0414551 15.66675 19.1486816 15.8434 19.2183105 15.9582 19.3384277 16.02125 19.461377 16.02125 19.6453125 16.02125 19.6318848 15.9568 20.884375 15.1823L20.884375 16.6643C20.884375 16.87225 21.0489746 17.04085 21.2520996 17.04085 21.4552246 17.04085 21.6198242 16.87225 21.6198242 16.6643L21.6198242 15.18235C22.873584 15.95765 22.8585449 16.02125 23.0427734 16.02125 23.4112793 16.02125 23.5507813 15.5244 23.2371094 15.3248ZM9.46113281 14.19935 8.17275391 13.3795 9.46113281 12.55965C9.63369141 12.4499 9.68662109 12.2177 9.57939453 12.04105 9.4722168 11.86435 9.24536133 11.81025 9.07299805 11.91995L7.84375 12.70215 7.84375 11.22015C7.84375 11.0122 7.67915039 10.8436 7.47602539 10.8436 7.27290039 10.8436 7.10830078 11.0122 7.10830078 11.22015L7.10830078 12.7021 5.87910156 11.91995C5.70668945 11.81015 5.47983398 11.8644 5.37270508 12.04105 5.26547852 12.2177 5.31845703 12.4499 5.4909668 12.55965L6.7793457 13.3795 5.4909668 14.19935C5.3184082 14.3091 5.26547852 14.5413 5.37270508 14.71795 5.47929687 14.8937 5.70581055 14.94935 5.87910156 14.83905L7.10830078 14.0569 7.10830078 15.53885C7.10830078 15.7468 7.27290039 15.9154 7.47602539 15.9154 7.67915039 15.9154 7.84375 15.7468 7.84375 15.53885L7.84375 14.05685C9.09780273 14.8323 9.08251953 14.8958 9.26674805 14.8958 9.63535156 14.8958 9.77485352 14.39885 9.46113281 14.19935ZM13.9584473 17.6524 13.3754395 17.2814 13.9584473 16.9104C14.1309082 16.8006 14.1838379 16.5684 14.0766602 16.39175 13.9694336 16.2151 13.7427246 16.1609 13.5702148 16.27065L13.0463867 16.604 13.0463867 15.9725C13.0463867 15.76455 12.8817871 15.59595 12.6786621 15.59595 12.4755371 15.59595 12.3109375 15.76455 12.3109375 15.9725L12.3109375 16.604 11.7871582 16.2707C11.6145996 16.16085 11.3878418 16.21515 11.2807129 16.3918 11.1734863 16.56845 11.2264648 16.80065 11.3989258 16.9104L11.9819336 17.2814 11.3989258 17.6524C11.226416 17.76215 11.1734863 17.99435 11.2807129 18.171 11.3884766 18.34855 11.6154297 18.4013 11.7871582 18.2921L12.3109375 17.9588 12.3109375 18.5903C12.3109375 18.79825 12.4755371 18.96685 12.6786621 18.96685 12.8817871 18.96685 13.0463867 18.79825 13.0463867 18.5903L13.0463867 17.95875 13.5702148 18.2921C13.7416016 18.4012 13.9687988 18.3488 14.0766602 18.171 14.1838867 17.99435 14.1309082 17.76215 13.9584473 17.6524ZM2.44794922 12.6617C1.8237793 12.6617 1.31591797 13.1817 1.31591797 13.8209 1.31591797 14.4601 1.82373047 14.9801 2.44794922 14.9801 3.07216797 14.9801 3.57998047 14.4601 3.57998047 13.8209 3.57998047 13.1817 3.07211914 12.6617 2.44794922 12.6617ZM2.44794922 14.22695C2.22924805 14.22695 2.05136719 14.0448 2.05136719 13.82085 2.05136719 13.59695 2.22924805 13.41475 2.44794922 13.41475 2.66665039 13.41475 2.84453125 13.5969 2.84453125 13.82085 2.84453125 14.04475 2.66665039 14.22695 2.44794922 14.22695ZM15.6758789 10.94135C15.051709 10.94135 14.5438477 11.46135 14.5438477 12.10055 14.5438477 12.73975 15.0516602 13.25975 15.6758789 13.25975 16.3000977 13.25975 16.8079102 12.73975 16.8079102 12.10055 16.8079102 11.4614 16.3000488 10.94135 15.6758789 10.94135ZM15.6758789 12.5067C15.4571777 12.5067 15.2792969 12.32455 15.2792969 12.1006 15.2792969 11.8767 15.4571777 11.6945 15.6758789 11.6945 15.8945801 11.6945 16.0724609 11.87665 16.0724609 12.1006 16.0724121 12.3245 15.8945312 12.5067 15.6758789 12.5067ZM13.6312012 2.14685 11.4330078 2.14685C11.2298828 2.14685 11.0652832 2.31545 11.0652832 2.5234 11.0652832 2.73135 11.2298828 2.89995 11.4330078 2.89995L13.6312012 2.89995C13.8343262 2.89995 13.9989258 2.73135 13.9989258 2.5234 13.9989258 2.31545 13.8343262 2.14685 13.6312012 2.14685Z"/></g></g></svg>