<svg xmlns="http://www.w3.org/2000/svg" width="42" height="42" viewBox="0 0 42 42"><g fill="none" fill-rule="evenodd"><rect width="42" height="42" fill="#FFF" rx="21"/><g fill="#191970" fill-rule="nonzero" transform="translate(7.5 10)"><path d="M24.7429167,13.866875 C23.0774529,12.0868729 20.9929219,10.7520712 18.679375,9.98416667 C19.5300893,9.58961479 20.3455525,9.12312799 21.116875,8.58979167 L24.301875,10.3733333 C24.4247245,10.4421754 24.5762367,10.4341112 24.6910847,10.3526177 C24.8059326,10.2711242 24.8635782,10.1307748 24.8391667,9.99208333 C24.6810553,9.08312596 24.5867969,8.16421121 24.5570833,7.24208333 C24.5870229,6.31997068 24.6812796,5.40107167 24.8391667,4.49208333 C24.8635782,4.3533919 24.8059326,4.21304248 24.6910847,4.13154899 C24.5762367,4.05005551 24.4247245,4.04199128 24.301875,4.11083333 L21.1166667,5.89583333 C18.7936525,4.22838881 16.1241695,3.10689972 13.3072917,2.615 C13.4114583,1.64375 13.604375,0.566666667 13.6066667,0.554583333 C13.6298187,0.426904777 13.5833633,0.296543063 13.4846844,0.212279823 C13.3860054,0.128016583 13.2499765,0.102552644 13.1275,0.145416667 C13.0141667,0.185 10.4066667,1.10708333 9.12541667,2.49958333 C8.19851245,2.6035599 7.2841873,2.79909791 6.39583333,3.08333333 C4.05251698,3.84667752 1.94068602,5.19103908 0.257291667,6.99104167 C0.126040426,7.12884935 0.122864818,7.34442779 0.25,7.48604167 C1.73416667,9.14291667 3.85020833,10.381875 6.36958333,11.069375 C6.45958333,11.09375 6.55020833,11.1152083 6.64041667,11.138125 C5.68078487,11.6105556 4.75908426,12.1564157 3.88354167,12.7708333 L0.698958333,10.988125 C0.576108804,10.9192829 0.424596609,10.9273472 0.309748681,11.0088407 C0.194900753,11.0903342 0.137255134,11.2306836 0.161666667,11.369375 C0.319524805,12.2781572 0.413781465,13.1968464 0.44375,14.11875 C0.413980646,15.0408741 0.319722668,15.959785 0.161666667,16.86875 C0.13743536,17.0073938 0.195124773,17.1476099 0.309909082,17.2290583 C0.42469339,17.3105066 0.576094208,17.3186562 0.698958333,17.25 L3.88395833,15.4664583 C6.69215158,17.3721588 9.98506777,18.4385555 13.3772917,18.5408333 C13.3,19.336875 13.148125,20.26125 13.0772917,20.6658333 C13.0482555,20.7752818 13.0716916,20.8920085 13.140724,20.981767 C13.2097565,21.0715255 13.3165571,21.1241667 13.4297917,21.1241667 C13.4750404,21.1241667 13.5198923,21.1157263 13.5620833,21.099375 C13.8014583,21.0160417 17.06375,19.8445833 17.91625,18.1220833 C18.155625,18.0679167 18.3941667,18.010625 18.6308333,17.94625 C21.1497917,17.25875 23.2660417,16.0195833 24.7502083,14.3629167 C24.8776844,14.2210346 24.874508,14.0049488 24.7429167,13.866875 Z M21.271875,6.64416667 L24.005,5.11375 C23.9003957,5.81895717 23.840969,6.53012889 23.8270833,7.24291667 C23.840954,7.95555892 23.9003108,8.66658856 24.0047917,9.37166667 L21.271875,7.84145833 C21.1486355,7.77210042 20.9964132,7.78021894 20.88125,7.86229167 C19.826815,8.61339492 18.6849636,9.23350097 17.4808333,9.70895833 C17.4729167,9.71166667 17.4652083,9.715 17.4575,9.718125 C14.1333174,11.0315925 10.4870393,11.2974306 7.0075,10.48 C7.54965694,9.41428815 7.82923006,8.23442388 7.82291667,7.03875 C7.8300574,5.86351886 7.56207957,4.70292369 7.04041667,3.64979167 C11.461875,2.39395833 16.4795833,3.465625 20.88125,6.62229167 C20.9961711,6.70479604 21.1484608,6.71332426 21.271875,6.64416667 L21.271875,6.64416667 Z M10.8916667,11.6745833 C10.943125,12.2247917 11.030625,12.8395833 11.1054167,13.3158333 C10.2083333,12.9420833 8.84083333,12.2516667 8.10895833,11.4458333 C9.02913914,11.5945669 9.95954978,11.6710504 10.8916667,11.6745833 L10.8916667,11.6745833 Z M12.781875,1.06354167 C12.718125,1.46354167 12.6402083,1.99833333 12.5847917,2.51541667 C11.8308314,2.4265252 11.0713293,2.3935185 10.3125,2.41666667 C11.0801235,1.87100237 11.9088656,1.41688278 12.781875,1.06354167 L12.781875,1.06354167 Z M6.33479167,3.8775 C6.84054077,4.85405607 7.10102242,5.93902684 7.09375,7.03875 C7.10183827,8.1721052 6.82434503,9.28924297 6.286875,10.2870833 C4.1525,9.66208333 2.34395833,8.618125 1.024375,7.24895833 C2.51212737,5.732254 4.32923927,4.5786125 6.33479167,3.8775 L6.33479167,3.8775 Z M3.72916667,14.7172917 L0.995208333,16.2477083 C1.09968618,15.54256 1.15904299,14.8314612 1.17291667,14.11875 C1.1589921,13.4060414 1.09963556,12.6949459 0.995208333,11.9897917 L3.72916667,13.5208333 C3.85235389,13.5901025 4.00446732,13.5819854 4.11958333,13.5 C5.12526718,12.7770946 6.1960682,12.1493861 7.318125,11.625 C8.39145833,13.1095833 11.1097917,14.108125 11.4222917,14.2195833 C11.5350195,14.2693692 11.6652682,14.2588396 11.7685348,14.1915923 C11.8718015,14.124345 11.9341084,14.0094823 11.9341667,13.88625 C11.9339922,13.860065 11.9312005,13.833963 11.9258333,13.8083333 L11.9227083,13.7904167 C11.8529167,13.3870833 11.7002083,12.4589583 11.623125,11.6654167 C13.6772259,11.5937787 15.7048377,11.1787359 17.621875,10.4375 C17.735,10.4660417 17.8479167,10.4947917 17.9591667,10.5260417 C16.9054356,12.6838868 16.9170657,15.2094509 17.990625,17.3575 C13.2635417,18.4997917 7.990625,17.51375 4.11875,14.739375 C4.00406994,14.6573411 3.85238244,14.6487428 3.72916667,14.7172917 L3.72916667,14.7172917 Z M13.8958333,20.1910417 C13.9708333,19.7152083 14.058125,19.1022917 14.1095833,18.550625 C15.0419177,18.5469367 15.9725347,18.470314 16.8929167,18.3214583 C16.159375,19.1272917 14.7916667,19.8175 13.8945833,20.1910417 L13.8958333,20.1910417 Z M18.7122917,17.1633333 C17.6545167,15.1617064 17.6368748,12.7705584 18.665,10.7535417 C20.6707016,11.454597 22.4879615,12.608242 23.9758333,14.125 C22.655625,15.494375 20.846875,16.5377083 18.7122917,17.1633333 Z"/><path d="M19.741875 13.9252083C20.2884068 13.9252083 20.7314583 13.4821568 20.7314583 12.935625 20.7314583 12.3890932 20.2884068 11.9460417 19.741875 11.9460417 19.1953432 11.9460417 18.7522917 12.3890932 18.7522917 12.935625 18.7529804 13.4818713 19.1956287 13.9245196 19.741875 13.9252083L19.741875 13.9252083ZM19.741875 12.6752083C19.8856992 12.6752083 20.0022917 12.7918008 20.0022917 12.935625 20.0022917 13.0794492 19.8856992 13.1960417 19.741875 13.1960417 19.5980508 13.1960417 19.4814583 13.0794492 19.4814583 12.935625 19.4816877 12.791896 19.598146 12.6754377 19.741875 12.6752083ZM15.8225 15.8297917C16.023336 15.8152942 16.1743933 15.6407319 16.1598958 15.4398958 16.1453983 15.2390598 15.970836 15.0880025 15.77 15.1025 14.140625 15.220625 13.7547917 14.8720833 13.5645833 14.160625L15.79625 14.160625C15.9976038 14.160625 16.1608579 13.9973955 16.1608579 13.7960417 16.1608579 13.5946879 15.9976038 13.4314583 15.79625 13.4314583L13.1139583 13.4314583C13.005845 13.431632 12.9033714 13.4797254 12.8341549 13.5627772 12.7649383 13.645829 12.7361017 13.7552925 12.7554167 13.8616667 12.988125 15.1341667 13.4747917 15.8520833 15.2439583 15.8520833 15.423125 15.8520833 15.6159722 15.8446528 15.8225 15.8297917ZM14.485 4.903125C14.95375 5.03041667 15.4277083 5.1825 15.893125 5.355625 16.015228 5.40099029 16.1522578 5.37776839 16.2525968 5.29470677 16.3529358 5.21164515 16.40134 5.08136284 16.379576 4.95293593 16.357812 4.82450902 16.2691863 4.71744862 16.1470833 4.67208333 15.6610417 4.49145833 15.1660417 4.3325 14.6758333 4.199375 14.4816857 4.1471897 14.2819344 4.26201265 14.2293196 4.45604427 14.1767047 4.65007589 14.2910853 4.85008086 14.485 4.903125L14.485 4.903125ZM5.25833333 5.07020833C4.85808424 5.07020833 4.49724624 5.31131257 4.34407755 5.68109452 4.19090885 6.05087647 4.2755734 6.4765139 4.55859225 6.75953275 4.8416111 7.0425516 5.26724853 7.12721615 5.63703048 6.97404745 6.00681243 6.82087876 6.24791667 6.46004076 6.24791667 6.05979167 6.24722798 5.5135454 5.8045796 5.07089702 5.25833333 5.07020833L5.25833333 5.07020833ZM5.25833333 6.32020833C5.11450918 6.32020833 4.99791667 6.20361582 4.99791667 6.05979167 4.99791667 5.91596751 5.11450918 5.799375 5.25833333 5.799375 5.40215749 5.799375 5.51875 5.91596751 5.51875 6.05979167 5.51875 6.20361582 5.40215749 6.32020833 5.25833333 6.32020833ZM8.83893375 6.92020833C8.83893375 7.12156215 9.00218785 7.28479167 9.20354167 7.28479167L11.4354167 7.28479167C11.2447917 7.99625 10.8595833 8.34395833 9.22979167 8.22666667 9.02895562 8.2121692 8.85439332 8.36322646 8.83989585 8.5640625 8.82539837 8.76489854 8.97645562 8.93946085 9.17729167 8.95395833 9.38416667 8.96895833 9.57645833 8.97625 9.75604167 8.97625 11.5247917 8.97625 12.011875 8.25833333 12.2445833 6.98583333 12.2639047 6.87942336 12.2350419 6.769924 12.1657783 6.68686404 12.0965147 6.60380409 11.9939832 6.55573697 11.8858333 6.555625L9.20354167 6.555625C9.00223548 6.55573993 8.83907327 6.71890214 8.83893375 6.92020833Z"/></g></g></svg>