<svg xmlns="http://www.w3.org/2000/svg" width="42" height="42" viewBox="0 0 42 42"><g fill="none" fill-rule="evenodd"><rect width="42" height="42" fill="#FFF" rx="21"/><g transform="translate(8 11)"><circle cx="17.42" cy="17.057" r="2.943" stroke="#191970" stroke-linecap="round"/><circle cx="7.136" cy="17.057" r="2.943" stroke="#191970" stroke-linecap="round"/><path fill="#191970" fill-rule="nonzero" d="M20.3977271,1.99431818 C19.843055,1.99745197 19.3956481,2.44908926 19.3977271,3.00376649 C19.3998206,3.55844372 19.8506122,4.0067027 20.4052923,4.00566581 C20.9599725,4.0046253 21.4090909,3.55468115 21.4090909,3 C21.4059654,2.44365945 20.9540766,1.99431818 20.3977271,1.99431818 L20.3977271,1.99431818 Z"/><path stroke="#191970" stroke-linecap="round" stroke-linejoin="round" d="M17.1079545,14.1136564 L7.17045455,14.1136564 C5.08943985,14.1011376 3.40909091,12.4105977 3.40909091,10.3295455 L3.40909091,6.10227273 C3.40909091,2.80739212 6.08011939,0.136363636 9.375,0.136363636 L20.4545455,0.136363636 C21.8938514,0.178866751 23.1977803,0.995995512 23.8636364,2.27272727 C24.4247875,3.35443411 24.7042288,4.56013527 24.6761364,5.77840909 C24.5,8.15909091 23.9602273,11.1420455 23.9602273,11.1420455 L23.9602273,11.1420455 C23.628077,11.3864511 23.2019416,11.4644312 22.8047647,11.353488 C22.4075878,11.2425447 22.083549,10.9550187 21.9261364,10.5738636 L21.9261364,10.5738636 L22.2215909,8.10227273 C22.3693182,7 22.1534091,6.39772727 21.5454545,6.23863636 C20.8068182,6.05113636 20.4090909,6.625 20.4090909,7.375 C20.4090909,7.81818182 20.4090909,9.18181818 20.4431818,10.7556818 C20.4523098,11.6450905 20.1045877,12.501053 19.4777869,13.132125 C18.850986,13.7631971 17.9974047,14.1167241 17.1079545,14.1136564 L17.1079545,14.1136564 Z"/><path stroke="#191970" stroke-linecap="round" stroke-linejoin="round" d="M4.67613636,2.40340909 C2.60227273,-0.357954545 0.0340909091,1.40909091 0.0340909091,3.86363636"/><rect width="5.818" height="7.722" x="11.369" y=".136" stroke="#191970" stroke-linecap="round" stroke-linejoin="round" rx="2.909"/></g></g></svg>