<?xml version="1.0" encoding="UTF-8"?>
<svg width="10px" height="9px" viewBox="0 0 10 9" version="1.1" xmlns="http://www.w3.org/2000/svg" xmlns:xlink="http://www.w3.org/1999/xlink">
    <title>70E7062D-3903-4A1A-86E8-336EBAB99515</title>
    <g id="Welcome" stroke="none" stroke-width="1" fill="none" fill-rule="evenodd">
        <g id="Vendeur-/-Infos-/-3-1-1-vérifié" transform="translate(-581.000000, -700.000000)" fill="#00B517">
            <g id="Group-7" transform="translate(223.500000, 665.000000)">
                <g id="Group-3" transform="translate(275.000000, 24.000000)">
                    <g id="Group-9" transform="translate(40.500000, 8.500000)">
                        <g id="2.-Forms-/-3.-Checkbox-/-Off" transform="translate(42.000000, 3.000000)">
                            <path d="M8.75,0 C8.405,0 8.0925,0.14 7.86625,0.36625 L6.61625,1.61625 L3.75,4.4825 L2.13375,2.86625 C1.9075,2.64 1.595,2.5 1.25,2.5 C0.56,2.5 0,3.06 0,3.75 C0,4.095 0.14,4.4075 0.36625,4.63375 L2.86625,7.13375 C3.0925,7.36 3.405,7.5 3.75,7.5 C4.095,7.5 4.4075,7.36 4.63375,7.13375 L8.38375,3.38375 L9.63375,2.13375 C9.86,1.9075 10,1.595 10,1.25 C10,0.559375 9.44,0 8.75,0" id="Icon"></path>
                        </g>
                    </g>
                </g>
            </g>
        </g>
    </g>
</svg>