<?xml version="1.0" encoding="UTF-8"?>
<svg width="15px" height="14px" viewBox="0 0 15 14" version="1.1" xmlns="http://www.w3.org/2000/svg" xmlns:xlink="http://www.w3.org/1999/xlink">
    <title>20F77F5E-FAB2-445E-8294-87BCE4BC29E0</title>
    <g id="Welcome" stroke="none" stroke-width="1" fill="none" fill-rule="evenodd">
        <g id="Assets" transform="translate(-1491.000000, -668.000000)" fill="#D0021B" fill-rule="nonzero">
            <g id="information-button" transform="translate(1491.500000, 668.000000)">
                <path d="M6.76923077,0 C3.03063221,0 0,3.03073798 0,6.76923077 C0,10.5079351 3.03063221,13.5384615 6.76923077,13.5384615 C10.5078293,13.5384615 13.5384615,10.5079351 13.5384615,6.76923077 C13.5384615,3.03073798 10.5078293,0 6.76923077,0 Z M6.76923077,3.38461538 C7.23657212,3.38461538 7.61538462,3.76348077 7.61538462,4.23076923 C7.61538462,4.69826923 7.23657212,5.07692308 6.76923077,5.07692308 C6.30188942,5.07692308 5.92307692,4.69826923 5.92307692,4.23076923 C5.92307692,3.76348077 6.30188942,3.38461538 6.76923077,3.38461538 Z M8.03846154,10.1538462 L5.5,10.1538462 C5.26635577,10.1538462 5.07692308,9.964625 5.07692308,9.73076923 C5.07692308,9.497125 5.26635577,9.30769231 5.5,9.30769231 L5.92307692,9.30769231 L5.92307692,6.76923077 L5.5,6.76923077 C5.26635577,6.76923077 5.07692308,6.58000962 5.07692308,6.34615385 C5.07692308,6.11250962 5.26635577,5.92307692 5.5,5.92307692 L7.19230769,5.92307692 C7.42595192,5.92307692 7.61538462,6.11250962 7.61538462,6.34615385 L7.61538462,9.30769231 L8.03846154,9.30769231 C8.27210577,9.30769231 8.46153846,9.497125 8.46153846,9.73076923 C8.46153846,9.964625 8.27210577,10.1538462 8.03846154,10.1538462 Z" id="Shape"></path>
            </g>
        </g>
    </g>
</svg>