<svg xmlns="http://www.w3.org/2000/svg" width="34" height="22" viewBox="0 0 34 22"><g fill="none" fill-rule="evenodd"><path fill="#FFF" stroke="#D8D8D8" d="M28,0.5 C29.5187831,0.5 30.8937831,1.11560847 31.8890873,2.1109127 C32.8843915,3.10621694 33.5,4.48121694 33.5,6 L33.5,6 L33.5,16 C33.5,17.5187831 32.8843915,18.8937831 31.8890873,19.8890873 C30.8937831,20.8843915 29.5187831,21.5 28,21.5 L28,21.5 L6,21.5 C4.48121694,21.5 3.10621694,20.8843915 2.1109127,19.8890873 C1.11560847,18.8937831 0.5,17.5187831 0.5,16 L0.5,16 L0.5,6 C0.5,4.48121694 1.11560847,3.10621694 2.1109127,2.1109127 C3.10621694,1.11560847 4.48121694,0.5 6,0.5 L6,0.5 Z"/><g transform="translate(8 5.074)"><path fill="#EB001B" d="M7.0897147,5.77845512 C7.0897147,3.94154024 7.93840747,2.30607528 9.25982609,1.247685 C8.28542005,0.467233353 7.05452964,6.89226454e-13 5.71493209,6.89226454e-13 C2.55868631,6.89226454e-13 8.8817842e-15,2.58712681 8.8817842e-15,5.77845512 C8.8817842e-15,8.96978344 2.55868631,11.5569102 5.71493209,11.5569102 C7.05452964,11.5569102 8.28542005,11.0896769 9.25982609,10.3092252 C7.93840747,9.25083497 7.0897147,7.61537001 7.0897147,5.77845512"/><path fill="#FF5E00" d="M7.0897147,5.77845512 C7.0897147,7.61537001 7.93840747,9.25083497 9.25982609,10.3092252 C10.5811714,9.25083497 11.4298642,7.61537001 11.4298642,5.77845512 C11.4298642,3.94154024 10.5811714,2.30607528 9.25982609,1.247685 C7.93840747,2.30607528 7.0897147,3.94154024 7.0897147,5.77845512"/><path fill="#F79E1C" d="M12.8046468,6.89226454e-13 C11.4650492,6.89226454e-13 10.2341588,0.467233353 9.25982609,1.247685 C10.5811714,2.30614939 11.4298642,3.94154024 11.4298642,5.77845512 C11.4298642,7.61537001 10.5811714,9.25083497 9.25982609,10.3092252 C10.2341588,11.0896769 11.4650492,11.5569102 12.8046468,11.5569102 C15.9608926,11.5569102 18.5195789,8.96978344 18.5195789,5.77845512 C18.5195789,2.58712681 15.9608926,6.89226454e-13 12.8046468,6.89226454e-13"/></g></g></svg>