<svg xmlns="http://www.w3.org/2000/svg" width="34" height="22" viewBox="0 0 34 22"><g fill="none" fill-rule="evenodd"><path fill="#FFF" stroke="#D8D8D8" d="M28,0.5 C29.5187831,0.5 30.8937831,1.11560847 31.8890873,2.1109127 C32.8843915,3.10621694 33.5,4.48121694 33.5,6 L33.5,6 L33.5,16 C33.5,17.5187831 32.8843915,18.8937831 31.8890873,19.8890873 C30.8937831,20.8843915 29.5187831,21.5 28,21.5 L28,21.5 L6,21.5 C4.48121694,21.5 3.10621694,20.8843915 2.1109127,19.8890873 C1.11560847,18.8937831 0.5,17.5187831 0.5,16 L0.5,16 L0.5,6 C0.5,4.48121694 1.11560847,3.10621694 2.1109127,2.1109127 C3.10621694,1.11560847 4.48121694,0.5 6,0.5 L6,0.5 Z"/><g fill-rule="nonzero" transform="translate(4 7)"><path fill="#2566AF" d="M10.3418,7.80553846 L8.3952,7.80553846 L9.6118,0.137025641 L11.5586,0.137025641 L10.3418,7.80553846 Z M6.7576,0.137025641 L4.9018,5.41148718 L4.6822,4.27569231 L4.6824,4.27610256 L4.0274,0.827487179 C4.0274,0.827487179 3.9482,0.137025641 3.104,0.137025641 L0.036,0.137025641 L-1.42108547e-14,0.266871795 C-1.42108547e-14,0.266871795 0.9382,0.467076923 2.0362,1.14338462 L3.7274,7.80574359 L5.7556,7.80574359 L8.8526,0.137025641 L6.7576,0.137025641 Z M22.0686,7.80553846 L23.856,7.80553846 L22.2976,0.136820513 L20.7328,0.136820513 C20.0102,0.136820513 19.8342,0.708307692 19.8342,0.708307692 L16.931,7.80553846 L18.9602,7.80553846 L19.366,6.66646154 L21.8406,6.66646154 L22.0686,7.80553846 Z M19.9266,5.09292308 L20.9494,2.22317949 L21.5248,5.09292308 L19.9266,5.09292308 Z M17.0832,1.98112821 L17.361,0.334358974 C17.361,0.334358974 16.5038,5.32907052e-14 15.6102,5.32907052e-14 C14.6442,5.32907052e-14 12.3502,0.433025641 12.3502,2.53866667 C12.3502,4.51979487 15.0426,4.54441026 15.0426,5.58502564 C15.0426,6.62564103 12.6276,6.43917949 11.8306,5.78297436 L11.5412,7.50482051 C11.5412,7.50482051 12.4104,7.93784615 13.7384,7.93784615 C15.0668,7.93784615 17.0708,7.23241026 17.0708,5.31241026 C17.0708,3.3185641 14.3542,3.13292308 14.3542,2.26605128 C14.3544,1.39897436 16.2502,1.51035897 17.0832,1.98112821 L17.0832,1.98112821 Z"/><path fill="#E6A540" d="M4.6824,4.27589744 L4.0274,0.827282051 C4.0274,0.827282051 3.9482,0.136820513 3.104,0.136820513 L0.036,0.136820513 L1.77635684e-14,0.266666667 C1.77635684e-14,0.266666667 1.4746,0.580102564 2.889,1.75446154 C4.2414,2.87692308 4.6824,4.27589744 4.6824,4.27589744 Z"/></g></g></svg>