<svg xmlns="http://www.w3.org/2000/svg" width="26" height="32" viewBox="0 0 26 32"><path fill="#191970" d="M24.5936862,4.82780612 C24.4298469,4.84260204 20.5558673,5.21409439 18.4855867,7.2130102 C17.7319515,7.940625 16.8554847,8.1713648 15.8405612,8.43852041 C15.0290179,8.65223214 14.1283801,8.88985969 13.182398,9.42385204 C13.317602,8.55267857 13.3981505,7.67283163 13.4530612,6.81332908 C13.699426,2.95707908 14.5904337,0.460204082 14.6021046,0.427933673 C14.6518399,0.291208052 14.6027238,0.138154691 14.4827161,0.0559010673 C14.3627084,-0.026352556 14.2022426,-0.01694731 14.0926658,0.0787627551 C13.1301523,0.880385966 12.0912621,1.5855753 10.9909439,2.18418367 C10.0302296,2.70625 9.37570153,3.52206633 8.68271684,4.38577806 C7.97417092,5.26875 7.24139031,6.1817602 6.10860969,6.8690051 C5.98246173,6.94553571 5.86460459,7.02206633 5.7526148,7.09859694 C5.75197704,7.09904337 5.75121173,7.09923469 5.75057398,7.0997449 C5.74993622,7.1002551 5.74961735,7.10063776 5.74910714,7.10102041 C4.36868622,8.04744898 4.01964286,9.01938776 3.55133929,10.3265306 C3.30463367,11.0494698 3.01500316,11.7570414 2.68399235,12.4454719 C1.73016582,14.3877551 2.08265306,16.0969388 2.34005102,17.3447704 C2.44617347,17.8592474 2.5377551,18.3035714 2.49215561,18.5896684 C2.41205357,19.0913265 1.74904337,19.9909439 0.718558673,20.996301 C0.561047757,21.1499739 0.512065039,21.3836189 0.594592164,21.5876147 C0.677119289,21.7916106 0.874779239,21.9254756 1.09483418,21.9264031 L1.10682398,21.9264031 C1.75554847,21.9121811 2.7713648,21.7191964 3.9276148,20.8804847 C4.63354592,20.3684311 5.10350765,19.9084821 5.60108418,19.4214923 C6.07251265,18.9476964 6.56881349,18.4993162 7.08788265,18.0782526 C5.86906888,19.894898 3.60899235,24.6436224 3.05535714,26.8499362 C2.50714286,29.0344388 0.218239796,30.6534439 0.195344388,30.6696429 C0.0812171623,30.7493039 0.0319396125,30.8937814 0.0736028827,31.0265786 C0.115266153,31.1593757 0.238244213,31.25 0.377423469,31.25 C0.385012755,31.25 0.392665816,31.25 0.400382653,31.2491709 C0.512563776,31.2410714 3.17079082,31.0265944 5.20082908,28.8405612 C6.07417092,27.9000638 6.71658163,27.692602 7.46039541,27.4526148 C8.30376276,27.1803571 9.2596301,26.8718112 10.5907526,25.4236607 C11.4528061,24.4861607 12.3461735,23.8352679 13.2101403,23.20625 C13.6896684,22.8570791 14.1603954,22.5139668 14.6,22.135523 C14.6054847,22.1311862 14.6106505,22.1264668 14.6158801,22.1217474 C15.5324617,21.3294643 16.3105867,20.3803571 16.7408801,18.89375 C17.1702168,17.4107143 17.5716199,17.0815689 18.1273597,16.6260842 C18.7714923,16.0978954 19.5737245,15.4405612 20.626148,12.9288903 C22.5362245,8.37040816 24.8509566,5.37085459 24.8740434,5.3411352 C24.9521116,5.240868 24.963195,5.10381925 24.9022534,4.9923101 C24.8413119,4.88080095 24.7199797,4.81611941 24.5934311,4.82767857 L24.5936862,4.82780612 Z M5.15491071,18.9658801 C4.67468112,19.4359056 4.22104592,19.8799107 3.553125,20.3644133 C2.67346939,21.0021684 1.89968112,21.2176658 1.34553571,21.2732143 C2.12531888,20.4904337 2.99840561,19.4639668 3.12193878,18.6903061 C3.18571429,18.2890944 3.08367347,17.7918367 2.96466837,17.2160077 C2.79247449,16.3827806 2.57531888,15.3278699 2.78667092,14.1508929 C3.89540816,15.1000638 5.01843112,15.1394133 5.07149235,15.1408801 L5.07927296,15.1408801 C5.25538416,15.143328 5.40013495,15.0025462 5.40258289,14.8264349 C5.40503084,14.6503237 5.26424896,14.505573 5.08813776,14.503125 C5.04094388,14.5015944 3.9651148,14.4539541 2.96441327,13.4461097 C3.0445975,13.1996503 3.14220766,12.9592053 3.2565051,12.7265944 C3.59823198,12.0169338 3.897193,11.2874629 4.15178571,10.5420918 C4.57869898,9.35038265 4.86096939,8.56505102 5.87869898,7.79336735 C6.62487245,8.57952806 8.03201531,9.09049745 8.09744898,9.11390306 C8.26324007,9.17330537 8.44579539,9.08706022 8.5051977,8.92126913 C8.56460001,8.75547804 8.47835487,8.57292272 8.31256378,8.51352041 C7.93367347,8.37774235 6.95994898,7.95114796 6.415625,7.42933673 C6.42372449,7.42442602 6.43131378,7.41951531 6.43941327,7.41460459 C7.66862245,6.6690051 8.47168367,5.6682398 9.18010204,4.78520408 C9.83188776,3.97289541 10.447449,3.20567602 11.2955357,2.74483418 C12.1320425,2.28796956 12.9354611,1.77297186 13.6998724,1.2036352 C13.4177296,2.24744898 13.015625,4.06639031 12.8389031,6.44496173 C12.279273,6.29547194 11.4996173,5.65924745 11.078699,5.22684949 C10.9555589,5.10270952 10.7554169,5.10088948 10.6300396,5.2227695 C10.5046623,5.34464952 10.500821,5.54476297 10.6214286,5.6713648 C10.7559949,5.8098852 11.838074,6.89732143 12.7947704,7.08673469 C12.6289541,9.41269133 12.2468112,11.8611607 11.0491709,13.7992347 C10.7371811,13.6901786 10.1024235,13.405102 9.39897959,12.728125 C9.31768117,12.6452824 9.19778962,12.6131577 9.08596188,12.6442525 C8.97413414,12.6753473 8.88803445,12.7647499 8.86116934,12.8776684 C8.83430424,12.990587 8.8709173,13.1091849 8.9567602,13.1873087 C9.64209184,13.846875 10.2756378,14.1797832 10.6811224,14.3423469 C10.1563943,15.0543983 9.50213354,15.6611458 8.7526148,16.1308036 C6.79846939,17.3569515 5.92538265,18.2116709 5.15491071,18.9657526 L5.15491071,18.9658801 Z M20.0382653,12.682398 C19.9139031,12.979273 19.7940689,13.2478316 19.6783801,13.4917092 C19.3169643,13.3759566 18.6355867,13.088648 18.4008929,12.5179847 C18.3590466,12.4105079 18.2624254,12.3340045 18.1482168,12.317919 C18.0340082,12.3018334 17.9200149,12.3486732 17.8501107,12.4404107 C17.7802064,12.5321481 17.7652879,12.6544832 17.8110969,12.7603316 C18.1247449,13.5229592 18.90625,13.9019133 19.388074,14.0686862 C18.7230867,15.3123087 18.198852,15.7430485 17.7235332,16.1327168 C17.5091798,16.2996139 17.3081862,16.4829945 17.1223852,16.6811862 C16.7607143,16.6542092 15.7853316,16.5007653 15.451977,15.6328444 C15.3888236,15.468427 15.2043409,15.3863363 15.0399235,15.4494898 C14.8755061,15.5126433 14.7934154,15.6971259 14.8565689,15.8615434 C15.0946429,16.4811862 15.5922832,16.9311862 16.2959184,17.1628827 C16.4292772,17.2065356 16.5653449,17.2414313 16.7032526,17.2673469 C16.5055485,17.6155612 16.3147959,18.0732143 16.1287628,18.7160714 C15.759375,19.9922194 15.111926,20.8270408 14.3125638,21.540051 C14.0593084,21.4804605 13.8109853,21.4015736 13.5697704,21.3040816 C13.1609694,21.1373087 12.6233418,20.8454719 12.3829082,20.401977 C12.3289961,20.3011024 12.2251868,20.2368285 12.1108568,20.2335354 C11.9965267,20.2302423 11.88919,20.2884344 11.829561,20.3860386 C11.769932,20.4836428 11.7671452,20.6057073 11.8222577,20.7059311 C12.2188776,21.4377551 13.1047194,21.8376913 13.715051,22.0351403 C13.433227,22.2545918 13.138648,22.469324 12.834949,22.6902423 C12.0237883,23.2808036 11.1092474,23.9475128 10.2392857,24.8662628 C10.0273183,24.8273308 9.81905879,24.7703853 9.61677296,24.6960459 C9.27015306,24.5670281 8.81804847,24.3294643 8.63252551,23.9307398 C8.58446099,23.8274449 8.48494038,23.7576386 8.37145213,23.7476163 C8.25796388,23.737594 8.14774956,23.7888782 8.08232584,23.8821507 C8.01690212,23.9754233 8.00620842,24.0965138 8.05427296,24.1998087 C8.38252551,24.9051658 9.16894133,25.2441964 9.72366071,25.4006378 C8.71658163,26.3759566 7.97978316,26.6144133 7.26485969,26.8451531 C6.50554847,27.0902423 5.72040816,27.34375 4.7338648,28.4060587 C3.69362245,29.5262117 2.4497449,30.0833546 1.55395408,30.3571429 C2.32315051,29.6186862 3.31454082,28.4383929 3.67423469,27.0045918 C4.19795918,24.9174745 6.39547194,20.2859694 7.57193878,18.5010204 C8.00878629,19.1926674 8.62154438,19.7558388 9.34751276,20.1329082 C9.45086459,20.1808474 9.57194089,20.1700075 9.66513338,20.1044718 C9.75832588,20.0389361 9.80947641,19.928661 9.79931706,19.8151861 C9.78915772,19.7017111 9.71923194,19.6022759 9.6158801,19.5543367 C8.92249298,19.1854376 8.35283605,18.6208594 7.97774235,17.9308036 C8.13884347,17.6805503 8.27268464,17.413766 8.37697704,17.1350128 C8.59802296,16.9862245 8.83526786,16.8316327 9.09247449,16.6702168 C11.4554209,15.1875 12.5219388,12.8054209 13.0331633,10.2656888 C14.0727041,9.56415816 15.0538265,9.30471939 16.0033163,9.05478316 C16.5117985,8.92085459 17.0064413,8.78998724 17.4804847,8.5966199 C17.9642219,9.6307398 18.8145408,10.3736607 18.8539541,10.4078444 C18.940149,10.4823393 19.0595389,10.505191 19.1671508,10.4677915 C19.2747627,10.430392 19.3542478,10.3384231 19.3756648,10.2265287 C19.3970818,10.1146343 19.357177,9.99981376 19.2709821,9.92531888 C19.2624362,9.91792092 18.4815051,9.23571429 18.055676,8.32098214 C18.3732867,8.14293657 18.6666617,7.92475402 18.9285714,7.67181122 C20.3252551,6.32315051 22.7251276,5.76696429 23.9246811,5.56447704 C22.387497,7.79691979 21.0851088,10.1822271 20.0382653,12.682398 L20.0382653,12.682398 Z" transform="translate(.5)"/></svg>