<svg xmlns="http://www.w3.org/2000/svg" width="26" height="26" viewBox="0 0 26 26"><path fill="#191970" d="M12.4730769,0 C5.59551282,0 0,5.59551282 0,12.4730769 C0,13.2708333 0.078525641,14.0509615 0.222115385,14.8076923 L0.175320513,14.8637821 C0.19775641,14.8826923 0.219551282,14.8987179 0.241987179,14.9173077 C1.38141026,20.6285256 6.43173077,24.9461538 12.4730769,24.9461538 C19.350641,24.9461538 24.9461538,19.350641 24.9461538,12.4730769 C24.9461538,5.59551282 19.350641,0 12.4730769,0 Z M23.0964744,8.09262821 C23.0798077,12.1391026 19.4708333,13.0019231 17.9538462,13.1849359 C19.2182692,8.82467949 18.8580128,4.63910256 18.5817308,2.74519231 C20.5884615,4.01025641 22.1791667,5.87724359 23.0964744,8.09262821 Z M17.486859,2.13397436 C17.6961538,3.21570513 18.4865385,8.08814103 16.95,13.1333333 C14.0262821,12.3583333 13.6115385,10.2291667 13.0580128,7.33076923 C12.6833333,5.36730769 12.2596154,3.16730769 10.9125,1.08910256 C11.4233974,1.01955128 11.9435897,0.980448718 12.4730769,0.980448718 C14.2695513,0.980448718 15.9708333,1.39551282 17.486859,2.13397436 Z M9.86025641,1.28365385 C11.2875,3.3 11.7169872,5.53429487 12.0951923,7.51474359 C12.6445513,10.3926282 13.1676282,13.1169872 16.6384615,14.0679487 C16.3823718,14.7733974 16.0778846,15.4775641 15.7163462,16.1711538 C8.51762821,12.6839744 4.10064103,7.08205128 3.14038462,5.77916667 C4.73910256,3.55576923 7.11121795,1.92532051 9.86025641,1.28365385 Z M2.56987179,6.65096154 C3.91442308,8.40929487 8.31955128,13.6560897 15.236859,17.0262821 C14.9663462,17.4772436 14.6685897,17.9208333 14.3429487,18.3554487 C12.449359,17.4150641 10.6708333,17.2695513 8.9474359,17.1291667 C6.56282051,16.9346154 4.09871795,16.7266026 1.14166667,14.3820513 C1.03717949,13.7608974 0.980128205,13.1237179 0.980128205,12.4730769 C0.980448718,10.349359 1.56153846,8.3599359 2.56987179,6.65096154 Z M1.48942308,15.8573718 C4.24967949,17.7259615 6.59262821,17.9208333 8.86794872,18.1067308 C10.5067308,18.2403846 12.0641026,18.3695513 13.7141026,19.1426282 C12.3846154,20.6983974 10.6490385,22.1025641 8.39647436,23.2160256 C5.10641026,21.963141 2.53461538,19.2429487 1.48942308,15.8573718 Z M9.71762821,23.6298077 C11.763141,22.4875 13.3650641,21.1064103 14.6160256,19.5996795 C15.1413462,19.8900641 16.1708333,20.5679487 16.4391026,21.5439103 C16.5983974,22.1224359 16.4538462,22.7477564 16.0185897,23.4038462 C14.9016026,23.7669872 13.7105769,23.9660256 12.4733974,23.9660256 C11.5233974,23.9657051 10.600641,23.8477564 9.71762821,23.6298077 Z M17.350641,22.8762821 C17.513141,22.3362179 17.5275641,21.8022436 17.3830128,21.2791667 C17.0407051,20.0410256 15.9092949,19.2169872 15.2262821,18.8185897 C15.5557692,18.3689103 15.8567308,17.9105769 16.1310897,17.4455128 C17.8471154,18.2153846 19.7070513,18.8608974 21.7038462,19.3108974 C20.5746795,20.8310897 19.0798077,22.0621795 17.350641,22.8762821 Z M22.2939103,18.436859 C20.2512821,18.0067308 18.3538462,17.361859 16.6080128,16.5855769 C17.0150641,15.7983974 17.3522436,14.9983974 17.6307692,14.1990385 C18.4916667,14.1365385 20.9032051,13.8147436 22.5342949,12.1519231 C23.0820513,11.5935897 23.4820513,10.9384615 23.7387821,10.1980769 C23.8871795,10.9336538 23.9660256,11.6942308 23.9660256,12.4730769 C23.9657051,14.6554487 23.3541667,16.6974359 22.2939103,18.436859 Z" transform="translate(.5 .5)"/></svg>