<svg xmlns="http://www.w3.org/2000/svg" width="26" height="26" viewBox="0 0 26 26"><g fill="#191970" transform="translate(.5 .5)"><path d="M24.5833333,15 C24.813452,15 25,14.813452 25,14.5833333 C25,14.3532147 24.813452,14.1666667 24.5833333,14.1666667 L17.0833333,14.1666667 L17.0833333,2.5 C17.313452,2.5 17.5,2.31345198 17.5,2.08333333 L17.5,0.416666667 C17.5,0.186548021 17.313452,0 17.0833333,0 L0.416666667,0 C0.186548021,0 0,0.186548021 0,0.416666667 L0,2.08333333 C0,2.31345198 0.186548021,2.5 0.416666667,2.5 L0.416666667,22.5 C0.186548021,22.5 0,22.686548 0,22.9166667 L0,24.5833333 C0,24.813452 0.186548021,25 0.416666667,25 L24.5833333,25 C24.813452,25 25,24.813452 25,24.5833333 C25,24.3532147 24.813452,24.1666667 24.5833333,24.1666667 L24.5833333,15 Z M7.91666667,14.1666667 C7.68654802,14.1666667 7.5,14.3532147 7.5,14.5833333 C7.5,14.813452 7.68654802,15 7.91666667,15 L7.91666667,17.8121875 C6.29042878,17.3930618 5.22981211,15.8297461 5.44141987,14.1637514 C5.65302762,12.4977568 7.07079228,11.2492348 8.75017178,11.2499746 C10.4295513,11.2507151 11.8462149,12.5004861 12.0563542,14.1666667 L7.91666667,14.1666667 Z M12.8958333,14.1666667 C12.6814659,12.0382742 10.890181,10.4179976 8.75102057,10.4175459 C6.6118601,10.4170943 4.81989116,12.0366143 4.60462496,14.164916 C4.38935876,16.2932177 5.82074072,18.2387623 7.91666667,18.6666667 L7.91666667,19.5141667 C5.35359945,19.0809533 3.54999988,16.7560629 3.76748614,14.1657565 C3.98497241,11.5754501 6.15099102,9.58385516 8.75041158,9.58409258 C11.3498321,9.58433 13.5154869,11.5763206 13.7325,14.1666667 L12.8958333,14.1666667 Z M8.75,16.6666667 L23.75,16.6666667 L23.75,22.5 L8.75,22.5 L8.75,16.6666667 Z M23.75,15.8333333 L8.75,15.8333333 L8.75,15 L23.75,15 L23.75,15.8333333 Z M0.833333333,0.833333333 L16.6666667,0.833333333 L16.6666667,1.66666667 L0.833333333,1.66666667 L0.833333333,0.833333333 Z M1.25,2.5 L16.25,2.5 L16.25,14.1666667 L14.5682813,14.1666667 C14.3493196,11.1151088 11.8098761,8.75124865 8.75047269,8.75111547 C5.69106926,8.75098228 3.15142,11.1146214 2.93219264,14.1661601 C2.71296528,17.2176989 4.88866251,19.9200959 7.91666667,20.3572917 L7.91666667,22.5 L1.25,22.5 L1.25,2.5 Z M0.833333333,23.3333333 L7.91666667,23.3333333 L7.91666667,24.1666667 L0.833333333,24.1666667 L0.833333333,23.3333333 Z M8.75,24.1666667 L8.75,23.3333333 L23.75,23.3333333 L23.75,24.1666667 L8.75,24.1666667 Z"/><path d="M20.5971875 17.5411458C20.4528456 17.4716795 20.2814511 17.4911824 20.1564063 17.5913021L18.4629167 18.9460937C18.0576042 18.36375 17.1021875 17.5 15 17.5 11.8966146 17.5 11.2920313 19.3826562 11.2678125 19.4628125 11.2440645 19.5414049 11.2440645 19.6252617 11.2678125 19.7038542 11.2920312 19.7840104 11.8966146 21.6666667 15 21.6666667 17.1021875 21.6666667 18.0576042 20.8029167 18.4629167 20.2205729L20.15625 21.5753646C20.2813194 21.6755002 20.4527266 21.695054 20.5971356 21.62566 20.7415446 21.5562659 20.8333333 21.410217 20.8333333 21.25L20.8333333 17.9166667C20.8333333 17.7565117 20.741531 17.610533 20.5971875 17.5411458L20.5971875 17.5411458ZM15 20.8333333C12.9655208 20.8333333 12.2985417 19.9246875 12.1197917 19.5833333 12.2984896 19.2419792 12.9654688 18.3333333 15 18.3333333 17.0345313 18.3333333 17.7014583 19.2419792 17.8802083 19.5833333 17.7014583 19.9246875 17.0344792 20.8333333 15 20.8333333ZM20 20.3830729 19.0003646 19.5833333 20 18.7835937 20 20.3830729ZM14.5833333 7.91666667C14.813452 7.91666667 15 7.73011865 15 7.5L15 5C15 4.76988135 14.813452 4.58333333 14.5833333 4.58333333L2.91666667 4.58333333C2.68654802 4.58333333 2.5 4.76988135 2.5 5L2.5 7.5C2.5 7.73011865 2.68654802 7.91666667 2.91666667 7.91666667L14.5833333 7.91666667ZM3.33333333 5.41666667 14.1666667 5.41666667 14.1666667 7.08333333 3.33333333 7.08333333 3.33333333 5.41666667Z"/></g></svg>