<svg xmlns="http://www.w3.org/2000/svg" width="26" height="26" viewBox="0 0 26 26"><path fill="#191970" d="M20.9913793 10.3448276 1.42241379 10.3448276C1.03773655 10.3457596.673445244 10.5179105.42849379 10.8145184.183542335 11.1111263.083364655 11.5013936.155172414 11.8793103L2 18.0431034C2.80509381 20.6963102 5.02950329 22.6743031 7.75862069 23.1637931L7.75862069 23.7068966C7.75862069 24.4210579 8.33756282 25 9.05172414 25L13.362069 25C14.0762303 25 14.6551724 24.4210579 14.6551724 23.7068966L14.6551724 23.1637931C17.3842898 22.6743031 19.6086993 20.6963102 20.4137931 18.0431034L22.2672414 11.8189655C22.3217285 11.4493277 22.2114505 11.0743823 21.9655172 10.7931034 21.7202908 10.5106608 21.365416 10.3473556 20.9913793 10.3448276ZM13.7931034 23.7068966C13.7931034 23.9449503 13.6001227 24.137931 13.362069 24.137931L9.05172414 24.137931C8.81367037 24.137931 8.62068966 23.9449503 8.62068966 23.7068966L8.62068966 23.2758621 9.01724138 23.2758621 13.3965517 23.2758621 13.7931034 23.2758621 13.7931034 23.7068966ZM19.5948276 17.7931034C18.7639804 20.5247971 16.2517567 22.3976092 13.3965517 22.4137931L9.01724138 22.4137931C6.16203641 22.3976092 3.64981275 20.5247971 2.81896552 17.7931034L1 11.6982759C.982621557 11.5754127 1.0190356 11.45102 1.09992565 11.3569234 1.1808157 11.2628268 1.29833405 11.2081553 1.42241379 11.2068854L20.9913793 11.2068854C21.1141802 11.2059961 21.2310371 11.2596871 21.3103448 11.3534483 21.3817941 11.431767 21.4243712 11.5321273 21.4310345 11.637931L19.5948276 17.7931034ZM24.5689655 0 8.18965517 0C6.99938632 0 6.03448276.964903556 6.03448276 2.15517241L6.03448276 7.75862069C6.03448276 8.71083578 6.8064056 9.48275862 7.75862069 9.48275862 8.71083578 9.48275862 9.48275862 8.71083578 9.48275862 7.75862069L9.48275862 6.03448276C9.48275862 5.55837522 9.86872004 5.17241379 10.3448276 5.17241379 10.8209351 5.17241379 11.2068966 5.55837522 11.2068966 6.03448276 11.2068966 6.98669784 11.9788194 7.75862069 12.9310345 7.75862069 13.8832496 7.75862069 14.6551724 6.98669784 14.6551724 6.03448276 14.6551724 5.55837522 15.0411338 5.17241379 15.5172414 5.17241379 15.9933489 5.17241379 16.3793103 5.55837522 16.3793103 6.03448276L16.3793103 6.89655172C16.3793103 7.84876681 17.1512332 8.62068966 18.1034483 8.62068966 18.5650136 8.63519995 19.0120362 8.45821398 19.3385734 8.1316768 19.6651105 7.80513962 19.8420965 7.35811701 19.8275862 6.89655172L19.8275862 4.31034483 24.5689655 4.31034483C24.8070193 4.31034483 25 4.11736412 25 3.87931034L25 .431034483C25 .192980711 24.8070193 0 24.5689655 0ZM18.1034483 7.75862069C17.6273407 7.75862069 17.2413793 7.37265927 17.2413793 6.89655172L17.2413793 6.03448276C17.2413793 5.08226767 16.4694565 4.31034483 15.5172414 4.31034483 14.5650263 4.31034483 13.7931034 5.08226767 13.7931034 6.03448276 13.7931034 6.5105903 13.407142 6.89655172 12.9310345 6.89655172 12.4549269 6.89655172 12.0689655 6.5105903 12.0689655 6.03448276 12.0689655 5.08226767 11.2970427 4.31034483 10.3448276 4.31034483 9.3926125 4.31034483 8.62068966 5.08226767 8.62068966 6.03448276L8.62068966 7.75862069C8.62068966 8.23472823 8.23472823 8.62068966 7.75862069 8.62068966 7.28251315 8.62068966 6.89655172 8.23472823 6.89655172 7.75862069L6.89655172 2.15517241C6.89655172 1.4410111 7.47549386.862068966 8.18965517.862068966L18.9655172.862068966 18.9655172 6.89655172C18.9655172 7.37265927 18.5795558 7.75862069 18.1034483 7.75862069ZM24.137931 3.44827586 19.8275862 3.44827586 19.8275862.862068966 24.137931.862068966 24.137931 3.44827586Z" transform="translate(.5 .5)"/></svg>