<svg xmlns="http://www.w3.org/2000/svg" width="12" height="26" viewBox="0 0 12 26"><g fill="#191970" transform="translate(0 .5)"><path d="M4.26453333,18.9197505 L3.89333333,22.9209979 C3.9039372,24.0691991 4.8676592,24.9916228 6.04586667,24.981375 C7.22407413,24.9709552 8.17060387,24.031777 8.16,22.8835759 L7.79093333,18.9197505 C10.2916004,18.1628496 11.9968548,15.9094042 12.0000003,13.3575884 L12.0000003,5.87318087 C12.0003786,4.67484778 11.6185324,3.506029 10.9073067,2.52848233 C11.5573631,2.4347437 12.0283951,1.87567971 11.9962296,1.23604873 C11.9640641,0.596417751 11.4391959,0.0849167795 10.7828492,0.0535704336 C10.1265025,0.0222240878 9.55282833,0.481259965 9.45664,1.11476091 C7.4005104,-0.30511436 4.64855627,-0.30511436 2.59242667,1.11476091 C2.49635618,0.480925009 1.92230805,0.0216611552 1.2656521,0.0532826799 C0.608996158,0.0849042045 0.0842052245,0.597083085 0.0527237397,1.23706131 C0.0212422549,1.87703953 0.493352503,2.43579144 1.14389333,2.52848233 C0.433425214,3.50627545 0.052331123,4.67507391 0.0533333333,5.87318087 L0.0533333333,13.3575884 C0.0567691395,15.9099696 1.76302198,18.1635921 4.26453333,18.9197505 L4.26453333,18.9197505 Z M6.02666667,24.1684051 C5.33374249,24.1704583 4.7656541,23.6334465 4.74666667,22.95842 L5.10592,19.1018711 C5.71638636,19.2044319 6.34036031,19.2044319 6.95082667,19.1018711 L7.30666667,22.9209979 C7.30666667,23.6099186 6.73359115,24.1684051 6.02666667,24.1684051 Z M10.72,0.883575884 C10.9556415,0.883575884 11.1466667,1.06973607 11.1466667,1.2993763 C11.1466667,1.52901653 10.9556415,1.71517672 10.72,1.71517672 C10.4843585,1.71517672 10.2933333,1.52901653 10.2933333,1.2993763 C10.2933333,1.06973607 10.4843585,0.883575884 10.72,0.883575884 Z M0.906666667,1.2993763 C0.906666667,1.06973607 1.09769184,0.883575884 1.33333333,0.883575884 C1.56897483,0.883575884 1.76,1.06973607 1.76,1.2993763 C1.76,1.52901653 1.56897483,1.71517672 1.33333333,1.71517672 C1.09769184,1.71517672 0.906666667,1.52901653 0.906666667,1.2993763 Z M0.906666667,5.87318087 C0.906666667,3.11749813 3.19896875,0.883575884 6.02666667,0.883575884 C8.85436459,0.883575884 11.1466667,3.11749813 11.1466667,5.87318087 L11.1466667,12.5259875 C11.1466667,12.985268 10.7646163,13.3575884 10.2933333,13.3575884 C9.82205035,13.3575884 9.44,12.985268 9.44,12.5259875 L9.44,7.53638254 C9.44,6.61782162 8.67589931,5.87318087 7.73333333,5.87318087 C6.79076736,5.87318087 6.02666667,6.61782162 6.02666667,7.53638254 L6.02666667,8.36798337 C6.02666667,8.82726383 5.64461632,9.1995842 5.17333333,9.1995842 C4.70205035,9.1995842 4.32,8.82726383 4.32,8.36798337 C4.32,8.13834314 4.12897483,7.95218295 3.89333333,7.95218295 C3.65769184,7.95218295 3.46666667,8.13834314 3.46666667,8.36798337 L3.46666667,10.031185 C3.46666667,10.7201057 2.89359115,11.2785863 2.18666667,11.2785863 C1.47974219,11.2785863 0.906666667,10.7201057 0.906666667,10.031185 L0.906666667,5.87318087 Z M0.906646022,11.6835759 C1.27376592,11.9587554 1.72353311,12.1086583 2.18666667,12.1101871 C3.36428934,12.1088124 4.31858939,11.1788163 4.32,10.031185 L4.32,9.80790021 C4.8479718,10.1049617 5.4984494,10.1050054 6.02646318,9.80801475 C6.55447696,9.51102415 6.87983211,8.96210627 6.88,8.36798337 L6.88,7.53638254 C6.88,7.07710208 7.26205035,6.7047817 7.73333333,6.7047817 C8.20461632,6.7047817 8.58666667,7.07710208 8.58666667,7.53638254 L8.58666667,12.5259875 C8.58666667,12.967096 8.76647567,13.3901379 9.08653776,13.7020487 C9.40659985,14.0139595 9.84069719,14.1891892 10.2933333,14.1891892 C10.5772272,14.1876577 10.8561064,14.1161375 11.104,13.981289 C10.7730289,16.6001435 8.40622057,18.5146364 5.7039388,18.3493564 C3.00165702,18.1840765 0.899046828,15.9962201 0.906646022,13.3575884 L0.906646022,11.6835759 Z"/><path d="M4.74666667 4.62577963C5.45359115 4.62577963 6.02666667 4.06729906 6.02666667 3.37837838 6.02666667 2.68945769 5.45359115 2.13097713 4.74666667 2.13097713 4.03974219 2.13097713 3.46666667 2.68945769 3.46666667 3.37837838 3.46666667 4.06729906 4.03974219 4.62577963 4.74666667 4.62577963ZM4.74666667 2.96257796C4.98230816 2.96257796 5.17333333 3.14873815 5.17333333 3.37837838 5.17333333 3.60801861 4.98230816 3.79417879 4.74666667 3.79417879 4.51102517 3.79417879 4.32 3.60801861 4.32 3.37837838 4.32 3.14873815 4.51102517 2.96257796 4.74666667 2.96257796ZM8.58666667 5.87318087C9.29359115 5.87318087 9.86666667 5.31470031 9.86666667 4.62577963 9.86666667 3.93685894 9.29359115 3.37837838 8.58666667 3.37837838 7.87974219 3.37837838 7.30666667 3.93685894 7.30666667 4.62577963 7.30666667 5.31470031 7.87974219 5.87318087 8.58666667 5.87318087ZM8.58666667 4.20997921C8.82230816 4.20997921 9.01333333 4.3961394 9.01333333 4.62577963 9.01333333 4.85541985 8.82230816 5.04158004 8.58666667 5.04158004 8.35102517 5.04158004 8.16 4.85541985 8.16 4.62577963 8.16 4.3961394 8.35102517 4.20997921 8.58666667 4.20997921ZM3.04 7.53638254C3.74692448 7.53638254 4.32 6.97790197 4.32 6.28898129 4.32 5.6000606 3.74692448 5.04158004 3.04 5.04158004 2.33307552 5.04158004 1.76 5.6000606 1.76 6.28898129 1.76 6.97790197 2.33307552 7.53638254 3.04 7.53638254L3.04 7.53638254ZM3.04 5.87318087C3.27564149 5.87318087 3.46666667 6.05934106 3.46666667 6.28898129 3.46666667 6.51862152 3.27564149 6.7047817 3.04 6.7047817 2.80435851 6.7047817 2.61333333 6.51862152 2.61333333 6.28898129 2.61333333 6.05934106 2.80435851 5.87318087 3.04 5.87318087ZM6.02666667 17.5155925 6.02666667 16.6839917C4.14241198 16.6819294 2.61544955 15.1938553 2.61333333 13.3575884L1.76 13.3575884C1.76258661 15.6529457 3.67132398 17.5130718 6.02666667 17.5155925L6.02666667 17.5155925Z"/><polygon points="6.88 16.684 7.733 16.684 7.733 17.516 6.88 17.516"/><polygon points="6.88 10.031 7.733 10.031 7.733 10.863 6.88 10.863"/><polygon points="5.173 11.279 6.027 11.279 6.027 12.11 5.173 12.11"/></g></svg>