<svg xmlns="http://www.w3.org/2000/svg" width="26" height="26" viewBox="0 0 26 26"><g fill="none" transform="translate(.5 .5)"><path fill="#FFF" d="M22.2826087,22.826087 L21.1956522,24.4565217 L20.1086957,22.826087 L20.1086957,10.326087 C20.1086957,9.72577745 20.5953427,9.23913043 21.1956522,9.23913043 C21.7959617,9.23913043 22.2826087,9.72577745 22.2826087,10.326087 L22.2826087,22.826087 Z"/><path fill="#FFF" d="M22.2826087,10.326087 L22.2826087,11.9565217 L20.1086957,11.9565217 L20.1086957,10.326087 C20.1086957,9.72577745 20.5953427,9.23913043 21.1956522,9.23913043 C21.7959617,9.23913043 22.2826087,9.72577745 22.2826087,10.326087 Z"/><rect width="2.174" height="3.804" x="20.109" y="17.935" fill="#FFF"/><rect width="17.391" height="21.196" x=".543" y="3.261" fill="#FFF" rx="2"/><path fill="#FFF" d="M13.5869565,3.26086957 L13.5869565,4.89130435 L4.89130435,4.89130435 L4.89130435,3.26086957 C4.89130435,2.66056005 5.37795136,2.17391304 5.97826087,2.17391304 L7.06521739,2.17391304 L7.06521739,1.63043478 C7.06521739,1.03012527 7.5518644,0.543478261 8.15217391,0.543478261 L10.326087,0.543478261 C10.9263965,0.543478261 11.4130435,1.03012527 11.4130435,1.63043478 L11.4130435,2.17391304 L12.5,2.17391304 C13.1003095,2.17391304 13.5869565,2.66056005 13.5869565,3.26086957 Z"/><polygon fill="#191970" points=".272 6.793 18.207 6.793 18.207 20.924 .272 20.924" transform="rotate(90 9.24 13.859)"/><circle cx="9.239" cy="2.717" r="1" fill="#191970"/><path fill="#FFF" d="M14.1304366,9.08695652 L14.1304366,10.326087 C14.1304366,10.6262417 13.8871113,10.8695652 13.5869565,10.8695652 L4.89130435,10.8695652 C4.59114959,10.8695652 4.34782596,10.6262417 4.34782596,10.326087 L4.34782596,9.54347826 C4.34758863,9.0455454 4.68572079,8.61112394 5.16847826,8.48913043 L6.52173913,8.15217391 L7.28804348,7.00543478 C7.48927281,6.70382498 7.82764151,6.52241044 8.19021739,6.52173913 L10.8315217,6.52173913 C11.1940976,6.52241044 11.5324663,6.70382498 11.7336957,7.00543478 L12.5,8.15217391 L13.7608696,8.57065217 C13.9822346,8.64541963 14.1310379,8.85330657 14.1304366,9.08695652 Z"/><circle cx="6.522" cy="10.87" r="1.087" fill="#FFF"/><circle cx="11.957" cy="10.87" r="1.087" fill="#FFF"/><path fill="#FFF" d="M8.69565217,9.7826087 L8.15217391,9.7826087 C7.85201916,9.7826087 7.60869565,9.53928519 7.60869565,9.23913043 C7.60869565,8.93897568 7.85201916,8.69565217 8.15217391,8.69565217 L8.69565217,8.69565217 C8.99580693,8.69565217 9.23913043,8.93897568 9.23913043,9.23913043 C9.23913043,9.53928519 8.99580693,9.7826087 8.69565217,9.7826087 Z"/><rect width="3.261" height="3.261" x="3.804" y="17.935" fill="#FFF" rx="1"/><path fill="#FFF" d="M14.673913 14.673913 9.23913043 14.673913C8.93897568 14.673913 8.69565217 14.4305895 8.69565217 14.1304348 8.69565217 13.83028 8.93897568 13.5869565 9.23913043 13.5869565L14.673913 13.5869565C14.9740678 13.5869565 15.2173913 13.83028 15.2173913 14.1304348 15.2173913 14.4305895 14.9740678 14.673913 14.673913 14.673913ZM11.9565217 16.8478261 9.23913043 16.8478261C8.93897568 16.8478261 8.69565217 16.6045026 8.69565217 16.3043478 8.69565217 16.0041931 8.93897568 15.7608696 9.23913043 15.7608696L11.9565217 15.7608696C12.2566765 15.7608696 12.5 16.0041931 12.5 16.3043478 12.5 16.6045026 12.2566765 16.8478261 11.9565217 16.8478261ZM14.673913 19.0217391 9.23913043 19.0217391C8.93897568 19.0217391 8.69565217 18.7784156 8.69565217 18.4782609 8.69565217 18.1781061 8.93897568 17.9347826 9.23913043 17.9347826L14.673913 17.9347826C14.9740678 17.9347826 15.2173913 18.1781061 15.2173913 18.4782609 15.2173913 18.7784156 14.9740678 19.0217391 14.673913 19.0217391ZM11.9565217 21.1956522 9.23913043 21.1956522C8.93897568 21.1956522 8.69565217 20.9523287 8.69565217 20.6521739 8.69565217 20.3520192 8.93897568 20.1086957 9.23913043 20.1086957L11.9565217 20.1086957C12.2566765 20.1086957 12.5 20.3520192 12.5 20.6521739 12.5 20.9523287 12.2566765 21.1956522 11.9565217 21.1956522ZM4.89130435 16.8478352C4.59782609 16.8478352 4.58152174 16.7663043 3.41847826 15.6032609 3.28062034 15.465403 3.2267807 15.2644707 3.2772402 15.0761532 3.3276997 14.8878358 3.47479234 14.7407432 3.66310976 14.6902837 3.85142718 14.6398242 4.05235947 14.6936638 4.19021739 14.8315217L4.89130435 15.5380435 6.67934783 13.7445652C6.81720574 13.6067073 7.01813804 13.5528677 7.20645545 13.6033272 7.39477287 13.6537867 7.54186552 13.8008793 7.59232502 13.9891967 7.64278452 14.1775141 7.58894487 14.3784464 7.45108696 14.5163043L5.27717391 16.6902174C5.17460933 16.7919492 5.03576249 16.8486613 4.89130435 16.8478352Z"/><path fill="#191970" d="M16.8478261 2.7173913 14.0326087 2.7173913C13.8028542 2.06753875 13.189269 1.63237194 12.5 1.63043478L11.9565217 1.63043478C11.9565217.729970517 11.2265512 0 10.326087 0L8.15217391 0C7.25170965 0 6.52173913.729970517 6.52173913 1.63043478L5.97826087 1.63043478C5.28899189 1.63237194 4.67540668 2.06753875 4.44565217 2.7173913L1.63043478 2.7173913C.729970517 2.7173913 0 3.44736182 0 4.34782609L0 23.3695652C0 24.2700295.729970517 25 1.63043478 25L16.8478261 25C17.7482904 25 18.4782609 24.2700295 18.4782609 23.3695652L18.4782609 4.34782609C18.4782609 3.44736182 17.7482904 2.7173913 16.8478261 2.7173913ZM5.97826087 2.7173913 7.06521739 2.7173913C7.36537215 2.7173913 7.60869565 2.4740678 7.60869565 2.17391304L7.60869565 1.63043478C7.60869565 1.33028003 7.85201916 1.08695652 8.15217391 1.08695652L10.326087 1.08695652C10.6262417 1.08695652 10.8695652 1.33028003 10.8695652 1.63043478L10.8695652 2.17391304C10.8695652 2.4740678 11.1128887 2.7173913 11.4130435 2.7173913L12.5 2.7173913C12.8001548 2.7173913 13.0434783 2.96071481 13.0434783 3.26086957L13.0434783 4.34782609 5.43478261 4.34782609 5.43478261 3.26086957C5.43478261 2.96071481 5.67810611 2.7173913 5.97826087 2.7173913ZM17.3913043 23.3695652C17.3913043 23.66972 17.1479808 23.9130435 16.8478261 23.9130435L1.63043478 23.9130435C1.33028003 23.9130435 1.08695652 23.66972 1.08695652 23.3695652L1.08695652 4.34782609C1.08695652 4.04767133 1.33028003 3.80434783 1.63043478 3.80434783L4.34782609 3.80434783 4.34782609 4.89130435C4.34782609 5.1914591 4.59114959 5.43478261 4.89130435 5.43478261L13.5869565 5.43478261C13.8871113 5.43478261 14.1304348 5.1914591 14.1304348 4.89130435L14.1304348 3.80434783 16.8478261 3.80434783C17.1479808 3.80434783 17.3913043 4.04767133 17.3913043 4.34782609L17.3913043 23.3695652ZM23.3695652 11.4130435 22.826087 11.4130435 22.826087 10.326087C22.8241498 9.63681798 22.388983 9.02323277 21.7391304 8.79347826L21.7391304 8.15217391C21.7391304 7.85201916 21.4958069 7.60869565 21.1956522 7.60869565 20.8954974 7.60869565 20.6521739 7.85201916 20.6521739 8.15217391L20.6521739 8.79347826C20.0023214 9.02323277 19.5671545 9.63681798 19.5652174 10.326087 19.5652174 23.6956522 19.5217391 22.9293478 19.6576087 23.125L20.7445652 24.7554348C20.8455227 24.9056682 21.0146481 24.9957808 21.1956522 24.9957808 21.3766563 24.9957808 21.5457817 24.9056682 21.6467391 24.7554348L22.7336957 23.125C22.8641304 22.9347826 22.826087 23.701087 22.826087 12.5L23.3695652 12.5C23.66972 12.5 23.9130435 12.7433235 23.9130435 13.0434783L23.9130435 16.3043478C23.9130435 16.6045026 24.156367 16.8478261 24.4565217 16.8478261 24.7566765 16.8478261 25 16.6045026 25 16.3043478L25 13.0434783C25 12.143014 24.2700295 11.4130435 23.3695652 11.4130435ZM21.1956522 9.7826087C21.4958069 9.7826087 21.7391304 10.0259322 21.7391304 10.326087L21.7391304 11.4130435 20.6521739 11.4130435 20.6521739 10.326087C20.6521739 10.0259322 20.8954974 9.7826087 21.1956522 9.7826087ZM21.7391304 21.1956522 20.6521739 21.1956522 20.6521739 18.4782609 21.7391304 18.4782609 21.7391304 21.1956522ZM21.1956522 23.4782609 20.6521739 22.6630435 20.6521739 22.2826087 21.7391304 22.2826087 21.7391304 22.6630435 21.1956522 23.4782609ZM21.7391304 17.3913043 20.6521739 17.3913043 20.6521739 12.5 21.7391304 12.5 21.7391304 17.3913043Z"/></g></svg>