<svg xmlns="http://www.w3.org/2000/svg" width="22" height="26" viewBox="0 0 22 26"><g fill="#191970" transform="translate(0 .5)"><path d="M21.9724534,22.262001 L20.6420711,2.64053345 C20.5433303,1.18465425 19.2556257,0 17.7714094,0 L4.20725169,0 C2.72322943,0 1.43533085,1.18465425 1.33658999,2.64053345 L0.00620767494,22.262001 C-0.0430657698,22.9869843 0.202525395,23.6728668 0.697781449,24.1931915 C1.19284353,24.7135162 1.87258393,25 2.61149128,25 L19.3671699,25 C20.1062712,25 20.7858176,24.7135162 21.2810737,24.1930008 C21.7761357,23.6726761 22.0217269,22.9869843 21.9724534,22.262001 Z M20.1931786,23.1924057 C19.9826996,23.4134674 19.689387,23.5351562 19.3671699,23.5351562 L2.61149128,23.5351562 C2.28927411,23.5351562 1.99596147,23.4134674 1.78567648,23.1924057 C1.57539149,22.971344 1.47121896,22.6755142 1.49275185,22.3592758 L2.82313416,2.7381897 C2.8698857,2.04792021 3.50384455,1.46484375 4.20725169,1.46484375 L17.7714094,1.46484375 C18.4750106,1.46484375 19.1087754,2.04792021 19.1555269,2.73799897 L20.4859093,22.3594666 C20.5074421,22.6755142 20.4032696,22.971344 20.1931786,23.1924057 L20.1931786,23.1924057 Z"/><path d="M14.9787317 3.92265322C14.5674732 3.92265322 14.2338107 4.25052642 14.2338107 4.6550751 14.2338107 6.41403198 12.7783049 7.8449249 10.9893305 7.8449249 9.20035625 7.8449249 7.74485045 6.41403198 7.74485045 4.6550751 7.74485045 4.25052642 7.4113819 3.92265322 6.99992946 3.92265322 6.58847702 3.92265322 6.25500847 4.25052642 6.25500847 4.6550751 6.25500847 7.22160342 8.37880926 9.30976865 10.9893305 9.30976865 13.5998518 9.30976865 15.7236527 7.22160342 15.7236527 4.6550751 15.7236527 4.25052642 15.3901841 3.92265322 14.9787317 3.92265322ZM10.9893305 15.6560898C8.73167679 15.6560898 6.89498097 17.4617768 6.89498097 19.6815491 6.89498097 20.0740814 7.01040488 20.4547882 7.22864349 20.7828521 7.60866961 21.3539124 8.24941802 21.6949463 8.94254371 21.6949463 9.44614139 21.6949463 9.83470301 21.5816498 10.177677 21.4817047 10.4589623 21.3996887 10.7020316 21.3289261 10.9893305 21.3289261 11.2768235 21.3289261 11.5196988 21.3996887 11.801178 21.4817047 12.1441521 21.5816498 12.5327137 21.6949463 13.0363114 21.6949463 13.7294371 21.6949463 14.3701855 21.3539124 14.7504056 20.7826614 14.9686442 20.4545975 15.0838742 20.0738907 15.0838742 19.6817398 15.0836802 17.4617768 13.2469844 15.6560898 10.9893305 15.6560898L10.9893305 15.6560898ZM13.5036329 19.9806213C13.3996543 20.1368332 13.2248695 20.2299118 13.0363114 20.2299118 12.7488184 20.2299118 12.5059432 20.1591492 12.2244639 20.0771332 11.8814898 19.9771881 11.4929282 19.8638916 10.9893305 19.8638916 10.4859269 19.8638916 10.0971713 19.9771881 9.75439124 20.0771332 9.47291196 20.1591492 9.2298427 20.2299118 8.94254371 20.2299118 8.75379161 20.2299118 8.57920075 20.1368332 8.47522219 19.9806213 8.4160553 19.8917389 8.38482295 19.7883606 8.38482295 19.6815491 8.38482295 18.2695389 9.55322378 17.1209335 10.9893305 17.1209335 12.4256313 17.1209335 13.5938382 18.2695389 13.5938382 19.6815491 13.5938382 19.7883606 13.5626058 19.8917389 13.5036329 19.9806213ZM8.19141504 14.7686005C8.32992381 14.6318436 8.40984763 14.4433975 8.40984763 14.2505646 8.40984763 14.0575409 8.32992381 13.8687134 8.19141504 13.7325287 8.05290632 13.5961533 7.86066237 13.5181427 7.66492664 13.5181427 7.46880289 13.5181427 7.276559 13.5961533 7.13805023 13.7325287 6.99954145 13.8687134 6.92000564 14.0575409 6.92000564 14.2505646 6.92000564 14.4433975 6.99954145 14.6318436 7.13805023 14.7686005 7.276559 14.9047852 7.46880289 14.9829864 7.66492664 14.9829864 7.86066237 14.9829864 8.05290632 14.9047852 8.19141504 14.7686005ZM10.3635193 13.6352539C10.5020281 13.4990692 10.5815639 13.310051 10.5815639 13.117218 10.5815639 12.9243851 10.5020281 12.735939 10.3635193 12.5995636 10.2250106 12.4628067 10.0327667 12.3847961 9.83664293 12.3847961 9.64051919 12.3847961 9.44827524 12.4629975 9.31015447 12.5995636 9.17125775 12.7357483 9.09172194 12.9243851 9.09172194 13.117218 9.09172194 13.310051 9.17125775 13.4990692 9.31015447 13.6352539 9.44885722 13.7714386 9.64051919 13.8496399 9.83664293 13.8496399 10.0329607 13.8496399 10.2246226 13.7714386 10.3635193 13.6352539ZM12.6683126 13.6352539C12.8074033 13.4990692 12.8869392 13.310051 12.8869392 13.117218 12.8869392 12.9243851 12.8074033 12.735939 12.6683126 12.5995636 12.5298039 12.4628067 12.3381419 12.3847961 12.1420182 12.3847961 11.9457005 12.3847961 11.7536505 12.4629975 11.6151418 12.5995636 11.4764391 12.7357483 11.3970972 12.9243851 11.3970972 13.117218 11.3970972 13.310051 11.4764391 13.4990692 11.6151418 13.6352539 11.7536505 13.7714386 11.9458945 13.8496399 12.1420182 13.8496399 12.33756 13.8496399 12.5298039 13.7714386 12.6683126 13.6352539L12.6683126 13.6352539ZM14.8406109 14.7686005C14.9797016 14.6318436 15.0590435 14.4433975 15.0590435 14.2505646 15.0590435 14.0575409 14.9795076 13.8690948 14.8406109 13.7325287 14.7021021 13.5961533 14.5098582 13.5181427 14.3141225 13.5181427 14.1179987 13.5181427 13.9257548 13.5961533 13.787246 13.7325287 13.6487373 13.8687134 13.5692015 14.0575409 13.5692015 14.2505646 13.5692015 14.4433975 13.6487373 14.6318436 13.787246 14.7686005 13.9257548 14.9047852 14.1179987 14.9829864 14.3141225 14.9829864 14.5098582 14.9829864 14.7021021 14.9047852 14.8406109 14.7686005Z"/></g></svg>