<svg xmlns="http://www.w3.org/2000/svg" width="26" height="26" viewBox="0 0 26 26"><g fill="#191970" transform="translate(.3 .5)"><g transform="translate(0 8.282)"><path d="M24.9904809,2.20151641 C23.2685027,2.20151641 21.5465245,2.20151641 19.8245463,2.20151641 C16.3478942,2.20151641 12.8657927,2.20151641 9.38914055,2.20151641 C6.69173801,2.20151641 3.98888618,2.20151641 1.29148364,2.20151641 C0.997221544,2.20151641 0.702959449,2.20151641 0.408697354,2.20151641 C0.544929806,2.33774887 0.681162257,2.47398132 0.817394708,2.61021377 C0.817394708,1.87455853 0.817394708,1.14435259 0.817394708,0.408697354 C0.681162257,0.544929806 0.544929806,0.681162257 0.408697354,0.817394708 C2.13067554,0.817394708 3.85265373,0.817394708 5.57463191,0.817394708 C9.05128407,0.817394708 12.5333855,0.817394708 16.0100377,0.817394708 C18.7074402,0.817394708 21.4102921,0.817394708 24.1076946,0.817394708 C24.4019567,0.817394708 24.6962188,0.817394708 24.9904809,0.817394708 C24.8542484,0.681162257 24.718016,0.544929806 24.5817835,0.408697354 C24.5817835,1.14435259 24.5817835,1.87455853 24.5817835,2.61021377 C24.5817835,3.13879568 25.3991782,3.13879568 25.3991782,2.61021377 C25.3991782,1.87455853 25.3991782,1.14435259 25.3991782,0.408697354 C25.3991782,0.185276134 25.2139021,-1.54878366e-15 24.9904809,-1.54878366e-15 C23.2685027,-1.54878366e-15 21.5465245,-1.54878366e-15 19.8245463,-1.54878366e-15 C16.3478942,-1.54878366e-15 12.8657927,-1.54878366e-15 9.38914055,-1.54878366e-15 C6.69173801,-1.54878366e-15 3.98888618,-1.54878366e-15 1.29148364,-1.54878366e-15 C0.997221544,-1.54878366e-15 0.702959449,-1.54878366e-15 0.408697354,-1.54878366e-15 C0.185276134,-1.54878366e-15 -5.80793872e-16,0.185276134 -5.80793872e-16,0.408697354 C-5.80793872e-16,1.14435259 -5.80793872e-16,1.87455853 -5.80793872e-16,2.61021377 C-5.80793872e-16,2.83363499 0.185276134,3.01891112 0.408697354,3.01891112 C2.13067554,3.01891112 3.85265373,3.01891112 5.57463191,3.01891112 C9.05128407,3.01891112 12.5333855,3.01891112 16.0100377,3.01891112 C18.7074402,3.01891112 21.4102921,3.01891112 24.1076946,3.01891112 C24.4019567,3.01891112 24.6962188,3.01891112 24.9904809,3.01891112 C25.5190628,3.01891112 25.5190628,2.20151641 24.9904809,2.20151641 Z"/><path d="M22.5382968,0.822844006 C23.3556915,0.822844006 24.1730862,0.822844006 24.9904809,0.822844006 C24.8542484,0.686611555 24.718016,0.550379104 24.5817835,0.414146652 C24.5817835,2.55027149 24.5817835,4.68639633 24.5817835,6.82797046 C24.5817835,9.85778018 24.5817835,12.8875899 24.5817835,15.9228489 C24.5817835,16.0536321 24.5817835,16.1844152 24.5817835,16.3097491 C24.718016,16.1735166 24.8542484,16.0372842 24.9904809,15.9010517 C24.1730862,15.9010517 23.3556915,15.9010517 22.5382968,15.9010517 C22.6745292,16.0372842 22.8107617,16.1735166 22.9469941,16.3097491 C22.9469941,13.8194199 22.9469941,11.3290907 22.9469941,8.83876145 C22.9469941,6.76257889 22.9469941,4.69184563 22.9469941,2.61566307 C22.9469941,2.08708116 22.1295994,2.08708116 22.1295994,2.61566307 C22.1295994,5.10599228 22.1295994,7.59632149 22.1295994,10.0866507 C22.1295994,12.1628333 22.1295994,14.2335665 22.1295994,16.3097491 C22.1295994,16.5331703 22.3148755,16.7184464 22.5382968,16.7184464 C23.3556915,16.7184464 24.1730862,16.7184464 24.9904809,16.7184464 C25.2139021,16.7184464 25.3991782,16.5331703 25.3991782,16.3097491 C25.3991782,13.8194199 25.3991782,11.3290907 25.3991782,8.83876145 C25.3991782,6.53370837 25.3991782,4.22320599 25.3991782,1.91815292 C25.3991782,1.41681749 25.3991782,0.920931371 25.3991782,0.41959595 C25.3991782,0.19617473 25.2139021,0.0108714702 24.9904809,0.0108714702 C24.1730862,0.0108714702 23.3556915,0.0108714702 22.5382968,0.0108714702 C22.0151641,0.00544929806 22.0151641,0.822844006 22.5382968,0.822844006 L22.5382968,0.822844006 Z"/></g><path d="M9.31829968,13.9052292 C6.62089714,13.9052292 3.9234946,13.9052292 1.22609206,13.9052292 C0.95362716,13.9052292 0.681162257,13.9052292 0.408697354,13.9052292 C0.544929806,14.0414616 0.681162257,14.1776941 0.817394708,14.3139265 C0.817394708,13.1750232 0.817394708,12.0361199 0.817394708,10.8972166 C0.681162257,11.0334491 0.544929806,11.1696815 0.408697354,11.305914 C3.10609989,11.305914 5.80350243,11.305914 8.50090497,11.305914 C8.77336987,11.305914 9.04583477,11.305914 9.31829968,11.305914 C9.18206722,11.1696815 9.04583477,11.0334491 8.90960232,10.8972166 C8.90960232,12.0361199 8.90960232,13.1750232 8.90960232,14.3139265 C8.90960232,14.8425084 9.72699703,14.8425084 9.72699703,14.3139265 C9.72699703,13.1750232 9.72699703,12.0361199 9.72699703,10.8972166 C9.72699703,10.6737954 9.5417209,10.4885193 9.31829968,10.4885193 C6.62089714,10.4885193 3.9234946,10.4885193 1.22609206,10.4885193 C0.95362716,10.4885193 0.681162257,10.4885193 0.408697354,10.4885193 C0.185276134,10.4885193 3.09756732e-15,10.6737954 3.09756732e-15,10.8972166 C3.09756732e-15,12.0361199 3.09756732e-15,13.1750232 3.09756732e-15,14.3139265 C3.09756732e-15,14.5373477 0.185276134,14.7226239 0.408697354,14.7226239 C3.10609989,14.7226239 5.80350243,14.7226239 8.50090497,14.7226239 C8.77336987,14.7226239 9.04583477,14.7226239 9.31829968,14.7226239 C9.84688159,14.7226239 9.84688159,13.9052292 9.31829968,13.9052292 Z"/><path d="M9.31829968,17.3382869 C6.62089714,17.3382869 3.9234946,17.3382869 1.22609206,17.3382869 C0.95362716,17.3382869 0.681162257,17.3382869 0.408697354,17.3382869 C0.544929806,17.4745194 0.681162257,17.6107518 0.817394708,17.7469843 C0.817394708,16.608081 0.817394708,15.4691777 0.817394708,14.3302744 C0.681162257,14.4665069 0.544929806,14.6027393 0.408697354,14.7389718 C3.10609989,14.7389718 5.80350243,14.7389718 8.50090497,14.7389718 C8.77336987,14.7389718 9.04583477,14.7389718 9.31829968,14.7389718 C9.18206722,14.6027393 9.04583477,14.4665069 8.90960232,14.3302744 C8.90960232,15.4691777 8.90960232,16.608081 8.90960232,17.7469843 C8.90960232,18.2755662 9.72699703,18.2755662 9.72699703,17.7469843 C9.72699703,16.608081 9.72699703,15.4691777 9.72699703,14.3302744 C9.72699703,14.1068532 9.5417209,13.9215771 9.31829968,13.9215771 C6.62089714,13.9215771 3.9234946,13.9215771 1.22609206,13.9215771 C0.95362716,13.9215771 0.681162257,13.9215771 0.408697354,13.9215771 C0.185276134,13.9215771 3.09756732e-15,14.1068532 3.09756732e-15,14.3302744 C3.09756732e-15,15.4691777 3.09756732e-15,16.608081 3.09756732e-15,17.7469843 C3.09756732e-15,17.9704055 0.185276134,18.1556816 0.408697354,18.1556816 C3.10609989,18.1556816 5.80350243,18.1556816 8.50090497,18.1556816 C8.77336987,18.1556816 9.04583477,18.1556816 9.31829968,18.1556816 C9.84688159,18.1556816 9.84688159,17.3382869 9.31829968,17.3382869 Z"/><path d="M9.31829968,20.7604461 C6.62089714,20.7604461 3.9234946,20.7604461 1.22609206,20.7604461 C0.95362716,20.7604461 0.681162257,20.7604461 0.408697354,20.7604461 C0.544929806,20.8966786 0.681162257,21.032911 0.817394708,21.1691435 C0.817394708,20.0302402 0.817394708,18.8913369 0.817394708,17.7524336 C0.681162257,17.888666 0.544929806,18.0248985 0.408697354,18.1611309 C3.10609989,18.1611309 5.80350243,18.1611309 8.50090497,18.1611309 C8.77336987,18.1611309 9.04583477,18.1611309 9.31829968,18.1611309 C9.18206722,18.0248985 9.04583477,17.888666 8.90960232,17.7524336 C8.90960232,18.8913369 8.90960232,20.0302402 8.90960232,21.1691435 C8.90960232,21.6977254 9.72699703,21.6977254 9.72699703,21.1691435 C9.72699703,20.0302402 9.72699703,18.8913369 9.72699703,17.7524336 C9.72699703,17.5290124 9.5417209,17.3437362 9.31829968,17.3437362 C6.62089714,17.3437362 3.9234946,17.3437362 1.22609206,17.3437362 C0.95362716,17.3437362 0.681162257,17.3437362 0.408697354,17.3437362 C0.185276134,17.3437362 3.09756732e-15,17.5290124 3.09756732e-15,17.7524336 C3.09756732e-15,18.8913369 3.09756732e-15,20.0302402 3.09756732e-15,21.1691435 C3.09756732e-15,21.3925647 0.185276134,21.5778408 0.408697354,21.5778408 C3.10609989,21.5778408 5.80350243,21.5778408 8.50090497,21.5778408 C8.77336987,21.5778408 9.04583477,21.5778408 9.31829968,21.5778408 C9.84688159,21.5778408 9.84688159,20.7604461 9.31829968,20.7604461 Z"/><path d="M9.31829968 24.177156C6.62089714 24.177156 3.9234946 24.177156 1.22609206 24.177156.95362716 24.177156.681162257 24.177156.408697354 24.177156.544929806 24.3133884.681162257 24.4496209.817394708 24.5858533.817394708 23.4469501.817394708 22.3080468.817394708 21.1691435.681162257 21.3053759.544929806 21.4416084.408697354 21.5778408 3.10609989 21.5778408 5.80350243 21.5778408 8.50090497 21.5778408 8.77336987 21.5778408 9.04583477 21.5778408 9.31829968 21.5778408 9.18206722 21.4416084 9.04583477 21.3053759 8.90960232 21.1691435 8.90960232 22.3080468 8.90960232 23.4469501 8.90960232 24.5858533 8.90960232 25.1144353 9.72699703 25.1144353 9.72699703 24.5858533 9.72699703 23.4469501 9.72699703 22.3080468 9.72699703 21.1691435 9.72699703 20.9457222 9.5417209 20.7604461 9.31829968 20.7604461 6.62089714 20.7604461 3.9234946 20.7604461 1.22609206 20.7604461.95362716 20.7604461.681162257 20.7604461.408697354 20.7604461.185276134 20.7604461 3.09756732e-15 20.9457222 3.09756732e-15 21.1691435 3.09756732e-15 22.3080468 3.09756732e-15 23.4469501 3.09756732e-15 24.5858533 3.09756732e-15 24.8092746.185276134 24.9945507.408697354 24.9945507 3.10609989 24.9945507 5.80350243 24.9945507 8.50090497 24.9945507 8.77336987 24.9945507 9.04583477 24.9945507 9.31829968 24.9945507 9.84688159 24.9945507 9.84688159 24.177156 9.31829968 24.177156ZM3.9289439 13.0115443C4.55016388 13.0115443 5.17683315 13.0115443 5.79805313 13.0115443 6.32663504 13.0115443 6.32663504 12.1941496 5.79805313 12.1941496 5.17683315 12.1941496 4.55016388 12.1941496 3.9289439 12.1941496 3.40581128 12.1941496 3.40581128 13.0115443 3.9289439 13.0115443L3.9289439 13.0115443ZM3.9289439 16.4500514C4.55016388 16.4500514 5.17683315 16.4500514 5.79805313 16.4500514 6.32663504 16.4500514 6.32663504 15.6326566 5.79805313 15.6326566 5.17683315 15.6326566 4.55016388 15.6326566 3.9289439 15.6326566 3.40581128 15.6326566 3.40581128 16.4500514 3.9289439 16.4500514L3.9289439 16.4500514ZM3.9289439 19.8667612C4.55016388 19.8667612 5.17683315 19.8667612 5.79805313 19.8667612 6.32663504 19.8667612 6.32663504 19.0493665 5.79805313 19.0493665 5.17683315 19.0493665 4.55016388 19.0493665 3.9289439 19.0493665 3.40581128 19.0493665 3.40581128 19.8667612 3.9289439 19.8667612L3.9289439 19.8667612Z"/><path d="M3.9289439 23.2889204C4.55016388 23.2889204 5.17683315 23.2889204 5.79805313 23.2889204 6.32663504 23.2889204 6.32663504 22.4715257 5.79805313 22.4715257 5.17683315 22.4715257 4.55016388 22.4715257 3.9289439 22.4715257 3.40581128 22.4715257 3.40581128 23.2889204 3.9289439 23.2889204L3.9289439 23.2889204ZM2.58296728 8.69570022C2.58296728 7.46415886 2.58296728 6.2326175 2.58296728 5.00107613 2.58296728 4.20002932 2.58296728 3.39353321 2.58296728 2.59248639 2.58296728 2.16744115 2.50122781 1.62796064 2.72464903 1.24650977 3.20963655.407317874 4.46297511.865058911 4.46297511 1.76964239 4.46297511 2.2982243 5.28036982 2.2982243 5.28036982 1.76964239 5.28036982.401868576 3.79816074-.437323325 2.61566307.238389634 2.09253045.538101027 1.76557257 1.14842241 1.76557257 1.7423959 1.76557257 1.86772975 1.76557257 1.98761431 1.76557257 2.11294817 1.76557257 3.6877953 1.76557257 5.26809174 1.76557257 6.84293888 1.76557257 7.45870956 1.76557257 8.07992954 1.76557257 8.69570022 1.76557257 9.21883283 2.58296728 9.21883283 2.58296728 8.69570022L2.58296728 8.69570022Z"/><path d="M6.14680821,3.77498407 C5.29671771,3.77498407 4.44117792,3.77498407 3.59108742,3.77498407 C3.72731987,3.91121652 3.86355232,4.04744898 3.99978477,4.18368143 C3.99978477,3.82947705 3.99978477,3.47527268 3.99978477,3.11561901 C3.99978477,2.60338499 4.33764125,2.18378904 4.87167246,2.17289044 C5.93973488,2.14019466 5.74356015,3.49706987 5.74356015,4.18368143 C5.74356015,4.71226334 6.56095486,4.71226334 6.56095486,4.18368143 C6.56095486,3.78043337 6.57185346,3.37173602 6.56095486,2.96848796 C6.53370837,2.05845518 5.75445875,1.38274223 4.87712176,1.35549574 C4.01613267,1.32824925 3.26957883,2.05300589 3.19873796,2.89219779 C3.16059287,3.31724304 3.18783936,3.75318688 3.18783936,4.18368143 C3.18783936,4.40710265 3.3731155,4.59237878 3.59653672,4.59237878 C4.44662721,4.59237878 5.30216701,4.59237878 6.15225751,4.59237878 C6.66994082,4.59237878 6.66994082,3.77498407 6.14680821,3.77498407 Z"/></g></svg>