<svg xmlns="http://www.w3.org/2000/svg" width="20" height="26" viewBox="0 0 20 26"><g fill="none" fill-rule="evenodd" transform="translate(.43 .5)"><line x1="12.282" x2="12.277" y1="22.734" y2="22.734" stroke="#191970"/><path stroke="#191970" stroke-linecap="round" stroke-linejoin="round" d="M3.2287234 17.1382979C2.99970612 16.2882039 2.99970612 15.3926471 3.2287234 14.5425532M12.5531915 22.8404255C12.4132372 22.8485093 12.272933 22.8485093 12.1329787 22.8404255L7.31382979 22.8404255C7.1360229 22.8412403 6.95834874 22.8305799 6.78191489 22.8085106M15.6170213 14.6170213C15.9416735 15.427933 15.9416735 16.3327053 15.6170213 17.143617"/><path stroke="#191970" d="M15.5585106 6.29787234C15.5586533 7.80059837 14.9882862 9.24733956 13.962766 10.3457447 12.8175962 11.5533099 11.2377837 12.2538119 9.57399665 12.2917614 7.91020956 12.3297109 6.30010103 11.7019683 5.10106383 10.5478723L5.10106383 10.5478723C3.94180733 9.43589227 3.28666768 7.89890776 3.28722024 6.29255319 3.28615167 5.79723732 3.34872075 5.30383539 3.47340426 4.82446809 3.87574254 3.28694445 4.87267569 1.97237041 6.24468085 1.17021277 8.21320485.0064493302 10.6591356.0064493302 12.6276596 1.17021277 13.9900958 1.97578795 14.978653 3.28749048 15.3776596 4.81914894 15.501223 5.30223979 15.5620074 5.79924174 15.5585106 6.29787234L15.5585106 6.29787234ZM6.61170213 22.8297872C6.36230643 23.4371675 5.90382407 23.9352718 5.31914894 24.2340426 3.75531915 24.9893617 1.75 24.0744681.835106383 22.1861702-.079787234 20.2978723.441489362 18.1542553 2 17.3989362 2.3322013 17.2378395 2.69478352 17.1490069 3.06382979 17.1382979 4.55684476 17.174007 5.89249323 18.0755178 6.48404255 19.4468085 7.01803811 20.5018578 7.0646659 21.7374942 6.61170213 22.8297872ZM18.4680851 22.1861702C17.5531915 24.0744681 15.5478723 25 13.9840426 24.2340426 13.3958208 23.9401633 12.9318121 23.4459752 12.6755319 22.8404255L12.6755319 22.8404255C12.229498 21.7413536 12.2838642 20.5025797 12.8244681 19.4468085 13.4249465 18.0404576 14.8112855 17.1323112 16.3404255 17.143617 16.6765447 17.1656288 17.0052539 17.2523213 17.3085106 17.3989362 18.8617021 18.1542553 19.3829787 20.2978723 18.4680851 22.1861702Z"/><path stroke="#191970" d="M3.44680851 4.82978723C2.53908055 4.46092431 1.95623907 3.56672766 1.98517361 2.58734383 2.01410814 1.60795999 2.6487226.749731385 3.57664345.435100163 4.50456429.12046894 5.53029165.415723478 6.14893617 1.17553191M12.5531915 1.18617021 12.5531915 1.15957447C13.1700962.425599609 14.1715876.140945533 15.0823153.440721173 15.9930431.740496813 16.6296574 1.56435067 16.6899941 2.52124667 16.7503308 3.47814267 16.2222428 4.37543638 15.356383 4.78723404M17.7978723 12.1117021C18.9308511 13.6702128 18.7553191 14.6648936 18.037234 15.1861702 17.3191489 15.7074468 16.3244681 15.5638298 15.1914894 14.0053191 14.0585106 12.4468085 13.7287234 10.7659574 14.4521277 10.2393617 15.1755319 9.71276596 16.6702128 10.5585106 17.7978723 12.1117021ZM1.06382979 12.1117021C-.0638297872 13.6702128.106382979 14.6648936.824468085 15.1861702 1.54255319 15.7074468 2.54255319 15.5638298 3.67021277 14.0053191 4.79787234 12.4468085 5.13297872 10.7659574 4.41489362 10.2393617 3.69680851 9.71276596 2.21276596 10.5585106 1.06382979 12.1117021Z"/><path fill="#191970" fill-rule="nonzero" d="M10.9680851 3.36168708C10.5846541 3.36170818 10.2390816 3.59297043 10.0928507 3.94742199 9.94661991 4.30187355 10.0286045 4.70952671 10.3004939 4.97988859 10.5723832 5.25025047 10.9804918 5.32993717 11.3341139 5.18171177 11.687736 5.03348636 11.9170477 4.68661648 11.9149087 4.30319149 11.9149087 4.05256865 11.8149754 3.8122875 11.6372598 3.63557029 11.4595442 3.45885309 11.218704 3.36028618 10.9680851 3.36168708L10.9680851 3.36168708ZM8.09042553 3.36170213C7.56752982 3.364648 7.14602563 3.79092391 7.14895071 4.31381966 7.15190636 4.8367154 7.57817785 5.25822408 8.10107362 5.25530444 8.6239694 5.25235434 9.04548256 4.8260873 9.04256837 4.30319149 9.0396469 3.78442987 8.61982545 3.36460842 8.10106383 3.36170213L8.09042553 3.36170213Z"/><path stroke="#191970" stroke-linecap="round" stroke-linejoin="round" d="M12.106383,7.44680851 C12.106383,8.84514649 10.9728061,9.9787234 9.57446809,9.9787234 C8.1761301,9.9787234 7.04255319,8.84514649 7.04255319,7.44680851"/><polygon stroke="#191970" stroke-linecap="round" stroke-linejoin="round" points="8.511 6.388 10.638 6.388 9.574 7.452"/><path stroke="#191970" stroke-linecap="round" stroke-linejoin="round" d="M9.70212766,19.4946809 C9.70212766,19.4946809 7.29787234,18.3138298 6.56914894,16.6861702 C6.21808511,15.9095745 6.25531915,14.6489362 7.10106383,14.0744681 C7.88668644,13.4531319 9.02632364,13.5813411 9.65425532,14.3617021 C10.282187,13.5813411 11.4218242,13.4531319 12.2074468,14.0744681 C13.0744681,14.6489362 13.1117021,15.9042553 12.7712766,16.6861702 C12.0638298,18.3138298 9.68085106,19.4946809 9.68085106,19.4946809"/><line x1="9.574" x2="9.574" y1="7.452" y2="9.968" stroke="#191970" stroke-linecap="round" stroke-linejoin="round"/></g></svg>