<svg xmlns="http://www.w3.org/2000/svg" width="26" height="26" viewBox="0 0 26 26"><path fill="#191970" fill-rule="evenodd" d="M23.4108527,4.92307692 L22.3255814,4.92307692 C22.0930233,4.92307692 21.879845,4.78846154 21.7829457,4.59615385 C21.4534884,5.07692308 20.8914729,5.46153846 20.2131783,5.69230769 C20.4069767,9.67307692 21.0658915,23.5192308 21.0658915,23.5384615 C21.0658915,24.1346154 20.5813953,24.6153846 19.9806202,24.6153846 L17.4806202,24.6153846 C16.879845,24.6153846 16.3953488,24.1346154 16.3953488,23.5192308 L17.248062,5.63461538 L15.9496124,5.75 C15.9496124,6.05769231 15.6782946,6.32692308 15.3682171,6.32692308 L13.255814,6.32692308 C12.9263566,6.32692308 12.6550388,6.07692308 12.6550388,5.75 L12.6550388,1.34615385 C12.6550388,1.03846154 12.9263566,0.769230769 13.255814,0.769230769 L15.3682171,0.769230769 C15.6976744,0.769230769 15.9496124,1.01923077 15.9496124,1.34615385 C15.9496124,1.34615385 16.3372093,0.769230769 18.8178295,0.769230769 C20.0775194,0.769230769 21.1821705,1.28846154 21.7248062,2.03846154 C21.7635659,1.76923077 22.0155039,1.55769231 22.3062016,1.55769231 L23.3914729,1.55769231 C23.7209302,1.55769231 23.9922481,1.80769231 23.9922481,2.13461538 L23.9922481,4.36538462 C23.9922481,4.67307692 23.7209302,4.92307692 23.4108527,4.92307692 Z M19.3410853,5.88461538 C19.1666667,5.90384615 19.0116279,5.92307692 18.8372093,5.92307692 C18.5852713,5.92307692 18.3527132,5.90384615 18.1395349,5.86538462 C17.9457364,10.0384615 17.3062016,23.5576923 17.3062016,23.5384615 C17.3062016,23.6538462 17.4031008,23.7307692 17.5,23.7307692 L20,23.7307692 C20.1162791,23.7307692 20.1937984,23.6346154 20.1937984,23.5384615 C20.1744186,23.5576923 19.5348837,10.1153846 19.3410853,5.88461538 Z M8.43023256,23.1923077 C8.43023256,23.1923077 7.53875969,24.5576923 5.31007752,24.5576923 C3.10077519,24.5576923 2.24806202,23.1923077 2.24806202,23.1923077 L3.39147287,8.48076923 L0.813953488,6.55769231 L0.813953488,2.21153846 L3.77906977,0 L4.47674419,0 L4.47674419,4.44230769 L6.51162791,4.44230769 L6.51162791,0 L6.89922481,0 L10.1744186,2.42307692 L10.1744186,6.46153846 L7.28682171,8.5 L8.43023256,23.1923077 Z M9.36046512,6.05769231 L9.36046512,2.82692308 L7.3255814,1.21153846 L7.3255814,5.25 L3.6627907,5.25 L3.6627907,1.21153846 L3.52713178,1.23076923 L1.62790698,2.82692308 L1.62790698,6.05769231 L4.30232558,8.03846154 L3.15891473,23.1153846 C3.58527132,23.3269231 4.45736434,23.6730769 5.29069767,23.6730769 C6.12403101,23.6730769 7.03488372,23.3076923 7.48062016,23.0961538 L6.35658915,8.03846154 L9.36046512,6.05769231 Z M5.34883721,23.0961538 C4.78682171,23.0961538 4.34108527,22.6538462 4.34108527,22.0961538 C4.34108527,21.5384615 4.78682171,21.0961538 5.34883721,21.0961538 C5.91085271,21.0961538 6.35658915,21.5384615 6.35658915,22.0961538 C6.35658915,22.6538462 5.89147287,23.0961538 5.34883721,23.0961538 Z" transform="translate(.5 .692)"/></svg>