<svg xmlns="http://www.w3.org/2000/svg" width="26" height="26" viewBox="0 0 26 26"><g fill="none" transform="translate(.5 .5)"><path fill="#FFF" d="M22.0957447,9.89361702 L20.8351064,11.1702128 C20.3783684,11.6277872 19.7383562,11.8528679 19.0957447,11.7819149 L17.5,11.6010638 C17.0186968,11.5479217 16.5392996,11.7161999 16.1968085,12.0585106 L5.08510638,23.143617 C4.04154551,24.1515218 2.38275325,24.1371074 1.35686549,23.1112196 C0.330977729,22.0853319 0.316563273,20.4265396 1.32446809,19.3829787 L12.4255319,8.28191489 C12.7678427,7.93942376 12.9361209,7.46002659 12.8829787,6.9787234 L12.7021277,5.38297872 C12.6236813,4.73934286 12.8430107,4.09506294 13.2978723,3.63297872 C14.606383,2.34042553 14.7340426,2.12765957 15.1968085,1.93617021 L17.9787234,0.675531915 C18.5839125,0.400988093 19.2958937,0.530246587 19.7659574,1 L20.1117021,1.34574468 L16.7287234,4.7287234 L17.3457447,7.12234043 L19.7393617,7.7393617 L23.1223404,4.35638298 L23.4680851,4.70212766 C23.9378385,5.17219138 24.067097,5.88417259 23.7925532,6.4893617 C22.4255319,9.5 22.462766,9.53191489 22.0957447,9.89361702 Z"/><path fill="#191970" d="M2.45212766,22.0159574 C2.25236485,21.8164167 2.14012058,21.5456481 2.14012058,21.2632979 C2.14012058,20.9809476 2.25236485,20.710179 2.45212766,20.5106383 L13.3457447,9.62234043 C13.7678301,9.26087575 14.3970151,9.28517844 14.7899609,9.67812423 C15.1829067,10.07107 15.2072094,10.700255 14.8457447,11.1223404 L3.95744681,22.0159574 C3.75790611,22.2157203 3.4871375,22.3279645 3.20478723,22.3279645 C2.92243697,22.3279645 2.65166836,22.2157203 2.45212766,22.0159574 Z"/><path fill="#F8F9F9" d="M23.4680851,21.212766 L21.212766,23.4680851 C20.5897499,24.0903263 19.5804629,24.0903263 18.9574468,23.4680851 L13.2978723,17.8244681 L12.9361702,15.9574468 L11.8085106,14.8191489 C12.1914894,14.4361702 13.1170213,13.5212766 14.8191489,11.8085106 L15.9574468,12.9361702 L17.8351064,13.3138298 L23.4680851,18.9574468 C24.0903263,19.5804629 24.0903263,20.5897499 23.4680851,21.212766 Z"/><polygon fill="#FFF" points="14.069 12.564 12.564 14.069 3.165 4.67 2.037 4.293 .532 2.037 2.037 .532 4.293 2.037 4.67 3.165"/><path fill="#191970" d="M17.5531915 16.0319149 23.0904255 21.5904255 23.4680851 21.212766C24.0903263 20.5897499 24.0903263 19.5804629 23.4680851 18.9574468L17.8244681 13.2978723 17.2925532 14.9308511C17.1608635 15.3174747 17.2621499 15.7453581 17.5531915 16.0319149ZM13.2978723 17.8244681 18.9574468 23.4680851C19.5804629 24.0903263 20.5897499 24.0903263 21.212766 23.4680851L21.5904255 23.0904255 16.0319149 17.5531915C15.7515885 17.2782955 15.3426404 17.180148 14.9680851 17.2978723L13.2978723 17.8244681Z"/><path fill="#191970" d="M23.8457447,18.5797872 C17.7021277,12.4361702 18.1648936,12.8404255 17.9308511,12.7925532 L16.4893617,12.5 L16.5691489,12.4202128 C16.7964232,12.1912252 17.1153338,12.0777478 17.4361702,12.1117021 L19.0319149,12.2925532 C19.8349922,12.382696 20.635492,12.1028147 21.2074468,11.5319149 C23.1595745,9.57978723 22.5744681,10.4680851 24.2712766,6.70744681 C24.6377852,5.90088683 24.4661557,4.95162774 23.8404255,4.32446809 L23.4946809,3.9787234 C23.394805,3.87802519 23.2588498,3.82138387 23.1170213,3.82138387 C22.9751928,3.82138387 22.8392376,3.87802519 22.7393617,3.9787234 L19.5478723,7.17021277 L17.7553191,6.70744681 L17.2925532,4.91489362 L20.4840426,1.72340426 C20.5847408,1.6235284 20.6413821,1.48757316 20.6413821,1.34574468 C20.6413821,1.2039162 20.5847408,1.06796096 20.4840426,0.968085106 L20.1382979,0.622340426 C19.5111382,-0.00338978955 18.5618791,-0.175019224 17.7553191,0.191489362 C14.0319149,1.88297872 14.8776596,1.30851064 12.9308511,3.25531915 C12.3599513,3.82727396 12.0800699,4.62777377 12.1702128,5.43085106 L12.3510638,7.02659574 C12.3850182,7.3474322 12.2715408,7.66634273 12.0425532,7.89361702 L11.1010638,8.83510638 L5.13297872,2.87765957 C4.78723404,1.79787234 4.78723404,1.72340426 4.58510638,1.59574468 L2.33510638,0.0904255319 C2.12383103,-0.0533313681 1.8401844,-0.0265301115 1.65957447,0.154255319 L0.154255319,1.65957447 C-0.0265301115,1.8401844 -0.0533313681,2.12383103 0.0904255319,2.33510638 C1.7287234,4.78723404 1.64361702,4.72340426 1.86702128,4.78723404 L2.87765957,5.12234043 L8.84574468,11.106383 L0.95212766,19.0053191 C-0.219612172,20.2628075 -0.18503777,22.2223818 1.03033277,23.4377523 C2.24570331,24.6531229 4.20527764,24.6876973 5.46276596,23.5159574 L12.5,16.4893617 L12.7925532,17.9414894 C12.8404255,18.1808511 12.4148936,17.6914894 18.5797872,23.856383 C18.9788686,24.2559086 19.5204059,24.4803971 20.0851064,24.4803971 C20.6498069,24.4803971 21.1913441,24.2559086 21.5904255,23.856383 L23.8457447,21.6010638 C24.2485376,21.2015604 24.4751028,20.6577394 24.4751028,20.0904255 C24.4751028,19.5231116 24.2485376,18.9792906 23.8457447,18.5797872 Z M12.8031915,8.65957447 C13.2603729,8.20064736 13.483579,7.55844021 13.4095745,6.91489362 L13.2340426,5.31914894 C13.1792286,4.83606719 13.3476345,4.35434799 13.6914894,4.0106383 L14.9521277,2.75 C15.2446809,2.45744681 15.2393617,2.50531915 18.1968085,1.15425532 C18.5871068,0.975623572 19.0465198,1.04904574 19.3617021,1.34042553 L16.3510638,4.35638298 C16.20984,4.49429257 16.1565987,4.69906661 16.212766,4.88829787 L16.8297872,7.28191489 C16.87803,7.46987658 17.0248043,7.61665083 17.212766,7.66489362 L19.606383,8.28191489 C19.7956142,8.33808211 20.0003883,8.28484086 20.1382979,8.14361702 L23.1489362,5.13297872 C23.440316,5.44816103 23.5137381,5.90757404 23.3351064,6.29787234 C21.9893617,9.2606383 22.0265957,9.26595745 21.7393617,9.54255319 L20.4787234,10.8031915 C20.1350137,11.1470464 19.6532945,11.3154523 19.1702128,11.2606383 L17.5744681,11.0851064 C16.9326985,11.0127741 16.2928136,11.2358532 15.8351064,11.6914894 L15.643617,11.8829787 L15.2234043,11.4574468 C15.1235284,11.3567486 14.9875732,11.3001073 14.8457447,11.3001073 C14.7039162,11.3001073 14.567961,11.3567486 14.4680851,11.4574468 L14.0957447,11.8297872 L11.8617021,9.60106383 L12.8031915,8.65957447 Z M3.54255319,4.29255319 C3.41489362,4.16489362 3.32446809,4.15957447 2.37765957,3.84574468 L1.21808511,2.12765957 L2.12765957,1.21808511 L3.84574468,2.37765957 L4.16489362,3.33510638 C4.23404255,3.5212766 3.55319149,2.80319149 13.3138298,12.5638298 L12.5638298,13.2978723 L3.54255319,4.29255319 Z M4.71276596,22.7659574 C3.88140115,23.5973223 2.53349247,23.5973223 1.70212766,22.7659574 C0.87076285,21.9345926 0.87076285,20.586684 1.70212766,19.7553191 L9.60106383,11.8617021 L11.8085106,14.0691489 C11.4787234,14.3989362 11.2765957,14.537234 11.2765957,14.8191489 C11.2765957,15.1010638 11.4148936,15.1808511 11.856383,15.6170213 L4.71276596,22.7659574 Z M23.0904255,20.8351064 L20.8351064,23.0904255 C20.4201729,23.5028974 19.7500398,23.5028974 19.3351064,23.0904255 L13.8297872,17.5531915 L13.4840426,15.8297872 C13.4361702,15.606383 13.3404255,15.5585106 12.5904255,14.8085106 C12.9308511,14.4680851 13.9734043,13.4414894 14.8457447,12.5531915 C15.1000071,12.832488 15.3699464,13.0970996 15.6542553,13.3457447 C15.7765957,13.4468085 15.7021277,13.4148936 17.5904255,13.7925532 L23.1170213,19.3244681 C23.3149423,19.5277444 23.4234659,19.801658 23.4184717,20.0853286 C23.4134775,20.3689992 23.2953793,20.638923 23.0904255,20.8351064 L23.0904255,20.8351064 Z"/></g></svg>