<svg xmlns="http://www.w3.org/2000/svg" width="22" height="26" viewBox="0 0 22 26"><path fill="#191970" d="M19.5,9.07258065 C19.3963819,8.0415884 18.5281211,7.25701537 17.4919355,7.25806452 L12.9032258,7.25806452 L12.9032258,4.83870968 C14.2393986,4.83870965 15.3225806,3.7555276 15.3225806,2.41935484 C15.3225806,1.08318208 14.2393986,-1.43254584e-15 12.9032258,-1.43254584e-15 L8.06451613,-1.43254584e-15 C6.72834335,-1.43254584e-15 5.64516129,1.08318206 5.64516129,2.41935484 C5.64516129,3.75552762 6.72834335,4.83870968 8.06451613,4.83870968 L8.06451613,7.25806452 L3.47580645,7.25806452 C2.43962084,7.25701537 1.57136002,8.0415884 1.46774194,9.07258065 L0.0887096774,23.6693548 C0.057640806,24.0100828 0.168513156,24.3485353 0.39516129,24.6048387 C0.625760072,24.8551057 0.950019318,24.9982472 1.29032258,25 L19.6774194,25 C20.0177226,24.9982472 20.3419819,24.8551057 20.5725806,24.6048387 C20.7992288,24.3485353 20.9101011,24.0100828 20.8790323,23.6693548 L19.5,9.07258065 Z M6.4516129,2.41935484 C6.4516129,1.52857298 7.17373427,0.806451613 8.06451613,0.806451613 L12.9032258,0.806451613 C13.7940077,0.806451613 14.516129,1.52857298 14.516129,2.41935484 C14.516129,3.31013669 13.7940077,4.03225806 12.9032258,4.03225806 L8.06451613,4.03225806 C7.17373427,4.03225806 6.4516129,3.31013669 6.4516129,2.41935484 Z M12.0967742,4.83870968 L12.0967742,7.25806452 L8.87096774,7.25806452 L8.87096774,4.83870968 L12.0967742,4.83870968 Z M7.25806452,8.06451613 L13.7096774,8.06451613 L13.7096774,9.27419355 C13.7096774,9.49688901 13.5291471,9.67741935 13.3064516,9.67741935 L7.66129032,9.67741935 C7.43859486,9.67741935 7.25806452,9.49688901 7.25806452,9.27419355 L7.25806452,8.06451613 Z M10.483871,20.9677419 C11.3746528,20.9677419 12.0967742,20.2456206 12.0967742,19.3548387 L12.0967742,14.5806452 C13.2230142,14.0591822 14.4982515,13.9562483 15.6935484,14.2903226 L16.1612903,14.4274194 L16.9677419,21.3709677 C16.9677419,21.5936632 16.7872116,21.7741935 16.5645161,21.7741935 L4.46774194,21.7741935 C4.26125059,21.7794803 4.08552591,21.6248426 4.06451613,21.4193548 L4.79032258,14.8629032 C5.99265125,15.6579469 7.44238115,15.9902961 8.87096774,15.7983871 L8.87096774,19.3548387 C8.87096774,20.2456206 9.59308911,20.9677419 10.483871,20.9677419 Z M10.766129,15.233871 L11.2903226,14.9677419 L11.2903226,19.3548387 C11.2903226,19.8002296 10.9292619,20.1612903 10.483871,20.1612903 C10.03848,20.1612903 9.67741935,19.8002296 9.67741935,19.3548387 L9.67741935,15.6370968 C10.0511443,15.5339403 10.4153721,15.3990411 10.766129,15.233871 L10.766129,15.233871 Z M9.67741935,14.8064516 L9.67741935,10.483871 L11.2903226,10.483871 L11.2903226,14.0645161 L10.4032258,14.516129 C10.169708,14.6327476 9.92694506,14.7298528 9.67741935,14.8064516 Z M19.9758065,24.0645161 C19.8977395,24.145898 19.7901853,24.1924079 19.6774194,24.1935484 L1.29032258,24.1935484 C1.17755665,24.1924079 1.07000243,24.145898 0.991935484,24.0645161 C0.917315548,23.9777122 0.882246449,23.8637377 0.89516129,23.75 L2.27419355,9.15322581 C2.33262443,8.53404043 2.85387628,8.06176526 3.47580645,8.06450417 L6.4516129,8.06450417 L6.4516129,9.27419355 C6.4516129,9.94227994 6.99320393,10.483871 7.66129032,10.483871 L8.87096774,10.483871 L8.87096774,14.9919355 C7.37462153,15.2266783 5.85060633,14.7933509 4.7016129,13.8064516 C4.58647388,13.7123644 4.43071124,13.6848769 4.29032258,13.733871 C4.14923687,13.7871538 4.04967799,13.9147136 4.03225806,14.0645161 L3.22580645,21.3709677 C3.22580645,22.0390541 3.76739748,22.5806452 4.43548387,22.5806452 L16.5322581,22.5806452 C16.8609312,22.5786489 17.1748403,22.443876 17.4026507,22.2069532 C17.6304611,21.9700304 17.752825,21.6510794 17.7419355,21.3225806 L16.9354839,14.0645161 C16.9117712,13.9052345 16.7989424,13.7736009 16.6451613,13.7258065 L15.9112903,13.516129 C14.6531199,13.1592162 13.3123563,13.2272465 12.0967742,13.7096774 L12.0967742,10.483871 L13.3064516,10.483871 C13.974538,10.483871 14.516129,9.94227994 14.516129,9.27419355 L14.516129,8.06450417 L17.4919355,8.06450417 C18.1138657,8.06176526 18.6351175,8.53404043 18.6935484,9.15322581 L20.0725806,23.75 C20.0854955,23.8637377 20.0504264,23.9777122 19.9758065,24.0645161 L19.9758065,24.0645161 Z" transform="translate(.51 .5)"/></svg>