<svg xmlns="http://www.w3.org/2000/svg" width="26" height="26" viewBox="0 0 26 26"><path fill="#191970" d="M4.92248062,19.0769231 C4.28294574,18.5576923 3.35271318,18.6346154 2.82945736,19.2692308 C2.30620155,19.9038462 2.38372093,20.8269231 3.02325581,21.3461538 C3.6627907,21.8653846 4.59302326,21.7884615 5.11627907,21.1538462 C5.63953488,20.5192308 5.5620155,19.5961538 4.92248062,19.0769231 Z M4.78682171,20.8846154 C4.41860465,21.3269231 3.74031008,21.3846154 3.29457364,21.0192308 C2.84883721,20.6538462 2.79069767,19.9807692 3.15891473,19.5384615 C3.52713178,19.0961538 4.20542636,19.0384615 4.65116279,19.4038462 C5.11627907,19.7692308 5.1744186,20.4423077 4.78682171,20.8846154 Z M19.4186047,7.42307692 L14.7868217,12.9423077 L15.1162791,13.2115385 L19.748062,7.69230769 L19.4186047,7.42307692 Z M11.7829457,0.0192307692 L5.25193798,7.80769231 C3.74031008,9.59615385 4.26356589,11.9423077 6.06589147,13.4230769 L0.794573643,18.4038462 C-0.406976744,19.8269231 -0.213178295,21.9615385 1.22093023,23.1538462 L1.5503876,23.4230769 C2.98449612,24.6153846 5.13565891,24.4230769 6.3372093,23 L10.3100775,16.9423077 C12.1124031,18.4423077 14.5155039,18.5192308 16.0271318,16.7307692 L22.5581395,8.94230769 L11.7829457,0.0192307692 Z M10.872093,16.2884615 L10.2131783,15.75 L9.67054264,16.4038462 L5.69767442,22.4615385 C4.78682171,23.5384615 3.17829457,23.6730769 2.1124031,22.7884615 L1.76356589,22.5 C0.678294574,21.5961538 0.542635659,20 1.43410853,18.9423077 L6.7248062,13.9807692 L7.26744186,13.3269231 L6.60852713,12.7884615 C5.40697674,11.7884615 4.88372093,10.3653846 5.44573643,9.07692308 L14.7286822,16.7692308 C13.5852713,17.5384615 12.0736434,17.2884615 10.872093,16.2884615 Z M6.99612403,7.05769231 L6.45348837,7.69230769 L15.9302326,15.5192308 L15.3875969,16.1730769 C15.2906977,16.2884615 15.1937984,16.3846154 15.0968992,16.4807692 L5.65891473,8.69230769 C5.73643411,8.57692308 5.81395349,8.46153846 5.91085271,8.34615385 L11.8992248,1.21153846 L12.5581395,1.75 L7.92635659,7.26923077 L8.25581395,7.53846154 L12.8875969,2.01923077 L12.751938,1.92307692 L13.5271318,2.57692308 L8.89534884,8.07692308 L9.2248062,8.34615385 L13.8565891,2.82692308 L13.6046512,2.61538462 L14.5155039,3.36538462 L9.88372093,8.88461538 L10.2131783,9.15384615 L14.8449612,3.65384615 L14.8062016,3.61538462 L15.503876,4.19230769 L10.872093,9.69230769 L11.2015504,9.96153846 L15.8333333,4.44230769 L15.6589147,4.30769231 L16.4728682,5 L11.8410853,10.5 L12.1705426,10.7692308 L16.8023256,5.25 L16.4922481,5 L17.4612403,5.80769231 L12.8294574,11.3269231 L13.1589147,11.5961538 L17.7906977,6.07692308 L17.6550388,5.96153846 L18.4302326,6.61538462 L13.7984496,12.1346154 L14.127907,12.4038462 L18.7596899,6.88461538 L18.5077519,6.67307692 L20.3875969,8.23076923 L15.755814,13.75 L16.0852713,14.0192308 L20.7170543,8.5 L20.5232558,8.34615385 L21.375969,9.05769231 L16.3565891,15.0192308 L16.4728682,14.8846154 L6.99612403,7.05769231 Z M22.8875969,10.5 C22.8875969,10.5 20.9689922,13.5576923 20.9689922,14.5769231 C20.9689922,15.5961538 21.8217054,16.4038462 22.8875969,16.4038462 C23.9534884,16.4038462 24.8062016,15.5769231 24.8062016,14.5769231 C24.8062016,13.5769231 22.8875969,10.5 22.8875969,10.5 Z M22.751938,15.6538462 C22.0736434,15.6538462 21.5310078,15.1538462 21.5310078,14.5384615 C21.5310078,13.9230769 22.751938,12.0576923 22.751938,12.0576923 C22.751938,12.0576923 23.9728682,13.9230769 23.9728682,14.5384615 C23.9922481,15.1538462 23.4302326,15.6538462 22.751938,15.6538462 Z" transform="translate(.5 .885)"/></svg>