<svg xmlns="http://www.w3.org/2000/svg" width="26" height="26" viewBox="0 0 26 26"><g fill="#191970" transform="translate(.5 .5)"><path d="M21.5783333,0.177083333 C21.4994253,0.0759107448 21.3783057,0.0167343116 21.25,0.0166666667 L14.6079167,0.0166666667 C13.9048476,-0.0161486456 13.2003184,0.00265179696 12.5,0.0729166667 C5.40231954,0.684340989 -0.0367065833,6.64279411 -0.000184690964,13.7666667 C-0.000184690964,13.9967853 0.186548021,14.1833333 0.416666667,14.1833333 L8.99666667,14.1833333 L13.8379167,19.4245833 L14.5833333,20.5416667 L14.5833333,24.5833333 C14.5833333,24.813452 14.7698814,25 15,25 L16.6666667,25 C16.8967853,25 17.0833333,24.813452 17.0833333,24.5833333 L17.0833333,20.5416667 L17.8333333,19.4166667 L20.7370833,15.8783333 L20.9233333,16.11125 C21.0028814,16.2100881 21.1231282,16.2672973 21.25,16.2666667 L22.5,16.2666667 C22.7301186,16.2666667 22.9166667,16.0801186 22.9166667,15.85 L22.9166667,12.1979167 L24.5416667,8.93541667 C24.5774531,8.86392693 24.5919172,8.78365106 24.5833333,8.70416667 C24.3002752,6.1836563 23.1672399,3.83470228 21.3708333,2.04416667 L21.2975,1.97125 L21.6566667,0.534166667 C21.6869534,0.409427148 21.6580543,0.277690482 21.5783333,0.177083333 Z M14.17875,18.5654167 L10.0120833,14.0541667 L10.8720833,13.74125 L14.835,17.9079167 L14.17875,18.5654167 Z M11.72625,13.4308333 L14.24,12.5166667 L16.1516667,12.5166667 L19.0658333,13.975 L16.0579167,17.5 L15.5954167,17.5 L11.72625,13.4308333 Z M16.25,24.1666667 L15.4166667,24.1666667 L15.4166667,20.8333333 L16.25,20.8333333 L16.25,24.1666667 Z M16.44375,20 L15.2229167,20 L14.7029167,19.2195833 L15.5891667,18.3333333 L16.0775,18.3333333 L16.96375,19.2195833 L16.44375,20 Z M17.4708333,18.5483333 L16.8166667,17.8941667 L19.6733333,14.5458333 L20.20625,15.2125 L17.4708333,18.5483333 Z M22.0833333,15.4333333 L21.45,15.4333333 L19.9083333,13.50625 C19.8705958,13.4592644 19.8231152,13.421024 19.7691667,13.3941667 L18.015,12.5166667 L22.0833333,12.5166667 L22.0833333,15.4333333 Z M23.7383333,8.67541667 L22.2416667,11.6833333 L14.1666667,11.6833333 C14.1180476,11.6834268 14.06982,11.6920288 14.0241667,11.70875 L9.51,13.35 L0.84,13.35 C1.01580187,6.82034598 6.06581419,1.46332676 12.57375,0.902916667 C13.2414296,0.836378131 13.9130772,0.818692198 14.5833333,0.85 L20.71625,0.85 L20.4291667,2 C20.393664,2.14231103 20.4356003,2.29280723 20.5395833,2.39625 L20.7808333,2.63583333 C22.4129471,4.26263518 23.4540121,6.38861957 23.7383333,8.67541667 L23.7383333,8.67541667 Z"/><path d="M18.7270833 8.35 14.8958333 8.35C14.7495833 8.35 14.6041667 8.36166667 14.46125 8.37416667L14.4583333 8.37416667C13.1284043 8.48965014 11.9009793 9.13572656 11.0529167 10.1666667 10.949231 10.2911467 10.9270987 10.464442 10.9961708 10.6109856 11.0652429 10.7575292 11.2129956 10.8507507 11.375 10.85L17.9166667 10.85C18.0798488 10.8493877 18.2428734 10.8397898 18.405 10.82125 18.475 10.8133333 18.54375 10.8004167 18.6133333 10.7895833 18.6995833 10.7758333 18.7858333 10.7620833 18.8716667 10.7433333 18.965 10.7233333 19.0566667 10.6983333 19.14875 10.6725 19.2041667 10.6566667 19.2595833 10.6408333 19.3154167 10.6225 19.42125 10.58875 19.52375 10.55125 19.6279167 10.5095833 19.64375 10.5033333 19.66 10.49875 19.6758333 10.4925 19.6808333 10.4925 19.6841667 10.4858333 19.68875 10.4833333 20.4396062 10.1712684 21.0939266 9.66506893 21.5845833 9.01666667 21.6792763 8.89040931 21.694508 8.72148768 21.623928 8.58032767 21.553348 8.43916766 21.4090717 8.35 21.25125 8.35L18.7270833 8.35ZM12.4070833 10.0166667C12.4441667 9.98875 12.48375 9.96375 12.5216667 9.93708333L12.63375 10.0166667 12.4070833 10.0166667ZM14.025 10.0166667C13.79875 9.83583333 13.5691667 9.66083333 13.3383333 9.49166667 13.6706223 9.35759024 14.0187431 9.26670915 14.3741667 9.22125 14.7 9.47708333 15.0172222 9.74222222 15.3258333 10.0166667L14.025 10.0166667ZM16.54125 10.0166667C16.24875 9.73166667 15.9461111 9.45388889 15.6333333 9.18333333L16.4779167 9.18333333C16.67375 9.4575 16.8609722 9.73527778 17.0395833 10.0166667L16.54125 10.0166667ZM18.48625 9.97041667 18.43125 9.9775C18.3158333 9.99416667 18.2 10.00375 18.0841667 10.0095833L18.0208333 10.0120833C17.8541667 9.73416667 17.6795833 9.45708333 17.4966667 9.18333333L18.4966667 9.18333333C18.6379167 9.40958333 18.77625 9.64166667 18.91 9.8775 18.7706337 9.91651273 18.6291535 9.94753545 18.48625 9.97041667ZM19.68875 9.56666667C19.6166667 9.43833333 19.54625 9.30916667 19.4720833 9.18333333L20.2716667 9.18333333C20.0896217 9.32884614 19.8944815 9.45717277 19.68875 9.56666667L19.68875 9.56666667ZM7.84083333 7.21625C7.84416667 7.21333333 7.84875 7.2125 7.85208333 7.20958333 8.32663367 6.78607604 8.83421623 6.4011047 9.37 6.05833333 9.37708333 6.05375 9.38208333 6.04708333 9.38875 6.0425 10.3157357 5.45115304 11.3208944 4.99240128 12.375 4.67958333 12.3808333 4.67958333 12.3866667 4.67958333 12.3925 4.67708333 12.8910951 4.52914077 13.3988498 4.414033 13.9125 4.3325L13.9491667 4.32708333C14.1158333 4.30125 14.2825 4.27902778 14.4491667 4.26041667L14.4541667 4.26041667C14.8874739 4.21159285 15.3231197 4.18641663 15.7591667 4.185L16.7375 4.185C17.9733041 4.1840413 19.0746839 3.40523228 19.4875 2.24041667 19.5325362 2.11289159 19.512876 1.97144097 19.4347694 1.86103148 19.3566628 1.75062198 19.2298272 1.68498982 19.0945833 1.68498982L15.7570833 1.68498982C10.961127 1.67928946 6.48106155 4.07598919 3.82416667 8.06875L2.40208333 10.2020833C2.31665261 10.3301278 2.30877504 10.4948416 2.38159614 10.6304545 2.45441724 10.7660675 2.59607291 10.8504853 2.75 10.8500021L3.30041667 10.8500021C4.34733281 10.8509014 5.32514822 10.3275019 5.905 9.45583333 6.45440094 8.63153134 7.10472408 7.87916654 7.84083333 7.21625ZM15.7575 2.51666667 18.4045833 2.51666667C18.0108781 3.04095221 17.3935682 3.34960714 16.7379167 3.35L15.7558333 3.35C15.3445833 3.35 14.9370833 3.37583333 14.5325 3.41458333 14.2416667 3.16597222 13.9455556 2.92375 13.6441667 2.68791667 14.3425108 2.57583729 15.048555 2.51857917 15.7558333 2.51666667L15.7575 2.51666667ZM12.56375 2.90583333C12.85125 3.11972222 13.1356944 3.34 13.4170833 3.56666667 13.0595833 3.63375 12.70875 3.72083333 12.3595833 3.81666667 12.0845833 3.60625 11.805 3.4 11.5233333 3.20125 11.86125 3.09041667 12.2083333 2.99166667 12.5620833 2.90583333L12.56375 2.90583333ZM10.5666667 3.55708333C10.8408333 3.74236111 11.1127778 3.93375 11.3825 4.13125 10.5849046 4.42241711 9.81878742 4.79347023 9.09583333 5.23875 8.78388889 5.11041667 8.46694444 4.98666667 8.145 4.8675 8.90471678 4.34906236 9.7156311 3.90995673 10.565 3.55708333L10.5666667 3.55708333ZM6.58875 6.10791667C6.82791667 5.88833333 7.08083333 5.6725 7.345 5.4625 7.65583333 5.57083333 7.96361111 5.68402778 8.26833333 5.80208333 8.01555556 5.98763889 7.76958333 6.18291667 7.53041667 6.38791667 7.51666667 6.39958333 7.50125 6.41 7.48875 6.42166667 7.18958333 6.31166667 6.88875 6.2075 6.58875 6.10833333L6.58875 6.10791667ZM5.21375 8.99375C4.83442705 9.56416769 4.21981555 9.93498279 3.53833333 10.0045833L4.52083333 8.53125C4.93875889 7.90736948 5.40772877 7.31924084 5.92291667 6.77291667 6.21458333 6.86430556 6.50625 6.96152778 6.79791667 7.06458333 6.20683276 7.65408363 5.67511087 8.30024436 5.21041667 8.99375L5.21375 8.99375Z"/><path d="M14.9729167,5.01666667 C14.7625,5.01666667 14.5533333,5.02583333 14.345,5.04 L14.3395833,5.04 C14.1241667,5.055 13.9104167,5.07875 13.6979167,5.10875 L13.695,5.10875 C12.6200984,5.26021829 11.5806309,5.60134647 10.625,6.11625 L10.625,6.11625 C10.60875,6.12458333 10.59375,6.13458333 10.5779167,6.14333333 C10.4454167,6.21541667 10.31375,6.29 10.185,6.36875 C10.1733333,6.37583333 10.1620833,6.38375 10.1504167,6.39125 C9.75071265,6.63806836 9.37069115,6.91542276 9.01375,7.22083333 C8.99375,7.23833333 8.97208333,7.25416667 8.95208333,7.27166667 L8.95208333,7.27166667 C8.38286738,7.76670406 7.87695627,8.33013369 7.44583333,8.94916667 L6.58041667,10.19375 C6.49187222,10.3210538 6.4813487,10.4869977 6.55310225,10.624467 C6.6248558,10.7619363 6.76701444,10.8481861 6.92208333,10.8483333 L8.59708333,10.8483333 C8.9561926,10.8481614 9.29255575,10.672512 9.49791667,10.3779167 C9.93770665,9.74719305 10.4834097,9.19740183 11.1108333,8.75291667 L11.1108333,8.75291667 C12.2405557,7.95111144 13.5909145,7.51894424 14.97625,7.51583328 L18.6495833,7.51583328 C19.8864047,7.51388572 20.9893167,6.73689846 21.4075,5.57291667 C21.4531929,5.44526062 21.4339146,5.30335477 21.3558214,5.19251544 C21.2777281,5.08167611 21.1505873,5.01576616 21.015,5.01583328 L14.9729167,5.01583328 L14.9729167,5.01666667 Z M8.81083333,9.90375 C8.76130585,9.97442341 8.68046667,10.0165531 8.59416667,10.0166667 L7.71708333,10.0166667 L8.12708333,9.42708333 C8.46804394,8.93859879 8.86042817,8.48810426 9.2975,8.08333333 C9.57083333,8.21194444 9.83916667,8.34444444 10.1025,8.48083333 C9.61267602,8.89775386 9.17855365,9.37598866 8.81083333,9.90375 L8.81083333,9.90375 Z M11.6758333,7.45083333 C11.5491667,7.51277778 11.4241667,7.57819444 11.3008333,7.64708333 L11.2416667,7.68041667 C11.1166667,7.75291667 10.9916667,7.82875 10.8704167,7.90791667 C10.8608333,7.91416667 10.8508333,7.91958333 10.8416667,7.92541667 C10.5691667,7.77875 10.2891667,7.63375 10.0045833,7.49583333 C10.0308333,7.47625 10.0575,7.45708333 10.0841667,7.43791667 C10.1775,7.37041667 10.2720833,7.30375 10.36875,7.24 C10.40375,7.21666667 10.4391667,7.19458333 10.4745833,7.17208333 C10.58,7.10458333 10.68625,7.03875 10.795,6.97583333 L10.8291667,6.95625 C11.1244444,7.10902778 11.4170833,7.26833333 11.7070833,7.43416667 C11.6966667,7.43916667 11.68625,7.44541667 11.6758333,7.45083333 L11.6758333,7.45083333 Z M12.68,7.04416667 C12.3727778,6.85805556 12.0611111,6.67819444 11.745,6.50458333 C12.3448224,6.25140944 12.9723208,6.06960693 13.6145833,5.96291667 C13.8784722,6.20625 14.1355556,6.45444444 14.3858333,6.7075 C13.8060929,6.75320873 13.2336358,6.86618999 12.68,7.04416667 L12.68,7.04416667 Z M20.31875,5.85 C19.9223159,6.37390489 19.3036561,6.68223276 18.6466667,6.68333333 L17.72625,6.68333333 C17.4995833,6.40166667 17.2648611,6.12388889 17.0220833,5.85 L20.31875,5.85 Z M15.5179167,6.68333333 C15.2604167,6.40555556 14.9933333,6.13041667 14.7166667,5.85791667 C14.8,5.85541667 14.8870833,5.85 14.9729167,5.85 L15.8966667,5.85 C16.1541667,6.12222222 16.4041667,6.4 16.6466667,6.68333333 L15.5179167,6.68333333 Z"/></g></svg>