<svg xmlns="http://www.w3.org/2000/svg" xmlns:xlink="http://www.w3.org/1999/xlink" width="316" height="245" viewBox="0 0 316 245"><defs><rect id="a" width="216" height="145" x="0" y="0" rx="10"/><rect id="d" width="300" height="180" x="0" y="0"/><filter id="b" width="174.1%" height="210.3%" x="-37%" y="-48.3%" filterUnits="objectBoundingBox"><feOffset dy="10" in="SourceAlpha" result="shadowOffsetOuter1"/><feGaussianBlur in="shadowOffsetOuter1" result="shadowBlurOuter1" stdDeviation="25"/><feColorMatrix in="shadowBlurOuter1" values="0 0 0 0 0 0 0 0 0 0 0 0 0 0 0 0 0 0 0.1 0"/></filter></defs><g fill="none" fill-rule="evenodd" transform="translate(50 40)"><mask id="c" fill="#fff"><use xlink:href="#a"/></mask><use xlink:href="#a" fill="#000" filter="url(#b)"/><use xlink:href="#a" fill="#9B9B9B"/><g mask="url(#c)"><g transform="translate(-42 -18)"><mask id="e" fill="#fff"><use xlink:href="#d"/></mask><path fill="#FFF" d="M312.09173,90 C279.924054,48.1987162 224.919338,41.641744 147.077582,70.3290837 C69.2358258,99.0164233 4.20996512,95.9737912 -48,61.2011871 L-48,-26 L345,-26 L328.082098,84.9062606 L312.09173,90 Z" mask="url(#e)" opacity=".08"/><path fill="#FFF" d="M315.09173,48 C282.924054,6.19871615 227.919338,-0.358255951 150.077582,28.3290837 C72.2358258,57.0164233 7.20996512,53.9737912 -45,19.2011871 L-45,-68 L348,-68 L331.082098,42.9062606 L315.09173,48 Z" mask="url(#e)" opacity=".08"/></g></g></g></svg>