<?xml version="1.0" encoding="UTF-8"?>
<svg width="52px" height="53px" viewBox="0 0 52 53" version="1.1" xmlns="http://www.w3.org/2000/svg" xmlns:xlink="http://www.w3.org/1999/xlink">
    <title>E1CD6FBF-3AE1-46B7-813E-41A3F5596CD2</title>
    <defs>
        <filter x="-15.5%" y="-15.5%" width="131.0%" height="131.0%" filterUnits="objectBoundingBox" id="filter-1">
            <feOffset dx="0" dy="1" in="SourceAlpha" result="shadowOffsetOuter1"></feOffset>
            <feGaussianBlur stdDeviation="1" in="shadowOffsetOuter1" result="shadowBlurOuter1"></feGaussianBlur>
            <feColorMatrix values="0 0 0 0 0   0 0 0 0 0   0 0 0 0 0  0 0 0 0.5 0" type="matrix" in="shadowBlurOuter1" result="shadowMatrixOuter1"></feColorMatrix>
            <feMerge>
                <feMergeNode in="shadowMatrixOuter1"></feMergeNode>
                <feMergeNode in="SourceGraphic"></feMergeNode>
            </feMerge>
        </filter>
    </defs>
    <g id="Welcome" stroke="none" stroke-width="1" fill="none" fill-rule="evenodd">
        <g id="Boutique-/-Présentoire-/-Voir_Produit" transform="translate(-772.000000, -639.000000)">
            <g id="Group-3" transform="translate(247.000000, 137.500000)">
                <g id="Sous-Catégories/Viandes" filter="url(#filter-1)" transform="translate(530.000000, 507.000000)">
                    <rect id="Rectangle-Copy-13" fill="#FFFFFF" x="0" y="0" width="42" height="42" rx="21"></rect>
                    <g id="29-sofa" transform="translate(10.500000, 8.500000)" fill="#191970" fill-rule="nonzero">
                        <path d="M20.7811154,10.6539063 C20.557402,10.3428279 20.1907244,10.1570328 19.7989615,10.15625 L19.6628654,10.15625 C19.382149,10.1576689 19.1050335,10.2174858 18.8503269,10.3316406 L19.1423077,5.69257813 C19.3193925,3.14784497 17.50655,0.874990341 14.9168654,0.394921875 C11.9970906,-0.129300612 9.00250553,-0.129300612 6.08273077,0.394921875 C3.49401759,0.876021771 1.68244553,3.14858685 1.85971154,5.69257812 L2.15451923,10.3332031 C1.89840793,10.2179806 1.61959015,10.1576202 1.33713462,10.15625 L1.20103846,10.15625 C0.809275566,10.1570328 0.442598018,10.3428279 0.218884615,10.6539063 C-0.00881162527,10.9710287 -0.0620346443,11.3757274 0.0763269231,11.7378906 L0.359019231,12.4800781 C0.67831697,13.3148115 0.841457496,14.1978545 0.840807692,15.0878906 L0.840807692,20.703125 C0.841237736,21.020859 0.975034768,21.3248052 1.21153846,21.5453125 L1.21153846,24.609375 C1.21153846,24.8251112 1.39234654,25.000005 1.61538462,25.000005 L2.82692308,25.000005 C3.03509691,25.0010091 3.2099542,24.8487896 3.23076923,24.6484375 L3.54051923,21.6507813 C3.57484615,21.6261719 3.60715385,21.5992188 3.63865385,21.5726563 C3.85865117,21.7661229 4.14498076,21.8738434 4.44230769,21.875 L16.5576923,21.875 C16.8565207,21.8745976 17.1444766,21.7665285 17.3653846,21.571875 C17.3968846,21.5992188 17.4291923,21.6261719 17.4635192,21.65 L17.7732692,24.6476563 C17.7935437,24.8468297 17.9661693,24.9989617 18.1730769,25.000005 L19.3846154,25.000005 C19.6076535,25.000005 19.7884615,24.8251112 19.7884615,24.609375 L19.7884615,21.5453125 C20.0243708,21.3245414 20.1575701,21.0206289 20.1575769,20.703125 L20.1575769,15.0886719 C20.1569271,14.1986357 20.3200676,13.3155928 20.6393654,12.4808594 L20.9220577,11.7386719 C21.0611702,11.3765317 21.0085435,10.9714894 20.7811154,10.6539063 L20.7811154,10.6539063 Z M6.22973077,1.16328125 C9.05248393,0.656638911 11.9475161,0.656638911 14.7702692,1.16328125 C16.9581787,1.57183343 18.4874281,3.49463944 18.3346154,5.64492188 L17.9974038,11.0457031 C17.9156171,11.164557 17.8478852,11.2919172 17.7954808,11.4253906 L17.4950192,12.2101563 C17.2576368,12.8369437 17.0995264,13.4892091 17.0241346,14.1527344 C16.8764028,14.0929583 16.7178291,14.0622818 16.5576923,14.0625 L14.5384615,14.0625 C14.3154235,14.0625 14.1346154,14.2373888 14.1346154,14.453125 C14.1346154,14.6688612 14.3154235,14.84375 14.5384615,14.84375 L16.5576923,14.84375 C16.7807304,14.84375 16.9615385,15.0186388 16.9615385,15.234375 L16.9615385,18.359375 C16.9615385,18.5751112 16.7807304,18.75 16.5576923,18.75 L4.44230769,18.75 C4.21926962,18.75 4.03846154,18.5751112 4.03846154,18.359375 L4.03846154,15.234375 C4.03846154,15.0186388 4.21926962,14.84375 4.44230769,14.84375 L12.9230769,14.84375 C13.146115,14.84375 13.3269231,14.6688612 13.3269231,14.453125 C13.3269231,14.2373888 13.146115,14.0625 12.9230769,14.0625 L4.44230769,14.0625 C4.2827146,14.0624893 4.12471101,14.0931616 3.97748077,14.1527344 C3.90208899,13.4892091 3.74397862,12.8369437 3.50659615,12.2101563 L3.20613462,11.4253906 C3.15460498,11.295194 3.08866359,11.1707721 3.00946154,11.0542969 L2.66538462,5.64453125 C2.51278438,3.49439264 4.04198389,1.57181694 6.22973077,1.16328125 Z M1.11784615,12.2101563 L0.835153846,11.4679688 C0.78747437,11.3456189 0.80562822,11.2083619 0.883615385,11.1015625 C0.954793492,10.9993914 1.07366644,10.937951 1.20103846,10.9375 L1.33713462,10.9375 C1.83494528,10.9415826 2.27794915,11.2438523 2.44892308,11.6960938 L2.74938462,12.4808594 C3.06854466,13.315617 3.2315483,14.1986593 3.23076923,15.0886719 L3.23076923,20.703125 C3.23369008,20.9157633 3.05806036,21.0905369 2.83823077,21.09375 L2.04225,21.09375 C1.82248359,21.0905376 1.64696952,20.9156992 1.65011538,20.703125 L1.65011538,15.0886719 C1.65087239,14.1062022 1.47063224,13.1314623 1.11784615,12.2101563 L1.11784615,12.2101563 Z M2.01923077,24.21875 L2.01923077,21.8726563 L2.70576923,21.875 L2.46346154,24.21875 L2.01923077,24.21875 Z M16.5576923,21.09375 L4.44230769,21.09375 C4.21926962,21.09375 4.03846154,20.9188612 4.03846154,20.703125 L4.03846154,19.921875 C4.03846154,19.7061388 4.21926962,19.53125 4.44230769,19.53125 L16.5576923,19.53125 C16.7807304,19.53125 16.9615385,19.7061388 16.9615385,19.921875 L16.9615385,20.703125 C16.9615385,20.9188612 16.7807304,21.09375 16.5576923,21.09375 Z M18.9807692,24.21875 L18.5385577,24.21875 L18.29625,21.875 L18.9827885,21.8726563 L18.9807692,24.21875 Z M20.1664615,11.4667969 L19.8837692,12.2089844 C19.5309831,13.1302904 19.350743,14.1050304 19.3515,15.0875 L19.3515,20.703125 C19.3546459,20.9156992 19.1791318,21.0905376 18.9593654,21.09375 L18.1617692,21.09375 C17.9419396,21.0905369 17.7663099,20.9157633 17.7692308,20.703125 L17.7692308,15.0886719 C17.7684517,14.1986593 17.9314553,13.315617 18.2506154,12.4808594 L18.5510769,11.6960938 C18.7220509,11.2438523 19.1650547,10.9415826 19.6628654,10.9374987 L19.7989615,10.9374987 C19.9266779,10.9371695 20.0462268,10.9982073 20.118,11.1003906 C20.1959872,11.20719 20.214141,11.344447 20.1664615,11.4667969 Z" id="Shape"></path>
                        <path d="M4.84615385,7.8125 L5.25,7.8125 L5.25,8.203125 C5.25,8.41886123 5.43080808,8.59375 5.65384615,8.59375 C5.87688423,8.59375 6.05769231,8.41886123 6.05769231,8.203125 L6.05769231,7.8125 L6.46153846,7.8125 C6.68457653,7.8125 6.86538462,7.63761123 6.86538462,7.421875 C6.86538462,7.20613877 6.68457653,7.03125 6.46153846,7.03125 L6.05769231,7.03125 L6.05769231,6.640625 C6.05769231,6.42488877 5.87688423,6.25 5.65384615,6.25 C5.43080808,6.25 5.25,6.42488877 5.25,6.640625 L5.25,7.03125 L4.84615385,7.03125 C4.62311577,7.03125 4.44230769,7.20613877 4.44230769,7.421875 C4.44230769,7.63761123 4.62311577,7.8125 4.84615385,7.8125 Z" id="Path"></path>
                        <path d="M9.69230769,7.8125 L10.0961538,7.8125 L10.0961538,8.203125 C10.0961538,8.41886123 10.2769619,8.59375 10.5,8.59375 C10.7230381,8.59375 10.9038462,8.41886123 10.9038462,8.203125 L10.9038462,7.8125 L11.3076923,7.8125 C11.5307304,7.8125 11.7115385,7.63761123 11.7115385,7.421875 C11.7115385,7.20613877 11.5307304,7.03125 11.3076923,7.03125 L10.9038462,7.03125 L10.9038462,6.640625 C10.9038462,6.42488877 10.7230381,6.25 10.5,6.25 C10.2769619,6.25 10.0961538,6.42488877 10.0961538,6.640625 L10.0961538,7.03125 L9.69230769,7.03125 C9.46926962,7.03125 9.28846154,7.20613877 9.28846154,7.421875 C9.28846154,7.63761123 9.46926962,7.8125 9.69230769,7.8125 Z" id="Path"></path>
                        <path d="M14.5384615,7.8125 L14.9423077,7.8125 L14.9423077,8.203125 C14.9423077,8.41886123 15.1231158,8.59375 15.3461538,8.59375 C15.5691919,8.59375 15.75,8.41886123 15.75,8.203125 L15.75,7.8125 L16.1538462,7.8125 C16.3768842,7.8125 16.5576923,7.63761123 16.5576923,7.421875 C16.5576923,7.20613877 16.3768842,7.03125 16.1538462,7.03125 L15.75,7.03125 L15.75,6.640625 C15.75,6.42488877 15.5691919,6.25 15.3461538,6.25 C15.1231158,6.25 14.9423077,6.42488877 14.9423077,6.640625 L14.9423077,7.03125 L14.5384615,7.03125 C14.3154235,7.03125 14.1346154,7.20613877 14.1346154,7.421875 C14.1346154,7.63761123 14.3154235,7.8125 14.5384615,7.8125 Z" id="Path"></path>
                        <path d="M7.26923077,3.90625 L7.67307692,3.90625 L7.67307692,4.296875 C7.67307692,4.51261123 7.853885,4.6875 8.07692308,4.6875 C8.29996115,4.6875 8.48076923,4.51261123 8.48076923,4.296875 L8.48076923,3.90625 L8.88461538,3.90625 C9.10765346,3.90625 9.28846154,3.73136123 9.28846154,3.515625 C9.28846154,3.29988877 9.10765346,3.125 8.88461538,3.125 L8.48076923,3.125 L8.48076923,2.734375 C8.48076923,2.51863877 8.29996115,2.34375 8.07692308,2.34375 C7.853885,2.34375 7.67307692,2.51863877 7.67307692,2.734375 L7.67307692,3.125 L7.26923077,3.125 C7.0461927,3.125 6.86538462,3.29988877 6.86538462,3.515625 C6.86538462,3.73136123 7.0461927,3.90625 7.26923077,3.90625 Z" id="Path"></path>
                        <path d="M12.1153846,3.90625 L12.5192308,3.90625 L12.5192308,4.296875 C12.5192308,4.51261123 12.7000389,4.6875 12.9230769,4.6875 C13.146115,4.6875 13.3269231,4.51261123 13.3269231,4.296875 L13.3269231,3.90625 L13.7307692,3.90625 C13.9538073,3.90625 14.1346154,3.73136123 14.1346154,3.515625 C14.1346154,3.29988877 13.9538073,3.125 13.7307692,3.125 L13.3269231,3.125 L13.3269231,2.734375 C13.3269231,2.51863877 13.146115,2.34375 12.9230769,2.34375 C12.7000389,2.34375 12.5192308,2.51863877 12.5192308,2.734375 L12.5192308,3.125 L12.1153846,3.125 C11.8923465,3.125 11.7115385,3.29988877 11.7115385,3.515625 C11.7115385,3.73136123 11.8923465,3.90625 12.1153846,3.90625 Z" id="Path"></path>
                        <path d="M8.88461538,10.9375 L8.48076923,10.9375 L8.48076923,10.546875 C8.48076923,10.3311388 8.29996115,10.15625 8.07692308,10.15625 C7.853885,10.15625 7.67307692,10.3311388 7.67307692,10.546875 L7.67307692,10.9375 L7.26923077,10.9375 C7.0461927,10.9375 6.86538462,11.1123888 6.86538462,11.328125 C6.86538462,11.5438612 7.0461927,11.71875 7.26923077,11.71875 L7.67307692,11.71875 L7.67307692,12.109375 C7.67307692,12.3251112 7.853885,12.5 8.07692308,12.5 C8.29996115,12.5 8.48076923,12.3251112 8.48076923,12.109375 L8.48076923,11.71875 L8.88461538,11.71875 C9.10765346,11.71875 9.28846154,11.5438612 9.28846154,11.328125 C9.28846154,11.1123888 9.10765346,10.9375 8.88461538,10.9375 Z" id="Path"></path>
                        <path d="M13.7307692,10.9375 L13.3269231,10.9375 L13.3269231,10.546875 C13.3269231,10.3311388 13.146115,10.15625 12.9230769,10.15625 C12.7000389,10.15625 12.5192308,10.3311388 12.5192308,10.546875 L12.5192308,10.9375 L12.1153846,10.9375 C11.8923465,10.9375 11.7115385,11.1123888 11.7115385,11.328125 C11.7115385,11.5438612 11.8923465,11.71875 12.1153846,11.71875 L12.5192308,11.71875 L12.5192308,12.109375 C12.5192308,12.3251112 12.7000389,12.5 12.9230769,12.5 C13.146115,12.5 13.3269231,12.3251112 13.3269231,12.109375 L13.3269231,11.71875 L13.7307692,11.71875 C13.9538073,11.71875 14.1346154,11.5438612 14.1346154,11.328125 C14.1346154,11.1123888 13.9538073,10.9375 13.7307692,10.9375 Z" id="Path"></path>
                    </g>
                </g>
            </g>
        </g>
    </g>
</svg>