<?xml version="1.0" encoding="UTF-8"?>
<svg width="35px" height="36px" viewBox="0 0 35 36" version="1.1" xmlns="http://www.w3.org/2000/svg" xmlns:xlink="http://www.w3.org/1999/xlink">
    <title>Adresse</title>
    <g id="Welcome" stroke="none" stroke-width="1" fill="none" fill-rule="evenodd">
        <g id="Vendeur-/-Infos-/-1" transform="translate(-247.000000, -309.000000)" fill="#1A7EF5" fill-rule="nonzero">
            <g id="Group-2" transform="translate(201.500000, 288.000000)">
                <g id="Adresse" transform="translate(45.500000, 21.500000)">
                    <path d="M1.28244898,13.3498657 C0.857478746,13.2630708 0.442664242,13.5367521 0.35555529,13.9616176 C0.119670111,15.1135079 0,16.2987969 0,17.4847141 C0,27.1258533 7.8504849,34.9694281 17.5,34.9694281 C27.1495151,34.9694281 35,27.1258533 35,17.4847141 C35,7.84357482 27.1496198,0 17.5001047,0 C10.5565161,0 4.26477891,4.10490466 1.47101055,10.457681 C1.29647855,10.8546968 1.47666425,11.3180913 1.87368005,11.4926233 C2.27048646,11.6674694 2.73388096,11.4868649 2.90862235,11.0899538 C5.45163838,5.30705008 11.1791567,1.57047389 17.5001047,1.57047389 C26.2836605,1.57047389 33.4296308,8.70963882 33.4296308,17.4848188 C33.4296308,26.259894 26.2836605,33.3990589 17.5001047,33.3990589 C8.71654891,33.3990589 1.57057859,26.259894 1.57057859,17.4848188 C1.57057859,16.4045421 1.67946478,15.3252078 1.89420091,14.2767594 C1.98120517,13.8518938 1.70731452,13.4368699 1.28244898,13.3498657 L1.28244898,13.3498657 Z" id="Path"></path>
                    <g id="location_pin_place_map_address_placeholder_route_road_icon_149105" transform="translate(9.000000, 8.500000)">
                        <path d="M13.0178571,7.39928571 C13.1207143,7.45071429 13.2364286,7.48285714 13.3457143,7.48285714 C13.4614286,7.48285714 13.5707143,7.45714286 13.6735714,7.39928571 C13.7892857,7.335 16.4828571,5.91428571 16.4828571,3.13714286 C16.4828571,1.40785714 15.075,0 13.3457143,0 C11.6164286,0 10.2085714,1.40785714 10.2085714,3.13714286 C10.2085714,5.91428571 12.9021429,7.335 13.0178571,7.39928571 Z M13.2814286,1.86428571 L13.365,1.86428571 C14.1042857,1.86428571 14.7021429,2.46214286 14.7021429,3.20142857 C14.7021429,3.93428571 14.1042857,4.53857143 13.365,4.53857143 C12.6257143,4.53857143 11.9892857,3.93428571 11.9892857,3.20142857 C11.9892857,2.45571429 12.5421429,1.86428571 13.2814286,1.86428571 Z" id="Shape"></path>
                        <path d="M13.59,10.9221429 L2.89285714,10.9221429 C2.08285714,10.9221429 1.42071429,10.26 1.42071429,9.45 L1.42071429,9.16071429 C1.42071429,8.35071429 2.08285714,7.68857143 2.89285714,7.68857143 L9.10928571,7.68857143 C9.50142857,7.68857143 9.82285714,7.36714286 9.82285714,6.975 C9.82285714,6.58285714 9.50785714,6.26142857 9.10928571,6.26142857 L2.89285714,6.26142857 C1.29857143,6.26142857 0,7.56 0,9.15428571 L0,9.44357143 C0,11.0378571 1.29857143,12.3364286 2.89285714,12.3364286 L13.5835714,12.3364286 C14.3935714,12.3364286 15.0557143,12.9985714 15.0557143,13.8085714 C15.0557143,14.6185714 14.3935714,15.2807143 13.5835714,15.2807143 L6.78857143,15.2807143 C6.39642857,15.2807143 6.075,15.6021429 6.075,15.9942857 C6.075,16.3864286 6.39,16.7078571 6.78857143,16.7078571 L13.59,16.7078571 C15.1842857,16.7078571 16.4828571,15.4092857 16.4828571,13.815 C16.4828571,12.2207143 15.1842857,10.9221429 13.59,10.9221429 Z" id="Path"></path>
                        <path d="M4.79571429,14.5542857 C4.51928571,14.2778571 4.06928571,14.2778571 3.79285714,14.5542857 L3.18214286,15.1714286 L2.57142857,14.5607143 C2.295,14.2842857 1.845,14.2842857 1.56857143,14.5607143 C1.29214286,14.8371429 1.29214286,15.2871429 1.56857143,15.5635714 L2.17928571,16.1742857 L1.56857143,16.785 C1.29214286,17.0614286 1.29214286,17.5114286 1.56857143,17.7878571 C1.70357143,17.9292857 1.88357143,18 2.06357143,18 C2.24357143,18 2.43,17.9292857 2.565,17.7942857 L3.17571429,17.1835714 L3.78642857,17.7942857 C3.93428571,17.9292857 4.11428571,18 4.29428571,18 C4.47428571,18 4.66071429,17.9292857 4.79571429,17.7942857 C5.07214286,17.5178571 5.07214286,17.0678571 4.79571429,16.7914286 L4.185,16.1807143 L4.79571429,15.57 C5.07857143,15.2807143 5.07857143,14.8371429 4.79571429,14.5542857 Z" id="Path"></path>
                    </g>
                </g>
            </g>
        </g>
    </g>
</svg>