<?xml version="1.0" encoding="UTF-8"?>
<svg width="35px" height="36px" viewBox="0 0 35 36" version="1.1" xmlns="http://www.w3.org/2000/svg" xmlns:xlink="http://www.w3.org/1999/xlink">
    <title>Carte</title>
    <g id="Welcome" stroke="none" stroke-width="1" fill="none" fill-rule="evenodd">
        <g id="Vendeur-/-Infos-/-1" transform="translate(-539.000000, -309.000000)">
            <g id="Group-2" transform="translate(201.500000, 288.000000)">
                <g id="Carte" transform="translate(337.500000, 21.500000)">
                    <path d="M1.28244898,13.3498657 C0.857478746,13.2630708 0.442664242,13.5367521 0.35555529,13.9616176 C0.119670111,15.1135079 0,16.2987969 0,17.4847141 C0,27.1258533 7.8504849,34.9694281 17.5,34.9694281 C27.1495151,34.9694281 35,27.1258533 35,17.4847141 C35,7.84357482 27.1496198,0 17.5001047,0 C10.5565161,0 4.26477891,4.10490466 1.47101055,10.457681 C1.29647855,10.8546968 1.47666425,11.3180913 1.87368005,11.4926233 C2.27048646,11.6674694 2.73388096,11.4868649 2.90862235,11.0899538 C5.45163838,5.30705008 11.1791567,1.57047389 17.5001047,1.57047389 C26.2836605,1.57047389 33.4296308,8.70963882 33.4296308,17.4848188 C33.4296308,26.259894 26.2836605,33.3990589 17.5001047,33.3990589 C8.71654891,33.3990589 1.57057859,26.259894 1.57057859,17.4848188 C1.57057859,16.4045421 1.67946478,15.3252078 1.89420091,14.2767594 C1.98120517,13.8518938 1.70731452,13.4368699 1.28244898,13.3498657 L1.28244898,13.3498657 Z" id="Path" fill="#1A7EF5" fill-rule="nonzero"></path>
                    <g id="4105959-billing-card-credit-credit-card-debit-debit-card-payment_113950" transform="translate(9.500000, 12.000000)" stroke="#1A7EF5">
                        <path d="M13.76,10.9714377 L2.28571429,10.9714377 C1.05142857,10.9714377 0.0457188571,9.96572343 0.0457188571,8.73143771 L0.0457188571,2.23999543 C0.0457188571,1.00570971 1.05142857,0 2.28571429,0 L13.76,0 C14.9942857,0 16,1.00570971 16,2.23999543 L16,8.73143771 C16,9.96572343 14.9942857,10.9714377 13.76,10.9714377 Z" id="Path"></path>
                        <line x1="0" y1="6.491392" x2="15.4971429" y2="6.491392" id="Path"></line>
                        <line x1="5.02857143" y1="8.96000914" x2="6.99428571" y2="8.96000914" id="Path"></line>
                        <line x1="2.011424" y1="8.96000914" x2="4.02285714" y2="8.96000914" id="Path"></line>
                        <line x1="10.5142857" y1="2.97142857" x2="13.4857143" y2="2.97142857" id="Path"></line>
                    </g>
                </g>
            </g>
        </g>
    </g>
</svg>