<?xml version="1.0" encoding="UTF-8"?>
<svg width="35px" height="36px" viewBox="0 0 35 36" version="1.1" xmlns="http://www.w3.org/2000/svg" xmlns:xlink="http://www.w3.org/1999/xlink">
    <title>Identité</title>
    <g id="Welcome" stroke="none" stroke-width="1" fill="none" fill-rule="evenodd">
        <g id="Vendeur-/-Infos-/-1" transform="translate(-685.000000, -309.000000)" fill="#1A7EF5" fill-rule="nonzero">
            <g id="Group-2" transform="translate(201.500000, 288.000000)">
                <g id="Identité" transform="translate(483.500000, 21.500000)">
                    <path d="M1.28244898,13.3498657 C0.857478746,13.2630708 0.442664242,13.5367521 0.35555529,13.9616176 C0.119670111,15.1135079 0,16.2987969 0,17.4847141 C0,27.1258533 7.8504849,34.9694281 17.5,34.9694281 C27.1495151,34.9694281 35,27.1258533 35,17.4847141 C35,7.84357482 27.1496198,0 17.5001047,0 C10.5565161,0 4.26477891,4.10490466 1.47101055,10.457681 C1.29647855,10.8546968 1.47666425,11.3180913 1.87368005,11.4926233 C2.27048646,11.6674694 2.73388096,11.4868649 2.90862235,11.0899538 C5.45163838,5.30705008 11.1791567,1.57047389 17.5001047,1.57047389 C26.2836605,1.57047389 33.4296308,8.70963882 33.4296308,17.4848188 C33.4296308,26.259894 26.2836605,33.3990589 17.5001047,33.3990589 C8.71654891,33.3990589 1.57057859,26.259894 1.57057859,17.4848188 C1.57057859,16.4045421 1.67946478,15.3252078 1.89420091,14.2767594 C1.98120517,13.8518938 1.70731452,13.4368699 1.28244898,13.3498657 L1.28244898,13.3498657 Z" id="Path"></path>
                    <g id="id_card_icon_124180" transform="translate(9.500000, 12.100000)">
                        <path d="M6.73684211,5.47368421 C6.73684211,5.70526316 6.54736842,5.89473684 6.31578947,5.89473684 L2.52631579,5.89473684 C2.29473684,5.89473684 2.10526316,5.70526316 2.10526316,5.47368421 C2.10526316,5.24210526 2.29473684,5.05263158 2.52631579,5.05263158 L6.31578947,5.05263158 C6.54736842,5.05263158 6.73684211,5.24210526 6.73684211,5.47368421 Z M5.47368421,8 L2.52631579,8 C2.29473684,8 2.10526316,8.18947368 2.10526316,8.42105263 C2.10526316,8.65263158 2.29473684,8.84210526 2.52631579,8.84210526 L5.47368421,8.84210526 C5.70526316,8.84210526 5.89473684,8.65263158 5.89473684,8.42105263 C5.89473684,8.18947368 5.70526316,8 5.47368421,8 Z M6.31578947,2.10526316 L2.52631579,2.10526316 C2.29473684,2.10526316 2.10526316,2.29473684 2.10526316,2.52631579 C2.10526316,2.75789474 2.29473684,2.94736842 2.52631579,2.94736842 L6.31578947,2.94736842 C6.54736842,2.94736842 6.73684211,2.75789474 6.73684211,2.52631579 C6.73684211,2.29473684 6.54736842,2.10526316 6.31578947,2.10526316 Z M16,0.421052632 L16,10.5263158 C16,10.7578947 15.8105263,10.9473684 15.5789474,10.9473684 L0.421052632,10.9473684 C0.189473684,10.9473684 0,10.7578947 0,10.5263158 L0,0.421052632 C0,0.189473684 0.189473684,0 0.421052632,0 L15.5789474,0 C15.8105263,0 16,0.189473684 16,0.421052632 Z M15.1578947,0.842105263 L0.842105263,0.842105263 L0.842105263,10.1052632 L15.1578947,10.1052632 L15.1578947,0.842105263 Z M13.8736842,8.42105263 C13.8736842,8.65263158 13.6842105,8.84210526 13.4526316,8.84210526 L7.57894737,8.84210526 C7.34736842,8.84210526 7.15789474,8.65263158 7.15789474,8.42105263 C7.15789474,7.03157895 7.97894737,5.85263158 9.17894737,5.32631579 C8.77894737,4.92631579 8.50526316,4.37894737 8.50526316,3.78947368 C8.50526316,2.67368421 9.43157895,1.68421053 10.5052632,1.68421053 C11.5789474,1.68421053 12.5052632,2.67368421 12.5052632,3.78947368 C12.5052632,4.37894737 12.2526316,4.92631579 11.8315789,5.32631579 C13.0315789,5.85263158 13.8736842,7.03157895 13.8736842,8.42105263 Z M9.34736842,3.78947368 C9.34736842,4.37894737 9.85263158,5.05263158 10.5052632,5.05263158 C11.1578947,5.05263158 11.6631579,4.37894737 11.6631579,3.78947368 C11.6631579,3.2 11.1578947,2.52631579 10.5052632,2.52631579 C9.85263158,2.52631579 9.34736842,3.2 9.34736842,3.78947368 Z M13.0105263,8 C12.8210526,6.8 11.7684211,5.89473684 10.5263158,5.89473684 C9.28421053,5.89473684 8.25263158,6.8 8.04210526,8 L13.0105263,8 Z" id="Profile"></path>
                    </g>
                </g>
            </g>
        </g>
    </g>
</svg>