<?xml version="1.0" encoding="UTF-8"?>
<svg width="35px" height="36px" viewBox="0 0 35 36" version="1.1" xmlns="http://www.w3.org/2000/svg" xmlns:xlink="http://www.w3.org/1999/xlink">
    <title>Tel</title>
    <g id="Welcome" stroke="none" stroke-width="1" fill="none" fill-rule="evenodd">
        <g id="Vendeur-/-Infos-/-1" transform="translate(-393.000000, -309.000000)" fill="#1A7EF5" fill-rule="nonzero">
            <g id="Group-2" transform="translate(201.500000, 288.000000)">
                <g id="Tel" transform="translate(191.500000, 21.500000)">
                    <path d="M1.28244898,13.3498657 C0.857478746,13.2630708 0.442664242,13.5367521 0.35555529,13.9616176 C0.119670111,15.1135079 0,16.2987969 0,17.4847141 C0,27.1258533 7.8504849,34.9694281 17.5,34.9694281 C27.1495151,34.9694281 35,27.1258533 35,17.4847141 C35,7.84357482 27.1496198,0 17.5001047,0 C10.5565161,0 4.26477891,4.10490466 1.47101055,10.457681 C1.29647855,10.8546968 1.47666425,11.3180913 1.87368005,11.4926233 C2.27048646,11.6674694 2.73388096,11.4868649 2.90862235,11.0899538 C5.45163838,5.30705008 11.1791567,1.57047389 17.5001047,1.57047389 C26.2836605,1.57047389 33.4296308,8.70963882 33.4296308,17.4848188 C33.4296308,26.259894 26.2836605,33.3990589 17.5001047,33.3990589 C8.71654891,33.3990589 1.57057859,26.259894 1.57057859,17.4848188 C1.57057859,16.4045421 1.67946478,15.3252078 1.89420091,14.2767594 C1.98120517,13.8518938 1.70731452,13.4368699 1.28244898,13.3498657 L1.28244898,13.3498657 Z" id="Path"></path>
                    <g id="2849835-call-cell-communication-interface-multimedia-phone-telephone_108000" transform="translate(10.000000, 9.500000)">
                        <path d="M11.7256396,16 C11.1030923,15.9953822 10.48327,15.9172365 9.87905821,15.7671875 C7.79250079,15.2637552 5.64386002,13.9866691 3.82991214,12.1711293 C2.01596426,10.3555896 0.737286218,8.20655083 0.233853996,6.12198326 C-0.296242224,3.92916781 0.0818294045,2.05313659 1.2972302,0.837735796 L1.64426016,0.490705838 C2.29984672,-0.163568613 3.36137154,-0.163568613 4.01695811,0.490705838 L6.01118646,2.48453622 C6.66589935,3.13994137 6.66589935,4.20182902 6.01118646,4.85723417 L4.83319486,6.0348278 C5.39791448,7.02577344 6.16599684,8.01751502 7.07376672,8.9252849 C7.9815366,9.83305478 8.97407412,10.6015351 9.96462179,11.1662547 L11.1422154,9.98826313 C11.4568148,9.67354865 11.8835723,9.49673422 12.3285644,9.49673422 C12.7735565,9.49673422 13.200314,9.67354865 13.5149134,9.98826313 L15.5087437,11.9820935 C16.1636305,12.6372713 16.1636305,13.6992157 15.5087437,14.3543935 L15.1613158,14.7014234 C14.3044861,15.559845 13.1185351,16 11.7256396,16 Z M2.83060913,1.19311724 C2.70224733,1.19248632 2.57903345,1.24355051 2.48875279,1.3348005 L2.14132486,1.68183045 C1.23116716,2.59198815 0.965323106,4.06965127 1.39274303,5.8402204 C1.84523508,7.71585365 3.01009366,9.66471341 4.67241492,11.3266367 C6.33473618,12.98856 8.28319796,14.1522247 10.1592292,14.6063086 C11.9301963,15.0337285 13.4070635,14.7678845 14.3172212,13.8577268 L14.6642511,13.5106968 C14.8530569,13.3217409 14.8530569,13.0155421 14.6642511,12.8265861 L12.6708187,10.8327558 C12.4818628,10.64395 12.175664,10.64395 11.986708,10.8327558 L10.4939221,12.3255417 C10.3101197,12.5094447 10.0284247,12.5532281 9.79747433,12.4337896 C8.57371616,11.8010171 7.34000874,10.8797162 6.22967206,9.76937955 C5.11933538,8.65904288 4.20002437,7.42613139 3.56565997,6.20237323 C3.44612005,5.97150676 3.48974088,5.6898224 3.67350988,5.50592549 L5.16669383,4.01313951 C5.35549959,3.8241836 5.35549959,3.51798476 5.16669383,3.32902885 L3.17286345,1.3348005 C3.08230796,1.24371698 2.95904712,1.19269273 2.83060913,1.19311724 Z" id="Shape"></path>
                        <path d="M12.3631878,8.82340454 C12.0334985,8.82340454 11.7662326,8.55613859 11.7662326,8.22644934 C11.7638204,6.04594092 9.99688716,4.27882964 7.81637899,4.27619777 C7.48668974,4.27619777 7.21942379,4.00893182 7.21942379,3.67924257 C7.21942379,3.34955331 7.48668974,3.08228736 7.81637899,3.08228736 C10.6527122,3.08228736 12.960143,5.39051415 12.960143,8.22644934 C12.960143,8.3847717 12.8972497,8.53660959 12.7852989,8.64856041 C12.6733481,8.76051123 12.5215102,8.82340454 12.3631878,8.82340454 Z" id="Path"></path>
                        <path d="M14.8863185,8.82340454 C14.5566292,8.82340454 14.2893633,8.55613859 14.2893633,8.22644934 C14.2893633,4.65705519 11.3841813,1.75306711 7.81637899,1.75306711 C7.48668974,1.75306711 7.21942379,1.48580116 7.21942379,1.1561119 C7.21942379,0.826422649 7.48668974,0.559156701 7.81637899,0.559156701 C12.0440157,0.559156701 15.4832737,3.99881258 15.4832737,8.22644934 C15.4832737,8.55613859 15.2160077,8.82340454 14.8863185,8.82340454 Z" id="Path"></path>
                    </g>
                </g>
            </g>
        </g>
    </g>
</svg>