<?xml version="1.0" encoding="UTF-8"?>
<svg width="34px" height="34px" viewBox="0 0 34 34" version="1.1" xmlns="http://www.w3.org/2000/svg" xmlns:xlink="http://www.w3.org/1999/xlink">
    <title>470E6EE4-B34F-4FA0-9801-36EB0CF120D3</title>
    <g id="Welcome" stroke="none" stroke-width="1" fill="none" fill-rule="evenodd">
        <g id="Formulaire_de_vente" transform="translate(-506.000000, -3387.000000)" fill="#1A7EF5" fill-rule="nonzero">
            <g id="Group-9" transform="translate(56.000000, 2685.000000)">
                <g id="Group-5" transform="translate(0.000000, 460.000000)">
                    <g id="Group-3-Copy-4" transform="translate(416.000000, 208.000000)">
                        <g id="1497554804-social-media04_84871" transform="translate(34.000000, 34.000000)">
                            <path d="M28.1234568,0 L5.87654321,0 C2.63604938,0 0,2.63604938 0,5.87654321 L0,28.1234568 C0,31.3639506 2.63604938,34 5.87654321,34 L28.1234568,34 C31.3639506,34 34,31.3639506 34,28.1234568 L34,5.87654321 C34,2.63604938 31.3471605,0 28.1234568,0 Z M26.4612346,19.0232099 L13.6671605,26.7634568 C12.0720988,27.7204938 10.057284,26.5787654 10.057284,24.7318519 L10.057284,9.25135802 C10.057284,7.38765432 12.0888889,6.24592593 13.6671605,7.21975309 L26.4612346,14.96 C28.0059259,15.8834568 28.0059259,18.0997531 26.4612346,19.0232099 Z" id="Shape"></path>
                        </g>
                    </g>
                </g>
            </g>
        </g>
    </g>
</svg>