<?xml version="1.0" encoding="UTF-8"?>
<svg width="20px" height="20px" viewBox="0 0 20 20" version="1.1" xmlns="http://www.w3.org/2000/svg" xmlns:xlink="http://www.w3.org/1999/xlink">
    <title>13E89863-2FC4-479B-870B-39FB90E129ED</title>
    <g id="Welcome" stroke="none" stroke-width="1" fill="none" fill-rule="evenodd">
        <g id="Assets-2" transform="translate(-102.000000, -221.000000)" fill-rule="nonzero">
            <g id="messager-copy" transform="translate(102.000000, 221.000000)">
                <path d="M16.4227295,19.6575928 C12.1452332,20.1141357 7.85476684,20.1141357 3.57727051,19.6575928 C1.87164305,19.4755554 0.52444457,18.128357 0.342407227,16.4225769 C-0.114135742,12.1450805 -0.114135742,7.85476684 0.342407227,3.57727051 C0.52444457,1.87164305 1.87164305,0.52444457 3.57727051,0.342407227 C7.85476684,-0.114135742 12.1450805,-0.114135742 16.4225769,0.342407227 C18.128357,0.52444457 19.4755554,1.87164305 19.6575928,3.57727051 C20.1141357,7.85476684 20.1141357,12.1450805 19.6575928,16.4225769 C19.4755554,18.128357 18.1285095,19.4755554 16.4227295,19.6575928 Z" id="Path" fill="#9B9B9B"></path>
                <g id="Icons/Chariot" transform="translate(2.500000, 2.500000)" fill="#FFFFFF">
                    <g id="Icons/Shopping" transform="translate(0.208333, 1.250000)">
                        <g id="shoppingbasket2_114884" transform="translate(1.225962, 0.000000)">
                            <path d="M12.1208503,5.82223312 C12.1208503,5.39468136 11.770957,5.04478806 11.3434053,5.04478806 L0.777337498,5.04478806 C0.34978574,5.04478806 0,5.39468136 0,5.82223312 C0,6.18567901 0.25362693,6.49061215 0.59201129,6.57461666 L1.66395615,11.6458645 C1.66395615,12.1156874 2.04826871,12.5 2.51809162,12.5 L9.74247939,12.5 C10.2123023,12.5 10.5966149,12.1156874 10.5966149,11.6458645 L11.6802838,6.51922316 C11.9396114,6.39294749 12.1208503,6.12877967 12.1208503,5.82223312 Z M3.49194159,10.6548049 C3.49194159,10.8016246 3.37179686,10.9216618 3.2249772,10.9216618 L3.15140603,10.9216618 C3.00458637,10.9216618 2.88444163,10.801517 2.88444163,10.6548049 L2.88444163,7.53071919 C2.88444163,7.38389953 3.00458637,7.26386236 3.15140603,7.26386236 L3.2249772,7.26386236 C3.37179686,7.26386236 3.49194159,7.38389953 3.49194159,7.53071919 L3.49194159,10.6548049 Z M5.4462027,10.6548049 C5.4462027,10.8016246 5.32605796,10.9216618 5.1792383,10.9216618 L5.10566713,10.9216618 C4.95884747,10.9216618 4.83870274,10.801517 4.83870274,10.6548049 L4.83870274,7.53071919 C4.83870274,7.38389953 4.95873991,7.26386236 5.10566713,7.26386236 L5.1792383,7.26386236 C5.32605796,7.26386236 5.4462027,7.38389953 5.4462027,7.53071919 L5.4462027,10.6548049 Z M7.40035624,10.6548049 C7.40035624,10.8016246 7.28031907,10.9216618 7.13339185,10.9216618 L7.05992824,10.9216618 C6.91310858,10.9216618 6.7930714,10.801517 6.7930714,10.6548049 L6.7930714,7.53071919 C6.7930714,7.38389953 6.91310858,7.26386236 7.05992824,7.26386236 L7.13349941,7.26386236 C7.28031907,7.26386236 7.4004638,7.38389953 7.4004638,7.53071919 L7.4004638,10.6548049 L7.40035624,10.6548049 Z M9.35461734,10.6548049 C9.35461734,10.8016246 9.23447261,10.9216618 9.08776051,10.9216618 L9.01418934,10.9216618 C8.86736968,10.9216618 8.74722495,10.801517 8.74722495,10.6548049 L8.74722495,7.53071919 C8.74722495,7.38389953 8.86736968,7.26386236 9.01418934,7.26386236 L9.08776051,7.26386236 C9.23458017,7.26386236 9.35461734,7.38389953 9.35461734,7.53071919 L9.35461734,10.6548049 Z" id="Shape"></path>
                            <path d="M2.63737588,3.75040873 C2.8793863,2.06515566 4.32499527,0.768517562 6.07725833,0.768517562 C7.8295214,0.768517562 9.27523792,2.06515566 9.51724835,3.75040873 C9.55252809,4.32585575 10.2938329,4.23378423 10.2938329,3.75040873 C10.0469823,1.63921731 8.25481439,0 6.07725833,0 C3.89980983,0 2.10753438,1.63921731 1.8607913,3.75040873 C1.8607913,4.34898119 2.64684117,4.37199907 2.63737588,3.75040873 Z" id="Path"></path>
                        </g>
                    </g>
                </g>
            </g>
        </g>
    </g>
</svg>