<?xml version="1.0" encoding="UTF-8"?>
<svg width="14px" height="14px" viewBox="0 0 14 14" version="1.1" xmlns="http://www.w3.org/2000/svg" xmlns:xlink="http://www.w3.org/1999/xlink">
    <title>EDC8E06A-07A8-4B21-9BF4-FE9AA7028A18</title>
    <g id="Welcome" stroke="none" stroke-width="1" fill="none" fill-rule="evenodd">
        <g id="Home-page-/-Profil_Connecté" transform="translate(-1122.000000, -273.000000)" fill="#191970">
            <g id="calendar-/-calendar" transform="translate(1122.000000, 273.000000)">
                <g id="Location" transform="translate(2.000833, 1.166667)">
                    <path d="M3.19444444,5 C3.19444444,4.00281667 4.00283333,3.19444444 5,3.19444444 C5.99716667,3.19444444 6.80555556,4.00281667 6.80555556,5 C6.80555556,5.99716667 5.99716667,6.80555556 5,6.80555556 C4.00283333,6.80555556 3.19444444,5.99716667 3.19444444,5 Z" id="Path" fill-rule="nonzero"></path>
                    <path d="M0.429744444,4.37632778 C0.620655556,2.06025 2.55609444,0.277777778 4.88005556,0.277777778 L5.12,0.277777778 C7.44394444,0.277777778 9.37938889,2.06025 9.57027778,4.37632778 C9.67305556,5.62333333 9.28788889,6.86155556 8.49583333,7.83016667 L5.83305556,11.0867222 C5.4025,11.6132778 4.59755556,11.6132778 4.167,11.0867222 L1.50417778,7.83016667 C0.71215,6.86155556 0.326955556,5.62333333 0.429744444,4.37632778 Z M5,2.36111111 C3.54258333,2.36111111 2.36111111,3.54258333 2.36111111,5 C2.36111111,6.45744444 3.54258333,7.63888889 5,7.63888889 C6.45744444,7.63888889 7.63888889,6.45744444 7.63888889,5 C7.63888889,3.54258333 6.45744444,2.36111111 5,2.36111111 Z" id="Shape"></path>
                </g>
            </g>
        </g>
    </g>
</svg>