<?xml version="1.0" encoding="UTF-8"?>
<svg width="16px" height="16px" viewBox="0 0 16 16" version="1.1" xmlns="http://www.w3.org/2000/svg" xmlns:xlink="http://www.w3.org/1999/xlink">
    <title>1CEC263E-6455-4D47-8AE8-CC266402953F</title>
    <defs>
        <rect id="path-1" x="0" y="0" width="16" height="16"></rect>
    </defs>
    <g id="Welcome" stroke="none" stroke-width="1" fill="none" fill-rule="evenodd">
        <g id="Assets" transform="translate(-1859.000000, -454.000000)">
            <g id="basic-/-help_circle" transform="translate(1859.000000, 454.000000)">
                <mask id="mask-2" fill="white">
                    <use xlink:href="#path-1"></use>
                </mask>
                <g id="basic-/-help_circle-(Background/Mask)"></g>
                <path d="M8,1.33333333 C4.32000001,1.33333333 1.33333333,4.32000001 1.33333333,8 C1.33333333,11.6800003 4.32000001,14.6666667 8,14.6666667 C11.6800003,14.6666667 14.6666667,11.6800003 14.6666667,8 C14.6666667,4.32000001 11.6800003,1.33333333 8,1.33333333 C5.54666668,1.33333333 5.54666668,1.33333333 8,1.33333333 Z M7.33333333,12.6666667 L7.33333333,11.3333333 L8.66666667,11.3333333 L8.66666667,12.6666667 L7.33333333,12.6666667 L7.33333333,12.6666667 Z M9.44666672,8.11333338 L10.0466665,7.5 C10.4266669,7.1200002 10.6666667,6.58666674 10.6666667,6 C10.6666667,4.52666664 9.47333336,3.33333333 8,3.33333333 C6.52666664,3.33333333 5.33333333,4.52666664 5.33333333,6 L6.66666667,6 C6.66666667,5.26666673 7.26666641,4.66666667 8,4.66666667 C8.73333359,4.66666667 9.33333333,5.26666673 9.33333333,6 C9.33333333,6.36666679 9.18666649,6.70000013 8.9399999,6.9399999 L8.11333338,7.78000005 C7.63333321,8.26666641 7.33333333,8.93333308 7.33333333,9.66666667 L7.33333333,10 L8.66666667,10 C8.66666667,9 8.96666654,8.59999975 9.44666672,8.11333338 L9.44666672,8.11333338 Z" fill="#FF9500" mask="url(#mask-2)"></path>
            </g>
        </g>
    </g>
</svg>