<?xml version="1.0" encoding="UTF-8"?>
<svg width="20px" height="20px" viewBox="0 0 20 20" version="1.1" xmlns="http://www.w3.org/2000/svg" xmlns:xlink="http://www.w3.org/1999/xlink">
    <title>15F99853-DD0C-4F30-A0B3-54B22E2490A4</title>
    <g id="Welcome" stroke="none" stroke-width="1" fill="none" fill-rule="evenodd">
        <g id="Assets-2" transform="translate(-207.000000, -221.000000)" fill-rule="nonzero">
            <g id="Icons/Help" transform="translate(207.000000, 221.000000)">
                <g id="messager-copy-4" fill="#9B9B9B">
                    <path d="M16.4227295,19.6575928 C12.1452332,20.1141357 7.85476684,20.1141357 3.57727051,19.6575928 C1.87164305,19.4755554 0.52444457,18.128357 0.342407227,16.4225769 C-0.114135742,12.1450805 -0.114135742,7.85476684 0.342407227,3.57727051 C0.52444457,1.87164305 1.87164305,0.52444457 3.57727051,0.342407227 C7.85476684,-0.114135742 12.1450805,-0.114135742 16.4225769,0.342407227 C18.128357,0.52444457 19.4755554,1.87164305 19.6575928,3.57727051 C20.1141357,7.85476684 20.1141357,12.1450805 19.6575928,16.4225769 C19.4755554,18.128357 18.1285095,19.4755554 16.4227295,19.6575928 Z" id="Path"></path>
                </g>
                <g id="help-web-button" transform="translate(2.500000, 2.500000)" fill="#FFFFFF">
                    <path d="M7.49777778,0 C3.35840278,0 0.000277777778,3.35388889 0.000277777778,7.49354167 C0.000277777778,11.6371528 3.35840278,14.9949653 7.49774306,14.9949653 C11.639375,14.9949653 14.9946528,11.6371181 14.9946528,7.49354167 C14.9946528,3.35388889 11.639375,0 7.49777778,0 Z M8.03204861,11.6653472 C7.85791667,11.8203125 7.65611111,11.8981944 7.4275,11.8981944 C7.19097222,11.8981944 6.98465278,11.8217014 6.80854167,11.6684375 C6.63215278,11.5154514 6.54378472,11.30125 6.54378472,11.0260417 C6.54378472,10.7819097 6.62930556,10.5764236 6.79979167,10.4098958 C6.97027778,10.2433681 7.17940972,10.1601042 7.4275,10.1601042 C7.67163194,10.1601042 7.87711806,10.2433681 8.04392361,10.4098958 C8.21045139,10.5764236 8.29399306,10.781875 8.29399306,11.0260417 C8.29368056,11.2972917 8.20645833,11.5104167 8.03204861,11.6653472 Z M10.2033333,6.28243056 C10.0695486,6.53052083 9.91065972,6.74444444 9.72635417,6.92482639 C9.54260417,7.10517361 9.21211806,7.40829861 8.73510417,7.83447917 C8.60357639,7.95472222 8.49774306,8.06027778 8.4184375,8.15114583 C8.33913194,8.24232639 8.27986111,8.32555556 8.24118056,8.40121528 C8.20222222,8.47684028 8.17232639,8.5525 8.15114583,8.628125 C8.12996528,8.70347222 8.09809028,8.83642361 8.05489583,9.02635417 C7.98152778,9.42940972 7.7509375,9.63090278 7.36340278,9.63090278 C7.161875,9.63090278 6.99253472,9.56513889 6.85451389,9.43333333 C6.71704861,9.30152778 6.64847222,9.1059375 6.64847222,8.84628472 C6.64847222,8.52086806 6.69899306,8.23888889 6.79975694,8.00041667 C6.89996528,7.76190972 7.03402778,7.55277778 7.20055556,7.37243056 C7.36736111,7.19208333 7.59201389,6.978125 7.87510417,6.73003472 C8.12319444,6.51298611 8.30243056,6.34930556 8.41277778,6.23892361 C8.52340278,6.12829861 8.61628472,6.00524306 8.69163194,5.86975694 C8.76756944,5.73399306 8.80482639,5.58694444 8.80482639,5.42805556 C8.80482639,5.11788194 8.68996528,4.85652778 8.45909722,4.6434375 C8.22850694,4.43034722 7.93100694,4.32364583 7.56663194,4.32364583 C7.14017361,4.32364583 6.82631944,4.43118056 6.62479167,4.64625 C6.42326389,4.86131944 6.25309028,5.17798611 6.11336806,5.5965625 C5.98128472,6.03461806 5.73121528,6.25361111 5.3634375,6.25361111 C5.14638889,6.25361111 4.96322917,6.17711806 4.81392361,6.02413194 C4.66489583,5.87114583 4.59038194,5.70548611 4.59038194,5.52711806 C4.59038194,5.1590625 4.70864583,4.7859375 4.94489583,4.40802083 C5.18142361,4.03010417 5.52631944,3.71708333 5.97986111,3.46927083 C6.433125,3.22118056 6.96236111,3.09697917 7.56663194,3.09697917 C8.12857639,3.09697917 8.62447917,3.20083333 9.05461806,3.40829861 C9.48475694,3.61545139 9.81722222,3.89743056 10.0517708,4.25416667 C10.2860417,4.610625 10.4034409,4.99815972 10.4034409,5.41673611 C10.4039931,5.74559028 10.3371181,6.03434028 10.2033333,6.28243056 Z" id="Shape"></path>
                </g>
            </g>
        </g>
    </g>
</svg>