<?xml version="1.0" encoding="UTF-8"?>
<svg width="26px" height="29px" viewBox="0 0 26 29" version="1.1" xmlns="http://www.w3.org/2000/svg" xmlns:xlink="http://www.w3.org/1999/xlink">
    <title>0D692925-3F45-44E7-AD38-7C3827BD91C6</title>
    <g id="Welcome" stroke="none" stroke-width="1" fill="none" fill-rule="evenodd">
        <g id="Assets" transform="translate(-1357.000000, -705.000000)" fill="#191970" fill-rule="nonzero">
            <g id="Icons/Beauté-Copy" transform="translate(1357.000000, 705.718881)">
                <path d="M11.7954129,2.00087052 C11.9039006,1.99364009 12.0105334,2.03169368 12.0899325,2.10597445 C12.1693316,2.18025522 12.2143958,2.28411979 12.2143997,2.39284811 L12.2143997,2.39284811 L12.2143997,3.96429421 C12.2143997,4.18126564 12.0385096,4.35715574 11.8215382,4.35715574 L11.8215382,4.35715574 L9.07150753,4.35715574 L9.07150753,5.92860185 L9.46436906,5.92860185 C9.65641536,5.92860625 9.82031024,6.06745268 9.85187785,6.25688676 L9.85187785,6.25688676 L10.2447394,8.61405592 C10.2575854,8.69211012 10.2465269,8.77222457 10.2130158,8.84387991 C11.9222761,9.71689505 12.9986041,11.4736678 13.0001228,13.3929708 C13.0001321,13.4103466 12.9989837,13.4277037 12.9966853,13.4449268 L12.9966853,13.4449268 L12.6912354,15.7357023 C13.1874686,15.5095123 13.7899218,15.3572785 14.5715689,15.3572785 C14.7057298,15.353401 14.832523,15.4185305 14.9075146,15.5298429 C14.9797845,15.6379463 14.990933,15.7757603 14.9369792,15.8940746 C14.9121119,15.9799226 14.927673,16.0724219 14.979261,16.1454078 C15.0507618,16.2456366 15.2949252,16.4594024 16.0847733,16.519412 L16.0847733,16.519412 L15.360484,11.0873648 L15.360484,11.0873648 C15.359158,11.0744985 15.358667,11.0664449 15.3581759,11.0583421 C15.3578321,11.0524492 15.357292,11.0466054 15.357292,11.0407125 L15.357292,9.46435558 C15.357292,9.24738415 15.5331821,9.07149406 15.7501535,9.07149406 L15.7501535,9.07149406 L23.6071385,9.07149406 C23.8241099,9.07149406 24,9.24738415 24,9.46435558 L24,9.46435558 L23.9991161,11.058735 L23.9991161,11.058735 L23.9972009,11.0828469 C23.996808,11.0843692 23.996808,11.0860389 23.996808,11.0877576 L23.996808,11.0877576 L22.4287994,22.8476746 L22.4287994,24.3930936 C22.4280687,25.043705 21.9008262,25.5709475 21.2502149,25.5716782 L21.2502149,25.5716782 L4.65220822,25.5716782 C4.06210596,25.5700807 3.5635495,25.1335792 3.48398536,24.5488632 L3.48398536,24.5488632 L2.00343759,13.4449268 C2.00113914,13.4277037 2,13.4103466 2,13.3929708 C2.00151876,11.4736678 3.07784671,9.71689505 4.78710705,8.84387991 C4.75359598,8.77222457 4.74253745,8.69211012 4.75538348,8.61405592 L4.75538348,8.61405592 L5.14824501,6.25688676 C5.17981262,6.06745268 5.34370749,5.92860625 5.53575379,5.92860185 L5.53575379,5.92860185 L5.92861532,5.92860185 L5.92861532,4.35715574 L5.53575379,4.35715574 C5.40947293,4.35714931 5.29089332,4.29643965 5.21705941,4.19399254 C5.14322549,4.09154544 5.1231392,3.95985137 5.16307553,3.84005175 L5.16307553,3.84005175 L5.55593706,2.66146718 C5.60638839,2.51014296 5.74333068,2.40434597 5.90249003,2.39373205 L5.90249003,2.39373205 Z M18.1580509,20.0716168 L8.62791776,20.0716168 C8.43904131,20.0718063 8.28597397,20.2248736 8.28578448,20.4137501 L8.28578448,20.4137501 L8.28578448,24.4438218 C8.28597397,24.6326983 8.43904131,24.7857656 8.62791776,24.7859551 L8.62791776,24.7859551 L18.1580509,24.7859551 C18.3469273,24.7857656 18.4999947,24.6326983 18.5001842,24.4438218 L18.5001842,24.4438218 L18.5001842,20.4137501 C18.4999947,20.2248736 18.3469273,20.0718063 18.1580509,20.0716168 L18.1580509,20.0716168 Z M21.6430764,23.214509 L19.2859072,23.214509 L19.2859072,24.4438218 C19.2859475,24.5599279 19.268007,24.67534 19.2327236,24.7859551 L19.2327236,24.7859551 L21.2502149,24.7859551 C21.4670853,24.7857115 21.6428328,24.609964 21.6430764,24.3930936 L21.6430764,24.3930936 L21.6430764,23.214509 Z M7.89292295,9.07149406 L7.1071999,9.07149406 C4.73155711,9.07413177 2.80244014,10.9918494 2.78572311,13.3674348 L2.78572311,13.3674348 L4.26278423,24.4450004 C4.28932579,24.639904 4.45550654,24.7854012 4.65220822,24.7859551 L4.65220822,24.7859551 L7.55324506,24.7859551 C7.51796166,24.67534 7.50002119,24.5599279 7.50006143,24.4438218 L7.50006143,24.4438218 L7.50006143,20.4137501 C7.50076506,19.7911439 8.00531159,19.2865974 8.62791776,19.2858937 L8.62791776,19.2858937 L8.67864601,19.2858937 L8.67864601,18.1073092 C8.67864601,17.8903377 8.8545361,17.7144476 9.07150753,17.7144476 C10.0820947,17.7144476 10.6282213,17.2523934 11.2603846,16.7172669 C11.4407572,16.5646402 11.6270227,16.40725 11.829199,16.2559492 L11.829199,16.2559492 L12.2143997,13.3674348 C12.1976827,10.9918494 10.2685657,9.07413177 7.89292295,9.07149406 L7.89292295,9.07149406 Z M13.3929843,20.8573399 C14.2604662,20.8583141 14.9634562,21.5613041 14.9644304,22.428786 C14.9644304,23.2966717 14.26087,24.0002321 13.3929843,24.0002321 C12.5250986,24.0002321 11.8215382,23.2966717 11.8215382,22.428786 C11.8215382,21.5609002 12.5250986,20.8573399 13.3929843,20.8573399 Z M13.3929843,21.6430629 C12.9590415,21.6430629 12.6072613,21.9948431 12.6072613,22.428786 C12.6072613,22.8627288 12.9590415,23.214509 13.3929843,23.214509 C13.826714,23.2139949 14.1781932,22.8625157 14.1787074,22.428786 C14.1787074,21.9948431 13.8269272,21.6430629 13.3929843,21.6430629 Z M23.158687,11.4286632 L16.1988505,11.4286632 L16.8845411,16.5723992 C17.3121968,16.6631978 17.6762105,16.9417862 17.8755834,17.3308675 C17.997652,17.5595028 18.075506,17.8091087 18.1050637,18.0665989 L18.1050637,18.0665989 L18.1057021,18.0747017 L18.1068438,18.0909318 L18.1068438,18.0909318 L18.1073226,18.1073092 L18.1073226,19.2858937 L18.1580509,19.2858937 C18.7806571,19.2865974 19.2852036,19.7911439 19.2859072,20.4137501 L19.2859072,20.4137501 L19.2859072,22.428786 L21.6921841,22.428786 L23.158687,11.4286632 Z M17.3215996,18.5001707 L9.46436906,18.5001707 L9.46436906,19.2858937 L17.3215996,19.2858937 L17.3215996,18.5001707 Z M14.1548901,16.1607294 C13.0155917,16.2613511 12.4076385,16.7758523 11.7679617,17.3171664 C11.6096876,17.4510831 11.4500385,17.5859819 11.2823849,17.7144476 L11.2823849,17.7144476 L17.1895981,17.7144476 C17.1850802,17.7055591 17.1801694,17.6966707 17.1752587,17.6877822 C17.0334848,17.4379222 16.8305227,17.3215861 16.5358765,17.3215861 C15.3990335,17.3215861 14.6542171,17.0708422 14.3220036,16.5762787 C14.2371661,16.4513372 14.1801745,16.3096203 14.1548901,16.1607294 Z M19.6787687,13.0001093 C20.7984241,13.0001093 21.6430764,13.5067534 21.6430764,14.1786939 C21.6430764,14.8506344 20.7984241,15.3572785 19.6787687,15.3572785 C18.5591134,15.3572785 17.7144611,14.8506344 17.7144611,14.1786939 C17.7144611,13.5067534 18.5591134,13.0001093 19.6787687,13.0001093 Z M9.85723059,11.8215247 C10.074202,11.8215247 10.2500921,11.9974148 10.2500921,12.2143863 L10.2500921,12.2143863 L10.2500921,14.5715554 C10.2500921,14.7885269 10.074202,14.964417 9.85723059,14.964417 L9.85723059,14.964417 L5.14289227,14.964417 C4.92592084,14.964417 4.75003074,14.7885269 4.75003074,14.5715554 L4.75003074,14.5715554 L4.75003074,12.2143863 C4.75003074,11.9974148 4.92592084,11.8215247 5.14289227,11.8215247 L5.14289227,11.8215247 Z M19.6787687,13.7858324 C18.9181888,13.7858324 18.5001842,14.0809205 18.5001842,14.1786939 C18.5001842,14.2764673 18.9181888,14.5715554 19.6787687,14.5715554 C20.4393487,14.5715554 20.8573533,14.2764673 20.8573533,14.1786939 C20.8573533,14.0809205 20.4393487,13.7858324 19.6787687,13.7858324 Z M9.46436906,12.6072478 L5.53575379,12.6072478 L5.53575379,14.1786939 L9.46436906,14.1786939 L9.46436906,12.6072478 Z M23.2145225,9.85721711 L16.143015,9.85721711 L16.143015,10.6429402 L23.2145225,10.6429402 L23.2145225,9.85721711 Z M9.13156624,6.7143249 L5.86855661,6.7143249 L5.6066653,8.285771 L9.39345755,8.285771 L9.13156624,6.7143249 Z M8.28578448,4.35715574 L6.71433837,4.35715574 L6.71433837,5.92860185 L8.28578448,5.92860185 L8.28578448,4.35715574 Z M11.4286767,2.81276797 L6.21790873,3.16015578 L6.08084916,3.57143269 L11.4286767,3.57143269 L11.4286767,2.81276797 Z" id="Combined-Shape"></path>
            </g>
        </g>
    </g>
</svg>