<?xml version="1.0" encoding="UTF-8"?>
<svg width="19px" height="16px" viewBox="0 0 19 16" version="1.1" xmlns="http://www.w3.org/2000/svg" xmlns:xlink="http://www.w3.org/1999/xlink">
    <title>BA71C618-5068-4D17-A8F0-1C372367A4CE</title>
    <g id="Welcome" stroke="none" stroke-width="1" fill="none" fill-rule="evenodd">
        <g id="Assets" transform="translate(-1849.000000, -794.000000)" fill-rule="nonzero">
            <g id="barcode_shop_online_ecommerce_shopping-1_icon-icons.com_61653" transform="translate(1849.000000, 794.000000)">
                <g id="Group">
                    <path d="M1.58353125,15.7037037 C0.874,15.7037037 0.296875,15.2206069 0.296875,14.6264277 L0.296875,1.37332378 C0.296875,0.77939307 0.874,0.296296296 1.58353125,0.296296296 L17.4164687,0.296296296 C18.1257031,0.296296296 18.703125,0.77939307 18.703125,1.37332378 L18.703125,14.6266762 C18.703125,15.2206069 18.1257031,15.7037037 17.4164687,15.7037037 L1.58353125,15.7037037 Z" id="Path" fill="#FFFFFF"></path>
                    <path d="M17.4164687,0.5 C17.962125,0.5 18.40625,0.874 18.40625,1.3335 L18.40625,14.6665 C18.40625,15.126 17.962125,15.5 17.4164687,15.5 L1.58353125,15.5 C1.037875,15.5 0.59375,15.126 0.59375,14.6665 L0.59375,1.3335 C0.59375,0.874 1.037875,0.5 1.58353125,0.5 L17.4164687,0.5 M17.4164687,0 L1.58353125,0 C0.7125,0 0,0.6 0,1.3335 L0,14.6665 C0,15.4 0.7125,16 1.58353125,16 L17.4164687,16 C18.2875,16 19,15.4 19,14.6665 L19,1.3335 C19,0.6 18.2875,0 17.4164687,0 L17.4164687,0 Z" id="Shape" fill="#4A4A4A"></path>
                </g>
                <g id="Group" transform="translate(3.317460, 3.320755)" fill="#D0021B">
                    <rect id="Rectangle" x="0" y="-1.05579491e-15" width="1" height="9.35849057"></rect>
                    <rect id="Rectangle" x="5.65204634" y="-1.05579491e-15" width="1" height="9.35849057"></rect>
                    <rect id="Rectangle" x="7.39356489" y="-1.05579491e-15" width="1.19078191" height="9.35849057"></rect>
                    <rect id="Rectangle" x="9.73047439" y="-1.05579491e-15" width="1" height="9.35849057"></rect>
                    <rect id="Rectangle" x="11.7696884" y="-1.05579491e-15" width="1" height="9.35849057"></rect>
                    <rect id="Rectangle" x="1.7578918" y="-1.05579491e-15" width="1.78617287" height="9.35849057"></rect>
                </g>
            </g>
        </g>
    </g>
</svg>