<?xml version="1.0" encoding="UTF-8"?>
<svg width="40px" height="40px" viewBox="0 0 40 40" version="1.1" xmlns="http://www.w3.org/2000/svg" xmlns:xlink="http://www.w3.org/1999/xlink">
    <title>66FE2212-2A58-4316-8F4F-6C72F0A6752F</title>
    <g id="Welcome" stroke="none" stroke-width="1" fill="none" fill-rule="evenodd">
        <g id="Assets" transform="translate(-652.000000, -615.000000)">
            <g id="Icons/edit-survole" transform="translate(652.000000, 615.000000)">
                <circle id="Cercle-de-survole-icone-Copy-3" fill="#F5F5F5" cx="20" cy="20" r="20"></circle>
                <circle id="Oval-Copy-3" stroke="#007AFF" fill="#FFFFFF" cx="20" cy="20" r="14.5"></circle>
                <g id="Icons/Modifier-Copy-3" transform="translate(14.000000, 14.000000)" fill="#1A7EF5" fill-rule="nonzero">
                    <path d="M4.08428527,1.2 C4.24682904,1.2 4.37856533,1.33419275 4.37856533,1.49950602 C4.37856533,1.66493629 4.24682904,1.79901205 4.08428527,1.79901205 L4.08428527,1.79901205 L1.47140027,1.79901205 C0.983998932,1.79959701 0.589134867,2.20159025 0.588560109,2.69753012 L0.588560109,2.69753012 L0.588560109,10.5023529 C0.589134867,10.9984097 0.983998932,11.400403 1.47140027,11.400871 L1.47140027,11.400871 L9.72859973,11.400871 C10.2160011,11.400403 10.6108651,10.9984097 10.6114399,10.5023529 L10.6114399,10.5023529 L10.6114399,7.84306698 C10.6114399,7.67763672 10.7431762,7.54356096 10.9057199,7.54356096 C11.0682637,7.54356096 11.2,7.67763672 11.2,7.84306698 L11.2,7.84306698 L11.2,10.5024699 C11.1990804,11.3291533 10.5408586,11.999064 9.72859973,12 L9.72859973,12 L1.47140027,12 C0.659141355,11.999064 0.00091962517,11.3291533 0,10.5024699 L0,10.5024699 L0,2.69753012 C0.00091962517,1.87084668 0.659141355,1.20093596 1.47140027,1.2 L1.47140027,1.2 Z M9.34394826,0.395384373 C9.87117424,-0.131794791 10.7259389,-0.131794791 11.2531649,0.395384373 L11.2531649,0.395384373 L11.6051958,0.747383989 C12.1316014,1.27491472 12.1316014,2.12890048 11.6051958,2.65643118 L11.6051958,2.65643118 L6.2531314,8.0082549 C6.21645173,8.04493132 6.17098303,8.0714133 6.12106122,8.08524019 L6.12106122,8.08524019 L3.58008747,8.78912223 C3.47590791,8.81794778 3.36434553,8.78853635 3.28782219,8.71213697 C3.21141599,8.63562041 3.18200198,8.52406794 3.21094727,8.41989762 L3.21094727,8.41989762 L3.9147746,5.87914938 C3.9286027,5.82923201 3.95508706,5.78376731 3.9917667,5.74709093 L3.9917667,5.74709093 Z M4.36325067,6.50827252 L3.93071208,8.0694213 L5.49188224,7.63692109 L4.36325067,6.50827252 Z M9.02578454,1.56199828 L4.64543786,5.94207341 L6.0580144,7.35464178 L10.4384783,2.97456666 L9.02578454,1.56199828 Z M10.8288294,0.819565003 C10.5359782,0.526739748 10.061135,0.526739748 9.76828372,0.819565003 L9.76828372,0.819565003 L9.45000285,1.13770048 L10.8628138,2.55038603 L11.1809775,2.23225055 C11.47336,1.93919095 11.47336,1.46474141 11.1809775,1.17156462 L11.1809775,1.17156462 Z" id="Combined-Shape"></path>
                </g>
            </g>
        </g>
    </g>
</svg>