<?xml version="1.0" encoding="UTF-8"?>
<svg width="19px" height="18px" viewBox="0 0 19 18" version="1.1" xmlns="http://www.w3.org/2000/svg" xmlns:xlink="http://www.w3.org/1999/xlink">
    <title>B7E27A76-3908-4B64-A0E6-4A34ABAAAEA5</title>
    <g id="Welcome" stroke="none" stroke-width="1" fill="none" fill-rule="evenodd">
        <g id="Assets" transform="translate(-1580.000000, -167.000000)" fill="#FFFFFF" fill-rule="nonzero">
            <g id="Icons/Chariot" transform="translate(1580.500000, 167.000000)">
                <g id="Icons/Shopping" transform="translate(0.250000, 1.500000)">
                    <g id="shoppingbasket2_114884" transform="translate(1.487500, 0.000000)">
                        <path d="M14.7066317,6.81201275 C14.7066317,6.3117772 14.2820945,5.90240203 13.7633317,5.90240203 L0.943169498,5.90240203 C0.424406698,5.90240203 0,6.3117772 0,6.81201275 C0,7.23724444 0.307734008,7.59401621 0.718307031,7.69230149 L2.01893346,13.6256615 C2.01893346,14.1753543 2.4852327,14.625 3.0552845,14.625 L11.820875,14.625 C12.3909268,14.625 12.857226,14.1753543 12.857226,13.6256615 L14.1720777,7.62749109 C14.4867285,7.47974857 14.7066317,7.17067221 14.7066317,6.81201275 Z M4.23688913,12.4661218 C4.23688913,12.6379008 4.09111352,12.7783443 3.91297233,12.7783443 L3.82370598,12.7783443 C3.64556479,12.7783443 3.49978918,12.6377749 3.49978918,12.4661218 L3.49978918,8.81094145 C3.49978918,8.63916245 3.64556479,8.49871896 3.82370598,8.49871896 L3.91297233,8.49871896 C4.09111352,8.49871896 4.23688913,8.63916245 4.23688913,8.81094145 L4.23688913,12.4661218 Z M6.60805927,12.4661218 C6.60805927,12.6379008 6.46228366,12.7783443 6.28414247,12.7783443 L6.19487612,12.7783443 C6.01673493,12.7783443 5.87095932,12.6377749 5.87095932,12.4661218 L5.87095932,8.81094145 C5.87095932,8.63916245 6.01660443,8.49871896 6.19487612,8.49871896 L6.28414247,8.49871896 C6.46228366,8.49871896 6.60805927,8.63916245 6.60805927,8.81094145 L6.60805927,12.4661218 Z M8.9790989,12.4661218 C8.9790989,12.6379008 8.8334538,12.7783443 8.65518211,12.7783443 L8.56604626,12.7783443 C8.38790507,12.7783443 8.24225997,12.6377749 8.24225997,12.4661218 L8.24225997,8.81094145 C8.24225997,8.63916245 8.38790507,8.49871896 8.56604626,8.49871896 L8.65531261,8.49871896 C8.8334538,8.49871896 8.97922941,8.63916245 8.97922941,8.81094145 L8.97922941,12.4661218 L8.9790989,12.4661218 Z M11.350269,12.4661218 C11.350269,12.6379008 11.2044934,12.7783443 11.0264828,12.7783443 L10.9372164,12.7783443 C10.7590752,12.7783443 10.6132996,12.6377749 10.6132996,12.4661218 L10.6132996,8.81094145 C10.6132996,8.63916245 10.7590752,8.49871896 10.9372164,8.49871896 L11.0264828,8.49871896 C11.2046239,8.49871896 11.350269,8.63916245 11.350269,8.81094145 L11.350269,12.4661218 Z" id="Shape"></path>
                        <path d="M3.20001606,4.38797821 C3.49365538,2.41623212 5.24766092,0.899165548 7.37374011,0.899165548 C9.4998193,0.899165548 11.2539553,2.41623212 11.5475947,4.38797821 C11.5904008,5.06125123 12.4898506,4.95352754 12.4898506,4.38797821 C12.1903385,1.91788425 10.0158415,0 7.37374011,0 C4.73176926,0 2.55714171,1.91788425 2.25776011,4.38797821 C2.25776011,5.08830799 3.21150062,5.11523891 3.20001606,4.38797821 Z" id="Path"></path>
                    </g>
                </g>
            </g>
        </g>
    </g>
</svg>