<?xml version="1.0" encoding="UTF-8"?>
<svg width="24px" height="24px" viewBox="0 0 24 24" version="1.1" xmlns="http://www.w3.org/2000/svg" xmlns:xlink="http://www.w3.org/1999/xlink">
    <title>08F52CE0-AFB1-4F8F-AC6E-69DBC8D31A36</title>
    <g id="Welcome" stroke="none" stroke-width="1" fill="none" fill-rule="evenodd">
        <g id="Home-page" transform="translate(-839.000000, -96.000000)">
            <g id="Group-5" transform="translate(481.000000, 69.000000)">
                <g id="Group-11-Copy" transform="translate(358.000000, 27.000000)">
                    <polygon id="Fill-1" points="0 24 24 24 24 0 0 0"></polygon>
                    <path d="M15.9265846,5.30316923 C16.3512,4.80378462 17.0998154,4.74378462 17.5982769,5.16747692 C18.0976615,5.59116923 18.1576615,6.33978462 17.7339692,6.83916923 L7.65396923,18.6970154 C7.22289231,19.2047077 6.45950769,19.2573231 5.96289231,18.8151692 L0.626584615,14.0724 C0.137353846,13.6367077 0.0930461538,12.8880923 0.527815385,12.3988615 C0.963507692,11.9087077 1.71304615,11.8644 2.20227692,12.2991692 L6.63304615,16.2379385 L15.9265846,5.30316923 Z" id="Fill-3" fill="#FFFFFF"></path>
                    <path d="M22.7685231,11.9828308 L17.8725231,11.9828308 C17.3196,11.9828308 16.8700615,11.5342154 16.8700615,10.9803692 C16.8700615,10.4265231 17.3196,9.97790769 17.8725231,9.97790769 L22.7685231,9.97790769 C23.3223692,9.97790769 23.7709846,10.4265231 23.7709846,10.9803692 C23.7709846,11.5342154 23.3223692,11.9828308 22.7685231,11.9828308" id="Fill-5" fill="#FFFFFF"></path>
                    <path d="M20.2508308,15.4065231 L15.3548308,15.4065231 C14.8019077,15.4065231 14.3523692,14.9579077 14.3523692,14.4031385 C14.3523692,13.8492923 14.8019077,13.4006769 15.3548308,13.4006769 L20.2508308,13.4006769 C20.8046769,13.4006769 21.2532923,13.8492923 21.2532923,14.4031385 C21.2532923,14.9579077 20.8046769,15.4065231 20.2508308,15.4065231" id="Fill-7" fill="#FFFFFF"></path>
                    <path d="M17.7322154,18.8292923 L12.8371385,18.8292923 C12.2832923,18.8292923 11.8346769,18.3806769 11.8346769,17.8268308 C11.8346769,17.2729846 12.2832923,16.8243692 12.8371385,16.8243692 L17.7322154,16.8243692 C18.2869846,16.8243692 18.7356,17.2729846 18.7356,17.8268308 C18.7356,18.3806769 18.2869846,18.8292923 17.7322154,18.8292923" id="Fill-9" fill="#FFFFFF"></path>
                </g>
            </g>
        </g>
    </g>
</svg>