<?xml version="1.0" encoding="UTF-8"?>
<svg width="15px" height="17px" viewBox="0 0 15 17" version="1.1" xmlns="http://www.w3.org/2000/svg" xmlns:xlink="http://www.w3.org/1999/xlink">
    <title>E6CB4728-CE08-4AB9-A06C-B2D95601EE56</title>
    <defs>
        <filter id="filter-1">
            <feColorMatrix in="SourceGraphic" type="matrix" values="0 0 0 0 0.098039 0 0 0 0 0.098039 0 0 0 0 0.439216 0 0 0 1.000000 0"></feColorMatrix>
        </filter>
    </defs>
    <g id="Welcome" stroke="none" stroke-width="1" fill="none" fill-rule="evenodd">
        <g id="iconfinder-contat-us-40notification-4211863_115056-copy" transform="translate(-1272.000000, -41.000000)" filter="url(#filter-1)">
            <g transform="translate(1272.700000, 41.000000)">
                <path d="M8.23142596,1.63806321 L8.23142596,1.43155234 C8.23142596,0.642031648 7.58939431,0 6.79987362,0 C6.01035292,0 5.36832128,0.642031648 5.36832128,1.43155234 L5.36832128,1.63806321 C5.8254237,1.52261897 6.30574602,1.45951235 6.79987362,1.45951235 C7.29400121,1.45951235 7.77432353,1.52261897 8.23142596,1.63806321 Z" id="Path" fill="#000000" fill-rule="nonzero"></path>
                <path d="M11.2241952,5.42843531 C10.9148876,3.57363836 9.01290816,2.17528852 6.79987362,2.17528852 C4.58683907,2.17528852 2.68485963,3.57363836 2.37555206,5.42843531 L1.24769346,12.1961549 L12.3520319,12.1961549 L11.2241952,5.42843531 Z" id="Path" fill="#000000" fill-rule="nonzero"></path>
                <path d="M6.79987362,16.999013 C7.79656047,16.999013 8.6567457,16.4973833 9.0598722,15.7750357 L4.53987503,15.7750357 C4.94300153,16.4973833 5.80318676,16.999013 6.79987362,16.999013 Z" id="Path" fill="#000000" fill-rule="nonzero"></path>
                <path d="M12.526083,12.9119311 L12.4713207,12.9119311 L1.12840471,12.9119311 L1.07366426,12.9119311 C0.481611106,12.9119311 0,13.3935422 0,13.9855953 C0,14.5776485 0.481611106,15.0592596 1.07366426,15.0592596 L12.526083,15.0592596 C13.1181361,15.0592596 13.5997472,14.5776485 13.5997472,13.9855953 C13.5997472,13.3935422 13.1181361,12.9119311 12.526083,12.9119311 Z" id="Path" fill="#000000" fill-rule="nonzero"></path>
            </g>
        </g>
    </g>
</svg>