<?xml version="1.0" encoding="UTF-8"?>
<svg width="15px" height="15px" viewBox="0 0 15 15" version="1.1" xmlns="http://www.w3.org/2000/svg" xmlns:xlink="http://www.w3.org/1999/xlink">
    <title>4B426321-B5FD-4DEE-88CD-4BB17FFA184F</title>
    <g id="Welcome" stroke="none" stroke-width="1" fill="none" fill-rule="evenodd">
        <g id="Profil-/-Achats-/-Suivre-une-commande" transform="translate(-507.000000, -440.000000)" fill="#D0021B" fill-rule="nonzero">
            <g id="Group-6" transform="translate(114.500000, 165.000000)">
                <g id="Icons/Colis-Copy-3" transform="translate(393.000000, 275.000000)">
                    <g id="4544841-box-business-comerce-delivery-shop_121441-copy-3" transform="translate(1.706250, 1.250000)">
                        <path d="M10.5778233,3.71196606 C10.5778233,3.70830895 10.5778233,3.70465184 10.57441,3.70465184 C10.57441,3.69733762 10.5709967,3.69368051 10.5709967,3.6863663 C10.5709967,3.68270919 10.5675834,3.67539497 10.5675834,3.67173786 C10.5675834,3.66808075 10.5641701,3.66442364 10.5641701,3.66076653 C10.5573435,3.64248098 10.5505169,3.62785255 10.540277,3.61322411 C10.540277,3.61322411 10.540277,3.61322411 10.540277,3.61322411 L8.32163058,0.120684611 C8.27384435,0.043885313 8.1953384,0 8.11000585,0 L5.9391457,0 L4.64550419,0 L2.47464404,0 C2.38931149,0 2.31080554,0.043885313 2.26301931,0.120684611 L0.0443729276,3.61322411 C0.0443729276,3.61322411 0.0443729276,3.61322411 0.0443729276,3.61322411 C0.0341330213,3.62785255 0.027306417,3.64613809 0.0204798128,3.66076653 C0.0204798128,3.66442364 0.0170665106,3.66808075 0.0170665106,3.67173786 C0.0136532085,3.67539497 0.0136532085,3.68270919 0.0136532085,3.6863663 C0.0136532085,3.69368051 0.0102399064,3.69733762 0.0102399064,3.70465184 C0.0102399064,3.70830895 0.0102399064,3.71196606 0.00682660425,3.71196606 C0.00341330213,3.73025161 0,3.74853716 0,3.7668227 C0,3.7668227 0,3.7668227 0,3.7668227 L0,12.2257168 C0,12.3756583 0.116052272,12.5 0.255997659,12.5 L10.3286522,12.5 C10.4685976,12.5 10.5846499,12.3756583 10.5846499,12.2257168 L10.5846499,3.7668227 C10.5846499,3.7668227 10.5846499,3.7668227 10.5846499,3.7668227 C10.5812366,3.74853716 10.5812366,3.73025161 10.5778233,3.71196606 Z M9.84055003,3.4925395 L6.53306027,3.4925395 L6.22244978,0.548566413 L7.97006046,0.548566413 L9.84055003,3.4925395 Z M4.52945192,4.04110591 L6.04837137,4.04110591 L6.04837137,6.05251609 L5.43739029,5.5917203 C5.39301736,5.55880632 5.34181783,5.54052077 5.2906183,5.54052077 C5.23941876,5.54052077 5.18821923,5.55880632 5.1438463,5.5917203 L4.53286522,6.05251609 L4.53286522,4.04110591 L4.52945192,4.04110591 Z M5.70704115,0.548566413 L6.01765165,3.4925395 L4.56017164,3.4925395 L4.87078213,0.548566413 L5.70704115,0.548566413 Z M2.61117613,0.548566413 L4.35878681,0.548566413 L4.04817632,3.4925395 L0.740686561,3.4925395 L2.61117613,0.548566413 Z M10.0692413,11.9514336 L0.511995319,11.9514336 L0.511995319,4.04110591 L4.0208699,4.04110591 L4.0208699,6.57913985 C4.0208699,6.68153891 4.07548274,6.77662376 4.15740199,6.82416618 C4.24273454,6.8717086 4.34513361,6.86439438 4.42363956,6.80588063 L5.2906183,6.15125805 L6.15759704,6.80588063 C6.20196996,6.83879462 6.25316949,6.85708016 6.30436903,6.85708016 C6.34532865,6.85708016 6.38628828,6.84610884 6.4238346,6.82782329 C6.50916715,6.78028087 6.56036669,6.68519602 6.56036669,6.58279696 L6.56036669,4.04476302 L10.0692413,4.04476302 L10.0692413,11.9514336 Z" id="Shape"></path>
                        <path d="M3.41330213,8.97088941 L1.59742539,8.97088941 C1.45748001,8.97088941 1.34142774,9.09523113 1.34142774,9.24517262 C1.34142774,9.3951141 1.45748001,9.51945582 1.59742539,9.51945582 L3.41330213,9.51945582 C3.55324751,9.51945582 3.66929979,9.3951141 3.66929979,9.24517262 C3.66929979,9.09523113 3.55324751,8.97088941 3.41330213,8.97088941 Z" id="Path"></path>
                        <path d="M2.50536376,10.1228789 L1.59742539,10.1228789 C1.45748001,10.1228789 1.34142774,10.2472206 1.34142774,10.3971621 C1.34142774,10.5471036 1.45748001,10.6714453 1.59742539,10.6714453 L2.50536376,10.6714453 C2.64530915,10.6714453 2.76136142,10.5471036 2.76136142,10.3971621 C2.76136142,10.2472206 2.64530915,10.1228789 2.50536376,10.1228789 Z" id="Path"></path>
                    </g>
                </g>
            </g>
        </g>
    </g>
</svg>