<?xml version="1.0" encoding="UTF-8"?>
<svg width="14px" height="14px" viewBox="0 0 14 14" version="1.1" xmlns="http://www.w3.org/2000/svg" xmlns:xlink="http://www.w3.org/1999/xlink">
    <title>BF47AA82-F515-455D-B2B6-E3D1A653C2EC</title>
    <g id="Welcome" stroke="none" stroke-width="1" fill="none" fill-rule="evenodd">
        <g id="Home-page-/-Profil_Connecté" transform="translate(-1193.000000, -195.000000)" fill="#4A4A4A" fill-rule="nonzero">
            <g id="Icons/commande1-Copy" transform="translate(1193.000000, 195.000000)">
                <g id="treasure_map_icon_206461" transform="translate(1.166667, 1.166667)">
                    <path d="M4.07316965,0.722148476 L0.641765718,2.21402028 L0.641765718,10.591496 L4.07316965,9.22958518 L7.58697121,10.842885 L10.9326472,9.42807021 L10.9326472,1.05739055 L7.58697121,2.54519253 L4.07316965,0.722148476 Z M0,1.75 L4.08333345,0 L7.58333345,1.75 L11.2600834,0.174416667 C11.3502411,0.135768266 11.4537878,0.145027804 11.5356577,0.199059541 C11.6175275,0.253091277 11.6666669,0.34465775 11.6666669,0.44275 L11.6666669,9.91666667 L7.58333345,11.6666667 L4.08333345,9.91666667 L0.406583449,11.49225 C0.316425819,11.5308984 0.212879049,11.5216389 0.131009222,11.4676071 C0.049139395,11.4135754 0,11.3220089 0,11.2239167 L0,1.75 Z M2.33333345,5.25 L3.50000012,5.25 L3.50000012,6.41666667 L2.33333345,6.41666667 L2.33333345,5.25 Z M4.66666678,5.25 L5.83333345,5.25 L5.83333345,6.41666667 L4.66666678,6.41666667 L4.66666678,5.25 Z M8.16550012,5.21325 L8.88766678,4.49166667 L9.50600012,5.11 L8.78441678,5.83216667 L9.50600012,6.55433333 L8.88766678,7.17266667 L8.16550012,6.45108333 L7.44391678,7.17266667 L6.82500012,6.55433333 L7.54658345,5.83216667 L6.82500012,5.11058333 L7.44333345,4.49166667 L8.16550012,5.21325 L8.16550012,5.21325 Z" id="Shape"></path>
                </g>
            </g>
        </g>
    </g>
</svg>