<?xml version="1.0" encoding="UTF-8"?>
<svg width="14px" height="14px" viewBox="0 0 14 14" version="1.1" xmlns="http://www.w3.org/2000/svg" xmlns:xlink="http://www.w3.org/1999/xlink">
    <title>EA918A73-B208-4F52-91C1-1B6FAB93180F</title>
    <g id="Welcome" stroke="none" stroke-width="1" fill="none" fill-rule="evenodd">
        <g id="Home-page-/-Profil_Connecté" transform="translate(-1122.000000, -202.000000)">
            <g id="Icons/commande_over" transform="translate(1122.000000, 202.000000)">
                <polygon id="Path" points="0 0 8.16666667 0 8.16666667 8.16666667 0 8.16666667"></polygon>
                <path d="M1.16666667,2.91666667 L5.25000012,1.16666667 L8.75000012,2.91666667 L12.4267501,1.34108333 C12.5169077,1.30243493 12.6204545,1.31169447 12.7023243,1.36572621 C12.7841942,1.41975794 12.8333336,1.51132442 12.8333336,1.60941667 L12.8333336,11.0833333 L8.75000012,12.8333333 L5.25000012,11.0833333 L1.57325012,12.6589167 C1.48309249,12.6975651 1.37954572,12.6883055 1.29767589,12.6342738 C1.21580606,12.5802421 1.16666667,12.4886756 1.16666667,12.3905833 L1.16666667,2.91666667 Z M3.50000012,6.41666667 L3.50000012,7.58333333 L4.66666678,7.58333333 L4.66666678,6.41666667 L3.50000012,6.41666667 Z M5.83333345,6.41666667 L5.83333345,7.58333333 L7.00000012,7.58333333 L7.00000012,6.41666667 L5.83333345,6.41666667 Z M9.33333345,6.38166667 L8.61175012,5.6595 L7.99283345,6.27783333 L8.71441678,7 L7.99283345,7.72158333 L8.61116678,8.3405 L9.33333345,7.61891667 L10.0549168,8.3405 L10.6738334,7.72216667 L9.95225012,7 L10.6738334,6.27841667 L10.0555001,5.6595 L9.33333345,6.38108333 L9.33333345,6.38166667 Z" id="Shape" fill="#191970" fill-rule="nonzero"></path>
            </g>
        </g>
    </g>
</svg>