<?xml version="1.0" encoding="UTF-8"?>
<svg width="45px" height="24px" viewBox="0 0 45 24" version="1.1" xmlns="http://www.w3.org/2000/svg" xmlns:xlink="http://www.w3.org/1999/xlink">
    <title>E0402C1E-EF04-432E-AF40-FFEBA2092B69</title>
    <g id="Welcome" stroke="none" stroke-width="1" fill="none" fill-rule="evenodd">
        <g id="Assets" transform="translate(-34.000000, -506.000000)" fill-rule="nonzero">
            <g id="passbook" transform="translate(34.000000, 506.000000)">
                <path d="M42.5568599,22.9787234 L2.44314013,22.9787234 C1.62593628,22.9787234 0.957446809,22.3181568 0.957446809,21.5106383 L0.957446809,0.957446809 L44.0425532,0.957446809 L44.0425532,21.5106383 C44.0425532,22.3181568 43.3740637,22.9787234 42.5568599,22.9787234 Z" id="Path" fill="#2AB793"></path>
                <path d="M44.0425532,16.2765957 L36.6140866,16.2765957 L36.6140866,16.6489362 C36.6140866,18.0637571 35.4254594,19.2553191 34.0141233,19.2553191 C32.6027871,19.2553191 31.4141599,18.0637571 31.4141599,16.6489362 L31.4141599,16.2765957 L0.957446809,16.2765957 L0.957446809,21.4893617 C0.957446809,22.3085833 1.62593628,22.9787234 2.44314013,22.9787234 L42.5568599,22.9787234 C43.3740637,22.9787234 44.0425532,22.3085833 44.0425532,21.4893617 L44.0425532,16.2765957 Z" id="Path" fill="#239172"></path>
                <polygon id="Path" fill="#A3C1AF" points="2.87234043 19.1489362 14.3617021 19.1489362 14.3617021 21.0638298 2.87234043 21.0638298"></polygon>
                <polygon id="Path" fill="#FFFFFF" points="10.5319149 3.82978723 22.9787234 3.82978723 22.9787234 5.74468085 10.5319149 5.74468085"></polygon>
                <path d="M7.65957447,6.70212766 C7.65957447,7.75962016 6.80217335,8.61702128 5.74468085,8.61702128 C4.68718835,8.61702128 3.82978723,7.75962016 3.82978723,6.70212766 C3.82978723,5.64463516 4.68718835,4.78723404 5.74468085,4.78723404 C6.80217335,4.78723404 7.65957447,5.64463516 7.65957447,6.70212766 Z" id="Path" fill="#F4B12A"></path>
                <polygon id="Path" fill="#FFFFFF" points="10.5319149 7.65957447 18.1914894 7.65957447 18.1914894 9.57446809 10.5319149 9.57446809"></polygon>
                <path d="M0,0 L0,21.6921543 C0,22.9639093 0.974853562,23.9361702 2.25,23.9361702 L42.75,23.9361702 C44.0251464,23.9361702 45,22.9639093 45,21.6921543 L45,0 L0,0 Z M43.5,1.49601064 L43.5,15.7081117 L36,15.7081117 L36,16.8301197 C36,17.8772541 35.1749268,18.700133 34.125,18.700133 C33.0750732,18.700133 32.25,17.8772541 32.25,16.8301197 L32.25,15.7081117 L1.5,15.7081117 L1.5,1.49601064 L43.5,1.49601064 Z M42.75,22.4401596 L2.25,22.4401596 C1.79992678,22.4401596 1.5,22.1410305 1.5,21.6921543 L1.5,17.2041223 L30.75,17.2041223 C30.9748536,19.0741356 32.625,20.3458907 34.5,20.1961436 C36.0750732,20.0463965 37.2751464,18.7750065 37.5,17.2041223 L43.5,17.2041223 L43.5,21.6921543 C43.5,22.1410305 43.2000732,22.4401596 42.75,22.4401596 Z" id="Shape" fill="#000000"></path>
                <polygon id="Path" fill="#000000" points="2.87234043 19.1489362 14.3617021 19.1489362 14.3617021 21.0638298 2.87234043 21.0638298"></polygon>
                <polygon id="Path" fill="#000000" points="10.5319149 3.82978723 22.9787234 3.82978723 22.9787234 5.74468085 10.5319149 5.74468085"></polygon>
                <path d="M5.74468085,9.57446809 C7.32460829,9.57446809 8.61702128,8.2820551 8.61702128,6.70212766 C8.61702128,5.12220022 7.32460829,3.82978723 5.74468085,3.82978723 C4.16475341,3.82978723 2.87234043,5.12220022 2.87234043,6.70212766 C2.87234043,8.2820551 4.16475341,9.57446809 5.74468085,9.57446809 Z M5.74468085,5.26595745 C6.53464457,5.26595745 7.18085106,5.91216394 7.18085106,6.70212766 C7.18085106,7.49209138 6.53464457,8.13829787 5.74468085,8.13829787 C4.95471713,8.13829787 4.30851064,7.49209138 4.30851064,6.70212766 C4.30851064,5.91216394 4.95471713,5.26595745 5.74468085,5.26595745 Z" id="Shape" fill="#000000"></path>
                <polygon id="Path" fill="#000000" points="10.5319149 7.65957447 18.1914894 7.65957447 18.1914894 9.57446809 10.5319149 9.57446809"></polygon>
            </g>
        </g>
    </g>
</svg>