<?xml version="1.0" encoding="UTF-8"?>
<svg width="32px" height="32px" viewBox="0 0 32 32" version="1.1" xmlns="http://www.w3.org/2000/svg" xmlns:xlink="http://www.w3.org/1999/xlink">
    <title>F3C9242C-AE5E-4781-8F24-02A2CB3B296A</title>
    <g id="Welcome" stroke="none" stroke-width="1" fill="none" fill-rule="evenodd">
        <g id="Home-page-/-Mes-favoris-/-partage_de_la_liste" transform="translate(-738.000000, -490.000000)">
            <g id="Icons/Copie_Colle-Copy" transform="translate(738.000000, 490.000000)">
                <rect id="Rectangle" fill="#1A7EF5" x="0" y="0" width="32" height="32" rx="6"></rect>
                <path d="M5.77777778,10.1412785 L5.77777778,21.9481779 C5.77777778,22.5905152 6.24296873,23.1111111 6.88385416,23.1111111 L25.1161458,23.1111111 C25.7563658,23.1111111 26.2222222,22.5844617 26.2222222,21.9481779 L26.2222222,10.1412785 C26.2222222,9.43638894 25.8056134,8.88888889 25.1161458,8.88888889 L6.88385416,8.88888889 C6.16776619,8.88888889 5.77777778,9.44984103 5.77777778,10.1412785 M7.11111111,11.1252162 C7.11111111,10.8335373 7.28310076,10.6666667 7.5578811,10.6666667 C7.72785529,10.6666667 14.415969,15.0163364 14.8210853,15.2714692 L15.8678036,15.9396414 C16.1996899,15.7114009 16.5329199,15.5162588 16.8768992,15.2797438 C17.5789664,14.8191256 23.8256847,10.6666667 23.9976744,10.6666667 C24.2731266,10.6666667 24.4444444,10.8335373 24.4444444,11.1252162 C24.4444444,11.4341337 23.8646511,11.7409827 23.4870801,11.9774977 C21.114832,13.4614053 18.7432558,15.0790853 16.3945219,16.6181568 C16.2574677,16.7133144 15.992093,16.9167311 15.79323,16.8857014 C15.5715245,16.8505345 8.76583976,12.3629551 7.52764858,11.6154849 C7.34155034,11.5030886 7.11111111,11.4003459 7.11111111,11.1252162" id="Shape" fill="#FFFFFF" fill-rule="nonzero"></path>
            </g>
        </g>
    </g>
</svg>