<?xml version="1.0" encoding="UTF-8"?>
<svg width="32px" height="32px" viewBox="0 0 32 32" version="1.1" xmlns="http://www.w3.org/2000/svg" xmlns:xlink="http://www.w3.org/1999/xlink">
    <title>946C0AA3-699A-447E-A0EB-015B536FF705</title>
    <g id="Welcome" stroke="none" stroke-width="1" fill="none" fill-rule="evenodd">
        <g id="Home-page-/-Mes-favoris-/-partage_de_la_liste" transform="translate(-874.000000, -490.000000)">
            <g id="Icons/Copie_Colle" transform="translate(874.000000, 490.000000)">
                <rect id="Rectangle" fill="#1A7EF5" x="0" y="0" width="32" height="32" rx="6"></rect>
                <g transform="translate(5.818182, 7.272727)" fill="#FFFFFF" fill-rule="nonzero" id="Shape">
                    <path d="M14.4242424,0.490184195 C14.3490988,0.490184195 7.15150723,0.472727273 7.15150723,0.472727273 C5.86907506,0.472727273 4.72728065,1.56507229 4.72728065,2.72382056 L4.02667063,2.73901169 C2.74484848,2.73901169 1.6969697,3.81613983 1.6969697,4.9748881 L1.6969697,16.230303 C1.6969697,17.3890513 2.83879184,18.4813706 4.121224,18.4813706 L13.2121291,18.4813706 C14.4945336,18.4813706 15.6363557,17.3890513 15.6363557,16.230303 L16.2424124,16.230303 C17.5248445,16.230303 18.6666667,15.1379838 18.6666667,13.9792355 L18.6666667,4.98840562 L14.4242424,0.490184195 Z M13.2121291,17.3558625 L4.121224,17.3558625 C3.48486037,17.3558625 2.90911071,16.8038067 2.90911071,16.230303 L2.90911071,4.9748881 C2.90911071,4.13749653 3.65092494,3.84935433 4.72728065,3.84935433 L4.72728065,13.9792355 C4.72728065,15.1379838 5.86907506,16.230303 7.15150723,16.230303 C7.15150723,16.230303 13.7224124,16.2241236 14.4296772,16.2241236 C14.4296772,16.9073381 13.9472886,17.3558625 13.2121291,17.3558625 Z M14.4242424,12.2970885 L8.96970489,12.2970885 C8.6351634,12.2970885 8.36364825,12.0455338 8.36364825,11.7348623 C8.36364825,11.4242424 8.6351634,11.1726877 8.96970489,11.1726877 L14.4242424,11.1726877 C14.7587839,11.1726877 15.0302991,11.4242424 15.0302991,11.7348623 C15.0302991,12.0455595 14.7587839,12.2970885 14.4242424,12.2970885 Z M14.4242424,9.48606061 L8.96970489,9.48606061 C8.6351634,9.48606061 8.36364825,9.2344801 8.36364825,8.92386017 C8.36364825,8.6132145 8.6351634,8.36165973 8.96970489,8.36165973 L14.4242424,8.36165973 C14.7587839,8.36165973 15.0302991,8.6132145 15.0302991,8.92386017 C15.0302991,9.23393939 14.7587839,9.48606061 14.4242424,9.48606061 Z M15.6363557,4.9748881 C14.9909249,4.9748881 14.4242424,4.43408398 14.4242424,3.84935433 C14.4242424,3.84935433 14.4242424,2.70917013 14.4242424,1.61571796 L14.4242424,1.61458507 L17.4545534,4.9748881 L15.6363557,4.9748881 Z"></path>
                </g>
            </g>
        </g>
    </g>
</svg>