<svg width="15" height="15" viewBox="0 0 15 15" fill="none" xmlns="http://www.w3.org/2000/svg">
<path d="M6.32224 2.78595C6.32224 2.13508 6.84988 1.60744 7.50075 1.60744C8.15163 1.60744 8.67927 2.13508 8.67927 2.78595L8.67927 12.214C8.67927 12.8649 8.15163 13.3926 7.50075 13.3926C6.84988 13.3926 6.32224 12.8649 6.32224 12.214L6.32224 2.78595Z" fill="white"/>
<path d="M12.2148 6.32149C12.8657 6.32149 13.3933 6.84913 13.3933 7.5C13.3933 8.15087 12.8657 8.67851 12.2148 8.67851L2.78671 8.67851C2.13584 8.67851 1.6082 8.15087 1.6082 7.5C1.6082 6.84913 2.13584 6.32149 2.78671 6.32149H12.2148Z" fill="white"/>
</svg>
