<?xml version="1.0" encoding="UTF-8"?>
<svg width="25px" height="24px" viewBox="0 0 25 24" version="1.1" xmlns="http://www.w3.org/2000/svg" xmlns:xlink="http://www.w3.org/1999/xlink">
    <title>BE840884-DDE9-4128-8D32-FB998C010FCE</title>
    <g id="Welcome" stroke="none" stroke-width="1" fill="none" fill-rule="evenodd">
        <g id="Pannier-/-Paiement-/-Récapitilatif" transform="translate(-804.000000, -311.000000)" fill-rule="nonzero">
            <g id="Group-8" transform="translate(270.000000, 286.000000)">
                <g id="check" transform="translate(534.500000, 25.000000)">
                    <path d="M12,0.5 C15.1706772,0.5 18.0455569,1.78986459 20.1278461,3.87215386 C22.2101354,5.95444313 23.5,8.82932283 23.5,12 C23.5,15.1706772 22.2101354,18.0455569 20.1278461,20.1278461 C18.0455569,22.2101354 15.1706772,23.5 12,23.5 C8.82932283,23.5 5.95444313,22.2101354 3.87215386,20.1278461 C1.78986459,18.0455569 0.5,15.1706772 0.5,12 C0.5,8.82932283 1.78986459,5.95444313 3.87215386,3.87215386 C5.95444313,1.78986459 8.82932283,0.5 12,0.5 Z" id="Path" stroke="#00B517"></path>
                    <path d="M17.297108,9.66219626 L10.8879148,15.9904506 C10.6956336,16.180309 10.4432307,16.2758621 10.1908277,16.2758621 C9.93842473,16.2758621 9.68602181,16.180309 9.4937406,15.9904506 L6.28923428,12.8263234 C5.90358857,12.4457155 5.90358857,11.8303249 6.28923428,11.4497169 C6.6746994,11.0689306 7.29776276,11.0689306 7.68340846,11.4497169 L10.1908277,13.9255408 L15.9029338,8.28558971 C16.288399,7.90480343 16.9114623,7.90480343 17.297108,8.28558971 C17.6825732,8.66619768 17.6825732,9.28140998 17.297108,9.66219626 Z" id="Path" fill="#00B517"></path>
                </g>
            </g>
        </g>
    </g>
</svg>