<?xml version="1.0" encoding="UTF-8"?>
<svg width="24px" height="18px" viewBox="0 0 24 18" version="1.1" xmlns="http://www.w3.org/2000/svg" xmlns:xlink="http://www.w3.org/1999/xlink">
    <title>5169FCF5-3AE5-4EC8-AA8F-8A2F36BA87DC</title>
    <defs>
        <linearGradient x1="-2.9486675%" y1="31.4822228%" x2="102.948665%" y2="68.5177744%" id="linearGradient-1">
            <stop stop-color="#FFFFFF" stop-opacity="0.2" offset="0%"></stop>
            <stop stop-color="#FFFFFF" stop-opacity="0" offset="100%"></stop>
        </linearGradient>
    </defs>
    <g id="Welcome" stroke="none" stroke-width="1" fill="none" fill-rule="evenodd">
        <g id="Assets" transform="translate(-300.000000, -521.000000)" fill-rule="nonzero">
            <g id="photo-photography-image-picture_108525" transform="translate(300.000000, 521.000000)">
                <path d="M22,0 L2,0 C0.8969727,0 0,0.8969727 0,2 L0,16 C0,17.1030273 0.8969727,18 2,18 L22,18 C23.1030273,18 24,17.1030273 24,16 L24,2 C24,0.8969727 23.1030273,0 22,0 Z" id="Path" fill="#303C42"></path>
                <path d="M1,2 C1,1.4487305 1.4487305,1 2,1 L22,1 C22.5512695,1 23,1.4487305 23,2 L23,14.2929688 L15.3535156,6.6464844 C15.1582031,6.4511719 14.8417968,6.4511719 14.6464843,6.6464844 L8.5,12.7929688 L6.3535156,10.6464844 C6.1582031,10.4511719 5.8417968,10.4511719 5.6464843,10.6464844 L1,15.2929688 L1,2 Z" id="Path" fill="#57C1EF"></path>
                <path d="M22,17 L2,17 C1.6485596,17 1.3536377,16.8068848 1.1752319,16.5317993 L6,11.7070313 L9.1464844,14.8535157 C9.3417969,15.0488282 9.6582032,15.0488282 9.8535157,14.8535157 C10.0488282,14.6582032 10.0488282,14.3417969 9.8535157,14.1464844 L9.2070313,13.5 L15,7.7070313 L23,15.7070313 L23,16 C23,16.5512695 22.5512695,17 22,17 Z" id="Path" fill="#7CB342"></path>
                <circle id="Oval" fill="#303C42" cx="8" cy="6" r="3"></circle>
                <circle id="Oval" fill="#FFCB29" cx="8" cy="6" r="2"></circle>
                <polygon id="Path" fill="#010101" opacity="0.1" points="14.979187 7.7278442 17.2815552 9.9885864 15 7.7070313"></polygon>
                <path d="M22,0 L2,0 C0.8969727,0 0,0.8969727 0,2 L0,16 C0,17.1030273 0.8969727,18 2,18 L22,18 C23.1030273,18 24,17.1030273 24,16 L24,2 C24,0.8969727 23.1030273,0 22,0 Z" id="Path" fill="url(#linearGradient-1)"></path>
            </g>
        </g>
    </g>
</svg>