<?xml version="1.0" encoding="UTF-8"?>
<svg width="22px" height="22px" viewBox="0 0 22 22" version="1.1" xmlns="http://www.w3.org/2000/svg" xmlns:xlink="http://www.w3.org/1999/xlink">
    <title>6BB8CD58-C65D-4744-8492-0EA2D24255B4</title>
    <g id="Welcome" stroke="none" stroke-width="1" fill="none" fill-rule="evenodd">
        <g id="Assets" transform="translate(-69.000000, -309.000000)" fill-rule="nonzero">
            <g id="facebook" transform="translate(69.000000, 309.000000)">
                <path d="M19.25,0 L2.75,0 C1.233375,0 0,1.233375 0,2.75 L0,19.25 C0,20.766625 1.233375,22 2.75,22 L19.25,22 C20.766625,22 22,20.766625 22,19.25 L22,2.75 C22,1.233375 20.766625,0 19.25,0 Z" id="Path" fill="#1976D2"></path>
                <path d="M19,10.9230769 L15.3333333,10.9230769 L15.3333333,8.15384615 C15.3333333,7.38953846 15.9904,7.46153846 16.8,7.46153846 L18.2666667,7.46153846 L18.2666667,4 L15.3333333,4 L15.3333333,4 C12.9030667,4 10.9333333,5.85953846 10.9333333,8.15384615 L10.9333333,10.9230769 L8,10.9230769 L8,14.3846154 L10.9333333,14.3846154 L10.9333333,22 L15.3333333,22 L15.3333333,14.3846154 L17.5333333,14.3846154 L19,10.9230769 Z" id="Path" fill="#FAFAFA"></path>
            </g>
        </g>
    </g>
</svg>