<?xml version="1.0" encoding="UTF-8"?>
<svg width="32px" height="32px" viewBox="0 0 32 32" version="1.1" xmlns="http://www.w3.org/2000/svg" xmlns:xlink="http://www.w3.org/1999/xlink">
    <title>D8E85551-4D46-437B-AA8E-47F23094C86A</title>
    <g id="Welcome" stroke="none" stroke-width="1" fill="none" fill-rule="evenodd">
        <g id="Home-page-/-Mes-favoris-/-partage_de_la_liste" transform="translate(-602.000000, -490.000000)" fill-rule="nonzero">
            <g id="facebook" transform="translate(602.000000, 490.000000)">
                <path d="M28,0 L4,0 C1.794,0 0,1.794 0,4 L0,28 C0,30.206 1.794,32 4,32 L28,32 C30.206,32 32,30.206 32,28 L32,4 C32,1.794 30.206,0 28,0 Z" id="Path" fill="#1976D2"></path>
                <path d="M27.6363636,15.8881119 L22.3030303,15.8881119 L22.3030303,11.8601399 C22.3030303,10.7484196 23.2587636,10.8531469 24.4363636,10.8531469 L26.569697,10.8531469 L26.569697,5.81818182 L22.3030303,5.81818182 L22.3030303,5.81818182 C18.768097,5.81818182 15.9030303,8.52296503 15.9030303,11.8601399 L15.9030303,15.8881119 L11.6363636,15.8881119 L11.6363636,20.9230769 L15.9030303,20.9230769 L15.9030303,32 L22.3030303,32 L22.3030303,20.9230769 L25.5030303,20.9230769 L27.6363636,15.8881119 Z" id="Path" fill="#FAFAFA"></path>
            </g>
        </g>
    </g>
</svg>