<?xml version="1.0" standalone="no"?>
<!DOCTYPE svg PUBLIC "-//W3C//DTD SVG 20010904//EN"
 "http://www.w3.org/TR/2001/REC-SVG-20010904/DTD/svg10.dtd">
<svg version="1.0" xmlns="http://www.w3.org/2000/svg"
 width="6841.000000pt" height="881.000000pt" viewBox="0 0 6841.000000 881.000000"
 preserveAspectRatio="xMidYMid meet">

<g transform="translate(0.000000,881.000000) scale(0.100000,-0.100000)"
fill="#000000" stroke="none">
<path d="M63341 7373 c-199 -791 -365 -1446 -369 -1456 -6 -15 -110 44 -709
402 -387 231 -703 417 -703 414 0 -4 184 -315 409 -692 226 -377 412 -693 416
-701 5 -13 -3556 -62 -31152 -428 -17137 -227 -31176 -414 -31198 -416 -58 -4
-2162 21 31297 -374 17076 -202 31049 -370 31052 -373 4 -3 -181 -320 -410
-703 -229 -383 -415 -698 -413 -700 2 -1 319 185 704 415 603 361 701 416 707
400 3 -10 162 -636 353 -1392 381 -1510 427 -1691 431 -1687 1 2 176 692 388
1533 213 842 390 1538 394 1547 6 15 115 -47 707 -401 385 -230 701 -417 703
-416 2 2 -184 316 -412 699 -229 383 -416 700 -416 704 0 4 695 183 1544 397
850 215 1542 393 1538 397 -4 3 -699 181 -1544 394 -846 213 -1538 391 -1538
395 0 4 187 321 416 704 228 383 414 698 412 699 -2 2 -318 -185 -703 -415
-464 -277 -702 -414 -706 -406 -3 7 -170 661 -370 1454 l-364 1443 -51 0 -51
0 -362 -1437z m413 -2125 c4 -18 34 -139 67 -269 l61 -236 124 73 c68 40 124
71 124 68 0 -3 -32 -59 -71 -125 -40 -66 -70 -121 -68 -123 2 -2 127 -33 277
-71 149 -37 272 -69 272 -70 0 -1 -123 -33 -272 -70 -150 -38 -275 -69 -277
-71 -2 -2 28 -57 68 -123 39 -66 71 -122 71 -125 0 -2 -56 28 -124 69 l-124
73 -51 -197 c-27 -108 -58 -229 -68 -268 -9 -40 -20 -73 -24 -73 -3 0 -37 121
-74 270 -37 148 -70 268 -74 266 -3 -2 -59 -36 -123 -75 -65 -39 -118 -68
-118 -65 0 4 32 60 71 126 39 66 69 121 67 122 -2 2 -126 33 -275 71 -150 37
-273 69 -273 70 0 1 123 33 273 70 149 38 273 69 275 71 2 1 -28 56 -67 122
-39 66 -71 122 -71 126 0 3 53 -26 118 -65 64 -39 120 -73 123 -75 4 -2 37
118 74 266 37 149 71 270 75 270 4 0 10 -15 14 -32z"/>
</g>
</svg>
