<?xml version="1.0" encoding="UTF-8"?>
<svg width="29px" height="26px" viewBox="0 0 29 26" version="1.1" xmlns="http://www.w3.org/2000/svg" xmlns:xlink="http://www.w3.org/1999/xlink">
    <title>E39711B8-C122-43F6-9597-BEFB1279CFDC</title>
    <g id="Welcome" stroke="none" stroke-width="1" fill="none" fill-rule="evenodd">
        <g id="Assets" transform="translate(-34.000000, -588.000000)" fill="#4A4A4A" fill-rule="nonzero">
            <g id="Icons/Favoris" transform="translate(34.000000, 588.000000)">
                <path d="M14.5,25.9723821 C14.087143,25.9723821 13.6891098,25.8218202 13.3789139,25.5483141 C12.2073822,24.5170984 11.0778885,23.5480229 10.0813675,22.6932052 L10.0762787,22.6887507 C7.15464018,20.1824287 4.63169864,18.0179893 2.87628174,15.885845 C0.91399385,13.5022444 0,11.242256 0,8.77335185 C0,6.37460593 0.817085252,4.16161251 2.30058291,2.5417352 C3.80178071,0.902703522 5.86164092,0 8.10137939,0 C9.77537539,0 11.3084335,0.532757675 12.6578521,1.58335045 C13.3388672,2.11365814 13.9561615,2.76267818 14.5,3.51971972 C15.0440598,2.76267818 15.6611328,2.11365814 16.3423691,1.58335045 C17.6917877,0.532757675 19.2248459,0 20.8988418,0 C23.1383591,0 25.1984405,0.902703522 26.6996384,2.5417352 C28.183136,4.16161251 29,6.37460593 29,8.77335185 C29,11.242256 28.0862274,13.5022444 26.1239395,15.8856223 C24.3685227,18.0179893 21.8458023,20.182206 18.9246064,22.6883052 C17.9263153,23.5444593 16.7950516,24.5150939 15.6208648,25.5487596 C15.3108902,25.8218202 14.9126358,25.9723821 14.5,25.9723821 L14.5,25.9723821 Z M8.10137939,1.71008089 C6.34175874,1.71008089 4.72528838,2.41700932 3.54933164,3.70079496 C2.355896,5.00395766 1.69855498,6.80535569 1.69855498,8.77335185 C1.69855498,10.8498149 2.46519473,12.7068942 4.18410493,14.7947163 C5.8454895,16.8128255 8.31665801,18.93272 11.1778946,21.3873698 L11.1832046,21.3918243 C12.1834869,22.2499829 13.3174057,23.2228447 14.4975662,24.2616331 C15.6848068,23.2208402 16.8204956,22.2464193 17.8227691,21.3869243 C20.6837845,18.9322745 23.1547317,16.8128255 24.8161163,14.7947163 C26.5348053,12.7068942 27.301445,10.8498149 27.301445,8.77335185 C27.301445,6.80535569 26.644104,5.00395766 25.4506684,3.70079496 C24.2749329,2.41700932 22.6582413,1.71008089 20.8988418,1.71008089 C19.6098251,1.71008089 18.4263458,2.12256713 17.3813706,2.93595809 C16.450119,3.66114997 15.8014068,4.57788511 15.4210739,5.21933248 C15.2254868,5.54918793 14.881218,5.74607663 14.5,5.74607663 C14.118782,5.74607663 13.7745132,5.54918793 13.5789261,5.21933248 C13.1988144,4.57788511 12.5501022,3.66114997 11.6186294,2.93595809 C10.5736542,2.12256713 9.39017485,1.71008089 8.10137939,1.71008089 Z" id="Shape"></path>
            </g>
        </g>
    </g>
</svg>