<?xml version="1.0" encoding="UTF-8"?>
<svg width="10px" height="13px" viewBox="0 0 10 13" version="1.1" xmlns="http://www.w3.org/2000/svg" xmlns:xlink="http://www.w3.org/1999/xlink">
    <title>7E73626E-FA69-4083-85D3-528050E7AB35</title>
    <g id="Welcome" stroke="none" stroke-width="1" fill="none" fill-rule="evenodd">
        <g id="Pannier-/-Paiement-/-Changer_d'adresse" transform="translate(-1032.000000, -498.000000)" fill="#FFFFFF" fill-rule="nonzero">
            <g id="Group-3" transform="translate(1017.250000, 489.000000)">
                <g id="Group" transform="translate(15.000000, 7.500000)">
                    <g id="geo-alt-fill" transform="translate(0.000000, 1.500000)">
                        <path d="M4.875,13 C4.875,13 9.75,8.38012493 9.75,4.87499993 C9.75,2.1826118 7.56738813,0 4.875,0 C2.18261187,0 0,2.1826118 0,4.87499993 C0,8.38012493 4.875,13 4.875,13 Z M4.875,7.31249993 C3.52880592,7.31249993 2.4375,6.22119401 2.4375,4.87499993 C2.4375,3.52880585 3.52880592,2.43749993 4.875,2.43749993 C6.22119408,2.43749993 7.3125,3.52880585 7.3125,4.87499993 C7.3125,6.22119401 6.22119408,7.31249993 4.875,7.31249993 Z" id="Shape"></path>
                    </g>
                </g>
            </g>
        </g>
    </g>
</svg>