<?xml version="1.0" encoding="UTF-8"?>
<svg width="17px" height="17px" viewBox="0 0 17 17" version="1.1" xmlns="http://www.w3.org/2000/svg" xmlns:xlink="http://www.w3.org/1999/xlink">
    <title>9DA3093B-EC5B-445E-B5E6-3B428FE787C6</title>
    <defs>
        <rect id="path-1" x="0" y="0" width="17" height="17"></rect>
    </defs>
    <g id="Welcome" stroke="none" stroke-width="1" fill="none" fill-rule="evenodd">
        <g id="Home-page-/-Profil_Connecté" transform="translate(-954.000000, -254.000000)">
            <g id="basic-/-heart_outline" transform="translate(954.000000, 254.000000)">
                <mask id="mask-2" fill="white">
                    <use xlink:href="#path-1"></use>
                </mask>
                <g id="basic-/-heart_outline-(Background/Mask)"></g>
                <path d="M8.5,3.54166667 C8.25946649,3.26459297 7.9790591,3.0226613 7.66970098,2.82086717 C6.98605653,2.3749264 6.16102926,2.125 5.3125,2.125 C3.13083339,2.125 1.41666667,3.80647159 1.41666667,5.94652587 C1.41666667,6.70692857 1.59781751,7.42900974 1.90812875,8.115972 C2.87059329,10.2485831 5.0757467,12.048253 6.9738938,13.5973687 C7.52036933,14.0433574 8.04139805,14.4685792 8.5,14.875 C8.95860195,14.4685792 9.47963067,14.0433574 10.0261062,13.5973687 C11.9242202,12.0482807 14.1293294,10.2486473 15.0918201,8.11608549 C15.4021631,7.42908945 15.5833333,6.70697012 15.5833333,5.94652587 C15.5833333,3.80647159 13.8691666,2.125 11.6875,2.125 C10.8389707,2.125 10.0139435,2.37492635 9.33029902,2.82086713 C9.0209409,3.0226613 8.74053351,3.26459297 8.5,3.54166667 C8.33964433,3.35695087 8.33964433,3.35695087 8.5,3.54166667 Z M9.22849034,12.6368893 C9.43546917,12.4676619 9.64217637,12.298656 9.84515228,12.1310775 C10.6576855,11.4602414 11.4530342,10.7786875 12.1573238,10.064432 C13.0288899,9.18053245 13.6766521,8.32977881 14.0538556,7.49005742 C14.3026221,6.93563556 14.4337146,6.38648878 14.4337146,5.83670681 C14.4337146,4.44187706 13.3299808,3.31851596 11.8377145,3.31851596 C10.9562376,3.31851596 10.1336395,3.69955548 9.62020454,4.29098857 L8.5,5.5813669 L7.37979546,4.29098857 C6.86636051,3.69955548 6.04376203,3.31851596 5.16228554,3.31851596 C3.67001922,3.31851596 2.56628541,4.44187706 2.56628541,5.83670681 C2.56628541,6.38648878 2.6973763,6.93563627 2.9461433,7.49005813 C3.32334754,8.32977952 3.97110988,9.18053245 4.84267652,10.064432 C5.54696581,10.7786875 6.34231454,11.4602414 7.15484772,12.1310775 C7.35782363,12.298656 7.56453083,12.4676619 7.77150966,12.6368893 C8.0158594,12.8366715 8.26058688,13.0367635 8.50000071,13.2351826 C8.73941454,13.0367635 8.9841406,12.8366715 9.22849034,12.6368893 Z" fill="#4A4A4A" mask="url(#mask-2)"></path>
            </g>
        </g>
    </g>
</svg>