<?xml version="1.0" encoding="UTF-8"?>
<svg width="14px" height="14px" viewBox="0 0 14 14" version="1.1" xmlns="http://www.w3.org/2000/svg" xmlns:xlink="http://www.w3.org/1999/xlink">
    <title>99A78B7C-7171-48BB-85A6-6E39A5F4ADDB</title>
    <g id="Welcome" stroke="none" stroke-width="1" fill="none" fill-rule="evenodd">
        <g id="Home-page-/-Profil_Connecté" transform="translate(-1122.000000, -302.000000)">
            <g id="basic-/-help_circle_outline" transform="translate(1122.000000, 302.000000)">
                <path d="M0,0 L14,0 L14,14 L0,14 L0,0 Z" id="basic-/-help_circle_outline-(Background/Mask)"></path>
                <path d="M1.16666667,7 C1.16666667,3.78000001 3.78000001,1.16666667 7,1.16666667 C10.2200003,1.16666667 12.8333333,3.78000001 12.8333333,7 C12.8333333,10.2200003 10.2200003,12.8333333 7,12.8333333 C3.78000001,12.8333333 1.16666667,10.2200003 1.16666667,7 C1.16666667,4.85333334 1.16666667,4.85333334 1.16666667,7 Z" fill="#191970"></path>
                <path d="M7.58333333,10.5 L6.41666667,10.5 L6.41666667,9.33333333 L7.58333333,9.33333333 L7.58333333,10.5 Z" fill="#FFFFFF"></path>
                <path d="M4.66666667,5.83333333 C4.66666667,4.54416664 5.71083331,3.5 7,3.5 C8.28916669,3.5 9.33333333,4.54416664 9.33333333,5.83333333 C9.33333333,6.5817016 8.87248778,6.98443611 8.42377758,7.37656458 C7.99809416,7.74857076 7.58333333,8.11103177 7.58333333,8.75 L6.41666667,8.75 C6.41666667,7.68758972 6.96623588,7.26634343 7.44942506,6.89597726 C7.82847023,6.60543768 8.16666667,6.34620889 8.16666667,5.83333333 C8.16666667,5.19166672 7.64166689,4.66666667 7,4.66666667 C6.35833311,4.66666667 5.83333333,5.19166672 5.83333333,5.83333333 L4.66666667,5.83333333 C4.66666667,4.97388887 4.66666667,4.97388887 4.66666667,5.83333333 Z" fill="#FFFFFF"></path>
            </g>
        </g>
    </g>
</svg>