<?xml version="1.0" encoding="UTF-8"?>
<svg width="14px" height="14px" viewBox="0 0 14 14" version="1.1" xmlns="http://www.w3.org/2000/svg" xmlns:xlink="http://www.w3.org/1999/xlink">
    <title>3BC737C8-AA8A-4C42-B64C-0030D89417FB</title>
    <g id="Welcome" stroke="none" stroke-width="1" fill="none" fill-rule="evenodd">
        <g id="Home-page-/-Profil_Connecté" transform="translate(-1122.000000, -252.000000)" fill="#191970" fill-rule="nonzero">
            <g id="Icons/Historique_over" transform="translate(1122.000000, 252.000000)">
                <path d="M3.71875,1.16666667 C3.92010382,1.16666667 4.08333333,1.32989618 4.08333333,1.53125 L4.08333333,1.89583333 L9.91666667,1.89583333 L9.91666667,1.53125 C9.91666667,1.32989618 10.0798962,1.16666667 10.28125,1.16666667 C10.4826038,1.16666667 10.6458333,1.32989618 10.6458333,1.53125 L10.6458333,1.89583333 L11.375,1.89583333 C12.1804153,1.89583333 12.8333333,2.54875141 12.8333333,3.35416667 L12.8333333,11.375 C12.8333333,12.1804153 12.1804153,12.8333333 11.375,12.8333333 L2.625,12.8333333 C1.81958474,12.8333333 1.16666667,12.1804153 1.16666667,11.375 L1.16666667,3.35416667 C1.16666667,2.54875141 1.81958474,1.89583333 2.625,1.89583333 L3.35416667,1.89583333 L3.35416667,1.53125 C3.35416667,1.32989618 3.51739618,1.16666667 3.71875,1.16666667 Z M10.976875,3.35416667 L3.02239583,3.35416667 C2.80364583,3.35416667 2.625,3.5175 2.625,3.71875 L2.625,4.44791667 C2.625,4.64916667 2.80291667,4.8125 3.02239583,4.8125 L10.9776042,4.8125 C11.1963542,4.8125 11.375,4.64916667 11.375,4.44791667 L11.375,3.71875 C11.375,3.5175 11.1970833,3.35416667 10.976875,3.35416667 Z M9.55208333,6.27083333 C9.35072952,6.27083333 9.1875,6.43406285 9.1875,6.63541667 L9.1875,7.36458333 C9.1875,7.56593715 9.35072952,7.72916667 9.55208333,7.72916667 L10.28125,7.72916667 C10.4826038,7.72916667 10.6458333,7.56593715 10.6458333,7.36458333 L10.6458333,6.63541667 C10.6458333,6.43406285 10.4826038,6.27083333 10.28125,6.27083333 L9.55208333,6.27083333 Z" id="Shape"></path>
            </g>
        </g>
    </g>
</svg>