<?xml version="1.0" encoding="UTF-8"?>
<svg width="14px" height="14px" viewBox="0 0 14 14" version="1.1" xmlns="http://www.w3.org/2000/svg" xmlns:xlink="http://www.w3.org/1999/xlink">
    <title>4CB1F2E2-F9E0-407F-95AF-4D27EFB46699</title>
    <g id="Welcome" stroke="none" stroke-width="1" fill="none" fill-rule="evenodd">
        <g id="Home-page-/-Profil_Connecté" transform="translate(-1193.000000, -248.000000)" fill="#4A4A4A" fill-rule="nonzero">
            <g id="Icons/Historique-Copy" transform="translate(1193.000000, 248.000000)">
                <g id="Group" transform="translate(1.166667, 1.166667)">
                    <path d="M8.02083333,5.46875 C8.02083333,5.26739618 8.18406285,5.10416667 8.38541667,5.10416667 L9.11458333,5.10416667 C9.31593715,5.10416667 9.47916667,5.26739618 9.47916667,5.46875 L9.47916667,6.19791667 C9.47916667,6.39927048 9.31593715,6.5625 9.11458333,6.5625 L8.38541667,6.5625 C8.18406285,6.5625 8.02083333,6.39927048 8.02083333,6.19791667 L8.02083333,5.46875 Z" id="Path"></path>
                    <path d="M2.55208333,0 C2.75343715,0 2.91666667,0.163229518 2.91666667,0.364583333 L2.91666667,0.729166667 L8.75,0.729166667 L8.75,0.364583333 C8.75,0.163229518 8.91322952,0 9.11458333,0 C9.31593715,0 9.47916667,0.163229518 9.47916667,0.364583333 L9.47916667,0.729166667 L10.2083333,0.729166667 C11.0137486,0.729166667 11.6666667,1.38208474 11.6666667,2.1875 L11.6666667,10.2083333 C11.6666667,11.0137486 11.0137486,11.6666667 10.2083333,11.6666667 L1.45833333,11.6666667 C0.652918073,11.6666667 0,11.0137486 0,10.2083333 L0,2.1875 C0,1.38208474 0.652918073,0.729166667 1.45833333,0.729166667 L2.1875,0.729166667 L2.1875,0.364583333 C2.1875,0.163229518 2.35072952,0 2.55208333,0 Z M1.45833333,1.45833333 C1.0556257,1.45833333 0.729166667,1.78479237 0.729166667,2.1875 L0.729166667,10.2083333 C0.729166667,10.611041 1.0556257,10.9375 1.45833333,10.9375 L10.2083333,10.9375 C10.611041,10.9375 10.9375,10.611041 10.9375,10.2083333 L10.9375,2.1875 C10.9375,1.78479237 10.611041,1.45833333 10.2083333,1.45833333 L1.45833333,1.45833333 Z" id="Shape"></path>
                    <path d="M1.82291667,2.91666667 C1.82291667,2.71531285 1.98614618,2.55208333 2.1875,2.55208333 L9.47916667,2.55208333 C9.68052048,2.55208333 9.84375,2.71531285 9.84375,2.91666667 L9.84375,3.64583333 C9.84375,3.84718715 9.68052048,4.01041667 9.47916667,4.01041667 L2.1875,4.01041667 C1.98614618,4.01041667 1.82291667,3.84718715 1.82291667,3.64583333 L1.82291667,2.91666667 Z" id="Path"></path>
                </g>
            </g>
        </g>
    </g>
</svg>