<?xml version="1.0" encoding="UTF-8"?>
<svg width="9px" height="13px" viewBox="0 0 9 13" version="1.1" xmlns="http://www.w3.org/2000/svg" xmlns:xlink="http://www.w3.org/1999/xlink">
    <title>9C5097AA-ECAA-464E-B360-BB4C1F71ADCD</title>
    <g id="Welcome" stroke="none" stroke-width="1" fill="none" fill-rule="evenodd">
        <g id="Profil-/-Carnet-d'adresse-/-Validation" transform="translate(-516.000000, -360.000000)" fill="#D0021B" fill-rule="nonzero">
            <g id="Group-3-Copy-2" transform="translate(114.500000, 140.000000)">
                <g id="Adresse-1" transform="translate(378.500000, 146.000000)">
                    <g id="Group-4" transform="translate(5.000000, 5.000000)">
                        <g id="Group-3" transform="translate(7.000000, 7.000000)">
                            <g id="placeholder-copy-2" transform="translate(11.000000, 62.000000)">
                                <path d="M4.5,0 C2.01825,0 0,2.1864375 0,4.875 C0,8.2541875 4.062,12.6936875 4.2345,12.881375 C4.308,12.9601875 4.404,13 4.5,13 C4.596,13 4.692,12.9601875 4.7655,12.881375 C4.938,12.6936875 9,8.2541875 9,4.875 C9,2.1864375 6.98175,0 4.5,0 Z M4.5,12.0063125 C3.6045,10.9679375 0.75,7.4563125 0.75,4.875 C0.75,2.6349375 2.43225,0.8125 4.5,0.8125 C6.56775,0.8125 8.25,2.6349375 8.25,4.875 C8.25,7.453875 5.3955,10.9679375 4.5,12.0063125 Z" id="Shape"></path>
                                <path d="M4.5,2.05263158 C3.2595,2.05263158 2.25,3.12707018 2.25,4.44736842 C2.25,5.76766667 3.2595,6.84210526 4.5,6.84210526 C5.7405,6.84210526 6.75,5.76766667 6.75,4.44736842 C6.75,3.12707018 5.7405,2.05263158 4.5,2.05263158 Z M4.5,6.15789474 C3.61366071,6.15789474 2.89285714,5.39072368 2.89285714,4.44736842 C2.89285714,3.50401316 3.61366071,2.73684211 4.5,2.73684211 C5.38633929,2.73684211 6.10714286,3.50401316 6.10714286,4.44736842 C6.10714286,5.39072368 5.38633929,6.15789474 4.5,6.15789474 Z" id="Shape"></path>
                            </g>
                        </g>
                    </g>
                </g>
            </g>
        </g>
    </g>
</svg>