<?xml version="1.0" encoding="UTF-8"?>
<svg width="13px" height="13px" viewBox="0 0 13 13" version="1.1" xmlns="http://www.w3.org/2000/svg" xmlns:xlink="http://www.w3.org/1999/xlink">
    <title>1629D45E-13BC-4EB8-9F05-33888084A159</title>
    <g id="Welcome" stroke="none" stroke-width="1" fill="none" fill-rule="evenodd">
        <g id="Profil-/-Carnet-d'adresse-/-Validation" transform="translate(-514.000000, -387.000000)" fill="#D0021B" fill-rule="nonzero">
            <g id="Group-3-Copy-2" transform="translate(114.500000, 140.000000)">
                <g id="Adresse-1" transform="translate(378.500000, 146.000000)">
                    <g id="Group-4" transform="translate(5.000000, 5.000000)">
                        <g id="Group-3" transform="translate(7.000000, 7.000000)">
                            <g id="business-and-trade" transform="translate(9.500000, 89.500000)">
                                <path d="M6.99750446,4.49223529 L11.400934,5.37066667 C11.7558075,5.44596078 11.9957219,5.74713725 11.9957219,6.10352941 L11.9957219,11.2235294 C11.9957219,11.6401569 11.6608414,11.9764706 11.2459893,11.9764706 L6.74759358,11.9764706 C6.88754367,11.9764706 6.99750446,11.8660392 6.99750446,11.7254902 L6.99750446,11.4745098 L11.2459893,11.4745098 C11.3809412,11.4745098 11.4959002,11.3640784 11.4959002,11.2235294 L11.4959002,6.10352941 C11.4959002,5.98807843 11.4159287,5.88266667 11.3009697,5.85756863 L6.99750446,5.00423529 L6.99750446,4.49223529 Z" id="Path"></path>
                                <path d="M9.74652406,6.95686275 C9.88647415,6.95686275 9.99643494,7.06729412 9.99643494,7.20784314 C9.99643494,7.34839216 9.88647415,7.45882353 9.74652406,7.45882353 L8.74688057,7.45882353 C8.60693048,7.45882353 8.4969697,7.34839216 8.4969697,7.20784314 C8.4969697,7.06729412 8.60693048,6.95686275 8.74688057,6.95686275 L9.74652406,6.95686275 Z" id="Path"></path>
                                <path d="M9.74652406,8.4627451 C9.88647415,8.4627451 9.99643494,8.57317647 9.99643494,8.71372549 C9.99643494,8.85427451 9.88647415,8.96470588 9.74652406,8.96470588 L8.74688057,8.96470588 C8.60693048,8.96470588 8.4969697,8.85427451 8.4969697,8.71372549 C8.4969697,8.57317647 8.60693048,8.4627451 8.74688057,8.4627451 L9.74652406,8.4627451 Z" id="Path"></path>
                                <path d="M9.74652406,9.96862745 C9.88647415,9.96862745 9.99643494,10.0790588 9.99643494,10.2196078 C9.99643494,10.3601569 9.88647415,10.4705882 9.74652406,10.4705882 L8.74688057,10.4705882 C8.60693048,10.4705882 8.4969697,10.3601569 8.4969697,10.2196078 C8.4969697,10.0790588 8.60693048,9.96862745 8.74688057,9.96862745 L9.74652406,9.96862745 Z" id="Path"></path>
                                <path d="M6.99750446,11.7254902 C6.99750446,11.8660392 6.88754367,11.9764706 6.74759358,11.9764706 C6.60764349,11.9764706 6.49768271,11.8660392 6.49768271,11.7254902 L6.49768271,11.4745098 L6.49768271,4.69803922 C6.49768271,4.6227451 6.53267023,4.55247059 6.58765062,4.50227451 C6.64762923,4.45709804 6.7226025,4.43701961 6.79757576,4.45207843 L6.99750446,4.49223529 L6.99750446,5.00423529 L6.99750446,11.4745098 L6.99750446,11.7254902 Z" id="Path"></path>
                                <path d="M6.49768271,11.4745098 L6.49768271,11.7254902 C6.49768271,11.8660392 6.60764349,11.9764706 6.74759358,11.9764706 L4.7483066,11.9764706 C4.88825668,11.9764706 4.99821747,11.8660392 4.99821747,11.7254902 L4.99821747,11.4745098 L6.49768271,11.4745098 Z" id="Path"></path>
                                <path d="M5.24812834,2.43921569 C5.38807843,2.43921569 5.49803922,2.54964706 5.49803922,2.69019608 C5.49803922,2.8307451 5.38807843,2.94117647 5.24812834,2.94117647 L4.24848485,2.94117647 C4.10853476,2.94117647 3.99857398,2.8307451 3.99857398,2.69019608 C3.99857398,2.54964706 4.10853476,2.43921569 4.24848485,2.43921569 L5.24812834,2.43921569 Z" id="Path"></path>
                                <path d="M5.49803922,4.19607843 C5.49803922,4.33662745 5.38807843,4.44705882 5.24812834,4.44705882 L4.24848485,4.44705882 C4.10853476,4.44705882 3.99857398,4.33662745 3.99857398,4.19607843 C3.99857398,4.05552941 4.10853476,3.94509804 4.24848485,3.94509804 L5.24812834,3.94509804 C5.38807843,3.94509804 5.49803922,4.05552941 5.49803922,4.19607843 Z" id="Path"></path>
                                <path d="M5.24812834,5.45098039 C5.38807843,5.45098039 5.49803922,5.56141176 5.49803922,5.70196078 C5.49803922,5.8425098 5.38807843,5.95294118 5.24812834,5.95294118 L4.24848485,5.95294118 C4.10853476,5.95294118 3.99857398,5.8425098 3.99857398,5.70196078 C3.99857398,5.56141176 4.10853476,5.45098039 4.24848485,5.45098039 L5.24812834,5.45098039 Z" id="Path"></path>
                                <path d="M5.24812834,6.95686275 C5.38807843,6.95686275 5.49803922,7.06729412 5.49803922,7.20784314 C5.49803922,7.34839216 5.38807843,7.45882353 5.24812834,7.45882353 L4.24848485,7.45882353 C4.10853476,7.45882353 3.99857398,7.34839216 3.99857398,7.20784314 C3.99857398,7.06729412 4.10853476,6.95686275 4.24848485,6.95686275 L5.24812834,6.95686275 Z" id="Path"></path>
                                <path d="M2.99893048,7.20784314 C2.99893048,7.34839216 2.8889697,7.45882353 2.74901961,7.45882353 L1.74937611,7.45882353 C1.60942602,7.45882353 1.49946524,7.34839216 1.49946524,7.20784314 C1.49946524,7.06729412 1.60942602,6.95686275 1.74937611,6.95686275 L2.74901961,6.95686275 C2.8889697,6.95686275 2.99893048,7.06729412 2.99893048,7.20784314 Z" id="Path"></path>
                                <path d="M2.74901961,2.43921569 C2.8889697,2.43921569 2.99893048,2.54964706 2.99893048,2.69019608 C2.99893048,2.8307451 2.8889697,2.94117647 2.74901961,2.94117647 L1.74937611,2.94117647 C1.60942602,2.94117647 1.49946524,2.8307451 1.49946524,2.69019608 C1.49946524,2.54964706 1.60942602,2.43921569 1.74937611,2.43921569 L2.74901961,2.43921569 Z" id="Path"></path>
                                <path d="M2.74901961,3.94509804 C2.8889697,3.94509804 2.99893048,4.05552941 2.99893048,4.19607843 C2.99893048,4.33662745 2.8889697,4.44705882 2.74901961,4.44705882 L1.74937611,4.44705882 C1.60942602,4.44705882 1.49946524,4.33662745 1.49946524,4.19607843 C1.49946524,4.05552941 1.60942602,3.94509804 1.74937611,3.94509804 L2.74901961,3.94509804 Z" id="Path"></path>
                                <path d="M2.74901961,5.45098039 C2.8889697,5.45098039 2.99893048,5.56141176 2.99893048,5.70196078 C2.99893048,5.8425098 2.8889697,5.95294118 2.74901961,5.95294118 L1.74937611,5.95294118 C1.60942602,5.95294118 1.49946524,5.8425098 1.49946524,5.70196078 C1.49946524,5.56141176 1.60942602,5.45098039 1.74937611,5.45098039 L2.74901961,5.45098039 Z" id="Path"></path>
                                <path d="M4.49839572,9.21568627 C4.49839572,9.07513725 4.38343672,8.96470588 4.24848485,8.96470588 L2.74901961,8.96470588 C2.60906952,8.96470588 2.49910873,9.07513725 2.49910873,9.21568627 L2.49910873,11.4745098 L1.99928699,11.4745098 L1.99928699,9.21568627 C1.99928699,8.79905882 2.33416756,8.4627451 2.74901961,8.4627451 L4.24848485,8.4627451 C4.6633369,8.4627451 4.99821747,8.79905882 4.99821747,9.21568627 L4.99821747,11.4745098 L4.49839572,11.4745098 L4.49839572,9.21568627 Z" id="Path"></path>
                                <path d="M2.49910873,11.4745098 L4.49839572,11.4745098 L4.99821747,11.4745098 L4.99821747,11.7254902 C4.99821747,11.8660392 4.88825668,11.9764706 4.7483066,11.9764706 L2.24919786,11.9764706 C2.10924777,11.9764706 1.99928699,11.8660392 1.99928699,11.7254902 L1.99928699,11.4745098 L2.49910873,11.4745098 Z" id="Path"></path>
                                <path d="M0.874688057,0.0298039216 L6.36772906,0.868078431 C6.73259893,0.928313725 6.99750446,1.23952941 6.99750446,1.61098039 L6.99750446,4.49223529 L6.79757576,4.45207843 C6.7226025,4.43701961 6.64762923,4.45709804 6.58765062,4.50227451 C6.53267023,4.55247059 6.49768271,4.6227451 6.49768271,4.69803922 L6.49768271,1.61098039 C6.49768271,1.4854902 6.4077148,1.38007843 6.28775758,1.36 L0.794716578,0.526745098 C0.779721925,0.52172549 0.764727273,0.52172549 0.74973262,0.52172549 C0.689754011,0.52172549 0.634773619,0.541803922 0.589789661,0.581960784 C0.529811052,0.632156863 0.499821747,0.697411765 0.499821747,0.772705882 L0.499821747,11.2235294 C0.499821747,11.3640784 0.614780749,11.4745098 0.74973262,11.4745098 L1.99928699,11.4745098 L1.99928699,11.7254902 C1.99928699,11.8660392 2.10924777,11.9764706 2.24919786,11.9764706 L0.74973262,11.9764706 C0.33488057,11.9764706 0,11.6401569 0,11.2235294 L0,0.772705882 C0,0.551843137 0.0949661319,0.341019608 0.264905526,0.200470588 C0.43484492,0.0549019608 0.654766488,-0.00533333333 0.874688057,0.0298039216 Z" id="Path"></path>
                            </g>
                        </g>
                    </g>
                </g>
            </g>
        </g>
    </g>
</svg>