<?xml version="1.0" encoding="UTF-8"?>
<svg width="16px" height="16px" viewBox="0 0 16 16" version="1.1" xmlns="http://www.w3.org/2000/svg" xmlns:xlink="http://www.w3.org/1999/xlink">
    <title>91E4280E-1668-4F93-9DBD-26BB4834B810</title>
    <g id="Welcome" stroke="none" stroke-width="1" fill="none" fill-rule="evenodd">
        <g id="Accueil-/-Général-/--Mon_Profil-/-Général" transform="translate(-642.000000, -204.000000)" fill="#191970" fill-rule="nonzero">
            <g id="Group-7" transform="translate(114.500000, 140.000000)">
                <g id="Group-5" transform="translate(528.000000, 62.500000)">
                    <g id="Icons/edit-off" transform="translate(0.000000, 2.000000)">
                        <g id="Icons/Modifier-Copy-4" transform="translate(1.071429, 1.071429)">
                            <path d="M4.37601993,1.28571429 C4.55017397,1.28571429 4.69131999,1.42949223 4.69131999,1.6066136 C4.69131999,1.78386031 4.55017397,1.92751291 4.37601993,1.92751291 L4.37601993,1.92751291 L1.57650029,1.92751291 C1.05428457,1.92813965 0.631215929,2.3588467 0.630600117,2.89021084 L0.630600117,2.89021084 L0.630600117,11.252521 C0.631215929,11.7840104 1.05428457,12.2147175 1.57650029,12.2152189 L1.57650029,12.2152189 L10.4234997,12.2152189 C10.9457154,12.2147175 11.368784,11.7840104 11.3693999,11.252521 L11.3693999,11.252521 L11.3693999,8.40328605 C11.3693999,8.22603934 11.5105459,8.08238674 11.6846999,8.08238674 C11.8588539,8.08238674 12,8.22603934 12,8.40328605 L12,8.40328605 L12,11.2526463 C11.9990147,12.1383786 11.2937771,12.85614 10.4234997,12.8571429 L10.4234997,12.8571429 L1.57650029,12.8571429 C0.706222881,12.85614 0.000985312682,12.1383786 0,11.2526463 L0,11.2526463 L0,2.89021084 C0.000985312682,2.00447858 0.706222881,1.2867171 1.57650029,1.28571429 L1.57650029,1.28571429 Z M10.0113731,0.423626114 C10.5762581,-0.141208705 11.4920774,-0.141208705 12.0569624,0.423626114 L12.0569624,0.423626114 L12.4341383,0.80076856 C12.9981444,1.36598006 12.9981444,2.2809648 12.4341383,2.84617626 L12.4341383,2.84617626 L6.69978364,8.58027311 C6.66048399,8.61956927 6.61176753,8.64794282 6.55827988,8.66275735 L6.55827988,8.66275735 L3.83580801,9.41691667 C3.72418704,9.44780119 3.60465593,9.41628895 3.52266663,9.33443246 C3.44080285,9.25245044 3.40928784,9.13292993 3.44030065,9.02131888 L3.44030065,9.02131888 L4.19440136,6.29908862 C4.20921717,6.24560572 4.23759327,6.19689355 4.27689289,6.15759742 L4.27689289,6.15759742 Z M4.67491144,6.97314913 L4.21147723,8.64580853 L5.88415954,8.18241546 L4.67491144,6.97314913 Z M9.67048344,1.67356959 L4.97725485,6.36650722 L6.49072972,7.87997334 L11.1840839,3.18703571 L9.67048344,1.67356959 Z M11.6023172,0.87810536 C11.2885481,0.564364016 10.7797875,0.564364016 10.4660183,0.87810536 L10.4660183,0.87810536 L10.1250031,1.2189648 L11.6387291,2.73255646 L11.9796187,2.39169702 C12.2928857,2.07770459 12.2928857,1.5693658 11.9796187,1.25524781 L11.9796187,1.25524781 Z" id="Combined-Shape"></path>
                        </g>
                    </g>
                </g>
            </g>
        </g>
    </g>
</svg>