<?xml version="1.0" encoding="UTF-8"?>
<svg width="13px" height="13px" viewBox="0 0 13 13" version="1.1" xmlns="http://www.w3.org/2000/svg" xmlns:xlink="http://www.w3.org/1999/xlink">
    <title>5EEB5CB1-BB97-48F0-8B57-B8BE6510AC15</title>
    <g id="Welcome" stroke="none" stroke-width="1" fill="none" fill-rule="evenodd">
        <g id="Profil-/-Carnet-d'adresse-/-Validation" transform="translate(-514.000000, -333.000000)" fill="#D0021B" fill-rule="nonzero">
            <g id="Group-3-Copy-2" transform="translate(114.500000, 140.000000)">
                <g id="Adresse-1" transform="translate(378.500000, 146.000000)">
                    <g id="Group-4" transform="translate(5.000000, 5.000000)">
                        <g id="Group-3" transform="translate(7.000000, 7.000000)">
                            <g id="telephone" transform="translate(9.500000, 35.500000)">
                                <path d="M2.44320497,7.97018634 C3.62581366,9.38385093 5.04941615,10.4968944 6.67426087,11.284472 C7.29289441,11.5776398 8.1202236,11.9254658 9.04196273,11.9850932 C9.09910559,11.9875776 9.15376398,11.9900621 9.21090683,11.9900621 C9.82954037,11.9900621 10.3264348,11.7763975 10.7314037,11.336646 C10.7338882,11.3341615 10.7388571,11.3291925 10.7413416,11.3242236 C10.885441,11.1503106 11.0494161,10.9937888 11.2208447,10.8273292 C11.3376149,10.715528 11.4568696,10.5987578 11.5711553,10.4795031 C12.1003478,9.92795031 12.1003478,9.22732919 11.5661863,8.6931677 L10.0730186,7.2 C9.81960248,6.93664596 9.51649689,6.79751553 9.19848447,6.79751553 C8.88047205,6.79751553 8.57488199,6.93664596 8.31401242,7.19751553 L7.42457143,8.08695652 C7.34258385,8.03975155 7.2581118,7.99751553 7.1786087,7.95776398 C7.07922981,7.90807453 6.98730435,7.86086957 6.90531677,7.80869565 C6.09537888,7.29440994 5.35997516,6.62360248 4.65686957,5.76149068 C4.30159006,5.31180124 4.06308075,4.93416149 3.89662112,4.54906832 C4.13016149,4.3378882 4.34879503,4.11677019 4.55997516,3.90062112 C4.63450932,3.82360248 4.71152795,3.74658385 4.78854658,3.66956522 C5.05686957,3.40124224 5.20096894,3.09068323 5.20096894,2.77515528 C5.20096894,2.45962733 5.05935404,2.14906832 4.78854658,1.88074534 L4.04817391,1.14037267 C3.96121739,1.05341615 3.87922981,0.968944099 3.79475776,0.881987578 C3.63078261,0.713043478 3.45935404,0.539130435 3.29040994,0.382608696 C3.03450932,0.131677019 2.7338882,0 2.41587578,0 C2.10034783,0 1.79724224,0.131677019 1.53140373,0.385093168 L0.60221118,1.31428571 C0.264322981,1.65217391 0.0730186335,2.0621118 0.0332670807,2.53664596 C-0.0139378882,3.13043478 0.095378882,3.76149068 0.378608696,4.5242236 C0.813391304,5.70434783 1.46929193,6.8 2.44320497,7.97018634 Z M0.639478261,2.58881988 C0.669291925,2.25838509 0.796,1.9826087 1.03450932,1.74409938 L1.95873292,0.819875776 C2.1028323,0.680745342 2.26183851,0.608695652 2.41587578,0.608695652 C2.56742857,0.608695652 2.72146584,0.680745342 2.86308075,0.82484472 C3.02954037,0.978881988 3.18606211,1.14037267 3.35500621,1.31180124 C3.43947826,1.39875776 3.52643478,1.48571429 3.6133913,1.57515528 L4.35376398,2.31552795 C4.50780124,2.46956522 4.58730435,2.62608696 4.58730435,2.78012422 C4.58730435,2.93416149 4.50780124,3.09068323 4.35376398,3.2447205 C4.27674534,3.32173913 4.19972671,3.40124224 4.12270807,3.47826087 C3.89165217,3.71180124 3.67550311,3.93291925 3.43699379,4.14409938 C3.43202484,4.14906832 3.42954037,4.1515528 3.42457143,4.15652174 C3.21836025,4.36273292 3.25065839,4.55900621 3.30034783,4.70807453 C3.3028323,4.71552795 3.30531677,4.72049689 3.30780124,4.72795031 C3.49910559,5.18757764 3.7649441,5.62484472 4.17985093,6.14658385 C4.92519255,7.06583851 5.71028571,7.77888199 6.57488199,8.32795031 C6.68171429,8.39751553 6.796,8.45217391 6.9028323,8.5068323 C7.00221118,8.55652174 7.09413665,8.60372671 7.17612422,8.65590062 C7.18606211,8.66086957 7.19351553,8.66583851 7.20345342,8.67080745 C7.28544099,8.71304348 7.3649441,8.73291925 7.4444472,8.73291925 C7.64320497,8.73291925 7.77239752,8.60621118 7.81463354,8.56397516 L8.74382609,7.63478261 C8.88792547,7.49068323 9.0444472,7.4136646 9.19848447,7.4136646 C9.38730435,7.4136646 9.54134161,7.53043478 9.63823602,7.63478261 L11.1363727,9.13043478 C11.4345093,9.42857143 11.4320248,9.7515528 11.1289193,10.0670807 C11.0245714,10.178882 10.9152547,10.2857143 10.7984845,10.3975155 C10.6245714,10.5664596 10.443205,10.7403727 10.2792298,10.936646 C9.99351553,11.2447205 9.65314286,11.3888199 9.2133913,11.3888199 C9.17115528,11.3888199 9.12643478,11.3863354 9.08419876,11.3838509 C8.26929193,11.331677 7.51152795,11.0136646 6.94258385,10.7428571 C5.39724224,9.99503106 4.0407205,8.93416149 2.91525466,7.58757764 C1.98854658,6.47204969 1.3649441,5.43354037 0.952521739,4.32049689 C0.696621118,3.63726708 0.599726708,3.08819876 0.639478261,2.58881988 Z" id="Shape"></path>
                            </g>
                        </g>
                    </g>
                </g>
            </g>
        </g>
    </g>
</svg>