<?xml version="1.0" encoding="UTF-8"?>
<svg width="11px" height="13px" viewBox="0 0 11 13" version="1.1" xmlns="http://www.w3.org/2000/svg" xmlns:xlink="http://www.w3.org/1999/xlink">
    <title>38D1114E-12CB-46F9-8F66-95816353470E</title>
    <g id="Welcome" stroke="none" stroke-width="1" fill="none" fill-rule="evenodd">
        <g id="Profil-/-Mode-de-paiement-/-Comptes_Enregistrés" transform="translate(-505.000000, -397.000000)" fill="#191970" fill-rule="nonzero">
            <g id="Group-12" transform="translate(114.500000, 140.000000)">
                <g id="Group-7" transform="translate(370.000000, 129.000000)">
                    <g id="placeholder" transform="translate(21.000000, 128.000000)">
                        <path d="M5,0 C2.2425,0 0,2.1864375 0,4.875 C0,8.2541875 4.51333333,12.6936875 4.705,12.881375 C4.78666667,12.9601875 4.89333333,13 5,13 C5.10666667,13 5.21333333,12.9601875 5.295,12.881375 C5.48666667,12.6936875 10,8.2541875 10,4.875 C10,2.1864375 7.7575,0 5,0 Z M5,12.0063125 C4.005,10.9679375 0.833333333,7.4563125 0.833333333,4.875 C0.833333333,2.6349375 2.7025,0.8125 5,0.8125 C7.2975,0.8125 9.16666667,2.6349375 9.16666667,4.875 C9.16666667,7.453875 5.995,10.9679375 5,12.0063125 Z" id="Shape"></path>
                        <path d="M5,2.05263158 C3.62166667,2.05263158 2.5,3.12707018 2.5,4.44736842 C2.5,5.76766667 3.62166667,6.84210526 5,6.84210526 C6.37833333,6.84210526 7.5,5.76766667 7.5,4.44736842 C7.5,3.12707018 6.37833333,2.05263158 5,2.05263158 Z M5,6.15789474 C4.01517857,6.15789474 3.21428571,5.39072368 3.21428571,4.44736842 C3.21428571,3.50401316 4.01517857,2.73684211 5,2.73684211 C5.98482143,2.73684211 6.78571429,3.50401316 6.78571429,4.44736842 C6.78571429,5.39072368 5.98482143,6.15789474 5,6.15789474 Z" id="Shape"></path>
                    </g>
                </g>
            </g>
        </g>
    </g>
</svg>