<?xml version="1.0" encoding="UTF-8"?>
<svg width="18px" height="18px" viewBox="0 0 18 18" version="1.1" xmlns="http://www.w3.org/2000/svg" xmlns:xlink="http://www.w3.org/1999/xlink">
    <title>166D75C2-C362-45CC-8D69-0273E0272E2B</title>
    <g id="Welcome" stroke="none" stroke-width="1" fill="none" fill-rule="evenodd">
        <g id="Home-page" transform="translate(-884.000000, -99.000000)" fill="#FFFFFF" fill-rule="nonzero">
            <g id="Group-5" transform="translate(481.000000, 69.000000)">
                <g id="setting_icon_183904-copy" transform="translate(403.500000, 30.000000)">
                    <path d="M9.14172853,0 C9.81837193,0 10.4310084,0.378 10.7693301,0.936 C10.9339191,1.206 11.043645,1.539 11.0162135,1.89 C10.9979259,2.16 11.0802203,2.43 11.2265216,2.682 C11.6928569,3.447 12.7261095,3.735 13.5307665,3.303 C14.4360056,2.781 15.5789843,3.096 16.1001826,3.987 L16.1001826,3.987 L16.7128191,5.049 C17.2431612,5.94 16.9505586,7.083 16.0361758,7.596 C15.2589503,8.055 14.9846354,9.072 15.4509707,9.846 C15.5972719,10.089 15.7618608,10.296 16.0178881,10.422 C16.3379221,10.593 16.5848055,10.863 16.7585383,11.133 C17.0968599,11.691 17.0694285,12.375 16.7402506,12.978 L16.7402506,12.978 L16.1001826,14.058 C15.7618608,14.634 15.1309366,14.994 14.4817248,14.994 C14.1616907,14.994 13.8050814,14.904 13.5124789,14.724 C13.2747394,14.571 13.0004244,14.517 12.7078219,14.517 C11.8025828,14.517 11.043645,15.264 11.0162135,16.155 C11.0162135,17.19 10.1749812,18 9.12344083,18 L9.12344083,18 L7.87988009,18 C6.8191959,18 5.97796361,17.19 5.97796361,16.155 C5.95967596,15.264 5.20073813,14.517 4.29549903,14.517 C3.99375267,14.517 3.71943779,14.571 3.49084206,14.724 C3.19823953,14.904 2.83248636,14.994 2.52159617,14.994 C1.86324046,14.994 1.23231625,14.634 0.893994564,14.058 L0.893994564,14.058 L0.263070347,12.978 C-0.0752513333,12.393 -0.0935389918,11.691 0.24478269,11.133 C0.391083957,10.863 0.665398834,10.593 0.976289028,10.422 C1.23231625,10.296 1.39690518,10.089 1.55235027,9.846 C2.00954173,9.072 1.73522686,8.055 0.958001367,7.596 C0.0527622758,7.083 -0.239840259,5.94 0.281358006,5.049 L0.281358006,5.049 L0.893994564,3.987 C1.42433666,3.096 2.55817148,2.781 3.4725544,3.303 C4.26806755,3.735 5.30132025,3.447 5.76765554,2.682 C5.91395681,2.43 5.99625127,2.16 5.97796361,1.89 C5.95967596,1.539 6.06025807,1.206 6.23399083,0.936 C6.57231251,0.378 7.18494907,0.018 7.8524486,0 L7.8524486,0 L9.14172853,0 Z M8.5108043,6.462 C7.07522311,6.462 5.91395681,7.596 5.91395681,9.009 C5.91395681,10.422 7.07522311,11.547 8.5108043,11.547 C9.9463855,11.547 11.0802203,10.422 11.0802203,9.009 C11.0802203,7.596 9.9463855,6.462 8.5108043,6.462 Z" id="Shape"></path>
                </g>
            </g>
        </g>
    </g>
</svg>