<?xml version="1.0" encoding="UTF-8"?>
<svg width="16px" height="16px" viewBox="0 0 16 16" version="1.1" xmlns="http://www.w3.org/2000/svg" xmlns:xlink="http://www.w3.org/1999/xlink">
    <title>9DBACB39-12DB-431D-9412-E5B708A22FA6</title>
    <g id="Welcome" stroke="none" stroke-width="1" fill="none" fill-rule="evenodd">
        <g id="Assets" transform="translate(-1713.000000, -195.000000)" fill="#FFFFFF" fill-rule="nonzero">
            <g id="Icons/Fermés-Copy-4" transform="translate(1713.000000, 195.000000)">
                <path d="M0.0404061711,7.80713711 C3.10761893,1.45121203 12.8665686,1.41855584 15.9595938,7.80713711 C16.0134687,7.92835563 16.0134687,8.06666786 15.9595938,8.18791762 C12.8890061,14.5477802 3.13258763,14.5751551 0.0404061711,8.18791762 C-0.0134687237,8.06669911 -0.0134687237,7.92835563 0.0404061711,7.80713711 Z M12.0500077,7.99754299 C11.8283831,2.62620973 4.17249185,2.62464723 3.95002354,7.99751174 C3.95002354,10.2306949 5.76683249,12.0475038 8.00001562,12.0475038 C10.2331988,12.0475038 12.0500077,10.2306949 12.0500077,7.99754299 Z M4.08867951,4.90645528 C2.54177629,5.75485987 1.51734079,7.03079488 0.994091808,7.99754299 C1.51549704,8.96088486 2.53880754,10.2385386 4.08867951,11.088537 C2.66602604,9.37144656 2.66577604,6.62388942 4.08867951,4.90645528 Z M11.9113517,4.90648653 C13.3340052,6.62357692 13.3342552,9.37113406 11.9113517,11.0885682 C13.458255,10.2401636 14.4826905,8.9642286 15.0059394,7.99751174 C14.484503,7.03416987 13.4612237,5.75648487 11.9113517,4.90648653 Z M8.00001562,6.0225156 C9.08904475,6.0225156 9.97504302,6.90848262 9.97504302,7.99751174 C9.86691823,10.6168504 6.13351927,10.6176316 6.02501948,7.99751174 C6.02501948,6.90851387 6.9109865,6.0225156 8.00001562,6.0225156 Z M9.0375136,7.99751174 C8.98073246,6.62151443 7.01951754,6.62110818 6.96251765,7.99751174 C6.96251765,8.56957312 7.42792299,9.03500971 8.00001562,9.03500971 C8.57210826,9.03500971 9.0375136,8.56960437 9.0375136,7.99751174 Z M8.00001562,1.93917982 C8.25889012,1.93917982 8.46876471,1.72930523 8.46876471,1.47043074 L8.46876471,0.46627645 C8.44398351,-0.155659836 7.55579774,-0.155191087 7.53126654,0.46627645 L7.53126654,1.47043074 C7.53126654,1.72930523 7.74114113,1.93917982 8.00001562,1.93917982 Z M8.00001562,14.0558437 C7.74114113,14.0558437 7.53126654,14.2657182 7.53126654,14.5245927 L7.53126654,15.528747 C7.55604774,16.1506833 8.44423351,16.1502146 8.46876471,15.528747 L8.46876471,14.5245927 C8.46876471,14.2657182 8.25889012,14.0558437 8.00001562,14.0558437 Z M2.14565206,2.80608438 C2.32868295,2.98911527 2.62546362,2.98914652 2.80855701,2.80608438 C2.99158791,2.62302224 2.99158791,2.32624157 2.80855701,2.14317942 L2.0986209,1.43321206 C1.91559001,1.25018117 1.61877809,1.25014992 1.43571595,1.43321206 C1.25268505,1.6162742 1.25268505,1.91305487 1.43571595,2.09611702 L2.14565206,2.80608438 Z M2.14565206,13.1889704 L1.43571595,13.8989065 C1.2526538,14.0819686 1.2526538,14.3787493 1.43571595,14.5618114 C1.61871559,14.7448423 1.91555876,14.7449048 2.0986209,14.5618114 L2.80855701,13.8518753 C2.99161916,13.6688132 2.99161916,13.3720325 2.80855701,13.1889704 C2.62552612,13.0059082 2.3287142,13.0059082 2.14565206,13.1889704 Z M13.8543792,2.80608438 L14.5643153,2.09614827 C14.7473774,1.91308612 14.7473774,1.61630545 14.5643153,1.43324331 C14.3812532,1.25018117 14.0844725,1.25021242 13.9014103,1.43324331 L13.1914742,2.14314817 C13.0084121,2.32621032 13.0084121,2.62299099 13.1914742,2.80605313 C13.3748176,2.98939652 13.671567,2.98883402 13.8543792,2.80608438 Z M13.8543792,13.1889704 C13.6713483,13.0059082 13.3745364,13.0059082 13.1914742,13.1889704 C13.0084121,13.3720325 13.0084121,13.6688132 13.1914742,13.8518753 L13.9014103,14.5618114 C14.08441,14.7448423 14.3812532,14.7449048 14.5643153,14.5618114 C14.7473774,14.3787493 14.7473774,14.0819686 14.5643153,13.8989065 L13.8543792,13.1889704 Z" id="Combined-Shape"></path>
            </g>
        </g>
    </g>
</svg>