<?xml version="1.0" encoding="UTF-8"?>
<svg width="14px" height="14px" viewBox="0 0 14 14" version="1.1" xmlns="http://www.w3.org/2000/svg" xmlns:xlink="http://www.w3.org/1999/xlink">
    <title>F75FD1F6-9D51-48FF-AD3A-1269CAAB1C4C</title>
    <g id="Welcome" stroke="none" stroke-width="1" fill="none" fill-rule="evenodd">
        <g id="Home-page-/-Profil_Connecté" transform="translate(-1122.000000, -331.000000)" fill="#191970">
            <g id="Icons/off_over" transform="translate(1122.000000, 331.000000)">
                <g id="Power-button" transform="translate(1.166667, 1.166667)">
                    <path d="M0.162037037,5.83333333 C0.162037037,2.70116389 2.70116389,0.162037037 5.83333333,0.162037037 C8.96550926,0.162037037 11.5046296,2.70116389 11.5046296,5.83333333 C11.5046296,8.96550926 8.96550926,11.5046296 5.83333333,11.5046296 C2.70116389,11.5046296 0.162037037,8.96550926 0.162037037,5.83333333 Z M5.83333333,2.10648148 C6.1017963,2.10648148 6.31944444,2.32412315 6.31944444,2.59259259 L6.31944444,5.83333333 C6.31944444,6.1017963 6.1017963,6.31944444 5.83333333,6.31944444 C5.56487037,6.31944444 5.34722222,6.1017963 5.34722222,5.83333333 L5.34722222,2.59259259 C5.34722222,2.32412315 5.56487037,2.10648148 5.83333333,2.10648148 Z M4.53703704,3.29403796 C4.53703704,3.17559537 4.4142713,3.09788889 4.31135833,3.15652685 C3.38155741,3.68633611 2.75462963,4.68662963 2.75462963,5.83333333 C2.75462963,7.53368519 4.13301389,8.91203704 5.83333333,8.91203704 C7.53368519,8.91203704 8.91203704,7.53368519 8.91203704,5.83333333 C8.91203704,4.68662963 8.28508333,3.68633611 7.35531481,3.15652685 C7.25238889,3.09788889 7.12962963,3.17558889 7.12962963,3.29403796 L7.12962963,4.09382685 C7.12962963,4.14368889 7.15283333,4.19048519 7.19094444,4.22263981 C7.64892593,4.6090463 7.93981481,5.18719444 7.93981481,5.83333333 C7.93981481,6.99669444 6.99669444,7.93981481 5.83333333,7.93981481 C4.66997222,7.93981481 3.72685185,6.99669444 3.72685185,5.83333333 C3.72685185,5.18719444 4.01774722,4.6090463 4.47571574,4.22263981 C4.51382685,4.19048519 4.53703704,4.14368889 4.53703704,4.09382685 L4.53703704,3.29403796 Z" id="Shape"></path>
                </g>
            </g>
        </g>
    </g>
</svg>