<?xml version="1.0" encoding="UTF-8"?>
<svg width="17px" height="17px" viewBox="0 0 17 17" version="1.1" xmlns="http://www.w3.org/2000/svg" xmlns:xlink="http://www.w3.org/1999/xlink">
    <title>8CCB3BAE-A30A-4050-9E98-6033E1E28DDB</title>
    <g id="Welcome" stroke="none" stroke-width="1" fill="none" fill-rule="evenodd">
        <g id="Home-page-/-Profil_Connecté" transform="translate(-954.000000, -362.000000)" fill="#4A4A4A">
            <g id="Icons/Off" transform="translate(954.000000, 362.000000)">
                <g id="Power-button" transform="translate(1.416667, 1.416667)">
                    <path d="M5.50925926,3.99990324 C5.50925926,3.85608009 5.36018657,3.76172222 5.23522083,3.83292546 C4.10617685,4.47626528 3.34490741,5.69090741 3.34490741,7.08333333 C3.34490741,9.1480463 5.01865972,10.8217593 7.08333333,10.8217593 C9.1480463,10.8217593 10.8217593,9.1480463 10.8217593,7.08333333 C10.8217593,5.69090741 10.0604583,4.47626528 8.9314537,3.83292546 C8.80647222,3.76172222 8.65740741,3.85607222 8.65740741,3.99990324 L8.65740741,4.97107546 C8.65740741,5.03162222 8.68558333,5.0884463 8.73186111,5.1274912 C9.28798148,5.59669907 9.6412037,6.29873611 9.6412037,7.08333333 C9.6412037,8.49598611 8.49598611,9.6412037 7.08333333,9.6412037 C5.67068056,9.6412037 4.52546296,8.49598611 4.52546296,7.08333333 C4.52546296,6.29873611 4.87869306,5.59669907 5.43479769,5.1274912 C5.48107546,5.0884463 5.50925926,5.03162222 5.50925926,4.97107546 L5.50925926,3.99990324 Z" id="Path" fill-rule="nonzero"></path>
                    <path d="M7.67361111,3.14814815 C7.67361111,2.82214954 7.40932407,2.55787037 7.08333333,2.55787037 C6.75734259,2.55787037 6.49305556,2.82214954 6.49305556,3.14814815 L6.49305556,7.08333333 C6.49305556,7.40932407 6.75734259,7.67361111 7.08333333,7.67361111 C7.40932407,7.67361111 7.67361111,7.40932407 7.67361111,7.08333333 L7.67361111,3.14814815 Z" id="Path" fill-rule="nonzero"></path>
                    <path d="M0.196759259,7.08333333 C0.196759259,3.27998472 3.27998472,0.196759259 7.08333333,0.196759259 C10.8866898,0.196759259 13.9699074,3.27998472 13.9699074,7.08333333 C13.9699074,10.8866898 10.8866898,13.9699074 7.08333333,13.9699074 C3.27998472,13.9699074 0.196759259,10.8866898 0.196759259,7.08333333 Z M7.08333333,1.37731481 C3.93198981,1.37731481 1.37731481,3.93198981 1.37731481,7.08333333 C1.37731481,10.2347083 3.93198981,12.7893519 7.08333333,12.7893519 C10.2347083,12.7893519 12.7893519,10.2347083 12.7893519,7.08333333 C12.7893519,3.93198981 10.2347083,1.37731481 7.08333333,1.37731481 Z" id="Shape"></path>
                </g>
            </g>
        </g>
    </g>
</svg>