<?xml version="1.0" encoding="UTF-8"?>
<svg width="14px" height="14px" viewBox="0 0 14 14" version="1.1" xmlns="http://www.w3.org/2000/svg" xmlns:xlink="http://www.w3.org/1999/xlink">
    <title>D991F337-F748-4C66-85FE-522D9F5AEC51</title>
    <g id="Welcome" stroke="none" stroke-width="1" fill="none" fill-rule="evenodd">
        <g id="Home-page-/-Profil_Connecté" transform="translate(-1086.000000, -173.000000)" fill="#4A4A4A" fill-rule="nonzero">
            <g id="Icons/Panier_1" transform="translate(1086.000000, 173.000000)">
                <g id="shoppingbasket3_114870" transform="translate(1.341667, 1.166667)">
                    <path d="M8.89381438,11.6666667 L2.54569611,11.6666667 C1.94809351,11.6666667 1.46205921,11.1884384 1.46205921,10.600823 L0.562885873,6.44703036 C0.223136624,6.28129518 0,5.9432071 0,5.56570459 C0,5.01400011 0.456065148,4.56564898 1.01637941,4.56564898 L10.3002873,4.56564898 C10.8606015,4.56564898 11.3166667,5.01400011 11.3166667,5.56570459 C11.3166667,5.88851351 11.1583148,6.18407296 10.8935379,6.37014793 L9.97003318,10.6683628 C9.97745129,11.1884384 9.49141699,11.6666667 8.89381438,11.6666667 Z M1.01637941,5.22148537 C0.823706475,5.22148537 0.666640447,5.37602881 0.666640447,5.56560727 C0.666640447,5.71509009 0.776428413,5.84744467 0.933988982,5.88676176 C1.05683281,5.91751474 1.15099331,6.01483428 1.17700613,6.1369703 L2.12128155,10.5333806 C2.12869966,10.827091 2.31573483,11.010733 2.54569611,11.010733 L8.89381438,11.010733 C9.12377567,11.010733 9.31090975,10.827091 9.31090975,10.600823 L10.2713072,6.09599878 C10.2921768,5.99692748 10.3585441,5.91323268 10.450133,5.86885497 C10.5733725,5.80997664 10.650224,5.69290123 10.650224,5.56570459 C10.650224,5.37612613 10.493158,5.22158269 10.3003862,5.22158269 L1.01637941,5.22158269 L1.01637941,5.22148537 Z" id="Shape"></path>
                    <path d="M3.40154771,9.74372984 C3.40154771,9.87063452 3.2960128,9.97447447 3.16703666,9.97447447 L3.10244969,9.97447447 C2.97347355,9.97447447 2.86793863,9.87063452 2.86793863,9.74372984 L2.86793863,7.0428206 C2.86793863,6.91591592 2.97347355,6.81207596 3.10244969,6.81207596 L3.16703666,6.81207596 C3.2960128,6.81207596 3.40154771,6.91591592 3.40154771,7.0428206 L3.40154771,9.74372984 Z" id="Path"></path>
                    <path d="M5.11859195,9.74372984 C5.11859195,9.87063452 5.01305703,9.97447447 4.8840809,9.97447447 L4.81949392,9.97447447 C4.69051779,9.97447447 4.58488396,9.87063452 4.58488396,9.74372984 L4.58488396,7.0428206 C4.58488396,6.91591592 4.69041888,6.81207596 4.81949392,6.81207596 L4.8840809,6.81207596 C5.01305703,6.81207596 5.11859195,6.91591592 5.11859195,7.0428206 L5.11859195,9.74372984 Z" id="Path"></path>
                    <path d="M6.8357351,9.74372984 C6.8357351,9.87063452 6.73020018,9.97447447 6.60122404,9.97447447 L6.53653816,9.97447447 C6.40756203,9.97447447 6.30202711,9.87063452 6.30202711,9.74372984 L6.30202711,7.0428206 C6.30202711,6.91591592 6.40756203,6.81207596 6.53653816,6.81207596 L6.60122404,6.81207596 C6.73020018,6.81207596 6.8357351,6.91591592 6.8357351,7.0428206 L6.8357351,9.74372984 Z" id="Path"></path>
                    <path d="M8.55287824,9.74372984 C8.55287824,9.87063452 8.44734332,9.97447447 8.31836719,9.97447447 L8.2536813,9.97447447 C8.12470517,9.97447447 8.01907134,9.87063452 8.01907134,9.74372984 L8.01907134,7.0428206 C8.01907134,6.91591592 8.12470517,6.81207596 8.2536813,6.81207596 L8.31826828,6.81207596 C8.44724441,6.81207596 8.55277933,6.91591592 8.55277933,7.0428206 L8.55277933,9.74372984 L8.55287824,9.74372984 Z" id="Path"></path>
                    <path d="M2.50187984,3.39333778 C2.72442301,1.86843788 4.05374758,0.695348126 5.66496017,0.695348126 C7.27627168,0.695348126 8.60569515,1.8685352 8.82823833,3.39333778 C8.86068018,3.91399733 9.54235465,3.8306918 9.54235465,3.39333778 C9.31545952,1.48314982 7.66745312,0 5.66505908,0 C3.66276395,0 2.01465864,1.48314982 1.78786242,3.39333778 C1.78776351,3.93492103 2.51058375,3.95574741 2.50187984,3.39333778 Z" id="Path"></path>
                </g>
            </g>
        </g>
    </g>
</svg>