<?xml version="1.0" encoding="UTF-8"?>
<svg width="14px" height="14px" viewBox="0 0 14 14" version="1.1" xmlns="http://www.w3.org/2000/svg" xmlns:xlink="http://www.w3.org/1999/xlink">
    <title>09E4ACD3-C138-4392-9F8F-6E2724A294C6</title>
    <g id="Welcome" stroke="none" stroke-width="1" fill="none" fill-rule="evenodd">
        <g id="Home-page-/-Profil_Connecté" transform="translate(-1122.000000, -173.000000)" fill="#191970" fill-rule="nonzero">
            <g id="Icons/Panier_over" transform="translate(1122.000000, 173.000000)">
                <g id="shoppingbasket2_114884" transform="translate(1.341667, 1.166667)">
                    <path d="M11.3166667,5.4347585 C11.3166667,5.0357102 10.9899878,4.70914312 10.5908029,4.70914312 L0.725763384,4.70914312 C0.326578459,4.70914312 0,5.0357102 0,5.4347585 C0,5.77397466 0.23679951,6.05857893 0.552733038,6.13698313 L1.55355743,10.8701478 C1.55355743,11.3086492 1.91237196,11.6673409 2.35102347,11.6673409 L9.09609382,11.6673409 C9.53474533,11.6673409 9.89355986,11.3086492 9.89355986,10.8701478 L10.9053305,6.08528254 C11.1474524,5.96742525 11.3166667,5.72086861 11.3166667,5.4347585 Z M3.26026128,9.94515886 C3.26026128,10.0821905 3.14808781,10.1942252 3.01100921,10.1942252 L2.94231927,10.1942252 C2.80524068,10.1942252 2.6930672,10.0820902 2.6930672,9.94515886 L2.6930672,7.0293455 C2.6930672,6.89231382 2.80524068,6.78027912 2.94231927,6.78027912 L3.01100921,6.78027912 C3.14808781,6.78027912 3.26026128,6.89231382 3.26026128,7.0293455 L3.26026128,9.94515886 Z M5.08486276,9.94515886 C5.08486276,10.0821905 4.97268929,10.1942252 4.83561069,10.1942252 L4.76692076,10.1942252 C4.62984216,10.1942252 4.51766869,10.0820902 4.51766869,9.94515886 L4.51766869,7.0293455 C4.51766869,6.89231382 4.62974174,6.78027912 4.76692076,6.78027912 L4.83561069,6.78027912 C4.97268929,6.78027912 5.08486276,6.89231382 5.08486276,7.0293455 L5.08486276,9.94515886 Z M6.90936382,9.94515886 C6.90936382,10.0821905 6.79729077,10.1942252 6.66011175,10.1942252 L6.59152224,10.1942252 C6.45444365,10.1942252 6.3423706,10.0820902 6.3423706,9.94515886 L6.3423706,7.0293455 C6.3423706,6.89231382 6.45444365,6.78027912 6.59152224,6.78027912 L6.66021218,6.78027912 C6.79729077,6.78027912 6.90946425,6.89231382 6.90946425,7.0293455 L6.90946425,9.94515886 L6.90936382,9.94515886 Z M8.73396531,9.94515886 C8.73396531,10.0821905 8.62179183,10.1942252 8.48481366,10.1942252 L8.41612373,10.1942252 C8.27904513,10.1942252 8.16687166,10.0820902 8.16687166,9.94515886 L8.16687166,7.0293455 C8.16687166,6.89231382 8.27904513,6.78027912 8.41612373,6.78027912 L8.48481366,6.78027912 C8.62189226,6.78027912 8.73396531,6.89231382 8.73396531,7.0293455 L8.73396531,9.94515886 Z" id="Shape"></path>
                    <path d="M2.46239355,3.50038148 C2.68834728,1.92747862 4.03804423,0.717283058 5.67404967,0.717283058 C7.31005511,0.717283058 8.65985248,1.92747862 8.88580622,3.50038148 C8.91874525,4.03746537 9.61086663,3.95153194 9.61086663,3.50038148 C9.38039383,1.52993615 7.70713113,0 5.67404967,0 C3.64106863,0 1.96770551,1.52993615 1.73733313,3.50038148 C1.73733313,4.05904911 2.47123085,4.08053247 2.46239355,3.50038148 Z" id="Path"></path>
                </g>
            </g>
        </g>
    </g>
</svg>