<?xml version="1.0" encoding="UTF-8"?>
<svg width="21px" height="21px" viewBox="0 0 21 21" version="1.1" xmlns="http://www.w3.org/2000/svg" xmlns:xlink="http://www.w3.org/1999/xlink">
    <title>347594F3-A745-4A4A-9E69-C3A195C77FAD</title>
    <g id="Welcome" stroke="none" stroke-width="1" fill="none" fill-rule="evenodd">
        <g id="Boutique-/-Étagère-/-Étagère-en-activité" transform="translate(-143.000000, -162.000000)" fill-rule="nonzero">
            <g id="Group-3" transform="translate(65.000000, 121.000000)">
                <g id="Group-18-Copy" transform="translate(75.000000, 5.000000)">
                    <g id="Icons/Partage-Copy" transform="translate(3.000000, 36.000000)">
                        <circle id="Cercle-de-survole-icone-Copy" fill="#FFFFFF" cx="10.5" cy="10.5" r="10.5"></circle>
                        <path d="M10.5,0 C13.3046484,0 15.9414199,1.09220508 17.9246484,3.07535156 C19.9077949,5.05858008 21,7.69535156 21,10.5 C21,13.3046484 19.9077949,15.9414199 17.9246484,17.9246484 C15.9414199,19.9077949 13.3046484,21 10.5,21 C7.69535156,21 5.05858008,19.9077949 3.07535156,17.9246484 C1.09220508,15.9414199 0,13.3046484 0,10.5 C0,7.69535156 1.09220508,5.05858008 3.07535156,3.07535156 C5.05858008,1.09220508 7.69535156,0 10.5,0 Z M10.5,1.23046875 C5.38875586,1.23046875 1.23046875,5.38875586 1.23046875,10.5 C1.23046875,15.6112441 5.38875586,19.7695312 10.5,19.7695312 C15.6112441,19.7695312 19.7695312,15.6112441 19.7695312,10.5 C19.7695312,5.38875586 15.6112441,1.23046875 10.5,1.23046875 Z M13.6314073,4.54054054 C14.8778385,4.54054054 15.8918919,5.53434403 15.8918919,6.75588492 C15.8918919,7.97742581 14.8778385,8.97122929 13.6314073,8.97122929 C13.0066093,8.97122929 12.4402963,8.72145929 12.0307376,8.31854856 L12.0307376,8.31854856 L8.43356673,10.2770338 C8.47261146,10.4399221 8.49394222,10.6093758 8.49394222,10.7837838 C8.49394222,10.9581918 8.47261146,11.1276858 8.43356673,11.2905337 L8.43356673,11.2905337 L12.0307376,13.249019 C12.4402963,12.8461083 13.0066093,12.5963383 13.6314073,12.5963383 C14.8778385,12.5963383 15.8918919,13.5901418 15.8918919,14.8116827 C15.8918919,16.0332235 14.8778385,17.027027 13.6314073,17.027027 C12.384976,17.027027 11.3709226,16.0332235 11.3709226,14.8116827 C11.3709226,14.6373149 11.3922534,14.4678209 11.4312981,14.3049327 L11.4312981,14.3049327 L7.83412731,12.3464474 C7.42456859,12.7493582 6.85825555,12.9991282 6.2334576,12.9991282 C4.98702637,12.9991282 3.97297297,12.0053247 3.97297297,10.7837838 C3.97297297,9.56224289 4.98702637,8.56843941 6.2334576,8.56843941 C6.85825555,8.56843941 7.42456859,8.81820942 7.83412731,9.22112014 L7.83412731,9.22112014 L11.4312981,7.26263487 C11.3922534,7.09974664 11.3709226,6.93025266 11.3709226,6.75588492 C11.3709226,5.53434403 12.384976,4.54054054 13.6314073,4.54054054 Z M13.6314073,13.8047079 C13.0648476,13.8047079 12.6039143,14.2564368 12.6039143,14.8116827 C12.6039143,15.3669285 13.0648476,15.8186574 13.6314073,15.8186574 C14.1979669,15.8186574 14.6589003,15.3669285 14.6589003,14.8116827 C14.6589003,14.2564368 14.1979669,13.8047079 13.6314073,13.8047079 Z M6.2334576,9.77680907 C5.66689795,9.77680907 5.20596459,10.2285379 5.20596459,10.7837838 C5.20596459,11.3390296 5.66689795,11.7907585 6.2334576,11.7907585 C6.80001724,11.7907585 7.26095061,11.3390296 7.26095061,10.7837838 C7.26095061,10.2285379 6.80001724,9.77680907 6.2334576,9.77680907 Z M13.6314073,5.7489102 C13.0648476,5.7489102 12.6039143,6.20063906 12.6039143,6.75588492 C12.6039143,7.31113078 13.0648476,7.76285963 13.6314073,7.76285963 C14.1979669,7.76285963 14.6589003,7.31113078 14.6589003,6.75588492 C14.6589003,6.20063906 14.1979669,5.7489102 13.6314073,5.7489102 Z" id="Combined-Shape" fill="#1A7EF5"></path>
                    </g>
                </g>
            </g>
        </g>
    </g>
</svg>