<?xml version="1.0" encoding="UTF-8"?>
<svg width="18px" height="19px" viewBox="0 0 18 19" version="1.1" xmlns="http://www.w3.org/2000/svg" xmlns:xlink="http://www.w3.org/1999/xlink">
    <title>3F7540B9-5D70-4B12-9D5C-19BDF24F3D66</title>
    <g id="Welcome" stroke="none" stroke-width="1" fill="none" fill-rule="evenodd">
        <g id="Home-page-/-Recherche" transform="translate(-1011.000000, -357.000000)" fill="#191970" fill-rule="nonzero">
            <g id="Recherche-Barre-Copy" transform="translate(396.000000, 350.000000)">
                <g id="photo-gallery" transform="translate(615.000000, 7.500000)">
                    <path d="M16.6910003,17.9749234 L1.2839231,17.9749234 C0.5751839,17.9740744 0.000848959826,17.3997395 0,16.6910003 L0,1.2839231 C0.000848959826,0.5751839 0.5751839,0.000848959826 1.2839231,0 L16.6910003,0 C17.3997395,0.000848959826 17.9740744,0.5751839 17.9749234,1.2839231 L17.9749234,16.6910003 C17.9740744,17.3997395 17.3997395,17.9740744 16.6910003,17.9749234 Z M1.2839231,0.513569239 C0.85846841,0.513569239 0.513569239,0.85846841 0.513569239,1.2839231 L0.513569239,16.6910003 C0.513569239,17.116455 0.85846841,17.4613541 1.2839231,17.4613541 L16.6910003,17.4613541 C17.116455,17.4613541 17.4613541,17.116455 17.4613541,16.6910003 L17.4613541,1.2839231 C17.4613541,0.85846841 17.116455,0.513569239 16.6910003,0.513569239 L1.2839231,0.513569239 Z" id="Shape"></path>
                    <path d="M10.6134219,14.8082554 L5.02681571,9.22190605 L0.447318807,14.2951998 L0.0662504319,13.9511084 L4.82755085,8.67726587 C4.87470743,8.6249697 4.94127105,8.59433372 5.01166542,8.59252694 C5.08227345,8.58881613 5.15096422,8.61621737 5.19963176,8.66750805 L10.9772857,14.445162 L10.6134219,14.8082554 Z" id="Path"></path>
                    <path d="M8.16164235,11.9936392 L7.7985489,11.6305458 L12.7960912,6.6332603 C12.8963655,6.53301622 13.0589103,6.53301622 13.1591846,6.6332603 L17.8996855,11.3737612 L17.536592,11.7368546 L12.9776379,7.17790047 L8.16164235,11.9936392 Z" id="Path"></path>
                    <path d="M7.96032321,6.93318473 C6.82577737,6.93318473 5.90604625,6.01345361 5.90604625,4.87890777 C5.90604625,3.74436194 6.82577737,2.82463082 7.96032321,2.82463082 C9.09486905,2.82463082 10.0146002,3.74436194 10.0146002,4.87890777 C10.0133265,6.01292564 9.09434107,6.93191111 7.96032321,6.93318473 Z M7.96032321,3.33820006 C7.10941383,3.33820006 6.41961549,4.0279984 6.41961549,4.87890777 C6.41961549,5.72981715 7.10941383,6.41961549 7.96032321,6.41961549 C8.81123259,6.41961549 9.50103093,5.72981715 9.50103093,4.87890777 C9.50004041,4.02840902 8.81082196,3.33919057 7.96032321,3.33820006 L7.96032321,3.33820006 Z" id="Shape"></path>
                </g>
            </g>
        </g>
    </g>
</svg>