<?xml version="1.0" encoding="UTF-8"?>
<svg width="11px" height="14px" viewBox="0 0 11 14" version="1.1" xmlns="http://www.w3.org/2000/svg" xmlns:xlink="http://www.w3.org/1999/xlink">
    <title>D27657FA-8A81-47FE-A747-90760F59BC02</title>
    <g id="Welcome" stroke="none" stroke-width="1" fill="none" fill-rule="evenodd">
        <g id="Marchand-/-Mes_Commandes-/-Détails" transform="translate(-144.000000, -503.000000)" fill="#D0021B" fill-rule="nonzero">
            <g id="Group-3" transform="translate(134.000000, 453.000000)">
                <g id="placeholder-copy-2" transform="translate(10.500000, 50.000000)">
                    <path d="M5,0 C2.2425,0 0,2.354625 0,5.25 C0,8.889125 4.51333333,13.670125 4.705,13.87225 C4.78666667,13.957125 4.89333333,14 5,14 C5.10666667,14 5.21333333,13.957125 5.295,13.87225 C5.48666667,13.670125 10,8.889125 10,5.25 C10,2.354625 7.7575,0 5,0 Z M5,12.929875 C4.005,11.811625 0.833333333,8.029875 0.833333333,5.25 C0.833333333,2.837625 2.7025,0.875 5,0.875 C7.2975,0.875 9.16666667,2.837625 9.16666667,5.25 C9.16666667,8.02725 5.995,11.811625 5,12.929875 Z" id="Shape"></path>
                    <path d="M5,2.21052632 C3.62166667,2.21052632 2.5,3.36761404 2.5,4.78947368 C2.5,6.21133333 3.62166667,7.36842105 5,7.36842105 C6.37833333,7.36842105 7.5,6.21133333 7.5,4.78947368 C7.5,3.36761404 6.37833333,2.21052632 5,2.21052632 Z M5,6.63157895 C4.01517857,6.63157895 3.21428571,5.80539474 3.21428571,4.78947368 C3.21428571,3.77355263 4.01517857,2.94736842 5,2.94736842 C5.98482143,2.94736842 6.78571429,3.77355263 6.78571429,4.78947368 C6.78571429,5.80539474 5.98482143,6.63157895 5,6.63157895 Z" id="Shape"></path>
                </g>
            </g>
        </g>
    </g>
</svg>