<?xml version="1.0" encoding="UTF-8"?>
<svg width="30px" height="30px" viewBox="0 0 30 30" version="1.1" xmlns="http://www.w3.org/2000/svg" xmlns:xlink="http://www.w3.org/1999/xlink">
    <title>8AB75841-F855-4BB8-BAE5-38894E85A2B5</title>
    <g id="Welcome" stroke="none" stroke-width="1" fill="none" fill-rule="evenodd">
        <g id="Marchand-/-Gestion-de-stock_Produit-selectionner" transform="translate(-141.000000, -427.000000)" fill="#D0021B" fill-rule="nonzero">
            <g id="Group-11" transform="translate(120.000000, 406.000000)">
                <g id="Group-10" transform="translate(10.000000, 10.000000)">
                    <g id="3643776-caution-exclamation-mark-round-sign_113410" transform="translate(11.000000, 11.000000)">
                        <path d="M15,30 C6.71572875,30 0,23.2842712 0,15 C0,6.71572875 6.71572875,0 15,0 C23.2842712,0 30,6.71572875 30,15 C30,23.2842712 23.2842712,30 15,30 Z M15,2 C7.82029825,2 2,7.82029825 2,15 C2,22.1797017 7.82029825,28 15,28 C22.1797017,28 28,22.1797017 28,15 C28,11.5521856 26.6303611,8.24558476 24.1923882,5.80761184 C21.7544152,3.36963892 18.4478144,2 15,2 Z" id="Shape"></path>
                        <path d="M15,23 C13.8954305,23 13,22.1045695 13,21 C13,19.8954305 13.8954305,19 15,19 C16.1045695,19 17,19.8954305 17,21 C17,22.1045695 16.1045695,23 15,23 Z" id="Path"></path>
                        <path d="M15,17 C14.4477153,17 14,16.5522847 14,16 L14,7 C14,6.44771525 14.4477153,6 15,6 C15.5522847,6 16,6.44771525 16,7 L16,16 C16,16.5522847 15.5522847,17 15,17 Z" id="Path"></path>
                    </g>
                </g>
            </g>
        </g>
    </g>
</svg>