<?xml version="1.0" encoding="UTF-8"?>
<svg width="19px" height="18px" viewBox="0 0 19 18" version="1.1" xmlns="http://www.w3.org/2000/svg" xmlns:xlink="http://www.w3.org/1999/xlink">
    <title>923A97FB-EBAC-4BFE-B888-2BB32C0458D6</title>
    <g id="Welcome" stroke="none" stroke-width="1" fill="none" fill-rule="evenodd">
        <g id="Profil-/-Modifier_mon_avatar" transform="translate(-170.000000, -199.000000)" fill="#FFFFFF">
            <g id="Popup" transform="translate(114.500000, 140.000000)">
                <g id="Group" transform="translate(5.000000, 5.000000)">
                    <g id="Icons/Off" transform="translate(51.000000, 54.000000)">
                        <g id="Power-button" transform="translate(1.500000, 1.500000)">
                            <path d="M5.83333333,4.23519167 C5.83333333,4.08290833 5.67549167,3.983 5.543175,4.05839167 C4.34771667,4.739575 3.54166667,6.02566667 3.54166667,7.5 C3.54166667,9.68616667 5.313875,11.4583333 7.5,11.4583333 C9.68616667,11.4583333 11.4583333,9.68616667 11.4583333,7.5 C11.4583333,6.02566667 10.65225,4.739575 9.45683333,4.05839167 C9.3245,3.983 9.16666667,4.0829 9.16666667,4.23519167 L9.16666667,5.26349167 C9.16666667,5.3276 9.1965,5.38776667 9.2455,5.42910833 C9.83433333,5.92591667 10.2083333,6.66925 10.2083333,7.5 C10.2083333,8.99575 8.99575,10.2083333 7.5,10.2083333 C6.00425,10.2083333 4.79166667,8.99575 4.79166667,7.5 C4.79166667,6.66925 5.165675,5.92591667 5.75449167,5.42910833 C5.80349167,5.38776667 5.83333333,5.3276 5.83333333,5.26349167 L5.83333333,4.23519167 Z" id="Path" fill-rule="nonzero"></path>
                            <path d="M8.125,3.33333333 C8.125,2.98815833 7.84516667,2.70833333 7.5,2.70833333 C7.15483333,2.70833333 6.875,2.98815833 6.875,3.33333333 L6.875,7.5 C6.875,7.84516667 7.15483333,8.125 7.5,8.125 C7.84516667,8.125 8.125,7.84516667 8.125,7.5 L8.125,3.33333333 Z" id="Path" fill-rule="nonzero"></path>
                            <path d="M0.208333333,7.5 C0.208333333,3.472925 3.472925,0.208333333 7.5,0.208333333 C11.5270833,0.208333333 14.7916667,3.472925 14.7916667,7.5 C14.7916667,11.5270833 11.5270833,14.7916667 7.5,14.7916667 C3.472925,14.7916667 0.208333333,11.5270833 0.208333333,7.5 Z M7.5,1.45833333 C4.16328333,1.45833333 1.45833333,4.16328333 1.45833333,7.5 C1.45833333,10.83675 4.16328333,13.5416667 7.5,13.5416667 C10.83675,13.5416667 13.5416667,10.83675 13.5416667,7.5 C13.5416667,4.16328333 10.83675,1.45833333 7.5,1.45833333 Z" id="Shape"></path>
                        </g>
                    </g>
                </g>
            </g>
        </g>
    </g>
</svg>