<?xml version="1.0" encoding="UTF-8"?>
<svg width="19px" height="18px" viewBox="0 0 19 18" version="1.1" xmlns="http://www.w3.org/2000/svg" xmlns:xlink="http://www.w3.org/1999/xlink">
    <title>A8DFE2AF-CDF0-45DE-8734-33D6789D0A1D</title>
    <g id="Welcome" stroke="none" stroke-width="1" fill="none" fill-rule="evenodd">
        <g id="Profil-/-Modifier_mon_avatar" transform="translate(-129.000000, -199.000000)" fill="#FFFFFF" fill-rule="nonzero">
            <g id="Popup" transform="translate(114.500000, 140.000000)">
                <g id="Group" transform="translate(5.000000, 5.000000)">
                    <g id="Icons/Off-Copy" transform="translate(10.000000, 54.000000)">
                        <path d="M6.12642791,1.8 C6.37024355,1.8 6.56784799,2.00128912 6.56784799,2.24925903 C6.56784799,2.49740443 6.37024355,2.69851807 6.12642791,2.69851807 L6.12642791,2.69851807 L2.20710041,2.69851807 C1.4759984,2.69939552 0.883702301,3.30238538 0.882840163,4.04629517 L0.882840163,4.04629517 L0.882840163,15.7535293 C0.883702301,16.4976146 1.4759984,17.1006045 2.20710041,17.1013065 L2.20710041,17.1013065 L14.5928996,17.1013065 C15.3240016,17.1006045 15.9162977,16.4976146 15.9171598,15.7535293 L15.9171598,15.7535293 L15.9171598,11.7646005 C15.9171598,11.5164551 16.1147643,11.3153414 16.3585799,11.3153414 C16.6023955,11.3153414 16.8,11.5164551 16.8,11.7646005 L16.8,11.7646005 L16.8,15.7537048 C16.7986206,16.99373 15.811288,17.9985961 14.5928996,18 L14.5928996,18 L2.20710041,18 C0.988712033,17.9985961 0.00137943776,16.99373 0,15.7537048 L0,15.7537048 L0,4.04629517 C0.00137943776,2.80627002 0.988712033,1.80140393 2.20710041,1.8 L2.20710041,1.8 Z M14.0159224,0.593076559 C14.8067614,-0.197692186 16.0889084,-0.197692186 16.8797473,0.593076559 L16.8797473,0.593076559 L17.4077936,1.12107598 C18.1974021,1.91237208 18.1974021,3.19335071 17.4077936,3.98464677 L17.4077936,3.98464677 L9.3796971,12.0123824 C9.32467759,12.067397 9.25647454,12.1071199 9.18159184,12.1278603 L9.18159184,12.1278603 L5.37013121,13.1836833 C5.21386186,13.2269217 5.0465183,13.1828045 4.93173328,13.0682055 C4.81712399,12.9534306 4.77300298,12.7861019 4.81642091,12.6298464 L4.81642091,12.6298464 L5.8721619,8.81872407 C5.89290404,8.74384801 5.93263058,8.67565097 5.98765004,8.62063639 L5.98765004,8.62063639 Z M6.54487601,9.76240878 L5.89606813,12.1041319 L8.23782336,11.4553816 L6.54487601,9.76240878 Z M13.5386768,2.34299742 L6.96815679,8.91311011 L9.08702161,11.0319627 L15.6577174,4.46184999 L13.5386768,2.34299742 Z M16.2432441,1.2293475 C15.8039673,0.790109622 15.0917024,0.790109622 14.6524256,1.2293475 L14.6524256,1.2293475 L14.1750043,1.70655072 L16.2942207,3.82557904 L16.7714662,3.34837582 C17.21004,2.90878643 17.21004,2.19711212 16.7714662,1.75734693 L16.7714662,1.75734693 Z" id="Combined-Shape"></path>
                    </g>
                </g>
            </g>
        </g>
    </g>
</svg>