<?xml version="1.0" encoding="UTF-8"?>
<svg width="42px" height="42px" viewBox="0 0 42 42" version="1.1" xmlns="http://www.w3.org/2000/svg" xmlns:xlink="http://www.w3.org/1999/xlink">
    <title>48BD72BD-0983-433A-9D0D-8ECDBDEB94D3</title>
    <g id="Welcome" stroke="none" stroke-width="1" fill="none" fill-rule="evenodd">
        <g id="Boutique-/-Entrée" transform="translate(-49.000000, -104.000000)">
            <g id="Icons/Survole-Menu" transform="translate(49.000000, 104.000000)">
                <rect id="Rectangle" fill="#F5F5F5" x="0" y="0" width="42" height="42" rx="21"></rect>
                <g id="Icons/Menu" transform="translate(10.000000, 10.000000)" fill="#1A7EF5" fill-rule="nonzero">
                    <path d="M11,0 C17.0656433,0 22,4.93435671 22,11 C22,17.0656433 17.0656433,22 11,22 C4.93435671,22 0,17.0656433 0,11 C0,4.93435671 4.93435671,0 11,0 Z M11,1.375 C5.69252015,1.375 1.375,5.69252015 1.375,11 C1.375,16.3074798 5.69252015,20.625 11,20.625 C16.3074798,20.625 20.625,16.3074798 20.625,11 C20.625,5.69252015 16.3074798,1.375 11,1.375 Z M14.993159,14.1643836 C15.3674571,14.1643836 15.6712329,14.5019163 15.6712329,14.9178082 C15.6712329,15.3337001 15.3674571,15.6712329 14.993159,15.6712329 L7.3082109,15.6712329 C6.93391279,15.6712329 6.63013699,15.3337001 6.63013699,14.9178082 C6.63013699,14.5019163 6.93391279,14.1643836 7.3082109,14.1643836 L14.993159,14.1643836 Z M14.993159,10.2465753 C15.3674571,10.2465753 15.6712329,10.5841081 15.6712329,11 C15.6712329,11.4158919 15.3674571,11.7534247 14.993159,11.7534247 L7.3082109,11.7534247 C6.93391279,11.7534247 6.63013699,11.4158919 6.63013699,11 C6.63013699,10.5841081 6.93391279,10.2465753 7.3082109,10.2465753 L14.993159,10.2465753 Z M14.993159,6.32876712 C15.3674571,6.32876712 15.6712329,6.66629991 15.6712329,7.08219178 C15.6712329,7.49808365 15.3674571,7.83561644 14.993159,7.83561644 L7.3082109,7.83561644 C6.93391279,7.83561644 6.63013699,7.49808365 6.63013699,7.08219178 C6.63013699,6.66629991 6.93391279,6.32876712 7.3082109,6.32876712 L14.993159,6.32876712 Z" id="Combined-Shape"></path>
                </g>
            </g>
        </g>
    </g>
</svg>