<?xml version="1.0" encoding="UTF-8"?>
<svg width="26px" height="27px" viewBox="0 0 26 27" version="1.1" xmlns="http://www.w3.org/2000/svg" xmlns:xlink="http://www.w3.org/1999/xlink">
    <title>6E321CB8-D67C-40C7-906D-4E58240BCBC9</title>
    <g id="Welcome" stroke="none" stroke-width="1" fill="none" fill-rule="evenodd">
        <g id="Assets" transform="translate(-269.000000, -372.000000)" fill="#1A7EF5">
            <g id="6.-Icons/Recherche-Copy" transform="translate(269.000000, 372.000000)">
                <g id="Icons/Recherche" transform="translate(4.642671, 4.821621)">
                    <path d="M0.9425,6.84353571 C0.9425,5.50992857 1.37892857,4.28046429 2.10507143,3.294 C3.02807143,2.03946429 4.42278571,1.17739286 6.01435714,1.00864286 C6.20378571,0.988392857 6.396,0.97875 6.591,0.97875 C7.47407143,0.97875 8.30792857,1.19571429 9.05357143,1.57275 C10.9367143,2.5245 12.2413571,4.52635714 12.2413571,6.8445 C12.2413571,10.0796786 9.70635714,12.7121786 6.59192857,12.7121786 C5.04028571,12.7121786 3.63257143,12.0593571 2.61114286,11.0025 C2.60742857,10.9986429 2.60278571,10.9967143 2.59907143,10.9909286 C2.59257143,10.9851429 2.58792857,10.9793571 2.58235714,10.9726071 C1.57021429,9.91189286 0.9425,8.45196429 0.9425,6.84353571 L0.9425,6.84353571 Z M16.6882857,15.9483214 L11.8662143,10.9388571 C11.9665,10.7990357 12.064,10.6553571 12.1540714,10.5078214 C12.8031429,9.44807143 13.1847857,8.19353571 13.1847857,6.8445 C13.1847857,3.0645 10.2328571,0 6.59192857,0 C4.35035714,0 2.37435714,1.16389286 1.183,2.93914286 C0.439214286,4.04710714 0,5.39228571 0,6.84353571 C0,10.6264286 2.95285714,13.6899643 6.591,13.6899643 C8.07207143,13.6899643 9.43428571,13.1779286 10.5337143,12.3216429 L15.3576429,17.3301429 L16.6882857,15.9483214 Z" id="search"></path>
                </g>
            </g>
        </g>
    </g>
</svg>