<?xml version="1.0" encoding="UTF-8"?>
<svg width="20px" height="20px" viewBox="0 0 20 20" version="1.1" xmlns="http://www.w3.org/2000/svg" xmlns:xlink="http://www.w3.org/1999/xlink">
    <title>E9F87A0B-A444-40FA-81CD-AF5C389824CE</title>
    <g id="Welcome" stroke="none" stroke-width="1" fill="none" fill-rule="evenodd">
        <g id="Assets-2" transform="translate(-137.000000, -221.000000)" fill-rule="nonzero">
            <g id="messager-copy-2" transform="translate(137.000000, 221.000000)">
                <path d="M16.4227295,19.6575928 C12.1452332,20.1141357 7.85476684,20.1141357 3.57727051,19.6575928 C1.87164305,19.4755554 0.52444457,18.128357 0.342407227,16.4225769 C-0.114135742,12.1450805 -0.114135742,7.85476684 0.342407227,3.57727051 C0.52444457,1.87164305 1.87164305,0.52444457 3.57727051,0.342407227 C7.85476684,-0.114135742 12.1450805,-0.114135742 16.4225769,0.342407227 C18.128357,0.52444457 19.4755554,1.87164305 19.6575928,3.57727051 C20.1141357,7.85476684 20.1141357,12.1450805 19.6575928,16.4225769 C19.4755554,18.128357 18.1285095,19.4755554 16.4227295,19.6575928 Z" id="Path" fill="#9B9B9B"></path>
                <g id="notification" transform="translate(5.000000, 4.000000)" fill="#FFFFFF">
                    <path d="M9.9488785,10.1215078 L9.09306075,8.69050781 C8.69780374,8.03001563 8.4889486,7.2735 8.4889486,6.50350781 L8.4889486,5.25 C8.4889486,3.6675 7.43623832,2.32900781 5.99672897,1.8975 L5.99672897,1 C5.99672897,0.4485 5.54962617,0 4.99983645,0 C4.45004673,0 4.00294393,0.4485 4.00294393,1 L4.00294393,1.8975 C2.56345794,2.32900781 1.51074766,3.6675 1.51074766,5.25 L1.51074766,6.50350781 C1.51074766,7.2735 1.30189252,8.0295 0.907126168,8.69001563 L0.0513084112,10.1210156 C0.00495327103,10.1985234 0.00394859813,10.2945234 0.048317757,10.3730156 C0.0926869159,10.4515078 0.174929907,10.5000234 0.264649533,10.5000234 L9.73504673,10.5000234 C9.82476636,10.5000234 9.9075,10.4515312 9.95186916,10.3735312 C9.99623832,10.2955078 9.99474299,10.1985 9.9488785,10.1215078 Z" id="Path"></path>
                    <path d="M3.43025701,10.9999922 C3.7113785,11.589 4.30651869,11.9999922 4.99983645,11.9999922 C5.69315421,11.9999922 6.28831776,11.589 6.56943925,10.9999922 L3.43025701,10.9999922 L3.43025701,10.9999922 Z" id="Path"></path>
                </g>
            </g>
        </g>
    </g>
</svg>