<?xml version="1.0" encoding="UTF-8"?>
<svg width="91px" height="92px" viewBox="0 0 91 92" version="1.1" xmlns="http://www.w3.org/2000/svg" xmlns:xlink="http://www.w3.org/1999/xlink">
    <title>5AE684AA-21FC-42B9-8A5B-BB542FABBB72</title>
    <g id="Welcome" stroke="none" stroke-width="1" fill="none" fill-rule="evenodd">
        <g id="Home-page-/-Récapitulatif_Produits" transform="translate(-1244.000000, -404.000000)" fill="#9B9B9B" fill-rule="nonzero">
            <g id="shoppingbasket2_114884" transform="translate(1244.000000, 404.000000)">
                <path d="M91,41.6472932 C91,38.4234028 88.3730976,35.7850845 85.163157,35.7850845 L5.83603546,35.7850845 C2.62609483,35.7850845 0,38.4234028 0,41.6472932 C0,44.3878027 1.90416101,46.6871057 4.44465742,47.3205292 L12.4925237,85.5595186 C12.4925237,89.1021484 15.3778363,92 18.9051371,92 L73.1438472,92 C76.671148,92 79.5564607,89.1021484 79.5564607,85.5595186 L87.692348,46.9028428 C89.6393082,45.9506799 91,43.9587617 91,41.6472932 Z M26.216534,78.0865813 C26.216534,79.1936531 25.3145205,80.0987755 24.212239,80.0987755 L23.6598869,80.0987755 C22.5576054,80.0987755 21.6555919,79.1928421 21.6555919,78.0865813 L21.6555919,54.529878 C21.6555919,53.4228062 22.5576054,52.5176838 23.6598869,52.5176838 L24.212239,52.5176838 C25.3145205,52.5176838 26.216534,53.4228062 26.216534,54.529878 L26.216534,78.0865813 Z M40.8885872,78.0865813 C40.8885872,79.1936531 39.9865737,80.0987755 38.8842922,80.0987755 L38.3319401,80.0987755 C37.2296586,80.0987755 36.3276451,79.1928421 36.3276451,78.0865813 L36.3276451,54.529878 C36.3276451,53.4228062 37.2288511,52.5176838 38.3319401,52.5176838 L38.8842922,52.5176838 C39.9865737,52.5176838 40.8885872,53.4228062 40.8885872,54.529878 L40.8885872,78.0865813 Z M55.5598328,78.0865813 C55.5598328,79.1936531 54.6586268,80.0987755 53.5555378,80.0987755 L53.0039933,80.0987755 C51.9017118,80.0987755 51.0005058,79.1928421 51.0005058,78.0865813 L51.0005058,54.529878 C51.0005058,53.4228062 51.9017118,52.5176838 53.0039933,52.5176838 L53.5563453,52.5176838 C54.6586268,52.5176838 55.5606403,53.4228062 55.5606403,54.529878 L55.5606403,78.0865813 L55.5598328,78.0865813 Z M70.231886,78.0865813 C70.231886,79.1936531 69.3298725,80.0987755 68.2283985,80.0987755 L67.6760465,80.0987755 C66.573765,80.0987755 65.6717515,79.1928421 65.6717515,78.0865813 L65.6717515,54.529878 C65.6717515,53.4228062 66.573765,52.5176838 67.6760465,52.5176838 L68.2283985,52.5176838 C69.33068,52.5176838 70.231886,53.4228062 70.231886,54.529878 L70.231886,78.0865813 Z" id="Shape"></path>
                <path d="M19.8006904,28.2793986 C21.6176379,15.5719988 32.4708712,5.79489225 45.6263788,5.79489225 C58.7818864,5.79489225 69.6359272,15.5719988 71.4528747,28.2793986 C71.7177453,32.6184712 77.2832575,31.9242195 77.2832575,28.2793986 C75.429971,12.360274 61.9748689,0 45.6263788,0 C29.2786962,0 15.8227866,12.360274 13.9703077,28.2793986 C13.9703077,32.7928451 19.8717532,32.966408 19.8006904,28.2793986 Z" id="Path"></path>
            </g>
        </g>
    </g>
</svg>