<?xml version="1.0" encoding="UTF-8"?>
<svg width="32px" height="32px" viewBox="0 0 32 32" version="1.1" xmlns="http://www.w3.org/2000/svg" xmlns:xlink="http://www.w3.org/1999/xlink">
    <title>ACF2C586-385D-43AE-96A4-81A7230D691C</title>
    <g id="Welcome" stroke="none" stroke-width="1" fill="none" fill-rule="evenodd">
        <g id="Home-page-/-Mes-favoris-/-partage_de_la_liste" transform="translate(-806.000000, -490.000000)" fill-rule="nonzero">
            <g id="sms_icon-icons.com_67293" transform="translate(806.000000, 490.000000)">
                <path d="M27.1111111,32 L4.88888889,32 C2.17777778,32 0,29.8222222 0,27.1111111 L0,4.88888889 C0,2.17777778 2.17777778,0 4.88888889,0 L27.1111111,0 C29.8222222,0 32,2.17777778 32,4.88888889 L32,27.1111111 C32,29.8222222 29.8222222,32 27.1111111,32 Z" id="Path" fill="#1A7EF5"></path>
                <path d="M16.3273916,6 C10.1719548,6 5.22222222,9.8661121 5.22222222,14.6829075 C5.22222222,17.7250941 7.25288176,20.4503862 10.2988711,21.9714795 C10.235413,22.6052684 9.79120618,24.3798772 7.57017231,25.9643494 C7.57017231,25.9643494 10.8065359,26.5347594 13.5352347,23.1122995 C14.4236482,23.3024361 15.3755199,23.365815 16.3273916,23.365815 C22.4828283,23.4291939 27.4325609,19.4997029 27.4325609,14.7462864 C27.4325609,9.92949099 22.4828283,6 16.3273916,6 Z M12.1391563,16.8925728 C11.8218657,17.1464052 11.3776589,17.3367796 10.8065359,17.3367796 C10.0450386,17.3367796 9.2835413,17.019489 8.64896019,16.448366 L9.2835413,15.6234106 C9.79120618,16.0676173 10.2988711,16.3214498 10.7430778,16.3214498 C10.9334522,16.3214498 11.1238265,16.2579917 11.2507427,16.1945336 C11.3776589,16.1310755 11.4411171,16.0041592 11.4411171,15.8137849 C11.4411171,15.6868687 11.3776589,15.5599525 11.2507427,15.4330362 C11.1238265,15.3695781 10.8699941,15.2426619 10.4892454,15.1792038 C9.9181224,15.0522876 9.47391563,14.8619133 9.22008318,14.6715389 C8.96625074,14.4811646 8.83933452,14.1004159 8.83933452,13.6562092 C8.83933452,13.2120024 9.02970885,12.8312537 9.34699941,12.5774213 C9.66428996,12.3235888 10.1084967,12.1966726 10.6161616,12.1966726 C10.9334522,12.1966726 11.2507427,12.2601307 11.6314914,12.3870469 C11.9487819,12.5139632 12.2660725,12.6408794 12.5199049,12.8947118 L11.9487819,13.7196673 C11.5680333,13.3389186 11.1238265,13.1485443 10.6161616,13.1485443 C10.4257873,13.1485443 10.2988711,13.2120024 10.1719548,13.2754605 C10.0450386,13.3389186 9.98158051,13.4658348 9.98158051,13.592751 C9.98158051,13.7196673 10.0450386,13.8465835 10.1719548,13.9100416 C10.2988711,13.9734997 10.6161616,14.1004159 11.0603684,14.2273321 C11.5045752,14.3542484 11.8853238,14.5446227 12.1391563,14.734997 C12.3929887,14.9888295 12.5199049,15.30612 12.5199049,15.7503268 C12.5199049,16.1945336 12.4564468,16.6387403 12.1391563,16.8925728 Z M19.1195484,17.2733214 L18.0407605,17.2733214 L18.0407605,14.163874 L16.7081402,16.8925728 L16.0735591,16.8925728 L14.7409388,14.163874 L14.7409388,17.2733214 L13.6621509,17.2733214 L13.6621509,12.3235888 L15.1851456,12.3235888 L16.4543078,15.0522876 L17.72347,12.3235888 L19.2464646,12.3235888 L19.2464646,17.2733214 L19.1195484,17.2733214 Z M23.4346999,16.8925728 C23.1174094,17.1464052 22.6732026,17.3367796 22.1020796,17.3367796 C21.3405823,17.3367796 20.579085,17.019489 19.9445039,16.448366 L20.579085,15.6234106 C21.0867499,16.0676173 21.5944147,16.3214498 22.0386215,16.3214498 C22.2289958,16.3214498 22.4193702,16.2579917 22.5462864,16.1945336 C22.6732026,16.1310755 22.7366607,16.0041592 22.7366607,15.8137849 C22.7366607,15.6868687 22.6732026,15.5599525 22.5462864,15.4330362 C22.4193702,15.3695781 22.1655377,15.2426619 21.7847891,15.1792038 C21.2136661,15.0522876 20.7694593,14.8619133 20.5156269,14.6715389 C20.2617944,14.4811646 20.1348782,14.1004159 20.1348782,13.6562092 C20.1348782,13.2120024 20.3252525,12.8312537 20.6425431,12.5774213 C20.9598336,12.3235888 21.4040404,12.1966726 21.9117053,12.1966726 C22.2289958,12.1966726 22.5462864,12.2601307 22.9270351,12.3870469 C23.2443256,12.5139632 23.5616162,12.6408794 23.8154486,12.8947118 L23.2443256,13.7196673 C22.8001188,13.4023767 22.3559121,13.2120024 21.9117053,13.2120024 C21.721331,13.2120024 21.5944147,13.2754605 21.4674985,13.3389186 C21.3405823,13.4023767 21.2771242,13.5292929 21.2771242,13.6562092 C21.2771242,13.7831254 21.3405823,13.9100416 21.4674985,13.9734997 C21.5944147,14.0369578 21.9117053,14.163874 22.3559121,14.2907903 C22.8001188,14.4177065 23.1808675,14.6080808 23.4346999,14.7984551 C23.6885324,15.0522876 23.8154486,15.3695781 23.8154486,15.8137849 C23.8154486,16.2579917 23.8154486,16.6387403 23.4346999,16.8925728 Z" id="Shape" fill="#FFFFFF"></path>
            </g>
        </g>
    </g>
</svg>