<svg width="24" height="24" viewBox="0 0 24 24" fill="none" xmlns="http://www.w3.org/2000/svg">
<path d="M5 19.551V21C5 21.2652 4.89464 21.5196 4.70711 21.7071C4.51957 21.8946 4.26522 22 4 22C3.73478 22 3.48043 21.8946 3.29289 21.7071C3.10536 21.5196 3 21.2652 3 21V17C3 16.7348 3.10536 16.4804 3.29289 16.2929C3.48043 16.1054 3.73478 16 4 16H8C8.26522 16 8.51957 16.1054 8.70711 16.2929C8.89464 16.4804 9 16.7348 9 17C9 17.2652 8.89464 17.5196 8.70711 17.7071C8.51957 17.8946 8.26522 18 8 18H6.262C7.792 19.236 9.903 20 12 20C14.1217 20 16.1566 19.1571 17.6569 17.6569C19.1571 16.1566 20 14.1217 20 12C20 11.7348 20.1054 11.4804 20.2929 11.2929C20.4804 11.1054 20.7348 11 21 11C21.2652 11 21.5196 11.1054 21.7071 11.2929C21.8946 11.4804 22 11.7348 22 12C22 17.523 17.523 22 12 22C9.451 22 6.893 21.084 5 19.551V19.551ZM17.738 6C16.208 4.764 14.097 4 12 4C9.87827 4 7.84344 4.84285 6.34315 6.34315C4.84285 7.84344 4 9.87827 4 12C4 12.2652 3.89464 12.5196 3.70711 12.7071C3.51957 12.8946 3.26522 13 3 13C2.73478 13 2.48043 12.8946 2.29289 12.7071C2.10536 12.5196 2 12.2652 2 12C2 6.477 6.477 2 12 2C14.549 2 17.107 2.916 19 4.449V3C19 2.73478 19.1054 2.48043 19.2929 2.29289C19.4804 2.10536 19.7348 2 20 2C20.2652 2 20.5196 2.10536 20.7071 2.29289C20.8946 2.48043 21 2.73478 21 3V7C21 7.26522 20.8946 7.51957 20.7071 7.70711C20.5196 7.89464 20.2652 8 20 8H16C15.7348 8 15.4804 7.89464 15.2929 7.70711C15.1054 7.51957 15 7.26522 15 7C15 6.73478 15.1054 6.48043 15.2929 6.29289C15.4804 6.10536 15.7348 6 16 6H17.738Z" fill="#191970"/>
</svg>
