<svg width="26" height="26" viewBox="0 0 26 26" fill="none" xmlns="http://www.w3.org/2000/svg">
<g id="Icons/editer Copy">
<circle id="Oval Copy 4" cx="13" cy="13" r="12.5" stroke="#979797"/>
<g id="Icons/Ouvert">
<path id="Combined Shape" fill-rule="evenodd" clip-rule="evenodd" d="M13.4688 6.47043C13.4688 6.72931 13.2589 6.93918 13 6.93918C12.7411 6.93918 12.5313 6.72931 12.5313 6.47043V5.46628C12.5558 4.84481 13.444 4.84434 13.4688 5.46628V6.47043ZM20.9596 12.8071C17.8666 6.41856 8.10762 6.45121 5.04041 12.8071C4.98653 12.9284 4.98653 13.0667 5.04041 13.1879C8.13259 19.5752 17.889 19.5478 20.9596 13.1879C21.0135 13.0667 21.0135 12.9284 20.9596 12.8071ZM5.99409 12.9975C6.51734 12.0308 7.54178 10.7549 9.08868 9.90646C7.66578 11.6239 7.66603 14.3714 9.08868 16.0885C7.53881 15.2385 6.5155 13.9609 5.99409 12.9975ZM8.95002 12.9975C8.95002 15.2307 10.7668 17.0475 13 17.0475C15.2332 17.0475 17.05 15.2307 17.05 12.9975C16.8284 7.62621 9.17249 7.62465 8.95002 12.9975ZM16.9114 16.0886C18.3343 14.3711 18.334 11.6236 16.9114 9.90649C18.4612 10.7565 19.4845 12.0342 20.0059 12.9975C19.4827 13.9642 18.4583 15.2402 16.9114 16.0886ZM13 19.0558C12.7411 19.0558 12.5313 19.2657 12.5313 19.5246V20.5287C12.556 21.1507 13.4442 21.1502 13.4688 20.5287V19.5246C13.4688 19.2657 13.2589 19.0558 13 19.0558ZM7.80856 7.80608C7.62546 7.98915 7.32868 7.98912 7.14565 7.80608L6.43572 7.09612C6.25268 6.91305 6.25268 6.61627 6.43572 6.43321C6.61878 6.25015 6.91559 6.25018 7.09862 6.43321L7.80856 7.14318C7.99159 7.32624 7.99159 7.62302 7.80856 7.80608ZM7.14565 18.189L6.43572 18.8989C6.25265 19.082 6.25265 19.3787 6.43572 19.5618C6.61872 19.7448 6.91556 19.7449 7.09862 19.5618L7.80856 18.8519C7.99162 18.6688 7.99162 18.372 7.80856 18.189C7.62553 18.0059 7.32871 18.0059 7.14565 18.189ZM19.5643 7.09615L18.8544 7.80608C18.6716 7.98883 18.3748 7.9894 18.1915 7.80605C18.0084 7.62299 18.0084 7.32621 18.1915 7.14315L18.9014 6.43324C19.0845 6.25021 19.3813 6.25018 19.5643 6.43324C19.7474 6.61631 19.7474 6.91309 19.5643 7.09615ZM18.8544 18.189C18.6713 18.0059 18.3745 18.0059 18.1915 18.189C18.0084 18.372 18.0084 18.6688 18.1915 18.8519L18.9014 19.5618C19.0844 19.7448 19.3813 19.7449 19.5643 19.5618C19.7474 19.3787 19.7474 19.082 19.5643 18.8989L18.8544 18.189ZM13 11.0225C11.911 11.0225 11.025 11.9085 11.025 12.9975C11.1335 15.6176 14.8669 15.6168 14.975 12.9975C14.975 11.9085 14.089 11.0225 13 11.0225ZM13 14.035C12.4279 14.035 11.9625 13.5696 11.9625 12.9975C12.0195 11.6211 13.9807 11.6215 14.0375 12.9975C14.0375 13.5696 13.5721 14.035 13 14.035Z" fill="#979797"/>
</g>
</g>
</svg>
