<?xml version="1.0" encoding="UTF-8"?>
<svg width="34px" height="34px" viewBox="0 0 34 34" version="1.1" xmlns="http://www.w3.org/2000/svg" xmlns:xlink="http://www.w3.org/1999/xlink">
    <title>92810D57-2E1D-4066-BEE8-715711D46EA1</title>
    <g id="Welcome" stroke="none" stroke-width="1" fill="none" fill-rule="evenodd">
        <g id="Assets" transform="translate(-1552, -828)" fill="#1A7EF5">
            <path d="M1580,828 C1583.31371,828 1586,830.686292 1586,834 L1586,856 C1586,859.313708 1583.31371,862 1580,862 L1558,862 C1554.68629,862 1552,859.313708 1552,856 L1552,834 C1552,830.686292 1554.68629,828 1558,828 L1580,828 Z M1566,839.236068 C1564.89543,839.236068 1564,840.131498 1564,841.236068 L1564,849.763932 C1564,850.074422 1564.07229,850.380648 1564.21115,850.658359 C1564.70512,851.646316 1565.90647,852.046765 1566.89443,851.552786 L1575.42229,847.288854 C1575.80935,847.095327 1576.12319,846.781482 1576.31672,846.394427 C1576.8107,845.40647 1576.41025,844.205124 1575.42229,843.711146 L1566.89443,839.447214 C1566.61672,839.308358 1566.31049,839.236068 1566,839.236068 Z" id="Combined-Shape-Copy"></path>
        </g>
    </g>
</svg>