<?xml version="1.0" encoding="UTF-8"?>
<svg width="34px" height="34px" viewBox="0 0 34 34" version="1.1" xmlns="http://www.w3.org/2000/svg" xmlns:xlink="http://www.w3.org/1999/xlink">
    <title>BFB4B20C-6CB9-4214-A57A-4524901552DE</title>
    <g id="Welcome" stroke="none" stroke-width="1" fill="none" fill-rule="evenodd">
        <g id="Assets" transform="translate(-1596, -828)" fill="#FFFFFF">
            <path d="M1624,828 C1627.31371,828 1630,830.686292 1630,834 L1630,856 C1630,859.313708 1627.31371,862 1624,862 L1602,862 C1598.68629,862 1596,859.313708 1596,856 L1596,834 C1596,830.686292 1598.68629,828 1602,828 L1624,828 Z M1610,839.236068 C1608.89543,839.236068 1608,840.131498 1608,841.236068 L1608,849.763932 C1608,850.074422 1608.07229,850.380648 1608.21115,850.658359 C1608.70512,851.646316 1609.90647,852.046765 1610.89443,851.552786 L1619.42229,847.288854 C1619.80935,847.095327 1620.12319,846.781482 1620.31672,846.394427 C1620.8107,845.40647 1620.41025,844.205124 1619.42229,843.711146 L1610.89443,839.447214 C1610.61672,839.308358 1610.31049,839.236068 1610,839.236068 Z" id="Combined-Shape-Copy-2"></path>
        </g>
    </g>
</svg>