<?xml version="1.0" encoding="UTF-8"?>
<svg width="34px" height="34px" viewBox="0 0 34 34" version="1.1" xmlns="http://www.w3.org/2000/svg" xmlns:xlink="http://www.w3.org/1999/xlink">
    <title>96C7AA13-77EF-463C-897C-4A3C24B30BF7</title>
    <g id="Welcome" stroke="none" stroke-width="1" fill="none" fill-rule="evenodd">
        <g id="Assets" transform="translate(-1640, -828)" fill="#D0021B">
            <path d="M1668,828 C1671.31371,828 1674,830.686292 1674,834 L1674,856 C1674,859.313708 1671.31371,862 1668,862 L1646,862 C1642.68629,862 1640,859.313708 1640,856 L1640,834 C1640,830.686292 1642.68629,828 1646,828 L1668,828 Z M1654,839.236068 C1652.89543,839.236068 1652,840.131498 1652,841.236068 L1652,849.763932 C1652,850.074422 1652.07229,850.380648 1652.21115,850.658359 C1652.70512,851.646316 1653.90647,852.046765 1654.89443,851.552786 L1663.42229,847.288854 C1663.80935,847.095327 1664.12319,846.781482 1664.31672,846.394427 C1664.8107,845.40647 1664.41025,844.205124 1663.42229,843.711146 L1654.89443,839.447214 C1654.61672,839.308358 1654.31049,839.236068 1654,839.236068 Z" id="Combined-Shape-Copy-3"></path>
        </g>
    </g>
</svg>