<?xml version="1.0" encoding="UTF-8"?>
<svg width="34px" height="34px" viewBox="0 0 34 34" version="1.1" xmlns="http://www.w3.org/2000/svg" xmlns:xlink="http://www.w3.org/1999/xlink">
    <title>92EF3B9A-D6AF-43ED-8C79-51C6FBDF1BEB</title>
    <g id="Welcome" stroke="none" stroke-width="1" fill="none" fill-rule="evenodd">
        <g id="Assets" transform="translate(-1684, -828)" fill="#FFFFFF" stroke="#D0021B">
            <path d="M1712,828.5 C1713.51878,828.5 1714.89378,829.115608 1715.88909,830.110913 C1716.88439,831.106217 1717.5,832.481217 1717.5,834 L1717.5,856 C1717.5,857.518783 1716.88439,858.893783 1715.88909,859.889087 C1714.89378,860.884392 1713.51878,861.5 1712,861.5 L1690,861.5 C1688.48122,861.5 1687.10622,860.884392 1686.11091,859.889087 C1685.11561,858.893783 1684.5,857.518783 1684.5,856 L1684.5,834 C1684.5,832.481217 1685.11561,831.106217 1686.11091,830.110913 C1687.10622,829.115608 1688.48122,828.5 1690,828.5 L1712,828.5 Z M1698,838.736068 C1697.30964,838.736068 1696.68464,839.01589 1696.23223,839.468301 C1695.77982,839.920712 1695.5,840.545712 1695.5,841.236068 L1695.5,849.763932 C1695.5,850.152045 1695.59036,850.534827 1695.76393,850.881966 C1696.07267,851.499439 1696.60246,851.933316 1697.20943,852.13564 C1697.8164,852.337965 1698.50056,852.308737 1699.11803,852 L1707.6459,847.736068 C1708.12972,847.494159 1708.52202,847.101852 1708.76393,846.618034 C1709.07267,846.000561 1709.1019,845.316404 1708.89957,844.709431 C1708.69725,844.102458 1708.26337,843.572669 1707.6459,843.263932 L1699.11803,839 C1698.7709,838.826431 1698.38811,838.736068 1698,838.736068 Z" id="Combined-Shape-Copy-4"></path>
        </g>
    </g>
</svg>