<?xml version="1.0" encoding="UTF-8"?>
<svg width="26px" height="25px" viewBox="0 0 26 25" version="1.1" xmlns="http://www.w3.org/2000/svg" xmlns:xlink="http://www.w3.org/1999/xlink">
    <title>4E05371C-1498-475F-B1E9-C8EFA2431D40</title>
    <defs>
        <polygon id="path-1" points="0.000195312498 0.00496093745 10.4134765 0.00496093745 10.4134765 21.6796873 0.000195312498 21.6796873"></polygon>
    </defs>
    <g id="Welcome" stroke="none" stroke-width="1" fill="none" fill-rule="evenodd">
        <g id="Profil-/-Messagerie-et-notification" transform="translate(-479.000000, -298.000000)">
            <g id="Group-3" transform="translate(114.500000, 167.000000)">
                <g id="09-copy" transform="translate(350.000000, 50.000000)">
                    <g id="Receive-money-from-Alex-Hartman-Copy-8" transform="translate(0.000000, 48.000000)">
                        <g id="Avatars" transform="translate(8.500000, 26.500000)">
                            <g id="Group-10" transform="translate(6.109375, 7.140000)">
                                <path d="M23.4568552,21.5874412 C22.7384959,21.5874412 22.1541209,21.0032615 22.1541209,20.2849021 L22.1541209,9.83080068 L19.7699412,17.0540428 C19.6045115,17.5550194 19.1390818,17.8917381 18.6113475,17.8917381 C18.0820506,17.8917381 17.616035,17.5538475 17.4517772,17.0505272 L15.0953319,9.840371 L15.0953319,20.2849021 C15.0953319,21.0032615 14.5111522,21.5874412 13.7929881,21.5874412 L13.0392772,21.5874412 C12.3209178,21.5874412 11.7365429,21.0032615 11.7365429,20.2849021 L11.7365429,1.78080076 C11.7365429,1.0624414 12.3209178,0.478066401 13.0392772,0.478066401 L13.9963085,0.478066401 C14.5502147,0.478066401 15.0447459,0.82982421 15.2263866,1.35306639 L18.6242381,11.1308007 L21.9949412,1.35599608 C22.1758006,0.830996085 22.6709177,0.478066401 23.2261912,0.478066401 L24.2103709,0.478066401 C24.9287302,0.478066401 25.5129099,1.0624414 25.5129099,1.78080076 L25.5129099,20.2849021 C25.5129099,21.0032615 24.9287302,21.5874412 24.2103709,21.5874412 L23.4568552,21.5874412 Z" id="Fill-1" fill="#191970"></path>
                                <path d="M24.210449,0.282753903 L23.2262693,0.282753903 C22.5874021,0.282753903 22.0184568,0.688613274 21.8102537,1.29251952 L18.6237303,10.5337304 L15.411035,1.28900389 C15.2020506,0.687050774 14.6333006,0.282753903 13.9961913,0.282753903 L13.0393553,0.282753903 C12.2131835,0.282753903 11.5413085,0.954628897 11.5413085,1.78080076 L11.5413085,20.2849021 C11.5413085,21.1108787 12.2131835,21.7827539 13.0393553,21.7827539 L13.792871,21.7827539 C14.6188475,21.7827539 15.2907225,21.1108787 15.2907225,20.2849021 L15.2907225,11.0669335 L17.2659178,17.1112694 C17.4567381,17.6948631 17.9973631,18.0870506 18.6114256,18.0870506 C19.223535,18.0870506 19.763574,17.6964256 19.9555662,17.1155662 L21.9588865,11.0454491 L21.9588865,20.2849021 C21.9588865,21.1108787 22.6307615,21.7827539 23.456738,21.7827539 L24.210449,21.7827539 C25.0364255,21.7827539 25.7083005,21.1108787 25.7083005,20.2849021 L25.7083005,1.78080076 C25.7083005,0.954628897 25.0364255,0.282753903 24.210449,0.282753903 M24.210449,0.6733789 C24.8219724,0.6733789 25.3176755,1.16927733 25.3176755,1.78080076 L25.3176755,20.2849021 C25.3176755,20.8964256 24.8219724,21.3921287 24.210449,21.3921287 L23.456738,21.3921287 C22.8452146,21.3921287 22.3495115,20.8964256 22.3495115,20.2849021 L22.3495115,8.79193351 L22.2913084,8.79193351 L19.5844725,16.9931053 C19.4458006,17.4128319 19.0536131,17.6964256 18.6114256,17.6964256 C18.1680662,17.6964256 17.7750975,17.4114647 17.6374022,16.9899803 L14.9583006,8.79193351 L14.9000975,8.79193351 L14.9000975,20.2849021 C14.9000975,20.8964256 14.4043944,21.3921287 13.792871,21.3921287 L13.0393553,21.3921287 C12.4276366,21.3921287 11.9319335,20.8964256 11.9319335,20.2849021 L11.9319335,1.78080076 C11.9319335,1.16927733 12.4276366,0.6733789 13.0393553,0.6733789 L13.9961913,0.6733789 C14.4674803,0.6733789 14.8874022,0.971816397 15.0420897,1.4173242 L18.5958006,11.6438866 L18.6540037,11.6438866 L22.1795896,1.41966795 C22.3334959,0.973183584 22.7538084,0.6733789 23.2262693,0.6733789 L24.210449,0.6733789" id="Fill-3"></path>
                                <path d="M4.93173823,21.6748045 C4.21337886,21.6748045 3.62900387,21.0906248 3.62900387,20.3722654 L3.62900387,3.57480465 L1.4979492,3.57480465 C0.779589836,3.57480465 0.195214842,2.99062497 0.195214842,2.2722656 L0.195214842,1.69335936 C0.195214842,0.975195303 0.779589836,0.390624996 1.4979492,0.390624996 L8.91533194,0.390624996 C9.63369131,0.390624996 10.217871,0.975195303 10.217871,1.69335936 L10.217871,2.2722656 C10.217871,2.99062497 9.63369131,3.57480465 8.91533194,3.57480465 L6.9877929,3.57480465 L6.9877929,20.3722654 C6.9877929,21.0906248 6.40361322,21.6748045 5.68525385,21.6748045 L4.93173823,21.6748045 Z" id="Fill-5" fill="#D0021B"></path>
                                <g id="Group-9" transform="translate(0.000000, 0.190430)">
                                    <mask id="mask-2" fill="white">
                                        <use xlink:href="#path-1"></use>
                                    </mask>
                                    <g id="Clip-8"></g>
                                    <path d="M8.9154296,0.00496093745 L1.49785155,0.00496093745 C0.671874993,0.00496093745 0.000195312498,0.676835931 0.000195312498,1.5030078 L0.000195312498,2.08191404 C0.000195312498,2.90769528 0.671874993,3.57976559 1.49785155,3.57976559 L3.43378903,3.57976559 L3.43378903,20.1819139 C3.43378903,21.0076951 4.10585933,21.6797654 4.93183589,21.6797654 L5.68535151,21.6797654 C6.51132806,21.6797654 7.18320305,21.0076951 7.18320305,20.1819139 L7.18320305,3.57976559 L8.9154296,3.57976559 C9.74140615,3.57976559 10.4134765,2.90769528 10.4134765,2.08191404 L10.4134765,1.5030078 C10.4134765,0.676835931 9.74140615,0.00496093745 8.9154296,0.00496093745 M8.9154296,0.395585934 C9.52695303,0.395585934 10.0228515,0.891484366 10.0228515,1.5030078 L10.0228515,2.08191404 C10.0228515,2.69343747 9.52695303,3.18914059 8.9154296,3.18914059 L6.79257806,3.18914059 L6.79257806,20.1819139 C6.79257806,20.7934373 6.29687494,21.2891404 5.68535151,21.2891404 L4.93183589,21.2891404 C4.32031246,21.2891404 3.82441402,20.7934373 3.82441402,20.1819139 L3.82441402,3.18914059 L1.49785155,3.18914059 C0.886523429,3.18914059 0.390820309,2.69343747 0.390820309,2.08191404 L0.390820309,1.5030078 C0.390820309,0.891484366 0.886523429,0.395585934 1.49785155,0.395585934 L8.9154296,0.395585934" id="Fill-7" fill="#D0021B" mask="url(#mask-2)"></path>
                                </g>
                            </g>
                        </g>
                    </g>
                </g>
            </g>
        </g>
    </g>
</svg>