<?xml version="1.0" encoding="UTF-8"?>
<svg width="22px" height="22px" viewBox="0 0 22 22" version="1.1" xmlns="http://www.w3.org/2000/svg" xmlns:xlink="http://www.w3.org/1999/xlink">
    <title>C128C8B0-73B5-4419-A5B4-9624A5F7D808</title>
    <g id="Welcome" stroke="none" stroke-width="1" fill="none" fill-rule="evenodd">
        <g id="Assets" transform="translate(-1475.000000, -1111.000000)" fill="#2EA7F6" fill-rule="nonzero">
            <g id="twitter" transform="translate(1475.000000, 1111.000000)">
                <path d="M16.4825397,0 L5.5,0 C2.47936508,0 0,2.47936508 0,5.51746032 L0,16.5 C0,19.5206349 2.47936508,22 5.5,22 L16.4825397,22 C19.5206349,22 22,19.5206349 22,16.4825397 L22,5.51746032 C22,2.47936508 19.5206349,0 16.4825397,0 Z M14.1428571,17.8619048 C13.6539683,17.8619048 10.9650794,17.7920635 10.2666667,17.7920635 C9.58571429,17.7920635 5.98888889,16.6920635 5.98888889,12.7809524 C5.98888889,12.0825397 5.98888889,11.384127 5.98888889,10.6857143 C5.98888889,10.0396825 5.97142857,9.39365079 5.97142857,8.74761905 C5.97142857,8.55555556 5.97142857,8.38095238 5.97142857,8.18888889 C5.97142857,7.21111111 5.88412698,6.09365079 6.1984127,5.15079365 C6.44285714,4.43492063 7.01904762,4.17301587 7.73492063,4.17301587 C9.46349206,4.17301587 9.56825397,5.93650794 9.58571429,7.68253968 L12.047619,7.68253968 L14.5793651,7.68253968 C15.3650794,7.68253968 15.9587302,8.48571429 15.9587302,9.69047619 C15.9587302,10.8952381 14.684127,11.1746032 14.0206349,11.1746032 L9.53333333,11.1746032 C9.51587302,11.8730159 9.48095238,12.5190476 9.48095238,12.8857143 C9.48095238,13.6539683 9.77777778,14.4920635 11.6809524,14.4920635 L14.352381,14.4920635 C15.015873,14.4920635 16.0111111,14.9634921 16.0111111,16.3603175 C16.0285714,17.7571429 14.631746,17.8619048 14.1428571,17.8619048 Z" id="Shape"></path>
            </g>
        </g>
    </g>
</svg>