<?xml version="1.0" encoding="UTF-8"?>
<svg width="23px" height="23px" viewBox="0 0 23 23" version="1.1" xmlns="http://www.w3.org/2000/svg" xmlns:xlink="http://www.w3.org/1999/xlink">
    <title>0D73CB91-5E76-494F-867F-6BF7A292E5DC</title>
    <g id="Welcome" stroke="none" stroke-width="1" fill="none" fill-rule="evenodd">
        <g id="Boutique-/-Étagère-/-Étagère-en-activité" transform="translate(-142.000000, -128.000000)" fill="#FFFFFF" fill-rule="nonzero">
            <g id="Group-3" transform="translate(65.000000, 121.000000)">
                <g id="Group-18-Copy" transform="translate(75.000000, 5.000000)">
                    <g id="Icons/User3" transform="translate(2.500000, 2.500000)">
                        <path d="M11,1.83333333 C5.95833333,1.83333333 1.83333333,5.95833333 1.83333333,11 C1.83333333,16.0416667 5.95833333,20.1666667 11,20.1666667 C16.0416667,20.1666667 20.1666667,16.0416667 20.1666667,11 C20.1666667,5.95833333 16.0416667,1.83333333 11,1.83333333 Z M11,4.58333333 C12.5583333,4.58333333 13.75,5.775 13.75,7.33333333 C13.75,8.89166667 12.5583333,10.0833333 11,10.0833333 C9.44166667,10.0833333 8.25,8.89166667 8.25,7.33333333 C8.25,5.775 9.44166667,4.58333333 11,4.58333333 Z M11,17.6 C8.70833333,17.6 6.69166667,16.4083693 5.5,14.6666667 C5.5,12.8333333 9.16666667,11.825 11,11.825 C12.8333333,11.825 16.5,12.8333333 16.5,14.6666667 C15.3083333,16.4083333 13.2916667,17.6 11,17.6 Z" id="Shape"></path>
                    </g>
                </g>
            </g>
        </g>
    </g>
</svg>