<?xml version="1.0" encoding="UTF-8"?>
<svg width="23px" height="23px" viewBox="0 0 23 23" version="1.1" xmlns="http://www.w3.org/2000/svg" xmlns:xlink="http://www.w3.org/1999/xlink">
    <title>ED7D991A-BEE2-42A1-B582-0CD5012575B1</title>
    <g id="Welcome" stroke="none" stroke-width="1" fill="none" fill-rule="evenodd">
        <g id="Assets" transform="translate(-419.000000, -63.000000)">
            <g id="4.-Icons-/-User-#2-Copy" transform="translate(419.500000, 63.500000)">
                <circle id="Oval" fill="#191970" cx="11" cy="11" r="11"></circle>
                <path d="M11,0.916666667 C13.2825,0.916666667 15.125,2.75916667 15.125,5.04166667 C15.125,7.32416667 13.2825,9.16666667 11,9.16666667 C8.7175,9.16666667 6.875,7.32416667 6.875,5.04166667 C6.875,2.75916667 8.7175,0.916666667 11,0.916666667 L11,0.916666667 Z M11,20.4416667 C7.5625,20.4416667 4.52375,18.6816667 2.75,16.0141667 C2.79125,13.2779167 8.25,11.7791667 11,11.7791667 C13.73625,11.7791667 19.20875,13.2779167 19.25,16.0141667 C17.47625,18.6816667 14.4375,20.4416667 11,20.4416667 L11,20.4416667 Z" id="🔹-Icon-Color" fill="#FFFFFF"></path>
            </g>
        </g>
    </g>
</svg>