<?xml version="1.0" encoding="UTF-8"?>
<svg width="14px" height="14px" viewBox="0 0 14 14" version="1.1" xmlns="http://www.w3.org/2000/svg" xmlns:xlink="http://www.w3.org/1999/xlink">
    <title>4CD1D7CC-B6F0-4427-B83E-9CA7FB91E25D</title>
    <g id="Welcome" stroke="none" stroke-width="1" fill="none" fill-rule="evenodd">
        <g id="Home-page-/-Profil_Connecté" transform="translate(-1122.000000, -144.000000)" fill="#191970" fill-rule="nonzero">
            <g id="Icons/User3" transform="translate(1122.000000, 144.000000)">
                <path d="M7,1.16666667 C3.79166667,1.16666667 1.16666667,3.79166667 1.16666667,7 C1.16666667,10.2083333 3.79166667,12.8333333 7,12.8333333 C10.2083333,12.8333333 12.8333333,10.2083333 12.8333333,7 C12.8333333,3.79166667 10.2083333,1.16666667 7,1.16666667 Z M7,2.91666667 C7.99166667,2.91666667 8.75,3.675 8.75,4.66666667 C8.75,5.65833333 7.99166667,6.41666667 7,6.41666667 C6.00833333,6.41666667 5.25,5.65833333 5.25,4.66666667 C5.25,3.675 6.00833333,2.91666667 7,2.91666667 Z M7,11.2 C5.54166667,11.2 4.25833333,10.4416895 3.5,9.33333333 C3.5,8.16666667 5.83333333,7.525 7,7.525 C8.16666667,7.525 10.5,8.16666667 10.5,9.33333333 C9.74166667,10.4416667 8.45833333,11.2 7,11.2 Z" id="Shape"></path>
            </g>
        </g>
    </g>
</svg>