<?xml version="1.0" encoding="UTF-8"?>
<svg width="57px" height="37px" viewBox="0 0 57 37" version="1.1" xmlns="http://www.w3.org/2000/svg" xmlns:xlink="http://www.w3.org/1999/xlink">
    <title>086F9F1E-4CA8-4B06-AF79-BD0787408121</title>
    <g id="Welcome" stroke="none" stroke-width="1" fill="none" fill-rule="evenodd">
        <g id="Profil-/-Mode-de-paiement-/-Comptes_Enregistrés" transform="translate(-505.000000, -335.000000)">
            <g id="Group-12" transform="translate(114.500000, 140.000000)">
                <g id="Group-7" transform="translate(370.000000, 129.000000)">
                    <g id="Icons-/-Logo-/-Sepa-Copy-6" transform="translate(21.000000, 66.500000)">
                        <path d="M50,0.5 C51.5187831,0.5 52.8937831,1.11560847 53.8890873,2.1109127 C54.8843915,3.10621694 55.5,4.48121694 55.5,6 L55.5,6 L55.5,30 C55.5,31.5187831 54.8843915,32.8937831 53.8890873,33.8890873 C52.8937831,34.8843915 51.5187831,35.5 50,35.5 L50,35.5 L6,35.5 C4.48121694,35.5 3.10621694,34.8843915 2.1109127,33.8890873 C1.11560847,32.8937831 0.5,31.5187831 0.5,30 L0.5,30 L0.5,6 C0.5,4.48121694 1.11560847,3.10621694 2.1109127,2.1109127 C3.10621694,1.11560847 4.48121694,0.5 6,0.5 L6,0.5 Z" id="◼️-Background" stroke="#D8D8D8" fill="#FFFFFF"></path>
                        <g id="Logo" transform="translate(6.588235, 11.454545)" fill-rule="nonzero">
                            <path d="M17.0335529,12.7726993 L13.8273882,12.7726993 L15.8312,0.224223776 L19.0376941,0.224223776 L17.0335529,12.7726993 Z M11.1301647,0.224223776 L8.07355294,8.85516084 L7.71185882,6.99658741 L7.71218824,6.99725874 L6.63336471,1.35406993 C6.63336471,1.35406993 6.50291765,0.224223776 5.11247059,0.224223776 L0.0592941176,0.224223776 L-2.34061136e-14,0.436699301 C-2.34061136e-14,0.436699301 1.54527059,0.764307692 3.35374118,1.87099301 L6.13924706,12.773035 L9.47981176,12.773035 L14.5807529,0.224223776 L11.1301647,0.224223776 Z M36.3482824,12.7726993 L39.2922353,12.7726993 L36.7254588,0.223888112 L34.1481412,0.223888112 C32.9579765,0.223888112 32.6680941,1.15904895 32.6680941,1.15904895 L27.8863529,12.7726993 L31.2285647,12.7726993 L31.8969412,10.9087552 L35.9727529,10.9087552 L36.3482824,12.7726993 Z M32.8202824,8.33387413 L34.5048941,3.63793007 L35.4526118,8.33387413 L32.8202824,8.33387413 Z M28.1370353,3.24184615 L28.5945882,0.547132867 C28.5945882,0.547132867 27.1827294,8.72029721e-14 25.7109176,8.72029721e-14 C24.1198588,8.72029721e-14 20.3415059,0.708587413 20.3415059,4.15418182 C20.3415059,7.39602797 24.7760471,7.43630769 24.7760471,9.13913287 C24.7760471,10.841958 20.7984,10.5368392 19.4856941,9.46304895 L19.0090353,12.2806154 C19.0090353,12.2806154 20.4406588,12.9892028 22.6279529,12.9892028 C24.8159059,12.9892028 28.1166118,11.8348531 28.1166118,8.69303497 C28.1166118,5.43037762 23.6422118,5.1266014 23.6422118,3.70808392 C23.6425412,2.28923077 26.7650353,2.4714965 28.1370353,3.24184615 L28.1370353,3.24184615 Z" id="Shape" fill="#2566AF"></path>
                            <path d="M7.71218824,6.99692308 L6.63336471,1.35373427 C6.63336471,1.35373427 6.50291765,0.223888112 5.11247059,0.223888112 L0.0592941176,0.223888112 L2.92576421e-14,0.436363636 C2.92576421e-14,0.436363636 2.42875294,0.949258741 4.75835294,2.87093706 C6.98583529,4.70769231 7.71218824,6.99692308 7.71218824,6.99692308 Z" id="Path" fill="#E6A540"></path>
                        </g>
                    </g>
                </g>
            </g>
        </g>
    </g>
</svg>