<?xml version="1.0" encoding="UTF-8"?>
<svg width="13px" height="14px" viewBox="0 0 13 14" version="1.1" xmlns="http://www.w3.org/2000/svg" xmlns:xlink="http://www.w3.org/1999/xlink">
    <title>B2473A30-9117-4C80-BA3D-598851514693</title>
    <g id="Welcome" stroke="none" stroke-width="1" fill="none" fill-rule="evenodd">
        <g id="Pop_Up-/-Profil_Pop_Inscription" transform="translate(-510.000000, -346.000000)" fill="#D0021B" fill-rule="nonzero">
            <g id="Icons/Close" transform="translate(510.000000, 346.500000)">
                <g id="information-button" transform="translate(1.000000, 1.000000)">
                    <path d="M5.5,0 C2.46238867,0 0,2.46247461 0,5.5 C0,8.53769727 2.46238867,11 5.5,11 C8.53761133,11 11,8.53769727 11,5.5 C11,2.46247461 8.53761133,0 5.5,0 Z M5.5,2.75 C5.87971484,2.75 6.1875,3.05782812 6.1875,3.4375 C6.1875,3.81734375 5.87971484,4.125 5.5,4.125 C5.12028516,4.125 4.8125,3.81734375 4.8125,3.4375 C4.8125,3.05782812 5.12028516,2.75 5.5,2.75 Z M6.53125,8.25 L4.46875,8.25 C4.27891406,8.25 4.125,8.09625781 4.125,7.90625 C4.125,7.71641406 4.27891406,7.5625 4.46875,7.5625 L4.8125,7.5625 L4.8125,5.5 L4.46875,5.5 C4.27891406,5.5 4.125,5.34625781 4.125,5.15625 C4.125,4.96641406 4.27891406,4.8125 4.46875,4.8125 L5.84375,4.8125 C6.03358594,4.8125 6.1875,4.96641406 6.1875,5.15625 L6.1875,7.5625 L6.53125,7.5625 C6.72108594,7.5625 6.875,7.71641406 6.875,7.90625 C6.875,8.09625781 6.72108594,8.25 6.53125,8.25 Z" id="Shape"></path>
                </g>
            </g>
        </g>
    </g>
</svg>