<?xml version="1.0" encoding="UTF-8"?>
<svg width="32px" height="32px" viewBox="0 0 32 32" version="1.1" xmlns="http://www.w3.org/2000/svg" xmlns:xlink="http://www.w3.org/1999/xlink">
    <title>D4F204A0-B3D4-49A5-8942-9531ED584A6F</title>
    <g id="Welcome" stroke="none" stroke-width="1" fill="none" fill-rule="evenodd">
        <g id="Home-page-/-Mes-favoris-/-partage_de_la_liste" transform="translate(-534.000000, -490.000000)" fill="#34C759" fill-rule="nonzero">
            <g id="Icons/Whatsapp" transform="translate(534.000000, 490.000000)">
                <path d="M23.9555908,0 C28.371134,0 31.9746233,3.60634921 32,8.02539683 L32,8.02539683 L32,23.9746032 C32,28.3936508 28.3965107,32 23.9809675,32 L23.9809675,32 L8.01903251,32 C3.60348929,32 0,28.3936508 0,24 L0,24 L0,8.02539683 C0,3.60634921 3.60348929,0 8.01903251,0 L8.01903251,0 Z M16.1649485,6.01904762 C10.7597145,6.01904762 6.36954798,10.3619048 6.36954798,15.7460317 C6.36954798,17.5746032 6.87708168,19.3015873 7.76526566,20.7746032 L7.76526566,20.7746032 L5.9888977,25.9809524 L11.4195083,24.2539683 C12.8406027,25.0412698 14.4393339,25.4730159 16.1649485,25.4730159 C21.5701824,25.4730159 25.9603489,21.1301587 25.9603489,15.7460317 C25.9603489,10.3619048 21.5701824,6.01904762 16.1649485,6.01904762 Z M16.1208392,7.70909091 C20.526993,7.70909091 24.1208392,11.2867307 24.1454545,15.7090909 C24.1454545,20.1314512 20.5516084,23.7090909 16.1454545,23.7090909 C14.5208392,23.7090909 12.9946853,23.2370412 11.7393007,22.3923207 L11.7393007,22.3923207 L8.66237762,23.3861095 L9.67160839,20.4047431 C8.71160839,19.0879729 8.14545455,17.4482213 8.14545455,15.7090909 C8.14545455,11.2867307 11.7146853,7.70909091 16.1208392,7.70909091 Z M13.3283893,11.4737968 C13.181676,11.4737968 12.9371538,11.5452905 12.7170838,11.7597714 C12.4970138,11.9742524 11.9101604,12.5223705 11.9101604,13.6186066 C11.9101604,14.7148427 12.741536,15.7872476 12.8637971,15.930235 C12.9860582,16.0970535 14.4776438,18.4086819 16.8250572,19.3142682 C19.1969228,20.1960234 19.1969228,19.9100487 19.6126106,19.8623863 C20.0282984,19.8147239 20.981935,19.3142682 21.1775528,18.7899814 C21.3487184,18.2656945 21.3487184,17.8129014 21.2753617,17.7652389 C21.2264573,17.669914 21.0552917,17.6222516 20.8352217,17.5030955 C20.5906995,17.3839394 19.4658972,16.8358213 19.2458272,16.7643277 C19.0502095,16.692834 18.8790439,16.6690028 18.7323306,16.8834838 C18.5856172,17.121796 18.1454772,17.6222516 17.9987639,17.7652389 C17.8765028,17.9082262 17.7297894,17.9320575 17.5097194,17.8129014 C17.2896494,17.6937453 16.5316305,17.4554331 15.6513505,16.692834 C14.9666883,16.0970535 14.502096,15.3582857 14.3553827,15.1438047 C14.2086694,14.9293237 14.3309305,14.8101676 14.4531916,14.6910115 C14.5510005,14.5956866 14.6732616,14.4288681 14.7955227,14.309712 C14.8933316,14.1667247 14.942236,14.0713998 15.0155927,13.9284125 C15.0889494,13.7854252 15.0400449,13.6662691 14.9911405,13.5471129 C14.942236,13.4279568 14.4776438,12.3317207 14.282026,11.8789275 C14.0864082,11.4261344 13.9152427,11.497628 13.7685294,11.497628 C13.6462682,11.497628 13.4751027,11.4737968 13.3283893,11.4737968 Z" id="Combined-Shape"></path>
            </g>
        </g>
    </g>
</svg>