<svg xmlns="http://www.w3.org/2000/svg" xmlns:xlink="http://www.w3.org/1999/xlink" width="316" height="245" viewBox="0 0 316 245"><defs><rect id="a" width="216" height="145" x="0" y="0" rx="10"/><rect id="e" width="300" height="180" x="0" y="0"/><linearGradient id="c" x1="61.561%" x2="15.793%" y1="54.621%" y2="19.51%"><stop offset="0%" stop-color="#0060AF"/><stop offset="100%" stop-color="#1E7FCF"/></linearGradient><filter id="b" width="174.1%" height="210.3%" x="-37%" y="-48.3%" filterUnits="objectBoundingBox"><feOffset dy="10" in="SourceAlpha" result="shadowOffsetOuter1"/><feGaussianBlur in="shadowOffsetOuter1" result="shadowBlurOuter1" stdDeviation="25"/><feColorMatrix in="shadowBlurOuter1" values="0 0 0 0 0 0 0 0 0 0 0 0 0 0 0 0 0 0 0.1 0"/></filter></defs><g fill="none" fill-rule="evenodd" transform="translate(50 40)"><mask id="d" fill="#fff"><use xlink:href="#a"/></mask><use xlink:href="#a" fill="#000" filter="url(#b)"/><use xlink:href="#a" fill="url(#c)"/><g mask="url(#d)"><g transform="translate(-42 -18)"><mask id="f" fill="#fff"><use xlink:href="#e"/></mask><path fill="#FFF" d="M53.1836683,-32.7758958 C49.877575,65.470441 91.2046005,120.721584 177.164745,132.977534 C263.124889,145.233484 306.331529,211.4754 306.784664,331.703283 L306.784664,9.12312746 L255.109257,-53.0810811 L53.1836683,-32.7758958 Z" mask="url(#f)" opacity=".08"/><path fill="#FFF" d="M122.459406,-41.0474343 C120.027893,31.3003321 150.422439,71.9868039 213.643046,81.0119811 C276.863653,90.0371582 308.640588,138.817142 308.973853,227.351931 L308.973853,-10.1933501 L270.968443,-56 L122.459406,-41.0474343 Z" mask="url(#f)" opacity=".08"/><path fill="#FFF" d="M196.118803,-44.4014817 C194.466807,4.65620345 215.117188,32.2449491 258.069946,38.3647551 C301.022704,44.4845612 322.612294,77.5613676 322.838718,137.595174 L322.838718,-23.4798967 L297.017435,-54.5405405 L196.118803,-44.4014817 Z" mask="url(#f)" opacity=".08"/></g></g></g></svg>