<?xml version="1.0" encoding="UTF-8"?>
<svg width="42px" height="43px" viewBox="0 0 42 43" version="1.1" xmlns="http://www.w3.org/2000/svg" xmlns:xlink="http://www.w3.org/1999/xlink">
    <title>898BA646-C3BA-485E-9BE1-03408F1AB244</title>
    <g id="Welcome" stroke="none" stroke-width="1" fill="none" fill-rule="evenodd">
        <g id="Boutique-/-Présentoire-/-Voir_Produit" transform="translate(-834.000000, -644.000000)">
            <g id="Group-3" transform="translate(247.000000, 137.500000)">
                <g id="Sous-Catégories/Viandes-Copy" transform="translate(587.000000, 507.000000)">
                    <rect id="Rectangle-Copy-4" fill="#FFFFFF" x="0" y="0" width="42" height="42" rx="21"></rect>
                    <g id="yucca" transform="translate(8.400000, 5.600000)" fill="#191970" fill-rule="nonzero">
                        <path d="M24.7904357,4.75828571 C24.6252857,4.77286857 20.7203143,5.13901143 18.6334714,7.10914286 C17.8738071,7.82628 16.9903286,8.05369714 15.9672857,8.31700571 C15.14925,8.52764 14.2414071,8.76184571 13.2878571,9.28814857 C13.4241429,8.42952 13.5053357,7.56234286 13.5606857,6.71521714 C13.8090214,2.91449714 14.7071571,0.453577143 14.7189214,0.421771429 C14.7690546,0.287014656 14.7195455,0.136165263 14.5985778,0.0550960919 C14.4776101,-0.0259730792 14.3158606,-0.0167032687 14.2054071,0.0776285714 C13.2351935,0.867708408 12.1879921,1.56274302 11.0788714,2.15273143 C10.1104714,2.66728 9.45070714,3.47134857 8.75217857,4.32262286 C8.03796429,5.19288 7.29932143,6.09274286 6.15747857,6.77009143 C6.03032143,6.84552 5.91152143,6.92094857 5.79863571,6.99637714 C5.79799286,6.99681714 5.79722143,6.99700571 5.79657857,6.99750857 C5.79593571,6.99801143 5.79561429,6.99838857 5.7951,6.99876571 C4.40363571,7.93156571 4.0518,8.88950857 3.57975,10.1778286 C3.33107074,10.8903574 3.03912318,11.58774 2.70546429,12.2662571 C1.74400714,14.1805714 2.09931429,15.8651429 2.35877143,17.0950057 C2.46574286,17.6020743 2.55805714,18.04 2.51209286,18.3219771 C2.43135,18.8164114 1.76303571,19.7030743 0.724307143,20.6939543 C0.565536139,20.8454143 0.516161559,21.0756948 0.599348901,21.2767531 C0.682536244,21.4778114 0.881777473,21.6097487 1.10359286,21.6106629 L1.11567857,21.6106629 C1.76959286,21.5966457 2.79353571,21.40644 3.95903571,20.5798057 C4.67061429,20.0751257 5.14433571,19.6218 5.64589286,19.1418229 C6.12109275,18.6748496 6.621364,18.232926 7.14458571,17.8179257 C5.91602143,19.6084114 3.63786429,24.2887543 3.0798,26.4632971 C2.5272,28.6163429 0.219985714,30.2120343 0.196907143,30.228 C0.0818668996,30.3065139 0.0321951294,30.448911 0.0741917057,30.5797958 C0.116188282,30.7106807 0.240150166,30.8 0.380442857,30.8 C0.388092857,30.8 0.395807143,30.8 0.403585714,30.7991829 C0.516664286,30.7912 3.19615714,30.5798114 5.24243571,28.4252571 C6.12276429,27.4983029 6.77031429,27.2938286 7.52007857,27.0572971 C8.37019286,26.78896 9.33370714,26.4848571 10.6754786,25.05756 C11.5444286,24.13356 12.4449429,23.49204 13.3158214,22.87208 C13.7991857,22.5279371 14.2736786,22.1897657 14.7168,21.8167714 C14.7223286,21.8124971 14.7275357,21.8078457 14.7328071,21.8031943 C15.6567214,21.02232 16.4410714,20.08688 16.8748071,18.62168 C17.3075786,17.16 17.7121929,16.8355943 18.2723786,16.3866686 C18.9216643,15.8660857 19.7303143,15.2182171 20.7911571,12.7427143 C22.7165143,8.24987429 25.0497643,5.29351429 25.0730357,5.26422286 C25.1517285,5.1653995 25.1629005,5.03032426 25.1014715,4.92042083 C25.0400424,4.81051741 24.9177396,4.74676729 24.7901786,4.75816 L24.7904357,4.75828571 Z M5.19615,18.6927714 C4.71207857,19.1560286 4.25481429,19.59364 3.58155,20.0711657 C2.69485714,20.6997371 1.91487857,20.9121314 1.3563,20.96688 C2.14232143,20.1953714 3.02239286,19.1836857 3.14691429,18.4211657 C3.2112,18.0257314 3.10834286,17.5356343 2.98838571,16.9680971 C2.81481429,16.1468686 2.59592143,15.1071486 2.80896429,13.94712 C3.92657143,14.8826229 5.05857857,14.9214057 5.11206429,14.9228514 L5.11990714,14.9228514 C5.29742723,14.9252641 5.44333603,14.7865095 5.44580355,14.6129343 C5.44827108,14.4393591 5.30636295,14.2966927 5.12884286,14.29428 C5.08127143,14.2927714 3.99683571,14.2458171 2.98812857,13.2524857 C3.06895428,13.0095753 3.16734532,12.7725928 3.28255714,12.5433314 C3.62701784,11.8438899 3.92837055,11.1249234 4.185,10.3902857 C4.61532857,9.21573714 4.89985714,8.44171429 5.92572857,7.68114286 C6.67787143,8.45598286 8.09627143,8.95959429 8.16222857,8.98266286 C8.32934599,9.04120977 8.51336176,8.95620656 8.57323929,8.79280286 C8.63311681,8.62939916 8.54618171,8.44947263 8.37906429,8.39092571 C7.99714286,8.25710286 7.01562857,7.83665143 6.46695,7.32235429 C6.47511429,7.31751429 6.48276429,7.31267429 6.49092857,7.30783429 C7.72997143,6.57297143 8.53945714,5.58661714 9.25354286,4.71629714 C9.91054286,3.91568571 10.5310286,3.15951429 11.3859,2.70530857 C12.2290989,2.2550228 13.0389448,1.74744107 13.8094714,1.18630286 C13.5250714,2.21508571 13.11975,4.00783429 12.9416143,6.35215429 C12.3775071,6.20481714 11.5916143,5.57775429 11.1673286,5.15158286 C11.0432034,5.0292305 10.8414602,5.02743667 10.7150799,5.14756162 C10.5886996,5.26768657 10.5848276,5.46491838 10.7064,5.58969714 C10.8420429,5.72622286 11.9327786,6.798 12.8971286,6.98468571 C12.7299857,9.27714857 12.3447857,11.69036 11.1375643,13.6005257 C10.8230786,13.49304 10.1832429,13.2120686 9.47417143,12.54484 C9.39222262,12.4631903 9.27137193,12.4315282 9.15864957,12.4621752 C9.04592721,12.4928223 8.95913873,12.5809375 8.9320587,12.69223 C8.90497867,12.8035225 8.94188463,12.9204126 9.02841429,12.9974114 C9.71922857,13.64748 10.3578429,13.9755943 10.7665714,14.1358171 C10.2376455,14.837615 9.57815061,15.4356253 8.82263571,15.89852 C6.85285714,17.1070114 5.97278571,17.9494229 5.19615,18.6926457 L5.19615,18.6927714 Z M20.1985714,12.4997714 C20.0732143,12.7923714 19.9524214,13.0570629 19.8358071,13.2974286 C19.4715,13.1833429 18.7846714,12.9001714 18.5481,12.3377257 C18.505919,12.2317966 18.4085248,12.1563948 18.2934025,12.1405409 C18.1782802,12.124687 18.063375,12.1708523 17.9929115,12.2612688 C17.9224481,12.3516852 17.9074102,12.4722586 17.9535857,12.5765829 C18.2697429,13.3282286 19.0575,13.7017257 19.5431786,13.8660971 C18.8728714,15.0918114 18.3444429,15.5163486 17.8653214,15.9004057 C17.6492533,16.0648995 17.4466517,16.2456393 17.2593643,16.4409771 C16.8948,16.4143886 15.9116143,16.2631543 15.5755929,15.4077314 C15.5119341,15.2456816 15.3259756,15.1647731 15.1602429,15.2270172 C14.9945101,15.2892612 14.9117627,15.4710873 14.9754214,15.6331371 C15.2154,16.2438571 15.7170214,16.6873771 16.4262857,16.9157371 C16.5607114,16.9587615 16.6978676,16.9931547 16.8368786,17.0186971 C16.6375929,17.3618971 16.4453143,17.81296 16.2577929,18.44656 C15.88545,19.7043314 15.2328214,20.5271314 14.4270643,21.2298743 C14.1717828,21.1711418 13.9214732,21.093391 13.6783286,20.9973029 C13.2662571,20.8329314 12.7243286,20.5452971 12.4819714,20.1081886 C12.427628,20.0087666 12.3229883,19.9454182 12.2077436,19.9421725 C12.0924989,19.9389268 11.9843035,19.996281 11.9241975,20.0924797 C11.8640914,20.1886784 11.8612823,20.3089851 11.9168357,20.4077657 C12.3166286,21.1290514 13.2095571,21.5232286 13.8247714,21.7178343 C13.5406929,21.9341257 13.2437571,22.1457657 12.9376286,22.3635029 C12.1199786,22.94556 11.1981214,23.6026686 10.3212,24.5081886 C10.1075368,24.4698172 9.89761126,24.4136918 9.69370714,24.3404229 C9.34431429,24.2132629 8.88859286,23.97912 8.70158571,23.5861371 C8.65313668,23.4843297 8.5528199,23.4155286 8.43842375,23.4056506 C8.32402759,23.3957726 8.21293156,23.4463184 8.14698445,23.5382478 C8.08103734,23.6301772 8.07025809,23.749524 8.11870714,23.8513314 C8.44958571,24.5465314 9.24229286,24.88068 9.80145,25.0348686 C8.78631429,25.9961429 8.04362143,26.2311657 7.32297857,26.4585829 C6.55759286,26.7001429 5.76617143,26.95 4.77173571,27.9970114 C3.72317143,29.1010343 2.46934286,29.6501543 1.56638571,29.92 C2.34173571,29.1921771 3.34105714,28.02888 3.70362857,26.6157257 C4.23154286,24.5586629 6.44663571,19.9938514 7.63251429,18.2346057 C8.07285658,18.916293 8.69051673,19.4713547 9.42229286,19.8429943 C9.5264715,19.8902432 9.64851642,19.8795594 9.74245445,19.8149674 C9.83639248,19.7503754 9.88795222,19.6416883 9.8777116,19.5298474 C9.86747098,19.4180065 9.7969858,19.3200032 9.69280714,19.2727543 C8.99387293,18.9091673 8.41965874,18.352719 8.04156429,17.6726 C8.20395422,17.4259504 8.33886612,17.1630077 8.44399286,16.8882686 C8.66680714,16.7416229 8.90595,16.5892571 9.16521429,16.4301657 C11.5470643,14.9688 12.6221143,12.6210229 13.1374286,10.1178629 C14.1852857,9.42643429 15.1742571,9.17073143 16.1313429,8.92439429 C16.6438929,8.79239429 17.1424929,8.66341143 17.6203286,8.47282857 C18.1079357,9.49205714 18.9650571,10.22428 19.0047857,10.2579714 C19.0916702,10.3313936 19.2120152,10.3539162 19.320488,10.3170553 C19.4289608,10.2801943 19.5090818,10.1895498 19.5306701,10.0792667 C19.5522585,9.96898357 19.5120344,9.85581645 19.42515,9.78239429 C19.4165357,9.77510286 18.6293571,9.10272 18.2001214,8.20116 C18.520273,8.02567828 18.815995,7.81063756 19.08,7.56133714 C20.4878571,6.23209714 22.9069286,5.68392 24.1160786,5.48434857 C22.566597,7.68464415 21.2537897,10.035603 20.1985714,12.4997714 L20.1985714,12.4997714 Z" id="Shape"></path>
                    </g>
                </g>
            </g>
        </g>
    </g>
</svg>