<?xml version="1.0" encoding="UTF-8"?>
<svg width="18px" height="18px" viewBox="0 0 18 18" version="1.1" xmlns="http://www.w3.org/2000/svg" xmlns:xlink="http://www.w3.org/1999/xlink">
    <title>F7B87C35-1079-4188-B34B-45DFA1232C36</title>
    <g id="Welcome" stroke="none" stroke-width="1" fill="none" fill-rule="evenodd">
        <g id="Boutique-/-Présentoire-/-Voir_Produit" transform="translate(-365.000000, -606.000000)" fill="#FFFFFF" fill-rule="nonzero">
            <g id="Group-3" transform="translate(247.000000, 137.500000)">
                <g id="Group-14" transform="translate(15.000000, 320.500000)">
                    <g id="Boutons-Copy" transform="translate(0.000000, 138.500000)">
                        <g id="Icons/Chariot" transform="translate(103.000000, 9.500000)">
                            <g id="Icons/Shopping" transform="translate(0.250000, 1.500000)">
                                <g id="shoppingbasket2_114884" transform="translate(1.471154, 0.000000)">
                                    <path d="M14.5450204,6.98667975 C14.5450204,6.47361764 14.1251484,6.05374568 13.6120863,6.05374568 L0.932804998,6.05374568 C0.419742888,6.05374568 0,6.47361764 0,6.98667975 C0,7.42281481 0.304352316,7.78873458 0.710413547,7.88953999 L1.99674738,13.9750374 C1.99674738,14.5388249 2.45792245,15 3.02170995,15 L11.6909753,15 C12.2547628,15 12.7159378,14.5388249 12.7159378,13.9750374 L14.0163405,7.82306779 C14.3275337,7.67153699 14.5450204,7.3545356 14.5450204,6.98667975 Z M4.19032991,12.7857659 C4.19032991,12.9619495 4.04615623,13.1059941 3.86997264,13.1059941 L3.78168723,13.1059941 C3.60550364,13.1059941 3.46132996,12.9618204 3.46132996,12.7857659 L3.46132996,9.03686303 C3.46132996,8.86067944 3.60550364,8.71663483 3.78168723,8.71663483 L3.86997264,8.71663483 C4.04615623,8.71663483 4.19032991,8.86067944 4.19032991,9.03686303 L4.19032991,12.7857659 Z M6.53544323,12.7857659 C6.53544323,12.9619495 6.39126955,13.1059941 6.21508596,13.1059941 L6.12680056,13.1059941 C5.95061697,13.1059941 5.80644329,12.9618204 5.80644329,12.7857659 L5.80644329,9.03686303 C5.80644329,8.86067944 5.95048789,8.71663483 6.12680056,8.71663483 L6.21508596,8.71663483 C6.39126955,8.71663483 6.53544323,8.86067944 6.53544323,9.03686303 L6.53544323,12.7857659 Z M8.88042749,12.7857659 C8.88042749,12.9619495 8.73638288,13.1059941 8.56007022,13.1059941 L8.47191388,13.1059941 C8.29573029,13.1059941 8.15168568,12.9618204 8.15168568,12.7857659 L8.15168568,9.03686303 C8.15168568,8.86067944 8.29573029,8.71663483 8.47191388,8.71663483 L8.56019929,8.71663483 C8.73638288,8.71663483 8.88055656,8.86067944 8.88055656,9.03686303 L8.88055656,12.7857659 L8.88042749,12.7857659 Z M11.2255408,12.7857659 C11.2255408,12.9619495 11.0813671,13.1059941 10.9053126,13.1059941 L10.8170272,13.1059941 C10.6408436,13.1059941 10.4966699,12.9618204 10.4966699,12.7857659 L10.4966699,9.03686303 C10.4966699,8.86067944 10.6408436,8.71663483 10.8170272,8.71663483 L10.9053126,8.71663483 C11.0814962,8.71663483 11.2255408,8.86067944 11.2255408,9.03686303 L11.2255408,12.7857659 Z" id="Shape"></path>
                                    <path d="M3.16485105,4.50049047 C3.45526357,2.47818679 5.18999432,0.922221075 7.29271,0.922221075 C9.39542568,0.922221075 11.1302855,2.47818679 11.420698,4.50049047 C11.4630337,5.1910269 12.3525995,5.08054107 12.3525995,4.50049047 C12.0563787,1.96706077 9.90577727,0 7.29271,0 C4.6797718,0 2.52904125,1.96706077 2.23294956,4.50049047 C2.23294956,5.21877743 3.17620941,5.24639888 3.16485105,4.50049047 Z" id="Path"></path>
                                </g>
                            </g>
                        </g>
                    </g>
                </g>
            </g>
        </g>
    </g>
</svg>