<?xml version="1.0" encoding="UTF-8"?>
<svg width="26px" height="27px" viewBox="0 0 26 27" version="1.1" xmlns="http://www.w3.org/2000/svg" xmlns:xlink="http://www.w3.org/1999/xlink">
    <title>A10909A5-1799-4B2A-8415-CFAE5D70EDD3</title>
    <g id="Welcome" stroke="none" stroke-width="1" fill="none" fill-rule="evenodd">
        <g id="Boutique-/-Présentoire-/-Voir_Produit" transform="translate(-566.000000, -539.000000)">
            <g id="Group-3" transform="translate(247.000000, 137.500000)">
                <g id="Icons/En-stock" transform="translate(319.000000, 402.000000)">
                    <circle id="Oval-Copy" stroke="#00B517" stroke-width="1.5" fill="#FFFFFF" cx="13" cy="13" r="12.25"></circle>
                    <g id="Icons/affaires-icons-Copy" transform="translate(13.000000, 13.000000) rotate(15.000000) translate(-13.000000, -13.000000) translate(7.280000, 5.720000)" fill="#00B517" fill-rule="nonzero">
                        <path d="M10.01,1.1812773e-13 C10.798788,1.1812773e-13 11.44,0.641784 11.44,1.43 L11.44,6.578 C11.44,7.132268 11.21692,7.648784 10.812516,8.032596 L5.27098,13.334464 C5.014152,13.583856 4.655508,13.728 4.29,13.728 C3.9039,13.728 3.544684,13.577564 3.278132,13.304148 L0.420992,10.446436 C0.150436,10.183316 -7.99360578e-15,9.8241 -7.99360578e-15,9.438 C-7.99360578e-15,9.07192 0.144144,8.713848 0.395252,8.455304 L0.551,8.293 L0.418704,8.160724 C0.14872,7.891312 -7.99360578e-15,7.532096 -7.99360578e-15,7.15 C-7.99360578e-15,6.782776 0.138996,6.433856 0.391248,6.167304 L5.696548,0.625196 C6.07178,0.228228 6.602024,1.1812773e-13 7.15,1.1812773e-13 L10.01,1.1812773e-13 Z M10.814804,5.743452 L5.273268,11.047608 C5.005572,11.301004 4.657224,11.44 4.29,11.44 C3.907332,11.44 3.548116,11.29128 3.278132,11.020724 L0.956,8.698 L0.805948,8.853416 C0.656656,9.006712 0.572,9.219496 0.572,9.438 C0.572,9.668516 0.661232,9.881872 0.822536,10.039744 L3.685396,12.902604 C3.99828,13.223496 4.559412,13.228072 4.874584,12.922624 L10.417836,7.61904 C10.708984,7.342764 10.868,6.973824 10.868,6.578 L10.8693244,5.68979147 C10.8515245,5.70800274 10.8333491,5.72589417 10.814804,5.743452 Z M10.01,0.572 L7.15,0.572 C6.753032,0.572 6.38352,0.731016 6.111248,1.019304 L0.805948,6.561412 C0.655512,6.720428 0.572,6.92978 0.572,7.15 C0.572,7.379372 0.661232,7.594444 0.823108,7.75632 L1.13750092,8.06821243 C1.14304885,8.07286981 1.14846129,8.07777614 1.153724,8.082932 L1.168,8.101 L3.683108,10.61632 C4.000568,10.934352 4.55312,10.94236 4.87916,10.632908 L10.419552,5.329896 C10.420124,5.329896 10.420124,5.329324 10.420696,5.328752 C10.709556,5.055908 10.868,4.686968 10.868,4.29 L10.868,1.43 C10.868,0.956956 10.483044,0.572 10.01,0.572 Z M8.58,1.716 C9.210916,1.716 9.724,2.229084 9.724,2.86 C9.724,3.490916 9.210916,4.004 8.58,4.004 C7.949084,4.004 7.436,3.490916 7.436,2.86 C7.436,2.229084 7.949084,1.716 8.58,1.716 Z M8.58,2.288 C8.264256,2.288 8.008,2.544828 8.008,2.86 C8.008,3.175172 8.264256,3.432 8.58,3.432 C8.895744,3.432 9.152,3.175172 9.152,2.86 C9.152,2.544828 8.895744,2.288 8.58,2.288 Z" id="Combined-Shape"></path>
                    </g>
                </g>
            </g>
        </g>
    </g>
</svg>