<?xml version="1.0" encoding="UTF-8"?>
<svg width="26px" height="26px" viewBox="0 0 26 26" version="1.1" xmlns="http://www.w3.org/2000/svg" xmlns:xlink="http://www.w3.org/1999/xlink">
    <title>97683BE8-EAA8-40B1-8DB2-1806CA74FE0D</title>
    <g id="Welcome" stroke="none" stroke-width="1" fill="none" fill-rule="evenodd">
        <g id="Assets" transform="translate(-1581.000000, -154.000000)">
            <g id="Group-7" transform="translate(1581.000000, 154.000000)">
                <g id="Group-5" transform="translate(5.000000, 6.500000)" fill="#4A4A4A" fill-rule="nonzero">
                    <path d="M7.38146972,14.7550852 C6.73510744,14.1595205 6.11193847,13.5998439 5.56213378,13.1061554 L5.55932619,13.1035828 C3.94738769,11.6560903 2.55541994,10.4060474 1.58691406,9.17465612 C0.504272469,7.79803966 0,6.49281378 0,5.06693137 C0,3.68156793 0.450805656,2.40348334 1.26928712,1.46794498 C2.09753419,0.521344279 3.23400878,0 4.46972656,0 C5.39331056,0 6.23913575,0.30768703 6.98364256,0.914442759 C7.359375,1.22071483 7.69995119,1.59554763 8,2.03276679 C8.30017091,1.59554763 8.640625,1.22071483 9.0164795,0.914442759 C9.76098631,0.30768703 10.6068115,0 11.5303955,0 C12.7659912,0 13.9025879,0.521344279 14.730835,1.46794498 C15.5493164,2.40348334 16,3.68156793 16,5.06693137 C16,6.49281378 15.4958496,7.79803966 14.413208,9.17452749 C13.4447022,10.4060474 12.0528564,11.6559617 10.4411621,13.1033256 C9.89038088,13.5977858 9.26623534,14.1583628 8.61840819,14.7553425 C8.44738769,14.913045 8.22766113,15 8,15 C7.77221681,15 7.55261231,14.913045 7.38146972,14.7550852 Z" id="Shape"></path>
                    <path d="M4.46972656,0.987634222 C3.49890137,0.987634222 2.60705566,1.39591123 1.95825194,2.13734436 C1.29980469,2.88996845 0.937133781,3.93034165 0.937133781,5.06693137 C0.937133781,6.2661647 1.36010744,7.33869585 2.30847169,8.5444894 C3.22509766,9.71002128 4.58850097,10.9343378 6.16711425,12.3519878 C6.72192381,12.8501784 7.34753419,13.4120417 7.99865722,14.0119799 C8.65368653,13.4108839 9.28027344,12.8481203 9.83325194,12.3517305 C11.4117432,10.9340805 12.7750244,9.71002128 13.6916504,8.5444894 C14.6398926,7.33869585 15.0628662,6.2661647 15.0628662,5.06693137 C15.0628662,3.93034165 14.7001953,2.88996845 14.0417481,2.13734436 C13.3930664,1.39591123 12.5010986,0.987634222 11.5303955,0.987634222 C10.8192139,0.987634222 10.1662597,1.2258601 9.58972169,1.69562311 C9.07592775,2.11444793 8.71801756,2.64389598 8.50817872,3.01435528 C8.40026856,3.20485886 8.21032716,3.31856928 8,3.31856928 C7.78967284,3.31856928 7.59973144,3.20485886 7.49182128,3.01435528 C7.2821045,2.64389598 6.92419434,2.11444793 6.41027831,1.69562311 C5.83374025,1.2258601 5.18078612,0.987634222 4.46972656,0.987634222 Z" id="Path"></path>
                </g>
                <rect id="Rectangle-Copy-7" stroke="#4A4A4A" x="0.5" y="0.5" width="25" height="25" rx="12.5"></rect>
            </g>
        </g>
    </g>
</svg>