<?xml version="1.0" encoding="UTF-8"?>
<svg width="27px" height="28px" viewBox="0 0 27 28" version="1.1" xmlns="http://www.w3.org/2000/svg" xmlns:xlink="http://www.w3.org/1999/xlink">
    <title>9222A22E-9585-4995-8F8F-2004405027D4</title>
    <g id="Welcome" stroke="none" stroke-width="1" fill="none" fill-rule="evenodd">
        <g id="Boutique-/-Présentoire-/-Voir_Produit" transform="translate(-648.000000, -539.000000)">
            <g id="Group-3" transform="translate(247.000000, 137.500000)">
                <g id="Icons/Favoris" transform="translate(401.000000, 402.000000)">
                    <circle id="Cercle-de-survole-icone-Copy" fill="#FFFFFF" cx="13.5" cy="13.5" r="12.6"></circle>
                    <path d="M13.5,0 C17.1059766,0 20.4961113,1.40426367 23.0459766,3.95402344 C25.5957363,6.50388867 27,9.89402344 27,13.5 C27,17.1059766 25.5957363,20.4961113 23.0459766,23.0459766 C20.4961113,25.5957363 17.1059766,27 13.5,27 C9.89402344,27 6.50388867,25.5957363 3.95402344,23.0459766 C1.40426367,20.4961113 0,17.1059766 0,13.5 C0,9.89402344 1.40426367,6.50388867 3.95402344,3.95402344 C6.50388867,1.40426367 9.89402344,0 13.5,0 Z M13.5,1.58203125 C6.92840039,1.58203125 1.58203125,6.92840039 1.58203125,13.5 C1.58203125,20.0715996 6.92840039,25.4179688 13.5,25.4179688 C20.0715996,25.4179688 25.4179688,20.0715996 25.4179688,13.5 C25.4179688,6.92840039 20.0715996,1.58203125 13.5,1.58203125 Z M17.0745254,7.2 C18.3255661,7.2 19.4763702,7.70093536 20.3149704,8.61047974 C21.1436829,9.50939483 21.6,10.7374466 21.6,12.0685776 C21.6,13.4386414 21.0895477,14.6927719 19.9933731,16.0153748 C19.0127609,17.1986847 17.6035171,18.3996689 15.9716767,19.7903732 C15.4140106,20.265477 14.7820633,20.8041092 14.1261383,21.3777191 C13.95298,21.529248 13.7305069,21.6127991 13.5,21.6127991 C13.2693695,21.6127991 13.04702,21.529248 12.8737381,21.3774719 C12.2192963,20.8052216 11.5883377,20.2674545 11.0316605,19.7930923 L11.0288178,19.7906204 C9.39673003,18.3997925 7.98736269,17.1986847 7.00675049,16.0154983 C5.91057587,14.6927719 5.4,13.4386414 5.4,12.0685776 C5.4,10.7374466 5.85644073,9.50939483 6.68515321,8.61047974 C7.52375336,7.70093536 8.67443389,7.2 9.92559814,7.2 C10.8607269,7.2 11.7171249,7.49564209 12.4709381,8.07864532 C12.8513672,8.37292784 13.1962006,8.73308716 13.5,9.15319062 C13.803923,8.73308716 14.1486328,8.37292784 14.5291855,8.07864532 C15.2829986,7.49564209 16.1393967,7.2 17.0745254,7.2 Z" id="Combined-Shape" fill="#FF375F" fill-rule="nonzero"></path>
                </g>
            </g>
        </g>
    </g>
</svg>