<?xml version="1.0" encoding="UTF-8"?>
<svg width="25px" height="16px" viewBox="0 0 25 16" version="1.1" xmlns="http://www.w3.org/2000/svg" xmlns:xlink="http://www.w3.org/1999/xlink">
    <title>BE6744A5-61E7-475A-BCFF-3B4A61C3EF81</title>
    <g id="Welcome" stroke="none" stroke-width="1" fill="none" fill-rule="evenodd">
        <g id="Boutique-/-Présentoire-/-Voir_Produit" transform="translate(-574.000000, -607.000000)" fill="#FFFFFF" fill-rule="nonzero">
            <g id="Group-3" transform="translate(247.000000, 137.500000)">
                <g id="Group-14" transform="translate(15.000000, 320.500000)">
                    <g id="Boutons-Copy" transform="translate(0.000000, 138.500000)">
                        <g id="negociation-2" transform="translate(312.000000, 10.500000)">
                            <path d="M8.06047758,10.3710659 L3.13001949,10.3710659 L3.13001949,8.93394012 L7.86676413,8.93394012 L7.86676413,7.51382036 L3.13001949,7.51382036 L3.13001949,6.07669461 L7.86676413,6.07669461 L7.86676413,3.29240719 L2.26310916,3.29240719 C1.01525341,3.29240719 0,4.29039521 0,5.51702994 L0,10.9468743 C0,12.1735569 1.01525341,13.171497 2.26310916,13.171497 L3.3791423,13.171497 L5.50170565,15.9933892 L7.62426901,13.171497 L10.9318226,13.171497 C11.1330897,13.171497 11.3281676,13.1451976 11.5140351,13.0965269 C9.94234893,12.9930539 8.55565302,11.8475689 8.06047758,10.3710659 Z" id="Path"></path>
                            <path d="M22.3892788,0.0270658683 L11.9116959,0.0270658683 C10.4874756,0.0270658683 9.32875244,1.16603593 9.32875244,2.56598802 L9.32875244,3.29240719 L9.32875244,3.29240719 L9.32875244,6.07669461 L9.32875244,6.07669461 L9.32875244,7.51382036 L9.32875244,7.51382036 L9.32875244,8.93394012 L9.32875244,8.93394012 L9.32875244,9.12886228 C9.32875244,9.57992814 9.44965887,10.0035449 9.66038012,10.3710659 L9.65999025,10.3710659 C10.0955653,11.1187545 10.9046784,11.6678802 11.7453704,11.6678802 L13.0723197,11.6678802 C13.0723197,11.6678802 13.0723197,11.6678323 13.0723684,11.6677844 L15.9864035,11.6677844 L18.4749025,14.9762395 L20.9634016,11.6677844 L22.3892788,11.6677844 C23.813499,11.6677844 24.9721248,10.5288144 24.9721248,9.12886228 L24.9721248,2.56598802 C24.9721248,1.16603593 23.8134503,0.0270658683 22.3892788,0.0270658683 Z M21.3415205,7.81973653 L12.9594542,7.81973653 L12.9594542,6.38261078 L21.3415205,6.38261078 L21.3415205,7.81973653 Z M21.3415205,4.94529341 L12.9594542,4.94529341 L12.9594542,3.50816766 L21.3415205,3.50816766 L21.3415205,4.94529341 Z" id="Shape"></path>
                        </g>
                    </g>
                </g>
            </g>
        </g>
    </g>
</svg>