<?xml version="1.0" encoding="UTF-8"?>
<svg width="26px" height="26px" viewBox="0 0 26 26" version="1.1" xmlns="http://www.w3.org/2000/svg" xmlns:xlink="http://www.w3.org/1999/xlink">
    <title>0A589EE3-3D2B-4DF1-99F1-1E732126D562</title>
    <g id="Welcome" stroke="none" stroke-width="1" fill="none" fill-rule="evenodd">
        <g id="Assets" transform="translate(-1545.000000, -154.000000)">
            <g id="Group-4" transform="translate(1545.000000, 154.000000)">
                <path d="M17.6551724,10.8225806 C19.2238103,10.8225806 20.5,9.62872581 20.5,8.16129032 C20.5,6.69385484 19.2238103,5.5 17.6551724,5.5 C16.0865345,5.5 14.8103448,6.69385484 14.8103448,8.16129032 C14.8103448,8.37075806 14.8371897,8.57437097 14.8863276,8.77004839 L10.3592759,11.1227742 C9.84384483,10.6387581 9.13113793,10.3387097 8.34482759,10.3387097 C6.77618966,10.3387097 5.5,11.5325645 5.5,13 C5.5,14.4674355 6.77618966,15.6612903 8.34482759,15.6612903 C9.13113793,15.6612903 9.84384483,15.3612419 10.3592759,14.8772258 L14.8863276,17.2299516 C14.8371897,17.425629 14.8103448,17.6292419 14.8103448,17.8387097 C14.8103448,19.3061452 16.0865345,20.5 17.6551724,20.5 C19.2238103,20.5 20.5,19.3061452 20.5,17.8387097 C20.5,16.3712742 19.2238103,15.1774194 17.6551724,15.1774194 C16.8688621,15.1774194 16.1561552,15.4774677 15.6407241,15.9614839 L11.1136724,13.6087581 C11.1628103,13.413129 11.1896552,13.2095161 11.1896552,13 C11.1896552,12.7904839 11.1628103,12.5869194 11.1136724,12.3912419 L15.6407241,10.0385161 C16.1561552,10.5225323 16.8688621,10.8225806 17.6551724,10.8225806 Z M17.6551724,16.6290323 C18.3681897,16.6290323 18.9482759,17.1716935 18.9482759,17.8387097 C18.9482759,18.5057258 18.3681897,19.0483871 17.6551724,19.0483871 C16.9421552,19.0483871 16.362069,18.5057258 16.362069,17.8387097 C16.362069,17.1716935 16.9421552,16.6290323 17.6551724,16.6290323 Z M8.34482759,14.2096774 C7.63181034,14.2096774 7.05172414,13.6670161 7.05172414,13 C7.05172414,12.3329839 7.63181034,11.7903226 8.34482759,11.7903226 C9.05784483,11.7903226 9.63793103,12.3329839 9.63793103,13 C9.63793103,13.6670161 9.05784483,14.2096774 8.34482759,14.2096774 Z M17.6551724,6.9516129 C18.3681897,6.9516129 18.9482759,7.49427419 18.9482759,8.16129032 C18.9482759,8.82830645 18.3681897,9.37096774 17.6551724,9.37096774 C16.9421552,9.37096774 16.362069,8.82830645 16.362069,8.16129032 C16.362069,7.49427419 16.9421552,6.9516129 17.6551724,6.9516129 Z" id="Shape" fill="#4A4A4A" fill-rule="nonzero"></path>
                <rect id="Rectangle-Copy-7" stroke="#4A4A4A" x="0.5" y="0.5" width="25" height="25" rx="12.5"></rect>
            </g>
        </g>
    </g>
</svg>