<svg xmlns="http://www.w3.org/2000/svg" width="24" height="26" viewBox="0 0 24 26"><g fill="#191970" transform="translate(.23 .5)"><path d="M13.3581087,2.83018868 C13.1669332,2.83018868 13.0119548,2.67179885 13.0119548,2.47641509 L13.0119548,1.88679245 C13.0119548,1.23551327 12.4953603,0.70754717 11.8581087,0.70754717 C11.220857,0.70754717 10.7042625,1.23551327 10.7042625,1.88679245 L10.7042625,2.47641509 C10.7042625,2.67179885 10.5492842,2.83018868 10.3581087,2.83018868 C10.1669332,2.83018868 10.0119548,2.67179885 10.0119548,2.47641509 L10.0119548,1.88679245 C10.0119548,0.844745755 10.8385061,0 11.8581087,0 C12.8777113,0 13.7042625,0.844745755 13.7042625,1.88679245 L13.7042625,2.47641509 C13.7042625,2.67179885 13.5492842,2.83018868 13.3581087,2.83018868 L13.3581087,2.83018868 Z"/><path d="M16.8034933,25.0000031 L6.91041637,25.0000031 C6.09006267,25.0011928 5.30535744,24.6574141 4.74053374,24.0493761 C4.17571005,23.4413381 3.88051791,22.6225972 3.92426253,21.7853774 L4.58195483,9.16981132 C4.79928839,5.22917789 7.98930711,2.14753021 11.8511856,2.14753021 C15.7130641,2.14753021 18.9030828,5.22917789 19.1204164,9.16981132 L19.7781087,21.7853774 C19.8177282,22.6194795 19.5227366,23.43401 18.9613016,24.0407446 C18.3998665,24.6474791 17.6205696,24.9939162 16.8034933,25.0000031 L16.8034933,25.0000031 Z M11.8581087,2.83018868 C8.35776821,2.82985839 5.46776527,5.62606185 5.27657022,9.19811321 L4.61657022,21.8231132 C4.58228798,22.4664124 4.80881603,23.0957352 5.24283827,23.5629629 C5.6768605,24.0301905 6.28004187,24.294055 6.91041637,24.2924601 L16.8034933,24.2924601 C17.4334672,24.2934056 18.0360403,24.0292569 18.4695562,23.5621044 C18.9030721,23.0949518 19.1292909,22.4660025 19.0950318,21.8231132 L18.4373395,9.19811321 C18.2473267,5.62643498 15.3580202,2.82992478 11.8581087,2.83018868 Z"/><path d="M11.8581087,22.4056604 C10.4755613,22.4056604 9.15308711,21.8281412 8.19773595,20.806772 C7.24238479,19.7854027 6.73726236,18.4091831 6.79964714,16.9976415 L7.12503176,9.57783019 C7.26105654,7.00911021 9.33872915,4.99751399 11.855801,4.99751399 C14.3728728,4.99751399 16.4505454,7.00911021 16.5865702,9.57783019 L16.9165702,16.9976415 C16.978955,18.4091831 16.4738326,19.7854027 15.5184814,20.806772 C14.5631303,21.8281412 13.2406561,22.4056604 11.8581087,22.4056604 Z M11.8581087,5.66036841 C9.69309431,5.65581203 7.91017442,7.39784904 7.81733945,9.60849057 L7.48964714,17.0306604 C7.42586085,18.6676836 8.24403287,20.2090418 9.6215452,21.0469534 C10.9990575,21.884865 12.7148521,21.884865 14.0923645,21.0469534 C15.4698768,20.2090418 16.2880488,18.6676836 16.2242625,17.0306604 L15.8988779,9.60849057 C15.8048774,7.39838888 14.0226478,5.65702624 11.8581087,5.66036841 Z"/><path d="M12.6273395 18.9316038 11.6273395 18.9316038 11.6273395 18.2240566 12.6273395 18.2240566 12.6273395 18.9316038ZM12.6273395 17.5165094 11.6273395 17.5165094 11.6273395 16.8089623 12.6273395 16.8089623 12.6273395 17.5165094ZM12.6273395 16.1014151 11.6273395 16.1014151 11.6273395 15.3938679 12.6273395 15.3938679 12.6273395 16.1014151ZM12.6273395 14.6863208 11.6273395 14.6863208 11.6273395 13.9787736 12.6273395 13.9787736 12.6273395 14.6863208ZM11.9734933 13.134434C11.7823178 13.134434 11.6273395 12.9760441 11.6273395 12.7806604L11.6273395 7.9009434C11.6273395 7.70555964 11.7823178 7.54716981 11.9734933 7.54716981 12.1646688 7.54716981 12.3196471 7.70555964 12.3196471 7.9009434L12.3196471 12.7806604C12.3196471 12.9760441 12.1646688 13.134434 11.9734933 13.134434L11.9734933 13.134434Z"/><path d="M11.0504164 10.1415094C10.919303 10.1415094 10.7994427 10.065801 10.740807 9.94594821 10.6821713 9.82609537 10.6948253 9.68267134 10.7734933 9.5754717L11.465801 8.63207547C11.5805063 8.47576847 11.797476 8.4440905 11.9504164 8.56132075 12.1033568 8.67855101 12.1343524 8.90029677 12.0196471 9.05660377L11.3273395 10C11.2614971 10.0885052 11.1592009 10.1407792 11.0504164 10.1415094L11.0504164 10.1415094ZM19.4111856 23.2596322C19.2628451 23.2644922 19.1278583 23.1723362 19.075629 23.0303481 19.0233998 22.8883601 19.0655533 22.728144 19.1804164 22.6320755 19.7469998 22.1531074 20.1295603 21.4847627 20.2604164 20.745283L22.985801 5.00707547C23.284672 3.27467285 22.1528134 1.62266696 20.4577241 1.31721703 18.7626347 1.01176709 17.1462105 2.16854078 16.8473395 3.9009434L16.805801 4.13679245C16.7843651 4.26318358 16.6985809 4.36828613 16.5807625 4.41250899 16.4629442 4.45673184 16.3309911 4.4333565 16.2346087 4.35118823 16.1382263 4.26901996 16.0920574 4.14054207 16.1134933 4.01415094L16.1573395 3.77830189C16.5224847 1.66164456 18.4974255.248279352 20.5684933.621462321 22.6395611.994645291 24.0224846 3.01305964 23.6573395 5.12971698L20.9550318 20.8561321C20.7972362 21.7660627 20.3286732 22.5892637 19.6327241 23.1792453 19.570288 23.2315618 19.4919223 23.2599273 19.4111856 23.2596322Z"/><path d="M18.5504164,7.81839623 L18.4904164,7.81839623 C18.3023294,7.78366539 18.1767198,7.60057377 18.2088779,7.40801887 L18.6542625,4.82783019 C18.8938691,3.43930296 20.1894882,2.5121945 21.5481087,2.75707547 C22.9067292,3.00195645 23.8138691,4.32609542 23.5742625,5.71462264 L23.4704164,6.32311321 C23.436642,6.51849696 23.2542842,6.64890458 23.0631087,6.61438678 C22.8719332,6.57986899 22.7443344,6.39349696 22.7781087,6.19811321 L22.8842625,5.59198113 C22.9789188,4.63002786 22.3315927,3.75628603 21.3999626,3.58851664 C20.4683325,3.42074726 19.5677843,4.01574549 19.3350318,4.95283019 L18.8919548,7.5259434 C18.8619297,7.69479913 18.7183401,7.81775216 18.5504164,7.81839623 L18.5504164,7.81839623 Z"/><path d="M19.1273395 16.2735849C19.105861 16.2759085 19.0842025 16.2759085 19.0627241 16.2735849 18.9724361 16.2564075 18.892528 16.2032647 18.8405904 16.1258551 18.7886528 16.0484456 18.7689434 15.9531149 18.785801 15.8608491L21.0934933 3.36084906C21.1075363 3.2659181 21.1587286 3.18089726 21.235319 3.12530329 21.3119094 3.06970932 21.4073193 3.04831726 21.4996471 3.06603774 21.5898098 3.08317703 21.6695372 3.13641724 21.7211061 3.21392321 21.7726749 3.29142918 21.7918118 3.38677789 21.7742625 3.47877358L19.4665702 15.9787736C19.4394331 16.1487101 19.2958157 16.273522 19.1273395 16.2735849L19.1273395 16.2735849ZM4.31657022 23.2596158C4.23267858 23.2621825 4.15066742 23.2336849 4.08580099 23.1792453 3.39242653 22.5881336 2.92639446 21.7650699 2.77041637 20.8561321L.0588779119 5.12971698C-.307541778 3.01305963 1.07434856.993589306 3.14541637.619103774 5.21648419.244618242 7.19245822 1.65692755 7.55887791 3.77358491L7.60272407 4.00943396C7.63586115 4.20481772 7.50774571 4.39066178 7.31657022 4.4245283 7.12539473 4.45839482 6.94355346 4.32745923 6.91041637 4.13207547L6.86887791 3.89622642C6.49588949 2.24458954 4.92216909 1.18116795 3.28911931 1.47724998 1.65606953 1.773332.536294386 3.325101.741954835 5.00707547L3.46272407 20.7334906C3.59300981 21.4731856 3.97567747 22.1417175 4.54272407 22.620283 4.65578912 22.7150172 4.69842431 22.8721369 4.64925033 23.0128549 4.60007634 23.1535729 4.46969803 23.247542 4.3234933 23.2476415L4.31657022 23.2596158Z"/><path d="M5.17733945,7.81839623 C5.01378951,7.8122094 4.87649151,7.69053307 4.84733945,7.5259434 L4.38580099,4.95283019 C4.15861159,4.01012617 3.25597844,3.40819433 2.32019909,3.57535856 C1.38441975,3.74252279 0.73509056,4.62169156 0.834262527,5.58726415 L0.940416373,6.19339623 C0.974190706,6.38877998 0.84659186,6.57515201 0.655416372,6.6096698 C0.464240885,6.6441876 0.281883021,6.51377998 0.248108681,6.31839623 L0.153493297,5.70990566 C-0.022382896,4.69286781 0.4189073,3.66776327 1.2713694,3.11311135 C2.1238315,2.55845943 3.21936338,2.58363528 4.04657022,3.17688679 C4.59177026,3.56407587 4.96181344,4.15897959 5.0734933,4.82783019 L5.51887791,7.40801887 C5.55103606,7.60057377 5.42542647,7.78366539 5.23733945,7.81839623 L5.17733945,7.81839623 Z"/><path d="M4.60041637,16.2735849 C4.43414057,16.2741171 4.29131545,16.1529727 4.2611856,15.9858491 L1.9534933,3.48584906 C1.93386486,3.39280528 1.95200543,3.29560376 2.00376593,3.2164762 C2.05552643,3.13734865 2.13647912,3.08306386 2.22810868,3.06603774 C2.41588512,3.02997085 2.59705956,3.15516598 2.63426253,3.34669811 L4.94195483,15.8466981 C4.9629858,15.9410558 4.94527706,16.0400995 4.89295367,16.1207578 C4.84063029,16.2014162 4.75826057,16.2566471 4.66503176,16.2735849 C4.64355329,16.2759085 4.62189484,16.2759085 4.60041637,16.2735849 Z"/></g></svg>