<svg xmlns="http://www.w3.org/2000/svg" width="26" height="26" viewBox="0 0 26 26"><g fill="#191970" transform="translate(.5 .5)"><path d="M17.0006329,5.02805913 C17.0985676,5.02811508 17.1925071,4.9892355 17.2617574,4.91998524 C17.3310077,4.85073498 17.3698872,4.7567954 17.3698313,4.65886076 L17.3698313,2.4964135 C17.3698313,2.2925109 17.2045355,2.12721519 17.0006329,2.12721519 C16.7967303,2.12721519 16.6314345,2.2925109 16.6314345,2.4964135 L16.6314345,4.65886076 C16.6313786,4.7567954 16.6702582,4.85073498 16.7395084,4.91998524 C16.8087587,4.9892355 16.9026983,5.02811508 17.0006329,5.02805913 Z"/><path d="M23.3649789,7.93248945 L21.2679325,7.93248945 L21.2679325,2.79535865 C21.2678161,2.59150428 21.1025885,2.42627673 20.8987342,2.42616034 L18.6350211,2.42616034 L18.6350211,0.369198312 C18.6350211,0.165295715 18.4697254,0 18.2658228,0 L6.73417722,0 C6.53027462,0 6.3649789,0.165295715 6.3649789,0.369198312 L6.3649789,2.42616034 L4.10126582,2.42616034 C3.89741145,2.42627673 3.7321839,2.59150428 3.73206751,2.79535865 L3.73206751,7.93248945 L1.6350211,7.93248945 C0.732457633,7.93353577 0.00104631666,8.66494708 0,9.56751055 L0,19.6329114 C0.00104631666,20.5354749 0.732457633,21.2668862 1.6350211,21.2679325 L6.36434599,21.2679325 L6.36434599,24.6308017 C6.36434599,24.8347043 6.52964171,25 6.7335443,25 L18.2664557,25 C18.4703583,25 18.635654,24.8347043 18.635654,24.6308017 L18.635654,21.2679325 L23.3649789,21.2679325 C24.2675424,21.2668862 24.9989537,20.5354749 25,19.6329114 L25,9.56751055 C24.9989537,8.66494708 24.2675424,7.93353577 23.3649789,7.93248945 Z M20.5295359,3.16455696 L20.5295359,7.93248945 L18.6350211,7.93248945 L18.6350211,3.16455696 L20.5295359,3.16455696 Z M7.10337553,0.738396624 L17.8966245,0.738396624 L17.8966245,7.93248945 L7.10337553,7.93248945 L7.10337553,0.738396624 Z M4.47046414,3.16455696 L6.3649789,3.16455696 L6.3649789,7.93248945 L4.47046414,7.93248945 L4.47046414,3.16455696 Z M4.47046414,20.5295359 L4.47046414,16.7721519 L6.36434599,16.7721519 L6.36434599,20.5295359 L4.47046414,20.5295359 Z M7.10274262,24.2616034 L7.10274262,16.7721519 L17.8972574,16.7721519 C17.8972574,16.7721519 17.8972574,20.8966245 17.8972574,20.8987342 C17.8972574,20.9008439 17.8972574,24.2616034 17.8972574,24.2616034 L7.10274262,24.2616034 Z M18.635654,20.5295359 L18.635654,16.7721519 L20.5295359,16.7721519 L20.5295359,20.5295359 L18.635654,20.5295359 Z M24.2616034,19.6329114 C24.2610221,20.1278624 23.85993,20.5289546 23.3649789,20.5295359 L21.2679325,20.5295359 L21.2679325,16.4029536 C21.2678161,16.1990992 21.1025885,16.0338717 20.8987342,16.0337553 L4.10126582,16.0337553 C3.89741145,16.0338717 3.7321839,16.1990992 3.73206751,16.4029536 L3.73206751,20.5295359 L1.6350211,20.5295359 C1.14007004,20.5289546 0.738977895,20.1278624 0.738396624,19.6329114 L0.738396624,9.56751055 C0.738977895,9.0725595 1.14007004,8.67146735 1.6350211,8.67088608 L23.3649789,8.67088608 C23.85993,8.67146735 24.2610221,9.0725595 24.2616034,9.56751055 L24.2616034,19.6329114 Z"/><path d="M7.50696203 10.4632911 2.26793249 10.4632911C2.06402989 10.4632911 1.89873418 10.6285869 1.89873418 10.8324895 1.89873418 11.036392 2.06402989 11.2016878 2.26793249 11.2016878L7.50696203 11.2016878C7.71086462 11.2016878 7.87616034 11.036392 7.87616034 10.8324895 7.87616034 10.6285869 7.71086462 10.4632911 7.50696203 10.4632911L7.50696203 10.4632911ZM15.664557 17.8270042 9.33544304 17.8270042C9.13154044 17.8270042 8.96624473 17.9922999 8.96624473 18.1962025 8.96624473 18.4001051 9.13154044 18.5654008 9.33544304 18.5654008L15.664557 18.5654008C15.8684596 18.5654008 16.0337553 18.4001051 16.0337553 18.1962025 16.0337553 17.9922999 15.8684596 17.8270042 15.664557 17.8270042ZM15.664557 19.7257384 9.33544304 19.7257384C9.13154044 19.7257384 8.96624473 19.8910341 8.96624473 20.0949367 8.96624473 20.2988393 9.13154044 20.464135 9.33544304 20.464135L15.664557 20.464135C15.8684596 20.464135 16.0337553 20.2988393 16.0337553 20.0949367 16.0337553 19.8910341 15.8684596 19.7257384 15.664557 19.7257384ZM15.664557 21.6244726 9.33544304 21.6244726C9.13154044 21.6244726 8.96624473 21.7897683 8.96624473 21.9936709 8.96624473 22.1975735 9.13154044 22.3628692 9.33544304 22.3628692L15.664557 22.3628692C15.8684596 22.3628692 16.0337553 22.1975735 16.0337553 21.9936709 16.0337553 21.7897683 15.8684596 21.6244726 15.664557 21.6244726ZM22.0991561 9.83037975C21.5457062 9.83037975 21.0970464 10.2790395 21.0970464 10.8324895 21.0970464 11.3859394 21.5457062 11.8345992 22.0991561 11.8345992 22.652606 11.8345992 23.1012658 11.3859394 23.1012658 10.8324895 23.1005684 10.2793287 22.6523169 9.83107716 22.0991561 9.83037975ZM22.0991561 11.0962025C21.9535114 11.0962025 21.835443 10.9781342 21.835443 10.8324895 21.835443 10.6868447 21.9535114 10.5687764 22.0991561 10.5687764 22.2448008 10.5687764 22.3628692 10.6868447 22.3628692 10.8324895 22.3627529 10.9780859 22.2447526 11.0960862 22.0991561 11.0962025L22.0991561 11.0962025ZM19.5938819 9.83037975C19.0404319 9.83037975 18.5917722 10.2790395 18.5917722 10.8324895 18.5917722 11.3859394 19.0404319 11.8345992 19.5938819 11.8345992 20.1473318 11.8345992 20.5959916 11.3859394 20.5959916 10.8324895 20.5952942 10.2793287 20.1470426 9.83107716 19.5938819 9.83037975ZM19.5938819 11.0962025C19.4482371 11.0962025 19.3301688 10.9781342 19.3301688 10.8324895 19.3301688 10.6868447 19.4482371 10.5687764 19.5938819 10.5687764 19.7395266 10.5687764 19.8575949 10.6868447 19.8575949 10.8324895 19.8574786 10.9780859 19.7394784 11.0960862 19.5938819 11.0962025L19.5938819 11.0962025ZM17.0886076 9.83037975C16.5352676 9.83037975 16.0866535 10.2788684 16.0864982 10.8322084 16.0863431 11.3855484 16.5347056 11.8342884 17.0880455 11.8345992 17.6413854 11.8349096 18.0902513 11.3866731 18.0907173 10.8333333 18.090485 10.279843 17.6420975 9.83107796 17.0886076 9.83037975ZM17.0886076 11.0962025C16.9818689 11.0962025 16.8856566 11.0318587 16.8448888 10.9332122 16.8041209 10.8345657 16.8268382 10.7210721 16.9024347 10.6457175 16.9780312 10.570363 17.091597 10.5480096 17.1901123 10.5890934 17.2886276 10.6301772 17.3526622 10.7265952 17.352322 10.8333333 17.3517401 10.9786002 17.2338755 11.0960876 17.0886076 11.0962025L17.0886076 11.0962025Z"/></g></svg>