<svg xmlns="http://www.w3.org/2000/svg" width="20" height="26" viewBox="0 0 20 26"><path fill="#191970" d="M12.0006132,25.0000488 C11.6848113,25.0000488 11.3957547,24.7855469 11.3033962,24.4592773 L10.9574057,23.2364746 L8.20146226,19.1097656 L7.56367925,19.4087891 L7.25146226,20.0513672 C7.04915094,20.4678223 6.68245283,20.7709473 6.24528302,20.882959 C5.80811321,20.9949219 5.34712264,20.9040039 4.9804717,20.6333984 L2.88042453,19.083252 L1.09433962,20.0582031 C0.832641509,20.2010742 0.516886792,20.1665527 0.28995283,19.9703613 C0.0628773585,19.7740234 -0.0262264151,19.4584473 0.0629716981,19.1662598 C0.243726415,18.5744141 1.2320283,16.4461426 1.95231132,15.8001465 C2.24396226,15.5384277 2.68259434,15.5574707 2.95084906,15.8438477 L3.80188679,16.7519043 L5.09863208,17.3723633 L5.14938679,16.7891602 C4.64839623,15.736377 4.62080189,14.500293 5.10537736,13.3991699 L5.53740566,12.4175293 L6.10683962,9.74189453 L4.63632075,9.74189453 L4.43268868,10.8501953 C4.61438679,11.0937012 4.92471698,11.5929688 4.86820755,12.1006836 C4.76683962,13.0125 4.03514151,13.4498047 3.36551887,13.4094238 C2.69551887,13.3696777 2.01726415,12.8491699 2.01726415,11.9313965 L2.01726415,11.5929199 C2.01726415,11.390625 2.17566038,11.226709 2.37103774,11.226709 C2.56641509,11.226709 2.72481132,11.390625 2.72481132,11.5929199 L2.72481132,11.9313965 C2.72481132,12.4527344 3.09179245,12.6595215 3.40603774,12.6781738 C3.72018868,12.6971191 4.10768868,12.5348145 4.16533019,12.0169434 C4.19485849,11.7512695 3.92745283,11.3510254 3.79325472,11.198877 C3.71816038,11.1136719 3.68561321,10.9961914 3.70641509,10.8828613 L3.99599057,9.30717773 C4.02773585,9.13442383 4.17363208,9.009375 4.34353774,9.009375 L4.91495283,9.009375 L4.91495283,7.63037109 C4.18731132,7.71777344 3.58268868,7.81889648 3.22424528,7.90249023 C2.93018868,7.97109375 2.72481132,8.23676758 2.72481132,8.54853516 L2.72481132,10.1280273 C2.72481132,10.3303223 2.56641509,10.4942383 2.37103774,10.4942383 C2.17566038,10.4942383 2.01726415,10.3303223 2.01726415,10.1280273 L2.01726415,8.54853516 C2.01726415,7.8918457 2.44966981,7.33237305 3.06872642,7.18798828 C3.88726415,6.99707031 5.93481132,6.71806641 7.84834906,6.696875 L7.93726415,6.49335938 C7.5025,6.08212891 6.58981132,5.03818359 6.58981132,3.52192383 C6.58981132,2.21953125 7.13806604,1.16811523 8.13353774,0.561279297 C8.30198113,0.458740234 8.51877358,0.516845703 8.61792453,0.691015625 C8.71707547,0.865283203 8.6609434,1.08979492 8.49259434,1.19243164 C7.72183962,1.66220703 7.29740566,2.48950195 7.29740566,3.52192383 C7.29740566,5.10341797 8.56650943,6.0871582 8.57933962,6.096875 C8.71396226,6.19931641 8.76103774,6.38525391 8.69221698,6.54287109 L8.51858491,6.94033203 L10.1695755,8.17666016 L10.4673585,7.72241211 C10.4525943,7.68212891 10.4445755,7.63842773 10.4445755,7.59282227 C10.4445755,7.39052734 10.6029717,7.22661133 10.7983491,7.22661133 C11.9415566,7.22661133 12.781934,7.15107422 13.1093396,6.33886719 C12.4579245,6.24213867 12.062217,5.96777344 12.042783,5.95410156 C11.8813679,5.84018555 11.8396698,5.61235352 11.949717,5.44521484 C12.0593396,5.27880859 12.278066,5.23540039 12.4393396,5.34750977 C12.4488679,5.35395508 12.752783,5.55507813 13.2533962,5.61992188 C13.2576887,5.54619141 13.2598585,5.46918945 13.2598585,5.38862305 C13.2598585,5.26591797 13.3192453,5.15136719 13.4180189,5.08349609 C13.6715094,4.909375 13.7325,4.77294922 13.7293396,4.72514648 C13.7261792,4.67744141 13.6509434,4.56191406 13.3889623,4.43134766 C13.2665094,4.3703125 13.1886792,4.24204102 13.1886792,4.10136719 C13.1886792,2.96547852 13.0157075,2.18823242 12.6442925,1.65532227 C12.2112736,1.034375 11.473066,0.732421875 10.3872642,0.732421875 C10.1286321,0.732421875 9.8804717,0.750878906 9.64966981,0.787304688 C9.45660377,0.817626953 9.27608491,0.68046875 9.24660377,0.480517578 C9.21716981,0.280517578 9.34985849,0.09375 9.54301887,0.06328125 C9.8090566,0.0212890625 10.093066,2.77555756e-15 10.3872642,2.77555756e-15 C13.4041509,2.77555756e-15 13.8617925,2.15375977 13.8941038,3.88339844 C14.3100472,4.14990234 14.4204245,4.45419922 14.4350943,4.675 C14.4504245,4.90561523 14.3756604,5.23959961 13.9635849,5.57807617 C13.8988679,7.18686523 13.0039623,7.70869141 12.0738208,7.87788086 C13.0181132,8.50107422 13.7966509,9.20458984 14.1556604,9.54667969 L15.0442925,8.92519531 C15.0823113,8.61977539 15.2040094,8.04033203 15.5904717,7.72285156 C16.285,7.15224609 17.1004245,7.37880859 17.5470283,7.89736328 C17.9936321,8.41591797 18.1176887,9.28037109 17.4907547,9.92939453 L15.1990094,12.301709 C14.750283,12.7661621 14.0622642,12.845459 13.5258962,12.4944336 L11.2889151,11.0304688 L11.0218396,11.7029297 C10.9475472,11.8899902 10.7408019,11.9793945 10.5601415,11.9023926 C10.379434,11.8254883 10.2931604,11.6115234 10.3674528,11.4244629 L10.7946698,10.3486816 C10.8343868,10.248584 10.9148585,10.171875 11.014434,10.1390137 C11.1141038,10.1061523 11.2225943,10.1205566 11.3108962,10.1783691 L11.9924528,10.6244141 L12.7772642,9.29750977 C12.2982547,8.90766602 11.7008019,8.46796875 11.0665566,8.11259766 L10.5501887,8.90024414 C10.4964623,8.98217773 10.4129717,9.03808594 10.3187264,9.05527344 C10.2245283,9.07246094 10.1275943,9.04936523 10.0500943,8.99130859 L7.96301887,7.42836914 C7.17551887,7.43286133 6.36212264,7.48325195 5.62240566,7.55410156 L5.62240566,9.009375 L6.54698113,9.009375 C6.65415094,9.009375 6.75556604,9.05966797 6.82273585,9.14619141 C6.88985849,9.23266602 6.91551887,9.34604492 6.89245283,9.45439453 L6.22028302,12.6128418 C6.21495283,12.6379883 6.2070283,12.6625 6.19674528,12.6858887 L5.74919811,13.7027832 C5.64910377,13.9302246 5.57580189,14.1646973 5.52882075,14.4020508 L9.18495283,14.4020508 L9.84627358,12.7368164 C9.92051887,12.5498047 10.1273113,12.4604492 10.3079717,12.5373535 C10.4886792,12.614209 10.5749528,12.8282227 10.5006604,13.0152832 L9.80754717,14.7606934 L11.2156132,17.9547363 C11.2966981,18.1387207 11.2183962,18.355957 11.0406604,18.4399414 C10.8629245,18.5239746 10.653066,18.4428711 10.571934,18.2587891 L10.4767925,18.0430176 L8.85650943,18.8026855 L10.1475943,20.7359375 L11.3453774,20.0133789 L11.1726415,19.6215332 C11.0915094,19.4375488 11.1698585,19.2203125 11.3475943,19.1363281 C11.5253774,19.0524902 11.7351887,19.1333984 11.8163208,19.3174805 L12.8348113,21.627832 L15.3688208,21.627832 C15.6646226,21.627832 15.9283019,21.8107422 16.0406132,22.0937988 C16.153066,22.3772949 16.0895283,22.6996582 15.8787264,22.9151855 C15.1953774,23.6140137 13.9964151,24.539502 12.165566,24.9803711 C12.1104245,24.9936523 12.0550943,25.0000488 12.0006132,25.0000488 L12.0006132,25.0000488 Z M11.7457075,23.4167969 L11.9824528,24.2533691 C11.9852358,24.2632324 11.995566,24.2694336 12.005283,24.2669922 C13.7633019,23.8436523 14.8751887,22.9118652 15.3815566,22.3940918 C15.3872642,22.3882813 15.3910377,22.3844238 15.3861321,22.3720215 C15.3814623,22.3602539 15.3769811,22.3602539 15.3688679,22.3602539 L12.8890566,22.3602539 C12.794434,22.6532227 12.6196226,22.9116699 12.3798585,23.1074219 C12.1907547,23.2616699 11.9744811,23.3663086 11.7457075,23.4167969 L11.7457075,23.4167969 Z M10.5511321,21.3401367 L11.4712264,22.7178711 C11.6416981,22.7077148 11.8048585,22.6439941 11.9417453,22.5322754 C12.0940566,22.407959 12.1981132,22.2370117 12.2406132,22.044043 L11.6406132,20.682959 L10.5511321,21.3401367 Z M4.74174528,19.5576172 L5.39127358,20.0370605 C5.5895283,20.1833496 5.83882075,20.232666 6.07523585,20.1720215 C6.31160377,20.1114746 6.50995283,19.9475098 6.61933962,19.7223145 L6.88542453,19.1746582 L5.77627358,17.7488281 L5.75825472,17.9556641 C5.74792453,18.0743164 5.68254717,18.1803223 5.58292453,18.2398926 C5.48419811,18.298877 5.3640566,18.305127 5.26023585,18.2564941 L4.74174528,19.5576172 Z M2.42971698,16.3481445 C2.42481132,16.3481445 2.41981132,16.3499512 2.41570755,16.3536621 C1.85066038,16.8604492 0.913773585,18.8104004 0.737688679,19.3870117 C0.735235849,19.3949707 0.733773585,19.3998047 0.743537736,19.408252 C0.753018868,19.4164062 0.757028302,19.4143066 0.764292453,19.4104004 L2.49443396,18.4659668 C2.40660377,17.9054688 2.61556604,17.3391113 3.02985849,16.9799316 L2.44306604,16.3538086 C2.43948113,16.35 2.43466981,16.3481445 2.42971698,16.3481445 Z M3.20853774,18.4259277 L4.15028302,19.1210449 L4.61735849,17.9489258 L3.59556604,17.4600098 C3.27570755,17.6552734 3.11523585,18.0505371 3.20853774,18.4259277 L3.20853774,18.4259277 Z M5.4665566,15.1344727 C5.48457547,15.8274414 5.71957547,16.5081055 6.15915094,17.0731445 L7.4075,18.6779785 L10.1831132,17.376709 L9.19466981,15.1344727 L5.4665566,15.1344727 Z M12.5906132,11.0158203 L13.9040094,11.8753418 C14.1587736,12.0422363 14.4856132,12.004541 14.6987264,11.7837891 L16.9904717,9.41147461 C17.3466038,9.04282227 17.2283491,8.62797852 17.0189151,8.38476563 C16.8094811,8.14155273 16.4248585,7.97246094 16.0303302,8.29658203 C15.8255189,8.46484375 15.7426415,8.9418457 15.7346226,9.14648438 C15.7300472,9.26279297 15.6723585,9.36987305 15.5791981,9.43505859 L14.3168396,10.3178711 C14.1771226,10.4154785 13.990283,10.3976074 13.8703302,10.2751465 C13.865,10.2697266 13.6629717,10.0649414 13.3289623,9.76743164 L12.5906132,11.0158203 Z M17.3049528,21.2404297 C15.8348113,21.2404297 14.6387264,20.0023438 14.6387264,18.4805176 C14.6387264,16.9586426 15.8347642,15.7205566 17.3049528,15.7205566 C17.6532075,15.7205566 17.9920755,15.7891113 18.3120755,15.9243652 C18.4929717,16.0007813 18.5797642,16.2145508 18.5058962,16.4018066 C18.4320755,16.5890137 18.2254717,16.6788086 18.0446698,16.6023926 C17.8099528,16.5032715 17.5610849,16.4529297 17.3049528,16.4529297 C16.2249528,16.4529297 15.3462736,17.3625 15.3462736,18.4804688 C15.3462736,19.5984375 16.2249057,20.507959 17.3049528,20.507959 C18.385,20.507959 19.2636321,19.5984375 19.2636321,18.4804688 C19.2636321,18.0696777 19.1457075,17.6741699 18.9225472,17.3367676 C18.8121698,17.169873 18.8533962,16.9419434 19.0146226,16.8276855 C19.1758491,16.7133789 19.3959906,16.7561523 19.5063679,16.9229492 C19.8104717,17.3827637 19.9711792,17.9212891 19.9711792,18.4804199 C19.9711792,20.0022949 18.7751415,21.2404297 17.3049528,21.2404297 L17.3049528,21.2404297 Z M9.99886792,5.91494141 C9.75235849,5.91494141 9.51400943,5.82587891 9.31108491,5.65478516 C8.99679245,5.38979492 8.8015566,4.95004883 8.8015566,4.50708008 C8.8015566,3.86582031 9.26004717,3.38227539 9.86801887,3.38227539 C10.1051415,3.38227539 10.2607075,3.44335938 10.3934906,3.50932617 C10.5696226,3.596875 10.6438679,3.815625 10.5592925,3.99799805 C10.474717,4.18037109 10.2634434,4.25732422 10.0872642,4.16962891 C10.0057075,4.12915039 9.96037736,4.11474609 9.86801887,4.11474609 C9.60339623,4.11474609 9.50910377,4.31743164 9.50910377,4.50712891 C9.50910377,4.73193359 9.60674528,4.95952148 9.75787736,5.08691406 C9.85537736,5.1690918 9.96226415,5.1984375 10.0755189,5.17421875 C10.2669811,5.13339844 10.4540094,5.26069336 10.4935849,5.45869141 C10.5331132,5.65678711 10.4100943,5.85048828 10.2187736,5.89145508 C10.145283,5.90717773 10.0716981,5.91494141 9.99886792,5.91494141 L9.99886792,5.91494141 Z M12.052217,4.46767578 C11.8568396,4.46767578 11.6984434,4.30375977 11.6984434,4.10146484 L11.6984434,3.70644531 C11.6984434,3.50415039 11.8568396,3.34023437 12.052217,3.34023437 C12.2475943,3.34023437 12.4059906,3.50415039 12.4059906,3.70644531 L12.4059906,4.10146484 C12.4059906,4.30375977 12.2475943,4.46767578 12.052217,4.46767578 Z" transform="translate(0 .5)"/></svg>