<svg xmlns="http://www.w3.org/2000/svg" width="24" height="26" viewBox="0 0 24 26"><path fill="#191970" d="M22.9608714,9.88737817 C22.9608714,9.61115984 22.8555581,9.35146199 22.664305,9.15618908 C22.4730519,8.96091618 22.2187635,8.85331384 21.9483465,8.85336257 L21.1207282,8.85336257 C20.7134087,8.85336257 20.333861,9.07714425 20.1302012,9.4374269 C20.1189876,9.45726121 20.1097303,9.47797271 20.1023817,9.49926901 L18.0397303,9.32251462 C17.7076618,9.29410331 17.3752116,9.32002924 17.0517801,9.39975634 C17.0315477,9.40467836 17.0130809,9.40034113 16.9967137,9.38669591 C16.9859295,9.37768031 16.9679876,9.35755361 16.9690851,9.32334308 C16.9771017,9.0789961 16.9495685,8.83484405 16.8872967,8.59756335 L16.5486909,7.30696881 C16.4174668,6.80682261 16.103388,6.38884016 15.6643838,6.12997076 L15.6314585,6.11057505 L15.9101307,5.61764133 C16.1804523,5.69668616 16.4603651,5.73659844 16.7457178,5.73659844 C17.4866328,5.73659844 18.0894523,5.1210039 18.0894523,4.36432749 L18.0894523,2.49829435 C18.2712095,2.48084795 18.4134564,2.32461014 18.4134564,2.13445419 C18.4134564,1.93260234 18.2532199,1.76895712 18.0555726,1.76895712 L18.0414481,1.76895712 C17.8306307,0.759454191 16.950666,0 15.9002531,0 C14.8498402,0 13.9698755,0.759454191 13.7590581,1.76895712 L13.7484647,1.76895712 C13.5508174,1.76895712 13.3905809,1.93260234 13.3905809,2.13445419 C13.3905809,2.32339181 13.5309668,2.4788499 13.7110062,2.49795322 C13.7110062,2.71817739 13.7087158,2.82383041 13.7368216,3.04283626 C13.7671701,3.27967836 13.7212178,3.51457115 13.603832,3.72217349 L13.0981183,4.6167154 C12.9527697,4.53104288 12.0379232,3.9915692 12.0327697,3.98854776 C11.8616058,3.8875731 11.6427241,3.94751462 11.5439004,4.12231969 C11.4450768,4.29712476 11.503722,4.52066277 11.6748859,4.62158869 C12.0834938,4.86252437 11.9425353,4.7795809 11.9730747,4.79741715 C12.2283651,4.94814815 12.3095809,5.27582846 12.1661888,5.5294347 C12.0233693,5.78206628 11.7145871,5.8714425 11.4612054,5.73167641 L10.5909751,5.25891813 C10.4458651,5.17270955 10.3145934,5.06598441 10.2006432,4.9415692 C9.8434751,4.55155945 9.22529046,4.61496101 8.95578008,5.06539961 C8.82226556,5.28845029 8.65525311,5.4872807 8.45937137,5.65633528 L6.93659959,6.9707115 C6.69376349,7.18031189 6.5900249,7.51842105 6.67229046,7.83216374 C6.71175311,7.98250487 6.66933195,8.14429825 6.56153734,8.25433723 L5.97632573,8.85204678 C5.86037137,8.9704191 5.67264938,8.9705653 5.5566473,8.85204678 L5.30670124,8.59683236 C5.19904979,8.48689084 5.13973651,8.34074074 5.13973651,8.18523392 C5.13973651,8.02977583 5.19904979,7.88362573 5.30670124,7.77363548 L9.39855394,3.59473684 C9.51379253,3.47704678 9.69282988,3.45297271 9.83397925,3.53620858 L10.2359544,3.77324561 C10.4071183,3.87417154 10.626,3.81423002 10.7248237,3.63947368 C10.8236473,3.46466862 10.7650021,3.2411306 10.5938382,3.14020468 L10.1918631,2.90316764 C9.77056224,2.65482456 9.23631328,2.72665692 8.89245851,3.07787524 L4.80060581,7.25677388 C4.55776971,7.50477583 4.4240166,7.83450292 4.4240166,8.18523392 C4.4240166,8.53601365 4.55776971,8.86574074 4.80060581,9.11374269 L5.05055187,9.36895712 C5.24180498,9.56427875 5.49604564,9.67183236 5.76651037,9.67183236 C6.0369751,9.67183236 6.29121577,9.56427875 6.48246888,9.36895712 L7.0676805,8.77124756 C7.35570539,8.47709552 7.46913071,8.04478558 7.36372199,7.64298246 C7.35284232,7.60146199 7.36653734,7.55672515 7.39865145,7.52904483 L8.92142324,6.21466862 C9.17590249,5.99502924 9.39297095,5.73664717 9.56656846,5.44663743 C9.57740041,5.4285575 9.59352905,5.41822612 9.61457261,5.41608187 C9.62841079,5.41471735 9.65508506,5.41598441 9.67803734,5.44098441 C9.84156639,5.61949318 10.0300519,5.77227096 10.2383402,5.89507797 C10.2481224,5.90077973 10.4884772,6.03118908 10.9887988,6.30302144 C10.2051286,8.02012671 9.64883402,9.23908382 8.59689419,11.5439084 C8.41198755,11.9490741 8.30910788,12.380653 8.28820747,12.8152534 C7.74880498,13.7694444 7.1056639,14.9070663 6.56769295,15.8586257 C6.51949793,15.9438596 6.43379668,15.998538 6.338361,16.004922 C5.00579253,16.0942495 3.7605,16.7403509 2.90358299,17.8030214 C2.53138382,18.2646199 2.09681743,18.643616 1.61200415,18.9294834 C1.3711722,19.0714425 0.61856639,19.5152534 0.461860996,19.6076511 C0.266599585,19.722807 0.126929461,19.9086745 0.0685705394,20.1310916 C0.0102116183,20.3535088 0.0401784232,20.5858674 0.152935685,20.7852339 L1.0858195,22.4354288 C1.27325519,22.7669591 1.57583402,23.0040936 1.93786929,23.1031676 L2.88554564,23.3625244 C2.98484647,23.3896686 3.08553112,23.4031189 3.18559544,23.4031189 C3.68229046,23.4031189 4.15713071,23.0663255 4.29713485,22.5281189 C4.38679668,22.1834308 4.23791701,21.8179825 3.93509959,21.639425 L3.13372614,21.1669103 C3.12108091,21.1594542 3.1116805,21.1469298 3.10791079,21.1325536 L3.07541494,21.0086745 C3.06892531,20.9839181 3.07951867,20.9576998 3.10127801,20.9448343 C3.60326971,20.6487817 3.23216805,20.8677388 7.38886929,18.4167641 C7.8558361,18.1414717 8.28591701,17.804386 8.66723029,17.4150097 L10.0613548,15.9912281 C10.2793776,16.1085283 10.5115726,16.2019006 10.7546473,16.2684211 C10.9455187,16.3206628 11.1417822,16.2049708 11.1929834,16.0099415 C11.2441369,15.814961 11.1308071,15.6145712 10.939888,15.5622807 C10.1910996,15.3574074 9.57372614,14.8284113 9.246,14.1109162 C8.91827386,13.3934211 8.91822614,12.5703704 9.24571369,11.8528265 L9.80377386,10.6300682 C9.81556017,10.637037 10.5963672,11.0974172 10.8614398,11.2537037 C10.2491245,12.4906433 10.4391369,12.1025341 10.4028714,12.180117 C9.83202282,13.3898635 10.4535954,14.8367934 11.6943548,15.2027778 C12.0457967,15.3064327 12.6245187,15.545809 13.0012988,15.7072125 L12.796112,16.0701754 L12.5906867,16.0139864 C12.3999108,15.9617446 12.2035519,16.0774366 12.1523506,16.2724659 C12.1011971,16.4674464 12.214527,16.6678363 12.4054461,16.7201267 L12.5956017,16.7721735 C11.4594398,17.787768 11.5936224,18.5909357 10.3029025,19.9091618 L8.71404149,21.5318226 C8.41967012,21.8325049 8.41971784,22.3217349 8.71408921,22.6223684 L10.6788237,24.6288986 C11.1037988,25.0629142 11.7932739,25.0590643 12.2136203,24.618616 C12.4409959,24.3803119 12.4850394,24.0109649 12.3207946,23.7204678 L11.4697469,22.2150097 C11.4302365,22.1451754 11.4416888,22.0565789 11.4975664,21.9995127 C12.5183942,20.9567251 13.2911846,20.1677875 13.2810207,20.1781189 C13.2813071,20.1778265 13.2816411,20.1774854 13.2819274,20.1771442 C13.9798008,19.464425 14.9117303,18.5126706 15.5931888,17.8167641 C16.0056618,17.3955166 16.1985851,16.8151559 16.1223797,16.2245127 C16.046222,15.6338694 15.7128174,15.1243177 15.2076763,14.826462 C13.1861577,13.6344542 14.4341701,14.3687135 12.920083,13.4719298 C12.8143402,13.4091131 12.7780747,13.2700292 12.839249,13.1618421 C13.3768382,12.2109162 14.1074461,10.9185185 14.6446058,9.96837232 L14.8488382,10.7467349 C14.9747178,11.2265107 15.4023174,11.5615497 15.8886577,11.5615497 L18.5509793,11.5615497 C18.7486266,11.5615497 18.9088631,11.3979045 18.9088631,11.1960526 C18.9088631,10.9942008 18.7486266,10.8305556 18.5509793,10.8305556 L15.8886577,10.8305556 C15.7257012,10.8305556 15.5824523,10.7182749 15.5402697,10.5575049 L15.1507967,9.07300195 C15.9218693,7.70774854 15.8862718,7.77519493 15.9155228,7.71661793 L16.1962946,8.78674464 C16.2402905,8.95433723 16.2597116,9.12665692 16.2540809,9.29887914 C16.2366162,9.83201754 16.7171349,10.2344055 17.2200332,10.1102827 C17.468834,10.0489766 17.7246017,10.0290448 17.9802261,10.0508772 L20.2002988,10.2411306 C20.5337988,10.2696881 20.7889461,10.0344055 20.8067448,9.72480507 C20.8868631,9.63650097 21.0006701,9.58435673 21.1209668,9.58435673 L21.9485851,9.58435673 C22.1125913,9.58435673 22.2453423,9.71988304 22.2453423,9.8874269 L22.2453423,10.2483918 C22.2453423,10.569347 21.9896701,10.8304581 21.6754004,10.8304581 L20.221056,10.8304581 C20.0234087,10.8304581 19.8631722,10.9941033 19.8631722,11.1959552 C19.8631722,11.397807 20.0234087,11.5614522 20.221056,11.5614522 L21.6754004,11.5614522 C22.3843444,11.5614522 22.96111,10.9724172 22.96111,10.2483431 L22.9608714,9.88737817 Z M3.45606017,18.2676901 C3.62130705,18.062768 3.80368465,17.8753899 4.00157054,17.7069201 L4.79139627,19.1040448 L2.98847303,20.1670565 C2.97749793,20.1616472 2.62906224,20.0988304 2.424639,19.737232 L2.23228838,19.3969786 C2.6864668,19.0916179 3.09712656,18.712768 3.45606017,18.2676901 L3.45606017,18.2676901 Z M3.57712033,22.2723684 C3.60050207,22.2861598 3.61209751,22.3140838 3.60527386,22.3403021 C3.54328838,22.5785575 3.3039834,22.7202242 3.07069087,22.6563353 L2.12301452,22.3969786 C1.9456473,22.3484405 1.79743568,22.2323099 1.70562656,22.069883 L0.772742739,20.4196881 C0.7373361,20.3570663 0.758284232,20.2768519 0.819697095,20.2406433 L1.61701452,19.7705166 L1.80483195,20.1027778 C1.95132573,20.3619396 2.15942324,20.5707115 2.40870124,20.7131092 C2.3521556,20.8642788 2.34084647,21.0333333 2.3839834,21.1977583 L2.41647925,21.3216862 C2.4698278,21.5249513 2.59747303,21.6948343 2.77589004,21.7999513 L3.57712033,22.2723684 Z M5.41125104,18.7385478 L4.59121992,17.287963 C4.72931535,17.2069688 4.87232573,17.1339181 5.01877178,17.0695906 L5.82453527,18.4949318 L5.41125104,18.7385478 Z M7.03089004,17.783577 L6.44439004,18.129386 L5.7133527,16.8362573 C5.93390456,16.7836257 6.15860788,16.7494639 6.38512448,16.734308 C6.71957884,16.7119396 7.0195332,16.5211988 7.1875,16.2240741 L7.52653527,15.6243665 L8.46729253,16.5851852 L8.1609917,16.8980019 C7.82391286,17.2422027 7.4436971,17.5401559 7.03089004,17.783577 Z M9.45743776,15.5739279 L8.97338797,16.0682749 L7.8970166,14.9689571 L8.44004564,14.0084308 C8.62466598,14.6022904 8.96995228,15.1503899 9.45743776,15.5739279 L9.45743776,15.5739279 Z M15.9002531,0.730994152 C16.5532241,0.730994152 17.1083734,1.1670078 17.3011535,1.76895712 L14.4993527,1.76895712 C14.6921328,1.1670078 15.2472822,0.730994152 15.9002531,0.730994152 Z M14.2236867,4.08767057 C14.2871037,3.97548733 14.3380664,3.85852827 14.3763361,3.73820663 C14.4798361,3.77568226 14.5911141,3.79605263 14.7070207,3.79605263 C14.904668,3.79605263 15.0649046,3.63240741 15.0649046,3.43055556 C15.0649046,3.2287037 14.904668,3.06505848 14.7070207,3.06505848 C14.5705954,3.06505848 14.4568838,2.96364522 14.4344087,2.83075049 C14.4328817,2.81150097 14.4315934,2.79225146 14.4305436,2.77295322 C14.4355062,2.62153996 14.5576162,2.49990253 14.7070207,2.49990253 L17.3737324,2.49990253 L17.3737324,4.36418129 C17.3737324,4.71778752 17.0920539,5.00545809 16.7457656,5.00545809 C16.1502946,5.00545809 15.5893714,4.77582846 15.1610083,4.36617934 C15.0167573,4.22821637 14.7902407,4.23576998 14.6551515,4.3831384 C14.5200145,4.53045809 14.5274585,4.76179337 14.6717573,4.89975634 C14.8470726,5.06739766 15.0389938,5.21189084 15.2452303,5.33177388 L15.0116515,5.74493177 L13.7180207,4.98216374 L14.2236867,4.08767057 Z M11.1147739,7.75716374 C11.2202303,7.95916179 11.2405104,8.20516569 11.1532822,8.42865497 L10.4699627,10.1787037 C10.2786141,10.0658869 10.2967469,10.0765595 10.1072116,9.96481481 L11.1147739,7.75716374 Z M13.0277822,19.4026316 L12.1672386,18.5237817 C12.2337095,18.3948343 12.2883465,18.2788499 12.4133195,18.0859162 L13.365195,19.0579922 L13.0277822,19.4026316 Z M11.793751,19.1761209 L12.521639,19.9194932 L11.2297261,21.2388889 C11.0129917,21.1552144 10.8151535,21.0250487 10.6507178,20.857115 L10.5186826,20.722271 C10.6992946,20.522807 11.2252407,20.0731481 11.793751,19.1761209 L11.793751,19.1761209 Z M11.7007967,24.0858674 C11.7056162,24.0942982 11.7047095,24.1042885 11.7008921,24.1082846 C11.5600768,24.255848 11.3282635,24.2583333 11.1848237,24.1118421 L9.22008921,22.1053119 C9.20477178,22.0896199 9.20477178,22.0641326 9.22008921,22.0484893 L10.0125394,21.2391813 C10.0950913,21.3136452 10.3233257,21.608577 10.7774564,21.8347953 C10.6977676,22.0766569 10.7188112,22.3487329 10.8497012,22.5803606 L11.7007967,24.0858674 Z M15.0868548,17.2997563 L13.8712905,18.5411306 L12.8664959,17.514961 C13.0239647,17.3517544 13.1931245,17.205848 13.3698237,17.0782164 C13.5990124,16.9126218 13.6265456,16.5851365 13.4463631,16.3815302 C13.7195954,15.8981969 13.9243527,15.5360624 14.1881369,15.0693957 L14.8495539,15.4594055 C15.5019046,15.8440058 15.6199108,16.7553606 15.0868548,17.2997563 Z M13.3619502,15.0689571 C12.9780602,14.9031189 12.3088174,14.6230994 11.892861,14.5003899 C11.0769813,14.2597466 10.6709502,13.3000487 11.0462033,12.5002924 L11.4822012,11.6196881 L12.5338071,12.2397661 L12.2192033,12.7962963 C12.1803133,12.8650585 12.1508237,12.9367934 12.1302095,13.0098928 L11.8712925,12.8557018 C11.7005104,12.7540448 11.4814378,12.8129142 11.3818506,12.9873294 C11.2823112,13.1616959 11.3400021,13.3854776 11.5107365,13.4871832 L13.5689502,14.7029727 L13.3619502,15.0689571 Z M15.2628382,7.4122807 L12.8916909,11.6066277 C12.2673029,11.2384503 11.4212178,10.7395712 11.0963548,10.5480019 L11.8181349,8.69936647 C12.0478963,8.11101365 11.8886618,7.44088694 11.4513755,7.01959064 L11.6750768,6.5294347 C12.1169917,6.54424951 12.5485519,6.31505848 12.7860913,5.89498051 C12.8781867,5.73211501 12.9326328,5.5542885 12.9481411,5.37231969 C13.6448216,5.78308967 14.4429979,6.25375244 15.0532614,6.61354776 C15.3272573,6.77519493 15.4210705,7.13240741 15.2628382,7.4122807 L15.2628382,7.4122807 Z" transform="translate(.5 .5)"/></svg>