<svg xmlns="http://www.w3.org/2000/svg" width="22" height="26" viewBox="0 0 22 26"><g fill="none" transform="translate(0 .5)"><path fill="#FFF" d="M7.15,1.06382979 C3.50492065,1.06382979 0.55,3.9215867 0.55,7.44680851 C0.55,10.9720303 3.50492065,13.8297872 7.15,13.8297872 C10.7950793,13.8297872 13.75,10.9720303 13.75,7.44680851 C13.75,5.7539373 13.0546449,4.13040168 11.8169048,2.93336097 C10.5791647,1.73632026 8.90042883,1.06382979 7.15,1.06382979 Z M9.834,10.106383 C8.64204534,11.2417359 6.82836801,11.5026773 5.34630388,10.7520467 C3.86423975,10.0014161 3.05305347,8.41104314 3.33913454,6.8168866 C3.6252156,5.22273005 4.94307617,3.98971407 6.6,3.76595745 C6.9641695,3.70742876 7.3358305,3.70742876 7.7,3.76595745 C9.1455784,3.97265393 10.3455522,4.95301609 10.7978498,6.29685839 C11.2501474,7.64070069 10.8767935,9.11634666 9.834,10.106383 L9.834,10.106383 Z"/><rect width="13.2" height="5.319" x=".55" y="19.149" fill="#F8F9F9" rx="2.66"/><path fill="#FFF" d="M13.8268845,15.2592149 L21.1340431,15.1972451 C22.6243507,15.1846063 23.8427296,16.3824935 23.8553684,17.8728011 C23.8554959,17.8878396 23.8554977,17.9028788 23.8553738,17.9179173 C23.842828,19.4407194 22.6116294,20.672216 21.0888304,20.6851304 L13.7816718,20.7471001 C12.2913642,20.759739 11.0729853,19.5618517 11.0603465,18.0715441 C11.060219,18.0565057 11.0602172,18.0414664 11.0603411,18.026428 C11.0728869,16.5036259 12.3040855,15.2721292 13.8268845,15.2592149 Z" transform="rotate(75 17.458 17.972)"/><rect width="13.2" height="5.319" x=".55" y="13.83" fill="#F8F9F9" rx="2.66" transform="rotate(-180 7.15 16.49)"/><path fill="#191970" d="M2.75 20.7446809C2.54289298 20.7440738 2.35369763 20.6309998 2.2605 20.4521277L1.7105 19.3882979C1.5997573 19.1311026 1.71298276 18.8348424 1.9700658 18.7091308 2.22714884 18.5834192 2.54097396 18.6708549 2.6895 18.9095745L3.2395 19.9734043C3.32528308 20.1380416 3.31679989 20.3338978 3.21708031 20.4910201 3.11736073 20.6481425 2.94062626 20.7441229 2.75 20.7446809L2.75 20.7446809ZM4.95 20.7446809C4.74289298 20.7440738 4.55369763 20.6309998 4.4605 20.4521277L3.9105 19.3882979C3.8042066 19.217457 3.80562996 19.0034731 3.91418723 18.833969 4.02274451 18.6644648 4.22020329 18.567909 4.42570748 18.5838395 4.63121168 18.5997701 4.81024643 18.7255114 4.8895 18.9095745L5.4395 19.9734043C5.52528308 20.1380416 5.51679989 20.3338978 5.41708031 20.4910201 5.31736073 20.6481425 5.14062626 20.7441229 4.95 20.7446809L4.95 20.7446809ZM7.15 20.7446809C6.94289298 20.7440738 6.75369763 20.6309998 6.6605 20.4521277L6.1105 19.3882979C6.0042066 19.217457 6.00562996 19.0034731 6.11418723 18.833969 6.22274451 18.6644648 6.42020329 18.567909 6.62570748 18.5838395 6.83121168 18.5997701 7.01024643 18.7255114 7.0895 18.9095745L7.6395 19.9734043C7.72528308 20.1380416 7.71679989 20.3338978 7.61708031 20.4910201 7.51736073 20.6481425 7.34062626 20.7441229 7.15 20.7446809L7.15 20.7446809ZM9.35 20.7446809C9.14289298 20.7440738 8.95369763 20.6309998 8.8605 20.4521277L8.3105 19.3882979C8.2042066 19.217457 8.20562996 19.0034731 8.31418723 18.833969 8.42274451 18.6644648 8.62020329 18.567909 8.82570748 18.5838395 9.03121168 18.5997701 9.21024643 18.7255114 9.2895 18.9095745L9.8395 19.9734043C9.92528308 20.1380416 9.91679989 20.3338978 9.81708031 20.4910201 9.71736073 20.6481425 9.54062626 20.7441229 9.35 20.7446809L9.35 20.7446809ZM11.55 20.7446809C11.342893 20.7440738 11.1536976 20.6309998 11.0605 20.4521277L10.5105 19.3882979C10.4042066 19.217457 10.40563 19.0034731 10.5141872 18.833969 10.6227445 18.6644648 10.8202033 18.567909 11.0257075 18.5838395 11.2312117 18.5997701 11.4102464 18.7255114 11.4895 18.9095745L12.0395 19.9734043C12.1252831 20.1380416 12.1167999 20.3338978 12.0170803 20.4910201 11.9173607 20.6481425 11.7406263 20.7441229 11.55 20.7446809L11.55 20.7446809ZM2.2 25C2.00937374 24.9994421 1.83263927 24.9034616 1.73291969 24.7463393 1.63320011 24.5892169 1.62471692 24.3933608 1.7105 24.2287234L2.2605 23.1648936C2.40902604 22.9261741 2.72285116 22.8387383 2.9799342 22.9644499 3.23701724 23.0901616 3.3502427 23.3864217 3.2395 23.643617L2.6895 24.7074468C2.59630237 24.886319 2.40710702 24.9993929 2.2 25L2.2 25ZM4.4 25C4.20937374 24.9994421 4.03263927 24.9034616 3.93291969 24.7463393 3.83320011 24.5892169 3.82471692 24.3933608 3.9105 24.2287234L4.4605 23.1648936C4.60902604 22.9261741 4.92285116 22.8387383 5.1799342 22.9644499 5.43701724 23.0901616 5.5502427 23.3864217 5.4395 23.643617L4.8895 24.7074468C4.79630237 24.886319 4.60710702 24.9993929 4.4 25L4.4 25ZM6.6 25C6.40937374 24.9994421 6.23263927 24.9034616 6.13291969 24.7463393 6.03320011 24.5892169 6.02471692 24.3933608 6.1105 24.2287234L6.6605 23.1648936C6.80902604 22.9261741 7.12285116 22.8387383 7.3799342 22.9644499 7.63701724 23.0901616 7.7502427 23.3864217 7.6395 23.643617L7.0895 24.7074468C6.99630237 24.886319 6.80710702 24.9993929 6.6 25L6.6 25ZM8.8 25C8.60937374 24.9994421 8.43263927 24.9034616 8.33291969 24.7463393 8.23320011 24.5892169 8.22471692 24.3933608 8.3105 24.2287234L8.8605 23.1648936C9.00902604 22.9261741 9.32285116 22.8387383 9.5799342 22.9644499 9.83701724 23.0901616 9.9502427 23.3864217 9.8395 23.643617L9.2895 24.7074468C9.19630237 24.886319 9.00710702 24.9993929 8.8 25L8.8 25ZM11 25C10.8093737 24.9994421 10.6326393 24.9034616 10.5329197 24.7463393 10.4332001 24.5892169 10.4247169 24.3933608 10.5105 24.2287234L11.0605 23.1648936C11.209026 22.9261741 11.5228512 22.8387383 11.7799342 22.9644499 12.0370172 23.0901616 12.1502427 23.3864217 12.0395 23.643617L11.4895 24.7074468C11.3963024 24.886319 11.207107 24.9993929 11 25L11 25ZM13.75 22.3404255.55 22.3404255C.246243388 22.3404255 0 22.1022791 0 21.8085106 0 21.5147422.246243388 21.2765957.55 21.2765957L13.75 21.2765957C14.0537566 21.2765957 14.3 21.5147422 14.3 21.8085106 14.3 22.1022791 14.0537566 22.3404255 13.75 22.3404255ZM17.9135 13.9787234C17.6865268 13.978152 17.4832282 13.8427967 17.4016677 13.6379478 17.3201072 13.4330988 17.3770385 13.200835 17.545 13.0531915L18.4635 12.2606383C18.6108721 12.1342651 18.816761 12.0935282 19.0036105 12.1537729 19.19046 12.2140176 19.3298831 12.3660912 19.3693605 12.5527091 19.4088379 12.739327 19.3423721 12.9321374 19.195 13.0585106 18.205 13.9042553 18.183 13.9787234 17.9135 13.9787234ZM18.48 16.037234C18.2514025 16.0369164 18.0468403 15.8998806 17.9661726 15.6930222 17.8855049 15.4861637 17.9455515 15.252614 18.117 15.106383L19.0355 14.3191489C19.2636644 14.1420702 19.595235 14.1687175 19.7900475 14.3797897 19.98486 14.5908619 19.9747323 14.9124859 19.767 15.1117021 18.777 15.9574468 18.7495 16.037234 18.48 16.037234ZM19.052 18.0851064C18.8280193 18.0781621 18.630792 17.9404888 18.5534329 17.7370845 18.4760738 17.5336802 18.534054 17.3052241 18.7 17.1595745L19.624 16.3723404C19.8504473 16.1773965 20.197306 16.1964293 20.3995 16.4148936 20.49736 16.5210268 20.5472039 16.6606367 20.5379033 16.8025539 20.5286027 16.944471 20.4609322 17.0768778 20.35 17.1702128 19.3435 18.0159574 19.3215 18.0851064 19.052 18.0851064ZM19.6185 20.1489362C19.388895 20.1508468 19.1822235 20.0146099 19.1001257 19.8072262 19.0180278 19.5998425 19.0777814 19.3649569 19.25 19.2180851L20.1685 18.4255319C20.3158721 18.2991587 20.521761 18.2584219 20.7086105 18.3186665 20.89546 18.3789112 21.0348831 18.5309848 21.0743605 18.7176027 21.1138379 18.9042206 21.0473721 19.0970311 20.9 19.2234043 19.9155 20.0744681 19.888 20.1489362 19.6185 20.1489362ZM20.1905 22.2021277C19.9594801 22.210668 19.7475986 22.0785762 19.6602546 21.8715605 19.5729106 21.6645448 19.6287517 21.426802 19.8 21.2765957L20.724 20.4893617C20.8636525 20.3330204 21.0842795 20.2690284 21.2898457 20.3252402 21.4954119 20.3814521 21.6487267 20.547698 21.6830545 20.751614 21.7173824 20.95553 21.6265129 21.1602239 21.45 21.2765957 20.482 22.1276596 20.46 22.2021277 20.1905 22.2021277ZM14.7235 14.8085106C14.6465 14.8085106 14.7235 14.8085106 13.409 14.5585106 13.1052434 14.4997569 12.9082487 14.2139812 12.969 13.9202128 13.0297513 13.6264443 13.3252434 13.4359272 13.629 13.4946809L14.8335 13.7340426C15.0299961 13.753046 15.201083 13.8719884 15.282314 14.0460652 15.363545 14.220142 15.3425791 14.4229068 15.227314 14.5779801 15.1120489 14.7330534 14.9199961 14.8168758 14.7235 14.7978723L14.7235 14.8085106ZM15.2955 16.8617021C14.8503906 16.8059575 14.4094717 16.7224501 13.9755 16.6117021 13.7790039 16.5736952 13.6183999 16.4371929 13.554186 16.2536143 13.4899721 16.0700358 13.5319039 15.867271 13.664186 15.7216994 13.7964682 15.5761279 13.9990039 15.5098654 14.1955 15.5478723L15.4055 15.787234C15.7092566 15.8166109 15.9308757 16.0785719 15.9005 16.3723404 15.8701243 16.6661089 15.5992566 16.8804407 15.2955 16.8510638L15.2955 16.8617021ZM15.862 18.9148936C15.4191164 18.8591394 14.980142 18.7774287 14.5475 18.6702128 14.4045337 18.6420242 14.2790077 18.5600508 14.1985497 18.4423346 14.1180916 18.3246183 14.0892958 18.1808072 14.1185 18.0425532 14.147647 17.9042879 14.2324075 17.7828895 14.3541261 17.7050771 14.4758446 17.6272646 14.6245454 17.5994157 14.7675 17.6276596L15.972 17.8670213C16.2757566 17.8963981 16.4973756 18.1583592 16.467 18.4521277 16.4366243 18.7458961 16.1657566 18.9602279 15.862 18.9308511L15.862 18.9148936ZM16.434 20.9734043C15.9897528 20.9126216 15.5491381 20.8291719 15.114 20.7234043 14.8102434 20.6631817 14.6144799 20.3762153 14.67675 20.0824468 14.7390201 19.7886783 15.0357434 19.5993519 15.3395 19.6595745L16.544 19.8989362C16.8477566 19.928313 17.0693757 20.1902741 17.039 20.4840426 17.0086243 20.777811 16.7377566 20.9921428 16.434 20.962766L16.434 20.9734043ZM17.0005 23.0265957C16.5574525 22.9693782 16.1184587 22.8858876 15.686 22.7765957 15.3822434 22.717842 15.1852487 22.4320664 15.246 22.1382979 15.3067513 21.8445294 15.6022434 21.6540123 15.906 21.712766L17.1105 21.9521277C17.4142566 21.9815045 17.6358756 22.2434656 17.6055 22.537234 17.5751243 22.8310025 17.3042566 23.0453343 17.0005 23.0159574L17.0005 23.0265957ZM19.162 24.6702128C18.9063222 24.6786827 18.6783653 24.5155414 18.612 24.2765957L15.2185 11.9468085C15.179734 11.8106703 15.198531 11.6652115 15.2707486 11.5424875 15.3429662 11.4197636 15.462677 11.329847 15.6035 11.2925532 15.7450153 11.2552443 15.8960775 11.2741496 16.0231117 11.3450671 16.150146 11.4159846 16.2426269 11.5330386 16.28 11.6702128L19.6955 24C19.7401003 24.1601872 19.7048691 24.331327 19.6002313 24.4627789 19.4955935 24.5942308 19.3335316 24.6709417 19.162 24.6702128ZM11.55 15.4255319C11.3593737 15.424974 11.1826393 15.3289935 11.0829197 15.1718712 10.9832001 15.0147489 10.9747169 14.8188927 11.0605 14.6542553L11.6105 13.5904255C11.759026 13.351706 12.0728512 13.2642703 12.3299342 13.3899819 12.5870172 13.5156935 12.7002427 13.8119536 12.5895 14.0691489L12.0395 15.1329787C11.9463024 15.3118509 11.757107 15.4249248 11.55 15.4255319L11.55 15.4255319ZM9.35 15.4255319C9.15937374 15.424974 8.98263927 15.3289935 8.88291969 15.1718712 8.78320011 15.0147489 8.77471692 14.8188927 8.8605 14.6542553L9.4105 13.5904255C9.55902604 13.351706 9.87285116 13.2642703 10.1299342 13.3899819 10.3870172 13.5156935 10.5002427 13.8119536 10.3895 14.0691489L9.8395 15.1329787C9.74630237 15.3118509 9.55710702 15.4249248 9.35 15.4255319L9.35 15.4255319ZM7.15 15.4255319C6.95937374 15.424974 6.78263927 15.3289935 6.68291969 15.1718712 6.58320011 15.0147489 6.57471692 14.8188927 6.6605 14.6542553L7.2105 13.5904255C7.28975357 13.4063624 7.46878832 13.2806211 7.67429252 13.2646906 7.87979671 13.2487601 8.07725549 13.3453159 8.18581277 13.51482 8.29437004 13.6843242 8.2957934 13.8983081 8.1895 14.0691489L7.6395 15.1329787C7.54630237 15.3118509 7.35710702 15.4249248 7.15 15.4255319L7.15 15.4255319ZM4.95 15.4255319C4.75937374 15.424974 4.58263927 15.3289935 4.48291969 15.1718712 4.38320011 15.0147489 4.37471692 14.8188927 4.4605 14.6542553L5.0105 13.5904255C5.08975357 13.4063624 5.26878832 13.2806211 5.47429252 13.2646906 5.67979671 13.2487601 5.87725549 13.3453159 5.98581277 13.51482 6.09437004 13.6843242 6.0957934 13.8983081 5.9895 14.0691489L5.4395 15.1329787C5.34630237 15.3118509 5.15710702 15.4249248 4.95 15.4255319L4.95 15.4255319ZM2.75 15.4255319C2.55937374 15.424974 2.38263927 15.3289935 2.28291969 15.1718712 2.18320011 15.0147489 2.17471692 14.8188927 2.2605 14.6542553L2.8105 13.5904255C2.88975357 13.4063624 3.06878832 13.2806211 3.27429252 13.2646906 3.47979671 13.2487601 3.67725549 13.3453159 3.78581277 13.51482 3.89437004 13.6843242 3.8957934 13.8983081 3.7895 14.0691489L3.2395 15.1329787C3.14630237 15.3118509 2.95710702 15.4249248 2.75 15.4255319L2.75 15.4255319Z"/><path fill="#191970" d="M12.1 19.6808511C11.892893 19.680244 11.7036976 19.56717 11.6105 19.3882979L11.0605 18.3244681C10.9542066 18.1536273 10.95563 17.9396433 11.0641872 17.7701392 11.1727445 17.600635 11.3702033 17.5040792 11.5757075 17.5200097 11.7812117 17.5359403 11.9602464 17.6616816 12.0395 17.8457447L12.5895 18.9095745C12.6752831 19.0742118 12.6667999 19.270068 12.5670803 19.4271903 12.4673607 19.5843127 12.2906263 19.6802931 12.1 19.6808511L12.1 19.6808511ZM9.9 19.6808511C9.69289298 19.680244 9.50369763 19.56717 9.4105 19.3882979L8.8605 18.3244681C8.7542066 18.1536273 8.75562996 17.9396433 8.86418723 17.7701392 8.97274451 17.600635 9.17020329 17.5040792 9.37570748 17.5200097 9.58121168 17.5359403 9.76024643 17.6616816 9.8395 17.8457447L10.3895 18.9095745C10.4752831 19.0742118 10.4667999 19.270068 10.3670803 19.4271903 10.2673607 19.5843127 10.0906263 19.6802931 9.9 19.6808511L9.9 19.6808511ZM7.7 19.6808511C7.49289298 19.680244 7.30369763 19.56717 7.2105 19.3882979L6.6605 18.3244681C6.5542066 18.1536273 6.55562996 17.9396433 6.66418723 17.7701392 6.77274451 17.600635 6.97020329 17.5040792 7.17570748 17.5200097 7.38121168 17.5359403 7.56024643 17.6616816 7.6395 17.8457447L8.1895 18.9095745C8.27528308 19.0742118 8.26679989 19.270068 8.16708031 19.4271903 8.06736073 19.5843127 7.89062626 19.6802931 7.7 19.6808511L7.7 19.6808511ZM5.5 19.6808511C5.29289298 19.680244 5.10369763 19.56717 5.0105 19.3882979L4.4605 18.3244681C4.3542066 18.1536273 4.35562996 17.9396433 4.46418723 17.7701392 4.57274451 17.600635 4.77020329 17.5040792 4.97570748 17.5200097 5.18121168 17.5359403 5.36024643 17.6616816 5.4395 17.8457447L5.9895 18.9095745C6.07528308 19.0742118 6.06679989 19.270068 5.96708031 19.4271903 5.86736073 19.5843127 5.69062626 19.6802931 5.5 19.6808511L5.5 19.6808511ZM3.3 19.6808511C3.09289298 19.680244 2.90369763 19.56717 2.8105 19.3882979L2.2605 18.3244681C2.1542066 18.1536273 2.15562996 17.9396433 2.26418723 17.7701392 2.37274451 17.600635 2.57020329 17.5040792 2.77570748 17.5200097 2.98121168 17.5359403 3.16024643 17.6616816 3.2395 17.8457447L3.7895 18.9095745C3.87528308 19.0742118 3.86679989 19.270068 3.76708031 19.4271903 3.66736073 19.5843127 3.49062626 19.6802931 3.3 19.6808511L3.3 19.6808511ZM13.75 17.0212766.55 17.0212766C.246243388 17.0212766 0 16.7831302 0 16.4893617 0 16.1955932.246243388 15.9574468.55 15.9574468L13.75 15.9574468C14.0537566 15.9574468 14.3 16.1955932 14.3 16.4893617 14.3 16.7831302 14.0537566 17.0212766 13.75 17.0212766Z"/><path fill="#F8F9F9" d="M13.75,7.7712766 L12.9635,7.38829787 C12.7742689,7.30115489 12.6526971,7.11757397 12.65,6.91489362 C12.6505769,6.73053553 12.7498207,6.55961245 12.9122852,6.46317185 C13.0747497,6.36673124 13.277265,6.358527 13.4475,6.44148936 L13.684,6.55851064 C13.7486209,6.95954004 13.7707356,7.36590247 13.75,7.7712766 Z"/><path fill="#191970" d="M8.57249637,8.05880049 L11.4350508,12.0208084 C11.0132289,12.4391754 10.5341955,12.7943725 10.0125544,13.0755712 L7.15,9.09583613 L4.28744557,13.0844347 C3.76524947,12.8005122 3.28618699,12.4423085 2.8649492,12.0208084 L5.72750363,8.04993694 L1.1,6.52540592 C1.19160532,5.93956411 1.37227774,5.37151314 1.63563135,4.84133096 L6.27191582,6.36586197 L6.27191582,1.45545392 C6.85331851,1.35792477 7.44668149,1.35792477 8.02808418,1.45545392 L8.02808418,6.36586197 L12.6643687,4.85019451 C12.9277223,5.38037669 13.1083947,5.94842766 13.2,6.53426947 L8.57249637,8.05880049 Z"/><ellipse cx="7.15" cy="7.447" fill="#FFF" rx="1.65" ry="1.596"/><circle cx="7.15" cy="7.447" r="1" fill="#191970"/><path fill="#191970" d="M7.4855 1.06382979 7.0895 1.82446809C6.99939415 2.00747691 6.80957149 2.1250512 6.6 2.12765957 6.40937374 2.12710166 6.23263927 2.03112118 6.13291969 1.87399885 6.03320011 1.71687652 6.02471692 1.52102035 6.1105 1.35638298L6.2315 1.12765957C6.6461644 1.06516353 7.06634315 1.04377603 7.4855 1.06382979L7.4855 1.06382979ZM4.147 1.76595745 4.1965 2.61702128C4.20752043 2.81722883 4.10120269 3.00642095 3.9215 3.10638298 3.75388894 3.19762117 3.54917261 3.19755308 3.38162648 3.10620343 3.21408034 3.01485378 3.1080479 2.84549515 3.102 2.65957447L3.102 2.40425532C3.4270436 2.15775825 3.77718057 1.94389062 4.147 1.76595745L4.147 1.76595745ZM1.6115 3.9787234 2.0955 4.69148936C2.22113899 4.84994946 2.24442773 5.06311382 2.15580509 5.2434684 2.06718244 5.42382299 1.8815796 5.54098157 1.6751953 5.54684502 1.46881099 5.55270847 1.27641695 5.44628891 1.177 5.2712766L1.034 5.05851064C1.18616419 4.6797077 1.37976416 4.31772194 1.6115 3.9787234L1.6115 3.9787234ZM.55 7.12234043 1.3365 7.50531915C1.52573113 7.59246214 1.64730294 7.77604305 1.65 7.9787234 1.64942312 8.16308149 1.5501793 8.33400457 1.38771481 8.43044517 1.22525032 8.52688578 1.02273504 8.53509002.8525 8.45212766L.616 8.33510638C.551379088 7.93407698.529264418 7.52771455.55 7.12234043L.55 7.12234043ZM1.276 10.3510638 2.156 10.3031915C2.36301461 10.2925334 2.55863926 10.3953552 2.662 10.5691489 2.75634029 10.7312486 2.75626989 10.9292334 2.66181435 11.0912703 2.5673588 11.2533072 2.39224198 11.3558531 2.2 11.3617021L1.936 11.3617021C1.68112203 11.0473466 1.4599829 10.7087229 1.276 10.3510638L1.276 10.3510638ZM3.564 12.8031915 4.301 12.3351064C4.46484774 12.2135987 4.68525969 12.1910757 4.87174633 12.2767842 5.05823297 12.3624928 5.17937494 12.5419926 5.18543775 12.7415906 5.19150055 12.9411886 5.08146273 13.1272563 4.9005 13.2234043L4.6805 13.3617021C4.28881777 13.2145414 3.91452448 13.0273074 3.564 12.8031915L3.564 12.8031915ZM6.8145 13.8297872 7.2105 13.0691489C7.30060585 12.8861401 7.49042851 12.7685658 7.7 12.7659574 7.89062626 12.7665154 8.06736073 12.8624958 8.16708031 13.0196182 8.26679989 13.1767405 8.27528308 13.3725967 8.1895 13.537234L8.0685 13.7659574C7.6538356 13.8284535 7.23365685 13.849841 6.8145 13.8297872ZM10.153 13.1276596 10.1035 12.2765957C10.0924796 12.0763882 10.1987973 11.8871961 10.3785 11.787234 10.543602 11.6970358 10.7451028 11.6954505 10.9117004 11.7830389 11.0782979 11.8706274 11.1864929 12.0350349 11.198 12.2180851L11.198 12.4734043C10.8736951 12.7254464 10.523532 12.9446771 10.153 13.1276596ZM12.6885 10.9148936 12.2045 10.2021277C12.078861 10.0436676 12.0555723 9.8305032 12.1441949 9.65014862 12.2328176 9.46979404 12.4184204 9.35263545 12.6248047 9.346772 12.831189 9.34090855 13.0235831 9.44732811 13.123 9.62234043L13.266 9.83510638C13.1138358 10.2139093 12.9202358 10.5758951 12.6885 10.9148936ZM13.75 7.7712766 12.9635 7.38829787C12.7742689 7.30115489 12.6526971 7.11757397 12.65 6.91489362 12.6505769 6.73053553 12.7498207 6.55961245 12.9122852 6.46317185 13.0747497 6.36673124 13.277265 6.358527 13.4475 6.44148936L13.684 6.55851064C13.7486209 6.95954004 13.7707356 7.36590247 13.75 7.7712766ZM13.024 4.54255319 12.144 4.59042553C11.9369854 4.60108359 11.7413607 4.49826179 11.638 4.32446809 11.5436597 4.16236841 11.5437301 3.96438357 11.6381857 3.80234669 11.7326412 3.6403098 11.907758 3.53776393 12.1 3.53191489L12.364 3.53191489C12.618878 3.84627041 12.8400171 4.18489416 13.024 4.54255319L13.024 4.54255319ZM10.736 2.09042553 9.999 2.55851064C9.83515226 2.68001837 9.61474031 2.70254132 9.42825367 2.61683277 9.24176703 2.53112422 9.12062506 2.35162438 9.11456225 2.1520264 9.10849945 1.95242843 9.21853727 1.76636068 9.3995 1.67021277L9.6195 1.53191489C10.0111822 1.67907562 10.3854755 1.86630963 10.736 2.09042553L10.736 2.09042553Z"/><path fill="#191970" d="M21.923,21.7712766 L19.36,12.5212766 C19.0458441,11.3882835 17.8427868,10.7149297 16.6705,11.0159574 L14.542,11.5478723 C13.64666,11.7854001 13.0018715,12.5409402 12.9305,13.4361702 C12.4355,13.2446809 12.2265,13.2765957 10.945,13.2765957 C13.6472893,11.6398963 14.9024329,8.4705306 14.0220323,5.50677527 C13.1416317,2.54301995 10.3384803,0.501216483 7.15,0.501216483 C3.96151972,0.501216483 1.15836827,2.54301995 0.27796768,5.50677527 C-0.602432912,8.4705306 0.652710721,11.6398963 3.355,13.2765957 L2.2,13.2765957 C0.98497355,13.2765957 2.16840434e-19,14.2291814 2.16840434e-19,15.4042553 L2.16840434e-19,17.5319149 C0.00357548129,18.1447193 0.280187132,18.7262761 0.759,19.1276596 C0.274389258,19.5339103 -0.00279802971,20.1244476 2.16840434e-19,20.7446809 L2.16840434e-19,22.8723404 C2.16840434e-19,24.0474144 0.98497355,25 2.2,25 L12.1,25 C13.3150264,25 14.3,24.0474144 14.3,22.8723404 L14.3,20.7446809 C14.2964245,20.1318764 14.0198129,19.5503197 13.541,19.1489362 C13.804801,18.9275314 14.0103011,18.648562 14.1405,18.3351064 L15.5485,23.4042553 C15.6993216,23.9495934 16.0680474,24.4146123 16.5735037,24.6969399 C17.07896,24.9792676 17.6797096,25.0557589 18.2435,24.9095745 L20.3665,24.3776596 C20.9303796,24.2317972 21.4112091,23.875196 21.7031359,23.3863601 C21.9950627,22.8975242 22.0741547,22.3165284 21.923,21.7712766 Z M1.1,7.44680851 C1.1,4.21535519 3.80867726,1.59574468 7.15,1.59574468 C10.4913227,1.59574468 13.2,4.21535519 13.2,7.44680851 C13.2,10.6782618 10.4913227,13.2978723 7.15,13.2978723 C3.80867726,13.2978723 1.1,10.6782618 1.1,7.44680851 L1.1,7.44680851 Z M13.2,20.7446809 L13.2,22.8723404 C13.2,23.4598774 12.7075132,23.9361702 12.1,23.9361702 L2.2,23.9361702 C1.59248678,23.9361702 1.1,23.4598774 1.1,22.8723404 L1.1,20.7446809 C1.1,20.1571439 1.59248678,19.6808511 2.2,19.6808511 L12.1,19.6808511 C12.7075132,19.6808511 13.2,20.1571439 13.2,20.7446809 Z M2.2,18.6170213 C1.59248678,18.6170213 1.1,18.1407285 1.1,17.5531915 L1.1,15.4255319 C1.1,14.8379949 1.59248678,14.3617021 2.2,14.3617021 L12.1,14.3617021 C12.7075132,14.3617021 13.2,14.8379949 13.2,15.4255319 L13.2,17.5531915 C13.2,18.1407285 12.7075132,18.6170213 12.1,18.6170213 L2.2,18.6170213 Z M20.086,23.3510638 L17.9575,23.8829787 C17.3712997,24.0353681 16.7682593,23.6997242 16.61,23.1329787 L14.047,13.8989362 C13.9722141,13.6230221 14.0151284,13.3296206 14.1661098,13.0845924 C14.3170912,12.8395641 14.5634913,12.6634363 14.85,12.5957447 C17.2205,11.9840426 17.05,12.0106383 17.259,12.0106383 C17.7561174,12.0109309 18.1912495,12.3336354 18.3205,12.7978723 L20.8835,22.0478723 C20.958451,22.3230507 20.9162829,22.615799 20.76642,22.8606892 C20.6165572,23.1055795 20.3714936,23.2821953 20.086,23.3510638 Z"/></g></svg>