<svg xmlns="http://www.w3.org/2000/svg" width="26" height="26" viewBox="0 0 26 26"><g fill="none" fill-rule="evenodd" stroke="#191970" transform="translate(.5 .5)"><path stroke-linecap="round" stroke-linejoin="round" d="M8.83974359,0.288461538 L0.128205128,0.288461538 L0.128205128,5.82051282 L0.769230769,5.82051282 C2.05789519,5.82051282 3.1025641,6.86518174 3.1025641,8.15384615 L3.1025641,10.4358974 L3.1025641,10.4358974 L3.1025641,18.1282051 C3.1013491,18.7593116 3.18984088,19.3873874 3.36538462,19.9935897 C4.06762505,22.4004822 6.03935628,24.2243336 8.49358974,24.7371795 C8.92869788,24.8217021 9.37086156,24.8646306 9.81410256,24.8653846 L14.7948718,24.8653846 C15.2381436,24.8653846 15.6803674,24.822326 16.1153846,24.7371795 C18.5818896,24.2349615 20.5680268,22.4091957 21.275641,19.9935897 C21.4511848,19.3873874 21.5396765,18.7593116 21.5384615,18.1282051 L21.5384615,8.1025641 C21.5401153,7.47754423 21.7917721,6.87916773 22.2373273,6.44083777 C22.6828825,6.00250781 23.285293,5.76066664 23.9102564,5.76923077 L24.8589744,5.76923077 L24.8589744,0.288461538 L16.4358974,0.288461538"/><path d="M8.91025641 23.1089744C8.90982781 23.6700674 8.77811151 24.2232759 8.52564103 24.724359 6.07140756 24.2115131 4.09967634 22.3876617 3.3974359 19.9807692 3.96352949 19.6368044 4.61324105 19.4549739 5.27564103 19.4551281 7.2860904 19.4657097 8.91025641 21.0984971 8.91025641 23.1089744ZM21.3076923 19.9807692C20.6000781 22.3963752 18.6139409 24.222141 16.1474359 24.724359 15.8969599 24.2228166 15.7674325 23.669581 15.7692123 23.1089744 15.7727667 21.0899744 17.4104841 19.4551228 19.4294872 19.4551228 20.0920229 19.4539812 20.7419979 19.6358855 21.3076923 19.9807692L21.3076923 19.9807692Z"/><path stroke-linecap="round" stroke-linejoin="round" d="M16.4358974.288461538 16.4358974.320512821C16.4931842 1.71465454 15.782065 3.02812542 14.5833474 3.74226055 13.3846298 4.45639569 11.8910113 4.45639569 10.6922936 3.74226055 9.49357602 3.02812542 8.78245682 1.71465454 8.83974359.320512821L8.83974359.288461538M12.6666667 15.0384615C12.6666667 15.0384615 9.28205128 13.3782051 8.25641026 11.0833333 7.76282051 9.98076923 7.81410256 8.21794872 9.03846154 7.3974359 10.1455786 6.52039201 11.7534846 6.70382514 12.6346154 7.80769231 13.5152665 6.70792775 15.1182822 6.52472595 16.224359 7.3974359 17.4487179 8.21153846 17.5064103 9.96153846 17.025641 11.0769231 16.025641 13.3717949 12.6666667 15.0384615 12.6666667 15.0384615"/></g></svg>