<svg xmlns="http://www.w3.org/2000/svg" width="26" height="26" viewBox="0 0 26 26"><g fill="none" transform="translate(.5 .5)"><path fill="#F8F9F9" d="M13.2978723,2.12765957 C7.12873418,2.12765957 2.12765957,7.12873418 2.12765957,13.2978723 C2.12765957,19.4670105 7.12873418,24.4680851 13.2978723,24.4680851 C19.4670105,24.4680851 24.4680851,19.4670105 24.4680851,13.2978723 C24.4680851,7.12873418 19.4670105,2.12765957 13.2978723,2.12765957 Z M13.2978723,15.9574468 C11.8290299,15.9574468 10.6382979,14.7667148 10.6382979,13.2978723 C10.6382979,11.8290299 11.8290299,10.6382979 13.2978723,10.6382979 C14.7667148,10.6382979 15.9574468,11.8290299 15.9574468,13.2978723 C15.9574468,14.7667148 14.7667148,15.9574468 13.2978723,15.9574468 Z"/><path fill="#191970" d="M12.7659574 6.91489362C12.5407583 6.91359671 12.3407814 6.77062255 12.2667049 6.55795145 12.1926285 6.34528035 12.2605083 6.10900777 12.4361702 5.96808511L15.0957447 3.84042553C15.2417954 3.7025643 15.4530432 3.65871993 15.6418935 3.72707264 15.8307437 3.79542535 15.9649928 3.96431929 15.9889737 4.16372199 16.0129546 4.36312469 15.9225782 4.55903297 15.7553191 4.67021277 12.9095745 6.95212766 13.0265957 6.91489362 12.7659574 6.91489362ZM7.04255319 10.8351409C6.77731735 10.8381049 6.55040927 10.645233 6.5106383 10.3829787L5.9787234 7.01595745C5.93465814 6.72218897 6.13708259 6.4483206 6.43085107 6.40425533 6.72461954 6.36019006 6.99848791 6.5626145 7.04255319 6.85638298L7.57446809 10.2234043C7.59788724 10.3776981 7.55236627 10.5344923 7.44996237 10.6522568 7.34755847 10.7700213 7.19860418 10.8368736 7.04255319 10.8351409L7.04255319 10.8351409ZM7.57446809 17.75C7.43085106 17.75 7.67021277 17.8244681 4.20744681 16.4734043 4.02976419 16.4040415 3.90258325 16.2451552 3.87381183 16.0565961 3.84504041 15.8680371 3.91904957 15.678452 4.06796077 15.5592557 4.21687197 15.4400594 4.41806206 15.4093607 4.59574468 15.4787234L7.78723404 16.7180851C8.03723169 16.8070766 8.18339712 17.0667139 8.12981 17.3266114 8.07622288 17.5865089 7.83927751 17.7671543 7.57446809 17.75ZM11.1702128 22.8723404C10.9450137 22.8710435 10.7450367 22.7280694 10.6709603 22.5153983 10.5968838 22.3027272 10.6647636 22.0664546 10.8404255 21.9255319L13.5 19.7978723C13.7300795 19.6449348 14.0389414 19.6935972 14.2108503 19.9098697 14.3827592 20.1261422 14.36048 20.4380193 14.1595745 20.6276596 11.3138298 22.9095745 11.4308511 22.8723404 11.1702128 22.8723404ZM20.0638298 20.2128004C19.798594 20.2157645 19.5716859 20.0228926 19.5319149 19.7606383L19 16.393617C18.9559347 16.0998485 19.1583592 15.8259802 19.4521277 15.7819149 19.7458961 15.7378496 20.0197645 15.9402741 20.0638298 16.2340426L20.5957447 19.6010638C20.6191638 19.7553576 20.5736429 19.9121519 20.471239 20.0299164 20.3688351 20.1476809 20.2198808 20.2145332 20.0638298 20.2128004L20.0638298 20.2128004ZM22.1914894 11.1702128C22.0478723 11.1702128 22.287234 11.25 18.8244681 9.89893617 18.6931874 9.84684303 18.5880148 9.74467662 18.5321375 9.61496141 18.4762601 9.48524619 18.4742664 9.33863351 18.5265957 9.20744681 18.6329823 8.93484408 18.9395822 8.79936969 19.212766 8.90425532L22.4042553 10.143617C22.6452312 10.2384205 22.7829188 10.4929858 22.7303664 10.746551 22.677814 11.0001162 22.4502943 11.1789908 22.1914894 11.1702128Z"/><path fill="#191970" d="M13.2978723,25 C6.83496569,25 1.59574468,19.760779 1.59574468,13.2978723 C1.59574468,6.83496569 6.83496569,1.59574468 13.2978723,1.59574468 C19.760779,1.59574468 25,6.83496569 25,13.2978723 C25,19.760779 19.760779,25 13.2978723,25 Z M13.2978723,2.65957447 C7.42250266,2.65957447 2.65957447,7.42250266 2.65957447,13.2978723 C2.65957447,19.173242 7.42250266,23.9361702 13.2978723,23.9361702 C19.173242,23.9361702 23.9361702,19.173242 23.9361702,13.2978723 C23.9361702,10.4764203 22.8153528,7.77052763 20.8202849,5.77545977 C18.8252171,3.78039192 16.1193244,2.65957447 13.2978723,2.65957447 Z"/><path fill="#191970" d="M13.2978723 7.9787234C10.3601875 7.9787234 7.9787234 10.3601875 7.9787234 13.2978723 7.9787234 16.2355572 10.3601875 18.6170213 13.2978723 18.6170213 16.2355572 18.6170213 18.6170213 16.2355572 18.6170213 13.2978723 18.6170213 11.8871463 18.0566126 10.5342 17.0590786 9.53666606 16.0615447 8.53913213 14.7085984 7.9787234 13.2978723 7.9787234ZM13.2978723 15.9574468C11.8290299 15.9574468 10.6382979 14.7667148 10.6382979 13.2978723 10.6382979 11.8290299 11.8290299 10.6382979 13.2978723 10.6382979 14.7667148 10.6382979 15.9574468 11.8290299 15.9574468 13.2978723 15.9574468 14.7667148 14.7667148 15.9574468 13.2978723 15.9574468ZM12.7287234.973404255 12.4893617 2.87234043C12.4048626 3.57479958 11.8678986 4.13774577 11.1702128 4.25531915 10.7807732 4.33008669 10.3968998 4.43138662 10.0212766 4.55851064 9.89654508 4.89147564 9.6426826 5.15998925 9.31723224 5.3031874 8.99178189 5.44638556 8.62230579 5.45214093 8.29255319 5.31914894 7.90239843 5.5572837 7.5291687 5.82209908 7.17553191 6.11170213 7.25265153 6.46557362 7.14443855 6.83437003 6.88834046 7.09046812 6.63224237 7.34656621 6.26344596 7.45477918 5.90957447 7.37765957 5.61758951 7.73508956 5.35267028 8.1137996 5.11702128 8.5106383 5.24422245 8.84271367 5.23312113 9.21190168 5.08619711 9.53573423 4.93927308 9.85956678 4.66876797 10.1110623 4.33510638 10.2340426 4.20870991 10.6103034 4.10567683 10.9940128 4.02659574 11.3829787 3.91505018 12.0797301 3.35913986 12.6204989 2.65957447 12.712766L.760638298 12.9468085C.608026238 12.9668235.454226506 12.9197498.338961218 12.8177451.22369593 12.7157404.158267583 12.568807.159555258 12.4148936.252162888 10.8057965.647366326 9.22859188 1.32446809 7.76595745L2.75 6.74468085 2.49468085 6.30851064C2.38009649 6.13223236 2.38009649 5.90500168 2.49468085 5.7287234 3.31935233 4.57414068 4.32945983 3.56403318 5.48404255 2.7393617 5.66032083 2.62477734 5.88755151 2.62477734 6.06382979 2.7393617L6.49468085 3 7.52659574 1.54255319C8.9904484.863590813 10.5697532.46831339 12.1808511.377659574 12.3364647.371849503 12.4868089.434522284 12.5922194.549143392 12.6976299.663764499 12.7475185.818820578 12.7287234.973404255Z"/><circle cx="2.128" cy="10.638" r="1" fill="#F8F9F9"/><circle cx="10.638" cy="2.128" r="1" fill="#F8F9F9"/><path fill="#191970" d="M13.2978723,16.4893617 C11.5352614,16.4893617 10.106383,15.0604832 10.106383,13.2978723 C10.106383,11.5352614 11.5352614,10.106383 13.2978723,10.106383 C15.0604832,10.106383 16.4893617,11.5352614 16.4893617,13.2978723 C16.4893617,15.0604832 15.0604832,16.4893617 13.2978723,16.4893617 L13.2978723,16.4893617 Z M13.2978723,11.1702128 C12.1227984,11.1702128 11.1702128,12.1227984 11.1702128,13.2978723 C11.1702128,14.4729463 12.1227984,15.4255319 13.2978723,15.4255319 C14.4729463,15.4255319 15.4255319,14.4729463 15.4255319,13.2978723 C15.4255319,12.1227984 14.4729463,11.1702128 13.2978723,11.1702128 Z"/><circle cx="13.298" cy="9.043" r="1" fill="#F8F9F9"/><circle cx="10.287" cy="10.287" r="1" fill="#F8F9F9"/><circle cx="9.043" cy="13.298" r="1" fill="#F8F9F9"/><circle cx="10.287" cy="16.309" r="1" fill="#F8F9F9"/><circle cx="13.298" cy="17.553" r="1" fill="#F8F9F9"/><circle cx="16.309" cy="16.309" r="1" fill="#F8F9F9"/><circle cx="17.553" cy="13.298" r="1" fill="#F8F9F9"/><circle cx="16.309" cy="10.287" r="1" fill="#F8F9F9"/></g></svg>