<svg xmlns="http://www.w3.org/2000/svg" width="12" height="20" viewBox="0 0 12 20"><g fill="#191970"><path d="M6.01283298,19.9721371 C5.91527017,19.9721371 5.82383659,19.9266932 5.76793311,19.850307 L4.04168773,17.4876032 C4.00655047,17.4396909 3.98767919,17.3826181 3.98763057,17.324117 L3.98763057,4.06547116 C3.98763057,3.90789535 4.12134447,3.78015492 4.28628894,3.78015492 L7.74176628,3.78015492 C7.90671075,3.78015492 8.04042465,3.90789535 8.04042465,4.06547116 L8.04042465,17.324117 C8.04037603,17.3826181 8.02150475,17.4396909 7.98636749,17.4876032 L6.25773284,19.850307 C6.20182936,19.9266932 6.11039578,19.9721371 6.01283298,19.9721371 L6.01283298,19.9721371 Z M4.58375267,17.2331011 L6.01283298,19.1886587 L7.44191328,17.2342424 L7.44191328,4.35078741 L4.58375267,4.35078741 L4.58375267,17.2331011 Z"/><path d="M11.6989897 4.35734968.326676259 4.35734968C.224921299 4.35675466.130485213 4.30670654.0760931996 4.22454864.0217011858 4.14239074.014838665 4.03942961.0578837255 3.95134466L.333545402 3.38727445C.832430592 2.32592449 1.64621445 1.42766982 2.67413105.80373586 2.78423644.738873967 2.89633288.677435869 3.01042038.619421566 3.57954882.329153742 4.19103631.122087824 4.82447132.00513569239 4.91178321-.010566476 5.00188011.0116829242 5.07028901.0658402937 5.13869791.119997663 5.17831588.200439807 5.17838149.285316244L5.17838149 1.19490443 6.84728446 1.19490443 6.84728446.285316244C6.84733334.200379576 6.88699135.119879705 6.95547229.0657110169 7.02395323.0115423283 7.11413623-.010662543 7.20149329.00513569239 8.17178337.182997581 9.08558541.573679733 9.87090181 1.14640067 10.6524216 1.73253807 11.2727851 2.49166235 11.6783823 3.35817219L11.9692755 3.95277125C12.0124303 4.04108526 12.0054115 4.14433382 11.9506627 4.22657381 11.8959139 4.30881379 11.8010102 4.35866619 11.6989897 4.35877626L11.6989897 4.35734968ZM.796167218 3.78671719 11.2294987 3.78671719 11.137512 3.59840847C10.772272 2.8148884 10.2126699 2.12819966 9.50713591 1.59777097 8.89294997 1.15037783 8.19126668.82491049 7.44340657.640534968L7.44340657 1.47936473C7.44340657 1.63694054 7.30969266 1.76468097 7.1447482 1.76468097L4.87972312 1.76468097C4.71477866 1.76468097 4.58106475 1.63694054 4.58106475 1.47936473L4.58106475.641961549C4.13230926.752997067 3.69891735.914471934 3.28996461 1.12300474 3.18702703 1.17550293 3.08568229 1.23104449 2.98593039 1.28962942 2.05735359 1.85533562 1.32281018 2.66876167.873221077 3.62922262L.796167218 3.78671719ZM4.2850943 8.31668419C4.14244748 8.31703967 4.01944972 8.22097673 3.9914603 8.08735101 3.96347088 7.9537253 4.03830423 7.81984406 4.17011083 7.76773475L7.62558818 6.39251045C7.77783192 6.33184376 7.95272971 6.40056811 8.01623333 6.54601059 8.07973695 6.69145306 8.00779886 6.85853755 7.85555512 6.91920424L4.40007778 8.29442853C4.36368596 8.30909477 4.32459177 8.31666132 4.2850943 8.31668419L4.2850943 8.31668419ZM4.2850943 10.084789C4.14244748 10.0851444 4.01944972 9.98908149 3.9914603 9.85545578 3.96347088 9.72183006 4.03830423 9.58794882 4.17011083 9.53583951L7.62558818 8.16004458C7.72407261 8.12080011 7.8369917 8.13473037 7.92180993 8.19658795 8.00662816 8.25844553 8.05045961 8.35883279 8.03679341 8.45993484 8.0231272 8.56103689 7.95403956 8.6474939 7.85555512 8.68673837L4.40007778 10.0628186C4.36362551 10.0772638 4.32455819 10.0847282 4.2850943 10.084789L4.2850943 10.084789ZM4.2850943 11.8528933C4.14272952 11.8529199 4.02013559 11.756946 3.99218763 11.6235876 3.96423968 11.4902292 4.03870813 11.3565642 4.17011083 11.3042296L7.62558818 9.92900529C7.77783192 9.86833861 7.95272971 9.93706296 8.01623333 10.0825054 8.07973695 10.2279479 8.00779886 10.3950324 7.85555512 10.4556991L4.40007778 11.8309234C4.36366723 11.8454992 4.32457226 11.8529689 4.2850943 11.8528933L4.2850943 11.8528933ZM4.2850943 13.6212838C4.14244748 13.6216393 4.01944972 13.5255763 3.9914603 13.3919506 3.96347088 13.2583249 4.03830423 13.1244437 4.17011083 13.0723344L7.62558818 11.697966C7.77791439 11.6372993 7.95287904 11.7060875 8.01638266 11.8516088 8.07988627 11.9971301 8.00788134 12.1642784 7.85555512 12.2249451L4.40007778 13.5993135C4.36362551 13.6137586 4.32455819 13.621223 4.2850943 13.6212838L4.2850943 13.6212838ZM4.2850943 15.3893886C4.14244748 15.389744 4.01944972 15.2936811 3.9914603 15.1600554 3.96347088 15.0264297 4.03830423 14.8925484 4.17011083 14.8404391L7.62558818 13.4652148C7.77791439 13.4045481 7.95287902 13.4733364 8.01638264 13.6188576 8.07988625 13.7643789 8.00788132 13.9315272 7.85555512 13.9921939L4.40007778 15.3674182C4.36362551 15.3818634 4.32455819 15.3893278 4.2850943 15.3893886L4.2850943 15.3893886ZM4.2850943 17.1574933C4.14244748 17.1578488 4.01944972 17.0617859 3.9914603 16.9281602 3.96347088 16.7945344 4.03830423 16.6606532 4.17011083 16.6085439L7.62558818 15.2336049C7.77783192 15.1729382 7.95272971 15.2416626 8.01623333 15.387105 8.07973695 15.5325475 8.00779886 15.699632 7.85555512 15.7602987L4.40007778 17.135523C4.36362551 17.1499682 4.32455819 17.1574326 4.2850943 17.1574933L4.2850943 17.1574933Z"/></g></svg>