<svg xmlns="http://www.w3.org/2000/svg" width="26" height="26" viewBox="0 0 26 26"><g fill="none" transform="translate(.5 .5)"><path fill="#191970" d="M12.5,0.543478261 C5.89659538,0.543478261 0.543478261,5.89659538 0.543478261,12.5 C0.543478261,19.1034046 5.89659538,24.4565217 12.5,24.4565217 C19.1034046,24.4565217 24.4565217,19.1034046 24.4565217,12.5 C24.4565217,9.32893327 23.1968204,6.28774518 20.9545376,4.0454624 C18.7122548,1.80317961 15.6710667,0.543478261 12.5,0.543478261 Z M10.8695652,20.1793478 C10.8658315,20.5284598 10.6946282,20.8545287 10.4093688,21.0558249 C10.1241095,21.2571212 9.75951989,21.30914 9.42934783,21.1956522 C6.75506487,20.2536827 4.66137488,18.1359504 3.75,15.451087 C3.57485549,14.8858425 3.88405861,14.2843458 4.44565217,14.0978261 L7.42934783,13.1032609 C7.73421289,12.9995563 8.06863331,13.0288145 8.35085844,13.1838833 C8.63308358,13.338952 8.8371031,13.6055399 8.91304348,13.9184783 L9.51630435,16.3369565 C9.6729956,16.956655 10.230364,17.3909099 10.8695652,17.3913043 L10.8695652,20.1793478 Z M12.125,8.69565217 C7.4673913,8.69565217 4.625,10.2500029 4.27173913,10.2500029 C4.09329265,10.2505804 3.92593072,10.1635235 3.82396218,10.0170793 C3.72199363,9.87063513 3.69841202,9.68346457 3.76086957,9.51630435 C5.04173946,5.78281947 8.55290778,3.27536177 12.5,3.27536177 C16.4470922,3.27536177 19.9582605,5.78281947 21.2391304,9.51630435 C21.3137255,9.71878408 21.2614657,9.94621629 21.1059672,10.0958247 C20.9504687,10.2454331 20.721189,10.2888761 20.5217391,10.2065217 C17.8605342,9.11693358 14.9991007,8.60206076 12.125,8.69565217 L12.125,8.69565217 Z M15.5706522,21.1956522 C15.2404801,21.30914 14.8758905,21.2571212 14.5906312,21.0558249 C14.3053718,20.8545287 14.1341685,20.5284598 14.1304348,20.1793478 L14.1304348,17.3913043 C14.769636,17.3909099 15.3270044,16.956655 15.4836957,16.3369565 L16.0869565,13.9184783 C16.1628969,13.6055399 16.3669164,13.338952 16.6491416,13.1838833 C16.9313667,13.0288145 17.2657871,12.9995563 17.5706522,13.1032609 L20.5543478,14.0978261 C21.1159414,14.2843458 21.4251445,14.8858425 21.25,15.451087 C20.3386251,18.1359504 18.2449351,20.2536827 15.5706522,21.1956522 L15.5706522,21.1956522 Z"/><path fill="#FFF" d="M18.5217391,13.4184783 C18.1048819,13.2275182 17.6614048,13.1010723 17.2065217,13.0434783 C16.6758202,13.04094 16.2127106,13.4028849 16.0869565,13.9184783 L15.4836957,16.3369565 C15.3270044,16.956655 14.769636,17.3909099 14.1304348,17.3913043 L10.8695652,17.3913043 C10.230364,17.3909099 9.6729956,16.956655 9.51630435,16.3369565 L8.91304348,13.9184783 C8.8371031,13.6055399 8.63308358,13.338952 8.35085844,13.1838833 C8.06863331,13.0288145 7.73421289,12.9995563 7.42934783,13.1032609 L6.47826087,13.4184783 C6.0111338,12.1913123 5.92960456,10.8508198 6.24456522,9.57608696 C10.3258889,8.38345011 14.6632415,8.38345011 18.7445652,9.57608696 C19.0629954,10.8497201 18.9852594,12.1901916 18.5217391,13.4184783 L18.5217391,13.4184783 Z"/><path fill="#191970" d="M12.5,25 C5.59644063,25 -3.8616453e-15,19.4035594 -3.8616453e-15,12.5 C-3.8616453e-15,5.59644063 5.59644063,-3.8616453e-15 12.5,-3.8616453e-15 C19.4035594,-3.8616453e-15 25,5.59644063 25,12.5 C25,19.4035594 19.4035594,25 12.5,25 Z M12.5,1.08695652 C6.19675014,1.08695652 1.08695652,6.19675014 1.08695652,12.5 C1.08695652,18.8032499 6.19675014,23.9130435 12.5,23.9130435 C18.8032499,23.9130435 23.9130435,18.8032499 23.9130435,12.5 C23.9130435,9.47307267 22.7106013,6.5701204 20.5702404,4.42975956 C18.4298796,2.28939872 15.5269273,1.08695652 12.5,1.08695652 Z"/><circle cx="12.5" cy="12.5" r="2.174" fill="#191970"/><path fill="#191970" d="M3.26086957 9.3423913C4.61511659 5.38593292 8.33449278 2.72780405 12.5163043 2.72780405 16.6981159 2.72780405 20.4174921 5.38593292 21.7717391 9.3423913 21.9132909 9.74661152 21.8042791 10.1962735 21.4933312 10.490794 21.1823833 10.7853144 20.7274718 10.8697835 20.3315217 10.7065217 17.7308842 9.64145198 14.9335784 9.14127147 12.125 9.23913043 9.57281077 9.23679248 7.04497089 9.73534381 4.68478261 10.7065217 4.290635 10.8604496 3.84298191 10.7716522 3.53743243 10.4789312 3.23188295 10.1862101 3.12397847 9.74277479 3.26086957 9.3423913ZM12.125 8.15217391C18.0652174 8.15217391 20.1358696 9.60326087 20.7336957 9.70652174 19.5333936 6.18376551 16.2243483 3.81539512 12.5027174 3.81539512 8.78108651 3.81539512 5.47204116 6.18376551 4.27173913 9.70652174 6.76414066 8.68474777 9.4312915 8.15685494 12.125 8.15217391L12.125 8.15217391ZM9.23913043 21.7391304C6.41844333 20.7191087 4.21725558 18.4678939 3.26086957 15.625 2.98990616 14.7839686 3.43819833 13.8801538 4.27173913 13.5869565 7.4673913 12.5 7.42391304 12.5 7.79347826 12.5 8.56626558 12.5045286 9.23755961 13.0326133 9.42391304 13.7826087L10.0271739 16.2065217C10.1253691 16.589713 10.4740606 16.8551685 10.8695652 16.8478261 11.16972 16.8478261 11.4130435 17.0911496 11.4130435 17.3913043L11.4130435 20.1793478C11.4204523 20.7126222 11.1665797 21.2158089 10.7332544 21.5267198 10.299929 21.8376308 9.7419367 21.9169572 9.23913043 21.7391304L9.23913043 21.7391304ZM7.79347826 13.5869565C7.65217391 13.5869565 7.86413043 13.5326087 4.61413043 14.6141304 4.33798153 14.7050762 4.18231649 14.9972475 4.26086957 15.2771739 5.12243979 17.8088735 7.09122071 19.8096671 9.60869565 20.7119565 9.7794473 20.7699127 9.96782671 20.7394043 10.1115578 20.6305172 10.2552889 20.52163 10.3356546 20.3485435 10.326087 20.1684783L10.326087 17.8586957C9.66566098 17.6641399 9.15723048 17.1350415 8.98913043 16.4673913L8.38586957 14.048913C8.32007284 13.7757671 8.0744237 13.5842059 7.79347826 13.5869565Z"/><path fill="#191970" d="M6.47826087 13.9619565C6.2492 13.954877 6.04919427 13.8048727 5.97826087 13.5869565 5.47285129 12.2571299 5.38562764 10.8046665 5.72826087 9.42391304 5.76857758 9.2288464 5.91237516 9.07146416 6.10302015 9.01375 6.29366513 8.95603584 6.50060773 9.00723813 6.64234534 9.14719128 6.78408295 9.28714443 6.83790292 9.49342174 6.7826087 9.68478261 6.49216226 10.8532081 6.5680561 12.0826883 7 13.2065217 7.07275157 13.3778878 7.05272552 13.5745678 6.9469279 13.7277539 6.84113029 13.8809401 6.66428508 13.9693133 6.47826087 13.9619565ZM13.5869565 20.1793478 13.5869565 17.3913043C13.5869565 17.0911496 13.83028 16.8478261 14.1304348 16.8478261 14.5198829 16.8476303 14.8597799 16.5837629 14.9565217 16.2065217L15.5597826 13.7826087C15.6734992 13.3255577 15.9727623 12.9366827 16.3854471 12.7097061 16.7981318 12.4827295 17.2868063 12.4382388 17.7336957 12.5869565L20.7282609 13.5869565C21.575449 13.868967 22.0382086 14.7799492 21.7663043 15.6304348 20.8027496 18.4771363 18.590732 20.7271887 15.7608696 21.7391304 15.2580633 21.9169572 14.700071 21.8376308 14.2667456 21.5267198 13.8334203 21.2158089 13.5795477 20.7126222 13.5869565 20.1793478ZM14.673913 17.8586957 14.673913 20.1793478C14.6643454 20.3594131 14.7447111 20.5324995 14.8884422 20.6413867 15.0321733 20.7502739 15.2205527 20.7807823 15.3913043 20.7228261 17.9087793 19.8205367 19.8775602 17.8197431 20.7391304 15.2880435 20.8176835 15.0081171 20.6620185 14.7159458 20.3858696 14.625L17.3913043 13.6195652C17.2305632 13.5677543 17.0555796 13.5844249 16.9075133 13.6656558 16.7594469 13.7468866 16.6513669 13.8855078 16.6086957 14.048913L16.0108696 16.4673913C15.8427695 17.1350415 15.334339 17.6641399 14.673913 17.8586957L14.673913 17.8586957Z"/><path fill="#191970" d="M14.1304348 17.9347826 10.8695652 17.9347826C10.5694105 17.9347826 10.326087 17.6914591 10.326087 17.3913043 10.326087 17.0911496 10.5694105 16.8478261 10.8695652 16.8478261L14.1304348 16.8478261C14.4305895 16.8478261 14.673913 17.0911496 14.673913 17.3913043 14.673913 17.6914591 14.4305895 17.9347826 14.1304348 17.9347826ZM18.5217391 13.9619594C18.3432926 13.9625369 18.1759307 13.87548 18.0739622 13.7290358 17.9719936 13.5825917 17.948412 13.3954211 18.0108696 13.2282609 18.4428135 12.1044274 18.5187073 10.8749472 18.2282609 9.70652174 18.1729666 9.51516087 18.2267866 9.30888356 18.3685242 9.16893041 18.5102618 9.02897726 18.7172044 8.97777497 18.9078494 9.03548913 19.0984944 9.09320329 19.242292 9.25058553 19.2826087 9.44565217 19.6172398 10.8206347 19.5262666 12.2648344 19.0217391 13.5869565 18.9508057 13.8048727 18.7508 13.954877 18.5217391 13.9619594Z"/></g></svg>