<?xml version="1.0" encoding="UTF-8"?>
<svg width="55px" height="60px" viewBox="0 0 55 60" version="1.1" xmlns="http://www.w3.org/2000/svg" xmlns:xlink="http://www.w3.org/1999/xlink">
    <title>0D3EF257-988E-45B7-AF3C-C6AAEEF865FA</title>
    <g id="Welcome" stroke="none" stroke-width="1" fill="none" fill-rule="evenodd">
        <g id="Marchand-gestion-/-Commande-passée" transform="translate(-305.000000, -472.000000)">
            <g id="Group-14" transform="translate(149.000000, 462.000000)">
                <g id="Group-31" transform="translate(156.000000, 10.000000)">
                    <polygon id="Fill-1" fill="#191970" points="0 60 3.18283899 60 3.18283899 0 0 0"></polygon>
                    <polygon id="Fill-2" fill="#191970" points="51.8141484 60 55 60 55 0 51.8141484 0"></polygon>
                    <polygon id="Fill-27" fill="#D1B48D" points="9.08155999 17.2235666 18.8936817 17.2235666 18.8936817 3.11027128 9.08155999 3.11027128"></polygon>
                    <polygon id="Fill-28" fill="#B19877" points="19.4962068 17.2235666 27.928546 17.2235666 27.928546 5.09969758 19.4962068 5.09969758"></polygon>
                    <polygon id="Fill-29" fill="#F5D9AA" points="24.5649495 17.2235666 37.8792485 17.2235666 37.8792485 7.25075533 24.5649495 7.25075533"></polygon>
                    <polygon id="Fill-30" fill="#D1B48D" points="36.4828965 17.2235666 46.9999726 17.2235666 46.9999726 4.0241687 36.4828965 4.0241687"></polygon>
                    <g id="Group-13" transform="translate(3.182839, 30.100000)">
                        <polygon id="Fill-18" fill="#B19877" points="6.87631802 20.2643537 20.3457673 20.2643537 20.3457673 10.1737177 6.87631802 10.1737177"></polygon>
                        <polygon id="Fill-19" fill="#D1B48D" points="8.23199956 10.1737177 18.0983485 10.1737177 18.0983485 2.78247779 8.23199956 2.78247779"></polygon>
                        <polygon id="Fill-20" fill="#B19877" points="21.3489716 20.2643537 34.8184208 20.2643537 34.8184208 10.1737177 21.3489716 10.1737177"></polygon>
                        <polygon id="Fill-21" fill="#F5D9AA" points="33.4054994 20.2643537 44.0491058 20.2643537 44.0491058 6.91087725 33.4054994 6.91087725"></polygon>
                        <polygon id="Fill-22" fill="#D1B48D" points="18.8379481 10.1737177 32.4188645 10.1737177 32.4188645 0 18.8379481 0"></polygon>
                        <polygon id="Fill-4" fill="#1A7EF5" points="0 23.2145064 48.6313094 23.2145064 48.6313094 19.5498532 0 19.5498532"></polygon>
                    </g>
                    <polygon id="Fill-5" fill="#1A7EF5" points="3.18283899 20.0997011 51.8141484 20.0997011 51.8141484 16.4335374 3.18283899 16.4335374"></polygon>
                </g>
            </g>
        </g>
    </g>
</svg>