<svg width="26" height="26" viewBox="0 0 26 26" fill="none" xmlns="http://www.w3.org/2000/svg">
<path fill-rule="evenodd" clip-rule="evenodd" d="M21.325 21.3958C20.759 21.3958 20.2986 20.9355 20.2986 20.3695V12.133L18.4202 17.824C18.2898 18.2187 17.9231 18.484 17.5073 18.484C17.0903 18.484 16.7231 18.2178 16.5937 17.8212L14.7371 12.1405V20.3695C14.7371 20.9355 14.2769 21.3958 13.7111 21.3958H13.1172C12.5512 21.3958 12.0908 20.9355 12.0908 20.3695V5.79056C12.0908 5.22458 12.5512 4.76416 13.1172 4.76416H13.8712C14.3077 4.76416 14.6973 5.0413 14.8404 5.45355L17.5175 13.1572L20.1732 5.45586C20.3157 5.04223 20.7058 4.76416 21.1433 4.76416H21.9187C22.4847 4.76416 22.9449 5.22458 22.9449 5.79056V20.3695C22.9449 20.9355 22.4847 21.3958 21.9187 21.3958H21.325Z" fill="#191970"/>
<path fill-rule="evenodd" clip-rule="evenodd" d="M6.72888 21.4647C6.1629 21.4647 5.70248 21.0044 5.70248 20.4384V7.20406H4.02347C3.45749 7.20406 2.99707 6.7438 2.99707 6.17782V5.72171C2.99707 5.15588 3.45749 4.69531 4.02347 4.69531H9.86747C10.4334 4.69531 10.8937 5.15588 10.8937 5.72171V6.17782C10.8937 6.7438 10.4334 7.20406 9.86747 7.20406H8.3488V20.4384C8.3488 21.0044 7.88854 21.4647 7.32256 21.4647H6.72888Z" fill="#D0021B"/>
<mask id="mask0_106_19424" style="mask-type:alpha" maskUnits="userSpaceOnUse" x="2" y="4" width="10" height="18">
<path d="M2.84375 4.5415H11.0482V21.6186H2.84375V4.5415Z" fill="white"/>
</mask>
<g mask="url(#mask0_106_19424)">
<path fill-rule="evenodd" clip-rule="evenodd" d="M9.86787 4.5415H4.02372C3.37295 4.5415 2.84375 5.07086 2.84375 5.72178V6.17789C2.84375 6.82851 3.37295 7.35802 4.02372 7.35802H5.54901V20.4385C5.54901 21.0891 6.07852 21.6186 6.72929 21.6186H7.32296C7.97373 21.6186 8.50309 21.0891 8.50309 20.4385V7.35802H9.86787C10.5186 7.35802 11.0482 6.82851 11.0482 6.17789V5.72178C11.0482 5.07086 10.5186 4.5415 9.86787 4.5415ZM9.86787 4.84927C10.3497 4.84927 10.7404 5.23998 10.7404 5.72178V6.17789C10.7404 6.6597 10.3497 7.05025 9.86787 7.05025H8.19532V20.4385C8.19532 20.9203 7.80477 21.3109 7.32296 21.3109H6.72929C6.24748 21.3109 5.85677 20.9203 5.85677 20.4385V7.05025H4.02372C3.54207 7.05025 3.15152 6.6597 3.15152 6.17789V5.72178C3.15152 5.23998 3.54207 4.84927 4.02372 4.84927H9.86787Z" fill="#D0021B"/>
</g>
</svg>
