<svg xmlns="http://www.w3.org/2000/svg" width="30" height="26" viewBox="0 0 30 26"><g fill="none" transform="translate(.5 .5)"><path fill="#FFF" d="M23.9330188,23.1579745 C20.6656394,26.4651143 11.9510129,25.4477214 5.64150711,19.0589842 C-0.670420766,12.6702471 -1.36313426,4.6781968 1.96479701,1.30486514 C5.29515036,-2.06601497 11.7306041,1.24112486 17.2892666,9.52736106 C22.2109233,16.8574931 27.1979761,19.8508346 23.9330188,23.1579745 Z"/><path fill="#191970" d="M5.13771548,0 L5.13771548,0.735464751 C8.45353638,0.735464751 12.8786677,4.26324401 16.6885919,9.94103189 C18.1757461,12.1572323 19.6386795,13.9444117 20.9296456,15.5207578 C24.1873366,19.5020737 25.100459,20.9337784 23.4171167,22.6376051 C22.3804686,23.6868681 20.6486848,24.2629822 18.5366353,24.2629822 C14.3876205,24.2629822 9.64035321,22.0688456 6.15256497,18.5386148 C3.33569156,15.6850116 1.47069368,12.2724552 0.903928091,8.92609053 C0.397714381,5.94010364 0.971746195,3.35126772 2.47827695,1.82640413 C3.19278912,1.10319713 4.08653486,0.737916301 5.13771548,0.735464751 L5.13771548,0 M5.13771548,0 C3.9169896,0 2.834322,0.424118007 1.96479701,1.30422416 C-1.36313426,4.67755582 -0.670420766,12.6696061 5.63908504,19.0583433 C9.64035321,23.1083025 14.6056073,24.9984469 18.5390574,24.9984469 C20.8109639,24.9984469 22.7365136,24.3683988 23.9330188,23.1573335 C27.1979761,19.8501936 22.2109233,16.8568521 17.2916887,9.52672008 C13.1814271,3.4052018 8.59643881,0 5.13771548,0 L5.13771548,0 Z"/><path fill="#191970" d="M27.3287681,15.558172 C27.9560856,14.8178042 28.2031373,14.0602755 28.1716503,13.1703631 C27.4692485,14.1656921 26.6966065,14.7810309 25.8052829,15.0703137 C24.6765958,15.4380461 23.3057013,14.5407791 22.232722,14.2686572 C20.9344897,13.9401496 19.0573814,13.9940837 17.7421946,14.9379301 C17.5896039,15.1977943 17.0397928,16.5412432 16.012833,17.4360587 C16.6958582,17.2742564 18.1442591,16.8672993 18.5850768,16.7913013 C20.3168605,16.4897607 21.1306778,16.727561 22.4652412,17.02665 C23.552753,17.2693533 24.6402647,17.7449539 25.8052829,17.651795 C26.936392,17.5610877 28.4308123,16.8893632 29,14.834965 C28.4671435,15.4135306 27.871313,15.5140441 27.3287681,15.558172 Z"/><path fill="#424242" d="M4.69882582,1.40718922 C5.18324085,1.40718922 5.66765589,1.4660264 6.10120734,1.57389457 C6.39670051,1.64744104 6.73094688,1.7798247 7.08456986,1.92201455 C7.74095223,2.18187876 8.48695138,2.47851621 9.21115185,2.47851621 C9.46789182,2.47851621 9.71252141,2.44174297 9.9377744,2.3681965 C10.3979687,2.218652 10.8290981,1.99310948 11.2311625,1.68666583 C11.148812,1.81659794 11.0543511,1.94407849 10.9453577,2.0691075 C10.8169877,2.22110355 10.7927669,2.43438833 10.8823837,2.61089987 C10.9647343,2.77515366 11.1318575,2.87811873 11.3135131,2.87811873 C11.3256235,2.87811873 11.3401559,2.87811873 11.3522663,2.87566718 C11.5387661,2.86095788 11.7276879,2.83889394 11.9166098,2.7972176 C11.2093639,3.74841868 10.2260013,3.94944572 9.74885254,3.9886705 C9.66165783,3.99602515 9.57446313,3.9984767 9.48484634,3.9984767 C8.8260419,3.9984767 8.18419198,3.81706206 7.50601094,3.62338968 C7.19598531,3.53513391 6.87384932,3.44442659 6.55171332,3.37333166 L6.27317468,3.30959138 C5.50779892,3.13553139 4.8465724,2.98598689 4.02064477,2.98598689 C3.55318427,2.98598689 3.05181471,3.03501787 2.48504912,3.13307984 C2.26464028,3.17230463 1.84804335,3.27526969 1.37089454,3.4002987 C1.68576431,2.92714971 1.90617315,2.48341931 2.04423144,2.20394271 C2.06118597,2.16962102 2.08056257,2.13284778 2.09509502,2.10097764 C2.77812021,1.65479569 3.6960867,1.40718922 4.69882582,1.40718922 M12.1588173,0 C11.4564155,0.995328964 10.6837736,1.61066781 9.79244989,1.89995061 C9.6059501,1.96123934 9.41218409,1.98575483 9.21357393,1.98575483 C8.21810103,1.98575483 7.11605683,1.32383655 6.21988902,1.09829403 C5.76696097,0.983071218 5.24379273,0.91687939 4.69882582,0.91687939 C3.68155425,0.91687939 2.58677628,1.15467966 1.72936167,1.76756695 C1.57677093,2.02743116 1.02695987,3.37088011 0,4.26569556 C0.683025196,4.10389331 2.13142614,3.69693615 2.57224382,3.62093813 C3.13900941,3.52287616 3.60646992,3.48119982 4.02548892,3.48119982 C4.89016976,3.48119982 5.55381835,3.65525981 6.45240824,3.8538353 C7.44545906,4.07447472 8.43850987,4.49123808 9.48969049,4.49123808 C9.59141765,4.49123808 9.69072273,4.48633498 9.79244989,4.47898034 C10.923559,4.38827302 12.4179794,3.71654854 12.987167,1.66215034 C12.4543105,2.24316749 11.85848,2.34368101 11.3183572,2.38780889 C11.9456747,1.64744104 12.1903043,0.889912349 12.1588173,0 L12.1588173,0 Z" opacity=".2" transform="translate(16.013 13.17)"/><path fill="#FFF" d="M19.2777903,17.2791595 C17.720396,18.8530541 14.1163481,17.4532195 11.0427347,14.3397521 C7.9642772,11.2262846 6.58369435,7.58083102 8.13866661,6.00448491 C9.69363886,4.42813879 15.2813663,0.976357554 19.7622053,5.51172352 C24.2454665,10.0446379 20.8327625,15.7003619 19.2777903,17.2791595 Z"/><path fill="#191970" d="M13.2444011,12.1088423 C10.6794235,9.51265177 9.25282118,6.5977598 9.80021017,4.73458243 C9.0760097,5.17586129 8.49713373,5.63920408 8.13866661,6.00203336 C6.58127228,7.57837947 7.9642772,11.2262846 11.0427347,14.3373005 C14.1187702,17.450768 17.720396,18.8506026 19.2777903,17.276708 C19.6362574,16.9114272 20.0940296,16.3279585 20.5300031,15.5949453 C18.689226,16.1489954 15.8069566,14.7025814 13.2444011,12.1088423 Z"/><path fill="#191970" d="M7.13998429,0 L7.13998429,0.735464751 C7.13998429,0.735464751 7.13998429,0.735464751 7.13998429,0.735464751 C8.86450181,0.735464751 10.417052,1.42189852 11.7540375,2.77270211 C15.9490717,7.01878528 12.4370627,12.316583 11.2672004,13.5006813 C10.9838176,13.7899641 10.5696427,13.937057 10.0392083,13.937057 C8.43095036,13.937057 6.08395952,12.6132205 4.06152676,10.5612738 C2.62765826,9.10995672 1.55467896,7.52135286 1.04119903,6.08719659 C0.777192837,5.34682874 0.438102314,3.9935736 1.15745864,3.2654635 C2.16261983,2.24807059 4.584695,0.735464751 7.13998429,0.735464751 L7.13998429,0 M7.13998429,0 C4.22864995,0 1.62734122,1.75040611 0.643978703,2.74573507 C-0.913415628,4.32208119 0.469589291,7.96998636 3.54804683,11.0810023 C5.75697938,13.3192666 8.23960642,14.6725218 10.0392083,14.6725218 C10.7440321,14.6725218 11.3447068,14.4641401 11.7831024,14.0228613 C13.3404967,12.4465151 16.7507785,6.79079121 12.2699395,2.25297369 C10.6229284,0.588371801 8.82817068,0 7.13998429,0 L7.13998429,0 Z" transform="translate(7.495 3.256)"/></g></svg>