<svg xmlns="http://www.w3.org/2000/svg" width="16" height="26" viewBox="0 0 16 26"><g fill="#191970" transform="translate(.97 .5)"><path d="M12.5,5.5078125 L12.5,5.078125 C12.4979487,4.58328694 12.1852933,4.14306818 11.71875,3.978125 L11.71875,1.171875 C11.71875,0.524666309 11.1940837,0 10.546875,0 L3.515625,0 C2.86841631,0 2.34375,0.524666309 2.34375,1.171875 L2.34375,3.978125 C1.87720669,4.14306818 1.56455133,4.58328694 1.5625,5.078125 L1.5625,5.5078125 C0.653743437,5.69470026 0.00117120603,6.49410124 0,7.421875 L0,17.578125 C0.00117120603,18.5058988 0.653743437,19.3052997 1.5625,19.4921875 L1.5625,19.921875 C1.56455133,20.4167131 1.87720669,20.8569318 2.34375,21.021875 L2.34375,23.828125 C2.34375,24.4753337 2.86841631,25 3.515625,25 L10.546875,25 C11.1940837,25 11.71875,24.4753337 11.71875,23.828125 L11.71875,21.021875 C12.1852933,20.8569318 12.4979487,20.4167131 12.5,19.921875 L12.5,19.4921875 C13.4087566,19.3052997 14.0613288,18.5058988 14.0625,17.578125 L14.0625,7.421875 C14.0613288,6.49410124 13.4087566,5.69470026 12.5,5.5078125 L12.5,5.5078125 Z M3.125,1.171875 C3.125,0.95613877 3.29988877,0.78125 3.515625,0.78125 L10.546875,0.78125 C10.7626112,0.78125 10.9375,0.95613877 10.9375,1.171875 L10.9375,3.90625 L3.125,3.90625 L3.125,1.171875 Z M2.34375,5.078125 C2.34375,4.86238877 2.51863877,4.6875 2.734375,4.6875 L11.328125,4.6875 C11.5438612,4.6875 11.71875,4.86238877 11.71875,5.078125 L11.71875,5.46875 L2.34375,5.46875 L2.34375,5.078125 Z M10.9375,23.828125 C10.9375,24.0438612 10.7626112,24.21875 10.546875,24.21875 L3.515625,24.21875 C3.29988877,24.21875 3.125,24.0438612 3.125,23.828125 L3.125,21.09375 L10.9375,21.09375 L10.9375,23.828125 Z M13.28125,17.578125 C13.28125,18.2253337 12.7565837,18.75 12.109375,18.75 L10.546875,18.75 C10.3311388,18.75 10.15625,18.9248888 10.15625,19.140625 C10.15625,19.3563612 10.3311388,19.53125 10.546875,19.53125 L11.71875,19.53125 L11.71875,19.921875 C11.71875,20.1376112 11.5438612,20.3125 11.328125,20.3125 L2.734375,20.3125 C2.51863877,20.3125 2.34375,20.1376112 2.34375,19.921875 L2.34375,19.53125 L8.984375,19.53125 C9.20011123,19.53125 9.375,19.3563612 9.375,19.140625 C9.375,18.9248888 9.20011123,18.75 8.984375,18.75 L1.953125,18.75 C1.30591631,18.75 0.78125,18.2253337 0.78125,17.578125 L0.78125,7.421875 C0.78125,6.77466631 1.30591631,6.25 1.953125,6.25 L12.109375,6.25 C12.7565837,6.25 13.28125,6.77466631 13.28125,7.421875 L13.28125,17.578125 Z"/><path d="M1.953125 8.59375 5.859375 8.59375C6.07511123 8.59375 6.25 8.41886123 6.25 8.203125 6.25 7.98738877 6.07511123 7.8125 5.859375 7.8125L1.953125 7.8125C1.73738877 7.8125 1.5625 7.98738877 1.5625 8.203125 1.5625 8.41886123 1.73738877 8.59375 1.953125 8.59375ZM12.109375 7.8125 10.546875 7.8125C10.3311388 7.8125 10.15625 7.98738877 10.15625 8.203125 10.15625 8.41886123 10.3311388 8.59375 10.546875 8.59375L12.109375 8.59375C12.3251112 8.59375 12.5 8.41886123 12.5 8.203125 12.5 7.98738877 12.3251112 7.8125 12.109375 7.8125ZM7.03125 16.40625 4.6875 16.40625C4.47176377 16.40625 4.296875 16.5811388 4.296875 16.796875 4.296875 17.0126112 4.47176377 17.1875 4.6875 17.1875L7.03125 17.1875C7.24698623 17.1875 7.421875 17.0126112 7.421875 16.796875 7.421875 16.5811388 7.24698623 16.40625 7.03125 16.40625ZM9.375 16.40625 8.59375 16.40625C8.37801377 16.40625 8.203125 16.5811388 8.203125 16.796875 8.203125 17.0126112 8.37801377 17.1875 8.59375 17.1875L9.375 17.1875C9.59073623 17.1875 9.765625 17.0126112 9.765625 16.796875 9.765625 16.5811388 9.59073623 16.40625 9.375 16.40625ZM9.375 10.9375 8.203125 10.9375C7.98738877 10.9375 7.8125 11.1123888 7.8125 11.328125L7.8125 12.5C7.8125 12.7157362 7.98738877 12.890625 8.203125 12.890625L8.984375 12.890625 8.984375 13.28125 8.203125 13.28125C7.98738877 13.28125 7.8125 13.4561388 7.8125 13.671875 7.8125 13.8876112 7.98738877 14.0625 8.203125 14.0625L9.375 14.0625C9.59073623 14.0625 9.765625 13.8876112 9.765625 13.671875L9.765625 11.328125C9.765625 11.1123888 9.59073623 10.9375 9.375 10.9375ZM8.59375 11.71875 8.984375 11.71875 8.984375 12.109375 8.59375 12.109375 8.59375 11.71875ZM4.56796875 14.734375 6.56015625 12.8144531C6.86201961 12.5265882 7.0328325 12.1276652 7.0328325 11.7105469 7.0328325 11.2934285 6.86201961 10.8945056 6.56015625 10.6066406 5.92991721 10.0083727 4.94156717 10.0083727 4.31132812 10.6066406L4.296875 10.6191406 4.28398437 10.6066406C3.65374533 10.0083727 2.66539529 10.0083727 2.03515625 10.6066406 1.73329289 10.8945056 1.56248 11.2934285 1.56248 11.7105469 1.56248 12.1276652 1.73329289 12.5265882 2.03515625 12.8144531L4.02734375 14.734375C4.17864883 14.8802214 4.41822617 14.8802214 4.56953125 14.734375L4.56796875 14.734375ZM2.578125 12.2519531C2.42836652 12.1116367 2.34339196 11.9155741 2.34339196 11.7103516 2.34339196 11.505129 2.42836652 11.3090665 2.578125 11.16875 2.90436548 10.8594701 3.4155564 10.8594701 3.74179687 11.16875L4.02617188 11.4421875C4.17747696 11.5880339 4.41705429 11.5880339 4.56835938 11.4421875L4.85273438 11.16875C5.17881756 10.8590758 5.69032306 10.8590758 6.01640625 11.16875 6.16616473 11.3090665 6.25113929 11.505129 6.25113929 11.7103516 6.25113929 11.9155741 6.16616473 12.1116367 6.01640625 12.2519531L4.296875 13.9101562 2.578125 12.2519531ZM12.109375 10.9375 10.9375 10.9375C10.7217638 10.9375 10.546875 11.1123888 10.546875 11.328125 10.546875 11.5438612 10.7217638 11.71875 10.9375 11.71875L11.71875 11.71875 11.71875 12.109375 10.9375 12.109375C10.7217638 12.109375 10.546875 12.2842638 10.546875 12.5L10.546875 13.671875C10.546875 13.8876112 10.7217638 14.0625 10.9375 14.0625L12.109375 14.0625C12.3251112 14.0625 12.5 13.8876112 12.5 13.671875 12.5 13.4561388 12.3251112 13.28125 12.109375 13.28125L11.328125 13.28125 11.328125 12.890625 12.109375 12.890625C12.3251112 12.890625 12.5 12.7157362 12.5 12.5L12.5 11.328125C12.5 11.1123888 12.3251112 10.9375 12.109375 10.9375Z"/></g></svg>