<svg xmlns="http://www.w3.org/2000/svg" width="26" height="22" viewBox="0 0 26 22"><path fill="#191970" d="M24.5967742,17.9616532 L22.9523387,17.9616532 C23.1681855,17.6547177 23.2972984,17.2828226 23.2972984,16.8799597 C23.2972984,16.2740323 23.0058065,15.7399194 22.5612903,15.3939919 C23.0058065,15.0482661 23.2972984,14.5145565 23.2972984,13.9093548 C23.2972984,13.3039516 23.0058468,12.7702016 22.5614113,12.4244355 C23.0058468,12.0786694 23.2972984,11.5449194 23.2972984,10.9395161 C23.2972984,10.3341129 23.0058468,9.8003629 22.5614113,9.45459677 C23.0058468,9.10887097 23.2972984,8.57520161 23.2972984,7.97004032 C23.2972984,6.92891129 22.4502823,6.08189516 21.4091532,6.08189516 L15.3347984,6.08189516 L14.6833468,6.08189516 C15.0794355,5.82495968 15.4000806,5.5216129 15.6360484,5.19290323 C15.6493952,5.17447581 15.6646371,5.15806452 15.6747984,5.13733871 C15.7921371,4.96552419 15.8892742,4.78818548 15.9589516,4.60677419 C16.3791935,3.51189516 15.9645968,2.36733871 14.8528629,1.48157258 L15.391129,0.75766129 C15.5238306,0.578870968 15.4868145,0.326491935 15.3080242,0.193387097 C15.1284677,0.0610887097 14.8764516,0.0981048387 14.74375,0.276491935 L14.2018952,1.00528226 C13.0339113,0.199112903 11.8200806,0.126653226 10.8941935,0.845120968 C10.7381048,0.966209677 10.5934677,1.11193548 10.4611694,1.27729839 C10.4433065,1.29471774 10.4320161,1.31604839 10.4178629,1.33620968 C9.64467742,2.35342742 9.35407258,4.10625 10.1151613,6.08193548 L3.58927419,6.08193548 C2.36383065,6.08193548 1.72278226,7.03173387 1.72278226,7.96967742 C1.72278226,8.53778226 1.96153226,9.10669355 2.41887097,9.46987903 C1.98528226,9.81612903 1.70153226,10.3427419 1.70153226,10.9395565 C1.70153226,11.5449597 1.99298387,12.0787097 2.43733871,12.4244758 C1.99298387,12.7702419 1.70153226,13.3039919 1.70153226,13.9093952 C1.70153226,14.5146371 1.99306452,15.0483468 2.43745968,15.3940323 C1.99306452,15.7399597 1.70153226,16.2741129 1.70153226,16.88 C1.70153226,17.2828629 1.83068548,17.6547581 2.04649194,17.9616935 L0.403225806,17.9616935 C0.180362903,17.9616935 0,18.1420565 0,18.3649194 C0,20.1821774 1.47822581,21.6604435 3.29552419,21.6604435 L21.7033468,21.6604435 C23.5210081,21.6604435 25.0000403,20.1822177 25.0000403,18.3649194 C25.0000403,18.1420161 24.8196371,17.9616532 24.5967742,17.9616532 Z M22.4908468,13.9093145 C22.4908468,14.5054839 22.0057258,14.9906048 21.4091532,14.9906048 L11.0567339,14.9906048 C11.0642742,14.9242339 11.0768952,14.8593145 11.0768952,14.7909677 L11.0768952,12.827621 L12.3814516,12.827621 C12.6384274,13.4603226 13.2409274,13.8943548 13.9605242,13.8943548 C14.687621,13.8943548 15.312379,13.4544758 15.5874194,12.827621 L21.4091935,12.827621 C22.0057258,12.827621 22.4908468,13.3127419 22.4908468,13.9093145 Z M12.2479839,12.0211694 L11.0768952,12.0211694 L11.0768952,10.7465323 C11.0768952,10.5803629 11.1072177,10.3527419 11.2525,10.2110081 C11.3773387,10.0897177 11.5439113,10.0716129 11.6316935,10.0716129 C11.9282258,10.0716129 12.2479435,10.2594355 12.2479435,10.5626613 L12.2479435,12.0211694 L12.2479839,12.0211694 Z M22.4908468,10.9394758 C22.4908468,11.5360484 22.0057258,12.0211694 21.4091532,12.0211694 L15.7380242,12.0211694 L15.7380242,9.85778226 L21.4091935,9.85778226 C22.0057258,9.85778226 22.4908468,10.3429032 22.4908468,10.9394758 Z M22.4908468,7.97 C22.4908468,8.56616935 22.0057258,9.05129032 21.4091532,9.05129032 L15.7380242,9.05129032 L15.7380242,6.88830645 L21.4091935,6.88830645 C22.0057258,6.88830645 22.4908468,7.37342742 22.4908468,7.97 Z M14.9315726,12.1164516 C14.9315726,12.6519758 14.4960484,13.0879032 13.9605242,13.0879032 C13.443871,13.0879032 13.0544355,12.6779839 13.0544355,12.1345565 L13.0544355,10.562621 C13.0544355,9.76129032 12.3160887,9.26512097 11.6317339,9.26512097 C11.2682661,9.26512097 10.9335887,9.39584677 10.6898387,9.63370968 C10.4984677,9.81995968 10.2704839,10.1645161 10.2704839,10.7465323 L10.2704839,14.7910081 C10.2704839,15.3257661 9.8353629,15.7608871 9.30060484,15.7608871 C8.76508065,15.7608871 8.32955645,15.3257661 8.32955645,14.7910081 L8.32955645,10.0743548 C8.32955645,9.89520161 8.21104839,9.73729839 8.03895161,9.68725806 C8.00153226,9.67625 7.96375,9.67112903 7.92633065,9.67112903 C7.7908871,9.67112903 7.66133065,9.7396371 7.58608871,9.85818548 C7.33487903,10.2535484 6.9083871,10.4893952 6.44451613,10.4893952 C5.69987903,10.4893952 5.09387097,9.8833871 5.09387097,9.13875 C5.09387097,8.92060484 5.08677419,8.66032258 5.07931452,8.38427419 C5.06552419,7.87943548 5.05016129,7.32266129 5.0753629,6.88830645 L14.9315726,6.88830645 L14.9315726,12.1164516 L14.9315726,12.1164516 Z M11.3883871,1.48217742 C12.0960081,0.932459677 13.0595565,1.07697581 14.0314113,1.8771371 C14.0360081,1.88084677 14.0410081,1.88423387 14.0458468,1.8878629 C14.046371,1.88826613 14.0466532,1.88891129 14.0471774,1.88935484 C14.0478226,1.88983871 14.0486694,1.88995968 14.0493145,1.89044355 C14.0541532,1.89403226 14.0587903,1.89782258 14.0637097,1.90116935 C15.1107661,2.60012097 15.5269758,3.48100806 15.2060484,4.31778226 C15.1804435,4.38451613 15.1502823,4.45064516 15.1156452,4.51596774 C14.56125,4.37383065 14.4506452,3.97758065 14.366129,3.44875 L14.3420968,3.3066129 C14.3180645,3.17431452 14.229879,3.0628629 14.1066129,3.00931452 C13.98375,2.95576613 13.8419758,2.96677419 13.7285887,3.03923387 C13.3076613,3.30818548 13.0406452,3.34245968 12.9902419,3.32040323 C12.9489113,3.27274194 12.903629,3.00616935 13.0390726,2.52693548 C13.0756855,2.39737903 13.0453629,2.25879032 12.95875,2.15600806 C12.8717339,2.05403226 12.7425806,2.00282258 12.6059274,2.01620968 L12.4625806,2.03471774 C11.9325,2.10673387 11.5202016,2.1153629 11.2243145,1.62673387 C11.2769758,1.57439516 11.3316935,1.52616935 11.3883871,1.48217742 Z M10.9670161,6.03814516 C10.3275403,4.5558871 10.3565323,3.23189516 10.751371,2.33794355 C11.1821371,2.81471774 11.7290323,2.89108871 12.1522581,2.87451613 C12.1042339,3.37774194 12.2247177,3.75616935 12.5070565,3.96568548 C12.7885887,4.17358871 13.185121,4.17951613 13.6517742,3.98814516 C13.7589113,4.39568548 13.9901613,4.89891129 14.5719355,5.17431452 C13.9614919,5.69866935 13.0006855,6.07004032 11.7837097,6.08185484 L11.770121,6.08185484 C11.5133065,6.08379032 11.2454032,6.07004032 10.9670161,6.03814516 Z M2.52923387,7.96959677 C2.52923387,7.43129032 2.85685484,6.88830645 3.58927419,6.88830645 L4.2683871,6.88830645 C4.24459677,7.3521371 4.25939516,7.90346774 4.27326613,8.40629032 C4.27947581,8.64048387 4.28483871,8.85766129 4.28629032,9.05129032 L3.58927419,9.05129032 C2.85685484,9.05133065 2.52923387,8.50830645 2.52923387,7.96959677 Z M2.50794355,10.9394758 C2.50794355,10.3429032 2.99306452,9.85778226 3.58923387,9.85778226 L4.41987903,9.85778226 C4.71758065,10.6929435 5.50826613,11.2958468 6.44451613,11.2958468 C6.83080645,11.2958468 7.20056452,11.193871 7.52306452,11.0068145 L7.52306452,12.0211694 L3.58927419,12.0211694 C2.99310484,12.0211694 2.50794355,11.5360484 2.50794355,10.9394758 Z M2.50794355,13.9093145 C2.50794355,13.3127419 2.99306452,12.827621 3.58923387,12.827621 L7.52306452,12.827621 L7.52306452,14.7909677 C7.52306452,14.8593548 7.53572581,14.9242339 7.54326613,14.9906048 L3.58923387,14.9906048 C2.99310484,14.9906452 2.50794355,14.5054839 2.50794355,13.9093145 Z M2.50794355,16.8799597 C2.50794355,16.2829839 2.99306452,15.7970968 3.58923387,15.7970968 L7.83834677,15.7970968 C8.15931452,16.2614516 8.69435484,16.5673387 9.30056452,16.5673387 C9.90625,16.5673387 10.4409677,16.2614516 10.7617742,15.7970968 L21.4091532,15.7970968 C22.0057258,15.7970968 22.4908468,16.2830242 22.4908468,16.8799597 C22.4908468,17.4765323 22.0057258,17.9616532 21.4091532,17.9616532 L3.58927419,17.9616532 C2.99310484,17.9616532 2.50794355,17.4765323 2.50794355,16.8799597 Z M21.7033065,20.8539516 L3.29552419,20.8539516 C2.06024194,20.8539516 1.0325,19.9494355 0.839153226,18.7681048 L24.1608871,18.7681048 C23.9675403,19.9494355 22.9389919,20.8539516 21.7033065,20.8539516 Z" transform="translate(.5)"/></svg>