<svg xmlns="http://www.w3.org/2000/svg" width="20" height="26" viewBox="0 0 20 26"><g fill="#191970" transform="translate(0 .5)"><path d="M18.1335424,12.1498838 C17.8149607,10.1613743 17.034184,8.94682596 15.7155991,8.43263763 C15.7197281,8.30833187 15.7228894,8.18357965 15.7228894,8.05825342 C15.7228894,5.93676415 15.1496618,3.93620034 14.1082391,2.42526985 C13.0301711,0.861338803 11.5795857,0 10.0231291,0 C8.46667247,0 7.01602263,0.861338803 5.93827722,2.42526985 C4.89685451,3.93620034 4.32336879,5.93676415 4.32336879,8.0583172 C4.32336879,8.15940731 4.32588492,8.25998719 4.32853009,8.36050329 C2.92723525,8.83144929 2.0361356,10.0820967 1.62103749,12.1510956 L0.0161290843,20.8291558 L0,20.8694005 L0,20.9102192 C0,23.1636678 1.87187701,25 4.15136823,25 L15.8714706,25 C18.1506392,25 20,23.1636678 20,20.9102192 L20,20.8627037 L18.1335424,12.1498838 Z M5.23750077,8.0583172 C5.23750077,4.11325154 7.38447543,0.90343311 10.0233227,0.90343311 C12.6624925,0.90343311 14.8094671,4.11299643 14.8094671,8.0583172 C14.8094671,8.1056414 14.8079187,8.16093801 14.8072091,8.20807088 C14.5559179,8.17229072 14.2906267,8.16227738 14.0099807,8.16227738 L5.74756693,8.16227738 C5.57246959,8.16227738 5.4035013,8.16285139 5.23924271,8.17892376 C5.23879109,8.14142156 5.23750077,8.09588318 5.23750077,8.0583172 Z M5.74756693,9.05512313 L14.0099162,9.05512313 C15.4162433,9.05512313 16.7803767,9.4465364 17.2349588,12.3053776 L17.4219272,13.1756455 L11.9399095,15.3282591 C11.5281662,14.7062838 10.8177123,14.2939509 10.0112581,14.2939509 C9.2534492,14.2939509 8.58009219,14.6574289 8.16002632,15.2173469 L2.4697499,12.5887488 L2.5191049,12.3231082 C2.97897735,10.0303717 3.94459337,9.05512313 5.74756693,9.05512313 Z M11.4010045,16.5714442 C11.4010045,17.3288866 10.7775186,17.9452493 10.0113226,17.9452493 C9.2451266,17.9452493 8.62164071,17.3288866 8.62164071,16.5714442 C8.62164071,15.8140018 9.2451266,15.1976391 10.0113226,15.1976391 C10.7775186,15.1976391 11.4010045,15.8137467 11.4010045,16.5714442 Z M15.8715351,24.1070267 L4.15136823,24.1070267 C2.38936255,24.1070267 0.953099849,22.6936785 0.931873974,20.9566505 L2.30065258,13.5116346 L7.77234765,16.0378032 C7.73034752,16.2095608 7.70750873,16.38776 7.70750873,16.572082 C7.70750873,17.8279593 8.74093142,18.8491927 10.0113226,18.8491927 C11.2817783,18.8491927 12.3151365,17.8273853 12.3151365,16.5714442 C12.3151365,16.4335535 12.3019752,16.2985328 12.2781041,16.1673389 L17.6143149,14.0711062 L19.0910293,20.963156 C19.0660615,22.6970588 17.6314117,24.1070267 15.8715351,24.1070267 Z"/><path d="M17.5586373,20.8542848 L2.36291085,20.8542848 C2.16194246,20.8542848 1.99890967,21.0511714 1.99890967,21.3007396 C1.99890967,21.550244 2.16161988,21.7471944 2.36291085,21.7471944 L17.5587018,21.7471944 C17.7596702,21.7471944 17.922703,21.5503078 17.922703,21.3007396 C17.922703,21.0512351 17.7596057,20.8542848 17.5586373,20.8542848 Z"/></g></svg>