<svg xmlns="http://www.w3.org/2000/svg" width="26" height="26" viewBox="0 0 26 26"><g fill="#191970" transform="translate(.5 .5)"><path d="M12.5,0 C5.59644063,0 -2.96059473e-15,5.59644063 -2.96059473e-15,12.5 C-2.96059473e-15,19.4035594 5.59644063,25 12.5,25 C19.4035594,25 25,19.4035594 25,12.5 C24.9921929,5.59967702 19.400323,0.00780710147 12.5,0 Z M22.4095833,6.3525 L21.70125,6.30666667 L21.6475,7.14 L22.8975,7.22083333 C23.1178316,7.6514404 23.3111226,8.09535575 23.47625,8.55 L22.78625,8.35666667 L22.5608333,9.15916667 L23.7725,9.49916667 C23.8963923,9.96501885 23.9910216,10.438165 24.0558333,10.9158333 L23.42375,10.5825 L23.03625,11.3208333 L24.15125,11.9041667 C24.1615278,12.1027778 24.1666667,12.3013889 24.1666667,12.5 C24.1666667,12.7870833 24.1525,13.0708333 24.1320833,13.3525 L23.5833333,12.8975 L23.0508333,13.53875 L24.0195833,14.3425 C23.9430174,14.819097 23.8366985,15.290435 23.70125,15.75375 L23.2583333,15.1929167 L22.605,15.7083333 L23.3833333,16.69375 C23.2098061,17.1444914 23.0083029,17.5839576 22.78,18.0095833 L22.46375,17.3695833 L21.7166667,17.7391667 L22.27125,18.8616667 C22.0075803,19.2653341 21.7194003,19.6524498 21.4083333,20.0208333 L21.2333333,19.335 L20.4258333,19.5408333 L20.7354167,20.7541667 C20.3932816,21.0940812 20.030659,21.4127327 19.6495833,21.7083333 L19.62125,21 L18.7879167,21.0333333 L18.8379167,22.2833333 C18.4326352,22.5479144 18.0112634,22.7869886 17.57625,22.9991667 L17.6966667,22.2941667 L16.875,22.1575 L16.6666667,23.3954167 C16.21541,23.5683989 15.753823,23.7131232 15.2845833,23.82875 L15.54875,23.1620833 L14.7741667,22.8541667 L14.3091667,24.0245833 C13.8324477,24.0977853 13.3516802,24.1416179 12.8695833,24.1558333 L13.265,23.5629167 L12.5716667,23.1004167 L11.87375,24.1475 C11.391815,24.1209746 10.9119984,24.0644764 10.4370833,23.9783333 L10.9479167,23.4783333 L10.3645833,22.8820833 L9.46458333,23.7608333 C8.99858704,23.6348703 8.54089429,23.4799867 8.09416667,23.2970833 L8.6975,22.9158333 L8.2525,22.2108333 L7.1925,22.88125 C6.76270175,22.6614563 6.3469081,22.415292 5.9475,22.1441667 L6.61416667,21.8970833 L6.3225,21.1158333 L5.14916667,21.55 C4.77551655,21.2454131 4.42095801,20.9181283 4.0875,20.57 L4.78625,20.4679167 L4.66666667,19.64625 L3.42916667,19.8270833 C3.12501519,19.451659 2.84447511,19.0577062 2.58916667,18.6475 L3.2975,18.6933333 L3.35125,17.86 L2.10125,17.7791667 C1.88091843,17.3485596 1.68762739,16.9046442 1.5225,16.45 L2.2125,16.6433333 L2.43791667,15.8408333 L1.22625,15.5008333 C1.10235767,15.0349811 1.00772844,14.561835 0.942916667,14.0841667 L1.575,14.4175 L1.9625,13.6791667 L0.8475,13.0958333 C0.838055556,12.8975 0.833333333,12.6988889 0.833333333,12.5 C0.833333333,12.2129167 0.8475,11.9291667 0.867916667,11.6475 L1.41666667,12.1025 L1.94916667,11.46125 L0.98,10.6575 C1.05656594,10.180903 1.16288487,9.709565 1.29833333,9.24625 L1.74166667,9.80708333 L2.395,9.29166667 L1.61666667,8.305 C1.79019391,7.85425861 1.99169709,7.41479243 2.22,6.98916667 L2.53625,7.62916667 L3.28333333,7.25958333 L2.72875,6.13708333 C2.99241974,5.73341589 3.28059965,5.34630024 3.59166667,4.97791667 L3.76666667,5.66375 L4.57416667,5.45791667 L4.26458333,4.24458333 C4.60675543,3.90509736 4.96937728,3.58686398 5.35041667,3.29166667 L5.37875,4 L6.21208333,3.96666667 L6.16208333,2.71666667 C6.56736483,2.45208564 6.98873659,2.21301144 7.42375,2.00083333 L7.30333333,2.70583333 L8.12458333,2.84583333 L8.33333333,1.60458333 C8.78458999,1.43160113 9.24617701,1.28687683 9.71541667,1.17125 L9.45125,1.83791667 L10.2258333,2.14583333 L10.6908333,0.975416667 C11.1675523,0.902214732 11.6483198,0.858382097 12.1304167,0.844166667 L11.735,1.43708333 L12.4283333,1.89958333 L13.12625,0.8525 C13.608185,0.87902544 14.0880016,0.93552357 14.5629167,1.02166667 L14.0520833,1.52166667 L14.6354167,2.11791667 L15.5354167,1.23916667 C16.0014879,1.36416048 16.4593191,1.51806971 16.90625,1.7 L16.3029167,2.08333333 L16.75,2.78625 L17.81,2.11583333 C18.2397982,2.335627 18.6555919,2.58179131 19.055,2.85291667 L18.3883333,3.1 L18.68,3.88125 L19.8533333,3.44708333 C20.2269834,3.75167021 20.581542,4.07895502 20.915,4.42708333 L20.21625,4.52916667 L20.3366667,5.35375 L21.5741667,5.17291667 C21.876748,5.54846899 22.1557554,5.94241907 22.4095833,6.3525 Z"/><path d="M12.5,2.5 C6.9771525,2.5 2.5,6.9771525 2.5,12.5 C2.5,18.0228475 6.9771525,22.5 12.5,22.5 C18.0228475,22.5 22.5,18.0228475 22.5,12.5 C22.493571,6.97981766 18.0201823,2.50642897 12.5,2.5 Z M12.9166667,3.34375 C14.2423449,3.40291372 15.5390375,3.7513341 16.7158333,4.36458333 L12.9425,10.9004167 C12.93375,10.8979167 12.9254167,10.8945833 12.9166667,10.8925 L12.9166667,3.34375 Z M12.0833333,3.34375 L12.0833333,10.8925 C12.0745833,10.8925 12.06625,10.8979167 12.0575,10.9004167 L8.28416667,4.36458333 C9.46096249,3.7513341 10.7576551,3.40291372 12.0833333,3.34375 L12.0833333,3.34375 Z M7.56333333,4.7825 L11.3333333,11.3125 L11.3125,11.3333333 L4.7825,7.56333333 C5.49911774,6.44754867 6.44754867,5.49911774 7.56333333,4.7825 L7.56333333,4.7825 Z M4.36458333,8.2825 L10.9004167,12.0558333 C10.8979167,12.0645833 10.8945833,12.0729167 10.8925,12.0816667 L3.34375,12.0816667 C3.40315471,10.7565559 3.75156826,9.46045746 4.36458333,8.28416667 L4.36458333,8.2825 Z M3.34375,12.9166667 L10.8925,12.9166667 C10.8925,12.9254167 10.8979167,12.93375 10.9004167,12.9425 L4.36458333,16.7158333 C3.7513341,15.5390375 3.40291372,14.2423449 3.34375,12.9166667 L3.34375,12.9166667 Z M4.7825,17.4366667 L11.3125,13.6666667 L11.3333333,13.6875 L7.56333333,20.2175 C6.44754867,19.5008823 5.49911774,18.5524513 4.7825,17.4366667 L4.7825,17.4366667 Z M12.0833333,21.65625 C10.7576551,21.5970863 9.46096249,21.2486659 8.28416667,20.6354167 L12.0575,14.0995833 C12.06625,14.1020833 12.0745833,14.1054167 12.0833333,14.1075 L12.0833333,21.65625 Z M11.6666667,12.5 C11.6666667,12.0397627 12.0397627,11.6666667 12.5,11.6666667 C12.9602373,11.6666667 13.3333333,12.0397627 13.3333333,12.5 C13.3333333,12.9602373 12.9602373,13.3333333 12.5,13.3333333 C12.0397627,13.3333333 11.6666667,12.9602373 11.6666667,12.5 Z M12.9166667,21.65625 L12.9166667,14.1075 C12.9254167,14.1075 12.93375,14.1020833 12.9425,14.0995833 L16.7158333,20.6354167 C15.5390375,21.2486659 14.2423449,21.5970863 12.9166667,21.65625 L12.9166667,21.65625 Z M19.26625,18.6770833 L17.7945833,17.2054167 L17.2054167,17.7945833 L18.6770833,19.26625 C18.291401,19.6180144 17.8764255,19.9362505 17.4366667,20.2175 L13.6666667,13.6875 L13.6875,13.6666667 L20.2175,17.4366667 C19.9362505,17.8764255 19.6180144,18.291401 19.26625,18.6770833 Z M20.6354167,16.7158333 L14.0995833,12.9425 C14.1020833,12.93375 14.1054167,12.9254167 14.1075,12.9166667 L21.65625,12.9166667 C21.5970863,14.2423449 21.2486659,15.5390375 20.6354167,16.7158333 L20.6354167,16.7158333 Z M21.65625,12.0833333 L14.1075,12.0833333 C14.1075,12.0745833 14.1020833,12.06625 14.0995833,12.0575 L20.6354167,8.28416667 C21.2486659,9.46096249 21.5970863,10.7576551 21.65625,12.0833333 L21.65625,12.0833333 Z M13.6875,11.3333333 L13.6666667,11.3125 L17.4366667,4.7825 C18.5524513,5.49911774 19.5008823,6.44754867 20.2175,7.56333333 L13.6875,11.3333333 Z"/></g></svg>