<svg xmlns="http://www.w3.org/2000/svg" width="26" height="26" viewBox="0 0 26 26"><path fill="#191970" d="M7.72945205,0.906849315 C6.19212329,1.53013699 4.81267123,2.44657534 3.62979452,3.62910959 C2.44657534,4.8119863 1.53116438,6.19178082 0.907534247,7.72876712 C0.305479452,9.21369863 0,10.7828767 0,12.3924658 C0,14.0017123 0.305479452,15.5708904 0.907534247,17.055137 C1.53116438,18.5924658 2.44691781,19.9722603 3.62979452,21.1547945 C4.81267123,22.3380137 6.19178082,23.2537671 7.72945205,23.8770548 C9.21438356,24.4797945 10.7832192,24.7842466 12.3928082,24.7842466 C14.0023973,24.7842466 15.5708904,24.4787671 17.0558219,23.8770548 C18.5928082,23.2537671 19.9729452,22.3380137 21.1554795,21.1547945 C22.3386986,19.9722603 23.2544521,18.5931507 23.8777397,17.055137 C24.4797945,15.5708904 24.784589,14.0017123 24.784589,12.3924658 C24.784589,10.7828767 24.4794521,9.21369863 23.8777397,7.72876712 C23.2544521,6.19178082 22.3380137,4.81164384 21.1554795,3.62910959 C19.9729452,2.44657534 18.5941781,1.53013699 17.0558219,0.906849315 C15.5708904,0.305136986 14.0023973,0 12.3928082,0 C10.7832192,0 9.21438356,0.305136986 7.72945205,0.906849315 Z M3.09726027,17.6092466 C2.50034247,17.234589 1.95034247,16.8030822 1.46335616,16.294863 C0.719520548,14.2017123 0.593493151,11.9356164 1.08630137,9.78458904 C1.31815068,9.32739726 1.58184932,8.88835616 1.88013699,8.46780822 C1.97226027,8.3380137 2.05753425,8.20273973 2.15616438,8.07671233 L4.95273973,9.73150685 C4.95273973,9.75342466 4.95273973,9.77739726 4.95273973,9.80171233 C4.94554795,11.3058219 5.09828767,12.7989726 5.40239726,14.2705479 C5.40342466,14.2773973 5.40445205,14.2811644 5.40582192,14.2873288 L3.2369863,17.6880137 C3.18972603,17.6640411 3.14280822,17.6380137 3.09726027,17.6092466 Z M11.4123288,23.3582192 C11.894863,23.6044521 12.3910959,23.8123288 12.9010274,23.9815068 C10.7349315,24.0756849 8.54726027,23.5681507 6.61335616,22.4585616 L11.3013699,23.2938356 C11.3373288,23.3167808 11.3739726,23.3386986 11.4123288,23.3582192 Z M11.3952055,22.5119863 L5.8630137,21.5260274 C5.21575342,20.7400685 4.63356164,19.9085616 4.13321918,19.019863 C4.00582192,18.7938356 3.86369863,18.5743151 3.75582192,18.3383562 L5.92260274,14.9410959 C5.97054795,14.9530822 6.0239726,14.9657534 6.08458904,14.9818493 C7.44006849,15.3445205 8.81952055,15.6023973 10.2085616,15.8044521 C10.289726,15.8157534 10.3575342,15.8256849 10.415411,15.8318493 L13.0126712,20.3226027 C12.5619863,20.9561644 12.1061644,21.5863014 11.640411,22.209589 C11.5630137,22.3133562 11.4808219,22.4130137 11.3952055,22.5119863 Z M20.5993151,20.5989726 C20.1589041,21.039726 19.6914384,21.4369863 19.2020548,21.7910959 C19.1208904,21.1424658 18.9808219,20.5068493 18.7832192,19.8859589 L21.5544521,14.7160959 C22.3178082,14.3684932 23.0541096,13.9743151 23.7376712,13.4856164 C23.8270548,13.4222603 23.9013699,13.3513699 23.9589041,13.2739726 C23.7582192,15.9455479 22.6383562,18.560274 20.5993151,20.5989726 Z M20.4763699,13.8941781 C20.5794521,14.0907534 20.6811644,14.2893836 20.7832192,14.4907534 L18.1065068,19.4839041 C18.0910959,19.4873288 18.0763699,19.4907534 18.0609589,19.4928082 C16.6140411,19.7630137 15.1554795,19.9068493 13.684589,19.9136986 L11.0133562,15.294863 C11.4291096,14.5229452 11.8410959,13.7479452 12.2496575,12.9726027 C12.5270548,12.4465753 12.7996575,11.9171233 13.0719178,11.3880137 L18.6003425,10.8202055 C19.2773973,11.8133562 19.9188356,12.8277397 20.4763699,13.8941781 Z M19.3547945,7.97157534 C19.0924658,8.66438356 18.8116438,9.35 18.5325342,10.0369863 L13.1469178,10.5900685 C13.0825342,10.505137 13.0157534,10.4215753 12.9455479,10.3417808 C12.309589,9.62157534 11.6695205,8.90582192 11.0304795,8.1880137 C11.0363014,8.18082192 11.0421233,8.17534247 11.0479452,8.16883562 C10.7900685,7.91130137 10.5315068,7.65376712 10.2736301,7.39554795 L11.7729452,2.88150685 C11.8763699,2.85410959 11.9804795,2.83116438 12.0856164,2.81986301 C12.9006849,2.7369863 13.7167808,2.64315068 14.5339041,2.59589041 C15.0342466,2.56780822 15.5373288,2.55171233 16.0462329,2.58767123 L19.7558219,6.76883562 C19.6280822,7.17226027 19.5034247,7.57671233 19.3547945,7.97157534 Z M20.5993151,4.18527397 C21.6226027,5.20924658 22.4150685,6.37773973 22.9753425,7.6260274 C22.2821918,7.1489726 21.5410959,6.75650685 20.7619863,6.43664384 C20.6407534,6.38664384 20.5164384,6.34246575 20.3900685,6.2989726 L16.7386986,2.18356164 C16.7640411,2.00582192 16.7773973,1.82773973 16.7828767,1.64828767 C18.1719178,2.21369863 19.4739726,3.06027397 20.5993151,4.18527397 Z M8.6760274,1.43219178 C8.69041096,1.44280822 8.69726027,1.45171233 8.70547945,1.45410959 C9.54006849,1.74246575 10.2993151,2.16712329 11.0150685,2.67089041 L9.61438356,6.8890411 C9.60719178,6.89109589 9.60034247,6.89315068 9.59349315,6.89623288 C9.30684932,7.01472603 9.01472603,7.12089041 8.73253425,7.24931507 C7.56986301,7.77773973 6.43630137,8.3630137 5.36849315,9.06472603 L2.60445205,7.42945205 C2.60856164,7.34315068 2.62328767,7.25547945 2.65273973,7.17739726 C2.83835616,6.68287671 3.02089041,6.18561644 3.23082192,5.7010274 C3.39246575,5.32773973 3.57671233,4.96712329 3.77773973,4.61472603 C3.90924658,4.46952055 4.04554795,4.32568493 4.1859589,4.18527397 C5.49863014,2.87294521 7.05,1.94109589 8.70171233,1.39006849 C8.69315068,1.40342466 8.68424658,1.41746575 8.6760274,1.43219178 Z" transform="translate(.5 .5)"/></svg>