<svg xmlns="http://www.w3.org/2000/svg" width="25" height="25" viewBox="0 0 25 25"><g fill="#191970"><path d="M23.2291667,0.15625 L13.75,0.15625 C12.8587186,0.157283238 12.1364499,0.879551913 12.1354167,1.77083333 L12.1354167,9.1775 L1.77083333,9.1775 C0.879714339,9.17853275 0.157512749,9.90054797 0.15625,10.7916667 L0.15625,19.9979167 C0.157283238,20.8891981 0.879551913,21.6114668 1.77083333,21.6125 L7.42083333,21.6125 L7.42083333,24.1145833 L6.76479167,24.1145833 C6.56343785,24.1145833 6.40020833,24.2778129 6.40020833,24.4791667 C6.40020833,24.6805205 6.56343785,24.84375 6.76479167,24.84375 L10.995625,24.84375 C11.1969788,24.84375 11.3602083,24.6805205 11.3602083,24.4791667 C11.3602083,24.2778129 11.1969788,24.1145833 10.995625,24.1145833 L10.3395833,24.1145833 L10.3395833,21.6125 L12.1354167,21.6125 L12.1354167,23.2291667 C12.1364499,24.1204481 12.8587186,24.8427168 13.75,24.84375 L23.2291667,24.84375 C24.1204481,24.8427168 24.8427168,24.1204481 24.84375,23.2291667 L24.84375,1.77083333 C24.8427168,0.879551913 24.1204481,0.157283238 23.2291667,0.15625 Z M12.8645833,5.62666667 L24.1145833,5.62666667 L24.1145833,7.3975 L12.8645833,7.3975 L12.8645833,5.62666667 Z M13.75,0.885416667 L23.2291667,0.885416667 C23.7179784,0.885876076 24.1141239,1.28202163 24.1145833,1.77083333 L24.1145833,4.8975 L12.8645833,4.8975 L12.8645833,1.77083333 C12.8650427,1.28202163 13.2611883,0.885876076 13.75,0.885416667 Z M12.8645833,8.12666667 L24.1145833,8.12666667 L24.1145833,9.8975 L17.3333333,9.8975 C17.0342532,9.4479343 16.5301696,9.1777136 15.9902083,9.1775 L12.8652083,9.1775 L12.8645833,8.12666667 Z M0.885416667,19.9979167 L0.885416667,10.7916667 C0.885990671,10.3029025 1.28206917,9.906824 1.77083333,9.90625 L15.9895833,9.90625 C16.478395,9.90670941 16.8745406,10.302855 16.875,10.7916667 L16.875,19.9979167 C16.8745406,20.4867284 16.478395,20.8828739 15.9895833,20.8833333 L1.77083333,20.8833333 C1.28206917,20.8827593 0.885990671,20.4866808 0.885416667,19.9979167 Z M9.61041667,24.1145833 L8.15,24.1145833 L8.15,21.6125 L9.61041667,21.6125 L9.61041667,24.1145833 Z M23.2291667,24.1145833 L13.75,24.1145833 C13.2611883,24.1141239 12.8650427,23.7179784 12.8645833,23.2291667 L12.8645833,21.6125 L15.9895833,21.6125 C16.5002346,21.6121031 16.98046,21.3696329 17.2839583,20.9589583 C17.4978158,21.4887142 18.0315668,21.8176164 18.6009122,21.7704773 C19.1702576,21.7233381 19.6426483,21.3111321 19.7664684,20.7534181 C19.8902884,20.1957042 19.6367114,19.6223235 19.1408034,19.3386836 C18.6448954,19.0550438 18.0221087,19.1271789 17.6041667,19.5166667 L17.6041667,10.7916667 C17.604164,10.7364176 17.601313,10.6812055 17.595625,10.62625 L24.1145833,10.62625 L24.1145833,23.2291667 C24.1141239,23.7179784 23.7179784,24.1141239 23.2291667,24.1145833 L23.2291667,24.1145833 Z M17.9166667,20.46875 C17.9166667,20.1523369 18.1731702,19.8958333 18.4895833,19.8958333 C18.8059965,19.8958333 19.0625,20.1523369 19.0625,20.46875 C19.0625,20.7851631 18.8059965,21.0416667 18.4895833,21.0416667 C18.1732654,21.0414369 17.9168965,20.7850679 17.9166667,20.46875 L17.9166667,20.46875 Z"/><path d="M23.2291667 12.4479166C23.1324562 12.4478614 23.0396909 12.4862549 22.9713062 12.5546396 22.9029216 12.6230242 22.864528 12.7157895 22.8645833 12.8125L22.8645833 14.5572917C22.8645833 14.7586455 23.0278129 14.921875 23.2291667 14.921875 23.4305205 14.921875 23.5937501 14.7586455 23.5937501 14.5572917L23.5937501 12.8125C23.5938053 12.7157895 23.5554117 12.6230242 23.4870271 12.5546396 23.4186425 12.4862549 23.3258771 12.4478614 23.2291667 12.4479166L23.2291667 12.4479166ZM10.340625 19.6041667C10.340625 19.4028129 10.1773955 19.2395833 9.97604167 19.2395833L7.784375 19.2395833C7.58302118 19.2395833 7.41979167 19.4028129 7.41979167 19.6041667 7.41979167 19.8055205 7.58302118 19.96875 7.784375 19.96875L9.97604167 19.96875C10.1773479 19.9686351 10.3405101 19.8054729 10.340625 19.6041667L10.340625 19.6041667Z"/></g></svg>