<svg xmlns="http://www.w3.org/2000/svg" width="20" height="26" viewBox="0 0 20 26"><g fill="none" transform="translate(0 .5)"><g fill="#191970" transform="translate(7.595 5.137)"><path d="M0,7.10616438 L0,0.0599315068 L4.75949367,0.051369863 L4.75949367,7.09760274 L0,7.10616438 Z M1.21518987,1.29280822 L1.21518987,5.88184932 L3.55274262,5.87328767 L3.55274262,1.28424658 L1.21518987,1.29280822 Z"/><path d="M0.0253164557,19.7859589 L0,0.0599315068 L4.75949367,0.051369863 L4.78481013,19.7773973 L0.0253164557,19.7859589 Z M1.21518987,1.29280822 L1.23206751,18.5530822 L3.56962025,18.5445205 L3.55274262,1.28424658 L1.21518987,1.29280822 Z"/></g><path fill="#191970" d="M.632911392 4.19520548C.29535865 4.19520548.0253164557 3.92123288.0253164557 3.57876712L.0253164557.667808219C.0253164557.325342466.29535865.051369863.632911392.051369863.970464135.051369863 1.24050633.325342466 1.24050633.667808219L1.24050633 3.57876712C1.24050633 3.92123288.970464135 4.19520548.632911392 4.19520548ZM3.75527426 4.19520548C3.41772152 4.19520548 3.14767932 3.92123288 3.14767932 3.57876712L3.14767932.667808219C3.14767932.325342466 3.41772152.051369863 3.75527426.051369863 4.092827.051369863 4.3628692.325342466 4.3628692.667808219L4.3628692 3.57876712C4.3628692 3.92123288 4.08438819 4.19520548 3.75527426 4.19520548ZM6.86919831 4.19520548C6.53164557 4.19520548 6.26160338 3.92123288 6.26160338 3.57876712L6.26160338.667808219C6.26160338.325342466 6.53164557.051369863 6.86919831.051369863 7.20675105.051369863 7.47679325.325342466 7.47679325.667808219L7.47679325 3.57876712C7.47679325 3.92123288 7.20675105 4.19520548 6.86919831 4.19520548ZM9.99156118 4.19520548C9.65400844 4.19520548 9.38396624 3.92123288 9.38396624 3.57876712L9.38396624.667808219C9.38396624.325342466 9.65400844.051369863 9.99156118.051369863 10.3291139.051369863 10.5991561.325342466 10.5991561.667808219L10.5991561 3.57876712C10.5991561 3.92123288 10.3206751 4.19520548 9.99156118 4.19520548ZM13.1054852 4.19520548C12.7679325 4.19520548 12.4978903 3.92123288 12.4978903 3.57876712L12.4978903.667808219C12.4978903.325342466 12.7679325.051369863 13.1054852.051369863 13.443038.051369863 13.7130802.325342466 13.7130802.667808219L13.7130802 3.57876712C13.7130802 3.92123288 13.443038 4.19520548 13.1054852 4.19520548ZM16.2278481 4.19520548C15.8902954 4.19520548 15.6202532 3.92123288 15.6202532 3.57876712L15.6202532.667808219C15.6202532.325342466 15.8902954.051369863 16.2278481.051369863 16.5654008.051369863 16.835443.325342466 16.835443.667808219L16.835443 3.57876712C16.835443 3.92123288 16.556962 4.19520548 16.2278481 4.19520548ZM19.3417722 4.19520548C19.0042194 4.19520548 18.7341772 3.92123288 18.7341772 3.57876712L18.7341772.667808219C18.7341772.325342466 19.0042194.051369863 19.3417722.051369863 19.6793249.051369863 19.9493671.325342466 19.9493671.667808219L19.9493671 3.57876712C19.9493671 3.92123288 19.6793249 4.19520548 19.3417722 4.19520548Z"/><path fill="#FFF" d="M5.94092827,7.54280822 L14.0337553,7.54280822 C16.9620253,7.54280822 19.3417722,6.21575342 19.3417722,3.24486301 L0.632911392,3.24486301 C2.21940928,6.11015982 3.98874824,7.54280822 5.94092827,7.54280822 Z"/><path fill="#191970" d="M14.0337553 8.15924658 5.94092827 8.15924658C2.29535865 8.15924658.0253164557 6.27568493.0253164557 3.24486301.0253164557 2.90239726.29535865 2.62842466.632911392 2.62842466L19.3417722 2.62842466C19.6793249 2.62842466 19.9493671 2.90239726 19.9493671 3.24486301 19.9493671 6.27568493 17.6877637 8.15924658 14.0337553 8.15924658ZM1.28270042 3.86130137C1.66244726 6.60958904 4.62447257 6.92636986 5.94092827 6.92636986L14.0337553 6.92636986C15.3586498 6.92636986 18.3122363 6.60958904 18.6919831 3.86130137L1.28270042 3.86130137 1.28270042 3.86130137ZM12.9704641 23.6900685 7.00421941 23.7157534C6.66666667 23.7157534 6.39662447 23.989726 6.39662447 24.3321918 6.39662447 24.6746575 6.66666667 24.9486301 7.00421941 24.9486301L12.9704641 24.9315068C13.3080169 24.9315068 13.5780591 24.6575342 13.5780591 24.3150685 13.5780591 23.9640411 13.3080169 23.6900685 12.9704641 23.6900685Z"/></g></svg>