<svg xmlns="http://www.w3.org/2000/svg" width="26" height="26" viewBox="0 0 26 26"><g fill="#191970" transform="translate(.5 .5)"><path d="M5.14705882,2.94117647 C3.93073529,2.94117647 2.94117647,3.93073529 2.94117647,5.14705882 C2.94117647,6.36338235 3.93073529,7.35294118 5.14705882,7.35294118 C6.36338235,7.35294118 7.35294118,6.36343137 7.35294118,5.14705882 C7.35294118,3.93068627 6.36343137,2.94117647 5.14705882,2.94117647 Z M5.14705882,5.88235294 C4.74161765,5.88235294 4.41176471,5.5525 4.41176471,5.14705882 C4.41176471,4.74161765 4.74161765,4.41176471 5.14705882,4.41176471 C5.5525,4.41176471 5.88235294,4.74161765 5.88235294,5.14705882 C5.88235294,5.5525 5.5525,5.88235294 5.14705882,5.88235294 Z"/><path d="M0,0 L0,25 L25,25 C25,24.3607843 25,0.792254902 25,0 C23.940049,0 1.13627451,0 0,0 Z M23.5294118,1.47058824 L23.5294118,8.82352941 L16.1764706,8.82352941 L16.1764706,1.47058824 L23.5294118,1.47058824 Z M1.47058824,1.47058824 L8.82352941,1.47058824 L8.82352941,8.82352941 L1.47058824,8.82352941 L1.47058824,1.47058824 Z M1.47058824,23.5294118 L1.47058824,16.1764706 L8.82352941,16.1764706 L8.82352941,23.5294118 L1.47058824,23.5294118 Z M23.5294118,23.5294118 L16.1764706,23.5294118 L16.1764706,16.1764706 L23.5294118,16.1764706 L23.5294118,23.5294118 Z M23.5294118,14.7058824 L14.7058824,14.7058824 L14.7058824,23.5294118 L10.2941176,23.5294118 L10.2941176,14.7058824 L1.47058824,14.7058824 L1.47058824,10.2941176 L10.2941176,10.2941176 L10.2941176,1.47058824 L14.7058824,1.47058824 L14.7058824,10.2941176 L23.5294118,10.2941176 L23.5294118,14.7058824 Z"/><path d="M19.8529412 7.35294118C21.0693137 7.35294118 22.0588235 6.36343137 22.0588235 5.14705882 22.0588235 3.93068627 21.0693137 2.94117647 19.8529412 2.94117647 18.6365686 2.94117647 17.6470588 3.93073529 17.6470588 5.14705882 17.6470588 6.36338235 18.6365686 7.35294118 19.8529412 7.35294118ZM19.8529412 4.41176471C20.2584314 4.41176471 20.5882353 4.74161765 20.5882353 5.14705882 20.5882353 5.5525 20.2584314 5.88235294 19.8529412 5.88235294 19.447451 5.88235294 19.1176471 5.5525 19.1176471 5.14705882 19.1176471 4.74161765 19.447451 4.41176471 19.8529412 4.41176471ZM5.14705882 17.6470588C3.93073529 17.6470588 2.94117647 18.6365686 2.94117647 19.8529412 2.94117647 21.0693137 3.93073529 22.0588235 5.14705882 22.0588235 6.36338235 22.0588235 7.35294118 21.0693137 7.35294118 19.8529412 7.35294118 18.6365686 6.36343137 17.6470588 5.14705882 17.6470588ZM5.14705882 20.5882353C4.74161765 20.5882353 4.41176471 20.2584314 4.41176471 19.8529412 4.41176471 19.447451 4.74161765 19.1176471 5.14705882 19.1176471 5.5525 19.1176471 5.88235294 19.447451 5.88235294 19.8529412 5.88235294 20.2584314 5.5525 20.5882353 5.14705882 20.5882353ZM19.8529412 22.0588235C21.0693137 22.0588235 22.0588235 21.0693137 22.0588235 19.8529412 22.0588235 18.6365686 21.0693137 17.6470588 19.8529412 17.6470588 18.6365686 17.6470588 17.6470588 18.6365686 17.6470588 19.8529412 17.6470588 21.0693137 18.6365686 22.0588235 19.8529412 22.0588235ZM19.8529412 19.1176471C20.2584314 19.1176471 20.5882353 19.447451 20.5882353 19.8529412 20.5882353 20.2584314 20.2584314 20.5882353 19.8529412 20.5882353 19.447451 20.5882353 19.1176471 20.2584314 19.1176471 19.8529412 19.1176471 19.447451 19.447451 19.1176471 19.8529412 19.1176471Z"/><polygon points="11.765 2.941 13.235 2.941 13.235 4.412 11.765 4.412"/><polygon points="11.765 5.882 13.235 5.882 13.235 7.353 11.765 7.353"/><polygon points="11.765 8.824 13.235 8.824 13.235 10.294 11.765 10.294"/><polygon points="11.765 11.765 13.235 11.765 13.235 13.235 11.765 13.235"/><polygon points="11.765 14.706 13.235 14.706 13.235 16.176 11.765 16.176"/><polygon points="11.765 17.647 13.235 17.647 13.235 19.118 11.765 19.118"/><polygon points="11.765 20.588 13.235 20.588 13.235 22.059 11.765 22.059"/><polygon points="20.588 11.765 22.059 11.765 22.059 13.235 20.588 13.235"/><polygon points="17.647 11.765 19.118 11.765 19.118 13.235 17.647 13.235"/><polygon points="14.706 11.765 16.176 11.765 16.176 13.235 14.706 13.235"/><polygon points="8.824 11.765 10.294 11.765 10.294 13.235 8.824 13.235"/><polygon points="5.882 11.765 7.353 11.765 7.353 13.235 5.882 13.235"/><polygon points="2.941 11.765 4.412 11.765 4.412 13.235 2.941 13.235"/></g></svg>