<svg xmlns="http://www.w3.org/2000/svg" width="22" height="26" viewBox="0 0 22 26"><g fill="none" fill-rule="evenodd" stroke="#191970" stroke-linecap="round" transform="translate(.5 .5)"><path d="M3.79166667 12.375C6.07667809 13.9474601 9.10057234 13.9252817 11.3622731 12.3194741 13.6239738 10.7136666 14.6418865 7.8661621 13.9107143 5.19047619M1.32738095 9.19047619C.30592445 6.39678326 1.27910675 3.26501258 3.70402527 1.5422637 6.1289438-.180485189 9.40652759-.068610829 11.7083333 1.81547619"/><path d="M2.46973092,5.02984308 L12.8625881,5.02984308 C14.0181124,5.02984308 14.95485,5.96658064 14.95485,7.12210498 C14.95485,8.27762933 14.0181124,9.21436689 12.8625881,9.21436689 L2.46973092,9.21436689 C1.31420658,9.21436689 0.377469018,8.27762933 0.377469018,7.12210498 C0.377469018,5.96658064 1.31420658,5.02984308 2.46973092,5.02984308 Z" transform="rotate(-35.41 7.666 7.122)"/><line x1="11.357" x2="15.935" y1="12.315" y2="18.75"/><circle cx="17.744" cy="21.298" r="3.125"/></g></svg>