<svg xmlns="http://www.w3.org/2000/svg" width="26" height="26" viewBox="0 0 26 26"><g fill="#191970" transform="translate(.5 .5)"><path d="M24.726875,5.51395833 L21.0416667,2.09708333 C21.0089097,2.06671655 20.9708456,2.0426352 20.929375,2.02604167 L17.5485417,0.673541667 L17.5458333,0.671875 L16.329375,0.185833333 L16.3254167,0.184166667 L16.3208333,0.182291667 C16.3129167,0.179166667 16.3045833,0.177708333 16.2964583,0.175208333 C16.2833205,0.170402822 16.2698906,0.166436506 16.25625,0.163333333 C16.2352331,0.159297576 16.2138993,0.157136308 16.1925,0.156875 C16.1904167,0.156875 16.188125,0.156875 16.1858333,0.156875 L8.81416667,0.156875 C8.811875,0.156875 8.80958333,0.156875 8.8075,0.156875 C8.78610071,0.157136308 8.76476691,0.159297576 8.74375,0.163333333 C8.73020687,0.166463059 8.71685211,0.1703582 8.70375,0.175 C8.695625,0.177708333 8.68708333,0.179166667 8.67916667,0.182291667 L8.67458333,0.184166667 L8.670625,0.185625 L7.45416667,0.671875 L7.45145833,0.673541667 L4.07083333,2.02604167 C4.02936269,2.0426352 3.99129862,2.06671655 3.95854167,2.09708333 L0.273125,5.51375 C0.148827011,5.62877803 0.12016831,5.81428269 0.203958333,5.96145833 L2.339375,9.71145833 C2.43305511,9.87597052 2.63706402,9.94140905 2.80895833,9.86208333 L4.47916667,9.09125 L4.47916667,24.4791667 C4.47911136,24.5758771 4.51750494,24.6686425 4.58588957,24.7370271 C4.65427421,24.8054117 4.74703954,24.8437501 4.84375,24.8437501 L20.15625,24.8437501 C20.2529605,24.8437501 20.3457258,24.8054117 20.4141104,24.7370271 C20.4824951,24.6686425 20.5208886,24.5758771 20.5208333,24.4791667 L20.5208333,9.09104167 L22.1910417,9.861875 C22.3629295,9.94130721 22.5670121,9.87584503 22.660625,9.71125 L24.7960417,5.96125 C24.8796078,5.81417301 24.8509621,5.628925 24.726875,5.51395833 Z M8.48729167,1.044375 C8.74860665,3.0612089 10.4663077,4.57071069 12.5,4.57071069 C14.5336923,4.57071069 16.2513933,3.0612089 16.5127083,1.044375 L17.0127083,1.24458333 C16.6571094,3.4611512 14.744494,5.09138621 12.4995833,5.09138621 C10.2546727,5.09138621 8.34205731,3.4611512 7.98645833,1.24458333 L8.48729167,1.044375 Z M15.8014583,0.885416667 C15.6158889,2.56875933 14.1935402,3.84292674 12.5,3.84292674 C10.8064598,3.84292674 9.38411106,2.56875933 9.19854167,0.885416667 L15.8014583,0.885416667 Z M19.7916667,24.1145833 L5.20833333,24.1145833 L5.20833333,23.59375 L19.7916667,23.59375 L19.7916667,24.1145833 Z M22.1925,9.05979167 L20.5208333,8.28770833 L20.5208333,6.961875 C20.5208333,6.76052118 20.3576038,6.59729167 20.15625,6.59729167 C19.9548962,6.59729167 19.7916667,6.76052118 19.7916667,6.961875 L19.7916667,22.8645833 L5.20833333,22.8645833 L5.20833333,6.961875 C5.20833332,6.76052119 5.04510381,6.59729168 4.84375,6.59729168 C4.64239619,6.59729168 4.47916668,6.76052119 4.47916667,6.961875 L4.47916667,8.28770833 L2.8075,9.05979167 L0.980625,5.85208333 L4.40479167,2.67791667 L7.295625,1.52083333 C7.77516442,4.01645598 9.95872268,5.82038448 12.5,5.82038448 C15.0412773,5.82038448 17.2248356,4.01645598 17.704375,1.52083333 L20.5952083,2.6775 L24.019375,5.85208333 L22.1925,9.05979167 Z"/><path d="M18.90625,17.7952083 C18.8095395,17.795153 18.7167742,17.8335466 18.6483896,17.9019312 C18.5800049,17.9703159 18.5416114,18.0630812 18.5416666,18.1597917 L18.5416666,19.8264583 C18.5416666,20.0278121 18.7048962,20.1910417 18.90625,20.1910417 C19.1076038,20.1910417 19.2708334,20.0278121 19.2708334,19.8264583 L19.2708334,18.1597917 C19.2708886,18.0630812 19.2324951,17.9703159 19.1641104,17.9019312 C19.0957258,17.8335466 19.0029605,17.795153 18.90625,17.7952083 Z"/></g></svg>