<svg xmlns="http://www.w3.org/2000/svg" width="22" height="26" viewBox="0 0 22 26"><g fill="#191970" transform="translate(.5 .5)"><path d="M20.5,0 L0.5,0 C0.2238281,0 0,0.218582129 0,0.48828125 L0,24.5117188 C0,24.7814179 0.2238281,25 0.5,25 L20.5,25 C20.7761719,25 21,24.7814179 21,24.5117188 L21,0.48828125 C21,0.218582129 20.7761719,0 20.5,0 Z M20,0.9765625 L20,3.08227539 L18.0615234,0.9765625 L20,0.9765625 Z M1,0.9765625 L2,0.9765625 L2,24.0234375 L1,24.0234375 L1,0.9765625 Z M3,0.9765625 L16.7167969,0.9765625 L19.7914063,4.3165207 L20,4.54311372 L20,20.8721161 L16.3121094,24.0234375 L3,24.0234375 L3,0.9765625 Z M20,24.0234375 L17.8306641,24.0234375 L20,22.1698761 L20,24.0234375 Z"/><path d="M9.4876953 21.09375 6.4876953 21.09375C6.2121094 21.09375 5.9876953 21.3129043 5.9876953 21.5820312 5.9876953 21.8511582 6.2121094 22.0703125 6.4876953 22.0703125L9.4876953 22.0703125C9.76308595 22.0703125 9.9876953 21.8511582 9.9876953 21.5820312 9.9876953 21.3129043 9.76308595 21.09375 9.4876953 21.09375ZM16.9876953 21.5820312C16.9876953 21.3129043 16.763086 21.09375 16.4876953 21.09375L13.4876953 21.09375C13.2121094 21.09375 12.9876953 21.3129043 12.9876953 21.5820312 12.9876953 21.8511582 13.2121094 22.0703125 13.4876953 22.0703125L16.4876953 22.0703125C16.763086 22.0703125 16.9876953 21.8511582 16.9876953 21.5820312ZM11.4876953 21.09375C11.2121094 21.09375 10.9876953 21.3129043 10.9876953 21.5820312 10.9876953 21.8511582 11.2121094 22.0703125 11.4876953 22.0703125 11.763086 22.0703125 11.9876953 21.8511582 11.9876953 21.5820312 11.9876953 21.3129043 11.763086 21.09375 11.4876953 21.09375ZM6.4876953 20.1171875 16.4876953 20.1171875C16.7636719 20.1171875 16.9876953 19.8986054 16.9876953 19.6289062 16.9876953 19.3592071 16.7636719 19.140625 16.4876953 19.140625L6.4876953 19.140625C6.21152345 19.140625 5.9876953 19.3592071 5.9876953 19.6289062 5.9876953 19.8986054 6.21152345 20.1171875 6.4876953 20.1171875ZM9.1605469 9.11636353C9.33808595 9.21268462 9.5675781 9.25521851 9.72265625 9.25521851 9.97128905 9.25521851 10.1191406 9.1796875 10.1662109 9.02862549L10.4996094 7.86552432 12.4171875 7.86552432 12.7574219 9.02805327C12.7990235 9.17949678 12.9302735 9.25521851 13.1511719 9.25521851 13.4128906 9.25521851 13.884961 9.10148623 13.884961 8.78334043 13.884961 8.77170562 13.8791016 8.74252319 13.8671875 8.69579316 13.8671875 8.69579316 12.1464844 3.21941377 12.1398438 3.19824219 12.0466797 2.90203096 11.6662109 2.8137207 11.3880859 2.8137207 11.130664 2.8137207 10.7363281 2.87952422 10.6451172 3.16009521L8.9160156 8.6572647C8.90410155 8.70704648 8.89824119 8.73832705 8.89824119 8.7507248 8.89785155 8.91551973 9.0107422 9.03511045 9.1605469 9.11636353L9.1605469 9.11636353ZM11.5242188 4.29077148 12.3029297 6.97402954 10.7552735 6.97402954 11.5242188 4.29077148ZM9.31816405 16.9971466C9.31816405 17.206955 9.4345703 17.3118591 9.6671875 17.3118591L13.3814453 17.3118591C13.6332031 17.3118591 13.7484375 17.0196533 13.7484375 16.8136597 13.7484375 16.6078567 13.6328125 16.3154602 13.3814453 16.3154602L10.8039063 16.3154602 13.4529297 11.6394043C13.5425781 11.4938736 13.5873047 11.356926 13.5873047 11.2287521 13.5873047 11.0246658 13.4708985 10.9228134 13.2382812 10.9228134 13.2382812 10.9228134 9.85546875 10.9228134 9.8373047 10.9228134 9.58027345 10.9228134 9.4792969 11.2117768 9.4792969 11.4208222 9.4792969 11.6352081 9.57421875 11.9190216 9.8373047 11.9190216L12.1015625 11.9190216 9.4433594 16.6038513C9.3597656 16.7379379 9.31816405 16.8691635 9.31816405 16.9971466Z"/></g></svg>