<svg xmlns="http://www.w3.org/2000/svg" width="24" height="26" viewBox="0 0 24 26"><g fill="#191970" transform="translate(.71 .5)"><path d="M20.5645161,0.806451613 L13.3064516,0.806451613 C12.9248658,0.299775322 12.3278409,0.00126290484 11.6935484,0 L2.01612903,0 C0.902651714,0 0,0.902651714 0,2.01612903 L0,22.983871 C0,24.0973483 0.902651714,25 2.01612903,25 L11.6935484,25 C12.3278409,24.9987371 12.9248658,24.7002247 13.3064516,24.1935484 L20.5645161,24.1935484 C21.6779934,24.1935484 22.5806452,23.2908967 22.5806452,22.1774194 L22.5806452,2.82258065 C22.5806452,1.70910333 21.6779934,0.806451613 20.5645161,0.806451613 Z M12.9032258,22.983871 C12.9032258,23.6519574 12.3616348,24.1935484 11.6935484,24.1935484 L2.01612903,24.1935484 C1.34804264,24.1935484 0.806451613,23.6519574 0.806451613,22.983871 L0.806451613,2.01612903 C0.806451613,1.34804264 1.34804264,0.806451613 2.01612903,0.806451613 L11.6935484,0.806451613 C12.3616348,0.806451613 12.9032258,1.34804264 12.9032258,2.01612903 L12.9032258,22.983871 Z M21.7741935,22.1774194 C21.7741935,22.8455057 21.2326025,23.3870968 20.5645161,23.3870968 L13.7096774,23.3870968 L13.7096774,1.61290323 L20.5645161,1.61290323 C21.2326025,1.61290323 21.7741935,2.15449425 21.7741935,2.82258065 L21.7741935,22.1774194 Z"/><path d="M4.43548387 7.25806452C3.32200655 7.25806452 2.41935484 8.16071623 2.41935484 9.27419355 2.41935484 10.3876709 3.32200655 11.2903226 4.43548387 11.2903226 5.54896119 11.2903226 6.4516129 10.3876709 6.4516129 9.27419355 6.4516129 8.16071623 5.54896119 7.25806452 4.43548387 7.25806452L4.43548387 7.25806452ZM4.43548387 10.483871C3.76739748 10.483871 3.22580645 9.94227994 3.22580645 9.27419355 3.22580645 8.60610716 3.76739748 8.06451613 4.43548387 8.06451613 5.10357026 8.06451613 5.64516129 8.60610716 5.64516129 9.27419355 5.64516129 9.94227994 5.10357026 10.483871 4.43548387 10.483871L4.43548387 10.483871ZM9.27419355 7.25806452C8.16071623 7.25806452 7.25806452 8.16071623 7.25806452 9.27419355 7.25806452 10.3876709 8.16071623 11.2903226 9.27419355 11.2903226 10.3876709 11.2903226 11.2903226 10.3876709 11.2903226 9.27419355 11.2903226 8.73948288 11.0779096 8.22667258 10.6998121 7.84857504 10.3217145 7.4704775 9.80890421 7.25806452 9.27419355 7.25806452L9.27419355 7.25806452ZM9.27419355 10.483871C8.60610716 10.483871 8.06451613 9.94227994 8.06451613 9.27419355 8.06451613 8.60610716 8.60610716 8.06451613 9.27419355 8.06451613 9.94227994 8.06451613 10.483871 8.60610716 10.483871 9.27419355 10.483871 9.94227994 9.94227994 10.483871 9.27419355 10.483871ZM4.43548387 12.9032258C3.32200655 12.9032258 2.41935484 13.8058775 2.41935484 14.9193548 2.41935484 16.0328322 3.32200655 16.9354839 4.43548387 16.9354839 5.54896119 16.9354839 6.4516129 16.0328322 6.4516129 14.9193548 6.4516129 13.8058775 5.54896119 12.9032258 4.43548387 12.9032258ZM4.43548387 16.1290323C3.76739748 16.1290323 3.22580645 15.5874412 3.22580645 14.9193548 3.22580645 14.2512684 3.76739748 13.7096774 4.43548387 13.7096774 5.10357026 13.7096774 5.64516129 14.2512684 5.64516129 14.9193548 5.64516129 15.5874412 5.10357026 16.1290323 4.43548387 16.1290323L4.43548387 16.1290323ZM9.27419355 12.9032258C8.16071623 12.9032258 7.25806452 13.8058775 7.25806452 14.9193548 7.25806452 16.0328322 8.16071623 16.9354839 9.27419355 16.9354839 10.3876709 16.9354839 11.2903226 16.0328322 11.2903226 14.9193548 11.2903226 14.3846442 11.0779096 13.8718339 10.6998121 13.4937363 10.3217145 13.1156388 9.80890421 12.9032258 9.27419355 12.9032258ZM9.27419355 16.1290323C8.60610716 16.1290323 8.06451613 15.5874412 8.06451613 14.9193548 8.06451613 14.2512684 8.60610716 13.7096774 9.27419355 13.7096774 9.94227994 13.7096774 10.483871 14.2512684 10.483871 14.9193548 10.483871 15.5874412 9.94227994 16.1290323 9.27419355 16.1290323ZM4.43548387 18.5483871C3.32200655 18.5483871 2.41935484 19.4510388 2.41935484 20.5645161 2.41935484 21.6779934 3.32200655 22.5806452 4.43548387 22.5806452 5.54896119 22.5806452 6.4516129 21.6779934 6.4516129 20.5645161 6.4516129 19.4510388 5.54896119 18.5483871 4.43548387 18.5483871ZM4.43548387 21.7741935C3.76739748 21.7741935 3.22580645 21.2326025 3.22580645 20.5645161 3.22580645 19.8964297 3.76739748 19.3548387 4.43548387 19.3548387 5.10357026 19.3548387 5.64516129 19.8964297 5.64516129 20.5645161 5.64516129 21.2326025 5.10357026 21.7741935 4.43548387 21.7741935L4.43548387 21.7741935ZM9.27419355 18.5483871C8.16071623 18.5483871 7.25806452 19.4510388 7.25806452 20.5645161 7.25806452 21.6779934 8.16071623 22.5806452 9.27419355 22.5806452 10.3876709 22.5806452 11.2903226 21.6779934 11.2903226 20.5645161 11.2903226 20.0298055 11.0779096 19.5169952 10.6998121 19.1388976 10.3217145 18.7608001 9.80890421 18.5483871 9.27419355 18.5483871ZM9.27419355 21.7741935C8.60610716 21.7741935 8.06451613 21.2326025 8.06451613 20.5645161 8.06451613 19.8964297 8.60610716 19.3548387 9.27419355 19.3548387 9.94227994 19.3548387 10.483871 19.8964297 10.483871 20.5645161 10.483871 21.2326025 9.94227994 21.7741935 9.27419355 21.7741935ZM19.4919355 2.4193458 15.9919355 2.4193458C15.5984088 2.41783571 15.2287383 2.60783715 15.0009154 2.92871447 14.7730925 3.2495918 14.7155947 3.66123585 14.8467742 4.03225806L15.9758065 6.61290323C15.5800996 6.81375676 15.3284952 7.2175662 15.3225806 7.66129032L15.3225806 9.27419355C15.326396 9.78482223 15.6483914 10.2388358 16.1290323 10.4112903L16.1290323 20.9677419C16.1290323 21.8585238 16.8511536 22.5806452 17.7419355 22.5806452 18.6327173 22.5806452 19.3548387 21.8585238 19.3548387 20.9677419L19.3548387 10.4112903C19.8354796 10.2388358 20.157475 9.78482223 20.1612903 9.27419355L20.1612903 7.66129032C20.1613939 7.21175015 19.9089022 6.80028224 19.5080645 6.59677419L20.6612903 3.95967742C20.7617108 3.59414454 20.6861776 3.20269458 20.4569654 2.90076684 20.2277533 2.59883911 19.8710084 2.4208744 19.4919355 2.4193458L19.4919355 2.4193458ZM18.5483871 20.9677419C18.5483871 21.4131329 18.1873264 21.7741935 17.7419355 21.7741935 17.2965446 21.7741935 16.9354839 21.4131329 16.9354839 20.9677419L16.9354839 10.483871 18.5483871 10.483871 18.5483871 20.9677419ZM19.3548387 9.27419355C19.3548387 9.49688901 19.1743084 9.67741935 18.9516129 9.67741935L16.5322581 9.67741935C16.3095626 9.67741935 16.1290323 9.49688901 16.1290323 9.27419355L16.1290323 7.66129032C16.1290323 7.43859486 16.3095626 7.25806452 16.5322581 7.25806452L18.9516129 7.25806452C19.1743084 7.25806452 19.3548387 7.43859486 19.3548387 7.66129032L19.3548387 9.27419355ZM18.6854839 6.4516129 16.7983871 6.4516129 15.5967742 3.74193548C15.5634976 3.61883327 15.5904133 3.4872453 15.6693548 3.38709677 15.7437381 3.28346652 15.8644013 3.22313492 15.9919355 3.22580645L16.9354839 3.22580645 16.9354839 4.43548387C16.9354839 4.65817933 17.1160142 4.83870968 17.3387097 4.83870968 17.5614051 4.83870968 17.7419355 4.65817933 17.7419355 4.43548387L17.7419355 3.22580645 18.5483871 3.22580645 18.5483871 3.62903226C18.5483871 3.85172772 18.7289174 4.03225806 18.9516129 4.03225806 19.1743084 4.03225806 19.3548387 3.85172772 19.3548387 3.62903226L19.3548387 3.22580645 19.4919355 3.22580645C19.6194696 3.22313492 19.7401329 3.28346652 19.8145161 3.38709677 19.8828347 3.47067514 19.9147888 3.57815694 19.9032258 3.68548387L18.6854839 6.4516129ZM6.0483871 2.41935484 2.82258065 2.41935484C2.59988518 2.41935484 2.41935484 2.59988518 2.41935484 2.82258065L2.41935484 5.24193548C2.41935484 5.46463095 2.59988518 5.64516129 2.82258065 5.64516129L6.0483871 5.64516129C6.27108256 5.64516129 6.4516129 5.46463095 6.4516129 5.24193548L6.4516129 2.82258065C6.4516129 2.59988518 6.27108256 2.41935484 6.0483871 2.41935484ZM5.64516129 4.83870968 3.22580645 4.83870968 3.22580645 3.22580645 5.64516129 3.22580645 5.64516129 4.83870968ZM10.8870968 2.41935484 7.66129032 2.41935484C7.43859486 2.41935484 7.25806452 2.59988518 7.25806452 2.82258065L7.25806452 5.24193548C7.25806452 5.46463095 7.43859486 5.64516129 7.66129032 5.64516129L10.8870968 5.64516129C11.1097922 5.64516129 11.2903226 5.46463095 11.2903226 5.24193548L11.2903226 2.82258065C11.2903226 2.59988518 11.1097922 2.41935484 10.8870968 2.41935484ZM10.483871 4.83870968 8.06451613 4.83870968 8.06451613 3.22580645 10.483871 3.22580645 10.483871 4.83870968Z"/></g></svg>