<svg xmlns="http://www.w3.org/2000/svg" width="22" height="26" viewBox="0 0 22 26"><g fill="#191970" transform="translate(.43 .5)"><path d="M17.7884615,-1.70803542e-15 L10.6826923,-1.70803542e-15 L10.5769231,-1.70803542e-15 L10.4711538,-1.70803542e-15 L3.36538462,-1.70803542e-15 C1.50673401,-1.70803542e-15 0,1.50673401 0,3.36538462 L0,14.4230769 C0,20.2645502 4.73544976,25 10.5769231,25 C16.4183964,25 21.1538462,20.2645502 21.1538462,14.4230769 L21.1538462,3.36538462 C21.1538462,1.50673401 19.6471121,-1.70803542e-15 17.7884615,-1.70803542e-15 Z M20.1923077,9.61538462 L18.75,9.61538462 C18.4844785,9.61538462 18.2692308,9.83063233 18.2692308,10.0961538 C18.2692308,10.3616754 18.4844785,10.5769231 18.75,10.5769231 L20.1923077,10.5769231 L20.1923077,14.4230769 C20.1890906,15.8563205 19.8603037,17.2701039 19.2307692,18.5576923 L18.4038462,17.7307692 C18.2818949,17.608818 18.1041471,17.5611906 17.9375586,17.6058279 C17.7709702,17.6504651 17.6408497,17.7805855 17.5962125,17.947174 C17.5515752,18.1137625 17.5992026,18.2915103 17.7211538,18.4134615 L18.75,19.4423077 C17.0933814,22.1374796 14.2170188,23.8453199 11.0576923,24.0096154 L11.0576923,22.5769231 C11.0576923,22.3114016 10.8424446,22.0961538 10.5769231,22.0961538 C10.3114016,22.0961538 10.0961538,22.3114016 10.0961538,22.5769231 L10.0961538,24.0384615 C6.9368274,23.8741661 4.06046473,22.1663257 2.40384615,19.4711538 L3.43269231,18.4423077 C3.62121257,18.2537874 3.62121256,17.9481357 3.43269229,17.7596154 C3.24417202,17.5710951 2.93852028,17.5710951 2.75,17.7596154 L1.92307692,18.5576923 C1.29354243,17.2701039 0.964755586,15.8563205 0.961538462,14.4230769 L0.961538462,10.5769231 L2.40384615,10.5769231 C2.66936767,10.5769231 2.88461538,10.3616754 2.88461538,10.0961538 C2.88461538,9.83063233 2.66936767,9.61538462 2.40384615,9.61538462 L0.961538462,9.61538462 L0.961538462,3.36538462 C0.961538462,2.03777704 2.03777704,0.961538462 3.36538462,0.961538462 L10.0961538,0.961538462 L10.0961538,2.38461538 C10.0961538,2.6501369 10.3114016,2.86538462 10.5769231,2.86538462 C10.8424446,2.86538462 11.0576923,2.6501369 11.0576923,2.38461538 L11.0576923,0.961538462 L17.7884615,0.961538462 C19.1160691,0.961538462 20.1923077,2.03777704 20.1923077,3.36538462 L20.1923077,9.61538462 Z"/><path d="M9.61538462 8.65384615C9.61538462 7.06071707 8.32389832 5.76923077 6.73076923 5.76923077 5.13764014 5.76923077 3.84615385 7.06071707 3.84615385 8.65384615 3.84615385 10.2469752 5.13764014 11.5384615 6.73076923 11.5384615 8.32389832 11.5384615 9.61538462 10.2469752 9.61538462 8.65384615ZM4.80769231 8.65384615C4.80769231 7.5917601 5.66868317 6.73076923 6.73076923 6.73076923 7.79285529 6.73076923 8.65384615 7.5917601 8.65384615 8.65384615 8.65384615 9.71593221 7.79285529 10.5769231 6.73076923 10.5769231 5.66868317 10.5769231 4.80769231 9.71593221 4.80769231 8.65384615ZM14.4230769 5.76923077C12.8299478 5.76923077 11.5384615 7.06071707 11.5384615 8.65384615 11.5384615 10.2469752 12.8299478 11.5384615 14.4230769 11.5384615 16.016206 11.5384615 17.3076923 10.2469752 17.3076923 8.65384615 17.3076923 7.06071707 16.016206 5.76923077 14.4230769 5.76923077L14.4230769 5.76923077ZM14.4230769 10.5769231C13.3609909 10.5769231 12.5 9.71593221 12.5 8.65384615 12.5 7.5917601 13.3609909 6.73076923 14.4230769 6.73076923 15.485163 6.73076923 16.3461538 7.5917601 16.3461538 8.65384615 16.3461538 9.71593221 15.485163 10.5769231 14.4230769 10.5769231ZM12.0192308 15.3846154 9.13461538 15.3846154C7.80700781 15.3846154 6.73076923 16.460854 6.73076923 17.7884615 6.73076923 19.1160691 7.80700781 20.1923077 9.13461538 20.1923077L12.0192308 20.1923077C13.3468383 20.1923077 14.4230769 19.1160691 14.4230769 17.7884615 14.4230769 16.460854 13.3468383 15.3846154 12.0192308 15.3846154L12.0192308 15.3846154ZM12.0192308 19.2307692 9.13461538 19.2307692C8.33805084 19.2307692 7.69230769 18.5850261 7.69230769 17.7884615 7.69230769 16.991897 8.33805084 16.3461538 9.13461538 16.3461538L12.0192308 16.3461538C12.8157953 16.3461538 13.4615385 16.991897 13.4615385 17.7884615 13.4615385 18.5850261 12.8157953 19.2307692 12.0192308 19.2307692Z"/></g></svg>