<svg xmlns="http://www.w3.org/2000/svg" width="25" height="18" viewBox="0 0 25 18"><g fill="#191970"><path d="M23.828125,0 L21.484375,0 C21.2686388,0 21.09375,0.17488877 21.09375,0.390625 C21.09375,0.60636123 21.2686388,0.78125 21.484375,0.78125 L23.828125,0.78125 C24.0438612,0.78125 24.21875,0.95613877 24.21875,1.171875 L24.21875,14.453125 C24.21875,14.6688612 24.0438612,14.84375 23.828125,14.84375 L1.171875,14.84375 C0.95613877,14.84375 0.78125,14.6688612 0.78125,14.453125 L0.78125,1.171875 C0.78125,0.95613877 0.95613877,0.78125 1.171875,0.78125 L19.921875,0.78125 C20.1376112,0.78125 20.3125,0.60636123 20.3125,0.390625 C20.3125,0.17488877 20.1376112,0 19.921875,0 L1.171875,0 C0.524666309,0 0,0.524666309 0,1.171875 L0,14.453125 C0,15.1003337 0.524666309,15.625 1.171875,15.625 L2.57265625,15.625 L1.67695313,16.5207031 C1.56527035,16.6324196 1.53186644,16.8004049 1.59231329,16.9463494 C1.65276014,17.0922939 1.79515785,17.1875 1.953125,17.1875 L3.125,17.1875 C3.20214038,17.1875 3.2775388,17.1645547 3.34179688,17.121875 L5.5859375,15.625 L19.4140625,15.625 L21.659375,17.121875 C21.7233003,17.1643351 21.798259,17.1871487 21.875,17.1875 L23.046875,17.1875 C23.2048421,17.1875 23.3472399,17.0922939 23.4076867,16.9463494 C23.4681336,16.8004049 23.4347297,16.6324196 23.3230469,16.5207031 L22.4273438,15.625 L23.828125,15.625 C24.4753337,15.625 25,15.1003337 25,14.453125 L25,1.171875 C25,0.524666309 24.4753337,0 23.828125,0 Z M3.0078125,16.40625 L2.89609375,16.40625 L3.67734375,15.625 L4.1796875,15.625 L3.0078125,16.40625 Z M22.1050781,16.40625 L21.9921875,16.40625 L20.8203125,15.625 L21.3214844,15.625 L22.1050781,16.40625 Z"/><path d="M11.6042969 5.58320313C11.4517579 5.43071018 11.2044921 5.43071018 11.0519531 5.58320313L4.02070312 12.6144531C3.91915758 12.7125291 3.87843258 12.8577648 3.9141808 12.9943388 3.94992902 13.1309128 4.0565872 13.237571 4.1931612 13.2733192 4.3297352 13.3090674 4.47497091 13.2683424 4.57304687 13.1667969L11.6042969 6.13554688C11.7567898 5.98300787 11.7567898 5.73574213 11.6042969 5.58320312L11.6042969 5.58320313ZM14.9582031 8.47929687C15.1107421 8.63178982 15.3580079 8.63178982 15.5105469 8.47929687L20.9792969 3.01054687C21.1273329 2.85727387 21.1252158 2.61363876 20.9745385 2.46296149 20.8238612 2.31228423 20.5802261 2.31016711 20.4269531 2.45820312L14.9582031 7.92695312C14.8057102 8.07949213 14.8057102 8.32675787 14.9582031 8.47929687ZM11.5234375 12.3046875C11.6270292 12.3046875 11.72637 12.2634958 11.7996094 12.1902344L13.9480469 10.0417969C14.0960829 9.88852387 14.0939658 9.64488876 13.9432885 9.49421149 13.7926112 9.34353423 13.5489761 9.34141711 13.3957031 9.48945312L11.2472656 11.6378906C11.1355828 11.7496071 11.1021789 11.9175924 11.1626258 12.0635369 11.2230726 12.2094814 11.3654704 12.3046538 11.5234375 12.3046875Z"/></g></svg>