<?xml version="1.0" encoding="UTF-8"?>
<svg width="20px" height="20px" viewBox="0 0 20 20" version="1.1" xmlns="http://www.w3.org/2000/svg" xmlns:xlink="http://www.w3.org/1999/xlink">
    <title>13E89863-2FC4-479B-870B-39FB90E129ED</title>
    <defs>
        <filter id="filter-1">
            <feColorMatrix in="SourceGraphic" type="matrix" values="0 0 0 0 1.000000 0 0 0 0 1.000000 0 0 0 0 1.000000 0 0 0 1.000000 0"></feColorMatrix>
        </filter>
    </defs>
    <g id="Welcome" stroke="none" stroke-width="1" fill="none" fill-rule="evenodd">
        <g id="Assets-2" transform="translate(-102.000000, -221.000000)">
            <g id="messager-copy" transform="translate(102.000000, 221.000000)">
                <path d="M16.4227295,19.6575928 C12.1452332,20.1141357 7.85476684,20.1141357 3.57727051,19.6575928 C1.87164305,19.4755554 0.52444457,18.128357 0.342407227,16.4225769 C-0.114135742,12.1450805 -0.114135742,7.85476684 0.342407227,3.57727051 C0.52444457,1.87164305 1.87164305,0.52444457 3.57727051,0.342407227 C7.85476684,-0.114135742 12.1450805,-0.114135742 16.4225769,0.342407227 C18.128357,0.52444457 19.4755554,1.87164305 19.6575928,3.57727051 C20.1141357,7.85476684 20.1141357,12.1450805 19.6575928,16.4225769 C19.4755554,18.128357 18.1285095,19.4755554 16.4227295,19.6575928 Z" id="Path" fill="#9B9B9B" fill-rule="nonzero"></path>
                <g filter="url(#filter-1)" id="Icons/Chariot">
                    <g transform="translate(2.500000, 2.500000)">
                        <path d="M4.43862698,9.87632863 L4.49540507,9.89212943 C4.60693838,9.93994198 4.65861813,10.069112 4.61080558,10.1806454 L4.61080558,10.1806454 L3.99015063,11.62885 C3.95645919,11.7074829 3.96416428,11.7934986 4.01124441,11.8649244 C4.05832453,11.936321 4.1344086,11.9772781 4.21992626,11.9772781 L4.21992626,11.9772781 L13.3711955,11.9772781 C13.4925433,11.9772781 13.5909223,12.0756571 13.5909223,12.1970049 C13.5909223,12.3183527 13.4925433,12.4167317 13.3711955,12.4167317 L13.3711955,12.4167317 L12.8863904,12.4167317 L12.8863904,12.9432849 C13.2902775,13.042162 13.5909223,13.4070257 13.5909223,13.8409421 C13.5909223,14.3505911 13.1763125,14.7652302 12.6666636,14.7652302 C12.1570146,14.7652302 11.7424048,14.3505911 11.7424048,13.8409421 C11.7424048,13.4070257 12.0430496,13.042162 12.4469368,12.9432849 L12.4469368,12.9432849 L12.4469368,12.4167317 L4.90157736,12.4167317 L4.90157736,12.9432849 C5.3054645,13.042162 5.60610935,13.4070257 5.60610935,13.8409421 C5.60610935,14.3505911 5.19149954,14.7652302 4.68185057,14.7652302 C4.1722016,14.7652302 3.7575918,14.3505911 3.7575918,13.8409421 C3.7575918,13.4070257 4.05823664,13.042162 4.46212378,12.9432849 L4.46212378,12.9432849 L4.46212378,12.4167317 L4.21992626,12.4167317 C3.98745532,12.4167317 3.77229884,12.3008624 3.64435926,12.106829 C3.51641967,11.9127663 3.49468137,11.6693676 3.5862342,11.4557053 L3.5862342,11.4557053 L4.20688914,10.0075299 C4.25470169,9.89596732 4.38387175,9.84431688 4.49540507,9.89212943 Z M4.68185057,13.3561076 C4.41451631,13.3561076 4.19704538,13.5735786 4.19704538,13.8409128 C4.19704538,14.1082471 4.41451631,14.3257473 4.68185057,14.3257473 C4.94918483,14.3257473 5.16665576,14.1082471 5.16665576,13.8409128 C5.16665576,13.5736079 4.94918483,13.3561076 4.68185057,13.3561076 Z M12.6666636,13.3561076 C12.3993293,13.3561076 12.1818584,13.5735786 12.1818584,13.8409128 C12.1818584,14.1082471 12.3993293,14.3257473 12.6666636,14.3257473 C12.9339978,14.3257473 13.1514688,14.1082471 13.1514688,13.8409128 C13.1514688,13.5736079 12.9339978,13.3561076 12.6666636,13.3561076 Z M0.689414779,-9.32587341e-15 C0.873575127,-9.32587341e-15 1.04671984,0.0717481215 1.17691529,0.201943569 L1.17691529,0.201943569 L2.46858655,1.49364413 C2.59579371,1.62085129 2.66203402,1.78588076 2.6688309,1.95287312 L2.6688309,1.95287312 L14.8001521,3.05393872 C14.8596541,3.05932935 14.9144393,3.08877274 14.9517929,3.13541342 C14.9891464,3.18208339 15.0059043,3.24193696 14.9981406,3.3012046 L14.9981406,3.3012046 L14.3679056,8.13308463 C14.3114211,8.56609289 13.9543504,8.90350535 13.5188519,8.93535109 L13.5188519,8.93535109 L5.21338433,9.5430861 C5.18420461,9.54522477 5.15511278,9.54627946 5.12628463,9.54627946 C4.61657707,9.54627946 4.16871527,9.2173924 4.01915457,8.72215751 L4.01915457,8.72215751 L2.18261946,2.64079376 C2.11813697,2.66039339 2.05040252,2.67055942 1.98111534,2.67055942 C1.79695499,2.67055942 1.62381028,2.59884059 1.49361483,2.46861585 L1.49361483,2.46861585 L0.201943569,1.17697388 C0.0717188246,1.04674914 -9.76996262e-15,0.873633721 -9.76996262e-15,0.689473373 C-9.76996262e-15,0.505313025 0.0717188246,0.332168314 0.201943569,0.201943569 C0.332139017,0.0717481215 0.505254432,-9.32587341e-15 0.689414779,-9.32587341e-15 Z M5.69297467,7.20680437 L4.03172294,7.24371847 L4.43982884,8.59509683 C4.53794417,8.91994092 4.84260269,9.12947238 5.18127492,9.10477509 L5.18127492,9.10477509 L6.03495745,9.04234339 L5.69297467,7.20680437 Z M7.83290854,7.15922619 L6.13811185,7.19690202 L6.47593447,9.0100582 L7.94036959,8.90289012 L7.83290854,7.15922619 Z M9.9766217,7.11158943 L8.27262579,7.14944103 L8.37870988,8.87081001 L9.93282283,8.75710872 L9.9766217,7.11158943 Z M12.1706084,7.06283938 L10.4165147,7.10183356 L10.3733018,8.72488212 L12.0467117,8.60242105 L12.1706084,7.06283938 Z M14.0698388,7.02062253 L12.6122592,7.05302491 L12.4902083,8.56998938 L13.4868011,8.49706938 C13.7152291,8.48034085 13.9025535,8.30335824 13.9321434,8.07624863 L13.9321434,8.07624863 L14.0698388,7.02062253 Z M3.27135106,4.72591312 L3.89985757,6.80707739 L5.61141209,6.76905001 L5.24414608,4.79777843 L3.27135106,4.72591312 Z M5.69420514,4.81418469 L6.05657856,6.75914765 L7.80589679,6.72027066 L7.69289862,4.8869875 L5.69420514,4.81418469 Z M8.13419791,4.9030715 L8.24558475,6.71051479 L9.98834046,6.67178428 L10.0335749,4.9722415 L8.13419791,4.9030715 Z M10.4727648,4.98823761 L10.4282042,6.66199912 L12.2060283,6.62250689 L12.3320929,5.05597205 L10.4727648,4.98823761 Z M12.771693,5.07199746 L12.6477085,6.61269242 L14.1273487,6.579792 L14.3166946,5.12827682 L12.771693,5.07199746 Z M12.9123181,3.32385111 L12.8069371,4.63351068 L14.3737649,4.69058105 L14.5328471,3.47095087 L12.9123181,3.32385111 Z M10.5228332,3.10699542 L10.4844543,4.54893051 L12.3673664,4.61751457 L12.4746516,3.28415381 L10.5228332,3.10699542 Z M8.00942239,2.87886042 L8.10701038,4.46229956 L10.0452644,4.5329051 L10.0842585,3.06718092 L8.00942239,2.87886042 Z M5.28759339,2.63182891 L5.61170505,4.37142056 L7.66574039,4.44624486 L7.56665826,2.83866506 L5.28759339,2.63182891 Z M2.56429954,2.38462162 L3.13705404,4.28127398 L5.16164599,4.35504359 L4.83290542,2.59054957 L2.56429954,2.38462162 Z M0.689414779,0.439482879 C0.622647132,0.439482879 0.55989316,0.465498531 0.512666549,0.512695846 C0.465439937,0.559922457 0.439453582,0.622735023 0.439453582,0.689473373 C0.439453582,0.756211724 0.465439937,0.818994992 0.512666549,0.866192307 L0.512666549,0.866192307 L1.80433781,2.15786357 C1.85156443,2.20509018 1.9143184,2.23107654 1.98108604,2.23107654 C2.04785369,2.23107654 2.11060766,2.20506089 2.15783428,2.15786357 C2.25530508,2.06042206 2.25530508,1.90183792 2.15783428,1.80436711 L2.15783428,1.80436711 L0.86616301,0.512695846 C0.818936398,0.465498531 0.756182427,0.439482879 0.689414779,0.439482879 Z" id="Combined-Shape" fill="#000000" fill-rule="nonzero"></path>
                    </g>
                </g>
            </g>
        </g>
    </g>
</svg>