<?xml version="1.0" encoding="UTF-8"?>
<svg width="26px" height="26px" viewBox="0 0 26 26" version="1.1" xmlns="http://www.w3.org/2000/svg" xmlns:xlink="http://www.w3.org/1999/xlink">
    <title>34C3D55E-74D2-4C04-907F-C693CF53498B</title>
    <g id="Welcome" stroke="none" stroke-width="1" fill="none" fill-rule="evenodd">
        <g id="Assets" transform="translate(-73.000000, -629.000000)" fill="#191970" fill-rule="nonzero">
            <g id="Icons/Adress-Copy" transform="translate(73.000000, 629.000000)">
                <path d="M25.2382812,0 C25.6589531,0 26,0.341046875 26,0.76171875 L26,0.76171875 L26,25.2382812 C26,25.6589531 25.6589531,26 25.2382812,26 L25.2382812,26 L0.76171875,26 C0.341046875,26 0,25.6589531 0,25.2382812 L0,25.2382812 L0,0.76171875 C0,0.341046875 0.341046875,0 0.76171875,0 L0.76171875,0 Z M13.7617188,22.9151406 C13.2538047,22.9658203 12.7456875,22.9657695 12.2382812,22.9151406 L12.2382812,22.9151406 L12.2382812,24.4765625 L13.7617188,24.4765625 Z M8.11707812,21.1773047 L6.69555859,22.6665664 C6.55179688,22.8171328 6.35273437,22.9023438 6.14453125,22.9023438 L6.14453125,22.9023438 L1.5234375,22.9023438 L1.5234375,24.4765625 L10.7148438,24.4765625 L10.7148438,22.6027344 C9.75294531,22.2996211 8.87300781,21.8102422 8.11707812,21.1773047 L8.11707812,21.1773047 Z M24.4765625,19.8554688 L19.1275195,19.8554688 C18.179332,21.1376953 16.8390117,22.1130508 15.2851562,22.6027852 L15.2851562,22.6027852 L15.2851562,24.4765625 L24.4765625,24.4765625 L24.4765625,19.8554688 Z M13,9.2421875 C9.63990625,9.2421875 6.90625,11.9758437 6.90625,15.3359375 C6.90625,18.6960313 9.63990625,21.4296875 13,21.4296875 C16.3600938,21.4296875 19.09375,18.6960313 19.09375,15.3359375 C19.09375,11.9758437 16.3600938,9.2421875 13,9.2421875 Z M5.54678516,13.7617188 L1.5234375,13.7617188 L1.5234375,21.3789062 L5.81856641,21.3789062 L7.05117969,20.0875898 C6.00782812,18.7839844 5.3828125,17.1316641 5.3828125,15.3359375 C5.3828125,14.7963867 5.43958594,14.2698359 5.54678516,13.7617188 L5.54678516,13.7617188 Z M12.3023672,11.1457227 C12.5686133,10.5386328 13.4318438,10.53975 13.697582,11.1457227 L13.697582,11.1457227 L16.7478594,18.1018398 C17.000293,18.6774961 16.4817148,19.3008867 15.8655859,19.1467148 L15.8655859,19.1467148 L13.0023359,18.4311055 L10.1341094,19.1467656 C9.52102734,19.299668 8.99848828,18.6802383 9.25208984,18.1017891 L9.25208984,18.1017891 Z M24.4765625,16.8085938 L20.4737813,16.8085938 C20.3696289,17.3379883 20.2106836,17.8478828 20.0027344,18.3320312 L20.0027344,18.3320312 L24.4765625,18.3320312 L24.4765625,16.8085938 Z M13,13.3483594 L11.2701875,17.2931992 L12.8181016,16.906957 C12.9393164,16.8766914 13.0661172,16.8767422 13.1872305,16.9070078 L13.1872305,16.9070078 L14.7295586,17.2924375 L13,13.3483594 Z M24.4765625,6.14453125 L22.4718203,6.14453125 L18.6546953,10.2380586 C19.8632891,11.5773125 20.6037813,13.3463789 20.6165273,15.2851562 L20.6165273,15.2851562 L24.4765625,15.2851562 L24.4765625,6.14453125 Z M6.94905859,10.7148438 L1.5234375,10.7148438 L1.5234375,12.2382812 L6.04175,12.2382812 C6.28509375,11.6938047 6.59059375,11.1830977 6.94905859,10.7148438 L6.94905859,10.7148438 Z M24.4765625,1.5234375 L15.2851055,1.5234375 L15.2851055,8.06908984 C16.0995859,8.32578906 16.8553633,8.71589063 17.526793,9.21369922 L17.526793,9.21369922 L21.5835039,4.86332031 C21.7275703,4.70884375 21.929375,4.62109375 22.140625,4.62109375 L22.140625,4.62109375 L24.4765625,4.62109375 L24.4765625,1.5234375 Z M10.7148438,1.5234375 L1.5234375,1.5234375 L1.5234375,9.19140625 L8.50372656,9.19140625 C9.16758984,8.7043125 9.91265234,8.32187891 10.7148438,8.06908984 L10.7148438,8.06908984 L10.7148438,1.5234375 Z M13.7617188,1.5234375 L12.2382812,1.5234375 L12.2382812,7.75673438 C12.7461953,7.70605469 13.2543125,7.70610547 13.7617188,7.75673438 L13.7617188,7.75673438 L13.7617188,1.5234375 Z" id="Combined-Shape"></path>
            </g>
        </g>
    </g>
</svg>