<?xml version="1.0" encoding="UTF-8"?>
<svg width="25px" height="25px" viewBox="0 0 25 25" version="1.1" xmlns="http://www.w3.org/2000/svg" xmlns:xlink="http://www.w3.org/1999/xlink">
    <title>0F2C2A63-6BAC-403B-BC4A-76E94B48B747</title>
    <defs>
        <filter id="filter-1">
            <feColorMatrix in="SourceGraphic" type="matrix" values="0 0 0 0 0.290222 0 0 0 0 0.290175 0 0 0 0 0.290237 0 0 0 1.000000 0"></feColorMatrix>
        </filter>
        <filter id="filter-2">
            <feColorMatrix in="SourceGraphic" type="matrix" values="0 0 0 0 0.000000 0 0 0 0 0.709804 0 0 0 0 0.090196 0 0 0 1.000000 0"></feColorMatrix>
        </filter>
    </defs>
    <g id="Welcome" stroke="none" stroke-width="1" fill="none" fill-rule="evenodd">
        <g id="Assets" transform="translate(-909.000000, -747.000000)">
            <g id="Icons/Affaire-Copy-3" transform="translate(909.000000, 747.000000)">
                <circle id="Oval" stroke="#4A4A4A" stroke-width="1.5" fill="#FFFFFF" cx="12.5" cy="12.5" r="11.75"></circle>
                <g filter="url(#filter-1)" id="Icons/affaires">
                    <g transform="translate(5.000000, 7.000000)" filter="url(#filter-2)" id="handshake">
                        <g>
                            <path d="M14.9055461,5.23708952 L14.3965134,4.30870844 C14.3167674,4.16328879 14.137998,4.11217414 13.9972853,4.19450199 C13.8564554,4.27679959 13.8069437,4.46132649 13.8866604,4.6066554 L14.3954587,5.53464329 C14.420947,5.58128163 14.4143259,5.62625647 14.408115,5.64891023 C14.4021384,5.67071713 14.3856736,5.7109737 14.3426072,5.73553292 L13.5580963,6.18416223 C13.4883991,6.22390462 13.3974324,6.19880098 13.3594344,6.12959961 L13.1601279,5.76562705 C13.1593076,5.7639938 13.1583701,5.76248153 13.1575205,5.76087853 L11.0970733,1.99853821 C11.0716143,1.95223258 11.0780597,1.9078324 11.0841534,1.88548108 C11.0900421,1.86385566 11.1063897,1.82390155 11.1494561,1.79931208 L11.9349045,1.35059203 C12.0054806,1.31024473 12.0942208,1.33474347 12.1328047,1.40533612 L12.5920035,2.24292065 C12.6717202,2.38831006 12.8505188,2.43939446 12.9912609,2.35715735 C13.1320908,2.27488999 13.1816025,2.09033285 13.1019151,1.94497369 L12.6429214,1.1077521 C12.4471599,0.749465661 12.0023752,0.620953161 11.6513403,0.821268127 L10.8659212,1.26998817 C10.6959702,1.36695477 10.5731871,1.52722489 10.5202184,1.7213698 C10.470238,1.90441467 10.4881091,2.09550481 10.5699352,2.26321528 L10.1372793,2.39266539 C9.95297287,2.44771193 9.84111751,2.47756409 9.7790375,2.47756409 C9.77877382,2.47756409 9.77853945,2.47756409 9.77830507,2.47756409 C9.73556098,2.47741287 9.68894969,2.46056621 9.55591272,2.4085442 C9.49556121,2.38495283 9.4204148,2.35555434 9.32804185,2.32228446 L8.56148987,2.04563022 C8.13753521,1.89277021 7.94631469,1.90099695 7.66928371,1.92709869 L6.36217563,2.04786838 C5.76630707,2.1023705 5.38641487,2.24113618 5.17670804,2.48179844 L4.43180643,2.25898094 C4.5119626,2.09199635 4.52915985,1.90275118 4.47964818,1.7213698 C4.42667948,1.52734587 4.30398429,1.36710599 4.13420907,1.2701394 L3.34922937,0.821207636 C2.99790159,0.620711198 2.5528532,0.749284189 2.35706238,1.10747989 L0.0952286703,5.23666609 C-0.00159740621,5.41266379 -0.0255622264,5.61736433 0.0278166273,5.813082 C0.0808439189,6.00743864 0.203597704,6.16785998 0.373226444,6.2647056 L1.15820614,6.71357687 C1.27044236,6.77763653 1.39237583,6.80806335 1.51269798,6.80806335 C1.76831296,6.80806335 2.01680881,6.6707797 2.15037313,6.42733486 L2.2333125,6.27586614 C2.45965994,6.37873058 2.64970858,6.52817286 2.77922993,6.70510817 C2.65272615,6.85772622 2.57303873,7.04606403 2.55068524,7.25091579 C2.52115402,7.52182341 2.59527504,7.78761957 2.75939597,7.99948826 C2.92211065,8.20954223 3.1547862,8.34207736 3.4149715,8.37329056 C3.38743246,8.64189953 3.46184645,8.90509459 3.62470762,9.11460414 C3.7930473,9.33188675 4.03096698,9.45864502 4.27984369,9.48855767 C4.25242184,9.75677345 4.32657216,10.0197265 4.48893528,10.2293571 C4.65156208,10.4398647 4.88429622,10.5726721 5.14474518,10.6038853 C5.11717685,10.872706 5.19159084,11.1360522 5.35445201,11.345592 C5.54857291,11.5961445 5.83515466,11.7265625 6.12446102,11.7265625 C6.34043737,11.7265625 6.55793715,11.6538527 6.739519,11.5041382 L7.35293637,10.9974075 C7.40165702,10.957272 7.44592456,10.912902 7.48573897,10.8651144 L7.83612925,11.1540785 C8.01733025,11.3033695 8.23433199,11.3758979 8.45001537,11.3758676 C8.73946821,11.3758374 9.02651871,11.245238 9.22090328,10.9944435 C9.32335435,10.8622108 9.38821757,10.7112865 9.41751441,10.5554927 C9.51996549,10.5920896 9.62812944,10.6109929 9.73840277,10.6109627 C9.77537539,10.6109627 9.81258238,10.6088455 9.84990657,10.6045809 C10.1124063,10.5744868 10.3471326,10.4412258 10.5102282,10.2300527 C10.6733823,10.0202105 10.7477963,9.75704566 10.7202866,9.48846694 C10.9689875,9.45849379 11.2070244,9.33176577 11.3758621,9.11457389 C11.544026,8.897503 11.6115259,8.63025507 11.5851002,8.37323007 C11.845139,8.34195638 12.0776973,8.20945149 12.2400312,7.99988145 C12.4042693,7.78858742 12.4787126,7.52318445 12.4496208,7.25248855 C12.427531,7.04700163 12.347785,6.85802867 12.2210468,6.70498719 C12.3501873,6.52811237 12.5398551,6.37848862 12.766349,6.27568466 L12.8494642,6.42745584 C12.9829406,6.67080994 13.2313193,6.8080331 13.4869928,6.8080331 C13.6073736,6.80800286 13.7294242,6.77757604 13.8417776,6.71345589 L14.6263179,6.26479634 C14.795888,6.16801121 14.9185832,6.00783183 14.9718156,5.81380789 C15.0254874,5.61827169 15.0020206,5.41357115 14.9055461,5.23708952 Z M1.64043223,6.12944839 C1.60234633,6.19889172 1.51132103,6.22393487 1.4419168,6.18428321 L0.656966399,5.73544219 C0.614105113,5.71094345 0.597757472,5.67083811 0.591780916,5.64909171 C0.585657875,5.62655892 0.579124678,5.58182604 0.604964497,5.53494575 L2.86714977,1.40494293 C2.89304818,1.35754846 2.94185673,1.33099304 2.99254027,1.33099304 C3.01720822,1.33099304 3.04228632,1.33725383 3.06543082,1.35047105 L3.85017615,1.79925158 C3.85026404,1.79931208 3.85035193,1.79937257 3.85043982,1.79940281 C3.89338899,1.82393179 3.90970734,1.8638859 3.9156253,1.88551133 C3.92171904,1.90786264 3.92816435,1.95226282 3.90241242,1.99908263 L1.64043223,6.12944839 Z M3.77834028,7.6858742 C3.69572317,7.75419845 3.5913971,7.78507896 3.48478588,7.77282959 C3.37811606,7.76061047 3.2830478,7.70695521 3.21701271,7.62172381 C3.15083113,7.53628069 3.12100694,7.42860724 3.13298935,7.31857465 C3.14491317,7.20899574 3.19691507,7.11133349 3.27994233,7.04313023 L4.37675766,6.13800782 C4.54890593,5.99612688 4.8008881,6.02531364 4.93846609,6.20270263 C5.00461837,6.28808526 5.03447185,6.39557724 5.02251874,6.50527713 C5.01062422,6.61461408 4.95859302,6.71218558 4.87603451,6.77999566 C4.87421811,6.78147769 4.87266537,6.78314118 4.87090756,6.78468369 L3.77860395,7.68566248 C3.77851606,7.68572297 3.77842817,7.68581371 3.77834028,7.6858742 L3.77834028,7.6858742 Z M4.08197279,8.73641626 C4.01584981,8.65133608 3.98596703,8.54411631 3.99777366,8.43450715 C4.00958029,8.32480726 4.06164078,8.22669134 4.14431648,8.15824611 L4.14440437,8.15818562 C4.14446296,8.15815537 4.14452156,8.15809488 4.14458015,8.15806464 C4.14460945,8.15806464 4.14460945,8.15803439 4.14463875,8.15800415 L5.72450047,6.8549134 C5.89661944,6.71300221 6.14866021,6.74197726 6.2862089,6.91960821 C6.35227329,7.00486986 6.38212678,7.11224086 6.37032015,7.2219105 C6.35848422,7.33170113 6.30627724,7.42981705 6.22339647,7.49817155 L4.6439449,8.80077837 C4.47162085,8.94275005 4.21966797,8.9141077 4.08197279,8.73641626 L4.08197279,8.73641626 Z M5.21453027,10.0033941 C5.10788975,9.99117493 5.01290938,9.93745919 4.94678639,9.85186484 C4.88072201,9.76660319 4.85086852,9.65923219 4.86267515,9.54956255 C4.87451107,9.43986266 4.92663016,9.34183747 5.00939375,9.27348297 C5.00945235,9.27342248 5.00954024,9.27336199 5.00959883,9.2733015 L6.10289854,8.37162707 C6.1041876,8.37059873 6.10559385,8.36972161 6.10688291,8.36866302 C6.27856243,8.22678208 6.5305153,8.25566639 6.66821048,8.43284366 C6.73439206,8.51825653 6.76424554,8.62592999 6.75226313,8.73596258 C6.74031002,8.84554149 6.68830812,8.94320373 6.60531015,9.011407 L5.50852412,9.91649916 C5.42564334,9.98482341 5.32120009,10.0155527 5.21453027,10.0033941 L5.21453027,10.0033941 Z M7.13400104,10.2489258 C7.12213581,10.3586257 7.07007532,10.4565299 6.98716524,10.5248844 L6.37371858,11.0317058 C6.20136524,11.1737077 5.94941236,11.1451258 5.81177578,10.9674042 C5.74565279,10.8823845 5.71574071,10.775074 5.72754734,10.6652531 C5.73935397,10.5554322 5.79135587,10.4574675 5.87388509,10.3894155 C5.87397298,10.389355 5.87409017,10.3892643 5.87417806,10.3892038 L6.48747824,9.88307804 C6.4878005,9.88280584 6.48815206,9.88259412 6.48847433,9.88235216 C6.66065189,9.74050145 6.91263407,9.76956724 7.05021206,9.94704696 C7.11610066,10.0321574 7.14589556,10.1393167 7.13400104,10.2489258 L7.13400104,10.2489258 Z M11.782766,7.62169356 C11.7167309,7.70692497 11.6216333,7.76061047 11.5149928,7.77282959 C11.4084402,7.78519994 11.3040555,7.7542287 11.2214384,7.6858742 C11.2214091,7.68584396 11.2213505,7.68581371 11.2212919,7.68578347 C11.2212626,7.68575322 11.221204,7.68572297 11.2211747,7.68569273 L10.4372497,7.03907735 C10.3108046,6.93479138 10.1264688,6.9560841 10.0255119,7.08656255 C9.92452563,7.217041 9.94512132,7.407375 10.0715079,7.51163073 L10.8551692,8.15803439 C11.0270831,8.3001573 11.0554132,8.5597834 10.9185969,8.73638601 C10.7805502,8.91398672 10.528568,8.94287103 10.3565369,8.80062714 L9.50619597,8.1000843 C9.37975078,7.99591931 9.19541502,8.01730277 9.09448739,8.14784171 C8.99358905,8.27838065 9.01427262,8.4686844 9.14074711,8.57287964 L9.99067791,9.27308978 C10.0735001,9.34156526 10.1256192,9.43974167 10.1374551,9.54956255 C10.1492617,9.6591717 10.119379,9.76642172 10.0526993,9.85216729 C9.98681073,9.93745919 9.89183035,9.99114469 9.78521913,10.0033941 C9.67849072,10.0155224 9.57404746,9.98476292 9.49148895,9.91674112 L9.0683839,9.56740731 C9.06765148,9.5668024 9.06700695,9.56616725 9.06627453,9.56556234 L8.70879441,9.27051893 L8.6419683,9.21535141 C8.51555241,9.11100494 8.33121666,9.13220694 8.23020113,9.26262489 C8.21757419,9.27895738 8.20682225,9.29619723 8.1979746,9.31410248 C8.15555277,9.39969683 8.15625589,9.50008115 8.1960703,9.58425397 C8.21449802,9.62324022 8.24104096,9.658839 8.2760214,9.68772332 L8.7014409,10.0389626 C8.87221222,10.1813275 8.90013211,10.4400764 8.76340373,10.6165581 C8.62579644,10.7941285 8.37378497,10.8231338 8.2017246,10.6814344 L7.71905906,10.283345 C7.73915669,10.0244751 7.66485989,9.77201711 7.50771161,9.56916154 C7.41003592,9.44312915 7.28889346,9.34767482 7.15585648,9.28364541 C7.25335639,9.14400262 7.31526062,8.97995183 7.33447936,8.80356094 C7.36401058,8.53268357 7.28988956,8.26688741 7.12547566,8.05465578 C7.02777067,7.9289561 6.9067747,7.83371348 6.77400139,7.7698353 C6.87167708,7.62976907 6.93358131,7.46538559 6.95262426,7.28875273 C6.98177462,7.01848026 6.90759501,6.75319828 6.74376705,6.54169254 C6.46187279,6.17784095 5.98515451,6.0672337 5.58838732,6.24108398 C5.55662954,6.09052262 5.49173703,5.94849045 5.39593634,5.8248172 C5.05673746,5.38722745 4.43558573,5.3156367 4.01104513,5.66533346 L3.22659277,6.31267473 C3.04920037,6.07896889 2.80805803,5.88515668 2.52294112,5.74693542 L4.13658211,2.80040298 L4.99574142,3.05739774 C4.9996672,3.10485269 5.0071086,3.15475753 5.01955976,3.2076264 C5.22753807,4.09042774 6.01486151,4.50176452 7.07432336,4.28136664 C7.96699826,4.09593239 8.3344979,4.37216319 9.06642101,4.92241688 C9.14235843,4.97948986 9.22125484,5.03880099 9.30384265,5.09986636 C9.83021909,5.48972895 10.3927185,5.94797627 10.7698568,6.25856579 L11.7208325,7.04319072 C11.8034496,7.11124276 11.8554515,7.2092377 11.8672581,7.31914931 C11.8790647,7.42897018 11.8491819,7.53628069 11.782766,7.62169356 L11.782766,7.62169356 Z M11.7736547,6.31249326 L11.1354815,5.78595192 C10.7531283,5.47106756 10.1826894,5.00640822 9.6452388,4.6083189 C9.56379357,4.5481004 9.48612763,4.48969663 9.41136208,4.43350076 C8.65239798,3.8629222 8.10387313,3.45067805 6.95871801,3.68843676 C6.60821054,3.76135831 5.77313324,3.84661995 5.58894396,3.06483809 C5.56298696,2.9544728 5.58935412,2.91654513 5.60057481,2.90036387 C5.6397447,2.84398653 5.79736173,2.70676337 6.41403104,2.65038604 L7.72251608,2.52949536 C7.93573853,2.50941245 8.04270131,2.4993105 8.36813068,2.61666247 L9.13477055,2.89334695 C9.21999508,2.92407623 9.28813954,2.95069214 9.34828597,2.97422302 C9.71742623,3.11858408 9.8152484,3.11855384 10.3001991,2.97364836 L10.8653938,2.80457684 L12.4768669,5.74711689 C12.1916621,5.88524741 11.9507541,6.0789084 11.7736547,6.31249326 Z" id="Shape" fill="#00B517" fill-rule="nonzero"></path>
                            <path d="M13.5,3.7265625 C13.7761,3.7265625 14,3.50213082 14,3.22618778 C14,2.95024474 13.7761,2.7265625 13.5,2.7265625 C13.2239,2.7265625 13,2.9502947 13,3.22618778 L13,3.22758673 C13,3.50352977 13.2239,3.7265625 13.5,3.7265625 Z" id="Path" fill="#000000" fill-rule="nonzero"></path>
                        </g>
                    </g>
                </g>
            </g>
        </g>
    </g>
</svg>