<?xml version="1.0" encoding="UTF-8"?>
<svg width="26px" height="26px" viewBox="0 0 26 26" version="1.1" xmlns="http://www.w3.org/2000/svg" xmlns:xlink="http://www.w3.org/1999/xlink">
    <title>3AD9664C-CF53-44EC-9EF0-C49AFE95F948</title>
    <defs>
        <path d="M13,2.16666667 C7.02,2.16666667 2.16666667,7.02 2.16666667,13 C2.16666667,18.98 7.02,23.8333333 13,23.8333333 C18.98,23.8333333 23.8333333,18.98 23.8333333,13 C23.8333333,7.02 18.98,2.16666667 13,2.16666667 Z M14.0833333,20.5833333 L11.9166667,20.5833333 L11.9166667,18.4166667 L14.0833333,18.4166667 L14.0833333,20.5833333 Z M16.3258333,12.1875 L15.3508333,13.1841667 C14.5708333,13.975 14.0833333,14.625 14.0833333,16.25 L11.9166667,16.25 L11.9166667,15.7083333 C11.9166667,14.5166667 12.4041667,13.4333333 13.1841667,12.6425 L14.5275,11.2775 C14.9283333,10.8875 15.1666667,10.3458333 15.1666667,9.75 C15.1666667,8.55833333 14.1916667,7.58333333 13,7.58333333 C11.8083333,7.58333333 10.8333333,8.55833333 10.8333333,9.75 L8.66666667,9.75 C8.66666667,7.35583333 10.6058333,5.41666667 13,5.41666667 C15.3941667,5.41666667 17.3333333,7.35583333 17.3333333,9.75 C17.3333333,10.7033333 16.9433333,11.57 16.3258333,12.1875 Z" id="path-1"></path>
    </defs>
    <g id="Welcome" stroke="none" stroke-width="1" fill="none" fill-rule="evenodd">
        <g id="Assets" transform="translate(-109.000000, -629.000000)">
            <g id="ic_help_black_24px" transform="translate(109.000000, 629.000000)">
                <polygon id="Shape" points="0 0 26 0 26 26 0 26"></polygon>
                <mask id="mask-2" fill="white">
                    <use xlink:href="#path-1"></use>
                </mask>
                <use id="Mask" fill="#191970" fill-rule="nonzero" xlink:href="#path-1"></use>
                <g id="🌈Color" mask="url(#mask-2)" fill="#191970" fill-rule="nonzero">
                    <g transform="translate(0.000000, 2.166667)" id="Rectangle-path-Copy-23">
                        <rect x="0" y="0" width="26" height="26"></rect>
                    </g>
                </g>
            </g>
        </g>
    </g>
</svg>