<svg xmlns="http://www.w3.org/2000/svg" viewBox="0 0 22 19.71"><defs><style>.cls-1{fill:#4a4a4a;}</style></defs><g id="Calque_2" data-name="Calque 2"><g id="Calque_1-2" data-name="Calque 1"><g id="Group"><g id="Combined-Shape"><path class="cls-1" d="M5.25,0a.54.54,0,0,1,.54.54h0V2.09a.54.54,0,0,1-.45.52h0V3.3A1.51,1.51,0,0,1,6.83,4.82h0V6l.22,0a1.58,1.58,0,0,1,1,.14,1.6,1.6,0,0,1,.89-.46,1.27,1.27,0,0,1,.28,0A1.61,1.61,0,0,1,10.28,6h0l1.56-1.56a.51.51,0,0,1,.39-.16.51.51,0,0,1,.38.16,3.06,3.06,0,0,1,.76,1.21,2.69,2.69,0,0,1,1.41-.41,2.81,2.81,0,0,1,1,.19.38.38,0,0,1,.13.09.42.42,0,0,1,.09.14,2.67,2.67,0,0,1,.15,1.42,1.34,1.34,0,0,1,.35,0,1.71,1.71,0,0,1,1.7,1.62h.12a2.42,2.42,0,0,1,.91.18.38.38,0,0,1,.13.09.3.3,0,0,1,.09.13,2.52,2.52,0,0,1,0,1.87.54.54,0,0,1,.32.49,8.9,8.9,0,0,1-.13,1.46.6.6,0,0,1,.23,0,.62.62,0,0,1,.38.29h0l.23.42a.56.56,0,0,1,.07.18.62.62,0,0,1-.26.62h0l-.77.52,1.7-.31h.11a.62.62,0,0,1,.61.49h0l.08.46a.6.6,0,0,1-.1.45.59.59,0,0,1-.39.26h0l-1.71.31.91.21a.61.61,0,0,1,.46.48.5.5,0,0,1,0,.21h0L21.1,18a.65.65,0,0,1-.25.41.64.64,0,0,1-.36.11h-.1L17.81,18a1.48,1.48,0,0,1-.32,1.18,1.52,1.52,0,0,1-1.14.53H3.45A3.33,3.33,0,0,1,0,16.51a3.1,3.1,0,0,1,1-2.29H1V4.82A1.52,1.52,0,0,1,2.54,3.3h0V2.61a.53.53,0,0,1-.45-.52h0V.54A.54.54,0,0,1,2.63,0H5.25ZM7,14.28a1.81,1.81,0,0,1-.37.19.68.68,0,0,1,.11.31.53.53,0,0,1-.13.4A.74.74,0,0,1,6,15.4H5.83a2.75,2.75,0,0,1-1-.36l-.27-.16a2.26,2.26,0,0,1-.26.16,2.66,2.66,0,0,1-1.2.37.73.73,0,0,1-.57-.22.53.53,0,0,1-.13-.4.68.68,0,0,1,.11-.31,1.81,1.81,0,0,1-.37-.19A2.52,2.52,0,0,0,.64,16.51a2.7,2.7,0,0,0,2.81,2.56H5.37a1.3,1.3,0,0,1-.23-.57h0l0-.06a1.48,1.48,0,0,1,.93-1.64h0l2.28-.87A2.57,2.57,0,0,0,7,14.28ZM15,8.73h-.15a.88.88,0,0,0-.44.22.55.55,0,0,1,.5.54,3.24,3.24,0,0,1-.32,1.4h.13a.33.33,0,0,1,0,.65H4.24a7,7,0,0,0,.09,1,.32.32,0,0,1,.19-.07.32.32,0,0,1,.33.32h0V13a2.91,2.91,0,0,1,.75-.09,2.93,2.93,0,0,1,1,.18c.44.17.56.41.58.58a3.29,3.29,0,0,1,1.72,2h0l.87-.33a.33.33,0,0,1,.42.19A.32.32,0,0,1,10,16h0l-1.88.72.12.62a.33.33,0,0,1-.26.38H8a.33.33,0,0,1-.32-.26h0l-.09-.51-1.27.48a.84.84,0,0,0-.52.93h0v.06a.84.84,0,0,0,.82.68h3.77l-.18-.93a.32.32,0,0,1,.64-.11h0l.19,1h2.58l-.12-.65a.32.32,0,1,1,.63-.12h0l.15.77h1.11l-.19-1a.32.32,0,0,1,.25-.38.33.33,0,0,1,.38.26h0L16,19.06h.34a.83.83,0,0,0,.82-1h0l-.65-3.52a.86.86,0,0,0-.41-.57.84.84,0,0,0-.71-.05h0l-2.51,1,.17.91a.34.34,0,0,1-.26.38h-.06a.33.33,0,0,1-.32-.26h0l-.14-.8-.48.18a.31.31,0,0,1-.41-.18.32.32,0,0,1,.18-.42h0l3.6-1.36a1.44,1.44,0,0,1,1.25.09,1.47,1.47,0,0,1,.7.88h0l1.74-1a7.06,7.06,0,0,0,.23-1.72h-2.5a.33.33,0,1,1,0-.65h.34a.76.76,0,0,0,0-.3.84.84,0,0,0-.76-.7.32.32,0,0,1-.3-.32.76.76,0,0,0,0-.15A.84.84,0,0,0,15,8.73Zm4.65,4.82L17.25,15l.43,2.34,2.79.5.06-.4-2.4-.55a.31.31,0,0,1-.25-.32.32.32,0,0,1,.26-.31h0l3.21-.59-.07-.38-3.21.58a.32.32,0,0,1-.36-.19.32.32,0,0,1,.12-.39h0l2-1.37Zm-14.07,0a2,2,0,0,0-.92.18.34.34,0,0,1-.31,0,2,2,0,0,0-.92-.18,1.75,1.75,0,0,0-.94.2,1.76,1.76,0,0,0,.61.17.34.34,0,0,1,.27.23.33.33,0,0,1-.11.34,1,1,0,0,0-.23.23h0A2,2,0,0,0,4,14.47a2.65,2.65,0,0,0,.37-.25.32.32,0,0,1,.41,0,2.65,2.65,0,0,0,.37.25,2,2,0,0,0,.89.28H6a1,1,0,0,0-.23-.23.31.31,0,0,1-.11-.34A.34.34,0,0,1,5.93,14a1.76,1.76,0,0,0,.61-.17A1.75,1.75,0,0,0,5.6,13.58Zm-1.34-3H1.69v3.2h0l.13-.07c0-.17.15-.41.59-.58a2.93,2.93,0,0,1,1-.18l.29,0a7.65,7.65,0,0,1-.14-1.51.54.54,0,0,1,.53-.54h.06a1.28,1.28,0,0,1,.07-.34Zm2.92-1a1.88,1.88,0,0,0-.57.09,1.85,1.85,0,0,0,.06,1.29h.78l-.09-.09a.31.31,0,0,1,0-.45.32.32,0,0,1,.46,0h0l.54.54h.48a3.4,3.4,0,0,1-.24-.7l-.13-.15A1.81,1.81,0,0,0,7.18,9.52Zm7.1.08H9.17a2.63,2.63,0,0,0,.41,1.3h.66a.24.24,0,0,1,.06-.09h0l.31-.3a.31.31,0,0,1,.45,0,.32.32,0,0,1,0,.39h.33a.31.31,0,0,1,.3-.2.33.33,0,0,1,.3.2h.28a.3.3,0,0,1,0-.39.32.32,0,0,1,.46,0h0l.3.3.07.09h.68a2.63,2.63,0,0,0,.41-1.3Zm-8.94.57a1,1,0,0,0-.5.73H6a1,1,0,0,1-.06-.25A1.55,1.55,0,0,1,5.34,10.17Zm13-.84a1.82,1.82,0,0,0-1.13.39,1.51,1.51,0,0,1,.35.6h0l.14-.15a.32.32,0,0,1,.46,0,.33.33,0,0,1,0,.45h0l-.28.28h.87a1.78,1.78,0,0,0,.15-1.48A1.77,1.77,0,0,0,18.31,9.33Zm-8,.43a.32.32,0,1,1,0,.64H9.86a.32.32,0,0,1,0-.64h.43Zm3.3,0a.32.32,0,0,1,0,.64h-.43a.32.32,0,1,1,0-.64h.43ZM5.31,3.94H2.56a.87.87,0,0,0-.87.88h0v.66H3.78a.32.32,0,0,1,.32.32.32.32,0,0,1-.32.33H1.69V9.92H4.63a1.74,1.74,0,0,1,.43-.34s0-.07,0-.11a1.63,1.63,0,0,1,.68-1.62h0a1.63,1.63,0,0,1,.47-1.44h0V6.13h-.6a.33.33,0,0,1-.33-.33.32.32,0,0,1,.33-.32h.6V4.82a.87.87,0,0,0-.88-.88ZM9.2,6.27H9a1,1,0,0,0-.65.43.37.37,0,0,1-.22.14.36.36,0,0,1-.25-.06,1,1,0,0,0-.58-.2l-.17,0a1,1,0,0,0-.8,1.13.94.94,0,0,0,0,.16.32.32,0,0,1-.17.4,1,1,0,0,0-.56,1.06,1.08,1.08,0,0,0,.23.48,2.82,2.82,0,0,1,.15-.57.3.3,0,0,1,.09-.13.38.38,0,0,1,.13-.09,2.41,2.41,0,0,1,2.29.25A.55.55,0,0,1,9.07,9h1.84a1.71,1.71,0,0,1,.37-.82,1,1,0,0,0-.81-.57.33.33,0,0,1-.29-.33.88.88,0,0,0,0-.16A1,1,0,0,0,9.2,6.27Zm7.29,1.44a1.07,1.07,0,0,0-.89.49,1.47,1.47,0,0,1,.89,1.11l.13,0a2.62,2.62,0,0,1,.92-.55v0A1.06,1.06,0,0,0,16.49,7.71Zm-3.91.46a1.06,1.06,0,0,0-1,.79h2A1.06,1.06,0,0,0,12.58,8.17Zm-4.07.32a.92.92,0,0,1,1.71,0,.32.32,0,0,1-.17.42.32.32,0,0,1-.42-.17.29.29,0,0,0-.16-.15.29.29,0,0,0-.36.17.31.31,0,0,1-.3.21l-.11,0A.33.33,0,0,1,8.51,8.49Zm6.27-2.57a2,2,0,0,0-1.42.59,2.11,2.11,0,0,0-.55,1,1.69,1.69,0,0,1,.5.14h0l.81-.81a.33.33,0,0,1,.45,0,.32.32,0,0,1,0,.46h0l-.74.74a1.42,1.42,0,0,1,.25.34,1.53,1.53,0,0,1,.68-.32l.17,0a1.79,1.79,0,0,1,.42-.57A2.07,2.07,0,0,0,15.43,6,2.05,2.05,0,0,0,14.78,5.92Zm-7,1.15a1.06,1.06,0,0,1,.73.33A.33.33,0,1,1,8,7.84a.34.34,0,0,0-.26-.12.35.35,0,0,0-.36.35.33.33,0,0,1-.32.32h0a.33.33,0,0,1-.33-.33A1,1,0,0,1,7.78,7.07ZM12.22,5,10.67,6.55A1.87,1.87,0,0,1,10.8,7h0a1.64,1.64,0,0,1,1,.76,1.58,1.58,0,0,1,.36-.14c0-.1,0-.19,0-.27h-.37a.33.33,0,1,1,0-.65h.43a.28.28,0,0,1,.16,0,3,3,0,0,1,.41-.59A2.59,2.59,0,0,0,12.22,5Zm-.38.61a.32.32,0,0,1,.46,0,.33.33,0,0,1,0,.45h0L12,6.36a.31.31,0,0,1-.22.09.32.32,0,0,1-.23-.09.32.32,0,0,1,0-.46h0Zm-7.14-3H3.18V3.3H4.7Zm.44-2H2.74V2h2.4Z"/></g></g></g></g></svg>