<?xml version="1.0" encoding="UTF-8"?>
<svg width="25px" height="25px" viewBox="0 0 25 25" version="1.1" xmlns="http://www.w3.org/2000/svg" xmlns:xlink="http://www.w3.org/1999/xlink">
    <title>666A8088-238C-4184-A0AB-46F48950966F</title>
    <defs>
        <filter id="filter-1">
            <feColorMatrix in="SourceGraphic" type="matrix" values="0 0 0 0 0.000000 0 0 0 0 0.709804 0 0 0 0 0.090196 0 0 0 1.000000 0"></feColorMatrix>
        </filter>
    </defs>
    <g id="Welcome" stroke="none" stroke-width="1" fill="none" fill-rule="evenodd">
        <g id="Assets" transform="translate(-950.000000, -712.000000)">
            <g id="Icons/Article-disponible" transform="translate(950.000000, 712.000000)">
                <circle id="Oval-Copy-2" stroke="#00B517" stroke-width="1.5" fill="#FFFFFF" cx="12.5" cy="12.5" r="11.75"></circle>
                <g filter="url(#filter-1)" id="Icons/affaires-icons-Copy-2">
                    <g transform="translate(7.000000, 6.000000)">
                        <path d="M9.625,-8.70414851e-14 C10.38345,-8.70414851e-14 11,0.6171 11,1.375 L11,6.325 C11,6.85795 10.7855,7.3546 10.39665,7.72365 L5.06825,12.8216 C4.8213,13.0614 4.47645,13.2 4.125,13.2 C3.75375,13.2 3.40835,13.05535 3.15205,12.79245 L0.4048,10.04465 C0.14465,9.79165 -7.10542736e-15,9.44625 -7.10542736e-15,9.075 C-7.10542736e-15,8.723 0.1386,8.3787 0.38005,8.1301 L0.53,7.974 L0.4026,7.84685 C0.143,7.5878 -7.10542736e-15,7.2424 -7.10542736e-15,6.875 C-7.10542736e-15,6.5219 0.13365,6.1864 0.3762,5.9301 L5.47745,0.60115 C5.83825,0.21945 6.3481,-8.70414851e-14 6.875,-8.70414851e-14 L9.625,-8.70414851e-14 Z M10.39885,5.52255 L5.07045,10.6227 C4.81305,10.86635 4.4781,11 4.125,11 C3.75705,11 3.41165,10.857 3.15205,10.59685 L0.919,8.363 L0.77495,8.5129 C0.6314,8.6603 0.55,8.8649 0.55,9.075 C0.55,9.29665 0.6358,9.5018 0.7909,9.6536 L3.54365,12.40635 C3.8445,12.7149 4.38405,12.7193 4.6871,12.4256 L10.01715,7.326 C10.2971,7.06035 10.45,6.7056 10.45,6.325 L10.4513698,5.47085479 C10.4342238,5.48839963 10.4167153,5.5056358 10.39885,5.52255 Z M9.625,0.55 L6.875,0.55 C6.4933,0.55 6.138,0.7029 5.8762,0.9801 L0.77495,6.30905 C0.6303,6.46195 0.55,6.66325 0.55,6.875 C0.55,7.09555 0.6358,7.30235 0.79145,7.458 L1.09426638,7.75833041 C1.09942082,7.76267923 1.10445282,7.76725226 1.10935,7.77205 L1.124,7.791 L3.54145,10.208 C3.8467,10.5138 4.378,10.5215 4.6915,10.22395 L10.0188,5.1249 C10.01935,5.1249 10.01935,5.12435 10.0199,5.1238 C10.29765,4.86145 10.45,4.5067 10.45,4.125 L10.45,1.375 C10.45,0.92015 10.07985,0.55 9.625,0.55 Z M8.25,1.65 C8.85665,1.65 9.35,2.14335 9.35,2.75 C9.35,3.35665 8.85665,3.85 8.25,3.85 C7.64335,3.85 7.15,3.35665 7.15,2.75 C7.15,2.14335 7.64335,1.65 8.25,1.65 Z M8.25,2.2 C7.9464,2.2 7.7,2.44695 7.7,2.75 C7.7,3.05305 7.9464,3.3 8.25,3.3 C8.5536,3.3 8.8,3.05305 8.8,2.75 C8.8,2.44695 8.5536,2.2 8.25,2.2 Z" id="Combined-Shape" fill="#00B517" fill-rule="nonzero"></path>
                    </g>
                </g>
            </g>
        </g>
    </g>
</svg>