<svg xmlns="http://www.w3.org/2000/svg" viewBox="0 0 22 17.02"><defs><style>.cls-1{fill:#4a4a4a;}</style></defs><g id="Calque_2" data-name="Calque 2"><g id="Calque_1-2" data-name="Calque 1"><g id="Group"><g id="Combined-Shape"><path class="cls-1" d="M17.16,0A2,2,0,0,1,19,1.28h0l1.68,4.53.48.51a2.75,2.75,0,0,1,.84,2h0v6.78a2,2,0,0,1-2,2H18.79a2,2,0,0,1-2-2h0v-1H5.17v1a2,2,0,0,1-2,2H2a2,2,0,0,1-2-2H0V8.45a2.69,2.69,0,0,1,1-2H1l.69-.64L3.3,1.28A2,2,0,0,1,5.14,0h12ZM.94,13.83v1.23a1,1,0,0,0,1,1H3.21a1,1,0,0,0,1-1h0v-1H2a1.92,1.92,0,0,1-1-.27Zm20.12,0a1.92,1.92,0,0,1-1,.27H17.77v1a1,1,0,0,0,1,1H20a1,1,0,0,0,1-1h0ZM20,6.49H2.22l-.64.6h0v0A1.75,1.75,0,0,0,.94,8.45h0v3.71a1,1,0,0,0,1,1H20a1,1,0,0,0,1-1h0V8.28A1.8,1.8,0,0,0,20.5,7s0,0,0,0h0ZM6.21,8.37a.48.48,0,0,1,.47.47h0v2.44a.48.48,0,0,1-.47.47H2.68a.47.47,0,0,1-.47-.47h0V8.84a.47.47,0,0,1,.47-.47H6.21Zm13.11,0a.47.47,0,0,1,.47.47h0v2.44a.47.47,0,0,1-.47.47H15.79a.48.48,0,0,1-.47-.47h0V8.84a.48.48,0,0,1,.47-.47h3.53Zm-6.05,2a.47.47,0,1,1,0,.94H8.73a.47.47,0,0,1,0-.94h4.54Zm-7.53-1H3.15v1.5H5.74Zm13.11,0H16.26v1.5h2.59Zm-5.58-.43a.48.48,0,0,1,.47.47.47.47,0,0,1-.47.47H8.73a.47.47,0,0,1-.47-.47.48.48,0,0,1,.47-.47h4.54ZM17.16.94h-12a1,1,0,0,0-1,.66h0l-1.46,4h9.39a3.22,3.22,0,0,1,6.38,0h1.09L18.12,1.6a1,1,0,0,0-1-.66ZM15.77,3.78a2.29,2.29,0,0,0-2.71,1.77h4.47A2.3,2.3,0,0,0,15.77,3.78Z"/></g></g></g></g></svg>