<svg xmlns="http://www.w3.org/2000/svg" viewBox="0 0 22 23.57"><defs><style>.cls-1{fill:#4a4a4a;}</style></defs><g id="Calque_2" data-name="Calque 2"><g id="Calque_1-2" data-name="Calque 1"><g id="Group"><g id="Combined-Shape"><path class="cls-1" d="M9.8,0a.37.37,0,0,1,.29.11.36.36,0,0,1,.12.28h0V2a.39.39,0,0,1-.39.4H7.07V3.93h.39a.39.39,0,0,1,.39.33h0l.39,2.35a.31.31,0,0,1,0,.23A5.12,5.12,0,0,1,11,11.39v0h0l-.31,2.3a4.38,4.38,0,0,1,1.88-.38.38.38,0,0,1,.37.53.3.3,0,0,0,0,.26c.07.1.31.31,1.1.37h0l-.72-5.43h0V7.46a.39.39,0,0,1,.39-.39h7.86a.4.4,0,0,1,.39.39h0v1.6h0v0h0L20.43,20.85v1.54a1.18,1.18,0,0,1-1.18,1.18H2.65a1.18,1.18,0,0,1-1.17-1h0L0,11.44v0A5.12,5.12,0,0,1,2.79,6.84a.31.31,0,0,1,0-.23h0l.39-2.35a.39.39,0,0,1,.39-.33h.39V2.36H3.54a.37.37,0,0,1-.32-.17.37.37,0,0,1-.06-.35h0L3.56.66A.39.39,0,0,1,3.9.39h0Zm6.36,18.07H6.63a.34.34,0,0,0-.34.34h0v4a.35.35,0,0,0,.34.35h9.53a.35.35,0,0,0,.34-.35h0v-4a.34.34,0,0,0-.34-.34Zm3.48,3.14H17.29v1.23a1,1,0,0,1-.06.35h2a.39.39,0,0,0,.39-.4h0ZM5.89,7.07H5.11a4.32,4.32,0,0,0-4.32,4.3h0L2.26,22.44a.41.41,0,0,0,.39.35h2.9a1.34,1.34,0,0,1,0-.35h0v-4a1.13,1.13,0,0,1,1.13-1.12h0V16.11a.39.39,0,0,1,.39-.4,3.13,3.13,0,0,0,2.19-1c.18-.16.37-.31.57-.46h0l.38-2.89a4.32,4.32,0,0,0-4.32-4.3Zm5.5,11.79a1.57,1.57,0,1,1-1.57,1.57A1.57,1.57,0,0,1,11.39,18.86Zm0,.78a.79.79,0,1,0,.79.79A.78.78,0,0,0,11.39,19.64ZM21.16,9.43h-7l.68,5.14a1.46,1.46,0,0,1,1,.76,2.13,2.13,0,0,1,.23.74h0v0h0v1.2h.05a1.13,1.13,0,0,1,1.13,1.12h0v2h2.4ZM15.32,16.5H7.46v.79h7.86Zm-3.17-2.34a3.93,3.93,0,0,0-2.38,1.16c-.16.13-.32.27-.49.39h5.91v0a.69.69,0,0,0-.64-.37c-1.14,0-1.89-.25-2.22-.74A1.28,1.28,0,0,1,12.15,14.16ZM17.68,11c1.12,0,2,.51,2,1.18s-.84,1.18-2,1.18-2-.51-2-1.18S16.56,11,17.68,11ZM7.86,9.82a.4.4,0,0,1,.39.39h0v2.36a.39.39,0,0,1-.39.39H3.14a.39.39,0,0,1-.39-.39h0V10.21a.4.4,0,0,1,.39-.39H7.86Zm9.82,2c-.76,0-1.18.29-1.18.39s.42.39,1.18.39,1.18-.29,1.18-.39S18.44,11.79,17.68,11.79ZM7.46,10.61H3.54v1.57H7.46ZM21.21,7.86H14.14v.78h7.07ZM7.13,4.71H3.87L3.61,6.29H7.39ZM6.29,2.36H4.71V3.93H6.29ZM9.43.81l-5.21.35-.14.41H9.43Z"/></g></g></g></g></svg>