<?xml version="1.0" encoding="UTF-8"?>
<svg width="42px" height="42px" viewBox="0 0 42 42" version="1.1" xmlns="http://www.w3.org/2000/svg" xmlns:xlink="http://www.w3.org/1999/xlink">
    <title>F0850042-F5D3-4653-B924-EAADCA726D1D</title>
    <defs>
        <filter id="filter-1">
            <feColorMatrix in="SourceGraphic" type="matrix" values="0 0 0 0 0.098039 0 0 0 0 0.098039 0 0 0 0 0.439216 0 0 0 1.000000 0"></feColorMatrix>
        </filter>
    </defs>
    <g id="Welcome" stroke="none" stroke-width="1" fill="none" fill-rule="evenodd">
        <g id="Asset-4--Icones" transform="translate(-202.000000, -345.000000)">
            <g id="Sous-Catégories/Boissons" transform="translate(202.000000, 345.000000)">
                <rect id="Rectangle-Copy-3" fill="#FFFFFF" x="0" y="0" width="42" height="42" rx="21"></rect>
                <g filter="url(#filter-1)" id="DRINKS-">
                    <g transform="translate(16.000000, 8.500000)">
                        <path d="M7.59979167,5.35 C6.86636302,4.88180239 6.42199176,4.07221277 6.42083333,3.20208333 L6.42083333,2.13541667 L6.54166667,2.13541667 C6.74297286,2.13530173 6.90613507,1.97213952 6.90625,1.77083333 L6.90625,0.520833333 C6.90613507,0.319527145 6.74297286,0.15625 6.54166667,0.15625 L2.625,0.15625 C2.42369381,0.15625 2.2605316,0.319527145 2.26041667,0.520833333 L2.26041667,1.77083333 C2.2605316,1.97213952 2.42369381,2.13530173 2.625,2.13541667 L2.74666667,2.13541667 L2.74666667,3.20208333 C2.74543623,4.07246241 2.30081667,4.88223226 1.56708333,5.35041667 C0.633035733,5.95280306 0.0695797901,6.98897169 0.0716608899,8.10041667 L0.0716608899,23.2291667 C0.0726999044,24.1204481 0.79496858,24.8427168 1.68625,24.84375 L2.80916667,24.84375 C3.24915756,24.8428455 3.6638212,24.6378225 3.93166667,24.28875 C4.06119316,24.1177932 4.2634331,24.0175216 4.47791667,24.0179167 L4.69041667,24.0179167 C4.90415659,24.0172068 5.10590834,24.1165794 5.235625,24.2864583 C5.50345663,24.6362933 5.91857931,24.8418918 6.35916667,24.8429167 L7.48208333,24.8429167 C8.37336475,24.8418834 9.09563343,24.1196148 9.09667045,23.2283333 L9.09667045,8.1 C9.09835684,6.98829216 8.53433733,5.95209765 7.59979167,5.35 Z M2.98875,0.885416667 L6.17791667,0.885416667 L6.17791667,1.40625 L2.98875,1.40625 L2.98875,0.885416667 Z M1.9625,5.9625 C2.90430982,5.36039759 3.47441941,4.31990833 3.475,3.20208333 L3.475,2.13541667 L5.69166667,2.13541667 L5.69166667,3.20208333 C5.69218179,4.3197092 6.26213597,5.36004441 7.20375,5.96208333 C7.92987982,6.43045387 8.36801213,7.23592033 8.36666976,8.1 L8.36666976,9.65270833 L0.799996412,9.65270833 L0.799996412,8.1 C0.798550284,7.23610959 1.23653666,6.4307798 1.9625,5.9625 L1.9625,5.9625 Z M8.36458333,10.381875 L8.36458333,15.4860417 L0.800416667,15.4860417 L0.800416667,10.381875 L8.36458333,10.381875 Z M7.48125,24.1145833 L6.35833333,24.1145833 C6.144719,24.1137483 5.94362925,24.0136653 5.81416667,23.84375 C5.54683597,23.4927046 5.13041081,23.2872682 4.68916667,23.28875 L4.47708333,23.28875 C4.03561463,23.2877443 3.61919658,23.493717 3.35208333,23.8452083 C3.22253915,24.0141738 3.02186888,24.1133928 2.80895833,24.11375 L1.68541667,24.11375 C1.1966525,24.113176 0.800574004,23.7170975 0.8,23.2283333 L0.8,16.2152083 L8.36666667,16.2152083 L8.36666667,23.2291667 C8.36609266,23.7179308 7.97001416,24.1140093 7.48125,24.1145833 L7.48125,24.1145833 Z" id="Shape" fill="#000000" fill-rule="nonzero"></path>
                        <path d="M4.58333333,14.7047917 C5.3725372,14.7039878 6.01211282,14.0644122 6.01291667,13.2752083 C6.01291667,12.5802083 5.045625,11.4922917 4.851875,11.2810417 C4.78115764,11.2089558 4.68441928,11.1683413 4.5834375,11.1683413 C4.48245572,11.1683413 4.38571736,11.2089558 4.315,11.2810417 C4.12104167,11.4922917 3.15375,12.5802083 3.15375,13.2752083 C3.15455385,14.0644122 3.79412946,14.7039878 4.58333333,14.7047917 L4.58333333,14.7047917 Z M4.58333333,12.0860417 C4.95625,12.544375 5.28375,13.06 5.28375,13.2752083 C5.28375,13.6620378 4.97016278,13.975625 4.58333333,13.975625 C4.19650389,13.975625 3.88291508,13.6620378 3.88291508,13.2752083 C3.88208333,13.06 4.20979167,12.545 4.58333333,12.0860417 Z" id="Shape" fill="#000000" fill-rule="nonzero"></path>
                    </g>
                </g>
            </g>
        </g>
    </g>
</svg>