<?xml version="1.0" encoding="UTF-8"?>
<svg width="18px" height="17px" viewBox="0 0 18 17" version="1.1" xmlns="http://www.w3.org/2000/svg" xmlns:xlink="http://www.w3.org/1999/xlink">
    <title>C885A2E3-453E-4AED-B792-525521C47EE9</title>
    <defs>
        <filter id="filter-1">
            <feColorMatrix in="SourceGraphic" type="matrix" values="0 0 0 0 0.098039 0 0 0 0 0.098039 0 0 0 0 0.439216 0 0 0 1.000000 0"></feColorMatrix>
        </filter>
    </defs>
    <g id="Welcome" stroke="none" stroke-width="1" fill="none" fill-rule="evenodd">
        <g id="Home-page-/-Récapitulatif_Produits-/-Modification_Produits" transform="translate(-622.000000, -407.000000)">
            <g id="boite-de-livraison" transform="translate(612.500000, 401.000000)" filter="url(#filter-1)">
                <g transform="translate(10.000000, 6.500000)">
                    <path d="M16.9691272,12.4786321 L14.9709119,12.4786321 L14.9709119,0.00718590998 L1.99794912,0.00113111546 L1.99794912,3.49305088 L2.49697065,3.49305088 L2.49697065,0.500385519 L6.48807828,0.502248532 L6.48807828,3.44454599 L7.31971429,4.01489432 L7.90167319,3.6156771 L8.48379843,4.01489432 L9.06595695,3.6156771 L9.64821526,4.01489432 L10.4799843,3.44457926 L10.4799843,1.9959863 L9.98096282,1.9959863 L9.98096282,3.18166145 L9.64821526,3.40978082 L9.06595695,3.0105636 L8.48379843,3.40978082 L7.90160665,3.0105636 L7.31968102,3.40978082 L6.9870998,3.18169472 L6.9870998,0.502481409 L9.98096282,0.503878669 L9.98096282,1.49696477 L10.4799843,1.49696477 L10.4799843,0.504111546 L14.4718904,0.50597456 L14.4718904,12.4786321 C11.7200861,12.4788317 5.17392172,12.4787984 2.49697065,12.4766027 L2.49697065,3.99207241 L1.99794912,3.99207241 L1.99794912,12.4786321 L3.78214529e-15,12.4786321 L3.78214529e-15,13.9740998 L2.25018787,13.9740998 C1.63056947,14.7588943 2.23817808,15.991411 3.24746575,15.9696204 C4.25648728,15.991411 4.86449511,14.758728 4.2446771,13.9740998 L9.98102935,13.9740998 L9.98102935,13.4750783 L0.499021526,13.4750783 L0.499021526,12.9776536 C4.00591194,12.9766888 11.4245323,12.9792838 14.9709119,12.9814795 L14.9709119,12.9776536 L16.4700724,12.9776536 L16.4700724,13.4750783 L11.4781272,13.4750783 L11.4781272,13.9740998 L12.723319,13.9740998 C12.1036673,14.7588943 12.7113092,15.991411 13.7205636,15.9696204 C14.7295851,15.991411 15.3376262,14.7586947 14.717775,13.9740998 L16.9691272,13.9740998 L16.9691272,12.4786321 L16.9691272,12.4786321 Z M3.99569863,14.7223659 C3.96978278,15.7090646 2.52494912,15.7088317 2.49916634,14.7223327 C2.52508219,13.7356673 3.96994912,13.7358669 3.99569863,14.7223659 Z M14.4687965,14.7223659 C14.4428806,15.7090646 12.998047,15.7088317 12.9722642,14.7223327 C12.99818,13.7356673 14.4430137,13.7358669 14.4687965,14.7223659 Z" id="Shape" fill="#000000" fill-rule="nonzero"></path>
                    <polygon id="Path" fill="#000000" fill-rule="nonzero" points="10.4800841 13.4750783 10.9791057 13.4750783 10.9791057 13.9740998 10.4800841 13.9740998"></polygon>
                    <path d="M3.49581213,8.98285323 L6.48588258,8.98285323 L6.48588258,6.98570254 L3.49581213,6.98570254 L3.49581213,8.98285323 Z M3.99483366,7.4846908 L5.98686106,7.4846908 L5.98686106,8.48379843 L3.99483366,8.48379843 L3.99483366,7.4846908 Z" id="Shape" fill="#000000" fill-rule="nonzero"></path>
                    <polygon id="Path" fill="#000000" fill-rule="nonzero" points="3.49378278 9.48450294 4.99084736 9.48450294 4.99084736 9.98352446 3.49378278 9.98352446"></polygon>
                    <polygon id="Path" fill="#000000" fill-rule="nonzero" points="3.49378278 10.4812153 6.48791194 10.4812153 6.48791194 10.9802368 3.49378278 10.9802368"></polygon>
                    <polygon id="Path" fill="#000000" fill-rule="nonzero" points="2.99545988 0.997943249 3.49448141 0.997943249 3.49448141 1.49696477 2.99545988 1.49696477"></polygon>
                    <polygon id="Path" fill="#000000" fill-rule="nonzero" points="2.99545988 1.9959863 3.49448141 1.9959863 3.49448141 2.49500783 2.99545988 2.49500783"></polygon>
                    <polygon id="Path" fill="#000000" fill-rule="nonzero" points="7.49194325 0.997943249 7.99096477 0.997943249 7.99096477 1.49696477 7.49194325 1.49696477"></polygon>
                    <polygon id="Path" fill="#000000" fill-rule="nonzero" points="2.99545988 14.4715245 3.49448141 14.4715245 3.49448141 14.970546 2.99545988 14.970546"></polygon>
                    <polygon id="Path" fill="#000000" fill-rule="nonzero" points="13.4710196 14.4715245 13.9700411 14.4715245 13.9700411 14.970546 13.4710196 14.970546"></polygon>
                </g>
            </g>
        </g>
    </g>
</svg>