<svg xmlns="http://www.w3.org/2000/svg" viewBox="0 0 99.5 33.5"><defs><style>.cls-1{fill:#fff;stroke:#d6d6d6;stroke-miterlimit:10;stroke-width:0.5px;}.cls-2,.cls-4{fill:#191970;}.cls-3,.cls-4{isolation:isolate;}.cls-4{font-size:13px;font-family:ArialMT, Arial;letter-spacing:-0.02em;}</style></defs><g id="Calque_2" data-name="Calque 2"><g id="Calque_1-2" data-name="Calque 1"><rect class="cls-1" x="0.25" y="0.25" width="99" height="33" rx="6.17"/><g id="Group"><g id="Combined-Shape"><path class="cls-2" d="M19.5,5.5A9.43,9.43,0,0,1,29,14.83c0,2.5-1.54,5.71-4.58,9.54a50.65,50.65,0,0,1-4.52,5,.59.59,0,0,1-.8,0,50.65,50.65,0,0,1-4.52-5c-3-3.83-4.58-7-4.58-9.54A9.43,9.43,0,0,1,19.5,5.5Zm0,2.67a6.67,6.67,0,1,0,6.79,6.66A6.74,6.74,0,0,0,19.5,8.17Zm-.36,2.46a.57.57,0,0,1,.72,0h0l4,3.33a.47.47,0,0,1,.1.63.57.57,0,0,1-.48.24h-.52V18a.52.52,0,0,1-.54.5H21.12a.52.52,0,0,1-.54-.5h0V16.17a.52.52,0,0,0-.54-.5H19a.52.52,0,0,0-.54.5h0V18a.52.52,0,0,1-.54.5H16.62a.52.52,0,0,1-.54-.5h0V14.83h-.52a.57.57,0,0,1-.48-.24.47.47,0,0,1,.1-.63h0Z"/></g></g><g id="MARCHÉ" class="cls-3"><text class="cls-4" transform="translate(35.69 22.62)">MARCHÉ</text></g></g></g></svg>