<svg xmlns="http://www.w3.org/2000/svg" viewBox="0 0 99.25 33.25"><defs><style>.cls-1{fill:#fff;stroke:#d6d6d6;stroke-miterlimit:10;stroke-width:0.25px;}.cls-2,.cls-4{fill:#191970;}.cls-3,.cls-4{isolation:isolate;}.cls-4{font-size:13px;font-family:ArialMT, Arial;letter-spacing:-0.02em;}</style></defs><g id="Calque_2" data-name="Calque 2"><g id="Calque_1-2" data-name="Calque 1"><rect class="cls-1" x="0.13" y="0.13" width="99" height="33" rx="6.17"/><g id="Group"><g id="Combined-Shape"><path class="cls-2" d="M19.38,5.37a9.44,9.44,0,0,1,9.5,9.34c0,2.5-1.55,5.71-4.59,9.54a51.72,51.72,0,0,1-4.51,5,.6.6,0,0,1-.81,0,51.72,51.72,0,0,1-4.51-5c-3-3.83-4.58-7-4.58-9.54A9.43,9.43,0,0,1,19.38,5.37Zm0,2.67a6.67,6.67,0,1,0,6.78,6.67A6.73,6.73,0,0,0,19.38,8ZM19,10.5a.59.59,0,0,1,.73,0h0l4,3.34a.47.47,0,0,1,.1.62.57.57,0,0,1-.48.25h-.53v3.16a.52.52,0,0,1-.54.5H21a.52.52,0,0,1-.54-.5h0V16a.52.52,0,0,0-.54-.5H18.84a.52.52,0,0,0-.54.5h0v1.83a.52.52,0,0,1-.54.5H16.5a.52.52,0,0,1-.54-.5h0V14.71h-.53a.57.57,0,0,1-.48-.25.47.47,0,0,1,.1-.62h0Z"/></g></g><g id="MARCHÉ" class="cls-3"><text class="cls-4" transform="translate(35.57 22.49)">MARCHÉ</text></g></g></g></svg>