<svg xmlns="http://www.w3.org/2000/svg" viewBox="0 0 22 21.86"><defs><style>.cls-1{fill:#4a4a4a;}</style></defs><g id="Calque_2" data-name="Calque 2"><g id="Calque_1-2" data-name="Calque 1"><g id="Group"><g id="Combined-Shape"><path class="cls-1" d="M10.59.73A4.15,4.15,0,0,1,13.44,0a5,5,0,0,1,2.9,1.27h0l2.91,2.63a.57.57,0,0,1,0,.82h0l-.13.15.36.33A.88.88,0,0,1,20.11,5a.87.87,0,0,1,.63.23h0l.87.79a.88.88,0,0,1,.07,1.24h0L19.74,9.36a.9.9,0,0,1-.61.29h-.05a.88.88,0,0,1-.59-.23h0l-.87-.79A.88.88,0,0,1,17.33,8a.87.87,0,0,1,.23-.63h0l.14-.16-.36-.33-.1.12a.63.63,0,0,1-.44.19.58.58,0,0,1-.39-.15h0L16,6.71l-5.19,5.75a.7.7,0,0,1,.12.35.65.65,0,0,1-.17.48h0l-.39.43a.67.67,0,0,1-.46.22h0a.67.67,0,0,1-.34-.09h0l-.81,1.43h0a10.13,10.13,0,0,1-1.21,1.63h0L3.7,21.18a2.07,2.07,0,0,1-1.43.68H2.16a2,2,0,0,1-1.38-.53,2.07,2.07,0,0,1-.15-2.92h0l3.85-4.27A10.72,10.72,0,0,1,6,12.78H6l1.34-.95a.68.68,0,0,1,0-.84h0l.39-.43a.66.66,0,0,1,.83-.13h0l5.2-5.76a.58.58,0,0,1,0-.53,1.07,1.07,0,0,0,0-1c-.15-.29-.75-1-3-1.35a.58.58,0,0,1-.47-.44A.58.58,0,0,1,10.59.73Zm2.62,10a.33.33,0,0,1,.45,0h0l7.79,7.79a1.87,1.87,0,0,1-2.64,2.65h0l-7.34-7.35a.31.31,0,0,1,0-.45.32.32,0,0,1,.46,0h0l7.34,7.34A1.22,1.22,0,0,0,21,19h0l-7.79-7.79A.32.32,0,0,1,13.21,10.78Zm-5.4,1.5-1.45,1A10.56,10.56,0,0,0,5,14.57H5L1.11,18.84a1.41,1.41,0,0,0,.1,2,1.41,1.41,0,0,0,2-.1h0l3.86-4.27A8.9,8.9,0,0,0,8.2,15h0l.87-1.54ZM12.15,12a.33.33,0,0,1,.45,0h0l6,6a.33.33,0,0,1,0,.45.37.37,0,0,1-.23.1.34.34,0,0,1-.23-.1h0l-6-6A.32.32,0,0,1,12.15,12ZM8.26,11h0l-.39.43a0,0,0,0,0,0,0h0l2,1.84h0a0,0,0,0,0,0,0h0l.39-.43v0h0L8.27,11h0Zm6-5.86L9.08,10.85,10.37,12l5.18-5.73ZM2.81.26a3.89,3.89,0,0,1,3.67.81,3.86,3.86,0,0,1,1.27,3.1,1.51,1.51,0,0,0,.44,1.14h0l2,2a.33.33,0,0,1,0,.45.32.32,0,0,1-.46,0h0l-2-2a2.15,2.15,0,0,1-.62-1.62A3.23,3.23,0,0,0,6.05,1.55,3.26,3.26,0,0,0,3.13.84h0L5.07,2.41a1.26,1.26,0,0,1,.47.85,1.29,1.29,0,0,1-.28.93h0l-.89,1.1a1.26,1.26,0,0,1-1.78.19h0L.65,3.91a3.27,3.27,0,0,0,1.2,2.63,3.27,3.27,0,0,0,2.59.64,2.13,2.13,0,0,1,1.85.6h0L7.8,9.29a.34.34,0,0,1,0,.46.33.33,0,0,1-.23.09.35.35,0,0,1-.23-.09h0L5.83,8.24a1.5,1.5,0,0,0-1.28-.43A3.85,3.85,0,0,1,0,3.72a.58.58,0,0,1,.34-.48.55.55,0,0,1,.59.08h0L3,5a.63.63,0,0,0,.88-.09h0l.89-1.11a.66.66,0,0,0,.14-.45.63.63,0,0,0-.23-.42h0L2.61,1.25a.59.59,0,0,1-.2-.56A.57.57,0,0,1,2.81.26ZM7,6.84a.32.32,0,0,1,.46,0h0L9.1,8.46a.33.33,0,0,1,0,.45.37.37,0,0,1-.23.1.34.34,0,0,1-.23-.1h0L7,7.29A.33.33,0,0,1,7,6.84ZM20.14,5.6a.24.24,0,0,0-.16.07h0L18,7.82a.23.23,0,0,0,0,.33h0l.88.79A.18.18,0,0,0,19.1,9a.24.24,0,0,0,.16-.07h0L21.2,6.78a.23.23,0,0,0,0-.33h0l-.87-.79A.19.19,0,0,0,20.14,5.6Zm-1.41-.23-1,1,.36.33,1-1.06ZM15.91,1.76a4.18,4.18,0,0,0-4.82-.6c1.05.19,2.73.63,3.28,1.66a1.67,1.67,0,0,1,0,1.54h0L16.8,6.54l2-2.19Z"/></g></g></g></g></svg>