<svg xmlns="http://www.w3.org/2000/svg" viewBox="0 0 44 44"><defs><style>.cls-1{fill:#fff;}.cls-2{fill:#1a7ef5;}</style></defs><g id="Calque_2" data-name="Calque 2"><g id="Calque_1-2" data-name="Calque 1"><circle id="Cercle-de-survole-icone" class="cls-1" cx="22" cy="22" r="22"/><g id="Welcome"><g id="Assets"><g id="transfer"><path id="Path" class="cls-2" d="M26.54,19.9a.72.72,0,0,0,.14-.64c-.07-.26-.06-.2-1.64-1.79a.73.73,0,1,0-1,1l.21.21H19.44a.73.73,0,0,0,0,1.46h4.78l-.21.21a.73.73,0,1,0,1,1l1.5-1.51Z"/><path id="Path-2" data-name="Path" class="cls-2" d="M24.52,23.8H19.74l.21-.22a.72.72,0,0,0-1-1c-1.6,1.59-1.54,1.51-1.61,1.69a.66.66,0,0,0,0,.55c.07.19.07.15,1.61,1.69a.72.72,0,1,0,1-1l-.21-.21h4.78a.73.73,0,0,0,.73-.73.73.73,0,0,0-.73-.72Z"/><path id="Shape" class="cls-2" d="M22,33.64A11.64,11.64,0,1,1,33.64,22,11.65,11.65,0,0,1,22,33.64Zm0-21.83A10.19,10.19,0,1,0,32.19,22,10.2,10.2,0,0,0,22,11.81Z"/></g></g></g></g></g></svg>