<svg xmlns="http://www.w3.org/2000/svg" viewBox="0 0 44 44"><defs><style>.cls-1{fill:#fff;}.cls-2{fill:#4a4a4a;}</style></defs><g id="Calque_2" data-name="Calque 2"><g id="Calque_1-2" data-name="Calque 1"><circle id="Cercle-de-survole-icone" class="cls-1" cx="22" cy="22" r="22"/><g id="Group"><g id="Icons_Menu" data-name="Icons/Menu"><path id="Combined-Shape" class="cls-2" d="M22.25,11.72A10.53,10.53,0,0,1,33,22,10.53,10.53,0,0,1,22.25,32.28,10.53,10.53,0,0,1,11.5,22,10.53,10.53,0,0,1,22.25,11.72Zm0,1.28a9.22,9.22,0,0,0-9.41,9,9.22,9.22,0,0,0,9.41,9,9.22,9.22,0,0,0,9.41-9A9.22,9.22,0,0,0,22.25,13Zm3.9,12a.68.68,0,0,1,.67.7.69.69,0,0,1-.67.71H18.64a.69.69,0,0,1-.66-.71.68.68,0,0,1,.66-.7Zm0-3.66a.7.7,0,0,1,0,1.4H18.64a.7.7,0,0,1,0-1.4Zm0-3.67a.69.69,0,0,1,.67.71.68.68,0,0,1-.67.7H18.64a.68.68,0,0,1-.66-.7.69.69,0,0,1,.66-.71Z"/></g></g></g></g></svg>