<?xml version="1.0" encoding="UTF-8"?>
<svg width="42px" height="42px" viewBox="0 0 42 42" version="1.1" xmlns="http://www.w3.org/2000/svg" xmlns:xlink="http://www.w3.org/1999/xlink">
    <title>DDF4BBF0-E3F1-4070-8E6E-B0DA4BA4FBAA</title>
    <defs>
        <filter id="filter-1">
            <feColorMatrix in="SourceGraphic" type="matrix" values="0 0 0 0 0.098039 0 0 0 0 0.098039 0 0 0 0 0.439216 0 0 0 1.000000 0"></feColorMatrix>
        </filter>
    </defs>
    <g id="Welcome" stroke="none" stroke-width="1" fill="none" fill-rule="evenodd">
        <g id="Asset-4--Icones" transform="translate(-189.000000, -816.000000)">
            <g id="Sous-Catégories/Céréales" transform="translate(189.000000, 816.000000)">
                <rect id="Rectangle-Copy-11" fill="#FFFFFF" x="0" y="0" width="42" height="42" rx="21"></rect>
                <g filter="url(#filter-1)" id="COOKIES-">
                    <g transform="translate(8.500000, 12.000000)">
                        <path d="M24.7958333,7.85166667 C24.7843146,7.74760895 24.7286428,7.65351589 24.6429816,7.59332582 C24.5573204,7.53313576 24.4499275,7.51265108 24.348125,7.53708333 C23.8157613,7.66515666 23.2542173,7.53252369 22.8354167,7.17979167 C22.7202605,7.08191118 22.5566151,7.0653311 22.4241667,7.138125 C22.2480942,7.23426553 22.0506098,7.28442485 21.85,7.28395833 C21.339022,7.28293753 20.8842067,6.95985839 20.715,6.47770833 C20.6667184,6.34061064 20.5416551,6.24525807 20.3966667,6.235 C19.4935281,6.16824157 18.7936439,5.41809348 18.7895833,4.5125 C18.7902826,4.42453233 18.7979454,4.33675808 18.8125,4.25 C18.8293026,4.14505886 18.7994781,4.03800991 18.7308333,3.956875 C18.4149804,3.58682795 18.3251319,3.07438835 18.49625,2.61895833 C18.5561763,2.45783208 18.4954063,2.2767375 18.3504167,2.184375 C17.9576764,1.93740041 17.7197765,1.50560662 17.7208333,1.04166667 C17.7202128,0.911841109 17.7392479,0.782669552 17.7772917,0.658541667 C17.8089322,0.557330148 17.7949118,0.447356116 17.7388897,0.357320512 C17.6828675,0.267284908 17.5904021,0.206121134 17.485625,0.189791667 C15.7884423,-0.0684967383 14.0527877,0.184551556 12.5,0.916666667 C11.3482163,0.370872189 10.0891383,0.0890209262 8.81458333,0.0916666667 C5.26264274,0.0912235292 2.07072106,2.26016879 0.763176655,5.56268448 C-0.544367744,8.86520016 0.297725542,12.6313078 2.88730005,15.0624363 C5.47687455,17.4935649 9.28858553,18.0965135 12.5020833,16.5833333 C15.1835096,17.846137 18.3246674,17.6489055 20.8270749,16.0606117 C23.3294824,14.472318 24.8450407,11.7139026 24.8437609,8.75 C24.8442402,8.44990403 24.8282438,8.15000773 24.7958333,7.85166667 Z M8.81458333,16.6791741 C4.4354255,16.6791741 0.885416667,13.1291578 0.885416667,8.75 C0.885416667,4.37084217 4.4354255,0.820823645 8.81458333,0.820823645 C9.79539874,0.819292271 10.7678132,1.00160674 11.6814583,1.35833333 C9.10143205,2.92856443 7.52682723,5.73041783 7.52704003,8.75070942 C7.52725284,11.771001 9.10225247,14.5726325 11.6825,16.1425 C10.7683113,16.4985008 9.79564175,16.6805142 8.81458333,16.6791741 L8.81458333,16.6791741 Z M16.1854167,16.6791667 C13.2563498,16.6773865 10.5668372,15.0609847 9.19068805,12.4753224 C7.81453886,9.88966016 7.97592814,6.75594257 9.61041996,4.32533103 C11.2449118,1.89471948 14.0862469,0.563161348 17,0.862291667 C16.995,0.921458333 16.9925,0.98125 16.9925,1.04166667 C16.9909147,1.65591984 17.2621596,2.23916508 17.7329167,2.63375 C17.6992144,2.78194432 17.6821643,2.9334384 17.6820833,3.08541667 C17.6825466,3.51964304 17.818923,3.94283243 18.0720833,4.295625 C18.0647917,4.36958333 18.06125,4.44145833 18.06125,4.5125 C18.0650711,5.71364304 18.9333269,6.7375005 20.1177083,6.9375 C20.5612603,7.83797496 21.6206429,8.24859892 22.5552083,7.88229167 C23.0084759,8.19473271 23.5537366,8.34546829 24.103125,8.31020833 C24.11125,8.454375 24.1154167,8.601875 24.1154167,8.750625 C24.1104783,13.1279598 20.5627523,16.6750334 16.1854167,16.6791667 Z" id="Shape" fill="#000000" fill-rule="nonzero"></path>
                        <path d="M21.1614583,13.2008333 C20.8610241,13.5360433 20.5279185,13.8404654 20.1670833,14.1095833 C20.0056551,14.2299354 19.9723563,14.4583634 20.0927083,14.6197917 C20.2130604,14.7812199 20.4414884,14.8145187 20.6029167,14.6941667 C21.002729,14.396038 21.3718437,14.058817 21.7047917,13.6875 C21.8340682,13.5369033 21.819224,13.3105854 21.6713844,13.1781647 C21.5235448,13.0457439 21.2969645,13.0558165 21.1614583,13.2008333 L21.1614583,13.2008333 Z" id="Path" fill="#000000" fill-rule="nonzero"></path>
                        <path d="M6.58520833,2.32645833 C6.03867655,2.32645833 5.595625,2.76950988 5.595625,3.31604167 C5.595625,3.86257345 6.03867655,4.305625 6.58520833,4.305625 C7.13174012,4.305625 7.57479167,3.86257345 7.57479167,3.31604167 C7.57421753,2.76974788 7.13150212,2.32703247 6.58520833,2.32645833 Z M6.58520833,3.57645833 C6.44138418,3.57645833 6.32479167,3.45986582 6.32479167,3.31604167 C6.32479167,3.17221751 6.44138418,3.055625 6.58520833,3.055625 C6.72903249,3.055625 6.845625,3.17221751 6.845625,3.31604167 C6.84539558,3.45977069 6.72893735,3.57622892 6.58520833,3.57645833 L6.58520833,3.57645833 Z" id="Shape" fill="#000000" fill-rule="nonzero"></path>
                        <path d="M14.4791667,2.95145833 C13.9326349,2.95145833 13.4895833,3.39450988 13.4895833,3.94104167 C13.4895833,4.48757345 13.9326349,4.930625 14.4791667,4.930625 C15.0256985,4.930625 15.46875,4.48757345 15.46875,3.94104167 C15.4681759,3.39474788 15.0254605,2.95203247 14.4791667,2.95145833 L14.4791667,2.95145833 Z M14.4791667,4.20145833 C14.3353425,4.20145833 14.21875,4.08486582 14.21875,3.94104167 C14.21875,3.79721751 14.3353425,3.680625 14.4791667,3.680625 C14.6229908,3.680625 14.7395833,3.79721751 14.7395833,3.94104167 C14.7393539,4.08477069 14.6228957,4.20122892 14.4791667,4.20145833 L14.4791667,4.20145833 Z" id="Shape" fill="#000000" fill-rule="nonzero"></path>
                        <path d="M12.5,6.45833333 C11.9534682,6.45833333 11.5104167,6.90138488 11.5104167,7.44791667 C11.5104167,7.99444845 11.9534682,8.4375 12.5,8.4375 C13.0465318,8.4375 13.4895833,7.99444845 13.4895833,7.44791667 C13.4888946,6.9016704 13.0462463,6.45902202 12.5,6.45833333 Z M12.5,7.70833333 C12.3561758,7.70833333 12.2395833,7.59174082 12.2395833,7.44791667 C12.2395833,7.30409251 12.3561758,7.1875 12.5,7.1875 C12.6438242,7.1875 12.7604167,7.30409251 12.7604167,7.44791667 C12.7601873,7.59164569 12.643729,7.70810392 12.5,7.70833333 L12.5,7.70833333 Z" id="Shape" fill="#000000" fill-rule="nonzero"></path>
                        <path d="M17.1072917,12.5 C16.5607599,12.5 16.1177083,12.9430515 16.1177083,13.4895833 C16.1177083,14.0361151 16.5607599,14.4791667 17.1072917,14.4791667 C17.6538235,14.4791667 18.096875,14.0361151 18.096875,13.4895833 C18.0961863,12.9433371 17.6535379,12.5006887 17.1072917,12.5 L17.1072917,12.5 Z M17.1072917,13.75 C16.9634675,13.75 16.846875,13.6334075 16.846875,13.4895833 C16.846875,13.3457592 16.9634675,13.2291667 17.1072917,13.2291667 C17.2511158,13.2291667 17.3677083,13.3457592 17.3677083,13.4895833 C17.3674789,13.6333124 17.2510207,13.7497706 17.1072917,13.75 Z" id="Shape" fill="#000000" fill-rule="nonzero"></path>
                        <path d="M3.21708333,7.32645833 C2.67055155,7.32645833 2.2275,7.76950988 2.2275,8.31604167 C2.2275,8.86257345 2.67055155,9.305625 3.21708333,9.305625 C3.76361512,9.305625 4.20666667,8.86257345 4.20666667,8.31604167 C4.20609253,7.76974788 3.76337712,7.32703247 3.21708333,7.32645833 L3.21708333,7.32645833 Z M3.21708333,8.57645833 C3.11175462,8.57645833 3.01679726,8.51300985 2.97648971,8.41569881 C2.93618215,8.31838777 2.9584623,8.20637792 3.03294094,8.13189928 C3.10741959,8.05742063 3.21942944,8.03514049 3.31674048,8.07544804 C3.41405152,8.11575559 3.4775,8.21071296 3.4775,8.31604167 C3.47727058,8.45977069 3.36081235,8.57622892 3.21708333,8.57645833 L3.21708333,8.57645833 Z" id="Shape" fill="#000000" fill-rule="nonzero"></path>
                        <path d="M5.23104167,10.7985417 C4.68450988,10.7985417 4.24145833,11.2415932 4.24145833,11.788125 C4.24145833,12.3346568 4.68450988,12.7777083 5.23104167,12.7777083 C5.77757345,12.7777083 6.220625,12.3346568 6.220625,11.788125 C6.21993631,11.2418787 5.77728793,10.7992304 5.23104167,10.7985417 L5.23104167,10.7985417 Z M5.23104167,12.0485417 C5.08721751,12.0485417 4.970625,11.9319492 4.970625,11.788125 C4.970625,11.6443008 5.08721751,11.5277083 5.23104167,11.5277083 C5.37486582,11.5277083 5.49145833,11.6443008 5.49145833,11.788125 C5.49134345,11.9319015 5.37481821,12.0484268 5.23104167,12.0485417 L5.23104167,12.0485417 Z" id="Shape" fill="#000000" fill-rule="nonzero"></path>
                        <path d="M5.89833333,6.05541667 C5.78036653,5.89433426 5.55477885,5.85810125 5.39230194,5.97413988 C5.22982504,6.09017851 5.19090602,6.31531834 5.305,6.47916667 L5.81375,7.19104167 C5.88952008,7.29703046 6.01607886,7.35454529 6.14575289,7.34192087 C6.27542692,7.32929646 6.38851561,7.24845075 6.44241956,7.12983754 C6.49632351,7.01122433 6.48285341,6.87286379 6.40708333,6.766875 L5.89833333,6.05541667 Z" id="Path" fill="#000000" fill-rule="nonzero"></path>
                        <path d="M16.7083333,8.96208333 C16.7841034,9.06807213 16.9106622,9.12558695 17.0403362,9.11296254 C17.1700102,9.10033812 17.2830989,9.01949241 17.3370029,8.9008792 C17.3909068,8.782266 17.3774367,8.64390546 17.3016667,8.53791667 L16.8177083,7.86083333 C16.7419383,7.75484453 16.6153795,7.6973297 16.4857054,7.70995411 C16.3560314,7.72257853 16.2429427,7.80342424 16.1890388,7.92203745 C16.1351348,8.04065067 16.1486049,8.17901121 16.224375,8.285 L16.7083333,8.96208333 Z" id="Path" fill="#000000" fill-rule="nonzero"></path>
                        <path d="M7.67354167,13.6110417 C7.47218785,13.6110417 7.30895833,13.7742712 7.30895833,13.975625 L7.30895833,14.8785417 C7.30895833,15.0798955 7.47218785,15.243125 7.67354167,15.243125 C7.87489548,15.243125 8.038125,15.0798955 8.038125,14.8785417 L8.038125,13.975625 C8.038125,13.7742712 7.87489548,13.6110417 7.67354167,13.6110417 L7.67354167,13.6110417 Z" id="Path" fill="#000000" fill-rule="nonzero"></path>
                        <path d="M12.816875,11.2439583 L11.745625,11.6508333 C11.6237081,11.6970546 11.535711,11.8048066 11.5147813,11.9335004 C11.4938516,12.0621941 11.5431691,12.1922779 11.6441563,12.2747504 C11.7451435,12.3572229 11.8824581,12.3795546 12.004375,12.3333333 L13.075625,11.9264583 C13.2616426,11.8535222 13.3542992,11.6444515 13.2833926,11.4576509 C13.212486,11.2708503 13.0044365,11.175923 12.816875,11.2447917 L12.816875,11.2439583 Z" id="Path" fill="#000000" fill-rule="nonzero"></path>
                        <path d="M22.1322917,9.85708333 L21.30375,10.171875 C21.1818703,10.2180962 21.0939076,10.3258284 21.0729965,10.45449 C21.0520855,10.5831515 21.1014029,10.7131955 21.2023715,10.7956358 C21.3033401,10.8780761 21.4406203,10.9003879 21.5625,10.8541667 L22.39125,10.539375 C22.5794871,10.4678656 22.6741135,10.2572996 22.6026042,10.0690625 C22.5310948,9.88082545 22.3205287,9.78619896 22.1322917,9.85770833 L22.1322917,9.85708333 Z" id="Path" fill="#000000" fill-rule="nonzero"></path>
                    </g>
                </g>
            </g>
        </g>
    </g>
</svg>