<?xml version="1.0" encoding="UTF-8"?>
<svg width="14px" height="14px" viewBox="0 0 14 14" version="1.1" xmlns="http://www.w3.org/2000/svg" xmlns:xlink="http://www.w3.org/1999/xlink">
    <title>672EA768-6BA9-47F2-BD1F-04528C564B67</title>
    <g id="Welcome" stroke="none" stroke-width="1" fill="none" fill-rule="evenodd">
        <g id="Home-page-/-Profil_Connecté" transform="translate(-1193.000000, -273.000000)" fill="#4A4A4A">
            <g id="calendar-/-calendar-_1-copy" transform="translate(1193.000000, 273.000000)">
                <g id="Location" transform="translate(2.000833, 1.166667)">
                    <path d="M2.36110556,5 C2.36110556,3.54258333 3.54257778,2.36111111 5,2.36111111 C6.45738889,2.36111111 7.63888889,3.54258333 7.63888889,5 C7.63888889,6.45744444 6.45738889,7.63888889 5,7.63888889 C3.54257778,7.63888889 2.36110556,6.45744444 2.36110556,5 Z M5,3.19444444 C4.00283333,3.19444444 3.19443889,4.00281667 3.19443889,5 C3.19443889,5.99716667 4.00283333,6.80555556 5,6.80555556 C5.99716667,6.80555556 6.80555556,5.99716667 6.80555556,5 C6.80555556,4.00281667 5.99716667,3.19444444 5,3.19444444 Z" id="Shape"></path>
                    <path d="M0.291311111,4.36491667 C0.488161111,1.9768 2.4838,0.138888889 4.88,0.138888889 L5.12,0.138888889 C7.51622222,0.138888889 9.51183333,1.9768 9.70866667,4.36491667 C9.81444444,5.64777778 9.41816667,6.92161111 8.60333333,7.91811111 L5.94055556,11.1746667 C5.45444444,11.7691667 4.54555556,11.7691667 4.05944444,11.1746667 L1.39664444,7.91811111 C0.581833333,6.92161111 0.185566667,5.64777778 0.291311111,4.36491667 Z M4.88,0.972222222 C2.91749444,0.972222222 1.28304444,2.47748889 1.12182778,4.43337778 C1.03381667,5.50105556 1.36362222,6.56122222 2.04176667,7.39061111 L4.70455556,10.6471667 C4.85727778,10.8338889 5.14272222,10.8338889 5.29544444,10.6471667 L7.95822222,7.39061111 C8.63638889,6.56122222 8.96616667,5.50105556 8.87816667,4.43337778 C8.71694444,2.47748889 7.0825,0.972222222 5.12,0.972222222 L4.88,0.972222222 Z" id="Shape"></path>
                </g>
            </g>
        </g>
    </g>
</svg>