<?xml version="1.0" encoding="UTF-8"?>
<svg width="24px" height="24px" viewBox="0 0 24 24" version="1.1" xmlns="http://www.w3.org/2000/svg" xmlns:xlink="http://www.w3.org/1999/xlink">
    <title>2718F646-9187-4865-886C-31B630C1D1C6</title>
    <defs>
        <filter id="filter-1">
            <feColorMatrix in="SourceGraphic" type="matrix" values="0 0 0 0 0.290222 0 0 0 0 0.290175 0 0 0 0 0.290237 0 0 0 1.000000 0"></feColorMatrix>
        </filter>
    </defs>
    <g id="Welcome" stroke="none" stroke-width="1" fill="none" fill-rule="evenodd">
        <g id="Icons/Chariot" transform="translate(-89.000000, -506.000000)" filter="url(#filter-1)">
            <g transform="translate(89.000000, 506.000000)">
                <path d="M6.73102262,16.0120479 C6.8075227,15.8335477 7.01419479,15.750907 7.1926481,15.8274071 C7.37110142,15.9039072 7.453789,16.1105793 7.37728892,16.2890326 L7.37728892,16.2890326 L6.38424101,18.60616 C6.33033471,18.7319726 6.34266285,18.8695977 6.41799105,18.9838791 C6.49331925,19.0981136 6.61505375,19.1636449 6.75188202,19.1636449 L6.75188202,19.1636449 L21.3939129,19.1636449 C21.5880693,19.1636449 21.7454757,19.3210513 21.7454757,19.5152078 C21.7454757,19.7093642 21.5880693,19.8667707 21.3939129,19.8667707 L21.3939129,19.8667707 L20.6182246,19.8667707 L20.6182246,20.7092559 C21.264444,20.8674592 21.7454757,21.4512411 21.7454757,22.1455074 C21.7454757,22.9609458 21.0821,23.6243683 20.2666617,23.6243683 C19.4512234,23.6243683 18.7878477,22.9609458 18.7878477,22.1455074 C18.7878477,21.4512411 19.2688794,20.8674592 19.9150988,20.7092559 L19.9150988,20.7092559 L19.9150988,19.8667707 L7.84252378,19.8667707 L7.84252378,20.7092559 C8.4887432,20.8674592 8.96977495,21.4512411 8.96977495,22.1455074 C8.96977495,22.9609458 8.30639926,23.6243683 7.49096091,23.6243683 C6.67552257,23.6243683 6.01214688,22.9609458 6.01214688,22.1455074 C6.01214688,21.4512411 6.49317863,20.8674592 7.13939805,20.7092559 L7.13939805,20.7092559 L7.13939805,19.8667707 L6.75188202,19.8667707 C6.37992851,19.8667707 6.03567815,19.6813798 5.83097481,19.3709264 C5.62627148,19.0604261 5.59149019,18.6709882 5.73797472,18.3291284 L5.73797472,18.3291284 Z M7.49096091,21.3697722 C7.06322609,21.3697722 6.71527261,21.7177257 6.71527261,22.1454605 C6.71527261,22.5731953 7.06322609,22.9211957 7.49096091,22.9211957 C7.91869573,22.9211957 8.26664922,22.5731953 8.26664922,22.1454605 C8.26664922,21.7177726 7.91869573,21.3697722 7.49096091,21.3697722 Z M20.2666617,21.3697722 C19.8389269,21.3697722 19.4909734,21.7177257 19.4909734,22.1454605 C19.4909734,22.5731953 19.8389269,22.9211957 20.2666617,22.9211957 C20.6943965,22.9211957 21.04235,22.5731953 21.04235,22.1454605 C21.04235,21.7177726 20.6943965,21.3697722 20.2666617,21.3697722 Z M1.10306365,-1.50990331e-14 C1.3977202,-1.50990331e-14 1.67475174,0.114796994 1.88306446,0.323109711 L1.88306446,0.323109711 L3.94973848,2.38983061 C4.15326994,2.59336207 4.25925443,2.85740922 4.27012944,3.124597 L4.27012944,3.124597 L23.6802434,4.88630196 C23.7754466,4.89492697 23.8631029,4.94203639 23.9228686,5.01666147 C23.9826343,5.09133342 24.0094468,5.18709914 23.997025,5.28192737 L23.997025,5.28192737 L22.9886489,13.0129354 C22.8982738,13.7057486 22.3269607,14.2456086 21.6301631,14.2965617 L21.6301631,14.2965617 L8.34141492,15.2689378 C8.29472738,15.2723596 8.24818045,15.2740471 8.2020554,15.2740471 C7.38652331,15.2740471 6.66994444,14.7478278 6.43064731,13.955452 L6.43064731,13.955452 L3.49219113,4.22527002 C3.38901915,4.25662943 3.28064404,4.27289507 3.16978455,4.27289507 C2.87512799,4.27289507 2.59809645,4.15814495 2.38978374,3.94978536 L2.38978374,3.94978536 L0.323109711,1.88315821 C0.114750119,1.67479862 -1.59872116e-14,1.39781395 -1.59872116e-14,1.1031574 C-1.59872116e-14,0.808500841 0.114750119,0.531469303 0.323109711,0.323109711 C0.531422428,0.114796994 0.808407091,-1.50990331e-14 1.10306365,-1.50990331e-14 Z M9.10875947,11.530887 L6.45075671,11.5899496 L7.10372614,13.7521549 C7.26071068,14.2719055 7.74816431,14.6071558 8.29003987,14.5676401 L8.29003987,14.5676401 L9.65593192,14.4677494 L9.10875947,11.530887 Z M12.5326537,11.4547619 L9.82097896,11.5150432 L10.3614951,14.4160931 L12.7045913,14.2446242 L12.5326537,11.4547619 Z M15.9625947,11.3785431 L13.2362013,11.4391056 L13.4059358,14.193296 L15.8925165,14.0113739 L15.9625947,11.3785431 Z M19.4729734,11.300543 L16.6664236,11.3629337 L16.5972829,13.9598114 L19.2747388,13.7638737 L19.4729734,11.300543 Z M22.5117422,11.2329961 L20.1796147,11.2848399 L19.9843333,13.711983 L21.5788818,13.595311 C21.9443666,13.5685454 22.2440856,13.2853732 22.2914294,12.9219978 L22.2914294,12.9219978 L22.5117422,11.2329961 Z M5.23416169,7.56146099 L6.23977211,10.8913238 L8.97825934,10.83048 L8.39063373,7.67644548 L5.23416169,7.56146099 Z M9.11072822,7.70269551 L9.6905257,10.8146362 L12.4894349,10.7524331 L12.3086378,7.81918001 L9.11072822,7.70269551 Z M13.0147167,7.84491441 L13.1929356,10.7368237 L15.9813447,10.6748549 L16.0537198,7.9555864 L13.0147167,7.84491441 Z M16.7564237,7.98118017 L16.6851267,10.6591986 L19.5296453,10.596011 L19.7313486,8.08955529 L16.7564237,7.98118017 Z M20.4347087,8.11519594 L20.2363335,10.5803079 L22.6037579,10.5276672 L22.9067113,8.20524291 L20.4347087,8.11519594 Z M20.659709,5.31816178 L20.4910994,7.41361708 L22.9980239,7.50492968 L23.2525554,5.5535214 L20.659709,5.31816178 Z M16.8365331,4.97119267 L16.7751268,7.27828882 L19.7877862,7.38802331 L19.9594426,5.25464609 L16.8365331,4.97119267 Z M12.8150758,4.60617666 L12.9712166,7.1396793 L16.072423,7.25264817 L16.1348137,4.90748948 L12.8150758,4.60617666 Z M8.46014942,4.21092625 L8.97872809,6.9942729 L12.2651846,7.11399177 L12.1066532,4.5418641 L8.46014942,4.21092625 Z M4.10287927,3.81539459 L5.01928647,6.85003837 L8.25863359,6.96806975 L7.73264867,4.14487931 L4.10287927,3.81539459 Z M1.10306365,0.703172606 C0.996235411,0.703172606 0.895829057,0.744797649 0.820266478,0.820313353 C0.744703899,0.895875932 0.703125731,0.996376036 0.703125731,1.1031574 C0.703125731,1.20993876 0.744703899,1.31039199 0.820266478,1.38590769 L0.820266478,1.38590769 L2.8869405,3.45258172 C2.96250308,3.52814429 3.06290944,3.56972246 3.16973767,3.56972246 C3.27656591,3.56972246 3.37697226,3.52809742 3.45253484,3.45258172 C3.60848813,3.2966753 3.60848813,3.04294066 3.45253484,2.88698738 L3.45253484,2.88698738 L1.38586082,0.820313353 C1.31029824,0.744797649 1.20989188,0.703172606 1.10306365,0.703172606 Z" id="Combined-Shape" fill="#000000" fill-rule="nonzero"></path>
            </g>
        </g>
    </g>
</svg>