<?xml version="1.0" encoding="UTF-8"?>
<svg width="18px" height="19px" viewBox="0 0 18 19" version="1.1" xmlns="http://www.w3.org/2000/svg" xmlns:xlink="http://www.w3.org/1999/xlink">
    <title>13EAAC2D-92C2-4A4E-A357-1C42919F6046</title>
    <defs>
        <filter id="filter-1">
            <feColorMatrix in="SourceGraphic" type="matrix" values="0 0 0 0 1.000000 0 0 0 0 1.000000 0 0 0 0 1.000000 0 0 0 1.000000 0"></feColorMatrix>
        </filter>
    </defs>
    <g id="Welcome" stroke="none" stroke-width="1" fill="none" fill-rule="evenodd">
        <g id="Icons/Chariot" transform="translate(-356.000000, -637.000000)" filter="url(#filter-1)">
            <g transform="translate(356.000000, 637.500000)">
                <path d="M5.04826697,12.0090359 C5.10564203,11.8751608 5.2606461,11.8131803 5.39448608,11.8705553 C5.52832606,11.9279304 5.59034175,12.0829344 5.53296669,12.2167744 L5.53296669,12.2167744 L4.78818076,13.95462 C4.74775103,14.0489795 4.75699713,14.1521983 4.81349329,14.2379093 C4.86998944,14.3235852 4.96129032,14.3727337 5.06391152,14.3727337 L5.06391152,14.3727337 L16.0454347,14.3727337 C16.191052,14.3727337 16.3091068,14.4907885 16.3091068,14.6364058 C16.3091068,14.7820232 16.191052,14.900078 16.0454347,14.900078 L16.0454347,14.900078 L15.4636684,14.900078 L15.4636684,15.5319419 C15.948333,15.6505944 16.3091068,16.0884308 16.3091068,16.6091306 C16.3091068,17.2207093 15.811575,17.7182762 15.1999963,17.7182762 C14.5884175,17.7182762 14.0908857,17.2207093 14.0908857,16.6091306 C14.0908857,16.0884308 14.4516596,15.6505944 14.9363241,15.5319419 L14.9363241,15.5319419 L14.9363241,14.900078 L5.88189284,14.900078 L5.88189284,15.5319419 C6.3665574,15.6505944 6.72733121,16.0884308 6.72733121,16.6091306 C6.72733121,17.2207093 6.22979945,17.7182762 5.61822069,17.7182762 C5.00664193,17.7182762 4.50911016,17.2207093 4.50911016,16.6091306 C4.50911016,16.0884308 4.86988397,15.6505944 5.35454854,15.5319419 L5.35454854,15.5319419 L5.35454854,14.900078 L5.06391152,14.900078 C4.78494638,14.900078 4.52675861,14.7610349 4.37323111,14.5281948 C4.21970361,14.2953196 4.19361764,14.0032411 4.30348104,13.7468463 L4.30348104,13.7468463 Z M5.61822069,16.0273292 C5.29741957,16.0273292 5.03645446,16.2882943 5.03645446,16.6090954 C5.03645446,16.9298965 5.29741957,17.1908968 5.61822069,17.1908968 C5.9390218,17.1908968 6.19998692,16.9298965 6.19998692,16.6090954 C6.19998692,16.2883294 5.9390218,16.0273292 5.61822069,16.0273292 Z M15.1999963,16.0273292 C14.8791952,16.0273292 14.61823,16.2882943 14.61823,16.6090954 C14.61823,16.9298965 14.8791952,17.1908968 15.1999963,17.1908968 C15.5207974,17.1908968 15.7817625,16.9298965 15.7817625,16.6090954 C15.7817625,16.2883294 15.5207974,16.0273292 15.1999963,16.0273292 Z M0.827297735,-1.15463195e-14 C1.04829015,-1.15463195e-14 1.25606381,0.0860977458 1.41229834,0.242332283 L1.41229834,0.242332283 L2.96230386,1.79237296 C3.11495246,1.94502155 3.19444082,2.14305692 3.20259708,2.34344775 L3.20259708,2.34344775 L17.7601825,3.66472647 C17.8315849,3.67119522 17.8973272,3.70652729 17.9421515,3.7624961 C17.9869757,3.81850006 18.0070851,3.89032436 17.9977687,3.96144553 L17.9977687,3.96144553 L17.2414867,9.75970156 C17.1737054,10.2793115 16.7452205,10.6842064 16.2226223,10.7224213 L16.2226223,10.7224213 L6.25606119,11.4517033 C6.22104553,11.4542697 6.18613534,11.4555353 6.15154155,11.4555353 C5.53989248,11.4555353 5.00245833,11.0608709 4.82298548,10.466589 L4.82298548,10.466589 L2.61914335,3.16895251 C2.54176436,3.19247207 2.46048303,3.2046713 2.37733841,3.2046713 C2.15634599,3.2046713 1.94857234,3.11860871 1.7923378,2.96233902 L1.7923378,2.96233902 L0.242332283,1.41236866 C0.0860625895,1.25609896 -1.24344979e-14,1.04836047 -1.24344979e-14,0.827368048 C-1.24344979e-14,0.606375631 0.0860625895,0.398601977 0.242332283,0.242332283 C0.398566821,0.0860977458 0.606305318,-1.15463195e-14 0.827297735,-1.15463195e-14 Z M6.8315696,8.64816524 L4.83806753,8.69246216 L5.3277946,10.3141162 C5.44553301,10.7039291 5.81112323,10.9553669 6.2175299,10.9257301 L6.2175299,10.9257301 L7.24194894,10.8508121 L6.8315696,8.64816524 Z M9.39949024,8.59107143 L7.36573422,8.63628242 L7.77112136,10.8120698 L9.5284435,10.6834681 L9.39949024,8.59107143 Z M11.971946,8.53390731 L9.92715095,8.57932923 L10.0544519,10.644972 L11.9193874,10.5085305 L11.971946,8.53390731 Z M14.60473,8.47540725 L12.4998177,8.52220027 L12.4479622,10.4698585 L14.4560541,10.3229053 L14.60473,8.47540725 Z M16.8838066,8.42474704 L15.1347111,8.46362989 L14.98825,10.2839873 L16.1841614,10.1964833 C16.4582749,10.176409 16.6830642,9.96402989 16.7185721,9.69149836 L16.7185721,9.69149836 L16.8838066,8.42474704 Z M3.92562127,5.67109574 L4.67982909,8.16849287 L6.7336945,8.12286001 L6.29297529,5.75733411 L3.92562127,5.67109574 Z M6.83304617,5.77702163 L7.26789428,8.11097718 L9.36707615,8.06432479 L9.23147835,5.864385 L6.83304617,5.77702163 Z M9.76103749,5.88368581 L9.8947017,8.05261775 L11.9860086,8.00614114 L12.0402899,5.9666898 L9.76103749,5.88368581 Z M12.5673178,5.98588513 L12.513845,7.99439894 L14.647234,7.94700826 L14.7985115,6.06716647 L12.5673178,5.98588513 Z M15.3260316,6.08639695 L15.1772502,7.93523091 L16.9528184,7.8957504 L17.1800335,6.15393218 L15.3260316,6.08639695 Z M15.4947817,3.98862134 L15.3683246,5.56021281 L17.2485179,5.62869726 L17.4394166,4.16514105 L15.4947817,3.98862134 Z M12.6273998,3.7283945 L12.5813451,5.45871661 L14.8408397,5.54101748 L14.969582,3.94098457 L12.6273998,3.7283945 Z M9.61130687,3.4546325 L9.72841246,5.35475947 L12.0543172,5.43948613 L12.1011102,3.68061711 L9.61130687,3.4546325 Z M6.34511207,3.15819469 L6.73404607,5.24570467 L9.19888847,5.33549383 L9.07998991,3.40639807 L6.34511207,3.15819469 Z M3.07715945,2.86154594 L3.76446485,5.13752878 L6.19397519,5.22605231 L5.7994865,3.10865948 L3.07715945,2.86154594 Z M0.827297735,0.527379455 C0.747176558,0.527379455 0.671871792,0.558598237 0.615199858,0.615235015 C0.558527925,0.671906949 0.527344298,0.747282027 0.527344298,0.827368048 C0.527344298,0.907454069 0.558527925,0.982793991 0.615199858,1.03943077 L0.615199858,1.03943077 L2.16520538,2.58943629 C2.22187731,2.64610822 2.29718208,2.67729185 2.37730325,2.67729185 C2.45742443,2.67729185 2.5327292,2.64607306 2.58940113,2.58943629 C2.7063661,2.47250648 2.7063661,2.2822055 2.58940113,2.16524053 L2.58940113,2.16524053 L1.03939561,0.615235015 C0.982723678,0.558598237 0.907418912,0.527379455 0.827297735,0.527379455 Z" id="Combined-Shape" fill="#000000" fill-rule="nonzero"></path>
            </g>
        </g>
    </g>
</svg>