<svg id="Capa_1" enable-background="new 0 0 511.976 511.976" height="512" viewBox="0 0 511.976 511.976" width="512" xmlns="http://www.w3.org/2000/svg"><g><path d="m497.178 65.152c-9.808-9.808-22.673-14.74-35.556-14.798-.058-12.883-4.99-25.748-14.798-35.556-19.73-19.731-51.836-19.731-71.566 0-16.04 16.04-19.041 40.256-9.002 59.355l-69.886 69.887c-10.824-3.468-22.237-5.275-33.93-5.275-29.588 0-57.406 11.522-78.328 32.444l-24.75 24.75c-42.212-.309-83.121 16.309-113.081 46.27-29.844 29.844-46.281 69.526-46.281 111.733s16.437 81.888 46.282 111.733 69.526 46.282 111.733 46.282 81.888-16.437 111.733-46.281c29.962-29.962 46.613-70.847 46.27-113.081l24.75-24.75c20.922-20.922 32.444-48.739 32.444-78.328 0-11.693-1.807-23.107-5.275-33.93l69.885-69.885c19.099 10.039 43.316 7.038 59.355-9.002 19.732-19.732 19.732-51.837.001-71.568zm-177.624 241.499-34.042 34.041.342 6.66c1.856 36.154-11.746 71.556-37.32 97.129-24.179 24.179-56.326 37.495-90.52 37.495s-66.341-13.316-90.52-37.495-37.494-56.325-37.494-90.519 13.316-66.341 37.495-90.52c24.028-24.028 56.73-37.488 90.583-37.488 2.177 0 4.362.056 6.546.168l6.66.342 34.041-34.042c15.256-15.256 35.54-23.657 57.115-23.657s41.858 8.401 57.114 23.657 23.657 35.54 23.657 57.114c.001 21.576-8.401 41.859-23.657 57.115zm156.411-191.145c-8.034 8.033-21.106 8.033-29.141 0l-10.606-10.607-82.23 82.231c-3.866-5.645-8.277-10.977-13.22-15.92s-10.275-9.354-15.92-13.22l82.231-82.23-10.607-10.606c-8.034-8.034-8.034-21.106 0-29.141 8.034-8.034 21.106-8.034 29.141 0 8.034 8.034 8.034 21.106 0 29.141l21.213 21.213c8.034-8.034 21.106-8.034 29.141 0 8.032 8.032 8.032 21.104-.002 29.139z"/><path d="m180.27 278.476h30v30h-30z"/><path d="m138.383 388.96h30v30h-30z"/></g></svg>