<?xml version="1.0" encoding="UTF-8"?>
<svg width="42px" height="42px" viewBox="0 0 42 42" version="1.1" xmlns="http://www.w3.org/2000/svg" xmlns:xlink="http://www.w3.org/1999/xlink">
    <title>5F4675A4-F56C-4086-B32E-1B6875F9CC58</title>
    <defs>
        <filter id="filter-1">
            <feColorMatrix in="SourceGraphic" type="matrix" values="0 0 0 0 0.098039 0 0 0 0 0.098039 0 0 0 0 0.439216 0 0 0 1.000000 0"></feColorMatrix>
        </filter>
    </defs>
    <g id="Welcome" stroke="none" stroke-width="1" fill="none" fill-rule="evenodd">
        <g id="Asset-4--Icones" transform="translate(-385.000000, -426.000000)">
            <g id="Sous-Catégories/Coin-cuisine" transform="translate(385.000000, 426.000000)">
                <rect id="Rectangle-Copy-12" fill="#FFFFFF" x="0" y="0" width="42" height="42" rx="21"></rect>
                <g filter="url(#filter-1)" id="12-oven">
                    <g transform="translate(10.000000, 8.500000)">
                        <path d="M20.8214286,0 L1.17857143,0 C0.527664402,0 0,0.524666309 0,1.171875 L0,23.828125 C0,24.4753337 0.527664402,25 1.17857143,25 L20.8214286,25 C21.4723356,25 22,24.4753337 22,23.828125 L22,1.171875 C22,0.524666309 21.4723356,0 20.8214286,0 Z M0.785714286,1.171875 C0.785714286,0.95613877 0.96160242,0.78125 1.17857143,0.78125 L20.8214286,0.78125 C21.0383976,0.78125 21.2142857,0.95613877 21.2142857,1.171875 L21.2142857,4.6875 L0.785714286,4.6875 L0.785714286,1.171875 Z M20.8214286,24.21875 L1.17857143,24.21875 C0.96160242,24.21875 0.785714286,24.0438612 0.785714286,23.828125 L0.785714286,5.46875 L21.2142857,5.46875 L21.2142857,23.828125 C21.2142857,24.0438612 21.0383976,24.21875 20.8214286,24.21875 Z" id="Shape" fill="#000000" fill-rule="nonzero"></path>
                        <path d="M19.25,6.25 L2.75,6.25 C2.09909297,6.25 1.57142857,6.77466631 1.57142857,7.421875 C1.57142857,8.06908369 2.09909297,8.59375 2.75,8.59375 L19.25,8.59375 C19.900907,8.59375 20.4285714,8.06908369 20.4285714,7.421875 C20.4285714,6.77466631 19.900907,6.25 19.25,6.25 Z M19.25,7.8125 L2.75,7.8125 C2.53303099,7.8125 2.35714286,7.63761123 2.35714286,7.421875 C2.35714286,7.20613877 2.53303099,7.03125 2.75,7.03125 L19.25,7.03125 C19.466969,7.03125 19.6428571,7.20613877 19.6428571,7.421875 C19.6428571,7.63761123 19.466969,7.8125 19.25,7.8125 Z" id="Shape" fill="#000000" fill-rule="nonzero"></path>
                        <path d="M13.3571429,1.171875 L8.64285714,1.171875 C8.42588813,1.171875 8.25,1.34676377 8.25,1.5625 L8.25,3.90625 C8.25,4.12198623 8.42588813,4.296875 8.64285714,4.296875 L13.3571429,4.296875 C13.5741119,4.296875 13.75,4.12198623 13.75,3.90625 L13.75,1.5625 C13.75,1.34676377 13.5741119,1.171875 13.3571429,1.171875 Z M12.9642857,3.515625 L9.03571429,3.515625 L9.03571429,1.953125 L12.9642857,1.953125 L12.9642857,3.515625 Z" id="Shape" fill="#000000" fill-rule="nonzero"></path>
                        <path d="M2.75,1.171875 C1.88212396,1.171875 1.17857143,1.87143008 1.17857143,2.734375 C1.17857143,3.59731992 1.88212396,4.296875 2.75,4.296875 C3.61787604,4.296875 4.32142857,3.59731992 4.32142857,2.734375 C4.32142857,2.31997423 4.15586782,1.92254625 3.8611678,1.62952065 C3.56646778,1.33649506 3.16676877,1.171875 2.75,1.171875 Z M2.75,3.515625 C2.31606198,3.515625 1.96428571,3.16584746 1.96428571,2.734375 C1.96428571,2.30290254 2.31606198,1.953125 2.75,1.953125 C3.18393802,1.953125 3.53571429,2.30290254 3.53571429,2.734375 C3.53571429,2.94157538 3.45293391,3.14028938 3.3055839,3.28680217 C3.15823389,3.43331497 2.95838438,3.515625 2.75,3.515625 Z" id="Shape" fill="#000000" fill-rule="nonzero"></path>
                        <path d="M6.28571429,1.171875 C5.41783825,1.171875 4.71428571,1.87143008 4.71428571,2.734375 C4.71428571,3.59731992 5.41783825,4.296875 6.28571429,4.296875 C7.15359032,4.296875 7.85714286,3.59731992 7.85714286,2.734375 C7.85714286,2.31997423 7.69158211,1.92254625 7.39688208,1.62952065 C7.10218206,1.33649506 6.70248306,1.171875 6.28571429,1.171875 Z M6.28571429,3.515625 C5.85177627,3.515625 5.5,3.16584746 5.5,2.734375 C5.5,2.30290254 5.85177627,1.953125 6.28571429,1.953125 C6.7196523,1.953125 7.07142857,2.30290254 7.07142857,2.734375 C7.07142857,2.94157538 6.9886482,3.14028938 6.84129819,3.28680217 C6.69394817,3.43331497 6.49409867,3.515625 6.28571429,3.515625 Z" id="Shape" fill="#000000" fill-rule="nonzero"></path>
                        <path d="M19.25,1.171875 C18.382124,1.171875 17.6785714,1.87143008 17.6785714,2.734375 C17.6785714,3.59731992 18.382124,4.296875 19.25,4.296875 C20.117876,4.296875 20.8214286,3.59731992 20.8214286,2.734375 C20.8214286,2.31997423 20.6558678,1.92254625 20.3611678,1.62952065 C20.0664678,1.33649506 19.6667688,1.171875 19.25,1.171875 Z M19.25,3.515625 C18.816062,3.515625 18.4642857,3.16584746 18.4642857,2.734375 C18.4642857,2.30290254 18.816062,1.953125 19.25,1.953125 C19.683938,1.953125 20.0357143,2.30290254 20.0357143,2.734375 C20.0357143,2.94157538 19.9529339,3.14028938 19.8055839,3.28680217 C19.6582339,3.43331497 19.4583844,3.515625 19.25,3.515625 Z" id="Shape" fill="#000000" fill-rule="nonzero"></path>
                        <path d="M15.7142857,1.171875 C14.8464097,1.171875 14.1428571,1.87143008 14.1428571,2.734375 C14.1428571,3.59731992 14.8464097,4.296875 15.7142857,4.296875 C16.5821617,4.296875 17.2857143,3.59731992 17.2857143,2.734375 C17.2857143,2.31997423 17.1201535,1.92254625 16.8254535,1.62952065 C16.5307535,1.33649506 16.1310545,1.171875 15.7142857,1.171875 Z M15.7142857,3.515625 C15.2803477,3.515625 14.9285714,3.16584746 14.9285714,2.734375 C14.9285714,2.30290254 15.2803477,1.953125 15.7142857,1.953125 C16.1482237,1.953125 16.5,2.30290254 16.5,2.734375 C16.5,2.94157538 16.4172196,3.14028938 16.2698696,3.28680217 C16.1225196,3.43331497 15.9226701,3.515625 15.7142857,3.515625 Z" id="Shape" fill="#000000" fill-rule="nonzero"></path>
                        <path d="M19.25,9.375 L17.6785714,9.375 C17.4616024,9.375 17.2857143,9.54988877 17.2857143,9.765625 C17.2857143,9.98136123 17.4616024,10.15625 17.6785714,10.15625 L19.25,10.15625 C19.466969,10.15625 19.6428571,10.3311388 19.6428571,10.546875 L19.6428571,20.703125 C19.6428571,20.9188612 19.466969,21.09375 19.25,21.09375 L2.75,21.09375 C2.53303099,21.09375 2.35714286,20.9188612 2.35714286,20.703125 L2.35714286,10.546875 C2.35714286,10.3311388 2.53303099,10.15625 2.75,10.15625 L16.1071429,10.15625 C16.3241119,10.15625 16.5,9.98136123 16.5,9.765625 C16.5,9.54988877 16.3241119,9.375 16.1071429,9.375 L2.75,9.375 C2.09909297,9.375 1.57142857,9.89966631 1.57142857,10.546875 L1.57142857,20.703125 C1.57142857,21.3503337 2.09909297,21.875 2.75,21.875 L19.25,21.875 C19.900907,21.875 20.4285714,21.3503337 20.4285714,20.703125 L20.4285714,10.546875 C20.4285714,9.89966631 19.900907,9.375 19.25,9.375 Z" id="Path" fill="#000000" fill-rule="nonzero"></path>
                        <path d="M7.97225,15.7394531 L4.04367857,19.6457031 C3.94155277,19.7437791 3.90059505,19.8890148 3.93654755,20.0255888 C3.97250004,20.1621628 4.0797677,20.268821 4.21712212,20.3045692 C4.35447654,20.3403174 4.50054217,20.2995924 4.59917857,20.1980469 L8.52775,16.2917969 C8.67663194,16.1385239 8.67450272,15.8948888 8.52296444,15.7442115 C8.37142616,15.5935342 8.12639885,15.5914171 7.97225,15.7394531 L7.97225,15.7394531 Z" id="Path" fill="#000000" fill-rule="nonzero"></path>
                        <path d="M11.6706071,13.1667969 C11.8194891,13.0135239 11.8173599,12.7698888 11.6658216,12.6192115 C11.5142833,12.4685342 11.269256,12.4664171 11.1151071,12.6144531 L9.15082143,14.5675781 C9.04869563,14.6656541 9.00773791,14.8108898 9.0436904,14.9474638 C9.0796429,15.0840378 9.18691056,15.190696 9.32426498,15.2264442 C9.4616194,15.2621924 9.60768503,15.2214674 9.70632143,15.1199219 L11.6706071,13.1667969 Z" id="Path" fill="#000000" fill-rule="nonzero"></path>
                        <path d="M14.6508214,14.3386719 C14.8042321,14.4911648 15.0529108,14.4911648 15.2063214,14.3386719 L17.9563214,11.6042969 C18.1052034,11.4510239 18.1030741,11.2073888 17.9515359,11.0567115 C17.7999976,10.9060342 17.5549703,10.9039171 17.4008214,11.0519531 L14.6508214,13.7863281 C14.4974571,13.9388671 14.4974571,14.1861329 14.6508214,14.3386719 Z" id="Path" fill="#000000" fill-rule="nonzero"></path>
                        <path d="M9.82142857,19.53125 C9.92561225,19.53125 10.0255207,19.4900583 10.0991786,19.4167969 L13.2420357,16.2917969 C13.3909177,16.1385239 13.3887884,15.8948888 13.2372502,15.7442115 C13.0857119,15.5935342 12.8406846,15.5914171 12.6865357,15.7394531 L9.54367857,18.8644531 C9.4313576,18.9761696 9.39776282,19.1441549 9.45855508,19.2900994 C9.51934734,19.4360439 9.66255875,19.53125 9.82142857,19.53125 Z" id="Path" fill="#000000" fill-rule="nonzero"></path>
                    </g>
                </g>
            </g>
        </g>
    </g>
</svg>