<?xml version="1.0" encoding="UTF-8"?>
<svg width="18px" height="17px" viewBox="0 0 18 17" version="1.1" xmlns="http://www.w3.org/2000/svg" xmlns:xlink="http://www.w3.org/1999/xlink">
    <title>A0353CE3-73D2-46B7-BDC1-0B1C7BBB7E1B</title>
    <defs>
        <filter id="filter-1">
            <feColorMatrix in="SourceGraphic" type="matrix" values="0 0 0 0 0.098039 0 0 0 0 0.098039 0 0 0 0 0.439216 0 0 0 1.000000 0"></feColorMatrix>
        </filter>
    </defs>
    <g id="Welcome" stroke="none" stroke-width="1" fill="none" fill-rule="evenodd">
        <g id="Home-page-/-Récapitulatif_Produits-/-Modification_Produits" transform="translate(-622.000000, -446.000000)">
            <g id="controle-de-qualite" transform="translate(612.500000, 401.000000)" filter="url(#filter-1)">
                <g transform="translate(10.000000, 45.000000)">
                    <path d="M14.5103965,2.48957031 C12.904959,0.884166016 10.7704297,0 8.5,0 C6.22957031,0 4.09504102,0.884166016 2.48960352,2.48957031 C0.884132812,4.09504102 0,6.22957031 0,8.5 C0,10.7295566 0.85690625,12.8365273 2.4129375,14.4327676 C2.50889453,14.5312148 2.66657617,14.5332734 2.76505664,14.43725 C2.86353711,14.3412598 2.8655293,14.1836113 2.76953906,14.0851309 C1.30475,12.5824238 0.498013672,10.5989355 0.498013672,8.5 C0.498013672,6.36258203 1.33038281,4.35312891 2.84175586,2.84172266 C4.35312891,1.33034961 6.36261523,0.498013672 8.5,0.498013672 C10.6373848,0.498013672 12.6468711,1.33034961 14.1582441,2.84172266 C15.6696172,4.3530957 16.5019863,6.36258203 16.5019863,8.5 C16.5019863,10.637418 15.6696172,12.6468711 14.1582441,14.1582773 C12.6468711,15.6696504 10.6373848,16.5019863 8.5,16.5019863 C6.7096543,16.5019863 5.01705859,15.9240859 3.60516211,14.8307734 C3.49642188,14.7465703 3.34000195,14.7664258 3.25583203,14.8751992 C3.17162891,14.9839395 3.19151758,15.1403262 3.30025781,15.2245293 C4.80020898,16.386041 6.59825781,17 8.5,17 C10.7704297,17 12.904959,16.115834 14.5103965,14.5104297 C16.1158672,12.904959 17,10.7704297 17,8.5 C17,6.22957031 16.1158672,4.09504102 14.5103965,2.48957031 Z" id="Path" fill="#000000" fill-rule="nonzero"></path>
                    <path d="M2.6658457,8.5 C2.6658457,11.7169512 5.28304883,14.3341543 8.5,14.3341543 C11.7169512,14.3341543 14.3341543,11.7169512 14.3341543,8.5 C14.3341543,7.58535352 14.1219199,6.71958203 13.7450977,5.94830664 L13.9089883,5.76163867 C14.3941523,5.21003516 14.3401641,4.36650977 13.7885273,3.8812793 C13.2853008,3.43864844 12.5391934,3.44505664 12.0436367,3.8685957 C11.0605918,3.11461914 9.83177734,2.6658457 8.5,2.6658457 C5.28304883,2.6658457 2.6658457,5.28304883 2.6658457,8.5 Z M8.5,3.16389258 C9.70108984,3.16389258 10.8104395,3.56316016 11.7031719,4.23542383 L10.3732539,5.75088086 C10.282543,5.85424219 10.2927695,6.01155859 10.3961309,6.10226953 C10.4995586,6.19298047 10.6568418,6.1827207 10.7475195,6.07935937 L12.2821348,4.33068359 C12.5859434,3.98523828 13.1141719,3.9514707 13.459584,4.25524609 C13.8049961,4.55908789 13.8387969,5.0872832 13.5348223,5.43289453 L8.70546094,10.9338887 C8.54714844,11.113916 8.31881055,11.2171445 8.07908398,11.2171445 L8.07370508,11.2171445 C7.83191992,11.2156172 7.60298438,11.1094336 7.44560156,10.9258203 L5.27577734,8.39434766 C5.13074609,8.22517773 5.06032227,8.00962305 5.07742188,7.78742773 C5.09452148,7.56523242 5.19708594,7.36299219 5.36635547,7.21796094 C5.53549219,7.07296289 5.75091406,7.00240625 5.97320898,7.01960547 C6.1954043,7.03670508 6.39764453,7.13930273 6.54267578,7.30850586 L7.90055078,8.89272656 C7.9475332,8.94754492 8.01599805,8.97925391 8.08814844,8.97968555 C8.16175977,8.97955273 8.22916211,8.94920508 8.27674219,8.89491797 L9.98315039,6.95044336 C10.0738613,6.84708203 10.0636348,6.68976563 9.96027344,6.59905469 C9.85687891,6.50834375 9.6995957,6.51860352 9.60888477,6.62196484 L8.09183398,8.35061914 L6.92079297,6.98437695 C6.68920117,6.71420313 6.36623438,6.5503457 6.01142578,6.52305273 C5.65665039,6.49579297 5.31233398,6.60825195 5.04219336,6.83987695 C4.77198633,7.07146875 4.60816211,7.39443555 4.58083594,7.74924414 C4.55354297,8.10408594 4.66603516,8.44826953 4.89766016,8.71847656 L7.06748438,11.2499492 C7.31879883,11.5431328 7.68439844,11.7127012 8.07038477,11.7151914 L8.07908398,11.7151914 C8.46194922,11.7151914 8.82655273,11.5503047 9.07956055,11.262666 L13.3865371,6.35673828 C13.6755371,7.01303125 13.8361074,7.73812109 13.8361074,8.5000332 C13.8361074,11.4423613 11.4423613,13.8361406 8.5,13.8361406 C5.55763867,13.8361406 3.16389258,11.4423281 3.16389258,8.5 C3.16389258,5.55767188 5.55763867,3.16389258 8.5,3.16389258 L8.5,3.16389258 Z" id="Shape" fill="#000000" fill-rule="nonzero"></path>
                    <circle id="Oval" fill="#000000" fill-rule="nonzero" cx="8.5" cy="1.67722266" r="1"></circle>
                    <circle id="Oval" fill="#000000" fill-rule="nonzero" cx="8.5" cy="15.3227773" r="1"></circle>
                    <path d="M5.21312305,2.80692578 C5.33222266,2.73816211 5.3730293,2.58589258 5.30426562,2.46675977 C5.23550195,2.34766016 5.08323242,2.30685352 4.96413281,2.37561719 C4.8450332,2.44438086 4.80422656,2.59665039 4.87299023,2.7157832 C4.9417207,2.83488281 5.09402344,2.87568945 5.21312305,2.80692578 Z" id="Path" fill="#000000" fill-rule="nonzero"></path>
                    <path d="M11.786877,14.1930742 C11.6677773,14.2618379 11.6269707,14.4141074 11.6957344,14.5332402 C11.764498,14.6523398 11.9167676,14.6931465 12.0358672,14.6243828 C12.1549668,14.5556191 12.1957734,14.4033496 12.1270098,14.2842168 C12.0582793,14.1651172 11.9059766,14.1243105 11.786877,14.1930742 L11.786877,14.1930742 Z" id="Path" fill="#000000" fill-rule="nonzero"></path>
                    <path d="M2.7157832,4.87295703 C2.59668359,4.80419336 2.44438086,4.845 2.37561719,4.96409961 C2.30685352,5.08319922 2.34766016,5.23550195 2.46675977,5.30423242 C2.58585938,5.37299609 2.73816211,5.33218945 2.80692578,5.21308984 C2.87568945,5.09399023 2.83488281,4.9417207 2.7157832,4.87295703 Z" id="Path" fill="#000000" fill-rule="nonzero"></path>
                    <path d="M14.2842168,12.127043 C14.4033164,12.1958066 14.5556191,12.155 14.6243828,12.0359004 C14.6931465,11.9168008 14.6523398,11.764498 14.5332402,11.6957676 C14.4141406,11.6270039 14.2618379,11.6678105 14.1930742,11.7869102 C14.1243105,11.9060098 14.1651172,12.0582793 14.2842168,12.127043 L14.2842168,12.127043 Z" id="Path" fill="#000000" fill-rule="nonzero"></path>
                    <path d="M1.42819922,8.5 C1.42819922,8.63752734 1.53969531,8.74902344 1.67722266,8.74902344 C1.81475,8.74902344 1.92624609,8.63752734 1.92624609,8.5 C1.92624609,8.36247266 1.81475,8.25097656 1.67722266,8.25097656 C1.53969531,8.25097656 1.42819922,8.36247266 1.42819922,8.5 Z" id="Path" fill="#000000" fill-rule="nonzero"></path>
                    <circle id="Oval" fill="#000000" fill-rule="nonzero" cx="15.3227773" cy="8.5" r="1"></circle>
                    <path d="M2.37565039,12.0359004 C2.44441406,12.155 2.5967168,12.1958066 2.71581641,12.127043 C2.83491602,12.0582793 2.87572266,11.9059766 2.80695898,11.786877 C2.73819531,11.6677773 2.58589258,11.6269707 2.46679297,11.6957344 C2.34769336,11.764498 2.30688672,11.9168008 2.37565039,12.0359004 Z" id="Path" fill="#000000" fill-rule="nonzero"></path>
                    <path d="M4.87295703,14.2842168 C4.80419336,14.4033164 4.845,14.5556191 4.96409961,14.6243828 C5.08319922,14.6931465 5.23550195,14.6523398 5.30423242,14.5332402 C5.37299609,14.4141406 5.33218945,14.2618379 5.21308984,14.1930742 C5.09399023,14.1243105 4.9417207,14.1651172 4.87295703,14.2842168 Z" id="Path" fill="#000000" fill-rule="nonzero"></path>
                    <path d="M12.127043,2.7157832 C12.1958066,2.59668359 12.155,2.44438086 12.0359004,2.37561719 C11.9168008,2.30685352 11.764498,2.34766016 11.6957676,2.46675977 C11.6270039,2.58585938 11.6678105,2.73816211 11.7869102,2.80692578 C11.9060098,2.87568945 12.0582793,2.83488281 12.127043,2.7157832 L12.127043,2.7157832 Z" id="Path" fill="#000000" fill-rule="nonzero"></path>
                </g>
            </g>
        </g>
    </g>
</svg>