<svg height="512pt" viewBox="0 -76 512.00136 512" width="512pt" xmlns="http://www.w3.org/2000/svg"><path d="m489.082031 238.589844c-12.769531-5.222656-26.640625-4.484375-39.019531-3.644532 1.558594-17.105468-3.414062-35.425781-8.703125-52.152343-10.140625-32.082031-20.625-65.253907-37.5625-95.355469-13.21875-23.484375-29.148437-42.578125-47.355469-56.742188-17.960937-13.972656-33.421875-19.054687-55.671875-23.539062-18.773437-3.78125-34.332031-5.9375-48.957031-6.773438-33.265625-1.902343-62.3125 3.296876-86.347656 15.453126-25.949219 13.121093-49.269532 36.441406-67.4375 67.441406-16.117188 27.492187-26.804688 57.769531-37.140625 87.046875-6.214844 17.597656-12.125 36.917969-10.644531 55.015625-9.128907-2.828125-20.195313-5.949219-31.105469-3.066406-7.066407 1.867187-13.511719 7.054687-16.8125 13.535156-2.652344 5.210937-3.050781 10.828125-1.113281 15.824218 2.429687 6.257813 8.375 11.234376 16.316406 13.644532 6.496094 1.976562 13.078125 2.121094 19.441406 2.257812 4.792969.105469 9.320312.207032 13.65625 1.050782 5.664062 1.105468 11.214844 4.699218 13.816406 8.941406 1.453125 2.367187 1.855469 4.726562 1.203125 7.011718-1.59375 5.585938-8.601562 8.574219-16.019531 11.738282-9.390625 4.003906-20.035156 8.542968-21.1875 20.144531-.699219 7.042969 3.308594 14.496094 10.214844 18.992187 5.363281 3.488282 11.292968 4.890626 17.933594 6.234376 60.386718 12.257812 122.105468 18.449218 183.742187 18.449218 5.972656 0 11.945313-.058594 17.914063-.175781 5.328124-.105469 11.964843-.234375 18.128906-2.863281 7.417968-3.167969 12.445312-9.695313 12.804687-16.632813.144531-2.769531-.433593-5.304687-.949219-7.542969-.433593-1.902343-.847656-3.703124-.671874-5.132812.464843-3.789062 5.449218-6.363281 9.8125-6.394531h.125c4.375 0 8.832031 1.59375 13.542968 3.277343 1.324219.472657 2.644532.941407 3.964844 1.382813 23.269531 7.734375 49.136719 5.761719 70.964844-5.40625 4.929687-2.519531 9.632812-5.484375 14.183594-8.355469 8.542968-5.394531 16.617187-10.484375 25.707031-12.578125 8.734375-2.011719 17.847656-1.121093 27.5-.179687 5.640625.550781 11.46875 1.109375 17.316406 1.078125 17.316406-.113281 37.492187-8.476563 40.882813-26.570313 2.96875-15.824218-9.363282-30.054687-22.472657-35.414062zm-319.105469-213.832032c19.398438-9.808593 42.449219-14.757812 68.675782-14.757812 4.117187 0 8.316406.125 12.585937.367188 14.144531.808593 29.253907 2.902343 47.554688 6.59375 20.753906 4.183593 35.109375 8.867187 51.507812 21.628906 14.804688 11.519531 28.054688 26.582031 39.484375 44.84375-.121094.195312-.242187.390625-.335937.609375-.988281 2.320312-3.351563 4.121093-6.324219 4.816406-2.96875.695313-5.886719.128906-7.800781-1.515625-1.128907-.964844-2.207031-2.355469-3.347657-3.824219-2.382812-3.070312-5.347656-6.894531-10.289062-8.238281-8.121094-2.207031-15.859375 3.988281-18.640625 11.253906-1.65625 4.335938-1.9375 8.683594-2.207031 12.886719-.101563 1.625-.199219 3.160156-.378906 4.65625-.28125 2.40625-1.328126 8.203125-4.964844 10.097656-3.554688 1.851563-8.734375-.578125-12.015625-3.9375-2.105469-2.160156-3.894531-4.746093-5.785157-7.480469-1.894531-2.738281-3.851562-5.566406-6.273437-8.167968-8.359375-8.976563-17.824219-9.332032-23.394531-6.914063-7.234375 3.144531-11.421875 11.226563-11.789063 22.761719-.492187 15.316406 2.898438 30.390625 6.175781 44.972656 3.992188 17.75 7.761719 34.519532 4.953126 51.320313-1.136719 6.792969-3.175782 11.976562-6.246094 15.84375-3.402344 4.292969-8.34375 6.84375-12.835938 6.613281-4.597656-.21875-9.324218-3.238281-12.644531-8.078125-3.375-4.921875-5.09375-11.074219-6.449219-16.984375-6.484375-28.3125-6.367187-58.214844.339844-86.476562l.207031-.867188c1.046875-4.386719 2.238281-9.359375 1.417969-14.542969-1.359375-8.578125-7.648438-13.074219-12.914062-13.621093-10.621094-1.097657-16.367188 10.292968-18.257813 14.039062l-16.515625 32.707031c-2.214844 4.386719-4.503906 8.917969-7.847656 12.046875-3.078125 2.882813-6.980469 4.144532-9.941406 3.222656-3.617188-1.128906-5.804688-5.324218-6.363282-8.980468-.734375-4.808594.441406-10.058594 1.578125-15.140625l7.535157-33.65625c.929687-4.152344 3.761718-16.785157-4.902344-23.046875-6.386719-4.613282-15.007813-2.402344-20.710938 1.835937-2.195312 1.628907-4.066406 3.460938-5.878906 5.230469-1.972656 1.925781-3.835938 3.742188-5.867188 5.054688-5.613281 3.621093-13.609374 3.398437-19.011718-.53125-5.402344-3.929688-8.078125-11.46875-6.363282-17.921876.214844-.816406.195313-1.632812.019532-2.402343 13.28125-15.890625 28.261718-28.226563 44.261718-36.316407zm-99.660156 148.894532c10.179688-28.832032 20.707032-58.652344 36.335938-85.316406 2.960937-5.054688 6.066406-9.882813 9.292968-14.488282 1.472657 6.179688 5.039063 11.859375 10.234376 15.636719 8.75 6.367187 21.21875 6.714844 30.308593.851563 2.882813-1.859376 5.195313-4.117188 7.4375-6.308594 1.644531-1.605469 3.203125-3.125 4.855469-4.355469 2.707031-2.011719 6.738281-3.308594 8.890625-1.753906 2.203125 1.589843 2.539063 5.882812 1.003906 12.753906l-7.535156 33.65625c-1.277344 5.703125-2.726563 12.171875-1.707031 18.835937 1.257812 8.214844 6.46875 14.894532 13.269531 17.015626 6.433594 2.003906 14-.085938 19.75-5.460938 4.640625-4.34375 7.457031-9.921875 9.945313-14.84375l16.511718-32.707031c2.070313-4.105469 5.191406-8.910157 8.296875-8.605469 1.816407.191406 3.648438 2.542969 4.074219 5.242188.507812 3.222656-.351562 6.832031-1.269531 10.652343l-.210938.886719c-7.058593 29.742188-7.179687 61.214844-.355469 91.015625 1.574219 6.875 3.628907 14.105469 7.949219 20.40625 5.078125 7.40625 12.710938 12.042969 20.414063 12.410156.34375.019531.6875.023438 1.027344.023438 7.453124 0 14.910156-3.835938 20.121093-10.410157 4.148438-5.226562 6.851563-11.902343 8.273438-20.40625 3.132812-18.734374-1.03125-37.253906-5.0625-55.164062-3.140625-13.972656-6.386719-28.414062-5.9375-42.457031.113281-3.476563.898437-11.789063 5.785156-13.914063 3.828125-1.667968 8.953125 1.195313 12.089844 4.558594 1.929687 2.070312 3.597656 4.484375 5.363281 7.039062 2.046875 2.960938 4.160156 6.019532 6.859375 8.78125 5.863281 6.007813 15.492187 10.136719 23.785156 5.820313 5.628907-2.929687 9.277344-9.253906 10.28125-17.800781.203125-1.757813.316407-3.496094.425781-5.183594.230469-3.617188.449219-7.035156 1.566407-9.953125 1.140625-2.992187 4.242187-5.839844 6.675781-5.175781 1.714844.464844 3.242188 2.433594 5.011719 4.71875 1.332031 1.714844 2.839843 3.660156 4.738281 5.285156 4.328125 3.710938 10.535156 5.078125 16.589844 3.660156 3.953125-.921875 7.425781-2.941406 9.988281-5.683594 16.246094 29.054688 26.511719 61.503907 36.433594 92.894532 7.242187 22.910156 13.953125 48.953125 1.824219 68.089844-9.964844 15.722656-30.1875 22.425781-48.65625 26.910156-44.625 10.835937-90.796876 15.597656-137.265626 14.148437-46.457031-1.449219-92.253906-9.078125-136.121093-22.671875-17.925781-5.558594-35.789063-12.738281-44.996094-27.554687-12.585937-20.246094-4.6875-47.304688 3.707031-71.078125zm431.410156 98.507812c-2.242187 11.96875-17.355468 18.324219-31.121093 18.417969-5.339844.039063-10.648438-.484375-16.28125-1.035156-10.027344-.980469-20.390625-1.988281-30.714844.386719-10.746094 2.476562-19.925781 8.265624-28.800781 13.867187-4.363282 2.753906-8.871094 5.597656-13.398438 7.914063-19.175781 9.808593-42.824218 11.609374-63.257812 4.816406-1.253906-.417969-2.5-.863282-3.753906-1.3125-5.363282-1.917969-10.871094-3.886719-17.101563-3.859375-8.761719.0625-18.515625 5.753906-19.667969 15.175781-.390625 3.171875.269532 6.046875.847656 8.582031.402344 1.757813.785157 3.417969.710938 4.796875-.183594 3.582032-3.519531 6.574219-6.742188 7.949219-4.054687 1.730469-8.722656 1.953125-14.398437 2.066406-66.839844 1.296875-133.953125-4.777343-199.472656-18.078125-5.816407-1.179687-10.578125-2.28125-14.464844-4.816406-3.125-2.03125-6.101563-5.792969-5.722656-9.617188.53125-5.332031 6.082031-8.066406 15.160156-11.9375 8.816406-3.761718 18.8125-8.023437 21.714844-18.191406 1.429687-5.019531.636719-10.199218-2.296875-14.980468-4.035156-6.585938-12.054688-11.898438-20.425782-13.53125-5.175781-1.011719-10.351562-1.125-15.355468-1.230469-5.949219-.132813-11.570313-.253907-16.75-1.828125-2.359375-.71875-8.039063-2.902344-9.898438-7.695313-1.148437-2.953125-.253906-5.800781.699219-7.667969 2.019531-3.960937 6.125-7.261718 10.457031-8.40625 8.082032-2.140624 16.675782.167969 27.070313 3.410157 1.058593.332031 2.140625.277343 3.117187-.0625 1.292969 5.078125 3.308594 10.007812 6.238282 14.71875 6.15625 9.902343 16.972656 21.425781 50.527343 31.824219 44.726563 13.863281 91.414063 21.640624 138.769531 23.117187 5.53125.171875 11.058594.257813 16.578126.257813 41.753906 0 83.175781-4.925782 123.359374-14.683594 20.410157-4.953125 42.875-12.546875 54.742188-31.273438 2.886719-4.554687 4.894531-9.347656 6.214844-14.296875.359375.054688.730468.082031 1.109375.054688 11.628906-.789063 24.804687-1.6875 35.878906 2.839843 9.582031 3.910157 18.347656 14.078126 16.429687 24.308594zm0 0"/></svg>