<?xml version="1.0" encoding="UTF-8"?>
<svg width="42px" height="42px" viewBox="0 0 42 42" version="1.1" xmlns="http://www.w3.org/2000/svg" xmlns:xlink="http://www.w3.org/1999/xlink">
    <title>C4E94F3D-CF69-4253-B561-8DB21ED16655</title>
    <defs>
        <filter id="filter-1">
            <feColorMatrix in="SourceGraphic" type="matrix" values="0 0 0 0 0.098039 0 0 0 0 0.098039 0 0 0 0 0.439216 0 0 0 1.000000 0"></feColorMatrix>
        </filter>
    </defs>
    <g id="Welcome" stroke="none" stroke-width="1" fill="none" fill-rule="evenodd">
        <g id="Asset-4--Icones" transform="translate(-385.000000, -296.000000)">
            <g id="Sous-Catégories/Deco" transform="translate(385.000000, 296.000000)">
                <rect id="Rectangle-Copy-16" fill="#FFFFFF" x="0" y="0" width="42" height="42" rx="21"></rect>
                <g filter="url(#filter-1)" id="2-lamp">
                    <g transform="translate(11.500000, 8.500000)">
                        <path d="M12.6623125,1.10703125 C12.5396042,0.03203125 9.81666667,0 9.5,0 C9.18333333,0 6.46039583,0.03203125 6.3376875,1.10703125 L3.97852083,8.07929688 C3.92017615,8.25159605 3.98989693,8.44084588 4.14675,8.5359375 C5.41068082,9.33044981 6.83011675,9.85313901 8.3125,10.0699219 L8.3125,21.9472656 C8.01641667,21.98125 7.721125,22.0253906 7.426625,22.0855469 C6.82776479,22.2049455 6.31835071,22.5905929 6.04635417,23.1304688 L5.58322917,24.0441406 C5.52878138,24.151742 5.52759733,24.2780963 5.58001934,24.386673 C5.63244136,24.4952497 5.73262433,24.5739424 5.85160417,24.6 C8.25408118,25.1312458 10.7459188,25.1312458 13.1483958,24.6 C13.2673757,24.5739424 13.3675586,24.4952497 13.4199807,24.386673 C13.4724027,24.2780963 13.4712186,24.151742 13.4167708,24.0441406 L12.9536458,23.1304688 C12.6816493,22.5905929 12.1722352,22.2049455 11.573375,22.0855469 C11.278875,22.0253906 10.9835833,21.98125 10.6875,21.9472656 L10.6875,15.234375 C10.6875,15.0186388 10.5102794,14.84375 10.2916667,14.84375 C10.073054,14.84375 9.89583333,15.0186388 9.89583333,15.234375 L9.89583333,21.8859375 C9.63194444,21.8757813 9.36805556,21.8757813 9.10416667,21.8859375 L9.10416667,10.1386719 C9.23597917,10.1445313 9.3681875,10.1539063 9.5,10.1539063 C9.6318125,10.1539063 9.76402083,10.1445313 9.89583333,10.1386719 L9.89583333,13.671875 C9.89583333,13.8876112 10.073054,14.0625 10.2916667,14.0625 C10.5102794,14.0625 10.6875,13.8876112 10.6875,13.671875 L10.6875,10.0699219 C11.0882061,10.0155934 11.4848852,9.93547469 11.875,9.83007812 L11.875,11.009375 C11.3297211,11.1996236 11.002634,11.7498696 11.100435,12.3123957 C11.1982361,12.8749218 11.6924777,13.2861043 12.2708333,13.2861043 C12.8491889,13.2861043 13.3434305,12.8749218 13.4412316,12.3123957 C13.5390327,11.7498696 13.2119456,11.1996236 12.6666667,11.009375 L12.6666667,9.584375 C13.4298826,9.30946926 14.1625655,8.95815763 14.85325,8.5359375 C15.0101031,8.44084588 15.0798239,8.25159605 15.0214792,8.07929687 L12.6623125,1.10703125 Z M11.41425,22.8515625 C11.7738302,22.925543 12.0797487,23.1569945 12.2455,23.4804688 L12.4778542,23.9394531 C10.5103879,24.3101552 8.48961215,24.3101552 6.52214583,23.9394531 L6.7545,23.4804688 C6.92025127,23.1569945 7.22616984,22.925543 7.58575,22.8515625 C8.84850539,22.5933565 10.1514946,22.5933565 11.41425,22.8515625 L11.41425,22.8515625 Z M12.2708333,12.5 C12.0522206,12.5 11.875,12.3251112 11.875,12.109375 C11.875,11.8936388 12.0522206,11.71875 12.2708333,11.71875 C12.489446,11.71875 12.6666667,11.8936388 12.6666667,12.109375 C12.6666667,12.3251112 12.489446,12.5 12.2708333,12.5 Z M11.7958333,1.17382812 C11.0698549,1.47192199 10.2851468,1.60476872 9.5,1.5625 C8.71390285,1.60628319 7.92798237,1.47352515 7.20139583,1.17421875 C7.92650307,0.8696075 8.71331594,0.735094182 9.5,0.78125 C10.2863893,0.73509288 11.0729158,0.869469859 11.7978125,1.17382812 L11.7958333,1.17382812 Z M4.82916667,8.02929687 L6.90333333,1.89648437 C7.72842754,2.22049722 8.61246505,2.3727692 9.5,2.34375 C10.3871397,2.37578285 11.2711835,2.22326054 12.0946875,1.89609375 L14.1696458,8.02890625 C11.0306875,9.83554687 7.9693125,9.83554687 4.82916667,8.02929687 Z" id="Shape" fill="#000000" fill-rule="nonzero"></path>
                        <path d="M18.6041667,3.90625 L18.2083333,3.90625 L18.2083333,3.515625 C18.2083333,3.29988877 18.0311127,3.125 17.8125,3.125 C17.5938873,3.125 17.4166667,3.29988877 17.4166667,3.515625 L17.4166667,3.90625 L17.0208333,3.90625 C16.8022206,3.90625 16.625,4.08113877 16.625,4.296875 C16.625,4.51261123 16.8022206,4.6875 17.0208333,4.6875 L17.4166667,4.6875 L17.4166667,5.078125 C17.4166667,5.29386123 17.5938873,5.46875 17.8125,5.46875 C18.0311127,5.46875 18.2083333,5.29386123 18.2083333,5.078125 L18.2083333,4.6875 L18.6041667,4.6875 C18.8227794,4.6875 19,4.51261123 19,4.296875 C19,4.08113877 18.8227794,3.90625 18.6041667,3.90625 Z" id="Path" fill="#000000" fill-rule="nonzero"></path>
                        <path d="M1.97916667,10.9375 L1.58333333,10.9375 L1.58333333,10.546875 C1.58333333,10.3311388 1.40611271,10.15625 1.1875,10.15625 C0.968887287,10.15625 0.791666667,10.3311388 0.791666667,10.546875 L0.791666667,10.9375 L0.395833333,10.9375 C0.17722062,10.9375 0,11.1123888 0,11.328125 C0,11.5438612 0.17722062,11.71875 0.395833333,11.71875 L0.791666667,11.71875 L0.791666667,12.109375 C0.791666667,12.3251112 0.968887287,12.5 1.1875,12.5 C1.40611271,12.5 1.58333333,12.3251112 1.58333333,12.109375 L1.58333333,11.71875 L1.97916667,11.71875 C2.19777938,11.71875 2.375,11.5438612 2.375,11.328125 C2.375,11.1123888 2.19777938,10.9375 1.97916667,10.9375 Z" id="Path" fill="#000000" fill-rule="nonzero"></path>
                    </g>
                </g>
            </g>
        </g>
    </g>
</svg>