<svg xmlns="http://www.w3.org/2000/svg" viewBox="0 0 22 19.87"><defs><style>.cls-1{fill:#4a4a4a;}</style></defs><g id="Calque_2" data-name="Calque 2"><g id="Calque_1-2" data-name="Calque 1"><g id="Group"><g id="Combined-Shape"><path class="cls-1" d="M11.53,0a1.24,1.24,0,0,1,1.24,1.24h0V5.85A1.24,1.24,0,0,1,11.53,7.1H9l.18.71h6.46V3.19A.36.36,0,0,1,16,2.84h4.26a.35.35,0,0,1,.35.35h0V7.81h1.07a.35.35,0,0,1,.35.35h0V19.52a.35.35,0,0,1-.35.35H20.58a.35.35,0,0,1-.35-.35h0V18.45H14.55v1.07a.36.36,0,0,1-.36.35H13.13a.36.36,0,0,1-.36-.35h0V12.77h-11v6.75a.35.35,0,0,1-.35.35H.35A.35.35,0,0,1,0,19.52H0V8.16a.35.35,0,0,1,.35-.35h4.7l.17-.71H2.66A1.25,1.25,0,0,1,1.42,5.85h0V1.24A1.25,1.25,0,0,1,2.66,0h8.87ZM1.06,9.94H.71v9.22h.35Zm12.78,0h-.36v9.22h.36Zm7.45,0h-.35v9.22h.35Zm-1.06,5.67H14.55v2.13h5.68Zm-1.78.71a.36.36,0,1,1,0,.71H16.32a.36.36,0,0,1,0-.71h2.13Zm1.78-3.55H14.55V14.9h5.68Zm-1.78.71a.36.36,0,1,1,0,.71H16.32a.36.36,0,0,1,0-.71h2.13ZM12.77,9.94h-11v2.12h11Zm7.46,0H14.55v2.12h5.68Zm-1.78.71a.35.35,0,1,1,0,.7H16.32a.35.35,0,0,1,0-.7h2.13Zm-10.29,0a.35.35,0,1,1,0,.7H6a.35.35,0,1,1,0-.7H8.16ZM21.29,8.52H.71v.71H21.29Zm-1.42-5H18.45V7.81h1.42Zm-2.13,0H16.32V7.81h1.42ZM8.24,7.1H6l-.17.71H8.42ZM12,6H2.16a.55.55,0,0,0,.5.36h8.87A.53.53,0,0,0,12,6ZM11.53.71H2.66a.53.53,0,0,0-.53.53h0V5.32h9.93V1.24a.53.53,0,0,0-.53-.53Z"/></g></g></g></g></svg>