<?xml version="1.0" encoding="UTF-8"?>
<svg width="28px" height="20px" viewBox="0 0 28 20" version="1.1" xmlns="http://www.w3.org/2000/svg" xmlns:xlink="http://www.w3.org/1999/xlink">
    <title>EC9976F5-1CBD-4377-9E3A-77E0765B2BBB</title>
    <defs>
        <rect id="path-1" x="0" y="0" width="28" height="20" rx="2"></rect>
    </defs>
    <g id="Welcome" stroke="none" stroke-width="1" fill="none" fill-rule="evenodd">
        <g id="Assets-3---Drapeaux" transform="translate(-84.000000, -229.000000)">
            <rect id="Rectangle" fill="#F8F8F8" x="0" y="0" width="1440" height="1246"></rect>
            <g id="EG" transform="translate(84.000000, 229.000000)">
                <mask id="mask-2" fill="white">
                    <use xlink:href="#path-1"></use>
                </mask>
                <rect stroke="#F5F5F5" stroke-width="0.5" x="0.25" y="0.25" width="27.5" height="19.5" rx="2"></rect>
                <rect id="Rectangle-2" fill="#E41D33" mask="url(#mask-2)" x="0" y="0" width="28" height="6.66666667"></rect>
                <rect id="Rectangle-2" fill="#262626" mask="url(#mask-2)" x="0" y="13.3333333" width="28" height="6.66666667"></rect>
                <path d="M14,8.33333333 C14.5555556,8.33333333 15.0351909,9.48240453 15.0351909,9.48240453 C15.0351909,9.48240453 15.1890333,9.85096757 15.2514912,10.2423736 L15.2514912,10.2423736 L16.0856545,8.57404702 C16.6290427,8.41093063 16.8165539,8.34598914 16.9022317,8.43087678 C16.9619847,8.49007881 17,8.57134786 17,8.66051865 L17,8.66051865 L17,10.875656 L15.3878988,10.3333333 L14.3333333,10.3333333 L14.3333333,11.1777058 L14.3333333,11.1777058 L14.1759158,11.3175831 C13.9926397,11.4807587 13.8205833,11.6262846 13.7636695,11.5693708 C13.7034899,11.5091912 13.6666667,11.4258209 13.6666667,11.3333333 L13.6666667,11.3333333 L13.6666667,10.3333333 L12.5657415,10.3333333 L11.4495493,11.0774614 L11.0009562,8.63536268 C11.007075,8.55519641 11.0422088,8.48312532 11.0962015,8.4296306 C11.4637353,8.33333333 11.5703903,8.34201766 11.6569064,8.35971073 L11.6569064,8.35971073 L12.7121354,10.0291323 C12.8313291,9.72704511 12.9588212,9.49382275 12.9588212,9.49382275 C12.9588212,9.49382275 13.2582307,8.94611048 13.6229599,8.58138127 C13.744507,8.45983417 13.8693648,8.33333333 14,8.33333333 Z" id="Rectangle-129" stroke="#C6A846" stroke-width="0.666666667" fill-opacity="0.25" fill="#F4B32E" mask="url(#mask-2)"></path>
            </g>
        </g>
    </g>
</svg>