<svg xmlns="http://www.w3.org/2000/svg" viewBox="0 0 22 24.21"><defs><style>.cls-1{fill:#4a4a4a;}</style></defs><g id="Calque_2" data-name="Calque 2"><g id="Calque_1-2" data-name="Calque 1"><g id="Group"><g id="Combined-Shape"><path class="cls-1" d="M12.51,0a.36.36,0,0,1,.36.36h0V8.12h8.77a.36.36,0,0,1,.36.36h0V13a.36.36,0,0,1-.72,0h0V11.07H9.78V23.49h11.5V14.21a.36.36,0,0,1,.72,0h0v9.64a.36.36,0,0,1-.36.36H.36A.36.36,0,0,1,0,23.85H0V3.23a.36.36,0,1,1,.72,0h0v8.41H9.06V8.48a.36.36,0,0,1,.36-.36h2.73V.72H.72V2A.36.36,0,0,1,0,2H0V.36A.36.36,0,0,1,.36,0H12.51ZM9.06,12.36H.72V23.49H9.06Zm6.47.07A4.68,4.68,0,1,1,11.82,20a.37.37,0,0,1,.06-.51.37.37,0,0,1,.51.07,3.91,3.91,0,0,0,3.14,1.55,4,4,0,1,0-3.95-3.95,4.05,4.05,0,0,0,.21,1.29.36.36,0,0,1-.22.46.37.37,0,0,1-.46-.23,4.61,4.61,0,0,1-.25-1.52A4.68,4.68,0,0,1,15.53,12.43Zm0,1.69a3,3,0,0,1,2,.75.35.35,0,0,1,0,.54,2.28,2.28,0,0,0,0,3.4.33.33,0,0,1,.13.26.34.34,0,0,1-.13.27,3,3,0,0,1-2,.76,3,3,0,1,1,0-6Zm0,.72a2.27,2.27,0,0,0,0,4.54,2.19,2.19,0,0,0,1.2-.35,3,3,0,0,1-.7-1.92,3,3,0,0,1,.7-1.93A2.26,2.26,0,0,0,15.53,14.84ZM2,13.3a.36.36,0,0,1,.36.36h0V18a.36.36,0,1,1-.72,0h0V13.66A.36.36,0,0,1,2,13.3ZM2,5.6A.36.36,0,0,1,2.37,6h0v4.39a.36.36,0,1,1-.72,0h0V6A.36.36,0,0,1,2,5.6ZM21.28,8.84H14.16v1.51h7.12Zm-7.84,0H9.78v1.51h3.66Z"/></g></g></g></g></svg>