<svg xmlns="http://www.w3.org/2000/svg" viewBox="0 0 22 23.1"><defs><style>.cls-1{fill:#4a4a4a;}</style></defs><g id="Calque_2" data-name="Calque 2"><g id="Calque_1-2" data-name="Calque 1"><g id="Group"><g id="Combined-Shape"><path class="cls-1" d="M9.13,13.15a.81.81,0,0,1,.81.81h0v8.33a.81.81,0,0,1-.81.81H.81A.81.81,0,0,1,0,22.29H0V14a.81.81,0,0,1,.81-.81H9.13Zm3.25-1.59a.82.82,0,0,1,1-.59h0l8,2.13a.82.82,0,0,1,.56,1h0l-2.12,8.06h0l0,.1a.81.81,0,0,1-1,.47h0l-8-2.13h0l-.1,0a.8.8,0,0,1-.48-1h0ZM9,14.06H.91v8.12H9Zm4.21-2.18-2.09,7.84L19,21.78,21.08,14ZM3.6,15.52H5.22a3,3,0,0,1,.59,0,1.21,1.21,0,0,1,.45.16,1.08,1.08,0,0,1,.3.26,1.27,1.27,0,0,1,.2.34,1.32,1.32,0,0,1,.06.39,1.08,1.08,0,0,1-.71,1.05,1.16,1.16,0,0,1,.94,1.16,1.28,1.28,0,0,1-.2.72,1.2,1.2,0,0,1-.56.46,1.76,1.76,0,0,1-.5.13q-.32,0-.63.06H3.7a.59.59,0,0,1-.46-.14.64.64,0,0,1-.13-.46h0V16.12a.63.63,0,0,1,.13-.46.64.64,0,0,1,.46-.13Zm1.63,2.66H4.08l0,1.39h1c.65,0,1-.23,1-.7a.56.56,0,0,0-.24-.52,1.44,1.44,0,0,0-.76-.17ZM16,14.23a2.59,2.59,0,0,1,.92.07,2.31,2.31,0,0,1,.91.46,1.8,1.8,0,0,1,.54.74,1.06,1.06,0,0,1,.07.68.43.43,0,0,1-.19.25.36.36,0,0,1-.3.05.38.38,0,0,1-.25-.16,1,1,0,0,1-.12-.34,1.58,1.58,0,0,0-.29-.63,1.13,1.13,0,0,0-.57-.33,1.18,1.18,0,0,0-1,.19,2.06,2.06,0,0,0-.66,1.19,2.32,2.32,0,0,0-.09.91,1.12,1.12,0,0,0,.28.65,1.31,1.31,0,0,0,.58.28,1.14,1.14,0,0,0,.73,0,1.24,1.24,0,0,0,.58-.45.92.92,0,0,1,.22-.26.36.36,0,0,1,.32,0,.41.41,0,0,1,.25.19A.36.36,0,0,1,18,18a1.17,1.17,0,0,1-.23.46,1.81,1.81,0,0,1-.46.41,1.62,1.62,0,0,1-.69.26,2.23,2.23,0,0,1-.89-.06,2.93,2.93,0,0,1-.64-.25,2.15,2.15,0,0,1-.48-.36,1.88,1.88,0,0,1-.35-.5,2,2,0,0,1-.18-.57,2.68,2.68,0,0,1-.05-.63,3.79,3.79,0,0,1,.11-.66,3,3,0,0,1,.43-1,2.2,2.2,0,0,1,.66-.63A2.29,2.29,0,0,1,16,14.23Zm-11,2H4.08l0,1.21h.88a1.54,1.54,0,0,0,.56-.07.51.51,0,0,0,.3-.26.64.64,0,0,0,.08-.3.45.45,0,0,0-.26-.46,2.06,2.06,0,0,0-.78-.12ZM12.53.05a.83.83,0,0,1,1.06.46h0l3,7.77a.8.8,0,0,1-.46,1.05h0l-7.74,3a.8.8,0,0,1-1-.45h0L4.31,4.15A.81.81,0,0,1,4.77,3.1h0Zm.25.9-7.56,3,3,7.55,7.56-3ZM9.83,3.7a.7.7,0,0,1,.27.11,1,1,0,0,1,.22.19h0l.27.29L12.88,6.7a1.46,1.46,0,0,1,.32.42.38.38,0,0,1,0,.33.42.42,0,0,1-.24.23.44.44,0,0,1-.37,0,.69.69,0,0,1-.18-.16h0l-.2-.19-.43-.46L10,7.56v.65a2.46,2.46,0,0,1,0,.54A.39.39,0,0,1,9.7,9a.53.53,0,0,1-.35,0,.42.42,0,0,1-.24-.23.51.51,0,0,1,0-.2c0-.08,0-.18,0-.32H9V4.56a1.32,1.32,0,0,1,0-.34A.66.66,0,0,1,9.2,4,.81.81,0,0,1,9.83,3.7Zm0,1,.06,2.07,1.33-.52Z"/></g></g></g></g></svg>