<?xml version="1.0" encoding="UTF-8"?>
<svg width="32px" height="32px" viewBox="0 0 32 32" version="1.1" xmlns="http://www.w3.org/2000/svg" xmlns:xlink="http://www.w3.org/1999/xlink">
    <title>57ECE014-02FC-4C0A-B1EB-55B73AA91E21</title>
    <defs>
        <polygon id="path-1" points="0.000189393937 0.00481060601 10.0979166 0.00481060601 10.0979166 21.0227271 0.000189393937 21.0227271"></polygon>
    </defs>
    <g id="Welcome" stroke="none" stroke-width="1" fill="none" fill-rule="evenodd">
        <g id="Assets" transform="translate(-54.000000, -784.000000)">
            <g id="Icons/Favicons" transform="translate(54.000000, 784.000000)">
                <rect id="Rectangle" stroke="#191970" fill="#F5F5F5" x="0.5" y="0.5" width="31" height="31" rx="6"></rect>
                <g id="Group-10" transform="translate(3.500000, 5.400000)">
                    <path d="M22.7460414,20.9332763 C22.0494505,20.9332763 21.4827839,20.366799 21.4827839,19.6702081 L21.4827839,9.53289763 L19.1708521,16.5372536 C19.0104354,17.0230491 18.5591097,17.3495642 18.0473672,17.3495642 C17.5341097,17.3495642 17.0822157,17.0219127 16.9229354,16.5338445 L14.6378976,9.54217793 L14.6378976,19.6702081 C14.6378976,20.366799 14.0714203,20.9332763 13.3750188,20.9332763 L12.6441476,20.9332763 C11.9475567,20.9332763 11.38089,20.366799 11.38089,19.6702081 L11.38089,1.7268371 C11.38089,1.0302462 11.9475567,0.463579541 12.6441476,0.463579541 L13.5721779,0.463579541 C14.1092991,0.463579541 14.5888446,0.804678022 14.7649809,1.31206438 L18.0598672,10.7935037 L21.3284278,1.31490529 C21.5038066,0.805814386 21.9839202,0.463579541 22.5223672,0.463579541 L23.4767233,0.463579541 C24.1733142,0.463579541 24.7397914,1.0302462 24.7397914,1.7268371 L24.7397914,19.6702081 C24.7397914,20.366799 24.1733142,20.9332763 23.4767233,20.9332763 L22.7460414,20.9332763 Z" id="Fill-1" fill="#191970"></path>
                    <path d="M23.476799,0.274185603 L22.522443,0.274185603 C21.9029354,0.274185603 21.3512308,0.667746205 21.1493369,1.25335226 L18.0593748,10.2145264 L14.9440339,1.24994317 C14.7413824,0.666231054 14.1898673,0.274185603 13.5720643,0.274185603 L12.6442234,0.274185603 C11.843087,0.274185603 11.1915719,0.925700748 11.1915719,1.7268371 L11.1915719,19.6702081 C11.1915719,20.4711551 11.843087,21.1226702 12.6442234,21.1226702 L13.3749052,21.1226702 C14.1758521,21.1226702 14.8273673,20.4711551 14.8273673,19.6702081 L14.8273673,10.7315719 L16.7427082,16.592746 C16.927746,17.1586551 17.4519885,17.5389582 18.047443,17.5389582 C18.6410036,17.5389582 19.1646778,17.1601703 19.3508521,16.5969127 L21.2934657,10.7107385 L21.2934657,19.6702081 C21.2934657,20.4711551 21.9449808,21.1226702 22.7459278,21.1226702 L23.476799,21.1226702 C24.277746,21.1226702 24.9292611,20.4711551 24.9292611,19.6702081 L24.9292611,1.7268371 C24.9292611,0.925700748 24.277746,0.274185603 23.476799,0.274185603 M23.476799,0.652973478 C24.0697914,0.652973478 24.5504732,1.13384469 24.5504732,1.7268371 L24.5504732,19.6702081 C24.5504732,20.2632006 24.0697914,20.7438824 23.476799,20.7438824 L22.7459278,20.7438824 C22.1529354,20.7438824 21.6722536,20.2632006 21.6722536,19.6702081 L21.6722536,8.52551128 L21.6158142,8.52551128 L18.9910036,16.4781627 C18.8565339,16.8851703 18.4762309,17.1601703 18.047443,17.1601703 C17.6175188,17.1601703 17.2364582,16.8838445 17.1029354,16.4751324 L14.5050188,8.52551128 L14.4485794,8.52551128 L14.4485794,19.6702081 C14.4485794,20.2632006 13.9678976,20.7438824 13.3749052,20.7438824 L12.6442234,20.7438824 C12.0510415,20.7438824 11.5703597,20.2632006 11.5703597,19.6702081 L11.5703597,1.7268371 C11.5703597,1.13384469 12.0510415,0.652973478 12.6442234,0.652973478 L13.5720643,0.652973478 C14.0290718,0.652973478 14.4362688,0.942367415 14.5862688,1.37437499 L18.0322915,11.2910416 L18.0887309,11.2910416 L21.5074808,1.37664771 C21.6567233,0.943693172 22.064299,0.652973478 22.522443,0.652973478 L23.476799,0.652973478" id="Fill-3"></path>
                    <path d="M4.78229162,21.0179922 C4.08570072,21.0179922 3.51903406,20.4515149 3.51903406,19.754924 L3.51903406,3.46647724 L1.4525568,3.46647724 C0.755965902,3.46647724 0.189299241,2.89999997 0.189299241,2.20340907 L0.189299241,1.64204544 C0.189299241,0.94564393 0.755965902,0.378787875 1.4525568,0.378787875 L8.64517037,0.378787875 C9.34176127,0.378787875 9.90823854,0.94564393 9.90823854,1.64204544 L9.90823854,2.20340907 C9.90823854,2.89999997 9.34176127,3.46647724 8.64517037,3.46647724 L6.7760416,3.46647724 L6.7760416,19.754924 C6.7760416,20.4515149 6.20956433,21.0179922 5.51297343,21.0179922 L4.78229162,21.0179922 Z" id="Fill-5" fill="#D0021B"></path>
                    <g id="Group-9" transform="translate(0.000000, 0.184659)">
                        <mask id="mask-2" fill="white">
                            <use xlink:href="#path-1"></use>
                        </mask>
                        <g id="Clip-8"></g>
                        <path d="M8.64526507,0.00481060601 L1.45246211,0.00481060601 C0.651515145,0.00481060601 0.000189393937,0.656325751 0.000189393937,1.45746211 L0.000189393937,2.01882574 C0.000189393937,2.81958331 0.651515145,3.47128784 1.45246211,3.47128784 L3.32973482,3.47128784 L3.32973482,19.5703407 C3.32973482,20.3710983 3.98143935,21.0228028 4.78238632,21.0228028 L5.51306813,21.0228028 C6.31401509,21.0228028 6.96553023,20.3710983 6.96553023,19.5703407 L6.96553023,3.47128784 L8.64526507,3.47128784 C9.44621203,3.47128784 10.0979166,2.81958331 10.0979166,2.01882574 L10.0979166,1.45746211 C10.0979166,0.656325751 9.44621203,0.00481060601 8.64526507,0.00481060601 M8.64526507,0.383598481 C9.23825748,0.383598481 9.71912869,0.864469688 9.71912869,1.45746211 L9.71912869,2.01882574 C9.71912869,2.61181816 9.23825748,3.09249997 8.64526507,3.09249997 L6.58674236,3.09249997 L6.58674236,19.5703407 C6.58674236,20.1633331 6.10606055,20.6440149 5.51306813,20.6440149 L4.78238632,20.6440149 C4.1893939,20.6440149 3.70852269,20.1633331 3.70852269,19.5703407 L3.70852269,3.09249997 L1.45246211,3.09249997 C0.859659082,3.09249997 0.378977269,2.61181816 0.378977269,2.01882574 L0.378977269,1.45746211 C0.378977269,0.864469688 0.859659082,0.383598481 1.45246211,0.383598481 L8.64526507,0.383598481" id="Fill-7" fill="#D0021B" mask="url(#mask-2)"></path>
                    </g>
                </g>
            </g>
        </g>
    </g>
</svg>