<?xml version="1.0" encoding="UTF-8"?>
<svg width="30px" height="31px" viewBox="0 0 30 31" version="1.1" xmlns="http://www.w3.org/2000/svg" xmlns:xlink="http://www.w3.org/1999/xlink">
    <title>D8B767F0-CA9E-4E1D-9557-C085661EAE6D</title>
    <g id="Welcome" stroke="none" stroke-width="1" fill="none" fill-rule="evenodd">
        <g id="Assets" transform="translate(-269.000000, -429.000000)">
            <g id="Icons/Favoris" transform="translate(269.000000, 429.500000)">
                <circle id="Cercle-de-survole-icone-Copy" fill="#FFFFFF" cx="15" cy="15" r="14"></circle>
                <path d="M15,0 C19.0066406,0 22.773457,1.56029297 25.6066406,4.39335938 C28.439707,7.22654297 30,10.9933594 30,15 C30,19.0066406 28.439707,22.773457 25.6066406,25.6066406 C22.773457,28.439707 19.0066406,30 15,30 C10.9933594,30 7.22654297,28.439707 4.39335938,25.6066406 C1.56029297,22.773457 0,19.0066406 0,15 C0,10.9933594 1.56029297,7.22654297 4.39335938,4.39335938 C7.22654297,1.56029297 10.9933594,0 15,0 Z M15,1.7578125 C7.69822266,1.7578125 1.7578125,7.69822266 1.7578125,15 C1.7578125,22.3017773 7.69822266,28.2421875 15,28.2421875 C22.3017773,28.2421875 28.2421875,22.3017773 28.2421875,15 C28.2421875,7.69822266 22.3017773,1.7578125 15,1.7578125 Z M18.9716949,8 C20.3617401,8 21.6404114,8.55659484 22.5721893,9.56719971 C23.492981,10.5659943 24,11.9304962 24,13.4095306 C24,14.9318237 23.4328308,16.3253021 22.214859,17.7948608 C21.1252899,19.1096496 19.5594635,20.4440765 17.7463074,21.9893036 C17.1266785,22.5171967 16.4245148,23.1156769 15.6957092,23.7530213 C15.5033111,23.9213867 15.2561188,24.0142212 15,24.0142212 C14.7437439,24.0142212 14.4966889,23.9213867 14.3041534,23.7527466 C13.5769959,23.1169129 12.8759308,22.5193939 12.2574005,21.9923248 L12.254242,21.9895782 C10.4408111,20.4442139 8.87484743,19.1096496 7.78527832,17.7949982 C6.56730653,16.3253021 6,14.9318237 6,13.4095306 C6,11.9304962 6.50715636,10.5659943 7.42794802,9.56719971 C8.35972596,8.55659484 9.63825988,8 11.0284424,8 C12.0674744,8 13.0190277,8.32849121 13.8565979,8.97627257 C14.2792969,9.30325316 14.6624451,9.70343018 15,10.1702118 C15.3376923,9.70343018 15.7207031,9.30325316 16.1435394,8.97627257 C16.9811096,8.32849121 17.932663,8 18.9716949,8 Z M18.9716949,9.05441286 C18.1716156,9.05441286 17.4370422,9.30874632 16.7884369,9.81027223 C16.2104187,10.2574158 15.8077698,10.8226623 15.5717011,11.2181701 C15.4503021,11.4215546 15.2366181,11.5429535 15,11.5429535 C14.7633819,11.5429535 14.5496979,11.4215546 14.4282989,11.2181701 C14.1923676,10.8226623 13.7897186,10.2574158 13.2115631,9.81027223 C12.5629578,9.30874632 11.8283844,9.05441286 11.0284424,9.05441286 C9.93626405,9.05441286 8.93293761,9.49029541 8.20303343,10.2818604 C7.46228027,11.0853729 7.0542755,12.1960907 7.0542755,13.4095306 C7.0542755,14.6898498 7.53012087,15.8348999 8.59703065,17.1222229 C9.62823486,18.3665619 11.1620636,19.6736603 12.9380035,21.1871643 L12.9412994,21.1899109 C13.5621643,21.7190399 14.265976,22.3188934 14.9984894,22.9593964 C15.7353973,22.3176575 16.4403076,21.7168427 17.0624084,21.1868896 C18.8382111,19.6733856 20.3719025,18.3665619 21.4031067,17.1222229 C22.4698791,15.8348999 22.9457245,14.6898498 22.9457245,13.4095306 C22.9457245,12.1960907 22.5377197,11.0853729 21.7969666,10.2818604 C21.0671997,9.49029541 20.063736,9.05441286 18.9716949,9.05441286 Z" id="Combined-Shape" fill="#1A7EF5" fill-rule="nonzero"></path>
            </g>
        </g>
    </g>
</svg>