<?xml version="1.0" encoding="UTF-8"?>
<svg width="16px" height="16px" viewBox="0 0 16 16" version="1.1" xmlns="http://www.w3.org/2000/svg" xmlns:xlink="http://www.w3.org/1999/xlink">
    <title>A871A770-5ED8-47BC-9CB8-124EC6AA74A1</title>
    <g id="Welcome" stroke="none" stroke-width="1" fill="none" fill-rule="evenodd">
        <g id="Assets" transform="translate(-400.000000, -381.000000)" fill="#4A4A4A" fill-rule="nonzero">
            <g id="Icons/Fermés" transform="translate(400.000000, 381.500000)">
                <path d="M15.6519333,6.24851239 C14.7262764,5.17454285 13.6222756,4.16651086 12.452306,3.40385406 L15.0557142,0.800445899 C15.2388393,0.617352015 15.2388393,0.320414297 15.0557142,0.137320413 C14.8726203,-0.045773471 14.5756826,-0.045773471 14.3925887,0.137320413 L11.6198054,2.91010369 C10.394492,2.25472821 9.18120985,1.92310297 8,1.92310297 C5.05276933,1.92310297 2.26711104,4.02194826 0.34804713,6.24851239 C-0.11601571,6.78698153 -0.11601571,7.59907588 0.34804713,8.13754502 C1.27370406,9.21151456 2.37770487,10.2195465 3.54767447,10.9822034 L0.944266317,13.5856115 C0.761141182,13.7687054 0.761141182,14.0656431 0.944266317,14.248737 C1.1274227,14.4318934 1.42429792,14.4318621 1.6073918,14.248737 L4.38017508,11.4759537 C5.60548848,12.1313292 6.81873937,12.4629544 7.99995898,12.4629544 C10.9471799,12.4629544 13.7328382,10.3641092 15.6519021,8.13754502 C16.1160274,7.59910713 16.1160274,6.78698153 15.6519333,6.24851239 Z M1.05842265,7.52526332 C0.892516279,7.33276318 0.892516279,7.05329423 1.05842265,6.86079409 C2.09495466,5.65816821 4.84633167,2.86094741 7.99999023,2.86094741 C9.03286599,2.86094741 10.0225855,3.16104138 10.9230549,3.6068542 L9.63702268,4.8928864 C9.17492859,4.56307365 8.60974068,4.36879226 7.99999023,4.36879226 C6.44270784,4.36879226 5.17573817,5.63576194 5.17573817,7.19304433 C5.17573817,7.80276353 5.36998831,8.36795144 5.69980105,8.83007678 L4.22729997,10.3025779 C2.78054891,9.39663969 1.64492308,8.20576382 1.05842265,7.52526332 L1.05842265,7.52526332 Z M9.88639787,7.19304433 C9.88639787,8.23319988 9.04014725,9.07945196 7.99999023,9.07945196 C7.64964623,9.07945196 7.32152099,8.98313939 7.04011453,8.81607677 L8.33155298,7.52463832 L9.62299142,6.23319988 C9.7900853,6.51457508 9.88639787,6.84270032 9.88639787,7.19304433 Z M6.1135826,7.19304433 C6.1135826,6.15288732 6.95983322,5.3066367 7.99999023,5.3066367 C8.35033424,5.3066367 8.67845948,5.40294927 8.95986594,5.57004314 L7.66842749,6.86148159 L6.37698905,8.15292003 C6.20989517,7.87151358 6.1135826,7.54338834 6.1135826,7.19304433 L6.1135826,7.19304433 Z M14.9415578,7.52526332 C13.9050258,8.72792045 11.1536488,11.5251413 7.99999023,11.5251413 C6.96711448,11.5251413 5.977395,11.2250473 5.07692559,10.7792345 L6.36295779,9.49320227 C6.82505187,9.82301501 7.39023979,10.0172964 7.99999023,10.0172964 C9.55727262,10.0172964 10.8242423,8.75032672 10.8242423,7.19304433 C10.8242423,6.58332513 10.6299922,6.01813722 10.3001482,5.55601188 L11.7726492,4.0835108 C13.2194003,4.98944897 14.3550261,6.18032484 14.9415266,6.86079409 C15.1074642,7.05329423 15.1074642,7.33276318 14.9415578,7.52526332 L14.9415578,7.52526332 Z" id="Shape"></path>
            </g>
        </g>
    </g>
</svg>