<svg xmlns="http://www.w3.org/2000/svg" viewBox="0 0 99 33"><defs><style>.cls-1{fill:#fff;}.cls-2,.cls-4{fill:#191970;}.cls-3,.cls-4{isolation:isolate;}.cls-4{font-size:13px;font-family:ArialMT, Arial;letter-spacing:-0.02em;}</style></defs><g id="Calque_2" data-name="Calque 2"><g id="Calque_1-2" data-name="Calque 1"><g id="Bouton_Marché" data-name="Bouton Marché"><g id="Base_Marché_Icons" data-name="Base_Marché+Icons"><rect id="path-22" width="99" height="33" rx="15"/><rect id="path-22-2" data-name="path-22" class="cls-1" width="99" height="33" rx="6.38"/></g><g id="Group"><g id="Combined-Shape"><path class="cls-2" d="M22,4a9.43,9.43,0,0,1,9.5,9.33c0,2.5-1.54,5.71-4.58,9.55a51.71,51.71,0,0,1-4.52,5,.59.59,0,0,1-.8,0,51.71,51.71,0,0,1-4.52-5c-3-3.84-4.58-7-4.58-9.55A9.43,9.43,0,0,1,22,4Zm0,2.67a6.74,6.74,0,0,0-6.79,6.66,6.79,6.79,0,0,0,13.58,0A6.74,6.74,0,0,0,22,6.67Zm-.36,2.46a.57.57,0,0,1,.72,0h0l4,3.33a.47.47,0,0,1,.1.63.55.55,0,0,1-.48.24h-.52V16.5a.52.52,0,0,1-.54.5H23.62a.52.52,0,0,1-.54-.5h0V14.67a.52.52,0,0,0-.54-.5H21.46a.52.52,0,0,0-.54.5h0V16.5a.52.52,0,0,1-.54.5H19.12a.52.52,0,0,1-.54-.5h0V13.33h-.52a.55.55,0,0,1-.48-.24.47.47,0,0,1,.1-.63h0Z"/></g></g><g id="MARCHÉ" class="cls-3"><text class="cls-4" transform="translate(37.27 21)">MARCHÉ</text></g></g></g></g></svg>