<svg xmlns="http://www.w3.org/2000/svg" viewBox="0 0 99 33"><defs><style>.cls-1{fill:#fff;}.cls-2,.cls-4{fill:#191970;}.cls-3,.cls-4{isolation:isolate;}.cls-4{font-size:13px;font-family:ArialMT, Arial;letter-spacing:-0.02em;}</style></defs><g id="Calque_2" data-name="Calque 2"><g id="Calque_1-2" data-name="Calque 1"><g id="Base_Bouton_Marché" data-name="Base Bouton Marché"><rect id="path-20" width="99" height="33" rx="6"/><rect id="path-20-2" data-name="path-20" class="cls-1" width="99" height="33" rx="6"/></g><g id="Group"><g id="Combined-Shape"><path class="cls-2" d="M19.66,4.37a9.43,9.43,0,0,1,9.5,9.34c0,2.5-1.54,5.71-4.58,9.54a50.54,50.54,0,0,1-4.52,5,.59.59,0,0,1-.8,0,53.17,53.17,0,0,1-4.52-5c-3-3.83-4.58-7-4.58-9.54A9.43,9.43,0,0,1,19.66,4.37Zm0,2.67a6.67,6.67,0,1,0,0,13.33,6.74,6.74,0,0,0,6.79-6.66A6.74,6.74,0,0,0,19.66,7ZM19.3,9.5a.59.59,0,0,1,.73,0h0l4,3.34a.47.47,0,0,1,.1.62.58.58,0,0,1-.48.25h-.53v3.16a.52.52,0,0,1-.54.5H21.28a.52.52,0,0,1-.54-.5h0V15a.52.52,0,0,0-.54-.5H19.12a.52.52,0,0,0-.54.5h0v1.83a.52.52,0,0,1-.54.5H16.78a.52.52,0,0,1-.54-.5h0V13.71h-.52a.55.55,0,0,1-.48-.25.47.47,0,0,1,.1-.62h0Z"/></g></g><g id="MARCHÉ" class="cls-3"><text class="cls-4" transform="translate(34.94 21.37)">MARCHÉ</text></g></g></g></svg>