<?xml version="1.0" encoding="UTF-8"?>
<svg width="42px" height="42px" viewBox="0 0 42 42" version="1.1" xmlns="http://www.w3.org/2000/svg" xmlns:xlink="http://www.w3.org/1999/xlink">
    <title>5C7BF2A7-D85A-4239-9C03-1AF3D8F08142</title>
    <defs>
        <filter id="filter-1">
            <feColorMatrix in="SourceGraphic" type="matrix" values="0 0 0 0 0.290222 0 0 0 0 0.290175 0 0 0 0 0.290237 0 0 0 1.000000 0"></feColorMatrix>
        </filter>
    </defs>
    <g id="Welcome" stroke="none" stroke-width="1" fill="none" fill-rule="evenodd">
        <g id="Boutique-/-Étagère-/-Filtre---Sélectionné" transform="translate(-7.000000, -104.000000)">
            <g id="Icons/Filtre-blanc-off" transform="translate(7.000000, 104.000000)">
                <rect id="Rectangle-Copy-9" fill="#FFFFFF" x="0" y="0" width="42" height="42" rx="21"></rect>
                <g filter="url(#filter-1)" id="Icons/Filtre-Copy">
                    <g transform="translate(10.000000, 10.000000)">
                        <path d="M11,0 C17.0656433,0 22,4.93435671 22,11 C22,17.0656433 17.0656433,22 11,22 C4.93435671,22 0,17.0656433 0,11 C0,4.93435671 4.93435671,0 11,0 Z M11,1.375 C5.69252015,1.375 1.375,5.69252015 1.375,11 C1.375,16.3074798 5.69252015,20.625 11,20.625 C16.3074798,20.625 20.625,16.3074798 20.625,11 C20.625,5.69252015 16.3074798,1.375 11,1.375 Z M10.0782297,13.5 C10.6275643,13.5 11.1011036,13.8654832 11.3124175,14.3886665 L11.359675,14.5226275 L16.0696866,14.5226275 C16.3073472,14.5226275 16.5,14.7363631 16.5,15 C16.5,15.2343439 16.3477805,15.4292597 16.1470574,15.4696811 L16.0697153,15.4773725 L11.359675,15.4773725 C11.1795005,16.0710649 10.6733422,16.5 10.0782297,16.5 C9.52889507,16.5 9.05535577,16.1345168 8.84404189,15.6113335 L8.79678434,15.4773725 L5.93028474,15.4773725 C5.69265282,15.4773725 5.5,15.2636369 5.5,15 C5.5,14.7656561 5.65221951,14.5707403 5.85294257,14.5303189 L5.93028474,14.5226275 L8.79678434,14.5226275 C8.9769589,13.9289351 9.48311719,13.5 10.0782297,13.5 Z M10.0782297,14.4547769 C9.80723635,14.4547769 9.58675844,14.6993826 9.58675844,15.0000318 C9.58675844,15.3006811 9.80723635,15.5452867 10.0782297,15.5452867 C10.349223,15.5452867 10.5697009,15.3006492 10.5697009,15 C10.5697009,14.6993508 10.349223,14.4547769 10.0782297,14.4547769 Z M13.7652536,9.5 C14.3145617,9.5 14.7881234,9.8654832 14.9994409,10.3886665 L15.0466989,10.5226275 L16.0696866,10.5226275 C16.3073472,10.5226275 16.5,10.7363631 16.5,11 C16.5,11.2343439 16.3477805,11.4292597 16.1470574,11.4696811 L16.0697153,11.4773725 L15.0467276,11.4773725 C14.8665531,12.0710649 14.3603661,12.5 13.7652823,12.5 C13.2159742,12.5 12.7424124,12.1345168 12.531095,11.6113335 L12.4838369,11.4773725 L5.93028474,11.4773725 C5.69265282,11.4773725 5.5,11.2636369 5.5,11 C5.5,10.7656561 5.65221951,10.5707403 5.85294257,10.5303189 L5.93028474,10.5226275 L12.4838369,10.5226275 C12.6640115,9.92893514 13.1701698,9.5 13.7652536,9.5 Z M13.7652823,10.4547451 C13.4942889,10.4547451 13.273811,10.6993508 13.273811,11 C13.273811,11.3006492 13.4942889,11.5452549 13.7652823,11.5452549 C14.0362756,11.5452549 14.2567535,11.3006492 14.2567535,11 C14.2567535,10.6993508 14.0362756,10.4547451 13.7652823,10.4547451 Z M8.23468903,5.5 C8.78402364,5.5 9.25756295,5.8654832 9.46887682,6.38866647 L9.51613437,6.52262746 L16.0696866,6.52262746 C16.3073472,6.52262746 16.5,6.73636306 16.5,7 C16.5,7.23434395 16.3477805,7.42925968 16.1470574,7.46968115 L16.0697153,7.47737254 L9.51616306,7.47737254 C9.33598849,8.07106486 8.82983021,8.5 8.23471772,8.5 C7.68538312,8.5 7.21184381,8.1345168 7.00052993,7.61133353 L6.95327238,7.47737254 L5.93028474,7.47737254 C5.69265282,7.47737254 5.5,7.26363694 5.5,7 C5.5,6.76565605 5.65221951,6.57074032 5.85294257,6.53031885 L5.93028474,6.52262746 L6.9532437,6.52262746 C7.13341826,5.92893514 7.63957655,5.5 8.23468903,5.5 Z M8.23468903,6.45474508 C7.9636957,6.45474508 7.7432178,6.69935077 7.7432178,7 C7.7432178,7.30064923 7.9636957,7.54525492 8.23468903,7.54525492 C8.50568237,7.54525492 8.72616027,7.30064923 8.72616027,7 C8.72616027,6.69935077 8.50568237,6.45474508 8.23468903,6.45474508 Z" id="Combined-Shape" fill="#4A4A4A" fill-rule="nonzero"></path>
                    </g>
                </g>
            </g>
        </g>
    </g>
</svg>