<svg id="Capa_1" enable-background="new 0 0 508.003 508.003" height="512" viewBox="0 0 508.003 508.003" width="512" xmlns="http://www.w3.org/2000/svg"><g><g><circle cx="358.182" cy="74.414" r="14.883"/><path d="m283.768 104.18c0 24.619-20.03 44.65-44.649 44.651-107.003.006-193.476 88.58-193.476 195.47v148.816c0 5.158 2.671 9.949 7.058 12.66 4.388 2.712 9.866 2.958 14.48.652 21.71-10.857 49.989-23.812 79.857-45.132l19.238 38.475c3.677 7.353 12.618 10.332 19.968 6.656 7.352-3.676 10.332-12.616 6.656-19.968l-18.996-37.992h5.684c6.769 0 13.456-.354 20.048-1.04l26.172 52.344c3.677 7.353 12.618 10.332 19.968 6.656 7.352-3.676 10.332-12.616 6.656-19.968l-22.361-44.722c82.28-22.375 142.994-98.059 142.994-187.74v-90.288c0-24.619 20.029-44.648 44.648-44.648h29.766c8.219 0 14.883-6.664 14.883-14.883s-6.664-14.883-14.883-14.883h-14.883v-14.882c0-40.757-32.742-73.842-73.422-74.39-1.01-.014-103.922-.008-120.056-.024-8.219 0-14.883 6.664-14.883 14.883s6.664 14.873 14.883 14.873l60.407.01c-10.165 13.758-15.758 30.76-15.758 48.121v26.293zm29.765 0v-26.293c0-24.666 17.684-48.126 44.71-48.126 24.876 0 44.587 20.287 44.587 44.653v16.378c-33.923 6.915-59.531 36.983-59.531 72.919v90.289c0 85.43-64.978 155.877-147.828 163.934 33.104-37.839 58.531-90.213 58.531-163.934 0-8.219-6.664-14.883-14.883-14.883s-14.883 6.664-14.883 14.883c0 131.705-90.567 185.793-148.828 215.137v-124.836c0-91.365 73.441-165.699 163.711-165.704 41.032-.002 74.414-33.385 74.414-74.417z"/></g></g></svg>