<?xml version="1.0" encoding="UTF-8"?>
<svg width="20px" height="20px" viewBox="0 0 20 20" version="1.1" xmlns="http://www.w3.org/2000/svg" xmlns:xlink="http://www.w3.org/1999/xlink">
    <title>62691F90-CEAD-4C5D-BDDF-CB1C9E0DB9EF</title>
    <g id="Welcome" stroke="none" stroke-width="1" fill="none" fill-rule="evenodd">
        <g id="Assets-2" transform="translate(-32.000000, -221.000000)">
            <g id="Icons/General" transform="translate(32.000000, 221.000000)">
                <g id="messager-copy-4" fill-rule="nonzero">
                    <path d="M16.4227295,19.6575928 C12.1452332,20.1141357 7.85476684,20.1141357 3.57727051,19.6575928 C1.87164305,19.4755554 0.52444457,18.128357 0.342407227,16.4225769 C-0.114135742,12.1450805 -0.114135742,7.85476684 0.342407227,3.57727051 C0.52444457,1.87164305 1.87164305,0.52444457 3.57727051,0.342407227 C7.85476684,-0.114135742 12.1450805,-0.114135742 16.4225769,0.342407227 C18.128357,0.52444457 19.4755554,1.87164305 19.6575928,3.57727051 C20.1141357,7.85476684 20.1141357,12.1450805 19.6575928,16.4225769 C19.4755554,18.128357 18.1285095,19.4755554 16.4227295,19.6575928 Z" id="Path" fill="#9B9B9B"></path>
                    <path d="M0.299682617,16.0079956 C0.313415547,16.1462402 0.327606211,16.2844848 0.342407227,16.4227295 C0.52444457,18.128357 1.87164305,19.4755554 3.57742309,19.6575928 C7.85491945,20.1141357 12.1452332,20.1141357 16.4227295,19.6575928 C18.1285095,19.4755554 19.4755554,18.128357 19.6575928,16.4227295 C19.6723938,16.2844848 19.6865845,16.1462402 19.70047,16.0079956 L0.299682617,16.0079956 Z" id="Path"></path>
                </g>
                <g id="messager-copy-5" transform="translate(2.000000, 2.000000)">
                    <g id="4.-Icons-/-User-#2" transform="translate(0.500000, 0.500000)">
                        <circle id="Oval" fill="#FFFFFF" cx="7.5" cy="7.5" r="7.5"></circle>
                        <path d="M7.5,0.625 C9.05625,0.625 10.3125,1.88125 10.3125,3.4375 C10.3125,4.99375 9.05625,6.25 7.5,6.25 C5.94375,6.25 4.6875,4.99375 4.6875,3.4375 C4.6875,1.88125 5.94375,0.625 7.5,0.625 L7.5,0.625 Z M7.5,13.9375 C5.15625,13.9375 3.084375,12.7375 1.875,10.91875 C1.903125,9.053125 5.625,8.03125 7.5,8.03125 C9.365625,8.03125 13.096875,9.053125 13.125,10.91875 C11.915625,12.7375 9.84375,13.9375 7.5,13.9375 L7.5,13.9375 Z" id="🔹-Icon-Color" fill="#9B9B9B"></path>
                    </g>
                </g>
            </g>
        </g>
    </g>
</svg>