<svg id="Calque_1" data-name="Calque 1" xmlns="http://www.w3.org/2000/svg" viewBox="0 0 103 37"><defs><style>.cls-1{fill:#fff;}.cls-2{fill:#f8f8f8;}.cls-3,.cls-5{fill:#191970;}.cls-4,.cls-5{isolation:isolate;}.cls-5{font-size:13px;font-family:Roboto-Medium, Roboto;font-weight:500;letter-spacing:-0.02em;}.cls-6{letter-spacing:-0.02em;}</style></defs><title>Plan de travail 1</title><g id="Welcome"><g id="Assets"><g id="Bouton_Marché" data-name="Bouton Marché"><rect id="path-1" x="2" y="2" width="99" height="33" rx="6"/><rect class="cls-1" x="1.5" y="1.5" width="100" height="34" rx="6.5"/><path class="cls-2" d="M95,2a6,6,0,0,1,6,6V29a6,6,0,0,1-6,6H8a6,6,0,0,1-6-6V8A6,6,0,0,1,8,2H95m0-1H8A7,7,0,0,0,1,8V29a7,7,0,0,0,7,7H95a7,7,0,0,0,7-7V8a7,7,0,0,0-7-7Z"/><g id="Group"><path id="Combined-Shape" class="cls-3" d="M24,8.35a7.91,7.91,0,0,1,7.92,7.89c0,2.12-1.29,4.84-3.82,8.08A43.89,43.89,0,0,1,24,28.84a43.89,43.89,0,0,1-4.1-4.52c-2.53-3.24-3.82-6-3.82-8.08A7.91,7.91,0,0,1,24,8.35Zm4.13,3.77c-6-4.62-12.9,2.24-8.26,8.25C25.89,25,32.77,18.13,28.13,12.12Zm-4.43.57a.46.46,0,0,1,.6,0h0l3.3,2.82a.4.4,0,0,1,.09.53.46.46,0,0,1-.4.2h-.44v2.68a.44.44,0,0,1-.45.43h-1a.44.44,0,0,1-.45-.43h0V17.37a.44.44,0,0,0-.45-.42h-.9a.44.44,0,0,0-.45.42h0v1.55a.44.44,0,0,1-.45.43h-1a.44.44,0,0,1-.45-.43h0V16.24h-.44a.46.46,0,0,1-.4-.2.4.4,0,0,1,.09-.53h0Z"/></g><g id="MARCHÉ" class="cls-4"><text class="cls-5" transform="translate(37.27 23)">M<tspan class="cls-6" x="11.18" y="0">ARCHÉ</tspan></text></g></g></g></g></svg>