<?xml version="1.0" encoding="UTF-8"?>
<svg width="31px" height="26px" viewBox="0 0 31 26" version="1.1" xmlns="http://www.w3.org/2000/svg" xmlns:xlink="http://www.w3.org/1999/xlink">
    <title>81FF7DBE-60A6-4E01-B986-92BE585B4E5E</title>
    <g id="Welcome" stroke="none" stroke-width="1" fill="none" fill-rule="evenodd">
        <g id="Assets" transform="translate(-123.000000, -506.000000)" fill="#4A4A4A" fill-rule="nonzero">
            <g id="Icons/Historique" transform="translate(123.000000, 506.000000)">
                <path d="M17.7769134,0 C20.0976417,0.000600461894 22.3770571,0.604124711 24.3847343,1.74950577 C30.6824941,5.34236952 32.8278406,13.2785543 29.1764311,19.4753811 C25.5250827,25.6722679 17.4597126,27.7832517 11.1619528,24.190388 L11.1619528,24.190388 L12.1432126,22.5292702 C13.2420039,23.1557321 14.440874,23.5940092 15.6887461,23.8254273 C21.7763406,24.9545358 27.6415039,21.0138245 28.7889311,15.0237968 C29.9363583,9.03376905 25.931622,3.26254965 19.8440276,2.13350115 C13.7564331,1.00445266 7.89126969,4.94504388 6.74384252,10.9351316 L6.74384252,10.9351316 L9.76377953,7.96740878 L11.144378,9.32589376 L5.57218898,14.8088314 L-1.95399252e-14,9.32589376 L1.38059843,7.96740878 L4.72469291,11.25794 C5.59977165,4.82032794 11.1762933,0.010448037 17.7769134,0 Z M9.38006299,20.299455 C9.77616732,20.7394134 10.2071161,21.1477275 10.6688819,21.5205543 L10.6688819,21.5205543 L9.43083465,23.0096998 C8.88845669,22.5711824 8.38183858,22.0915935 7.91549606,21.5753164 L7.91549606,21.5753164 Z M7.45562205,17.3269284 C7.69196654,17.868545 7.97212598,18.3905866 8.29335433,18.8881293 L8.29335433,18.8881293 L6.64620472,19.9180416 C6.26798031,19.3342125 5.93851378,18.7212009 5.66103937,18.0849515 L5.66103937,18.0849515 Z M18.2651024,4.32332564 L18.2651024,13.9307159 L21.780063,16.5247113 L20.6084094,18.0618938 L16.3123465,14.891455 L16.3123465,4.32332564 L18.2651024,4.32332564 Z" id="Combined-Shape"></path>
            </g>
        </g>
    </g>
</svg>