<?xml version="1.0" encoding="UTF-8"?>
<svg width="19px" height="16px" viewBox="0 0 19 16" version="1.1" xmlns="http://www.w3.org/2000/svg" xmlns:xlink="http://www.w3.org/1999/xlink">
    <title>C408109C-4F23-4B32-870B-DA944C090BF0</title>
    <g id="Welcome" stroke="none" stroke-width="1" fill="none" fill-rule="evenodd">
        <g id="Home-page-/-Profil_Non_Connecté" transform="translate(-426.000000, -115.000000)">
            <rect id="Rectangle" fill="#FFFFFF" x="0" y="100" width="1440" height="800"></rect>
            <rect id="Rectangle" fill="#FFFFFF" x="0" y="101" width="1440" height="44"></rect>
            <path d="M440.371889,122.3705 C440.803651,121.872278 441.499515,121.877166 441.926128,122.381353 L441.926128,122.381353 L444.682748,125.639086 C444.887607,125.881181 445.001718,126.208416 445,126.548778 C444.998243,126.889139 444.880741,127.214737 444.673432,127.453923 L444.673432,127.453923 L441.921041,130.629572 C441.706887,130.87663 441.42767,131 441.148642,131 C440.865155,131 440.581814,130.872719 440.366802,130.618621 C439.94019,130.114459 439.944355,129.301932 440.376117,128.803783 L440.376117,128.803783 L441.260596,127.783334 L427.099031,127.783334 C426.492052,127.783334 426,127.208748 426,126.500012 C426,125.791227 426.492052,125.216689 427.099031,125.216689 L427.099031,125.216689 L441.235287,125.216689 L440.362573,124.185313 C439.935961,123.681151 439.940127,122.868649 440.371889,122.3705 Z M429.073894,115.381348 C429.500527,114.87716 430.19637,114.872295 430.628133,115.370471 C431.059895,115.868622 431.06406,116.681151 430.637448,117.185315 L430.637448,117.185315 L429.764734,118.21667 L443.900969,118.21667 C444.507948,118.21667 445,118.791233 445,119.5 C445,120.208759 444.507948,120.783323 443.900969,120.783323 L443.900969,120.783323 L429.739404,120.783323 L430.623883,121.8038 C431.055645,122.301951 431.059811,123.114456 430.633199,123.61862 C430.418228,123.872718 430.134846,124 429.851379,124 C429.572309,124 429.293156,123.876678 429.07896,123.629571 L429.07896,123.629571 L426.326568,120.453936 C426.119239,120.214724 426.001758,119.889125 426,119.548763 C425.998262,119.208424 426.112372,118.881188 426.317253,118.639092 L426.317253,118.639092 Z" id="Combined-Shape" fill="#B9131B" fill-rule="nonzero"></path>
        </g>
    </g>
</svg>