<?xml version="1.0" encoding="UTF-8"?>
<svg width="16px" height="16px" viewBox="0 0 16 16" version="1.1" xmlns="http://www.w3.org/2000/svg" xmlns:xlink="http://www.w3.org/1999/xlink">
    <title>E39AF7DF-B534-4F4C-B9CA-E365CAA67F0B</title>
    <g id="Welcome" stroke="none" stroke-width="1" fill="none" fill-rule="evenodd">
        <g id="Home-page-/-Profil_Non_Connecté" transform="translate(-1094.000000, -115.000000)">
            <rect id="Rectangle" fill="#FFFFFF" x="0" y="100" width="1440" height="800"></rect>
            <rect id="Rectangle" fill="#FFFFFF" x="0" y="101" width="1440" height="44"></rect>
            <path d="M1102.00009,115 C1097.58102,115 1094,118.581129 1094,123.000566 C1094,127.418683 1097.58102,131 1102.00009,131 C1106.41785,131 1110,127.418683 1110,123.000566 C1110,118.581129 1106.41803,115 1102.00009,115 Z M1104.64506,126.733362 L1102.06966,125.378372 L1099.49426,126.733362 L1099.98534,123.862037 L1097.9,121.83031 L1100.78087,121.410511 L1102.06966,118.8 L1103.35896,121.410511 L1106.24033,121.83031 L1104.1555,123.862037 L1104.64506,126.733362 Z" id="Combined-Shape" fill="#B9131B" fill-rule="nonzero"></path>
        </g>
    </g>
</svg>