<svg xmlns="http://www.w3.org/2000/svg" viewBox="0 0 30 30"><defs><style>.cls-1{fill:#fff;}.cls-2{fill:#1a7ef5;}</style></defs><g id="Calque_2" data-name="Calque 2"><g id="Calque_1-2" data-name="Calque 1"><circle id="Cercle-de-survole-icone-Copy" class="cls-1" cx="15" cy="15" r="15"/><path class="cls-2" d="M25.61,4.39A15,15,0,1,0,30,15,14.93,14.93,0,0,0,25.61,4.39ZM15,28.24A13.24,13.24,0,1,1,28.24,15,13.26,13.26,0,0,1,15,28.24Z"/><path class="cls-2" d="M20.12,16.54a.29.29,0,0,0-.3.3v2.67a.91.91,0,0,1-.91.91H10.46a.91.91,0,0,1-.91-.91V11.66a.92.92,0,0,1,.91-.91h2.67a.29.29,0,0,0,.3-.3.3.3,0,0,0-.3-.3H10.46A1.51,1.51,0,0,0,9,11.66v7.85A1.5,1.5,0,0,0,10.46,21h8.45a1.5,1.5,0,0,0,1.51-1.51V16.84A.29.29,0,0,0,20.12,16.54Z"/><path class="cls-2" d="M20.3,9.38a1.36,1.36,0,0,0-1.92,0L13,14.75a.29.29,0,0,0-.08.14l-.71,2.55a.3.3,0,0,0,.37.37l2.55-.71a.37.37,0,0,0,.14-.07l5.37-5.38a1.36,1.36,0,0,0,0-1.92ZM13.66,15l4.4-4.4L19.48,12l-4.4,4.4Zm-.28.57,1.13,1.13-1.57.44Zm6.85-4.3-.32.32-1.42-1.42.32-.32a.75.75,0,0,1,1.06,0l.36.36A.75.75,0,0,1,20.23,11.22Z"/></g></g></svg>