<?xml version="1.0" encoding="UTF-8"?>
<svg width="19px" height="19px" viewBox="0 0 19 19" version="1.1" xmlns="http://www.w3.org/2000/svg" xmlns:xlink="http://www.w3.org/1999/xlink">
    <title>5AAEB52A-6499-46D5-BC49-571D6E29D92E</title>
    <g id="Welcome" stroke="none" stroke-width="1" fill="none" fill-rule="evenodd">
        <g id="Home-page-/-Profil_Non_Connecté" transform="translate(-808.000000, -114.000000)">
            <rect id="Rectangle" fill="#FFFFFF" x="0" y="100" width="1440" height="800"></rect>
            <rect id="Rectangle" fill="#FFFFFF" x="0" y="101" width="1440" height="44"></rect>
            <path d="M825,129 C824.73821,131.203746 822.592072,133 819.960222,133 L819.960222,133 L816,133 L816,132.027387 L819.960222,132.027387 C821.94995,132.027387 823.585786,130.690044 823.863265,129.044708 L823.863265,129.044708 L824.48619,129.044708 C824.662174,129.044708 824.832879,129.026552 825,129 Z M817.5,119 C820.5327,119 823,121.4673 823,124.5 C823,127.5327 820.5327,130 817.5,130 C814.4673,130 812,127.5327 812,124.5 C812,121.4673 814.4673,119 817.5,119 Z M818,127 L817,127 L817,128 L818,128 L818,127 Z M811,121 C810.618678,121.92416 810.406438,122.93724 810.406438,124 C810.406438,125.06276 810.618678,126.07584 811,127 L811,127 L809.775241,127 C808.796334,127 808,126.19256 808,125.2 L808,125.2 L808,122.8 C808,121.80744 808.796334,121 809.775241,121 L809.775241,121 Z M825.224712,121 C826.203645,121 827,121.80744 827,122.8 L827,122.8 L827,125.2 C827,126.19256 826.203645,127 825.224712,127 L825.224712,127 L824,127 C824.381332,126.07584 824.593499,125.06276 824.593499,124 C824.593499,122.93724 824.381332,121.92416 824,121 L824,121 Z M817.5,122 C816.672867,122 816,122.672867 816,123.5 L816,123.5 L817,123.5 C817,123.224133 817.224133,123 817.5,123 C817.775867,123 818,123.224133 818,123.5 C818,123.678233 817.9043,123.844233 817.7495,123.9336 C817.2871,124.201167 817,124.698733 817,125.232433 L817,125.232433 L817,126 L818,126 L818,125.232433 C818,125.0547 818.0962,124.8882 818.2505,124.798833 C818.7129,124.531733 819,124.0337 819,123.5 C819,122.672867 818.327133,122 817.5,122 Z M817.5,114.21875 C821.206573,114.21875 824.303367,117.04453 825,120.78125 C824.88092,120.762984 824.762418,120.74229 824.638681,120.74229 L824.638681,120.74229 L823.943475,120.74229 C823.250139,117.630416 820.627762,115.306007 817.5,115.306007 C814.372238,115.306007 811.749861,117.630416 811.056525,120.74229 L811.056525,120.74229 L810.361319,120.74229 C810.237582,120.74229 810.11908,120.762984 810,120.78125 C810.696633,117.04453 813.793427,114.21875 817.5,114.21875 Z" id="Combined-Shape" fill="#B9131B" fill-rule="nonzero"></path>
        </g>
    </g>
</svg>