<svg xmlns="http://www.w3.org/2000/svg" viewBox="0 0 19 24"><defs><style>.cls-1{fill:#191970;}</style></defs><g id="Calque_2" data-name="Calque 2"><g id="Calque_1-2" data-name="Calque 1"><g id="Group"><g id="Combined-Shape"><path class="cls-1" d="M9.5,0A9.43,9.43,0,0,1,19,9.33c0,2.5-1.54,5.71-4.58,9.55a51.71,51.71,0,0,1-4.52,5,.59.59,0,0,1-.8,0,51.71,51.71,0,0,1-4.52-5C1.54,15,0,11.83,0,9.33A9.43,9.43,0,0,1,9.5,0Zm0,2.67A6.74,6.74,0,0,0,2.71,9.33,6.74,6.74,0,0,0,9.5,16a6.74,6.74,0,0,0,6.79-6.67A6.74,6.74,0,0,0,9.5,2.67ZM9.14,5.13a.57.57,0,0,1,.72,0h0l4,3.33a.47.47,0,0,1,.1.63.55.55,0,0,1-.48.24h-.52V12.5a.52.52,0,0,1-.54.5H11.12a.52.52,0,0,1-.54-.5h0V10.67a.52.52,0,0,0-.54-.5H9a.52.52,0,0,0-.54.5h0V12.5a.52.52,0,0,1-.54.5H6.62a.52.52,0,0,1-.54-.5h0V9.33H5.56a.55.55,0,0,1-.48-.24.47.47,0,0,1,.1-.63h0Z"/></g></g></g></g></svg>