<svg xmlns="http://www.w3.org/2000/svg" viewBox="0 0 23 22"><defs><style>.cls-1{fill:#4a4a4a;}</style></defs><g id="Calque_2" data-name="Calque 2"><g id="Calque_1-2" data-name="Calque 1"><g id="Group"><g id="Icons_Menu" data-name="Icons/Menu"><path id="Combined-Shape" class="cls-1" d="M11.5,0A11.27,11.27,0,0,1,23,11,11.27,11.27,0,0,1,11.5,22,11.27,11.27,0,0,1,0,11,11.27,11.27,0,0,1,11.5,0Zm0,1.38A9.85,9.85,0,0,0,1.44,11,9.85,9.85,0,0,0,11.5,20.62,9.85,9.85,0,0,0,21.56,11,9.85,9.85,0,0,0,11.5,1.38Zm4.17,12.78a.76.76,0,0,1,0,1.51h-8a.76.76,0,0,1,0-1.51Zm0-3.91a.75.75,0,0,1,0,1.5h-8a.75.75,0,0,1,0-1.5Zm0-3.92a.76.76,0,0,1,0,1.51h-8a.76.76,0,0,1,0-1.51Z"/></g></g></g></g></svg>