<?xml version="1.0" encoding="UTF-8"?>
<svg width="19px" height="22px" viewBox="0 0 19 22" version="1.1" xmlns="http://www.w3.org/2000/svg" xmlns:xlink="http://www.w3.org/1999/xlink">
    <title>3CDE9AF3-4B39-4BA2-A92A-C294A156B7CB</title>
    <g id="Welcome" stroke="none" stroke-width="1" fill="none" fill-rule="evenodd">
        <g id="Home-page-/-Profil_Non_Connecté" transform="translate(-162.000000, -112.000000)">
            <rect id="Rectangle" fill="#FFFFFF" x="0" y="100" width="1440" height="800"></rect>
            <rect id="Rectangle" fill="#FFFFFF" x="0" y="101" width="1440" height="44"></rect>
            <path d="M170.529946,112.375011 C171.083187,111.874996 171.917475,111.874996 172.470545,112.375011 L172.470545,112.375011 L172.485015,112.388606 C174.180656,114.018227 176.165174,114.843024 178.730509,114.984182 C179.960917,115.051992 180.938877,116.055378 180.957091,117.268403 C180.961007,117.517152 180.967475,117.740723 180.977178,117.952042 L180.977178,117.952042 L180.977859,117.969162 C181.027566,120.553325 181.089359,123.769429 179.996154,126.691802 C179.396782,128.294399 178.489807,129.687523 177.300594,130.832739 C175.946771,132.136402 174.173847,133.172014 172.031187,133.910874 C171.961053,133.935043 171.888025,133.954681 171.814146,133.969284 C171.710137,133.989761 171.605106,134 171.500246,134 C171.395385,134 171.290525,133.989761 171.186345,133.969284 C171.112466,133.954681 171.039949,133.935211 170.970156,133.911209 C168.824943,133.173692 167.050146,132.138584 165.695131,130.834753 C164.505408,129.689873 163.598433,128.297084 162.999571,126.694823 C161.910452,123.781178 161.972415,120.571116 162.022292,117.991821 L162.022292,117.991821 L162.023313,117.952042 C162.033016,117.739213 162.039655,117.515641 162.0434,117.268571 C162.061615,116.055378 163.039745,115.051992 164.269982,114.98435 C166.835318,114.843024 168.819836,114.018227 170.515477,112.388606 L170.515477,112.388606 Z M171.499905,117.517655 C168.433759,117.517655 165.939408,119.977108 165.939408,123.000357 C165.939408,126.023605 168.433759,128.483058 171.499905,128.483058 C174.565882,128.483058 177.060403,126.023605 177.060403,123.000357 C177.060403,119.977108 174.565882,117.517655 171.499905,117.517655 Z M171.50009,119 C173.98132,119 176,120.794382 176,122.99992 C176,125.205618 173.98132,127 171.50009,127 C169.01868,127 167,125.205618 167,122.99992 C167,120.794382 169.01868,119 171.50009,119 Z M174.171782,121.375638 C173.901135,121.135063 173.46237,121.135063 173.191903,121.375638 L173.191903,121.375638 L170.457865,123.805734 L169.715839,123.146155 C169.445192,122.90558 169.006427,122.90558 168.73596,123.146155 C168.465313,123.38673 168.465313,123.776743 168.73596,124.017158 L168.73596,124.017158 L169.967926,125.112239 C170.103249,125.232687 170.280557,125.29275 170.457865,125.29275 C170.635173,125.29275 170.812661,125.232526 170.947985,125.112239 L170.947985,125.112239 L174.171782,122.246641 C174.442429,122.006066 174.442429,121.616053 174.171782,121.375638 Z" id="Combined-Shape" fill="#B9121B" fill-rule="nonzero"></path>
        </g>
    </g>
</svg>