<svg xmlns="http://www.w3.org/2000/svg" viewBox="0 0 16.69 17.33"><defs><style>.cls-1{fill:#fff;fill-rule:evenodd;}</style></defs><g id="Calque_2" data-name="Calque 2"><g id="Calque_1-2" data-name="Calque 1"><g id="_6.-Icons_Recherche-Copy" data-name="6.-Icons/Recherche-Copy"><g id="Icons_Recherche" data-name="Icons/Recherche"><path id="search" class="cls-1" d="M.94,6.84A6,6,0,0,1,2.11,3.29,5.49,5.49,0,0,1,6.59,1a5.51,5.51,0,0,1,2.46.59,5.88,5.88,0,0,1,3.19,5.27,5.76,5.76,0,0,1-5.65,5.87,5.51,5.51,0,0,1-4-1.71h0l0,0A6,6,0,0,1,.94,6.84ZM16.69,16l-4.82-5c.1-.14.19-.28.28-.43a7,7,0,0,0,1-3.67A6.72,6.72,0,0,0,6.59,0,6.51,6.51,0,0,0,1.18,2.94,7,7,0,0,0,0,6.84a6.72,6.72,0,0,0,6.59,6.85,6.36,6.36,0,0,0,3.94-1.37l4.83,5Z"/></g></g></g></g></svg>