<svg id="Layer_1" enable-background="new 0 0 512 512" height="512" viewBox="0 0 512 512" width="512" xmlns="http://www.w3.org/2000/svg"><g><path d="m390.144 276.784c-1.25 2.36-1.51 5.07-.73 7.62.79 2.56 2.52 4.65 4.88 5.91 1.44.76 3.05 1.16 4.68 1.16 3.71 0 7.1-2.03 8.84-5.31 2.58-4.87.72-10.94-4.15-13.52-1.44-.77-3.06-1.17-4.68-1.17-3.709.001-7.099 2.04-8.84 5.31z"/><path d="m500.229 351.292c-11.047-11.046-26.969-14.305-40.904-9.8-.574-2.415-1.227-4.8-1.968-7.148-3.51-11.16-8.89-21.47-15.971-30.649-1.91-2.47-4.8-3.89-7.93-3.89-2.22 0-4.33.71-6.09 2.07-2.12 1.63-3.48 3.99-3.82 6.64s.37 5.27 2 7.39c8.43 10.965 13.696 23.605 15.746 37.698-9.832 12.514-12.296 37.51-7.387 56.288-5.457 14.134-13.366 27.597-23.107 38.906 4.555-11.33 7.072-23.67 7.101-36.574.061-27.268-10.656-52.772-30.177-71.814-19.515-19.036-45.301-29.101-72.59-28.376-52.271 1.414-94.943 43.423-97.149 95.641-.651 15.433 2.168 30.485 8.223 44.319h-1.615c-16.469-17.63-33.393-44.782-45.815-73.679-.13-.3-.26-.59-.38-.89 5.45-.38 10.77-2.05 15.581-4.94 8.02-4.81 13.69-12.47 15.951-21.54 4.67-18.74-6.77-37.789-25.511-42.459l-26.931-6.71c-.68-6.24-.999-18.56-.998-18.828 1.17.035 2.342.058 3.518.058 30.559 0 59.332-11.855 81.018-33.381 3.561-3.535 6.858-7.267 9.891-11.164 3.71 1.659 23.385 10.586 29.615 13.336 19.991 8.79 43.662 18.41 67.592 23.03 2.22.43 4.39.88 6.43 1.34 2.93.65 6.06-.07 8.4-1.92 1.79-1.41 3.05-3.42 3.55-5.65.58-2.61.12-5.29-1.31-7.54-1.43-2.26-3.65-3.82-6.26-4.41-2.32-.52-4.69-1.01-7.03-1.46-27.381-5.24-55.662-18.11-83.013-30.559 0 0-5.04-2.284-7.006-3.169 8.43-16.022 12.977-33.929 13.123-52.532.07-8.944-.899-17.817-2.889-26.484 16.522-6.9 40.835-18.44 55.728-28.296 24.899-16.477 43.663-30.346 54.307-44.479 12.744-16.921 13.551-34.372 2.399-51.871-5.837-9.158-13.734-14.851-23.473-16.921-24.621-5.236-55.618 13.62-96.727 40.824-14.589 9.654-28.065 20.425-39.418 31.476-17.992-12.415-38.846-19.33-60.831-20.095-52.609-1.811-99.455 32.209-114.289 81.927h-18.967c-17.009 0-30.846 13.837-30.846 30.845 0 42.071 32.991 76.581 74.464 79.016 16.522 18.389 38.254 30.783 62.064 35.725-.021 1.048.117 11.662.437 16.061l-1.16-.29c-32.101-8.01-64.732 11.6-72.733 43.699l-5.77 23.12c-.71 2.83-1.04 5.67-1.04 8.47 0 15.69 10.64 30.019 26.551 33.979 2.84.71 5.68 1.05 8.47 1.05 15.701 0 30.031-10.65 33.991-26.559.89-3.57 3.12-6.58 6.27-8.47 3.15-1.9 6.86-2.45 10.43-1.56l13.21 3.3c1.64 4.27 3.38 8.55 5.22 12.83 7.2 16.65 15.441 32.299 24.501 46.509 4.847 7.611 9.821 14.628 14.879 21.015-21.232 5.774-36.895 25.209-36.895 48.244 0 5.523 4.477 10 10 10 0 0 143.072.01 143.341.01h.09c9.29 0 18.611-.9 27.721-2.67 9.2-1.79 18.251-4.48 26.921-8.01 18.021-7.33 34.171-18.09 48.022-31.97 10.854-10.947 20.248-24.141 27.47-38.504 3.652 2.556 7.868 3.901 12.397 3.901h.014c9.708-.005 19.296-6.228 27.752-13.523 4.52-3.899 13.612-13.011 13.612-13.011 15.694-15.694 15.694-41.229 0-56.922zm-469.383-196.285h9.478l-17.112 30.033c-2.071-6.022-3.212-12.472-3.212-19.188.001-5.98 4.866-10.845 10.846-10.845zm56.007 73.613c-1.899-2.29-4.72-3.615-7.696-3.615-17.617 0-33.45-7.749-44.296-20.008 0 0 31.391-55.102 31.408-55.134.458-.824.812-1.718 1.026-2.676 9.955-44.54 50.362-75.719 96.111-74.12 20.644.718 40.086 8.016 56.223 21.105 4.064 3.297 9.98 2.903 13.573-.902 11.477-12.159 26.065-24.225 42.187-34.893 28.165-18.637 63.213-41.836 81.532-37.94 4.417.939 7.837 3.515 10.764 8.106 12.407 19.468 1.471 34.284-50.876 68.924-16.449 10.885-45.661 24.131-60.224 29.656-4.962 1.882-7.59 7.314-5.985 12.373 3.003 9.467 4.486 19.316 4.408 29.273-.407 51.962-43.024 94.237-95.001 94.237-28.359-.001-55.022-12.534-73.154-34.386zm19.011 146.663c-2 8.04-10.17 12.95-18.211 10.95-8.04-2.01-12.951-10.18-10.94-18.22l5.76-23.11c5.34-21.4 27.091-34.469 48.492-29.129l48.612 12.11c8.04 2.01 12.95 10.18 10.94 18.22-.97 3.89-3.4 7.17-6.84 9.24s-7.48 2.67-11.37 1.7l-25.501-6.36c-18.061-4.501-36.432 6.529-40.942 24.599zm107.028 96.708h30.161c3.692 0 7.083-2.034 8.822-5.29s1.542-7.205-.511-10.273c-9.49-14.175-14.122-30.743-13.397-47.913 1.764-41.762 35.896-75.361 77.706-76.492 21.837-.601 42.472 7.471 58.084 22.699 15.618 15.234 24.191 35.638 24.142 57.453-.099 44.01-36.476 79.814-81.091 79.814h-132.203c4.127-11.639 15.249-19.998 28.287-19.998zm273.195-77.919s-7.24 7.255-11.036 10.652c-5.816 5.205-12.2 10.022-16.197 10.024-.412-.022-.73 0-1.406-.676-2.947-2.948-5.931-12.247-5.931-24.319s2.984-21.371 5.931-24.318c3.948-3.948 9.134-5.921 14.32-5.921 5.185 0 10.372 1.974 14.319 5.921 7.896 7.894 7.896 20.741 0 28.637z"/><circle cx="132.005" cy="130.007" r="10"/></g></svg>