<?xml version="1.0" encoding="UTF-8"?>
<svg width="22px" height="22px" viewBox="0 0 22 22" version="1.1" xmlns="http://www.w3.org/2000/svg" xmlns:xlink="http://www.w3.org/1999/xlink">
    <title>C6D95F87-4084-4889-BB74-4A41EBB296F2</title>
    <g id="Welcome" stroke="none" stroke-width="1" fill="none" fill-rule="evenodd">
        <g id="Assets" transform="translate(-367.000000, -378.000000)" fill="#4A4A4A" fill-rule="nonzero">
            <g id="Icons/Menu" transform="translate(367.000000, 378.000000)">
                <path d="M11,0 C17.0656433,0 22,4.93435671 22,11 C22,17.0656433 17.0656433,22 11,22 C4.93435671,22 0,17.0656433 0,11 C0,4.93435671 4.93435671,0 11,0 Z M11,1.375 C5.69252015,1.375 1.375,5.69252015 1.375,11 C1.375,16.3074798 5.69252015,20.625 11,20.625 C16.3074798,20.625 20.625,16.3074798 20.625,11 C20.625,5.69252015 16.3074798,1.375 11,1.375 Z M14.993159,14.1643836 C15.3674571,14.1643836 15.6712329,14.5019163 15.6712329,14.9178082 C15.6712329,15.3337001 15.3674571,15.6712329 14.993159,15.6712329 L7.3082109,15.6712329 C6.93391279,15.6712329 6.63013699,15.3337001 6.63013699,14.9178082 C6.63013699,14.5019163 6.93391279,14.1643836 7.3082109,14.1643836 L14.993159,14.1643836 Z M14.993159,10.2465753 C15.3674571,10.2465753 15.6712329,10.5841081 15.6712329,11 C15.6712329,11.4158919 15.3674571,11.7534247 14.993159,11.7534247 L7.3082109,11.7534247 C6.93391279,11.7534247 6.63013699,11.4158919 6.63013699,11 C6.63013699,10.5841081 6.93391279,10.2465753 7.3082109,10.2465753 L14.993159,10.2465753 Z M14.993159,6.32876712 C15.3674571,6.32876712 15.6712329,6.66629991 15.6712329,7.08219178 C15.6712329,7.49808365 15.3674571,7.83561644 14.993159,7.83561644 L7.3082109,7.83561644 C6.93391279,7.83561644 6.63013699,7.49808365 6.63013699,7.08219178 C6.63013699,6.66629991 6.93391279,6.32876712 7.3082109,6.32876712 L14.993159,6.32876712 Z" id="Combined-Shape"></path>
            </g>
        </g>
    </g>
</svg>