<?xml version="1.0" encoding="iso-8859-1"?>
<!-- Generator: Adobe Illustrator 19.0.0, SVG Export Plug-In . SVG Version: 6.00 Build 0)  -->
<svg version="1.1" id="Layer_1" xmlns="http://www.w3.org/2000/svg" xmlns:xlink="http://www.w3.org/1999/xlink" x="0px" y="0px"
	 viewBox="0 0 512.001 512.001" style="enable-background:new 0 0 512.001 512.001;" xml:space="preserve">
<g>
	<g>
		<path d="M155.243,48.192c-0.745-5.722-5.984-9.757-11.707-9.013c-5.722,0.744-9.758,5.985-9.014,11.707
			c1.393,10.712-2.182,21.229-9.809,28.854c-6.511,6.511-15.169,10.097-24.378,10.097c-9.208,0-17.867-3.587-24.378-10.098
			c-6.512-6.512-10.098-15.169-10.098-24.378s3.587-17.866,10.098-24.378c7.815-7.815,18.572-11.357,29.525-9.715
			c5.709,0.857,11.026-3.078,11.881-8.783c0.856-5.706-3.077-11.025-8.783-11.881C91.272-1.987,73.55,3.844,61.182,16.21
			C50.724,26.668,44.965,40.574,44.965,55.364s5.759,28.695,16.217,39.152c10.458,10.458,24.363,16.217,39.153,16.217
			c14.79,0,28.696-5.76,39.153-16.219C151.736,82.268,157.478,65.384,155.243,48.192z"/>
	</g>
</g>
<g>
	<g>
		<path d="M139.558,16.278l-0.091-0.09c-4.089-4.068-10.705-4.049-14.775,0.042c-4.069,4.091-4.05,10.706,0.042,14.775l0.091,0.09
			c2.037,2.027,4.702,3.039,7.366,3.039c2.684,0,5.367-1.027,7.408-3.081C143.669,26.962,143.65,20.347,139.558,16.278z"/>
	</g>
</g>
<g>
	<g>
		<path d="M94.565,203.653c-10.458-10.458-24.362-16.217-39.153-16.217s-28.696,5.76-39.153,16.217
			C5.801,214.112,0.041,228.016,0.041,242.806c0,14.79,5.76,28.696,16.218,39.153c10.508,10.509,24.429,16.228,39.032,16.228
			c2.415,0,4.851-0.157,7.29-0.476c5.722-0.744,9.758-5.985,9.014-11.707c-0.744-5.722-5.979-9.757-11.707-9.013
			c-10.71,1.395-21.228-2.182-28.853-9.809c-6.512-6.511-10.098-15.168-10.098-24.378c0-9.208,3.587-17.866,10.098-24.378
			c6.511-6.511,15.169-10.097,24.378-10.097s17.867,3.587,24.378,10.098c7.816,7.816,11.356,18.577,9.715,29.526
			c-0.856,5.706,3.077,11.025,8.783,11.881c5.719,0.857,11.026-3.078,11.881-8.783C112.765,233.737,106.931,216.019,94.565,203.653z
			"/>
	</g>
</g>
<g>
	<g>
		<path d="M94.587,267.206c-4.068-4.092-10.684-4.11-14.775-0.042l-0.091,0.09c-4.092,4.068-4.111,10.682-0.042,14.775
			c2.041,2.054,4.725,3.081,7.408,3.081c2.663,0,5.328-1.012,7.366-3.039l0.091-0.09C98.638,277.913,98.657,271.298,94.587,267.206z
			"/>
	</g>
</g>
<g id="SVGCleanerId_0">
	<g>
		<path d="M288.918,424.25c-15.151-2.504-25.439-16.867-22.936-32.018c0.941-5.693-2.912-11.071-8.604-12.011
			c-5.695-0.941-11.07,2.913-12.01,8.604c-4.382,26.518,13.626,51.658,40.144,56.04c0.578,0.095,1.151,0.141,1.716,0.141
			c5.021,0,9.45-3.629,10.294-8.745C298.462,430.569,294.61,425.191,288.918,424.25z"/>
	</g>
</g>
<g id="SVGCleanerId_1">
	<g>
		<path d="M201.764,352.638c-15.151-2.504-25.439-16.867-22.936-32.018c0.941-5.693-2.912-11.071-8.603-12.011
			c-5.708-0.941-11.071,2.913-12.011,8.604c-4.382,26.517,13.626,51.657,40.144,56.039c0.578,0.095,1.151,0.141,1.716,0.141
			c5.021,0,9.45-3.63,10.294-8.744C211.309,358.957,207.456,353.578,201.764,352.638z"/>
	</g>
</g>
<g id="SVGCleanerId_2">
	<g>
		<path d="M260.215,277.424c-5.375-0.888-10.082-3.816-13.253-8.244c-3.171-4.428-4.43-9.826-3.541-15.199
			c0.941-5.694-2.911-11.071-8.603-12.012c-5.689-0.938-11.07,2.911-12.011,8.603c-1.799,10.881,0.748,21.81,7.169,30.776
			c6.423,8.965,15.952,14.893,26.832,16.691c0.578,0.095,1.151,0.141,1.716,0.141c5.021,0,9.45-3.629,10.295-8.744
			C269.76,283.742,265.907,278.364,260.215,277.424z"/>
	</g>
</g>
<g id="SVGCleanerId_3">
	<g>
		<path d="M335.903,342.874c-15.151-2.504-25.439-16.867-22.936-32.018c0.941-5.693-2.912-11.071-8.603-12.011
			c-5.706-0.943-11.071,2.913-12.011,8.604c-4.382,26.518,13.626,51.658,40.144,56.04c0.578,0.095,1.151,0.141,1.716,0.141
			c5.021,0,9.45-3.629,10.294-8.745C345.447,349.193,341.595,343.815,335.903,342.874z"/>
	</g>
</g>
<g id="SVGCleanerId_4">
	<g>
		<path d="M381.218,259.696c-15.151-2.503-25.439-16.867-22.936-32.018c0.941-5.693-2.912-11.071-8.604-12.011
			c-5.698-0.942-11.069,2.913-12.01,8.604c-4.382,26.518,13.626,51.658,40.144,56.04c0.578,0.095,1.151,0.141,1.716,0.141
			c5.021,0,9.45-3.629,10.294-8.745C390.762,266.014,386.91,260.636,381.218,259.696z"/>
	</g>
</g>
<g>
	<g>
		<path d="M217.32,114.383c-12.246-12.247-29.132-17.988-46.322-15.755c-5.722,0.744-9.758,5.985-9.014,11.707
			s5.983,9.763,11.707,9.013c10.713-1.393,21.229,2.183,28.853,9.809c6.512,6.512,10.098,15.169,10.098,24.378
			c0,9.209-3.587,17.867-10.098,24.379c-6.511,6.511-15.169,10.097-24.378,10.097s-17.867-3.587-24.378-10.098
			c-7.816-7.816-11.356-18.577-9.715-29.526c0.856-5.706-3.077-11.025-8.783-11.881c-5.696-0.852-11.025,3.077-11.881,8.783
			c-2.595,17.314,3.239,35.033,15.604,47.398c10.458,10.458,24.363,16.217,39.153,16.217c14.79,0,28.696-5.76,39.152-16.216
			c10.458-10.458,16.217-24.363,16.217-39.153C233.538,138.745,227.779,124.841,217.32,114.383z"/>
	</g>
</g>
<g>
	<g>
		<path d="M153.901,114.312c-4.068-4.092-10.684-4.11-14.775-0.042l-0.091,0.09c-4.092,4.068-4.111,10.682-0.042,14.775
			c2.041,2.054,4.725,3.081,7.408,3.081c2.664,0,5.329-1.012,7.366-3.039l0.091-0.09
			C157.951,125.018,157.97,118.404,153.901,114.312z"/>
	</g>
</g>
<g>
	<g>
		<path d="M288.918,424.25c-15.151-2.504-25.439-16.867-22.936-32.018c0.941-5.693-2.912-11.071-8.604-12.011
			c-5.695-0.941-11.07,2.913-12.01,8.604c-4.382,26.518,13.626,51.658,40.144,56.04c0.578,0.095,1.151,0.141,1.716,0.141
			c5.021,0,9.45-3.629,10.294-8.745C298.462,430.569,294.61,425.191,288.918,424.25z"/>
	</g>
</g>
<g>
	<g>
		<path d="M201.764,352.638c-15.151-2.504-25.439-16.867-22.936-32.018c0.941-5.693-2.912-11.071-8.603-12.011
			c-5.708-0.941-11.071,2.913-12.011,8.604c-4.382,26.517,13.626,51.657,40.144,56.039c0.578,0.095,1.151,0.141,1.716,0.141
			c5.021,0,9.45-3.63,10.294-8.744C211.309,358.957,207.456,353.578,201.764,352.638z"/>
	</g>
</g>
<g>
	<g>
		<path d="M260.215,277.424c-5.375-0.888-10.082-3.816-13.253-8.244c-3.171-4.428-4.43-9.826-3.541-15.199
			c0.941-5.694-2.911-11.071-8.603-12.012c-5.689-0.938-11.07,2.911-12.011,8.603c-1.799,10.881,0.748,21.81,7.169,30.776
			c6.423,8.965,15.952,14.893,26.832,16.691c0.578,0.095,1.151,0.141,1.716,0.141c5.021,0,9.45-3.629,10.295-8.744
			C269.76,283.742,265.907,278.364,260.215,277.424z"/>
	</g>
</g>
<g>
	<g>
		<path d="M335.903,342.874c-15.151-2.504-25.439-16.867-22.936-32.018c0.941-5.693-2.912-11.071-8.603-12.011
			c-5.706-0.943-11.071,2.913-12.011,8.604c-4.382,26.518,13.626,51.658,40.144,56.04c0.578,0.095,1.151,0.141,1.716,0.141
			c5.021,0,9.45-3.629,10.294-8.745C345.447,349.193,341.595,343.815,335.903,342.874z"/>
	</g>
</g>
<g>
	<g>
		<path d="M381.218,259.696c-15.151-2.503-25.439-16.867-22.936-32.018c0.941-5.693-2.912-11.071-8.604-12.011
			c-5.698-0.942-11.069,2.913-12.01,8.604c-4.382,26.518,13.626,51.658,40.144,56.04c0.578,0.095,1.151,0.141,1.716,0.141
			c5.021,0,9.45-3.629,10.294-8.745C390.762,266.014,386.91,260.636,381.218,259.696z"/>
	</g>
</g>
<g>
	<g>
		<path d="M510.844,81.475c-1.865-3.706-5.721-5.952-9.893-5.734c-0.744,0.04-10.39,0.637-25.731,4.791
			c-3.524-1.045-9.591-2.573-17.824-3.679c-0.378-0.215-0.767-0.416-1.178-0.586c-5.373-2.22-9.989-5.468-13.719-9.655
			C432,54.83,433.045,36.704,444.826,26.205c8.566-7.632,21.742-6.873,29.375,1.692c2.587,2.902,3.888,6.638,3.665,10.519
			c-0.224,3.881-1.945,7.444-4.849,10.03c-4.307,3.838-4.687,10.443-0.849,14.751c3.838,4.307,10.442,4.69,14.751,0.849
			c7.069-6.3,11.261-14.975,11.807-24.428c0.544-9.454-2.625-18.553-8.925-25.622c-15.297-17.166-41.707-18.689-58.875-3.391
			c-18.918,16.859-21.821,45.08-7.62,65.346c-7.904,0.581-16.504,1.728-25.709,3.687c-27.806,5.915-55.559,17.988-82.487,35.884
			c-33.246,22.095-65.349,53.204-95.413,92.462c-53.822,70.28-108.728,114.795-145.313,139.762
			C34.716,374.82,7.425,385.397,7.165,385.497c-3.203,1.217-5.606,3.927-6.43,7.254c-0.823,3.326,0.036,6.845,2.301,9.416
			c1.394,1.584,34.81,38.801,92.523,40.455c1.336,0.039,2.67,0.057,4.009,0.057c27.551-0.001,55.584-8.133,83.867-24.254
			c-3.183,3.498-6.267,6.791-9.222,9.865c-32.543,33.865-57.37,50.131-57.609,50.286c-3.104,2.006-4.917,5.503-4.767,9.195
			s2.239,7.031,5.493,8.781c1.613,0.867,29.382,15.449,69.495,15.449c16.363,0,34.787-2.429,54.316-9.206
			c61.732-21.422,113.049-78.39,152.526-169.324c6.483-14.931,12.59-29.044,18.362-42.384
			c48.574-112.242,72.955-168.579,97.531-198.251C512.206,89.64,512.71,85.182,510.844,81.475z M96.545,421.746
			c-30.961-0.784-53.961-14.009-66.642-23.576c12.456-6.082,31.813-16.537,55.538-32.673
			c38.033-25.869,95.078-71.99,150.844-144.807c63.977-83.54,124.599-111.526,164.188-120.295
			c12.517-2.772,23.767-3.841,33.437-3.979c-4.064,2.024-8.242,4.24-12.518,6.677c-25.67,14.629-49.647,34.118-71.262,57.922
			c-26.827,29.544-50.073,65.861-69.091,107.942c-13.964,30.895-29.431,58.032-44.889,81.457
			C188.012,398.866,141.019,422.869,96.545,421.746z M392.851,282.789c-5.77,13.333-11.874,27.438-18.353,42.362
			c-36.965,85.146-84.007,138.227-139.822,157.769c-38.087,13.336-71.843,7.433-90.948,1.592
			c10.924-8.644,26.739-22.23,44.996-41.171c18.219-18.901,40.99-45.497,63.814-79.846c0.432-0.529,0.802-1.09,1.116-1.674
			c16.002-24.259,31.994-52.333,46.424-84.26c40.596-89.824,93.389-134.23,130.527-155.666
			c18.334-10.582,34.772-16.771,47.251-20.373C456.302,136.172,432.511,191.144,392.851,282.789z"/>
	</g>
</g>
<g>
</g>
<g>
</g>
<g>
</g>
<g>
</g>
<g>
</g>
<g>
</g>
<g>
</g>
<g>
</g>
<g>
</g>
<g>
</g>
<g>
</g>
<g>
</g>
<g>
</g>
<g>
</g>
<g>
</g>
</svg>
