<?xml version="1.0" encoding="UTF-8"?>
<svg width="42px" height="42px" viewBox="0 0 42 42" version="1.1" xmlns="http://www.w3.org/2000/svg" xmlns:xlink="http://www.w3.org/1999/xlink">
    <title>AA352A72-D45D-4F41-8BB9-CA7645A1BB39</title>
    <defs>
        <filter id="filter-1">
            <feColorMatrix in="SourceGraphic" type="matrix" values="0 0 0 0 0.098039 0 0 0 0 0.098039 0 0 0 0 0.439216 0 0 0 1.000000 0"></feColorMatrix>
        </filter>
    </defs>
    <g id="Welcome" stroke="none" stroke-width="1" fill="none" fill-rule="evenodd">
        <g id="Asset-4--Icones" transform="translate(-385.000000, -166.000000)">
            <g id="Sous-Catégories/Literies" transform="translate(385.000000, 166.000000)">
                <rect id="Rectangle-Copy-14" fill="#FFFFFF" x="0" y="0" width="42" height="42" rx="21"></rect>
                <g filter="url(#filter-1)" id="1-bed">
                    <g transform="translate(8.500000, 11.500000)">
                        <path d="M24.609375,13.8541667 L24.146875,13.8541667 C24.1931397,13.7273983 24.2174553,13.5934865 24.21875,13.4583333 L24.21875,9.10416667 C24.2166987,8.60273077 23.9040433,8.15664243 23.4375,7.9895 L23.4375,3.1825 C23.4352339,2.28206435 22.8355083,1.49581082 21.9761719,1.26666667 C20.7964844,0.95 19.6007813,0.6923125 18.4214844,0.495979167 C18.2827255,0.47046181 18.1411666,0.522715358 18.0511154,0.632693244 C17.9610643,0.742671129 17.9365039,0.893296092 17.9868566,1.02678232 C18.0372094,1.16026855 18.1546565,1.25588844 18.2941406,1.27695833 C19.4484375,1.46972917 20.6195313,1.72345833 21.7753906,2.0318125 C22.2924533,2.16871976 22.6539541,2.64095691 22.65625,3.1825 L22.65625,7.91666667 L21.4328125,7.91666667 L21.809375,7.3446875 C21.8969529,7.21167291 21.8969529,7.03832709 21.809375,6.9053125 L21.2601563,6.0705 C21.0428341,5.74014153 20.676963,5.54169551 20.2851562,5.54166667 L14.8710938,5.54166667 C14.4787335,5.54116564 14.1121602,5.73967437 13.8945312,6.0705 L13.3453125,6.9053125 C13.2577346,7.03832709 13.2577346,7.21167291 13.3453125,7.3446875 L13.7234375,7.91666667 L11.2765625,7.91666667 L11.653125,7.3446875 C11.7407029,7.21167291 11.7407029,7.03832709 11.653125,6.9053125 L11.1039062,6.0705 C10.8865841,5.74014153 10.520713,5.54169551 10.1289062,5.54166667 L4.71484375,5.54166667 C4.32248354,5.54116564 3.95591024,5.73967437 3.73828125,6.0705 L3.190625,6.9053125 C3.10304706,7.03832709 3.10304706,7.21167291 3.190625,7.3446875 L3.5671875,7.91666667 L2.34375,7.91666667 L2.34375,3.1825 C2.34497459,2.64067398 2.70590414,2.16753292 3.22304687,2.02983333 C7.6300719,0.837799234 12.2205968,0.505868495 16.75,1.05172917 C16.9642261,1.07796269 17.1588773,0.923249091 17.1847656,0.706166667 C17.210654,0.489084242 17.0579761,0.291837692 16.84375,0.265604167 C12.2161422,-0.291701322 7.52615608,0.0480234051 3.02382812,1.26666667 C2.16449171,1.49581082 1.56476606,2.28206435 1.5625,3.1825 L1.5625,7.9895 C1.09595669,8.15664243 0.783301326,8.60273077 0.78125,9.10416667 L0.78125,13.4583333 C0.782544701,13.5934865 0.806860254,13.7273983 0.853125,13.8541667 L0.390625,13.8541667 C0.17488877,13.8541667 0,14.0313873 0,14.25 L0,16.2291667 C0,16.4477794 0.17488877,16.625 0.390625,16.625 L1.5625,16.625 L1.5625,17.8125 C1.56250001,18.4683381 2.08716632,19 2.734375,19 C3.38158368,19 3.90624999,18.4683381 3.90625,17.8125 L3.90625,16.625 L21.09375,16.625 L21.09375,17.8125 C21.09375,18.4683381 21.6184163,19 22.265625,19 C22.9128337,19 23.4375,18.4683381 23.4375,17.8125 L23.4375,16.625 L24.609375,16.625 C24.8251112,16.625 25,16.4477794 25,16.2291667 L25,14.25 C25,14.0313873 24.8251112,13.8541667 24.609375,13.8541667 Z M14.5460937,7.74052083 L14.140625,7.125 L14.5453125,6.50947917 C14.6179365,6.39917621 14.7402395,6.3330485 14.8710938,6.33333242 L20.2851562,6.33333242 C20.4157338,6.33331353 20.5376857,6.3994099 20.6101563,6.50947917 L21.015625,7.125 L20.6109375,7.74052083 C20.5383135,7.85082379 20.4160105,7.9169515 20.2851562,7.91666758 L14.8710938,7.91666758 C14.7405162,7.91668647 14.6185643,7.8505901 14.5460937,7.74052083 Z M4.38984375,7.74052083 L3.984375,7.125 L4.3890625,6.50947917 C4.46168647,6.39917621 4.58398951,6.3330485 4.71484375,6.33333242 L10.1289062,6.33333242 C10.2594838,6.33331353 10.3814357,6.3994099 10.4539062,6.50947917 L10.859375,7.125 L10.4546875,7.74052083 C10.3820635,7.85082379 10.2597605,7.9169515 10.1289062,7.91666758 L4.71484375,7.91666758 C4.5842662,7.91668647 4.46231429,7.8505901 4.38984375,7.74052083 Z M1.5625,13.4583333 L1.5625,9.10416667 C1.5625,8.88555395 1.73738877,8.70833333 1.953125,8.70833333 L23.046875,8.70833333 C23.2626112,8.70833333 23.4375,8.88555395 23.4375,9.10416667 L23.4375,13.4583333 C23.4375,13.676946 23.2626112,13.8541667 23.046875,13.8541667 L1.953125,13.8541667 C1.73738877,13.8541667 1.5625,13.676946 1.5625,13.4583333 Z M3.125,17.8125 C3.125,18.0311127 2.95011123,18.2083333 2.734375,18.2083333 C2.51863877,18.2083333 2.34375,18.0311127 2.34375,17.8125 L2.34375,16.625 L3.125,16.625 L3.125,17.8125 Z M22.65625,17.8125 C22.65625,18.0311127 22.4813612,18.2083333 22.265625,18.2083333 C22.0498888,18.2083333 21.875,18.0311127 21.875,17.8125 L21.875,16.625 L22.65625,16.625 L22.65625,17.8125 Z M24.21875,15.8333333 L0.78125,15.8333333 L0.78125,14.6458333 L24.21875,14.6458333 L24.21875,15.8333333 Z" id="Shape" fill="#000000" fill-rule="nonzero"></path>
                    </g>
                </g>
            </g>
        </g>
    </g>
</svg>