<?xml version="1.0" encoding="UTF-8"?>
<svg width="20px" height="20px" viewBox="0 0 20 20" version="1.1" xmlns="http://www.w3.org/2000/svg" xmlns:xlink="http://www.w3.org/1999/xlink">
    <title>0501A629-4B82-4ADC-ABEC-9D7F89E5D35B</title>
    <defs>
        <filter id="filter-1">
            <feColorMatrix in="SourceGraphic" type="matrix" values="0 0 0 0 1.000000 0 0 0 0 1.000000 0 0 0 0 1.000000 0 0 0 1.000000 0"></feColorMatrix>
        </filter>
    </defs>
    <g id="Welcome" stroke="none" stroke-width="1" fill="none" fill-rule="evenodd">
        <g id="Assets-2" transform="translate(-172.000000, -221.000000)">
            <g id="messager-copy-3" transform="translate(172.000000, 221.000000)">
                <path d="M16.4227295,19.6575928 C12.1452332,20.1141357 7.85476684,20.1141357 3.57727051,19.6575928 C1.87164305,19.4755554 0.52444457,18.128357 0.342407227,16.4225769 C-0.114135742,12.1450805 -0.114135742,7.85476684 0.342407227,3.57727051 C0.52444457,1.87164305 1.87164305,0.52444457 3.57727051,0.342407227 C7.85476684,-0.114135742 12.1450805,-0.114135742 16.4225769,0.342407227 C18.128357,0.52444457 19.4755554,1.87164305 19.6575928,3.57727051 C20.1141357,7.85476684 20.1141357,12.1450805 19.6575928,16.4225769 C19.4755554,18.128357 18.1285095,19.4755554 16.4227295,19.6575928 Z" id="Path" fill="#9B9B9B" fill-rule="nonzero"></path>
                <g filter="url(#filter-1)" id="rechercher">
                    <g transform="translate(3.000000, 3.000000)">
                        <path d="M6.21899577,0 C8.14041541,0 9.31639443,0.501262351 9.31639443,0.774349667 C9.31639443,1.04743698 8.14041541,1.54869933 6.21899577,1.54869933 C4.29757612,1.54869933 3.1215971,1.04743698 3.1215971,0.774349667 C3.1215971,0.501262351 4.29757612,0 6.21899577,0 Z M3.1215971,1.85663239 L3.1215971,1.48210526 C3.79812059,1.87831418 5.03837064,2.06493245 6.21899577,2.06493245 C7.39962089,2.06493245 8.63987094,1.87831418 9.31639443,1.48210526 L9.31639443,1.85663239 C9.31639443,1.92993749 9.10990119,2.1405606 8.47261141,2.32124219 C6.7215487,2.80934059 3.95557169,2.55354709 3.24420246,2.01485783 C3.16625126,1.95523291 3.1215971,1.89767292 3.1215971,1.85663239 Z M6.24661424,3.09559185 C6.93077659,3.10080723 7.61360447,3.0343671 8.28392821,2.89735834 L8.28392821,5.40779996 C8.05291389,5.52137124 7.34903005,5.67856423 6.21899577,5.67856423 C5.08896148,5.67856423 4.38636822,5.52137124 4.15406332,5.40805808 L4.15406332,2.89451906 C4.84290406,3.03271471 5.54406111,3.10017523 6.24661424,3.09584997 L6.24661424,3.09559185 Z M6.21899577,7.74349667 C4.29757612,7.74349667 3.1215971,7.24223432 3.1215971,6.96914701 L3.1215971,6.64443638 C3.79812059,7.04064529 5.03837064,7.22726356 6.21899577,7.22726356 C7.39962089,7.22726356 8.63987094,7.04064529 9.31639443,6.64443638 L9.31639443,6.96914701 C9.31639443,7.24223432 8.14041541,7.74349667 6.21899577,7.74349667 Z M9.31639443,5.93668078 C9.31639443,6.2097681 8.14041541,6.71103045 6.21899577,6.71103045 C4.29757612,6.71103045 3.1215971,6.2097681 3.1215971,5.93668078 C3.1215971,5.85924582 3.27104658,5.70566647 3.64092761,5.55518451 C3.64392266,5.61503532 3.66764923,5.67197913 3.70803791,5.71624924 C4.04126638,6.06961081 5.26886872,6.19479734 6.21899577,6.19479734 C7.16912281,6.19479734 8.39672515,6.06961081 8.72995362,5.71624924 C8.77039746,5.67191174 8.794128,5.6148672 8.79706392,5.5549264 C9.16694495,5.70566647 9.31639443,5.85924582 9.31639443,5.93668078 L9.31639443,5.93668078 Z M14.9851502,0.98548901 C14.9634877,1.09640496 14.8949894,1.19256608 14.7972414,1.24928413 L8.80016132,3.74269006 L8.80016132,2.75771728 C9.43074007,2.55122404 9.77326074,2.27555556 9.82178665,1.94000403 C10.6278847,1.66278685 14.185247,0.438798145 14.2131236,0.430280298 C14.2211252,0.427441016 14.2291268,0.424085501 14.2368703,0.420471869 C14.4682713,0.321240919 14.7374889,0.390719866 14.8919702,0.589538213 C14.9783213,0.702077442 15.01225,0.846251103 14.9851502,0.98548901 L14.9851502,0.98548901 Z" id="Shape" fill="#000000" fill-rule="nonzero"></path>
                        <path d="M1.31478121,9.29219601 C1.41916248,9.29217373 1.51325581,9.2292859 1.55319778,9.13284894 C1.59313975,9.03641195 1.57106718,8.92541091 1.49726961,8.85159105 L0.464803388,7.81912482 C0.39999691,7.75202572 0.304028292,7.72511552 0.213783148,7.74873716 C0.123538001,7.77235883 0.0530605764,7.84283624 0.0294389262,7.9330814 C0.00581727606,8.02332654 0.0327274809,8.11929515 0.0998265779,8.18410163 L1.1322928,9.21656786 C1.18068778,9.26497746 1.24633003,9.29219601 1.31478121,9.29219601 Z" id="Shape" fill="#000000" fill-rule="nonzero"></path>
                        <path d="M2.12320226,8.64690462 C2.16931034,8.72694824 2.25461873,8.77631324 2.34699259,8.77640443 C2.43936644,8.77649534 2.52477199,8.72729861 2.57103776,8.64734602 C2.61730353,8.56739341 2.61740068,8.46883168 2.5712926,8.38878806 L1.53882638,6.58197217 C1.49428937,6.49956451 1.40860171,6.44775376 1.31493618,6.44657799 C1.22127064,6.4454417 1.13433038,6.49512184 1.08777307,6.57640522 C1.04121577,6.65768857 1.04234976,6.7578157 1.09073604,6.8380238 L2.12320226,8.64690462 Z" id="Shape" fill="#000000" fill-rule="nonzero"></path>
                        <path d="M11.9731881,7.81912482 L10.9407219,8.85159105 C10.8736228,8.91639753 10.8467126,9.01236614 10.8703343,9.10261128 C10.8939559,9.19285644 10.9644333,9.26333385 11.0546785,9.28695552 C11.1449236,9.31057716 11.2408922,9.28366696 11.3056987,9.21656786 L12.338165,8.18410163 C12.435984,8.08282214 12.434585,7.92183332 12.3350207,7.82226904 C12.2354565,7.72270476 12.0744676,7.72130582 11.9731881,7.81912482 L11.9731881,7.81912482 Z" id="Shape" fill="#000000" fill-rule="nonzero"></path>
                        <path d="M10.0907441,8.77597251 C10.1832345,8.77623779 10.2688024,8.7270042 10.3150474,8.64690462 L11.3475136,6.84008873 C11.4141599,6.71677192 11.3702048,6.56280415 11.2484996,6.49325834 C11.1267945,6.42371255 10.9718297,6.4640118 10.8994233,6.5840371 L9.86695705,8.39085299 C9.79629318,8.51459518 9.83927381,8.67219083 9.96297641,8.74292398 C10.001929,8.76495686 10.0459937,8.77635136 10.0907441,8.77597251 L10.0907441,8.77597251 Z" id="Shape" fill="#000000" fill-rule="nonzero"></path>
                        <path d="M6.21899577,9.80842912 C9.22502117,9.80842912 10.8650938,10.4906312 10.8650938,10.8408953 C10.8650938,11.1911595 9.22502117,11.8733616 6.21899577,11.8733616 C3.21297036,11.8733616 1.57289776,11.1911595 1.57289776,10.8408953 C1.57289776,10.4906312 3.21297036,9.80842912 6.21899577,9.80842912 Z M1.30910264,11.3571285 C2.0209881,12.0370075 4.1303166,12.3895947 6.21899577,12.3895947 C8.30767493,12.3895947 10.4170034,12.0370075 11.1288889,11.3571285 L11.6319581,12.3872716 C11.4208187,12.6753297 9.49991531,13.1639443 6.21899577,13.1639443 C2.93807623,13.1639443 1.01717282,12.6753297 0.806033474,12.3872716 L1.30910264,11.3571285 Z M6.21899577,14.4545271 C2.86812664,14.4545271 0.935091752,13.9447469 0.798548094,13.6801775 L0.798548094,12.9765517 C2.20579956,13.670369 6.0215366,13.6801775 6.21899577,13.6801775 C6.41645493,13.6801775 10.2352894,13.6701109 11.6412503,12.9757774 L11.6433152,13.65927 C11.5028998,13.9447469 9.56986489,14.4545271 6.21899577,14.4545271 L6.21899577,14.4545271 Z" id="Shape" fill="#000000" fill-rule="nonzero"></path>
                    </g>
                </g>
            </g>
        </g>
    </g>
</svg>