<?xml version="1.0" encoding="UTF-8"?>
<svg width="18px" height="11px" viewBox="0 0 18 11" version="1.1" xmlns="http://www.w3.org/2000/svg" xmlns:xlink="http://www.w3.org/1999/xlink">
    <title>EF2909D0-B2C9-4E69-9F37-8E4F77B0C6C2</title>
    <defs>
        <filter id="filter-1">
            <feColorMatrix in="SourceGraphic" type="matrix" values="0 0 0 0 0.098039 0 0 0 0 0.098039 0 0 0 0 0.439216 0 0 0 1.000000 0"></feColorMatrix>
        </filter>
    </defs>
    <g id="Welcome" stroke="none" stroke-width="1" fill="none" fill-rule="evenodd">
        <g id="Home-page-/-Récapitulatif_Produits-/-Modification_Produits" transform="translate(-834.000000, -410.000000)">
            <g id="Icons-/-Livraison" transform="translate(612.500000, 401.000000)" filter="url(#filter-1)">
                <g transform="translate(222.000000, 9.000000)">
                    <path d="M6.02083333,10.0833333 C5.16589509,10.0833333 4.45007166,9.4639245 4.28555459,8.64277409 L3.1875,8.64285714 C2.992,8.64285714 2.83333333,8.48152381 2.83333333,8.2827381 C2.83333333,8.08395238 2.992,7.92261905 3.1875,7.92261905 L4.28565171,7.92221769 C4.45035319,7.1013081 5.16606321,6.48214286 6.02083333,6.48214286 C6.87560345,6.48214286 7.59131348,7.1013081 7.75601496,7.92221769 L9.63404167,7.92261905 L10.85875,2.44160714 L10.86,2.436 L11.243375,0.720238095 L3.1875,0.720238095 C2.992,0.720238095 2.83333333,0.558904762 2.83333333,0.360119048 C2.83333333,0.161333333 2.992,2.39364084e-13 3.1875,2.39364084e-13 L11.6875,2.39364084e-13 C11.7951667,2.39364084e-13 11.8971667,0.0496964286 11.9644583,0.135404762 C12.03175,0.220392857 12.05725,0.33275 12.0331667,0.439345238 L11.648,2.16 L13.8125,2.16071429 C15.569875,2.16071429 17,3.614875 17,5.40178571 L16.462375,8.349 C16.4312083,8.51969643 16.2852917,8.64285714 16.1145833,8.64285714 L15.5477787,8.64277409 C15.3832617,9.4639245 14.6674382,10.0833333 13.8125,10.0833333 C12.9575618,10.0833333 12.2417383,9.4639245 12.0772213,8.64277409 L7.75611208,8.64277409 C7.59159501,9.4639245 6.87577157,10.0833333 6.02083333,10.0833333 Z M13.8125,7.20238095 C13.2267083,7.20238095 12.75,7.68710119 12.75,8.2827381 C12.75,8.878375 13.2267083,9.36309524 13.8125,9.36309524 C14.3982917,9.36309524 14.875,8.878375 14.875,8.2827381 C14.875,7.68710119 14.3982917,7.20238095 13.8125,7.20238095 Z M6.02083333,7.20238095 C5.43504167,7.20238095 4.95833333,7.68710119 4.95833333,8.2827381 C4.95833333,8.878375 5.43504167,9.36309524 6.02083333,9.36309524 C6.606625,9.36309524 7.08333333,8.878375 7.08333333,8.2827381 C7.08333333,7.68710119 6.606625,7.20238095 6.02083333,7.20238095 Z M13.8125,2.88095238 L11.4870417,2.88095238 L10.401,7.737 L10.3600833,7.92261905 L12.0773184,7.92221769 C12.2420199,7.1013081 12.9577299,6.48214286 13.8125,6.48214286 C14.6672701,6.48214286 15.3829801,7.1013081 15.5476816,7.92221769 L15.820625,7.92261905 L16.2980417,5.33552381 C16.2916667,4.01172619 15.1795833,2.88095238 13.8125,2.88095238 Z M4.60416667,5.76190476 C4.79966667,5.76190476 4.95833333,5.9232381 4.95833333,6.12202381 C4.95833333,6.32080952 4.79966667,6.48214286 4.60416667,6.48214286 L0.354166667,6.48214286 C0.158666667,6.48214286 1.02140518e-14,6.32080952 1.02140518e-14,6.12202381 C1.02140518e-14,5.9232381 0.158666667,5.76190476 0.354166667,5.76190476 L4.60416667,5.76190476 Z M4.60416667,3.60119048 C4.79966667,3.60119048 4.95833333,3.76252381 4.95833333,3.96130952 C4.95833333,4.16009524 4.79966667,4.32142857 4.60416667,4.32142857 L1.0625,4.32142857 C0.867,4.32142857 0.708333333,4.16009524 0.708333333,3.96130952 C0.708333333,3.76252381 0.867,3.60119048 1.0625,3.60119048 L4.60416667,3.60119048 Z M4.60416667,1.44047619 C4.79966667,1.44047619 4.95833333,1.60180952 4.95833333,1.80059524 C4.95833333,1.99938095 4.79966667,2.16071429 4.60416667,2.16071429 L1.77083333,2.16071429 C1.57533333,2.16071429 1.41666667,1.99938095 1.41666667,1.80059524 C1.41666667,1.60180952 1.57533333,1.44047619 1.77083333,1.44047619 L4.60416667,1.44047619 Z" id="Combined-Shape" fill="#00B517" fill-rule="nonzero"></path>
                </g>
            </g>
        </g>
    </g>
</svg>