<svg xmlns="http://www.w3.org/2000/svg" viewBox="0 0 44 44"><defs><style>.cls-1{fill:#f5f5f5;}.cls-2{fill:#1a7ef5;}</style></defs><g id="Calque_2" data-name="Calque 2"><g id="Calque_1-2" data-name="Calque 1"><circle id="Cercle-de-survole-icone" class="cls-1" cx="22" cy="22" r="22"/><g id="Icons_Chariot" data-name="Icons/Chariot"><path id="Combined-Shape" class="cls-2" d="M18,25.16a.27.27,0,0,1,.49.21h0l-.75,1.75a.31.31,0,0,0,0,.28.3.3,0,0,0,.26.14h11a.27.27,0,0,1,0,.53h-.59v.63a1.12,1.12,0,1,1-.53,0h0v-.63H18.87v.63a1.13,1.13,0,0,1,.85,1.09,1.12,1.12,0,1,1-1.38-1.09h0v-.63h-.29a.83.83,0,0,1-.77-1.16h0Zm.57,4a.59.59,0,0,0,0,1.17.59.59,0,1,0,0-1.17Zm9.63,0a.59.59,0,1,0,0,1.17.59.59,0,0,0,0-1.17ZM13.79,13.1a.87.87,0,0,1,.59.24h0l1.55,1.56a.8.8,0,0,1,.25.55h0L30.8,16.78a.28.28,0,0,1,.24.3h0l-.76,5.82a1.12,1.12,0,0,1-1,1h0l-10,.73h-.1a1.4,1.4,0,0,1-1.34-1h0l-2.21-7.34a.67.67,0,0,1-.24,0,.85.85,0,0,1-.59-.24h0L13.2,14.52a.85.85,0,0,1,0-1.18A.87.87,0,0,1,13.79,13.1Zm6,8.69-2,0,.49,1.63a.87.87,0,0,0,.89.62h0l1-.08Zm2.58-.06-2,.05L20.77,24l1.76-.13ZM25,21.67l-2.06,0,.13,2.07,1.87-.13Zm2.64-.06-2.11.05-.06,2,2-.15Zm2.29-.05-1.76,0L28,23.43l1.2-.09a.58.58,0,0,0,.53-.5h0Zm-13-2.76.76,2.51,2.06,0-.44-2.38Zm2.92.1.44,2.35,2.11-.05L22.23,19Zm2.94.11.14,2.18,2.1-.05.05-2.05Zm2.82.1,0,2,2.14-.05.16-1.89Zm2.78.1-.15,1.86L30,21l.23-1.75Zm.17-2.1-.13,1.58,1.89.06.19-1.47Zm-2.89-.26,0,1.73,2.27.09L28,17.06Zm-3-.28.12,1.91,2.34.08.05-1.76Zm-3.28-.3.39,2.1,2.48.09-.12-1.94ZM16.05,16l.69,2.29,2.44.09-.4-2.13Zm-2.26-2.34a.3.3,0,0,0-.21.51h0l1.55,1.56a.31.31,0,0,0,.22.09.29.29,0,0,0,.21-.09.3.3,0,0,0,0-.43h0L14,13.72A.29.29,0,0,0,13.79,13.63Z"/></g></g></g></svg>