<svg xmlns="http://www.w3.org/2000/svg" viewBox="0 0 22 22"><defs><style>.cls-1{fill:#4a4a4a;}</style></defs><g id="Calque_2" data-name="Calque 2"><g id="Calque_1-2" data-name="Calque 1"><g id="Group"><g id="Combined-Shape"><path class="cls-1" d="M11.91,11.61a12.7,12.7,0,0,1,4.79.81.32.32,0,0,1,.18.42.31.31,0,0,1-.42.18,11.67,11.67,0,0,0-1.19-.38,3.29,3.29,0,0,1-.71,1.48h0l1,1,.26-.26a.33.33,0,0,1,.45,0,.32.32,0,0,1,0,.46h0l-.25.26.76.76.26-.26a.31.31,0,0,1,.45,0,.32.32,0,0,1,0,.46h0l-.26.26.76.76.26-.26a.32.32,0,0,1,.46,0,.31.31,0,0,1,0,.45h0l-.26.26,1,1A3.21,3.21,0,0,1,21,18.33a8,8,0,0,0-2-3.71,6.9,6.9,0,0,0-1.44-1.09.33.33,0,0,1-.13-.44.32.32,0,0,1,.44-.12,7.42,7.42,0,0,1,1.59,1.19A9.24,9.24,0,0,1,21.77,19,12.86,12.86,0,0,1,22,21.3v.18c0,.12,0,.2,0,.21a.32.32,0,0,1-.25.3,2,2,0,0,1-.35,0A13.5,13.5,0,0,1,19,21.77a9.24,9.24,0,0,1-4.82-2.33,9.32,9.32,0,0,1-2.33-4.82,15,15,0,0,1-.23-2.32v-.17c0-.13,0-.2,0-.22A.32.32,0,0,1,11.91,11.61ZM21.1,19a2.82,2.82,0,0,0-1.4.75A2.79,2.79,0,0,0,19,21.1a12.77,12.77,0,0,0,2.4.25A12.76,12.76,0,0,0,21.1,19Zm-7-4.39a3.38,3.38,0,0,1-1.46.71,8,8,0,0,0,2,3.7,8.09,8.09,0,0,0,3.7,2A3.44,3.44,0,0,1,19,19.5h0l-1-1-.25.26a.34.34,0,0,1-.46,0,.32.32,0,0,1,0-.46h0l.26-.26-.76-.76-.26.26a.32.32,0,0,1-.46,0,.34.34,0,0,1,0-.46h0l.26-.25L15.58,16l-.26.26a.32.32,0,0,1-.46,0,.33.33,0,0,1,0-.45h0l.26-.26Zm-9-.79a3.08,3.08,0,1,1-3.07,3.07A3.08,3.08,0,0,1,5.14,13.78Zm0,.64a2.37,2.37,0,0,0-1.68.69,2.74,2.74,0,0,1,.38,3.79,2.32,2.32,0,0,0,1.3.39,2.35,2.35,0,0,0,1.31-.39,2.74,2.74,0,0,1,.38-3.79A2.4,2.4,0,0,0,5.14,14.42ZM3.05,15.61a2.51,2.51,0,0,0-.34,1.24,2.44,2.44,0,0,0,.63,1.64,2.08,2.08,0,0,0-.29-2.88Zm4.18,0A2.11,2.11,0,0,0,6.5,17.2,2.09,2.09,0,0,0,7,18.49a2.44,2.44,0,0,0,.63-1.64A2.41,2.41,0,0,0,7.23,15.61Zm5-3.36a12.77,12.77,0,0,0,.25,2.4,2.75,2.75,0,0,0,1.39-.75,2.67,2.67,0,0,0,.75-1.4A12.68,12.68,0,0,0,12.25,12.25ZM5.83,0A5.84,5.84,0,1,1,0,5.83,5.84,5.84,0,0,1,5.83,0ZM6.92,7.88H4.75L3.56,9.51,4,10.65v0a5.27,5.27,0,0,0,3.67,0h0L8.1,9.51ZM9.23,9.75l-.54,0-.19.51a4.87,4.87,0,0,0,.73-.53Zm-6.8,0a5.44,5.44,0,0,0,.73.53h0L3,9.77ZM10,4.81l-1.87.61-.63,2.2L8.62,9.13l1.23-.05h0A5.2,5.2,0,0,0,11,5.83V5.59h0Zm-8.39,0-1,.76h0l0,0v.24A5.14,5.14,0,0,0,1.79,9.08h0L3,9.13l1.1-1.51-.63-2.2ZM16.85,2.07a3.08,3.08,0,1,1-3.07,3.07A3.08,3.08,0,0,1,16.85,2.07Zm0,.64a2.44,2.44,0,1,0,2.44,2.43A2.43,2.43,0,0,0,16.85,2.71Zm0,4.18a.32.32,0,0,1,0,.64h0a.32.32,0,0,1,0-.64h0ZM5.83,4.16,4.19,5.25a.08.08,0,0,0,0,0s0,0,0,0h0l.53,1.85.1,0H6.88l.1,0H7l.53-1.85,0,0s0,0,0,0h0Zm12.45,1.7a.32.32,0,0,1,0,.64h-.05a.32.32,0,1,1,0-.64h.05Zm-1.38,0a.32.32,0,0,1,0,.64h0a.32.32,0,1,1,0-.64h0Zm-1.38,0a.32.32,0,0,1,0,.64h0a.32.32,0,1,1,0-.64h0Zm2.76-1a.33.33,0,0,1,0,.65h-.05a.33.33,0,0,1,0-.65h.05Zm-1.38,0a.33.33,0,0,1,0,.65h0a.33.33,0,0,1,0-.65h0Zm-1.38,0a.33.33,0,0,1,0,.65h0a.33.33,0,1,1,0-.65h0ZM7.2.83l-1,.7V3.59L8,4.8l1.86-.6L10.16,3h0V3A5.25,5.25,0,0,0,7.2.83ZM4.46.83A5.2,5.2,0,0,0,1.5,3h0L1.84,4.2l1.86.6L5.51,3.59V1.53l-1-.68h0Zm6.15,3-.15.52.43.34a4.81,4.81,0,0,0-.28-.86Zm-9.55,0a4.81,4.81,0,0,0-.28.86h0l.43-.34Zm15.84,0a.32.32,0,0,1,0,.64h0a.32.32,0,1,1,0-.64h0Zm-1.38,0a.32.32,0,0,1,0,.64h0a.32.32,0,1,1,0-.64h0Zm2.76,0a.32.32,0,0,1,0,.64h-.05a.32.32,0,1,1,0-.64h.05Zm-1.38-1a.32.32,0,0,1,0,.64h0a.32.32,0,0,1,0-.64h0ZM5.83.65a3.39,3.39,0,0,0-.45,0h0l.45.3.46-.3A3.46,3.46,0,0,0,5.83.65Z"/></g></g></g></g></svg>