<svg xmlns="http://www.w3.org/2000/svg" viewBox="0 0 22 22"><defs><style>.cls-1{fill:#4a4a4a;}</style></defs><g id="Calque_2" data-name="Calque 2"><g id="Calque_1-2" data-name="Calque 1"><g id="Group"><g id="Combined-Shape"><path class="cls-1" d="M10.63,9.53a1.84,1.84,0,0,1,1.84,1.84h0v3.3h1.1a.36.36,0,0,1,.36.36h0v5.14a.36.36,0,0,1-.36.36H13.2v1.1a.36.36,0,0,1-.37.37H11.37a.36.36,0,0,1-.37-.37h0v-1.1H2.93v1.1a.36.36,0,0,1-.36.37H1.1a.37.37,0,0,1-.37-.37h0v-1.1H.37A.36.36,0,0,1,0,20.17H0V15a.36.36,0,0,1,.37-.36h1.1v-3.3A1.83,1.83,0,0,1,3.3,9.53h7.33ZM19.8,0a.36.36,0,0,1,.35.26h0L22,6.12a.52.52,0,0,1,0,.11.36.36,0,0,1-.37.37H18.7V19.8h2.57a.36.36,0,0,1,.36.37h0v1.46a.36.36,0,0,1-.36.37H15.4a.37.37,0,0,1-.37-.37h0V20.17a.37.37,0,0,1,.37-.37H18V6.6H15l-.11,0a.37.37,0,0,1-.24-.46h0L16.52.26A.35.35,0,0,1,16.87,0H19.8ZM2.2,20.53H1.47v.74H2.2Zm10.27,0h-.74v.74h.74Zm8.43,0H15.77v.74H20.9Zm-18-5.13H.73v4.4h2.2Zm7.34,2.2H3.67v2.2h6.6Zm2.93-2.2H11v4.4h2.2Zm-2.57-5.13H3.3a1.1,1.1,0,0,0-1.1,1.1h0v3.3H3.3a.37.37,0,0,1,.37.36h0v1.84h6.6V15a.36.36,0,0,1,.36-.36h1.1v-3.3a1.1,1.1,0,0,0-1.1-1.1ZM6.74.08a.36.36,0,0,1,.46,0h0L8.93,1.47H12.1v6.6H1.83V1.47H5ZM11.37,2.2H2.57V7.33h8.8ZM11,2.57V7H2.93V2.57Zm-.73.73H3.67V6.23h6.6ZM19.53.73H17.14L15.53,5.87h5.6ZM7,.84l-.79.63H7.75Z"/></g></g></g></g></svg>