<?xml version="1.0" standalone="no"?>
<!DOCTYPE svg PUBLIC "-//W3C//DTD SVG 1.0//EN" "http://www.w3.org/TR/2001/REC-SVG-20010904/DTD/svg10.dtd">
<svg xmlns="http://www.w3.org/2000/svg" xmlns:xlink="http://www.w3.org/1999/xlink" id="body_1" width="93" height="70">

<g transform="matrix(0.09082031 0 0 0.091145836 0 0)">
	<g transform="matrix(10.343435 0 0 10.343435 -0 213.33334)">
	</g>
    <path transform="matrix(10.343435 0 0 10.343435 -0 213.33334)"  d="M0 15C 0 6.7157288 6.7157288 0 15 0L15 0L84 0C 92.28427 0 99 6.7157288 99 15L99 15L99 18C 99 26.284271 92.28427 33 84 33L84 33L15 33C 6.7157288 33 0 26.284271 0 18L0 18L0 15z" stroke="none" fill="#000000" fill-rule="nonzero" />
	<g transform="matrix(10.343435 0 0 10.343435 -0 213.33334)">
	</g>
    <path transform="matrix(10.343435 0 0 10.343435 -0 213.33334)"  d="M0 6.38C 0 2.8564234 2.8564234 0 6.38 0L6.38 0L92.62 0C 96.14358 0 99 2.8564234 99 6.38L99 6.38L99 26.619999C 99 30.143578 96.14358 33 92.62 33L92.62 33L6.38 33C 2.8564234 33 0 30.143578 0 26.619999L0 26.619999L0 6.38z" stroke="none" fill="#FFFFFF" fill-rule="nonzero" />
	<g transform="matrix(10.343435 0 0 10.343435 -0 213.33334)">
	</g>
    <path transform="matrix(10.343435 0 0 10.343435 -0 213.33334)"  d="M22 4C 27.196495 3.961134 31.445038 8.13365 31.5 13.33C 31.5 15.83 29.96 19.04 26.92 22.880001C 25.5237 24.643162 24.013771 26.31343 22.4 27.880001C 22.174047 28.088394 21.825953 28.088394 21.6 27.880001C 19.986229 26.31343 18.4763 24.643162 17.08 22.880001C 14.08 19.04 12.5 15.880001 12.5 13.330001C 12.554963 8.13365 16.803505 3.961135 22 4zM22 6.67C 18.289158 6.6422114 15.2539425 9.619314 15.21 13.33C 15.209999 17.080013 18.249987 20.12 22 20.12C 25.750015 20.12 28.79 17.080013 28.79 13.33C 28.74606 9.619314 25.710844 6.6422105 22 6.67zM21.64 9.13C 21.849625 8.959237 22.150375 8.959237 22.359999 9.13L22.359999 9.13L26.359999 12.46C 26.552551 12.611773 26.596088 12.886061 26.46 13.09C 26.352533 13.247927 26.170822 13.338783 25.98 13.33L25.98 13.33L25.46 13.33L25.46 16.5C 25.454796 16.637949 25.394953 16.768166 25.293661 16.861956C 25.192368 16.955746 25.057938 17.00541 24.919998 17L24.919998 17L23.62 17C 23.482061 17.00541 23.347631 16.955746 23.246338 16.861956C 23.145046 16.768166 23.085203 16.637949 23.08 16.5L23.08 16.5L23.08 14.67C 23.074797 14.532052 23.014954 14.4018345 22.913662 14.308045C 22.812368 14.214255 22.677938 14.164593 22.539999 14.17L22.539999 14.17L21.46 14.17C 21.32206 14.164593 21.18763 14.214255 21.086336 14.308045C 20.985044 14.4018345 20.925201 14.532052 20.919998 14.67L20.919998 14.67L20.919998 16.5C 20.914795 16.637949 20.854952 16.768166 20.75366 16.861956C 20.652367 16.955746 20.517937 17.00541 20.379997 17L20.379997 17L19.12 17C 18.982061 17.00541 18.847631 16.955746 18.746338 16.861956C 18.645046 16.768166 18.585203 16.637949 18.58 16.5L18.58 16.5L18.58 13.33L18.06 13.33C 17.869177 13.338783 17.687466 13.247927 17.58 13.09C 17.443913 12.886061 17.48745 12.611773 17.68 12.46z" stroke="none" fill="#191970" fill-rule="nonzero" />
	<text transform="matrix(10.343435 0 0 10.343435 385.49982 430.54547)" x="0" y="0" style="fill:#191970;font-family:Lucida Console;" font-size="13">
MARCHÉ
	</text>
</g>
</svg>