<?xml version="1.0" encoding="utf-8"?>
<!-- Generator: Adobe Illustrator 24.3.0, SVG Export Plug-In . SVG Version: 6.00 Build 0)  -->
<svg version="1.1" id="Calque_1" xmlns="http://www.w3.org/2000/svg" xmlns:xlink="http://www.w3.org/1999/xlink" x="0px" y="0px"
	 viewBox="0 0 103 37" style="enable-background:new 0 0 103 37;" xml:space="preserve">
<style type="text/css">
	.st0{display:none;fill-rule:evenodd;clip-rule:evenodd;fill:#AAAAAA;}
	.st1{fill-rule:evenodd;clip-rule:evenodd;fill:#FFFFFF;stroke:#EEEEEE;stroke-width:0.2;stroke-miterlimit:10;}
	.st2{fill:#191970;}
	.st3{font-family:'ArialMT';}
	.st4{font-size:10.9413px;}
</style>
<rect id="Rectangle" x="-32" y="-262" class="st0" width="1440" height="900"/>
<path class="st1" d="M86.2,32H18.4c-2.7,0-4.8-2.2-4.8-4.8V9c0-2.7,2.2-4.8,4.8-4.8h67.9c2.7,0,4.8,2.2,4.8,4.8v18.2
	C91.1,29.8,88.9,32,86.2,32z"/>
<g id="Icons_x2F_Market" transform="translate(10.000000, 3.000000)">
	<path id="Combined-Shape" class="st2" d="M20,5c4.1,0,7.4,3.5,7.4,7.8c0,2.1-1.2,4.8-3.6,8c-1.1,1.5-2.3,2.9-3.5,4.2
		c-0.2,0.2-0.5,0.2-0.6,0c-1.3-1.3-2.4-2.7-3.5-4.2c-2.4-3.2-3.6-5.9-3.6-8C12.6,8.5,15.9,5,20,5z M20,7.3c-2.9,0-5.3,2.5-5.3,5.6
		s2.4,5.6,5.3,5.6s5.3-2.5,5.3-5.6S22.9,7.3,20,7.3z M19.7,9.3c0.2-0.2,0.4-0.2,0.5,0l0,0l3.1,2.8c0.2,0.2,0.2,0.3,0.1,0.5
		c-0.1,0.2-0.2,0.2-0.4,0.2l0,0h-0.4v2.7c0,0.3-0.2,0.4-0.4,0.4l0,0h-1c-0.2,0-0.4-0.2-0.4-0.4l0,0v-1.5c0-0.3-0.2-0.4-0.4-0.4l0,0
		h-0.9c-0.2,0-0.4,0.2-0.4,0.4l0,0v1.5c0,0.3-0.2,0.4-0.4,0.4l0,0h-1c-0.2,0-0.4-0.2-0.4-0.4l0,0v-2.7h-0.4c-0.2,0-0.3-0.1-0.4-0.2
		c-0.1-0.2-0.1-0.4,0.1-0.5l0,0L19.7,9.3z"/>
</g>
<text transform="matrix(0.9299 0 0 1 41.9644 22.2949)" class="st2 st3 st4">MARCHÉ</text>
</svg>
