<?xml version="1.0" encoding="utf-8"?>
<!-- Generator: Adobe Illustrator 24.3.0, SVG Export Plug-In . SVG Version: 6.00 Build 0)  -->
<svg version="1.1" id="Calque_1" xmlns="http://www.w3.org/2000/svg" xmlns:xlink="http://www.w3.org/1999/xlink" x="0px" y="0px"
	 viewBox="0 0 103 37" style="enable-background:new 0 0 103 37;" xml:space="preserve">
<style type="text/css">
	.st0{display:none;fill-rule:evenodd;clip-rule:evenodd;fill:#AAAAAA;}
	.st1{fill-rule:evenodd;clip-rule:evenodd;}
	.st2{fill-rule:evenodd;clip-rule:evenodd;fill:#FFFFFF;}
	.st3{fill:#191970;}
	.st4{font-family:'ArialMT';}
	.st5{font-size:13px;}
</style>
<rect id="Rectangle" x="-32" y="-262" class="st0" width="1440" height="900"/>
<g id="Bouton_Marché" transform="translate(34.000000, 264.000000)">
	<g id="Base_x5F_Marché_x2B_Icons">
		<g>
			<path id="path-1" class="st1" d="M-25.9-262h86.8c3.3,0,6.1,2.7,6.1,6.1v20.9c0,3.3-2.7,6.1-6.1,6.1h-86.8
				c-3.3,0-6.1-2.7-6.1-6.1v-20.9C-31.9-259.3-29.2-262-25.9-262z"/>
		</g>
		<g>
			<path id="path-1_1_" class="st2" d="M-25.9-262h86.8c3.3,0,6.1,2.7,6.1,6.1v20.9c0,3.3-2.7,6.1-6.1,6.1h-86.8
				c-3.3,0-6.1-2.7-6.1-6.1v-20.9C-31.9-259.3-29.2-262-25.9-262z"/>
		</g>
	</g>
	<g id="Icons_x2F_Market" transform="translate(10.000000, 3.000000)">
		<path id="Combined-Shape" class="st3" d="M-19.9-261c5.2,0,9.5,4.2,9.5,9.3c0,2.5-1.5,5.7-4.6,9.5c-1.4,1.8-2.9,3.4-4.5,5
			c-0.2,0.2-0.6,0.2-0.8,0c-1.6-1.6-3.1-3.2-4.5-5c-3-3.8-4.6-7-4.6-9.5C-29.4-256.8-25.2-261-19.9-261z M-19.9-258.3
			c-3.7,0-6.8,3-6.8,6.7s3,6.7,6.8,6.7s6.8-3,6.8-6.7S-16.2-258.3-19.9-258.3z M-20.3-255.9c0.2-0.2,0.5-0.2,0.7,0l0,0l4,3.3
			c0.2,0.2,0.2,0.4,0.1,0.6c-0.1,0.2-0.3,0.2-0.5,0.2l0,0h-0.5v3.2c0,0.3-0.2,0.5-0.5,0.5l0,0h-1.3c-0.3,0-0.5-0.2-0.5-0.5l0,0v-1.8
			c0-0.3-0.2-0.5-0.5-0.5l0,0h-1.1c-0.3,0-0.5,0.2-0.5,0.5l0,0v1.8c0,0.3-0.2,0.5-0.5,0.5l0,0h-1.3c-0.3,0-0.5-0.2-0.5-0.5l0,0v-3.2
			h-0.5c-0.2,0-0.4-0.1-0.5-0.2c-0.1-0.2-0.1-0.5,0.1-0.6l0,0L-20.3-255.9z"/>
	</g>
	<text transform="matrix(0.9991 0 0 1 5.3271 -241)" class="st3 st4 st5">MARCHÉ</text>
</g>
</svg>
