<?xml version="1.0" encoding="UTF-8"?>
<svg width="20px" height="24px" viewBox="0 0 20 24" version="1.1" xmlns="http://www.w3.org/2000/svg" xmlns:xlink="http://www.w3.org/1999/xlink">
    <title>9876A3AF-D94F-442D-8EAF-839CEAFAAE67</title>
    <g id="Welcome" stroke="none" stroke-width="1" fill="none" fill-rule="evenodd">
        <g id="Assets" transform="translate(-46.000000, -378.000000)" fill="#191970" fill-rule="nonzero">
            <g id="1.-Icons/Market_Simple" transform="translate(44.000000, 377.000000)">
                <path d="M12,1 C17.2383291,1 21.5,5.18690763 21.5,10.3333397 C21.5,12.8333414 19.9583342,16.0438198 16.9178495,19.8751558 C15.5248588,21.6259603 14.0163309,23.2849922 12.4020051,24.8415401 C12.1771426,25.05282 11.8228574,25.05282 11.5979949,24.8415401 C9.98366913,23.2849922 8.47514115,21.6259603 7.08215051,19.8751558 C4.04166582,16.0438198 2.5,12.8333414 2.5,10.3333397 C2.5,5.18690763 6.76167092,1 12,1 Z M12,3.66666849 C8.25816327,3.66666849 5.21428571,6.65714673 5.21428571,10.3333397 C5.21428571,14.0095327 8.25816327,17.0000109 12,17.0000109 C15.7418367,17.0000109 18.7857143,14.0095327 18.7857143,10.3333397 C18.7857143,6.65714673 15.7418367,3.66666849 12,3.66666849 Z M11.6367638,6.13002741 C11.8427281,5.95665753 12.1572719,5.95665753 12.3632362,6.13002741 L12.3632362,6.13002741 L16.3231953,9.46336678 C16.5134079,9.62352671 16.5553793,9.88561615 16.4235442,10.0899929 C16.3209245,10.2435094 16.1388143,10.335888 15.9438492,10.3333267 L15.9438492,10.3333267 L15.4199646,10.3333267 L15.4199646,13.5 C15.4199646,13.776142 15.1782009,14 14.8799702,14 L14.8799702,14 L13.6199832,14 C13.3217526,14 13.0799888,13.776142 13.0799888,13.5 L13.0799888,13.5 L13.0799888,11.6666624 C13.0799888,11.3905196 12.8382251,11.1666615 12.5399944,11.1666615 L12.5399944,11.1666615 L11.4600056,11.1666615 C11.1617749,11.1666615 10.9200112,11.3905196 10.9200112,11.6666624 L10.9200112,11.6666624 L10.9200112,13.5 C10.9200112,13.776142 10.6782474,14 10.3800168,14 L10.3800168,14 L9.12002981,14 C8.82179913,14 8.5800354,13.776142 8.5800354,13.5 L8.5800354,13.5 L8.5800354,10.3333267 L8.05615082,10.3333267 C7.86118572,10.335888 7.67907551,10.2435094 7.57645579,10.0899929 C7.44462065,9.88561615 7.4865921,9.62352671 7.67680475,9.46336678 L7.67680475,9.46336678 Z" id="Combined-Shape"></path>
            </g>
        </g>
    </g>
</svg>