<?xml version="1.0" encoding="UTF-8"?>
<svg width="17px" height="17px" viewBox="0 0 17 17" version="1.1" xmlns="http://www.w3.org/2000/svg" xmlns:xlink="http://www.w3.org/1999/xlink">
    <title>05938000-E5F4-409E-8E23-6BC97E2AC138</title>
    <g id="Welcome" stroke="none" stroke-width="1" fill="none" fill-rule="evenodd">
        <g id="Home-page-/-Profil_Non_Connecté" transform="translate(-1223.000000, -41.000000)" fill="#191970" fill-rule="nonzero">
            <g id="Group" transform="translate(1223.000000, 41.000000)">
                <path d="M13.6960092,8.36951561 C13.2535414,8.81499087 12.6403636,9.09133555 11.9638014,9.09133555 C11.2876201,9.09133555 10.6744229,8.81499087 10.2319529,8.36951561 C9.78945472,8.81499087 9.17630722,9.09133555 8.50008914,9.09133555 C7.82355188,9.09133555 7.21037409,8.81499087 6.76790516,8.36951561 C6.32540269,8.81499087 5.71257978,9.09133555 5.03604144,9.09133555 C4.35950309,9.09133555 3.74668127,8.81499087 3.30420044,8.36951561 C2.86169472,8.81499087 2.24851584,9.09133555 1.57199373,9.09133555 C1.48444451,9.09133555 1.39791776,9.08529155 1.31290361,9.07645035 L1.31290361,17 L3.46311143,17 L3.46311143,11.5246772 L7.55743432,11.5246772 L7.55743432,17 L15.6870799,17 L15.6870799,9.07611097 C15.6016882,9.08521588 15.5152361,9.09133555 15.4278773,9.09133555 C14.7513151,9.09133555 14.1384771,8.81499087 13.6960092,8.36951561 Z M13.6487745,14.3493595 L9.52503262,14.3493595 L9.52503262,11.5246771 L13.6487745,11.5246771 L13.6487745,14.3493595 Z" id="Shape"></path>
                <path d="M16.8103837,5.98313071 L14.2732221,1.5448089 L11.5338888,1.5448089 L11.5338888,0 L5.46609794,0 L5.46609794,1.5448089 L2.72672248,1.5448089 L0.189600897,5.98313071 C-0.326991009,6.97306048 0.259941277,8.24258175 1.37012179,8.37132925 C1.4363788,8.37903557 1.50376971,8.38300222 1.57210627,8.38300222 C2.52863312,8.38300222 3.30408793,7.60833073 3.30408793,6.65281785 C3.30408793,7.60833073 4.07948864,8.38300222 5.03604145,8.38300222 C5.99259426,8.38300222 6.76801121,7.60833073 6.76801121,6.65281785 C6.76801121,7.60833073 7.54343356,8.38300222 8.49998854,8.38300222 C9.45654135,8.38300222 10.2319529,7.60833073 10.2319529,6.65281785 C10.2319529,7.60833073 11.0074077,8.38300222 11.9639161,8.38300222 C12.9204787,8.38300222 13.6958967,7.60833073 13.6958967,6.65281785 C13.6958967,7.60833073 14.4713515,8.38300222 15.4278773,8.38300222 C15.496176,8.38300222 15.5636048,8.37903557 15.6298628,8.37132925 C16.7400423,8.24258175 17.3270124,6.97306048 16.8103837,5.98313071 Z" id="Path"></path>
            </g>
        </g>
    </g>
</svg>