<svg xmlns="http://www.w3.org/2000/svg" viewBox="0 0 44 44"><defs><style>.cls-1{fill:#f5f5f5;}.cls-2{fill:#1a7ef5;}</style></defs><g id="Calque_2" data-name="Calque 2"><g id="Calque_1-2" data-name="Calque 1"><circle id="Cercle-de-survole-icone" class="cls-1" cx="22" cy="22" r="22"/><g id="Group"><g id="Icons_Menu" data-name="Icons/Menu"><path id="Combined-Shape" class="cls-2" d="M22,10.5A11.5,11.5,0,1,1,10.5,22,11.51,11.51,0,0,1,22,10.5Zm0,1.44A10.06,10.06,0,1,0,32.06,22,10.07,10.07,0,0,0,22,11.94Zm4.17,13.37a.79.79,0,0,1,0,1.57h-8a.79.79,0,0,1,0-1.57Zm0-4.1a.79.79,0,0,1,0,1.58h-8a.79.79,0,0,1,0-1.58Zm0-4.09a.79.79,0,0,1,0,1.57h-8a.79.79,0,0,1,0-1.57Z"/></g></g></g></g></svg>