<?xml version="1.0" encoding="UTF-8"?>
<svg width="23px" height="26px" viewBox="0 0 23 26" version="1.1" xmlns="http://www.w3.org/2000/svg" xmlns:xlink="http://www.w3.org/1999/xlink">
    <title>62F6274F-8058-4E13-A456-E70CB34781DB</title>
    <g id="Welcome" stroke="none" stroke-width="1" fill="none" fill-rule="evenodd">
        <g id="Assets" transform="translate(-145.000000, -588.000000)" fill="#4A4A4A" fill-rule="nonzero">
            <g id="Icons/Mes_Commandes" transform="translate(145.000000, 588.000000)">
                <path d="M20.6736647,11.9271953 C20.8646714,11.9271953 21.0394815,12.0343945 21.1261504,12.2046133 L21.1261504,12.2046133 L22.9447751,15.7772773 C23.0248943,15.93475 23.0174815,16.1224883 22.9250753,16.2731562 C22.8328215,16.4237227 22.6688767,16.5155352 22.4922387,16.5155352 L22.4922387,16.5155352 L21.8570224,16.5155352 L21.8570224,25.4792383 C21.8570224,25.7596523 21.6297133,25.9870508 21.3492961,25.9870508 L21.3492961,25.9870508 L1.64916144,25.9870508 C1.36874422,25.9870508 1.14143517,25.7596523 1.14143517,25.4792383 L1.14143517,25.4792383 L1.14143517,16.5154844 L0.507691238,16.5154844 C0.331104042,16.5154844 0.167159229,16.4237227 0.0748545937,16.2731055 C-0.017450042,16.1224883 -0.0248628456,15.93475 0.0552563597,15.7772773 L0.0552563597,15.7772773 L1.87388108,12.2046133 C1.96054996,12.0343945 2.13536011,11.9271953 2.32636674,11.9271953 L2.32636674,11.9271953 Z M12.0077928,14.5517227 L12.0077928,17.5968711 C12.0077928,17.8772852 11.7804837,18.1046836 11.5000665,18.1046836 C11.2196493,18.1046836 10.9923402,17.8772852 10.9923402,17.5968711 L10.9923402,17.5968711 L10.9923402,14.5517227 L10.1339274,16.2381172 C10.0472586,16.4083867 9.87244841,16.5155352 9.68144179,16.5155352 L9.68144179,16.5155352 L2.15698925,16.5155352 L2.15698925,24.9714258 L10.9923402,24.9714258 L10.9923402,22.1569766 C10.9923402,21.8765625 11.2196493,21.6491641 11.5000665,21.6491641 C11.7804837,21.6491641 12.0077928,21.8765625 12.0077928,22.1569766 L12.0077928,22.1569766 L12.0077928,24.9714258 L20.8416714,24.9714258 L20.8416714,16.5155352 L13.3186912,16.5155352 C13.1276846,16.5155352 12.9528745,16.4083867 12.8662056,16.2381172 L12.8662056,16.2381172 L12.0077928,14.5517227 Z M7.15834687,22.1903906 C7.43876409,22.1903906 7.66607314,22.4177891 7.66607314,22.6982031 C7.66607314,22.9786172 7.43876409,23.2060156 7.15834687,23.2060156 L7.15834687,23.2060156 L4.26725194,23.2060156 C3.98683473,23.2060156 3.75952568,22.9786172 3.75952568,22.6982031 C3.75952568,22.4177891 3.98683473,22.1903906 4.26725194,22.1903906 L4.26725194,22.1903906 Z M11.5000665,19.3691367 C11.7804837,19.3691367 12.0077928,19.5965859 12.0077928,19.877 C12.0077928,20.1574141 11.7804837,20.3862344 11.5000665,20.3862344 C11.2196493,20.3862344 10.9923402,20.1602578 10.9923402,19.8798437 L10.9923402,19.8798437 C10.9923402,19.5965352 11.2196493,19.3691367 11.5000665,19.3691367 Z M20.3624285,12.9428203 L12.3282696,12.9428203 L13.6299274,15.4998594 L21.6640864,15.4998594 L20.3624285,12.9428203 Z M10.6718127,12.9428203 L2.63765371,12.9428203 L1.33599587,15.4998594 L9.37015481,15.4998594 L10.6718127,12.9428203 Z M11.5000665,-1.77635684e-15 C14.3729848,-1.77635684e-15 16.7103535,2.34 16.7103535,5.21625 C16.7103535,8.09326172 14.3729848,10.4339219 11.5000665,10.4339219 C8.62628506,10.4339219 6.2883579,8.09326172 6.2883579,5.21625 C6.2883579,2.34 8.62633583,-1.77635684e-15 11.5000665,-1.77635684e-15 Z M11.5000665,1.015625 C9.18620559,1.015625 7.30381044,2.90001562 7.30381044,5.21625 C7.30381044,7.53329687 9.18625636,9.41829687 11.5000665,9.41829687 C13.8131151,9.41829687 15.694901,7.53329687 15.694901,5.21625 C15.694901,2.90001562 13.8131151,1.015625 11.5000665,1.015625 Z M3.4857089,7.08444141 C3.73378395,6.95378125 4.0408568,7.04894531 4.17154554,7.29711328 C4.30223428,7.54523047 4.20703561,7.85235547 3.95896055,7.98306641 L3.95896055,7.98306641 L1.76223208,9.14037109 C1.68678395,9.18013281 1.60580161,9.19897266 1.52603782,9.19897266 C1.34361177,9.19897266 1.16732921,9.10035547 1.07639543,8.92769922 C0.945757463,8.67958203 1.04090537,8.37245703 1.28898042,8.24174609 L1.28898042,8.24174609 Z M18.8270643,7.2970625 C18.957753,7.04884375 19.2647751,6.95367969 19.512901,7.08439062 L19.512901,7.08439062 L21.7096294,8.24169531 C21.9577045,8.37240625 22.0529032,8.67953125 21.9222144,8.92764844 C21.8312806,9.10035547 21.6549981,9.19892187 21.472572,9.19892187 C21.3928082,9.19892187 21.3118767,9.18008203 21.2363778,9.14032031 L21.2363778,9.14032031 L19.0396493,7.98301562 C18.7915742,7.85230469 18.6963756,7.54517969 18.8270643,7.2970625 Z M13.0573138,3.37030078 C13.2372519,3.15519141 13.5574241,3.12680469 13.772497,3.30667188 C13.9875191,3.48669141 14.0160025,3.80696875 13.8360643,4.02202734 L13.8360643,4.02202734 L11.2928634,7.06209766 C11.206093,7.16584375 11.0815478,7.23064063 10.9467972,7.24221875 C10.932327,7.2434375 10.9178568,7.24404688 10.9034374,7.24404688 C10.7836647,7.24404688 10.6671923,7.20164453 10.5751416,7.12359375 L10.5751416,7.12359375 L9.22372656,5.97786719 C9.00982148,5.79647656 8.98341972,5.47609766 9.16483031,5.26210547 C9.34608859,5.0480625 9.66651464,5.02175781 9.88041972,5.20309766 L9.88041972,5.20309766 L10.8420025,6.01839063 Z M3.72236011,4.7084375 C4.00277733,4.7084375 4.23008638,4.93583594 4.23008638,5.21625 C4.23008638,5.49666406 4.00277733,5.7240625 3.72236011,5.7240625 L3.72236011,5.7240625 L1.52563164,5.7240625 C1.24521442,5.7240625 1.01790537,5.49666406 1.01790537,5.21625 C1.01790537,4.93583594 1.24521442,4.7084375 1.52563164,4.7084375 L1.52563164,4.7084375 Z M21.473029,4.7084375 C21.7534462,4.7084375 21.9807553,4.93583594 21.9807553,5.21625 C21.9807553,5.49666406 21.7534462,5.7240625 21.473029,5.7240625 L21.473029,5.7240625 L19.2763005,5.7240625 C18.9958833,5.7240625 18.7685742,5.49666406 18.7685742,5.21625 C18.7685742,4.93583594 18.9958833,4.7084375 19.2763005,4.7084375 L19.2763005,4.7084375 Z M1.07654775,1.50449609 C1.20733804,1.25637891 1.5145632,1.16141797 1.76248594,1.29223047 L1.76248594,1.29223047 L3.95926519,2.45100781 C4.20728947,2.58182031 4.30228506,2.88899609 4.17149477,3.1370625 C4.08051022,3.30961719 3.90422766,3.40808203 3.72195393,3.40808203 C3.64203782,3.40808203 3.56105548,3.38919141 3.48550581,3.34932812 L3.48550581,3.34932812 L1.28877733,2.19055078 C1.04075305,2.05973828 0.945757463,1.7525625 1.07654775,1.50449609 Z M21.2361747,1.29223047 C21.484199,1.16131641 21.7912718,1.25642969 21.9221129,1.50449609 C22.0529032,1.7525625 21.9579076,2.05973828 21.7098833,2.19055078 L21.7098833,2.19055078 L19.5131548,3.34932813 C19.4376051,3.38919141 19.356572,3.40808203 19.2767067,3.40808203 C19.0943822,3.40808203 18.9182012,3.30961719 18.8272166,3.1370625 C18.6964263,2.88899609 18.7914219,2.58182031 19.0394462,2.45100781 L19.0394462,2.45100781 Z" id="Combined-Shape"></path>
            </g>
        </g>
    </g>
</svg>