<?xml version="1.0" encoding="UTF-8"?>
<svg width="18px" height="19px" viewBox="0 0 18 19" version="1.1" xmlns="http://www.w3.org/2000/svg" xmlns:xlink="http://www.w3.org/1999/xlink">
    <title>4C0328D0-EFA1-4D7B-AFE6-5E0099892F09</title>
    <defs>
        <filter id="filter-1">
            <feColorMatrix in="SourceGraphic" type="matrix" values="0 0 0 0 0.103839 0 0 0 0 0.494781 0 0 0 0 0.959026 0 0 0 1.000000 0"></feColorMatrix>
        </filter>
    </defs>
    <g id="Welcome" stroke="none" stroke-width="1" fill="none" fill-rule="evenodd">
        <g id="Home-page-/-Récapitulatif_Produits-/-Modification_Produits" transform="translate(-121.000000, -637.000000)">
            <g id="mise-a-jour" transform="translate(121.500000, 637.500000)" filter="url(#filter-1)">
                <g>
                    <path d="M14.5105271,2.46705469 C12.9050542,0.876128906 10.7704917,0 8.5,0 C6.22950833,0 4.09494583,0.876128906 2.48947292,2.46705469 C0.88410625,4.05783984 0,6.17291016 0,8.42259375 C0,10.6722773 0.88410625,12.7873477 2.48947292,14.3781328 C3.80885,15.6855234 5.48551042,16.5101836 7.30132292,16.7626055 L6.8031875,17.2561992 L7.55476458,18 L9.20585417,16.3638984 L7.75702917,14.5038164 L6.91570625,15.1464375 L7.35087083,15.7051055 C3.79347917,15.1560703 1.0625,12.0994102 1.0625,8.42259375 C1.0625,4.35853125 4.3989625,1.05219141 8.5,1.05219141 C12.6010375,1.05219141 15.9375,4.35853125 15.9375,8.42259375 C15.9375,11.3761758 14.1671625,14.0365898 11.4272938,15.2002969 L11.8461313,16.1673047 C14.977,14.8374844 17,11.7975234 17,8.42259375 C17,6.17291016 16.1158937,4.05783984 14.5105271,2.46705469 Z" id="Path" fill="#000000" fill-rule="nonzero"></path>
                    <path d="M3.71942292,8.42259375 C3.71942292,11.0330508 5.86400833,13.1568047 8.5,13.1568047 C11.1359917,13.1568047 13.2805771,11.0330508 13.2805771,8.42259375 C13.2805771,7.56847266 13.0536979,6.74891016 12.6282021,6.03133594 L13.300375,6.12467578 L13.4479208,5.08267969 L11.1347875,4.76149219 L10.5066729,7.02678516 L11.5312771,7.30539844 L11.7286896,6.59348438 C12.0480062,7.14420703 12.2180771,7.77048047 12.2180771,8.42262891 C12.2180771,10.4529023 10.5501292,12.1046484 8.5,12.1046484 C6.44987083,12.1046484 4.78192292,10.4529023 4.78192292,8.42262891 C4.78192292,6.39235547 6.44987083,4.74060938 8.5,4.74060938 L8.5,3.68841797 C5.86397292,3.68841797 3.71942292,5.81213672 3.71942292,8.42259375 Z" id="Path" fill="#000000" fill-rule="nonzero"></path>
                    <path d="M8.5,7.89648047 L8.5,6.84428906 C7.62120625,6.84428906 6.90625,7.55230078 6.90625,8.42259375 C6.90625,9.29288672 7.62120625,10.0008984 8.5,10.0008984 C9.37879375,10.0008984 10.09375,9.29288672 10.09375,8.42259375 L9.03125,8.42259375 C9.03125,8.71266797 8.79293125,8.94870703 8.5,8.94870703 C8.20706875,8.94870703 7.96875,8.71270312 7.96875,8.42259375 C7.96875,8.13248437 8.20706875,7.89648047 8.5,7.89648047 L8.5,7.89648047 Z" id="Path" fill="#000000" fill-rule="nonzero"></path>
                </g>
            </g>
        </g>
    </g>
</svg>