<?xml version="1.0" encoding="utf-8"?>
<!-- Generator: Adobe Illustrator 24.3.0, SVG Export Plug-In . SVG Version: 6.00 Build 0)  -->
<svg version="1.1" id="Calque_1" xmlns="http://www.w3.org/2000/svg" xmlns:xlink="http://www.w3.org/1999/xlink" x="0px" y="0px"
	 viewBox="0 0 154 37" style="enable-background:new 0 0 154 37;" xml:space="preserve">
<style type="text/css">
	.st0{fill-rule:evenodd;clip-rule:evenodd;}
	.st1{fill-rule:evenodd;clip-rule:evenodd;fill:#FFFFFF;}
	.st2{fill-rule:evenodd;clip-rule:evenodd;fill:#D8D8D8;}
	.st3{fill-rule:evenodd;clip-rule:evenodd;fill:url(#Bulle_Bouton_Neuf_1_);}
	.st4{fill:#328EF4;}
	.st5{font-family:'MyriadPro-Regular';}
	.st6{font-size:16px;}
	.st7{fill:#D8D8D8;}
</style>
<g id="Welcome">
	<g id="Assets" transform="translate(-108.000000, -87.000000)">
		<g id="Bouton_x2F_On" transform="translate(110.000000, 89.000000)">
			<g id="Bouton_Choix_Boutique_Neuf">
				<g>
					<path id="path-1" class="st0" d="M6,0h138c3.3,0,6,2.7,6,6v21c0,3.3-2.7,6-6,6H6c-3.3,0-6-2.7-6-6V6C0,2.7,2.7,0,6,0z"/>
				</g>
				<g>
					<path id="path-1_1_" class="st1" d="M6,0h138c3.3,0,6,2.7,6,6v21c0,3.3-2.7,6-6,6H6c-3.3,0-6-2.7-6-6V6C0,2.7,2.7,0,6,0z"/>
				</g>
			</g>
			<path id="Base_Slide_Bulle_Bouton_Neuf" class="st2" d="M52.5,9h27c4.1,0,7.5,3.4,7.5,7.5l0,0c0,4.1-3.4,7.5-7.5,7.5h-27
				c-4.1,0-7.5-3.4-7.5-7.5l0,0C45,12.4,48.4,9,52.5,9z"/>
			
				<linearGradient id="Bulle_Bouton_Neuf_1_" gradientUnits="userSpaceOnUse" x1="-219.587" y1="396.6087" x2="-219.587" y2="395.6087" gradientTransform="matrix(23 0 0 -23 5107 9127)">
				<stop  offset="0" style="stop-color:#80C3F3"/>
				<stop  offset="1" style="stop-color:#1A7EF5"/>
			</linearGradient>
			<circle id="Bulle_Bouton_Neuf" class="st3" cx="56.5" cy="16.5" r="11.5"/>
		</g>
	</g>
</g>
<text transform="matrix(1 0 0 1 4.9533 24.9998)" class="st4 st5 st6">NEUF</text>
<text transform="matrix(1 0 0 1 92.0171 23.7232)" class="st7 st5 st6">OCCASE</text>
</svg>
