<?xml version="1.0" encoding="UTF-8"?>
<svg width="26px" height="26px" viewBox="0 0 26 26" version="1.1" xmlns="http://www.w3.org/2000/svg" xmlns:xlink="http://www.w3.org/1999/xlink">
    <title>3A800DA9-8BED-4288-91AE-484314A14B94</title>
    <g id="Welcome" stroke="none" stroke-width="1" fill="none" fill-rule="evenodd">
        <g id="Assets" transform="translate(-176.000000, -588.000000)" fill="#4A4A4A" fill-rule="nonzero">
            <g id="Icons/Off" transform="translate(176.000000, 588.000000)">
                <path d="M3.81325734,3.81325734 C8.89841133,-1.27194734 17.0577486,-1.27022414 22.1411794,3.81325734 C27.226384,8.89841133 27.2246608,17.0577992 22.1411794,22.1411794 C17.0560254,27.226384 8.89668814,27.2246608 3.81325734,22.1411794 C-1.27194734,17.0560254 -1.27022414,8.89668814 3.81325734,3.81325734 Z M12.9772184,1.52302732 C6.66134701,1.52302732 1.52302732,6.66134701 1.52302732,12.9772184 C1.52302732,19.2930897 6.66134701,24.4314094 12.9772184,24.4314094 C19.2930897,24.4314094 24.4314094,19.2930897 24.4314094,12.9772184 C24.4314094,6.66134701 19.2930897,1.52302732 12.9772184,1.52302732 Z M9.27558872,8.7407895 C9.59169398,8.46441913 10.0719591,8.49655168 10.3483295,8.81265695 C10.6247505,9.12876221 10.5925166,9.60902732 10.276462,9.88539769 C9.38389671,10.6658538 8.87195519,11.7927739 8.87195519,12.977269 C8.87195519,15.2409415 10.7135458,17.0825322 12.9772184,17.0825322 C15.2408909,17.0825322 17.0824815,15.2409415 17.0824815,12.977269 C17.0824815,11.8043801 16.5789026,10.684809 15.7008831,9.90556923 C15.3868051,9.62686747 15.3581696,9.14634896 15.6368714,8.83232166 C15.9155731,8.51824369 16.396041,8.48960821 16.7101189,8.76830997 C17.9130624,9.83588112 18.6028987,11.3699318 18.6028987,12.977269 C18.6028987,16.0793275 16.0792261,18.603 12.9771677,18.603 C9.87510919,18.603 7.35143667,16.0793275 7.35143667,12.977269 C7.35143667,11.3541189 8.05277781,9.80998248 9.27558872,8.7407895 Z M12.9772184,6.13511309 C13.3970702,6.13511309 13.7374523,6.47549515 13.7374523,6.89534701 L13.7374523,6.89534701 L13.7374523,10.9499279 C13.7374523,11.3697798 13.3970702,11.7101618 12.9772184,11.7101618 C12.5573665,11.7101618 12.2169844,11.3698304 12.2169844,10.9499279 L12.2169844,10.9499279 L12.2169844,6.89534701 C12.2169844,6.47549515 12.5573665,6.13511309 12.9772184,6.13511309 Z" id="Combined-Shape"></path>
            </g>
        </g>
    </g>
</svg>