<?xml version="1.0" encoding="UTF-8"?>
<svg width="122px" height="36px" viewBox="0 0 122 36" version="1.1" xmlns="http://www.w3.org/2000/svg" xmlns:xlink="http://www.w3.org/1999/xlink">
    <title>AA17CFCF-368B-40A6-969E-61819FBFE2FD</title>
    <g id="Welcome" stroke="none" stroke-width="1" fill="none" fill-rule="evenodd">
        <g id="Assets-2" transform="translate(-176.000000, -444.000000)">
            <g id="Group-2" transform="translate(32.000000, 434.000000)">
                <g id="Icons-/-Logo-/-Sepa-Copy-7" transform="translate(144.000000, 10.000000)">
                    <path d="M116,0.5 C117.518783,0.5 118.893783,1.11560847 119.889087,2.1109127 C120.884392,3.10621694 121.5,4.48121694 121.5,6 L121.5,6 L121.5,30 C121.5,31.5187831 120.884392,32.8937831 119.889087,33.8890873 C118.893783,34.8843915 117.518783,35.5 116,35.5 L116,35.5 L6,35.5 C4.48121694,35.5 3.10621694,34.8843915 2.1109127,33.8890873 C1.11560847,32.8937831 0.5,31.5187831 0.5,30 L0.5,30 L0.5,6 C0.5,4.48121694 1.11560847,3.10621694 2.1109127,2.1109127 C3.10621694,1.11560847 4.48121694,0.5 6,0.5 L6,0.5 Z" id="◼️-Background" stroke="#D8D8D8" fill="#FFFFFF"></path>
                    <g id="Logo" transform="translate(53.000000, 8.000000)" fill-rule="nonzero">
                        <path d="M13.6179863,1.4529093 C12.7442248,0.440049408 11.1647572,0.0058117175 9.14414468,0.0058117175 L3.27977205,0.0058117175 C2.86676738,0.0058117175 2.51507218,0.311234978 2.45034458,0.726076144 L0.00852817235,16.4761686 C-0.0400071615,16.7867484 0.1964615,17.0679921 0.50598399,17.0679921 L4.12644398,17.0679921 L5.03569765,11.2026264 L5.00747943,11.3862958 C5.07225592,10.9717005 5.42090767,10.6659038 5.83377154,10.6659038 L7.5542049,10.6659038 C10.9339949,10.6659038 13.5804247,9.2697617 14.3534784,5.23101317 C14.3764292,5.11156433 14.3963074,4.99530418 14.4134892,4.88172255 C14.3159168,4.82917271 14.3159168,4.82917271 14.4134892,4.88172255 C14.6436871,3.38896273 14.4119215,2.37285036 13.6179863,1.4529093" id="Path" fill="#27346A"></path>
                        <path d="M6.421024,4.34397953 C6.52000176,4.29604837 6.62825767,4.27120936 6.73788323,4.27127709 L11.335446,4.27127709 C11.8798695,4.27127709 12.387672,4.30730944 12.8517049,4.38326437 C12.9815528,4.40432027 13.1107287,4.42945929 13.239047,4.45864533 C13.4209187,4.49946071 13.6006905,4.54941453 13.7777014,4.60832308 C14.00583,4.68580859 14.2182818,4.77604891 14.4135519,4.88172255 C14.6436871,3.38838876 14.4119215,2.37285036 13.6179863,1.4529093 C12.7437232,0.440049408 11.1647572,0.0058117175 9.14414468,0.0058117175 L3.27927039,0.0058117175 C2.86634381,0.0058117175 2.51505836,0.311544643 2.45034458,0.726076144 L0.00852817235,16.4755947 C-0.0400071615,16.7866846 0.1964615,17.0675456 0.505482333,17.0675456 L4.12644398,17.0675456 L6.01286316,4.90136497 C6.05051589,4.6586138 6.20312487,4.45021061 6.421024,4.34397953 Z" id="Path" fill="#27346A"></path>
                        <path d="M14.3534784,5.23101317 C13.5804247,9.26918773 10.9340576,10.6659038 7.5542049,10.6659038 L5.83326989,10.6659038 C5.42040601,10.6659038 5.07169155,10.9717005 5.00754214,11.3862958 L3.87636787,18.6791803 C3.83410325,18.9509855 4.04078601,19.1972809 4.31117924,19.1972809 L7.36313622,19.1972809 C7.72430359,19.1972809 8.03177696,18.9299925 8.08821899,18.5671931 L8.11794218,18.4090334 L8.69315486,14.7014636 L8.73021478,14.4965575 C8.78665309,14.1337819 9.09409122,13.8665989 9.45523485,13.8664696 L9.91199373,13.8664696 C12.8684477,13.8664696 15.1834076,12.644941 15.8598923,9.11211218 C16.1422626,7.6357423 15.9961549,6.40311693 15.2491874,5.53732006 C15.0226264,5.27508106 14.7412594,5.05850429 14.4134892,4.88172255 C14.395743,4.99587815 14.376492,5.11156433 14.3534784,5.23101317 L14.3534784,5.23101317 Z" id="Path" fill="#2790C3"></path>
                        <path d="M13.6044415,4.5536687 C13.4839056,4.51787202 13.3622277,4.48617989 13.2396113,4.45864533 C13.1112258,4.42993661 12.982059,4.40496948 12.8522693,4.38377456 C12.3877347,4.30730944 11.8803084,4.27121141 11.3353833,4.27121141 L6.73838488,4.27121141 C6.62867609,4.27096023 6.5203394,4.29601402 6.42152566,4.34448973 C6.20336044,4.45040562 6.05061685,4.6589606 6.01330211,4.90187516 L5.03619931,11.2026264 L5.00798109,11.3862958 C5.07225592,10.9717005 5.42090767,10.6659038 5.83383425,10.6659038 L7.55476926,10.6659038 C10.9345592,10.6659038 13.5809263,9.2697617 14.3539801,5.23101317 C14.3769936,5.11156433 14.3963074,4.99581438 14.4140535,4.88172255 C14.2182818,4.77662287 14.0063944,4.68580859 13.778203,4.60883328 C13.7206229,4.58942023 13.6627145,4.57102924 13.6045042,4.5536687" id="Path" fill="#1F264F"></path>
                    </g>
                </g>
            </g>
        </g>
    </g>
</svg>