<svg id="Capa_1" enable-background="new 0 0 513.087 513.087" height="512" viewBox="0 0 513.087 513.087" width="512" xmlns="http://www.w3.org/2000/svg"><g><path d="m498.646 331.292h-61.66c2.64-3.818 4.57-8.22 5.608-13.055 2.851-13.277-1.736-26.341-11.805-34.759 3.718-4.857 6.873-10.257 9.354-16.141l23.675-56.135 22.435-31.266c4.151-5.786 5.714-12.827 4.398-19.827-1.314-6.999-5.326-12.993-11.295-16.878-8.261-5.377-18.675-5.615-27.173-.621l-31.531 18.527-11.279 1.442 1.728-4.096 22.435-31.266c4.151-5.786 5.714-12.827 4.399-19.827-1.315-6.999-5.327-12.993-11.296-16.877-8.263-5.377-18.676-5.615-27.172-.621l-31.532 18.527-55.733 7.125c-25.83 3.302-47.126 19.667-57.034 43.321-47.513-9.801-98.694 3.993-134.322 41.052-31.457 32.721-44.945 76.167-37.979 122.336l1.364 9.037h-69.79c-7.963.002-14.441 6.48-14.441 14.442v7.402c0 20.984 17.072 38.056 38.056 38.056h18.868l8.13 13.778c7.938 13.453 22.573 21.811 38.194 21.811h305.59c15.621 0 30.256-8.357 38.194-21.811l8.13-13.778h19.868c20.984 0 38.057-17.072 38.057-38.056v-7.402c0-7.962-6.478-14.44-14.441-14.44zm-184.543-200.868 57.257-7.319c1.005-.128 1.975-.459 2.849-.973l32.857-19.306c3.562-2.092 7.927-1.993 11.391.261 2.502 1.628 4.184 4.141 4.735 7.075s-.104 5.886-1.845 8.312l-22.925 31.949c-.326.454-.6.943-.816 1.458l-5.44 12.899-20.554 2.627c-4.108.525-7.014 4.282-6.488 8.391s4.282 7.02 8.391 6.488l50.563-6.463c1.005-.128 1.975-.459 2.849-.973l32.856-19.306c3.564-2.093 7.929-1.994 11.392.26 2.502 1.628 4.184 4.141 4.734 7.076.552 2.934-.104 5.886-1.844 8.312l-22.925 31.948c-.325.454-.6.943-.816 1.458l-24.001 56.91c-8.222 19.494-25.7 32.367-46.756 34.435-21.056 2.063-40.706-7.159-52.562-24.681-8.857-13.089-11.86-28.704-8.457-43.967 3.427-15.367 13.028-28.728 26.342-36.656 3.56-2.119 4.727-6.722 2.607-10.281-2.12-3.56-6.726-4.726-10.281-2.606-6.07 3.614-11.516 8.127-16.218 13.314-15.384-13.132-32.818-22.576-51.128-28.369 8.181-17.635 24.543-29.756 44.233-32.273zm-216.405 189.592c-6.255-41.457 5.806-80.416 33.96-109.702 48.1-50.035 127.863-52.744 180.437-7.112-3.749 6.419-6.54 13.439-8.188 20.828-4.312 19.335-.521 39.095 10.674 55.638 13.602 20.1 35.311 31.565 59.102 31.564 2.43 0 4.883-.12 7.35-.362 14.992-1.472 28.549-7.278 39.39-16.472 7.517 5.692 8.895 14.223 7.507 20.688-1.504 7-6.948 14.887-17.702 16.204h-148.612c11.575-6.294 22.241-14.544 31.442-24.667l4.3-4.732c5.362-5.9 6.354-14.231 2.524-21.225-3.83-6.993-11.387-10.643-19.241-9.306l-20.408 3.479-31.495-23.096c-3.34-2.451-8.034-1.728-10.483 1.613-2.45 3.34-1.728 8.034 1.613 10.483l31.575 23.155c3.206 2.352 7.295 3.315 11.211 2.648l20.507-3.495c2.086-.359 3.128.927 3.564 1.723s.955 2.366-.468 3.932l-4.3 4.732c-31.766 34.95-83.409 44.522-125.589 23.277l-1.035-.521c-20.315-10.232-28.708-35.178-18.71-55.61 5.101-10.424 14.003-18.058 25.068-21.494 10.948-3.401 22.911-2.148 32.818 3.438 3.608 2.033 8.182.759 10.216-2.85s.758-8.183-2.85-10.217c-13.491-7.605-29.759-9.317-44.634-4.697-15.049 4.675-27.156 15.054-34.092 29.226-13.157 26.887-2.885 59.523 22.836 74.202h-46.586zm400.389 33.119c0 12.713-10.343 23.056-23.057 23.056h-103.458c-4.143 0-7.5 3.358-7.5 7.5s3.357 7.5 7.5 7.5h66.175l-3.632 6.155c-5.254 8.903-14.939 14.434-25.276 14.434h-305.59c-10.337 0-20.022-5.531-25.275-14.434l-3.632-6.155h265.201c4.143 0 7.5-3.358 7.5-7.5s-3.357-7.5-7.5-7.5h-301.487c-12.713 0-23.056-10.343-23.056-23.056v-6.843h483.087z"/><path d="m214.118 210.384h4.82c4.142 0 7.5-3.358 7.5-7.5s-3.358-7.5-7.5-7.5h-4.82c-4.142 0-7.5 3.358-7.5 7.5s3.358 7.5 7.5 7.5z"/><path d="m256.543 217.637h-3.864c-4.142 0-7.5 3.358-7.5 7.5s3.358 7.5 7.5 7.5h3.864c4.143 0 7.5-3.358 7.5-7.5s-3.357-7.5-7.5-7.5z"/><path d="m248.735 202.179h5.876c4.142 0 7.5-3.358 7.5-7.5s-3.357-7.5-7.5-7.5h-5.876c-4.142 0-7.5 3.358-7.5 7.5s3.358 7.5 7.5 7.5z"/><path d="m360.474 222.933h6.573c4.143 0 7.5-3.358 7.5-7.5s-3.357-7.5-7.5-7.5h-6.573c-4.143 0-7.5 3.358-7.5 7.5s3.358 7.5 7.5 7.5z"/><path d="m392.025 253.009h7.449c4.143 0 7.5-3.358 7.5-7.5s-3.357-7.5-7.5-7.5h-7.449c-4.143 0-7.5 3.358-7.5 7.5s3.357 7.5 7.5 7.5z"/></g></svg>