<svg xmlns="http://www.w3.org/2000/svg" viewBox="0 0 22 22"><defs><style>.cls-1{fill:#4a4a4a;}</style></defs><g id="Calque_2" data-name="Calque 2"><g id="Calque_1-2" data-name="Calque 1"><g id="Group"><g id="Combined-Shape"><path class="cls-1" d="M10.65,0a1.77,1.77,0,1,1,.7,3.47h0v.12l2.46.61a1.87,1.87,0,0,0,0-.34V3.84a.37.37,0,0,1,.42-.29h0l3.9.71a.44.44,0,0,1,.19.1h0L21.9,7.91a.37.37,0,0,1,0,.5h0l-2.84,2.84a.35.35,0,0,1-.5,0h0l-.82-.81v8.37a.39.39,0,0,1-.1.25h0L14.8,21.9a.39.39,0,0,1-.25.1H1.77a1.8,1.8,0,0,1-1.43-.72,1.77,1.77,0,0,1,.38-2.47A1.78,1.78,0,0,1,.72,16,1.8,1.8,0,0,1,0,14.54a1.77,1.77,0,0,1,1.77-1.77H4.26V10.44l-.82.81a.35.35,0,0,1-.5,0h0L.1,8.41a.37.37,0,0,1,0-.5h0L3.65,4.36a.44.44,0,0,1,.19-.1h0l3.9-.71A.34.34,0,0,1,8,3.63a.37.37,0,0,1,.13.27,1.87,1.87,0,0,0,0,.34h0l2.46-.61V3.19A.35.35,0,0,1,11,2.84,1.07,1.07,0,1,0,9.94,1.77H9.23A1.76,1.76,0,0,1,10.65,0ZM9.58,19.16H1.77a1.07,1.07,0,0,0,0,2.13H9.58a1.07,1.07,0,1,0,0-2.13ZM14.52,4.32A3.45,3.45,0,0,1,11,7.05,3.44,3.44,0,0,1,7.48,4.32h0l-3.4.62L.86,8.16,3.19,10.5,5.43,8.27l.5.5-1,1v3H9.58A1.77,1.77,0,0,1,10.64,16a1.71,1.71,0,0,1,.38.38,1.77,1.77,0,0,1-.38,2.46l0,0A1.74,1.74,0,0,1,11,21.29h3.2V18.81a.36.36,0,0,1,.36-.36H17V9.73l-1-1,.5-.5,2.24,2.23,2.33-2.34L17.92,4.94Zm2,14.84H14.9v1.63Zm-7,.71v.71H1.42v-.71Zm0-3.55H1.77a1.07,1.07,0,0,0,0,2.13H9.58a1.07,1.07,0,1,0,0-2.13Zm0,.71v.71H1.42V17Zm0-3.55H1.77a1.07,1.07,0,0,0,0,2.13H9.58a1.07,1.07,0,1,0,0-2.13Zm.36.71v.71H1.42v-.71ZM11,4.27l-2.58.64A2.87,2.87,0,0,0,11,6.34a2.87,2.87,0,0,0,2.58-1.43h0Z"/></g></g></g></g></svg>