<?xml version="1.0" encoding="UTF-8"?>
<svg width="30px" height="30px" viewBox="0 0 30 30" version="1.1" xmlns="http://www.w3.org/2000/svg" xmlns:xlink="http://www.w3.org/1999/xlink">
    <title>276EC387-C47C-4880-85AB-8E5C565C6508</title>
    <g id="Welcome" stroke="none" stroke-width="1" fill="none" fill-rule="evenodd">
        <g id="Home-page-/-Profil_Non_Connecté" transform="translate(-422.000000, -108.000000)">
            <rect id="Rectangle" fill="#FFFFFF" x="0" y="100" width="1440" height="800"></rect>
            <rect id="Rectangle" fill="#FFFFFF" x="0" y="101" width="1440" height="44"></rect>
            <g id="Icons/Retour-produit" transform="translate(422.000000, 108.000000)">
                <rect id="Rectangle" fill="#FFFFFF" x="0" y="0" width="30" height="30"></rect>
                <path d="M19.8719084,14.3705 C20.3036704,13.8722776 20.9995348,13.8771664 21.4261471,14.3813533 L21.4261471,14.3813533 L24.1827674,17.6390856 C24.3876267,17.8811813 24.5017375,18.2084163 24.5000196,18.5487778 C24.4982625,18.8891394 24.3807604,19.2147366 24.1734518,19.4539235 L24.1734518,19.4539235 L21.4210602,22.629572 C21.2069062,22.8766299 20.9276896,23 20.6486614,23 C20.3651743,23 20.0818337,22.8727189 19.8668214,22.618621 C19.4402091,22.1144586 19.4443749,21.3019322 19.876137,20.8037831 L19.876137,20.8037831 L20.760616,19.783334 L6.5990503,19.783334 C5.99207133,19.783334 5.50001958,19.2087478 5.50001958,18.5000116 C5.50001958,17.7912265 5.99207133,17.2166892 6.5990503,17.2166892 L6.5990503,17.2166892 L20.7353069,17.2166892 L19.8625928,16.1853135 C19.4359804,15.6811511 19.4401463,14.8686491 19.8719084,14.3705 Z M8.57391334,7.38134845 C9.00054659,6.87715992 9.69639003,6.8722955 10.1281521,7.37047073 C10.5599142,7.86862152 10.56408,8.6811507 10.1374677,9.1853148 L10.1374677,9.1853148 L9.26475357,10.2166695 L23.4009889,10.2166695 C24.0079678,10.2166695 24.5000196,10.7912333 24.5000196,11.5 C24.5000196,12.2087594 24.0079678,12.7833231 23.4009889,12.7833231 L23.4009889,12.7833231 L9.23942353,12.7833231 L10.1239025,13.8038001 C10.5556646,14.3019509 10.5598304,15.1144556 10.1332181,15.6186197 C9.91824769,15.8727184 9.63486524,16 9.35139906,16 C9.072329,16 8.7931752,15.8766784 8.57897935,15.6295708 L8.57897935,15.6295708 L5.82658779,12.4539359 C5.61925827,12.2147238 5.50177712,11.8891254 5.50001958,11.5487627 C5.49828115,11.2084245 5.61239194,10.8811884 5.8172722,10.6390918 L5.8172722,10.6390918 Z" id="Combined-Shape" fill="#B9131B" fill-rule="nonzero"></path>
            </g>
        </g>
    </g>
</svg>