<?xml version="1.0" encoding="UTF-8"?>
<svg width="42px" height="42px" viewBox="0 0 42 42" version="1.1" xmlns="http://www.w3.org/2000/svg" xmlns:xlink="http://www.w3.org/1999/xlink">
    <title>34E970F8-5B58-4A7F-873B-F43C591BCB9F</title>
    <defs>
        <filter id="filter-1">
            <feColorMatrix in="SourceGraphic" type="matrix" values="0 0 0 0 0.098039 0 0 0 0 0.098039 0 0 0 0 0.439216 0 0 0 1.000000 0"></feColorMatrix>
        </filter>
    </defs>
    <g id="Welcome" stroke="none" stroke-width="1" fill="none" fill-rule="evenodd">
        <g id="Asset-4--Icones" transform="translate(-202.000000, -735.000000)">
            <g id="Sous-Catégories/Produits-frais" transform="translate(202.000000, 735.000000)">
                <rect id="Rectangle-Copy-9" fill="#FFFFFF" x="0" y="0" width="42" height="42" rx="21"></rect>
                <g filter="url(#filter-1)" id="salami">
                    <g transform="translate(8.500000, 11.000000)">
                        <path d="M8.09760956,18.3510956 C8.85956175,17.8696713 9.27953187,17.2153386 9.27953187,16.5084661 C9.27953187,15.8015936 8.85976096,15.1473108 8.09760956,14.6658367 C7.37808765,14.2113546 6.42744024,13.9610558 5.42076693,13.9610558 C4.41409363,13.9610558 3.46359562,14.2113546 2.7438745,14.6658367 C1.98192231,15.1472112 1.56195219,15.8015936 1.56195219,16.5084661 C1.56195219,17.2153386 1.98172311,17.8696215 2.7438745,18.3510956 C3.46344622,18.8055279 4.41409363,19.0558267 5.42076693,19.0558267 C6.42744024,19.0558267 7.37788845,18.8055279 8.09760956,18.3510956 Z M2.15956175,16.5084661 C2.15956175,15.4516434 3.65298805,14.5587649 5.42076693,14.5587649 C7.18854582,14.5587649 8.68192231,15.4516434 8.68192231,16.5084661 C8.68192231,17.5652888 7.18849602,18.4581673 5.42076693,18.4581673 C3.65303785,18.4581673 2.15936255,17.5653386 2.15936255,16.5085159 L2.15956175,16.5084661 Z" id="Shape" fill="#000000" fill-rule="nonzero"></path>
                        <path d="M3.76942231,15.2993024 C3.62661443,15.2990885 3.50355446,15.3998111 3.4755363,15.5398436 C3.44751814,15.6798762 3.52235007,15.8201936 3.65424639,15.874943 C3.78614271,15.9296924 3.93834568,15.8836159 4.01773035,15.7649053 C4.09711502,15.6461947 4.08155795,15.487933 3.98057769,15.3869522 C3.92450534,15.3310331 3.848612,15.2995302 3.76942231,15.2993024 L3.76942231,15.2993024 Z" id="Path" fill="#000000" fill-rule="nonzero"></path>
                        <path d="M6.20966135,17.8491039 C6.35246924,17.8493179 6.4755292,17.7485953 6.50354736,17.6085627 C6.53156552,17.4685302 6.45673359,17.3282128 6.32483728,17.2734634 C6.19294096,17.218714 6.04073798,17.2647904 5.96135331,17.3835011 C5.88196864,17.5022117 5.89752571,17.6604734 5.99850598,17.7614542 C6.05452609,17.8174515 6.13045319,17.8489684 6.20966135,17.8491039 L6.20966135,17.8491039 Z" id="Path" fill="#000000" fill-rule="nonzero"></path>
                        <path d="M5.53237052,16.5742032 C5.53217967,16.4318457 5.43145797,16.309446 5.29179971,16.2818551 C5.15214145,16.2542643 5.01244085,16.3291661 4.95812898,16.4607561 C4.9038171,16.592346 4.95001957,16.7439767 5.06848219,16.8229216 C5.18694482,16.9018664 5.34467629,16.8861396 5.44521912,16.7853586 C5.50088716,16.7291597 5.53219481,16.6533057 5.53237052,16.5742032 L5.53237052,16.5742032 Z" id="Path" fill="#000000" fill-rule="nonzero"></path>
                        <path d="M6.20966135,15.8969127 C6.35246924,15.8971266 6.4755292,15.7964041 6.50354736,15.6563715 C6.53156552,15.5163389 6.45673359,15.3760215 6.32483728,15.3212721 C6.19294096,15.2665227 6.04073798,15.3125992 5.96135331,15.4313098 C5.88196864,15.5500204 5.89752571,15.7082821 5.99850598,15.8092629 C6.05464839,15.8650771 6.13049657,15.8965612 6.20966135,15.8969127 L6.20966135,15.8969127 Z" id="Path" fill="#000000" fill-rule="nonzero"></path>
                        <path d="M3.2813745,16.7634462 C3.13908323,16.763637 3.01672104,16.8642673 2.98906063,17.0038443 C2.96140022,17.1434213 3.03613737,17.2831114 3.16760194,17.3375532 C3.29906651,17.391995 3.45068194,17.3460415 3.52979957,17.2277738 C3.6089172,17.1095062 3.59352462,16.9518292 3.49302789,16.8510956 C3.43683322,16.795055 3.36073682,16.7635422 3.2813745,16.7634462 L3.2813745,16.7634462 Z" id="Path" fill="#000000" fill-rule="nonzero"></path>
                        <path d="M8.16185259,16.8730083 C8.30466047,16.8732222 8.42772044,16.7724997 8.4557386,16.6324671 C8.48375676,16.4924346 8.40892483,16.3521172 8.27702851,16.2973678 C8.14513219,16.2426183 7.99292922,16.2886948 7.91354455,16.4074054 C7.83415988,16.5261161 7.84971695,16.6843778 7.95069721,16.7853586 C8.00683962,16.8411727 8.08268781,16.8726568 8.16185259,16.8730083 L8.16185259,16.8730083 Z" id="Path" fill="#000000" fill-rule="nonzero"></path>
                        <path d="M15.0363546,20.584761 C16.0605578,20.584761 17.0277888,20.3335657 17.7598108,19.8775896 C18.5358566,19.3941235 18.963247,18.7364044 18.963247,18.0256474 C18.963247,17.3148904 18.5358566,16.6571713 17.7598108,16.1736554 C17.027739,15.7175797 16.0605578,15.4664841 15.0363546,15.4664841 C14.0121514,15.4664841 13.0449203,15.7176295 12.3128486,16.1736554 C11.5368028,16.6571713 11.1094124,17.3148904 11.1094124,18.0256474 C11.1094124,18.7364044 11.5368028,19.3941235 12.3128486,19.8775896 C13.0449203,20.3336653 14.0121016,20.584761 15.0363546,20.584761 Z M11.7070219,18.0255478 C11.7070219,16.962251 13.2316733,16.0639442 15.0363546,16.0639442 C16.8410359,16.0639442 18.3656375,16.962251 18.3656375,18.0255478 C18.3656375,19.0888446 16.8409861,19.9871514 15.0363546,19.9871514 C13.2317231,19.9871514 11.7070219,19.0886454 11.7070219,18.0255478 L11.7070219,18.0255478 Z" id="Shape" fill="#000000" fill-rule="nonzero"></path>
                        <path d="M13.2375498,16.7634459 C13.0947419,16.7632319 12.971682,16.8639545 12.9436638,17.0039871 C12.9156456,17.1440196 12.9904776,17.284337 13.1223739,17.3390864 C13.2542702,17.3938358 13.4064732,17.3477594 13.4858578,17.2290487 C13.5652425,17.1103381 13.5496854,16.9520764 13.4487052,16.8510956 C13.3926328,16.7951765 13.3167395,16.7636736 13.2375498,16.7634459 L13.2375498,16.7634459 Z" id="Path" fill="#000000" fill-rule="nonzero"></path>
                        <path d="M15.6777888,19.3132474 C15.8205967,19.3134613 15.9436567,19.2127387 15.9716749,19.0727062 C15.999693,18.9326736 15.9248611,18.7923562 15.7929648,18.7376068 C15.6610684,18.6828574 15.5088655,18.7289339 15.4294808,18.8476445 C15.3500961,18.9663551 15.3656532,19.1246168 15.4666335,19.2255976 C15.5227759,19.2814117 15.5986241,19.3128959 15.6777888,19.3132474 L15.6777888,19.3132474 Z" id="Path" fill="#000000" fill-rule="nonzero"></path>
                        <path d="M14.7016932,17.7395415 C14.5588853,17.7393276 14.4358254,17.8400501 14.4078072,17.9800827 C14.3797891,18.1201152 14.454621,18.2604326 14.5865173,18.315182 C14.7184136,18.3699315 14.8706166,18.323855 14.9500013,18.2051444 C15.0293859,18.0864337 15.0138289,17.928172 14.9128486,17.8271912 C14.8567763,17.7712721 14.7808829,17.7397692 14.7016932,17.7395415 L14.7016932,17.7395415 Z" id="Path" fill="#000000" fill-rule="nonzero"></path>
                        <path d="M15.6777888,17.3610561 C15.8205967,17.36127 15.9436567,17.2605475 15.9716749,17.1205149 C15.999693,16.9804824 15.9248611,16.840165 15.7929648,16.7854156 C15.6610684,16.7306661 15.5088655,16.7767426 15.4294808,16.8954533 C15.3500961,17.0141639 15.3656532,17.1724256 15.4666335,17.2734064 C15.5227759,17.3292205 15.5986241,17.3607046 15.6777888,17.3610561 L15.6777888,17.3610561 Z" id="Path" fill="#000000" fill-rule="nonzero"></path>
                        <path d="M12.749502,18.2275896 C12.6072107,18.2277804 12.4848485,18.3284107 12.4571881,18.4679877 C12.4295277,18.6075647 12.5042649,18.7472548 12.6357294,18.8016966 C12.767194,18.8561384 12.9188094,18.8101849 12.9979271,18.6919173 C13.0770447,18.5736496 13.0616521,18.4159726 12.9611554,18.315239 C12.9049607,18.2591985 12.8288643,18.2276856 12.749502,18.2275896 L12.749502,18.2275896 Z" id="Path" fill="#000000" fill-rule="nonzero"></path>
                        <path d="M17.6299801,18.3371517 C17.772788,18.3373657 17.8958479,18.2366431 17.9238661,18.0966105 C17.9518842,17.956578 17.8770523,17.8162606 17.745156,17.7615112 C17.6132597,17.7067618 17.4610567,17.7528382 17.381672,17.8715489 C17.3022874,17.9902595 17.3178444,18.1485212 17.4188247,18.249502 C17.4749671,18.3053161 17.5508153,18.3368003 17.6299801,18.3371517 L17.6299801,18.3371517 Z" id="Path" fill="#000000" fill-rule="nonzero"></path>
                        <path d="M23.2560757,2.28999004 L9.82858566,0.107071713 C7.23103646,-0.314043996 4.68544858,1.10872097 3.68316733,3.54183267 C3.34860558,2.8685757 2.76558765,1.94820717 2.02226096,1.78994024 C1.73894422,1.72968127 1.30712151,1.75507968 0.858715139,2.21762948 C0.29312749,2.80119522 0.244173307,3.52310757 0.724252988,4.19835657 C0.755919191,4.24244891 0.76851505,4.29742701 0.759203482,4.35090764 C0.749891914,4.40438826 0.71945596,4.45187405 0.674750996,4.48266932 C0.00856573705,4.95786853 -0.173007968,5.6500996 0.176743028,6.38187251 C0.45373506,6.96215139 0.854432271,7.12310757 1.14173307,7.1563745 C1.18567814,7.16138532 1.22987377,7.16387943 1.27410359,7.16384462 C1.99407371,7.16384462 2.77420319,6.52455179 3.27569721,6.02290837 C3.44780556,8.64799755 5.41107426,10.8058577 8.00826693,11.2245518 L21.561504,13.4173805 C21.9300299,13.4173805 22.3168327,13.1755976 22.5885956,12.9599104 C23.6309761,12.1325199 24.8202689,10.2495518 24.9681275,8.07056773 C25.1683267,5.12051793 24.3843127,2.47340637 23.2560757,2.28999004 Z M3.33994024,4.75846614 C3.32031873,4.87828685 3.30507968,4.99815737 3.29307769,5.11792829 C2.79108566,5.73047809 1.81354582,6.63301793 1.20976096,6.56215139 C1.13505976,6.55358566 0.908515936,6.52729084 0.715687251,6.12390438 C0.487898406,5.64721116 0.585059761,5.28022908 1.02156375,4.9689243 C1.38148954,4.71218424 1.46619191,4.21280756 1.21105578,3.85174303 C0.896563745,3.40946215 0.921613546,3.01085657 1.2875498,2.63326693 C1.5999502,2.31105578 1.82390438,2.35846614 1.89746016,2.37430279 C2.49148406,2.5002988 3.13017928,3.66414343 3.41030876,4.40303785 C3.38341633,4.52011952 3.35961155,4.63844622 3.33994024,4.75846614 L3.33994024,4.75846614 Z M8.10413347,10.634512 C6.78363853,10.4227315 5.60157238,9.69450465 4.81850796,8.61036077 C4.03544353,7.52621689 3.71567126,6.17516531 3.92968127,4.85502988 C4.37853586,2.11503984 6.98177291,0.249701195 9.73266932,0.697211155 L10.1693227,0.767928287 C9.82411587,1.13219639 9.52276022,1.5356419 9.27141434,1.97001992 C8.71643426,2.9250498 8.12709163,4.51030876 8.47121514,6.63904382 C8.49866337,6.8008414 8.65146342,6.91022247 8.81347165,6.88404623 C8.97547988,6.85786998 9.08605802,6.70593398 9.06115538,6.5437251 C8.80911355,4.98471116 9.04920319,3.55468127 9.774751,2.29337649 C10.0727727,1.76576994 10.4558246,1.29096397 10.9084661,0.88809761 L14.0986056,1.40672311 C13.7545091,1.7642738 13.4537312,2.1611154 13.20249,2.58904382 C12.6444721,3.53560757 12.0515438,5.11095618 12.3957171,7.24043825 C12.4127531,7.34582982 12.4847207,7.43412707 12.5845104,7.4720693 C12.6843002,7.51001152 12.7967516,7.49183438 12.8795054,7.42438503 C12.9622592,7.35693569 13.0027431,7.25046129 12.9857072,7.14506972 C12.7338147,5.58690239 12.9753486,4.16389442 13.7036355,2.91563745 C14.0032032,2.39253822 14.3883371,1.92335463 14.8430279,1.52758964 L18.0605578,2.05049801 C17.7081675,2.42062711 17.4000675,2.8305246 17.1424801,3.27191235 C16.5773904,4.23625498 15.9760956,5.83276892 16.3202689,7.96200199 C16.3436126,8.10663966 16.4683812,8.21301774 16.6148904,8.21319721 C16.6309874,8.21318083 16.6470575,8.2118819 16.6629482,8.20931275 C16.7411881,8.19667091 16.8112006,8.15346364 16.8575813,8.08919753 C16.903962,8.02493142 16.9229109,7.94487174 16.910259,7.86663347 C16.6582669,6.30786853 16.9052789,4.87101594 17.6449203,3.59656375 C17.9500396,3.06169278 18.3402796,2.58011651 18.8002988,2.17076693 L22.1305279,2.71215139 C21.7445219,3.00428287 21.3642928,3.40826693 21.0534363,3.80836653 C20.549004,4.45756972 19.6582171,5.81802789 19.3605578,7.63505976 C19.0111554,9.76832669 19.6424801,11.5792829 20.3498008,12.5623008 C20.3673307,12.5866534 20.3849602,12.6101594 20.4026394,12.6335657 L8.10413347,10.634512 Z M24.3719124,8.02993028 C24.2363048,10.0278884 23.1598108,11.7433267 22.2170319,12.4916833 C21.8796813,12.7594124 21.6370518,12.8347112 21.5316235,12.8173805 C21.3880976,12.7940737 21.1297311,12.6231574 20.8350598,12.2136952 C20.2268426,11.3681773 19.6302291,9.6872012 19.9504482,7.73202191 C20.152241,6.5001494 20.7263446,5.20383466 21.525498,4.17534861 C22.23501,3.2623008 22.8690737,2.8773374 23.1263446,2.8773374 C23.1376661,2.8773374 23.1489743,2.8781272 23.1601594,2.87988048 C23.7045817,2.96837649 24.5781873,4.99088645 24.3719124,8.02993028 Z" id="Shape" fill="#000000" fill-rule="nonzero"></path>
                        <path d="M22.6975598,8.55288845 C22.1691733,8.46708167 21.8160857,8.72320717 21.7290837,9.25577689 C21.6739044,9.59243028 21.7393426,9.92046813 21.9086155,10.1557271 C22.0201761,10.3177216 22.1918582,10.428405 22.3854582,10.4631474 C22.4221255,10.4691205 22.4592139,10.4721348 22.4963645,10.4721614 C22.9196713,10.4721614 23.3015936,10.0798805 23.3921315,9.52714143 C23.4355578,9.26205179 23.3953685,9.04118526 23.2726096,8.87066733 C23.151494,8.70204183 22.9581673,8.59521912 22.6975598,8.55288845 L22.6975598,8.55288845 Z M22.8021414,9.43027888 C22.7546315,9.72011952 22.5780378,9.88919323 22.4811255,9.87305777 C22.4446847,9.86265069 22.4134549,9.83898855 22.3935757,9.80672311 C22.334761,9.725 22.2840139,9.5626992 22.3188745,9.35239044 C22.3444721,9.19591633 22.3762948,9.13286853 22.4995518,9.13286853 C22.5338085,9.13348599 22.5679625,9.13681647 22.6016932,9.14282869 C22.6971614,9.15831673 22.7631474,9.18555777 22.7875996,9.21947211 C22.8130478,9.25493028 22.8187251,9.33177291 22.8023406,9.43027888 L22.8021414,9.43027888 Z" id="Shape" fill="#000000" fill-rule="nonzero"></path>
                        <path d="M22.3610558,6.12549801 C22.3977075,6.13145666 22.4347795,6.13446215 22.4719124,6.13446215 C22.8952191,6.13446215 23.2771912,5.74218127 23.3676793,5.18944223 C23.4111056,4.92435259 23.3709163,4.70348606 23.2481574,4.53296813 C23.1270916,4.36464143 22.9335657,4.25776892 22.6730578,4.21543825 C22.1447211,4.12933267 21.7915837,4.38580677 21.7045817,4.91837649 C21.6494522,5.25502988 21.7148904,5.58301793 21.8838645,5.81827689 C21.9955442,5.98027377 22.1673609,6.09089131 22.3610558,6.12549801 L22.3610558,6.12549801 Z M22.2944721,5.01494024 C22.3260458,4.82206175 22.3668825,4.77091633 22.5772908,4.80527888 C22.6728088,4.82076693 22.7387948,4.84800797 22.7631972,4.88192231 C22.788745,4.91743028 22.7941235,4.99432271 22.7781375,5.09282869 C22.7306773,5.38261952 22.5540339,5.55144422 22.4571215,5.53555777 C22.4206513,5.52518377 22.3893949,5.50151495 22.3695219,5.46922311 C22.310757,5.3876494 22.26001,5.22534861 22.2944721,5.01494024 L22.2944721,5.01494024 Z" id="Shape" fill="#000000" fill-rule="nonzero"></path>
                        <path d="M23.2506972,7.20189243 C23.2242489,7.36476988 23.334835,7.51825262 23.4977092,7.54472112 L23.5548805,7.55403386 C23.6602543,7.57115877 23.7667597,7.5307666 23.8342772,7.44807268 C23.9017947,7.36537877 23.9200667,7.25294628 23.8822104,7.15312746 C23.8443541,7.05330864 23.7561208,6.98126833 23.650747,6.96414343 L23.5935757,6.95488048 C23.515351,6.94216503 23.435279,6.96104643 23.3709762,7.00737063 C23.3066733,7.05369483 23.2634074,7.12366687 23.2506972,7.20189243 L23.2506972,7.20189243 Z" id="Path" fill="#000000" fill-rule="nonzero"></path>
                        <path d="M21.0714641,7.39805777 L21.0142928,7.38879482 C20.9084043,7.37050988 20.8008521,7.41048959 20.7326175,7.49350027 C20.664383,7.57651094 20.6459755,7.68976734 20.6844089,7.79011472 C20.7228424,7.89046209 20.8121973,7.96244503 20.9184263,7.97863546 L20.9755478,7.98794821 C21.1384416,8.01443477 21.2919646,7.9038549 21.3184512,7.74096115 C21.3449378,7.57806741 21.2343579,7.42454434 21.0714641,7.39805777 L21.0714641,7.39805777 Z" id="Path" fill="#000000" fill-rule="nonzero"></path>
                        <path d="M21.6603586,11.2724602 L21.6031873,11.2631972 C21.4410537,11.23823 21.2891092,11.3486433 21.2627791,11.5105611 C21.236449,11.6724789 21.3455803,11.8253467 21.5072709,11.8530378 L21.5644422,11.8623506 C21.5804168,11.8649181 21.5965695,11.866217 21.612749,11.8662351 C21.7684721,11.8661791 21.8980443,11.7465371 21.9104904,11.5913122 C21.9229365,11.4360872 21.8140832,11.297328 21.6603586,11.2724602 L21.6603586,11.2724602 Z" id="Path" fill="#000000" fill-rule="nonzero"></path>
                        <path d="M8.29596614,9.45478088 C6.7264277,9.20162471 5.47310974,8.01120895 5.13954183,6.45677291 C5.11793125,6.35187329 5.04182992,6.26656289 4.94006891,6.23316163 C4.83830791,6.19976036 4.72645305,6.22337745 4.64688065,6.29506553 C4.56730825,6.36675361 4.53219008,6.47554695 4.55483068,6.58022908 C4.93928998,8.37630581 6.38694703,9.75213375 8.200249,10.0447709 C8.36238254,10.0697381 8.51432707,9.95932485 8.54065717,9.79740706 C8.56698727,9.63548926 8.45785593,9.48262138 8.29616534,9.45493028 L8.29596614,9.45478088 Z" id="Path" fill="#000000" fill-rule="nonzero"></path>
                        <path d="M4.74965139,5.77569721 C4.75463147,5.77569721 4.75936255,5.77604582 4.76419323,5.77604582 C4.92356314,5.7759095 5.05477726,5.65072141 5.0624004,5.49153386 C5.06953528,5.34301934 5.08516509,5.19503496 5.10921315,5.04830677 C5.12729902,4.94258249 5.08733062,4.8352753 5.00448897,4.76714319 C4.92164732,4.69901109 4.80864318,4.68050788 4.70839838,4.71866155 C4.60815358,4.75681522 4.53604912,4.84577168 4.51947211,4.95174303 C4.49173742,5.12104189 4.47371327,5.29178912 4.46548805,5.46314741 C4.45771163,5.62790279 4.58490182,5.76779863 4.74965139,5.77569721 L4.74965139,5.77569721 Z" id="Path" fill="#000000" fill-rule="nonzero"></path>
                    </g>
                </g>
            </g>
        </g>
    </g>
</svg>