<?xml version="1.0" encoding="UTF-8"?>
<svg width="42px" height="42px" viewBox="0 0 42 42" version="1.1" xmlns="http://www.w3.org/2000/svg" xmlns:xlink="http://www.w3.org/1999/xlink">
    <title>4FC36B33-20D2-40EA-A263-CA82C3C881E9</title>
    <defs>
        <filter id="filter-1">
            <feColorMatrix in="SourceGraphic" type="matrix" values="0 0 0 0 0.098039 0 0 0 0 0.098039 0 0 0 0 0.439216 0 0 0 1.000000 0"></feColorMatrix>
        </filter>
    </defs>
    <g id="Welcome" stroke="none" stroke-width="1" fill="none" fill-rule="evenodd">
        <g id="Asset-4--Icones" transform="translate(-385.000000, -361.000000)">
            <g id="Sous-Catégories/Puericulture" transform="translate(385.000000, 361.000000)">
                <rect id="Rectangle-Copy-17" fill="#FFFFFF" x="0" y="0" width="42" height="42" rx="21"></rect>
                <g filter="url(#filter-1)" id="CRADLE">
                    <g transform="translate(8.500000, 8.500000)">
                        <path d="M24.4635417,22.043125 C24.2257895,21.8557862 23.9146614,21.7891599 23.6210417,21.8627083 C22.5599644,22.1125828 21.4852254,22.3004013 20.4022917,22.4252083 L19.8814583,18.9135417 C21.3702374,18.0684504 22.2905457,16.4889949 22.2916667,14.7770833 L22.2916667,11.9877083 C22.7332454,11.81321 22.9883377,11.3493624 22.8992007,10.8829978 C22.8100637,10.4166331 22.4018896,10.0795566 21.9270833,10.0802083 L21.1583333,10.0802083 L21.1583333,3.64583333 C21.156611,2.06448159 19.8751017,0.782972294 18.29375,0.78125 L17.16875,0.78125 C17.0194573,0.404372662 16.6553698,0.15669405 16.25,0.15625 L8.75,0.15625 C8.34493444,0.157035103 7.98126366,0.404654787 7.83208333,0.78125 L6.70708333,0.78125 C5.12540616,0.782513025 3.84338975,2.0641566 3.84166667,3.64583333 L3.84166667,10.0802083 L3.07291667,10.0802083 C2.59811041,10.0795566 2.18993628,10.4166331 2.1007993,10.8829978 C2.01166232,11.3493624 2.26675465,11.81321 2.70833333,11.9877083 L2.70833333,14.7770833 C2.70964672,16.4888892 3.63002009,18.0681608 5.11875,18.913125 L4.59791667,22.4247917 C3.51498296,22.2999846 2.44024394,22.1121661 1.37916667,21.8622917 C0.848685662,21.7316993 0.312779844,22.0558732 0.182187514,22.5863542 C0.0515951842,23.1168352 0.375768999,23.652741 0.90625,23.7833333 C3.606875,24.4475 7.94104167,24.84375 12.5,24.84375 C17.0625,24.84375 21.3958333,24.4479167 24.0941667,23.78375 C24.4611709,23.6918459 24.74373,23.3988493 24.8222672,23.0287542 C24.9008045,22.6586592 24.7615913,22.2761591 24.4635417,22.043125 Z M19.6777083,22.50875 C19.5072917,22.5270833 19.3345833,22.5447222 19.1595833,22.5616667 L18.6875,19.3929167 C18.858296,19.3502873 19.0265497,19.2980514 19.1914583,19.2364583 L19.6777083,22.50875 Z M7.46666667,19.5354167 L17.5333333,19.5354167 C17.6804167,19.5354167 17.825,19.5277083 17.9691667,19.5145833 L18.4322917,22.6275 C16.60875,22.780625 14.58625,22.8645833 12.5,22.8645833 C10.41375,22.8645833 8.39125,22.78125 6.56770833,22.6275 L7.03083333,19.5145833 C7.174375,19.5277083 7.31958333,19.5354167 7.46666667,19.5354167 Z M3.4375,12.059375 L21.5625,12.059375 L21.5625,13.4791667 L20.3541667,14.119375 L18.953125,13.375 C18.8463589,13.3183322 18.7184328,13.3183322 18.6116667,13.375 L17.2110417,14.1177083 L15.8102083,13.375 C15.7033686,13.3183319 15.5753814,13.3183319 15.4685417,13.375 L14.068125,14.1177083 L12.6683333,13.375 C12.5614199,13.3183315 12.4333717,13.3183315 12.3264583,13.375 L10.9266667,14.1177083 L9.52666667,13.375 C9.41975327,13.3183315 9.29170506,13.3183315 9.18479167,13.375 L7.785625,14.1177083 L6.38541667,13.375 C6.27857692,13.3183319 6.15058975,13.3183319 6.04375,13.375 L4.64375,14.1177083 L3.4375,13.4791667 L3.4375,12.059375 Z M8.75,0.885416667 L16.25,0.885416667 C16.3938242,0.885416667 16.5104167,1.00200918 16.5104167,1.14583333 C16.5104167,1.28965748 16.3938242,1.40625 16.25,1.40625 L8.75,1.40625 C8.60617585,1.40625 8.48958334,1.28965748 8.48958334,1.14583333 C8.48958334,1.00200918 8.60617585,0.885416667 8.75,0.885416667 Z M16.2379167,5.93604167 L16.2604167,6.068125 L16.141875,6.005625 C16.0356372,5.9497998 15.9087378,5.9497998 15.8025,6.005625 L15.6839583,6.068125 L15.7064583,5.93604167 C15.7269559,5.81788481 15.6880025,5.69720728 15.6022917,5.61333333 L15.50625,5.51979167 L15.6389583,5.500625 C15.7577498,5.483329 15.8604282,5.40869634 15.9135417,5.30104167 L15.9729167,5.18083333 L16.0322917,5.30104167 C16.0854052,5.40869634 16.1880835,5.483329 16.306875,5.500625 L16.439375,5.51979167 L16.3433333,5.61333333 C16.2571684,5.69696239 16.2177365,5.81767367 16.2379167,5.93604167 Z M12.5,6.02416667 C12.9890021,6.02416667 13.3854167,6.42058121 13.3854167,6.90958333 C13.3854167,7.39858546 12.9890021,7.795 12.5,7.795 C12.0109979,7.795 11.6145833,7.39858546 11.6145833,6.90958333 C11.6151573,6.42081917 12.0112358,6.02474067 12.5,6.02416667 Z M9.29354167,5.93604167 L9.31604167,6.068125 L9.1975,6.005625 C9.09126219,5.9497998 8.96436281,5.9497998 8.858125,6.005625 L8.73958333,6.068125 L8.76208333,5.93604167 C8.78258091,5.81788481 8.74362754,5.69720728 8.65791667,5.61333333 L8.561875,5.51979167 L8.694375,5.500625 C8.8131665,5.483329 8.91584484,5.40869634 8.96895833,5.30104167 L9.02833333,5.18083333 L9.08770833,5.30104167 C9.14082183,5.40869634 9.24350017,5.483329 9.36229167,5.500625 L9.495,5.51979167 L9.39895833,5.61333333 C9.31279337,5.69696239 9.27336154,5.81767367 9.29354167,5.93604167 L9.29354167,5.93604167 Z M4.57083333,3.64583333 C4.57209639,2.46699885 5.52741551,1.51167973 6.70625,1.51041667 L7.83125,1.51041667 C7.96975892,1.85621274 8.29117383,2.0945545 8.66229167,2.12666667 L8.66229167,4.2725 L8.39854167,4.806875 L7.72458333,4.90479167 C7.58724194,4.92473697 7.47313522,5.02092758 7.43024461,5.15291572 C7.38735399,5.28490385 7.42311877,5.42979642 7.5225,5.52666667 L8.01020833,6.00208333 L7.89583333,6.673125 C7.87228971,6.80991099 7.92850234,6.94819315 8.04080631,7.02975618 C8.15311028,7.1113192 8.3019989,7.12199597 8.42479167,7.05729167 L9.02770833,6.74041667 L9.630625,7.05729167 C9.75341776,7.12199597 9.90230639,7.1113192 10.0146104,7.02975618 C10.1269143,6.94819315 10.183127,6.80991099 10.1595833,6.673125 L10.0445833,6.00166667 L10.5322917,5.52625 C10.6316729,5.42937976 10.6674377,5.28448718 10.6245471,5.15249905 C10.5816564,5.02051092 10.4675497,4.9243203 10.3302083,4.904375 L9.65625,4.80645833 L9.39229167,4.27208333 L9.39229167,2.13541667 L12.1354167,2.13541667 L12.1354167,5.33791667 C11.3358949,5.52324035 10.8026098,6.27887648 10.8958758,7.09427908 C10.9891418,7.90968168 11.6792808,8.52538217 12.5,8.52538217 C13.3207192,8.52538217 14.0108582,7.90968168 14.1041242,7.09427908 C14.1973902,6.27887648 13.6641051,5.52324035 12.8645833,5.33791667 L12.8645833,2.13541667 L15.6077083,2.13541667 L15.6077083,4.27208333 L15.34375,4.80645833 L14.6697917,4.904375 C14.5324503,4.9243203 14.4183436,5.02051092 14.3754529,5.15249905 C14.3325623,5.28448718 14.3683271,5.42937976 14.4677083,5.52625 L14.9554167,6.00166667 L14.8404167,6.673125 C14.816873,6.80991099 14.8730857,6.94819315 14.9853896,7.02975618 C15.0976936,7.1113192 15.2465822,7.12199597 15.369375,7.05729167 L15.9722917,6.74041667 L16.5752083,7.05729167 C16.6980114,7.12181971 16.8467944,7.11106388 16.9590394,7.02954371 C17.0712843,6.94802355 17.1275395,6.80986628 17.1041667,6.673125 L16.9889583,6.00166667 L17.4766667,5.52625 C17.5760479,5.42937976 17.6118127,5.28448718 17.5689221,5.15249905 C17.5260314,5.02051092 17.4119247,4.9243203 17.2745833,4.904375 L16.600625,4.80645833 L16.336875,4.27208333 L16.336875,2.12625 C16.7079928,2.09413784 17.0294077,1.85579607 17.1679167,1.51 L18.2929167,1.51 C19.4722391,1.51080407 20.4281325,2.4665111 20.4291667,3.64583333 L20.4291667,10.0802083 L4.57083333,10.0802083 L4.57083333,3.64583333 Z M3.07291667,10.8093696 L21.9270833,10.8093696 C22.0709075,10.8084545 22.1882462,10.9243009 22.1891721,11.068125 C22.1900871,11.2119491 22.0742408,11.3292878 21.9304167,11.3302083 L21.9270833,11.3302083 C21.9235417,11.3302083 21.9204167,11.3302083 21.9170833,11.3302083 L3.08333333,11.3302083 C3.08,11.3302083 3.076875,11.3302083 3.07333333,11.3302083 L3.07,11.3302083 C2.92617585,11.3292879 2.81032953,11.2119492 2.81124455,11.068125 C2.81217047,10.9243008 2.92950918,10.8084545 3.07333333,10.8093696 L3.07291667,10.8093696 Z M3.4375,14.7770833 L3.4375,14.3041667 L4.47270833,14.8541667 C4.57962173,14.9108352 4.70766994,14.9108352 4.81458333,14.8541667 L6.21458333,14.1114583 L7.615,14.8541667 C7.72183975,14.9108348 7.84982692,14.9108348 7.95666667,14.8541667 L9.35583333,14.1114583 L10.755625,14.8541667 C10.8625384,14.9108352 10.9905866,14.9108352 11.0975,14.8541667 L12.4972917,14.1114583 L13.8972917,14.8541667 C14.0041314,14.9108348 14.1321186,14.9108348 14.2389583,14.8541667 L15.639375,14.1114583 L17.0402083,14.8541667 C17.1470481,14.9108348 17.2750352,14.9108348 17.381875,14.8541667 L18.7825,14.1114583 L20.1839583,14.8541667 C20.2907244,14.9108344 20.4186506,14.9108344 20.5254167,14.8541667 L21.5625,14.3045833 L21.5625,14.7770833 C21.5599742,17.0012836 19.7575336,18.8037242 17.5333333,18.80625 L7.46666667,18.80625 C5.24246643,18.8037242 3.44002581,17.0012836 3.4375,14.7770833 Z M5.80770833,19.2354167 C5.97261692,19.2970098 6.14087063,19.3492456 6.31166667,19.391875 L5.84041667,22.5625 C5.66569444,22.5454167 5.49298611,22.5277778 5.32229167,22.5095833 L5.80770833,19.2354167 Z M24.114593,22.8227083 C24.1156087,22.9415519 24.0352286,23.0456846 23.92,23.0747917 C21.27625,23.7252083 17.0070833,24.1135417 12.5,24.1135417 C7.99645833,24.1135417 3.72729167,23.7252083 1.08,23.0745833 C0.983970885,23.0494127 0.910530338,22.9719515 0.890509131,22.8747182 C0.870487925,22.777485 0.907351766,22.677311 0.985625,22.61625 C1.02990773,22.5812325 1.08458869,22.5619549 1.14104167,22.5614583 C1.16211594,22.5615987 1.18309797,22.5642564 1.20354167,22.569375 C3.78854167,23.21125 8.01166667,23.59375 12.5,23.59375 C16.9883333,23.59375 21.2114583,23.21125 23.7964583,22.570625 C23.8724288,22.5512109 23.9531068,22.5685651 24.014375,22.6175 C24.0778951,22.6669466 24.1149057,22.7430453 24.114593,22.8235417 L24.114593,22.8227083 Z" id="Shape" fill="#000000" fill-rule="nonzero"></path>
                    </g>
                </g>
            </g>
        </g>
    </g>
</svg>