<svg height="480pt" viewBox="0 0 480 480.02674" width="480pt" xmlns="http://www.w3.org/2000/svg"><path d="m440.011719 16.027344h-177.46875c-3.878907-11.011719-15.136719-17.621094-26.644531-15.644532-11.503907 1.980469-19.90625 11.96875-19.886719 23.644532v8h-19.421875c-6.910156-.195313-13.414063-3.304688-17.90625-8.5625-15.511719-15.53125-36.726563-24.003906-58.671875-23.4375002-39.695313 0-72 25.1210942-72 56.0000002s32.304687 56 72 56c21.945312.566406 43.160156-7.910156 58.671875-23.441406 4.492187-5.257813 10.996094-8.367188 17.90625-8.558594h19.421875v8c-.019531 11.675781 8.382812 21.664062 19.886719 23.640625 11.507812 1.980469 22.765624-4.628907 26.644531-15.640625h177.46875c22.09375 0 40-17.910156 40-40 0-22.09375-17.90625-40-40-40zm-243.421875 48c-11.410156.164062-22.210938 5.171875-29.710938 13.765625-12.472656 12.234375-29.40625 18.820312-46.867187 18.234375-30.878907 0-56-17.945313-56-40 0-22.054688 25.121093-40 56-40 17.460937-.589844 34.394531 6 46.867187 18.230468 7.5 8.597657 18.300782 13.601563 29.710938 13.769532h19.421875v16zm43.421875 32c-4.417969 0-8-3.582032-8-8v-64c0-4.417969 3.582031-8 8-8 4.421875 0 8 3.582031 8 8v64c0 4.417968-3.578125 8-8 8zm200-16h-176v-48h176c13.257812 0 24 10.746094 24 24s-10.742188 24-24 24zm0 0"/><path d="m80.011719 64.027344c-4.417969 0-8-3.582032-8-8 0-17.648438 17.945312-32 40-32 4.421875 0 8 3.582031 8 8 0 4.417968-3.578125 8-8 8-13.007813 0-24 7.328125-24 16 0 4.417968-3.578125 8-8 8zm0 0"/><path d="m440.011719 256.027344h-16v-8c0-4.417969-3.578125-8-8-8h-8.796875c-3.859375-18.925782-20.691406-32.390625-40-32-4.296875-21.554688-25.242188-35.554688-46.800782-31.28125-9.019531-12.96875-24.972656-19.214844-40.402343-15.824219-10.828125-11.109375-25.785157-17.222656-41.292969-16.878906-15.511719.339843-30.183594 7.105469-40.511719 18.679687-4.527343-1.765625-9.335937-2.679687-14.195312-2.695312-12.871094.039062-24.941407 6.273437-32.421875 16.75-10.464844-2.0625-21.320313.164062-30.128906 6.179687-8.808594 6.019531-14.828126 15.320313-16.710938 25.820313-15.976562 2.988281-28.566406 15.332031-31.863281 31.25h-8.875c-4.417969 0-8 3.582031-8 8v8h-16c-22.078125.027344-39.9726565 17.917968-40.0000002 40v32c.0507812 39.742187 32.2578122 71.949218 72.0000002 72h32.546875c13.191406 11.074218 28.367187 19.546875 44.71875 24.96875-23.128906 8.53125-43.613282 22.984375-59.40625 41.910156-1.988282 2.386719-2.414063 5.703125-1.101563 8.511719 1.316407 2.8125 4.140625 4.609375 7.242188 4.609375h288c3.105469 0 5.925781-1.796875 7.242187-4.609375 1.316406-2.808594.890625-6.125-1.097656-8.511719-15.792969-18.925781-36.277344-33.378906-59.40625-41.910156 16.351562-5.421875 31.527344-13.894532 44.71875-24.96875h32.542969c39.746093-.050782 71.953125-32.257813 72-72v-32c-.023438-22.082032-17.917969-39.972656-40-40zm-16 40h8c4.421875 0 8 3.582031 8 8v16c-.035157 18.84375-13.199219 35.117187-31.621094 39.085937 10.265625-19.441406 15.628906-41.097656 15.621094-63.085937zm-318.964844-70.96875c.894531 3.855468 2.363281 7.558594 4.351563 10.984375 1.34375 2.632812 4.035156 4.304687 6.988281 4.355469 2.957031.046874 5.699219-1.539063 7.132812-4.125 1.429688-2.585938 1.320313-5.75-.289062-8.230469-2.113281-3.652344-3.222657-7.796875-3.21875-12.015625.070312-6.484375 2.730469-12.671875 7.386719-17.179688 4.660156-4.511718 10.933593-6.964844 17.414062-6.820312-.046875.222656 0 .464844-.070312.6875-.46875 2.410156-.710938 4.855468-.730469 7.3125 0 4.417968 3.582031 8 8 8 4.421875 0 8-3.582032 8-8-.011719-3.644532.84375-7.234375 2.496093-10.480469 3.992188-8.25 12.339844-13.5 21.503907-13.519531 13.238281.039062 23.960937 10.761718 24 24 0 4.417968 3.582031 8 8 8 4.421875 0 8-3.582032 8-8-.023438-2.417969-.261719-4.828125-.710938-7.199219-.09375-.546875-.199219-1.074219-.3125-1.601563-.492187-2.269531-1.175781-4.496093-2.046875-6.648437-.113281-.253906-.257812-.496094-.367187-.75-.859375-1.929687-1.867188-3.78125-3.023438-5.546875-.273437-.421875-.53125-.847656-.800781-1.253906-1.328125-1.886719-2.820312-3.65625-4.457031-5.28125-.09375-.09375-.160157-.214844-.261719-.3125 8.054688-7.898438 19.070312-12.03125 30.332031-11.371094 11.265625.65625 21.726563 6.039062 28.808594 14.820312 5.761719 7.109376 8.882813 15.992188 8.839844 25.144532 0 4.417968 3.582031 8 8 8 4.421875 0 8-3.582032 8-8-.070313-8.191406-1.933594-16.269532-5.460938-23.664063 8.210938.925781 15.394531 5.960938 19.0625 13.367188 1.605469 3.195312 2.425781 6.722656 2.398438 10.296875 0 4.417968 3.582031 8 8 8 4.421875 0 8-3.582032 8-8-.125-2.679688-.390625-5.351563-.796875-8 6.46875-.152344 12.730468 2.289062 17.390625 6.785156 4.660156 4.492188 7.328125 10.664062 7.40625 17.132812-.332031 3.214844-.980469 6.386719-1.925781 9.472657-1.164063 2.640625-.816407 5.703125.910156 8.011719 1.726562 2.3125 4.5625 3.515624 7.421875 3.148437 2.863281-.363281 5.304687-2.242187 6.394531-4.910156 1.019531-2.425781 1.789062-4.949219 2.296875-7.527344.296875 0 .617187-.121094.902344-.121094 10.136719.042969 19.152343 6.445313 22.53125 16h-301.136719c2.554688-7.179687 8.355469-12.726562 15.640625-14.960937zm-33.410156 134.054687c-18.421875-3.96875-31.585938-20.242187-31.625-39.085937v-16c0-4.417969 3.582031-8 8-8h8c-.003907 21.988281 5.359375 43.644531 15.625 63.085937zm.375 24.914063c-30.910157-.035156-55.964844-25.085938-56-56v-32c0-13.253906 10.746093-24 24-24h16v8h-8c-13.253907 0-24 10.746094-24 24v16c.035156 30.914062 25.089843 55.964844 56 56h2.265625c1.992187 2.734375 4.039062 5.421875 6.230468 8zm293.210937 80h-250.402344c22.980469-20.636719 52.785157-32.035156 83.671876-32h83.042968c30.890625-.039063 60.703125 11.359375 83.6875 32zm-77.210937-48h-96c-66.242188-.074219-119.921875-53.757813-120-120v-40h336v40c-.074219 66.242187-53.753907 119.925781-120 120zm176-88c-.035157 30.914062-25.085938 55.964844-56 56h-16.496094c2.195313-2.578125 4.242187-5.265625 6.234375-8h2.261719c30.914062-.035156 55.964843-25.085938 56-56v-16c0-13.253906-10.742188-24-24-24h-8v-8h16c13.257812 0 24 10.746094 24 24zm0 0"/></svg>