<?xml version="1.0" encoding="UTF-8"?>
<svg width="30px" height="30px" viewBox="0 0 30 30" version="1.1" xmlns="http://www.w3.org/2000/svg" xmlns:xlink="http://www.w3.org/1999/xlink">
    <title>8333062A-FB79-4F0C-AE25-357C78B8468E</title>
    <g id="Welcome" stroke="none" stroke-width="1" fill="none" fill-rule="evenodd">
        <g id="Home-page-/-Profil_Non_Connecté" transform="translate(-1097.000000, -108.000000)">
            <rect id="Rectangle" fill="#FFFFFF" x="0" y="100" width="1440" height="800"></rect>
            <rect id="Rectangle" fill="#FFFFFF" x="0" y="101" width="1440" height="44"></rect>
            <g id="Icons/Qualité" transform="translate(1097.000000, 108.000000)">
                <rect id="Rectangle" fill="#FFFFFF" x="0" y="0" width="30" height="30"></rect>
                <path d="M15.000118,5 C9.47627701,5 5,9.47641075 5,15.000708 C5,20.5233532 9.47627701,25 15.000118,25 C20.522307,25 25,20.5233532 25,15.000708 C25,9.47641075 20.522543,5 15.000118,5 Z M18.3063251,19.6667031 L15.0870766,17.9729649 L11.867828,19.6667031 L12.4816705,16.0775461 L9.875,13.5378872 L13.4760826,13.0131382 L15.0870766,9.75 L16.6987027,13.0131382 L20.3004175,13.5378872 L17.6943792,16.0775461 L18.3063251,19.6667031 Z" id="Combined-Shape" fill="#B9131B" fill-rule="nonzero"></path>
            </g>
        </g>
    </g>
</svg>