<?xml version="1.0" encoding="UTF-8"?>
<svg width="18px" height="17px" viewBox="0 0 18 17" version="1.1" xmlns="http://www.w3.org/2000/svg" xmlns:xlink="http://www.w3.org/1999/xlink">
    <title>97094FAE-211D-491A-8EFB-2C1DE1714380</title>
    <defs>
        <filter id="filter-1">
            <feColorMatrix in="SourceGraphic" type="matrix" values="0 0 0 0 0.098039 0 0 0 0 0.098039 0 0 0 0 0.439216 0 0 0 1.000000 0"></feColorMatrix>
        </filter>
    </defs>
    <g id="Welcome" stroke="none" stroke-width="1" fill="none" fill-rule="evenodd">
        <g id="Home-page-/-Récapitulatif_Produits-/-Modification_Produits" transform="translate(-834.000000, -446.000000)">
            <g id="Icons-/-Livraison-Copy-2" transform="translate(612.500000, 401.000000)" filter="url(#filter-1)">
                <g transform="translate(222.000000, 45.500000)">
                    <path d="M9.31368708,5.38127773 L12.4849434,5.38130835 L12.4988749,5.38183641 C12.5110379,5.38249262 12.5231247,5.3839932 12.5350465,5.38631515 L12.4849434,5.38130835 C12.5122848,5.38130835 12.5386547,5.38547981 12.5634666,5.39323097 C12.5712715,5.39592514 12.5796069,5.39897491 12.5877834,5.40244247 C12.5980128,5.40655033 12.6073482,5.41122865 12.6163535,5.41642544 C12.6243419,5.42122468 12.6323969,5.42643644 12.6401823,5.43210221 C12.6479102,5.437571 12.6555132,5.4437834 12.6627547,5.45039469 C12.6707038,5.45779669 12.6777932,5.46507282 12.6845028,5.47280941 C12.6915886,5.48083442 12.6984502,5.48978577 12.7047426,5.4991626 C12.7075459,5.50348572 12.7102369,5.50774793 12.712825,5.51211089 L13.5096969,6.85878544 C13.5203874,6.87778403 13.5260137,6.89008027 13.5307137,6.9028379 L13.5096969,6.85878544 C13.5217392,6.87918431 13.5308202,6.90054671 13.5370651,6.92235544 C13.5401087,6.93297928 13.5425832,6.9442898 13.5443351,6.95584495 C13.5460006,6.96640417 13.5469532,6.97650104 13.5473449,6.98658651 C13.5473631,6.9896809 13.5474394,6.99343756 13.5474394,6.99721264 L13.5486494,13.2350545 C14.7736604,12.0032007 15.5636994,10.327587 15.661613,8.46885745 L15.3283393,8.80557413 C15.2765893,8.85815807 15.2086269,8.88458149 15.1406645,8.88458149 C15.0725724,8.88458149 15.00461,8.85815807 14.9528601,8.80557413 C14.848971,8.70040627 14.848971,8.53016577 14.9528601,8.4249979 L15.749732,7.61730868 C15.8016117,7.56465902 15.8695417,7.53833419 15.9374716,7.53833419 L16.0048071,7.54710913 C16.0489049,7.55880905 16.0906248,7.5822089 16.1252112,7.61730868 L16.9220832,8.4249979 C17.0259723,8.53016577 17.0259723,8.70040627 16.9220832,8.80557413 C16.8703332,8.85815807 16.8023708,8.88458149 16.7344084,8.88458149 C16.6663164,8.88458149 16.598354,8.85815807 16.546604,8.80557413 L16.1945744,8.44786687 C16.0939722,10.616786 15.1159853,12.557152 13.6131702,13.9116226 L13.4891224,14.0194981 C13.4709986,14.0423878 13.449256,14.0622007 13.4247697,14.0780534 C12.0879443,15.2050346 10.3707713,15.8845548 8.50006485,15.8845548 C4.98340042,15.8845548 1.91575465,13.4769994 1.03963646,10.0295967 C1.0030613,9.88577959 1.08879247,9.73880751 1.23094281,9.70160437 C1.37166645,9.66558439 1.51783747,9.75142766 1.55441263,9.89550764 C1.88585509,11.2001542 2.5546039,12.3448516 3.4516098,13.244031 L3.45256061,6.99721264 L3.45265511,6.98632359 C3.45304679,6.97623812 3.45399944,6.96614125 3.4555248,6.95608156 L3.45256061,6.99721264 C3.45256061,6.97108212 3.45621726,6.94583366 3.46304031,6.92196203 C3.46477252,6.91567511 3.4668557,6.90929636 3.46918765,6.90296943 C3.47398634,6.89008027 3.47961261,6.87778403 3.48608236,6.86603268 C3.48732794,6.86365637 3.48879221,6.86108186 3.49030309,6.85852251 L4.28717505,5.51184796 L4.29792006,5.49526883 C4.30347159,5.4873011 4.30943959,5.47965378 4.3157921,5.47235914 L4.28717505,5.51184796 C4.30095861,5.48853139 4.31769011,5.46809244 4.33660281,5.45073005 C4.34448679,5.4437834 4.35208979,5.437571 4.36002085,5.43179125 C4.36744651,5.4261735 4.37549394,5.42096175 4.38377044,5.41621487 C4.39265177,5.41122865 4.40198719,5.40655033 4.41161333,5.40243025 C4.42060755,5.39854025 4.42936174,5.39536116 4.43825258,5.39265256 C4.44581457,5.3903709 4.45424643,5.38822368 4.46282796,5.3864945 C4.47602344,5.38379809 4.48874792,5.38220175 4.50155752,5.38154106 C4.50545916,5.38143765 4.5102428,5.38130835 4.51505656,5.38130835 L7.68612463,5.38118875 C7.69180401,5.38086754 7.69752148,5.38073239 7.70327024,5.38078836 L9.296,5.381 L9.30651074,5.38096571 C9.30890939,5.38103679 9.31130167,5.38114091 9.31368708,5.38127773 Z M7.171,7.266 L3.983,7.266 L3.98265418,13.7259254 C5.22748322,14.7474389 6.80796646,15.3460953 8.50006485,15.3460953 C10.2102575,15.3460953 11.7825731,14.7362069 13.0164161,13.7197487 L13.016,7.266 L9.828,7.266 L9.82818478,8.6125911 C9.82818478,8.65897651 9.8166622,8.70258242 9.79635931,8.74064125 L9.82014344,8.67779517 C9.81269639,8.70805253 9.80051571,8.73578721 9.78460681,8.76040508 C9.77713193,8.77213638 9.76836967,8.78356839 9.7587737,8.79421424 C9.75306486,8.8004635 9.74738105,8.80620297 9.74146471,8.8116606 C9.73252836,8.82000127 9.7227661,8.82784436 9.71248263,8.83497309 C9.70434464,8.84049808 9.69608995,8.84556047 9.68758494,8.85015734 C9.67652367,8.85627697 9.66457103,8.86166653 9.65219221,8.86615244 C9.64400436,8.86902445 9.63583491,8.87154715 9.62753935,8.87366905 C9.60684921,8.87900281 9.58503317,8.88182084 9.56256079,8.88182084 C9.54454072,8.88182084 9.5258781,8.87987911 9.50732621,8.87591222 L9.56256079,8.88182084 C9.54081831,8.88182084 9.51969481,8.87918755 9.4994831,8.87421777 L8.5,8.62 L7.50125122,8.8738018 C7.49802149,8.87470379 7.49603616,8.87516747 7.49404238,8.87560852 L7.46885885,8.87983251 L7.46885885,8.87983251 L7.43692041,8.88182084 L7.43692041,8.88182084 L7.37597766,8.87472354 L7.37597766,8.87472354 L7.436661,8.88182084 C7.40692745,8.88182084 7.37786673,8.87671855 7.35052857,8.8671528 C7.33726971,8.86271435 7.32417419,8.85692555 7.31167745,8.85015345 C7.30423309,8.84590293 7.29677314,8.84137362 7.28954521,8.83648418 C7.27794345,8.8288739 7.26696621,8.82011025 7.25673441,8.81053999 C7.25139296,8.80531775 7.24607813,8.79991697 7.24098732,8.79428141 C7.23032571,8.78269659 7.22091977,8.77025875 7.2126215,8.75703378 C7.20946244,8.75165488 7.2062795,8.74615412 7.20328179,8.74051737 C7.182819,8.70258242 7.17129642,8.65897651 7.17129642,8.6125911 L7.171,7.266 Z M9.56307959,12.6520889 C9.7098991,12.6520889 9.82870358,12.7725061 9.82870358,12.9213187 C9.82870358,13.0702626 9.7098991,13.1905484 9.56307959,13.1905484 L7.43692041,13.1905484 C7.2901009,13.1905484 7.17129642,13.0702626 7.17129642,12.9213187 C7.17129642,12.7725061 7.2901009,12.6520889 7.43692041,12.6520889 L9.56307959,12.6520889 Z M10.8917183,11.5746441 C11.0385378,11.5746441 11.1573423,11.6950613 11.1573423,11.8438738 C11.1573423,11.9928178 11.0385378,12.1131036 10.8917183,12.1131036 L6.10828168,12.1131036 C5.96146217,12.1131036 5.84265769,11.9928178 5.84265769,11.8438738 C5.84265769,11.6950613 5.96146217,11.5746441 6.10828168,11.5746441 L10.8917183,11.5746441 Z M10.8917183,10.4999599 C11.0385378,10.4999599 11.1573423,10.6202457 11.1573423,10.7691897 C11.1573423,10.9180022 11.0385378,11.0384194 10.8917183,11.0384194 L6.10828168,11.0384194 C5.96146217,11.0384194 5.84265769,10.9180022 5.84265769,10.7691897 C5.84265769,10.6202457 5.96146217,10.4999599 6.10828168,10.4999599 L10.8917183,10.4999599 Z M9.296,7.266 L7.702,7.266 L7.702,8.267 L8.43573404,8.08215065 C8.45594379,8.07721808 8.46789073,8.07548046 8.47999375,8.07458682 L8.49637807,8.07383649 L8.49637807,8.07383649 C8.50863899,8.07400664 8.51393493,8.07425529 8.51924532,8.07466883 C8.53463709,8.0755837 8.5493624,8.07797979 8.56371958,8.08158769 C8.56359772,8.08198016 8.56393184,8.08206507 8.56426596,8.08215065 L9.296,8.267 L9.296,7.266 Z M8.50006485,1.02072197e-13 C12.0165996,1.02072197e-13 15.0842454,2.40742394 15.9603635,5.85482666 C15.9969387,5.99864374 15.9112076,6.14561585 15.7690572,6.18281896 C15.6291118,6.22028503 15.4824219,6.1329957 15.4455874,5.98891572 C14.6302981,2.7797182 11.7740621,0.538459476 8.50006485,0.538459476 C4.77239552,0.538459476 1.69996698,3.43573014 1.35954563,7.12531366 L1.67166072,6.80961945 C1.77542009,6.70432013 1.94338057,6.70432013 2.04713994,6.80961945 C2.151029,6.91478732 2.151029,7.08502781 2.04713994,7.19019568 L1.25026798,7.99788491 L1.25026798,7.99788491 L1.24277922,8.00556482 C1.23097493,8.01661016 1.21817847,8.02658267 1.20453968,8.03533046 L1.25026798,7.99788491 C1.23167033,8.01678226 1.21097884,8.03230097 1.18894598,8.04442884 C1.17606159,8.05166897 1.16240689,8.0577401 1.14821059,8.06262855 C1.14069579,8.06512552 1.13288707,8.06742696 1.12500797,8.06935772 C1.10469839,8.07434621 1.08394197,8.07689226 1.06259322,8.07689226 C1.0412256,8.07689226 1.02045581,8.07434621 1.00056177,8.06953704 L1.06259322,8.07689226 C1.03351222,8.07689226 1.00445489,8.07207262 0.976674051,8.06245383 C0.962724926,8.0577401 0.949068003,8.05166897 0.936068242,8.04453067 C0.930933466,8.04157649 0.925824685,8.03853658 0.920800144,8.03530927 C0.906951176,8.02658267 0.89415706,8.01661016 0.882356175,8.00556482 C0.880281033,8.00334759 0.87751244,8.00065248 0.874788756,7.99788491 L0.0779167956,7.19019568 C-0.0259722652,7.08502781 -0.0259722652,6.91478732 0.0779167956,6.80961945 C0.181676165,6.70432013 0.349636654,6.70432013 0.453396023,6.80961945 L0.821376844,7.18308639 C1.13633234,3.16891028 4.46006975,1.02072197e-13 8.50006485,1.02072197e-13 Z M7.378,5.919 L4.664,5.919 L4.186,6.727 L7.219,6.727 L7.378,5.919 Z M9.079,5.919 L7.92,5.919 L7.761,6.727 L9.238,6.727 L9.079,5.919 Z M12.334,5.919 L9.621,5.919 L9.78,6.727 L12.812,6.727 L12.334,5.919 Z" id="Combined-Shape" fill="#00B517" fill-rule="nonzero"></path>
                </g>
            </g>
        </g>
    </g>
</svg>