<?xml version="1.0" encoding="UTF-8"?>
<svg width="30px" height="30px" viewBox="0 0 30 30" version="1.1" xmlns="http://www.w3.org/2000/svg" xmlns:xlink="http://www.w3.org/1999/xlink">
    <title>71DE8B53-ADF6-4280-8B1B-F329AC5500C4</title>
    <g id="Welcome" stroke="none" stroke-width="1" fill="none" fill-rule="evenodd">
        <g id="Home-page-/-Profil_Non_Connecté" transform="translate(-158.000000, -108.000000)">
            <rect id="Rectangle" fill="#FFFFFF" x="0" y="100" width="1440" height="800"></rect>
            <rect id="Rectangle" fill="#FFFFFF" x="0" y="101" width="1440" height="44"></rect>
            <g id="Icons/Protection" transform="translate(158.000000, 108.000000)">
                <rect id="Rectangle" fill="#FFFFFF" x="0" y="0" width="30" height="30"></rect>
                <path d="M14.0299463,4.3750107 C14.5831873,3.87499643 15.4174746,3.87499643 15.9705453,4.3750107 L15.9705453,4.3750107 L15.9850147,4.38860629 C17.6806557,6.01822659 19.6651736,6.84302358 22.2305094,6.9841824 C23.4609173,7.05199233 24.4388771,8.05537784 24.4570915,9.26840349 C24.4610067,9.51715182 24.4674754,9.74072313 24.4771783,9.9520417 L24.4771783,9.9520417 L24.4778593,9.96916205 C24.5275658,12.5533246 24.5893586,15.7694287 23.4961545,18.6918017 C22.8967817,20.2943987 21.989807,21.6875235 20.8005943,22.8327392 C19.4467711,24.1364019 17.6738466,25.1720139 15.5311869,25.9108736 C15.461053,25.9350434 15.3880252,25.9546815 15.3141462,25.9692841 C15.2101369,25.9897614 15.1051063,26 15.0002458,26 C14.8953854,26 14.7905249,25.9897614 14.6863454,25.9692841 C14.6124665,25.9546815 14.5399493,25.9352113 14.4701559,25.9112093 C12.3249428,25.1736924 10.5501458,24.1385839 9.19513101,22.8347534 C8.00540761,21.6898733 7.09843289,20.2970843 6.49957081,18.6948229 C5.41045212,15.781178 5.47241515,12.5711163 5.52229194,9.99182128 L5.52229194,9.99182128 L5.52331329,9.9520417 C5.53301627,9.73921252 5.53965518,9.51564117 5.54340021,9.26857133 C5.56161458,8.05537784 6.53974462,7.05199233 7.76998229,6.98435023 C10.335318,6.84302358 12.3198359,6.01822659 14.0154769,4.38860629 L14.0154769,4.38860629 Z M14.9999054,9.51765533 C11.9337589,9.51765533 9.43940818,11.9771081 9.43940818,15.0003567 C9.43940818,18.0236053 11.9337589,20.483058 14.9999054,20.483058 C18.0658816,20.483058 20.5604026,18.0236053 20.5604026,15.0003567 C20.5604026,11.9771081 18.0658816,9.51765533 14.9999054,9.51765533 Z M15.0000901,11 C17.4813202,11 19.5,12.7943821 19.5,14.9999199 C19.5,17.2056179 17.4813202,19 15.0000901,19 C12.5186798,19 10.5,17.2056179 10.5,14.9999199 C10.5,12.7943821 12.5186798,11 15.0000901,11 Z M17.6717821,13.3756382 C17.4011352,13.1350632 16.9623701,13.1350632 16.6919034,13.3756382 L16.6919034,13.3756382 L13.9578654,15.8057341 L13.2158388,15.1461549 C12.9451919,14.9055799 12.5064268,14.9055799 12.2359601,15.1461549 C11.9653132,15.3867299 11.9653132,15.7767434 12.2359601,16.0171582 L12.2359601,16.0171582 L13.467926,17.112239 C13.6032495,17.2326867 13.7805574,17.2927503 13.9578654,17.2927503 C14.1351733,17.2927503 14.3126614,17.2325265 14.4479849,17.112239 L14.4479849,17.112239 L17.6717821,14.2466415 C17.942429,14.0060664 17.942429,13.616053 17.6717821,13.3756382 Z" id="Combined-Shape" fill="#B9121B" fill-rule="nonzero"></path>
            </g>
        </g>
    </g>
</svg>