<?xml version="1.0" encoding="UTF-8"?>
<svg width="30px" height="30px" viewBox="0 0 30 30" version="1.1" xmlns="http://www.w3.org/2000/svg" xmlns:xlink="http://www.w3.org/1999/xlink">
    <title>2CFF5819-A9D5-4146-95C5-C91D1C42362D</title>
    <g id="Welcome" stroke="none" stroke-width="1" fill="none" fill-rule="evenodd">
        <g id="Home-page-/-Profil_Non_Connecté" transform="translate(-803.000000, -110.000000)">
            <rect id="Rectangle" fill="#FFFFFF" x="0" y="100" width="1440" height="800"></rect>
            <rect id="Rectangle" fill="#FFFFFF" x="0" y="101" width="1440" height="44"></rect>
            <g id="Icons/Service-client" transform="translate(803.000000, 110.000000)">
                <rect id="Rectangle" fill="#FFFFFF" x="0" y="0" width="30" height="30"></rect>
                <path d="M22.5,20.1663894 C22.2382105,22.2784656 20.092072,24 17.4602218,24 L17.4602218,24 L13.5,24 L13.5,23.0678453 L17.4602218,23.0678453 C19.4499503,23.0678453 21.0857859,21.7861325 21.3632655,20.2092374 L21.3632655,20.2092374 L21.9861895,20.2092374 C22.1621742,20.2092374 22.3328786,20.1918372 22.5,20.1663894 Z M15,10.5823627 C18.0327,10.5823627 20.5,12.9470296 20.5,15.8535774 C20.5,18.7601251 18.0327,21.124792 15,21.124792 C11.9673,21.124792 9.5,18.7601251 9.5,15.8535774 C9.5,12.9470296 11.9673,10.5823627 15,10.5823627 Z M15.5,18.249584 L14.5,18.249584 L14.5,19.2079867 L15.5,19.2079867 L15.5,18.249584 Z M8.5,12.4991681 C8.11867817,13.3848855 7.90643821,14.355824 7.90643821,15.374376 C7.90643821,16.3929281 8.11867817,17.3638666 8.5,18.249584 L8.5,18.249584 L7.2752413,18.249584 C6.2963338,18.249584 5.5,17.4757314 5.5,16.5244592 L5.5,16.5244592 L5.5,14.2242928 C5.5,13.2730207 6.2963338,12.4991681 7.2752413,12.4991681 L7.2752413,12.4991681 Z M22.724712,12.4991681 C23.7036453,12.4991681 24.5,13.2730207 24.5,14.2242928 L24.5,14.2242928 L24.5,16.5244592 C24.5,17.4757314 23.7036453,18.249584 22.724712,18.249584 L22.724712,18.249584 L21.5,18.249584 C21.8813319,17.3638666 22.0934985,16.3929281 22.0934985,15.374376 C22.0934985,14.355824 21.8813319,13.3848855 21.5,12.4991681 L21.5,12.4991681 Z M15,13.4575707 C14.1728667,13.4575707 13.5,14.1024479 13.5,14.8951747 L13.5,14.8951747 L14.5,14.8951747 C14.5,14.6307834 14.7241333,14.4159734 15,14.4159734 C15.2758667,14.4159734 15.5,14.6307834 15.5,14.8951747 C15.5,15.065994 15.4043,15.2250889 15.2495,15.3107381 C14.7871,15.5671747 14.5,16.0440439 14.5,16.5555434 L14.5,16.5555434 L14.5,17.2911814 L15.5,17.2911814 L15.5,16.5555434 C15.5,16.3852033 15.5962,16.2256293 15.7505,16.13998 C16.2129,15.8839907 16.5,15.4066742 16.5,14.8951747 C16.5,14.1024479 15.8271333,13.4575707 15,13.4575707 Z M15,6 C18.706573,6 21.8033667,8.70823514 22.5,12.2895175 C22.38092,12.2720114 22.2624179,12.2521781 22.1386808,12.2521781 L22.1386808,12.2521781 L21.4434752,12.2521781 C20.7501394,9.2697502 18.127762,7.04202968 15,7.04202968 C11.872238,7.04202968 9.24986063,9.2697502 8.55652475,12.2521781 L8.55652475,12.2521781 L7.86131923,12.2521781 C7.73758209,12.2521781 7.61907999,12.2720114 7.5,12.2895175 C8.19663326,8.70823514 11.293427,6 15,6 Z" id="Combined-Shape" fill="#B9131B" fill-rule="nonzero"></path>
            </g>
        </g>
    </g>
</svg>