<?xml version="1.0" encoding="UTF-8"?>
<svg width="113px" height="96px" viewBox="0 0 113 96" version="1.1" xmlns="http://www.w3.org/2000/svg" xmlns:xlink="http://www.w3.org/1999/xlink">
    <title>D880774B-5D66-46B6-B362-E8BC24F72DDB</title>
    <defs>
        <filter id="filter-1">
            <feColorMatrix in="SourceGraphic" type="matrix" values="0 0 0 0 0.847059 0 0 0 0 0.847059 0 0 0 0 0.847059 0 0 0 1.000000 0"></feColorMatrix>
        </filter>
    </defs>
    <g id="Welcome" stroke="none" stroke-width="1" fill="none" fill-rule="evenodd">
        <g id="shopping-basket" transform="translate(-1233.000000, -374.000000)" filter="url(#filter-1)">
            <g transform="translate(1233.500000, 374.000000)">
                <path d="M56,48 C57.1039062,48 58,47.1039062 58,46 C58,44.8960938 57.1039062,44 56,44 C54.8960938,44 54,44.8960938 54,46 C54,47.1039062 54.8960938,48 56,48 Z" id="Path" fill="#000000" fill-rule="nonzero"></path>
                <path d="M103.25,30.5436329 L90.3138427,30.5436329 L70.4144287,3.23690727 C68.626831,0.181424344 64.689331,-0.906105921 61.5618896,0.82149903 C58.3917237,2.57808195 57.251831,6.56086319 59.013794,9.72373535 C59.0642089,9.81322643 59.119751,9.89930853 59.1821289,9.98112899 L74.7902833,30.5436329 L37.2097167,30.5436329 L52.8178711,9.98112899 C52.8793945,9.89930853 52.9357911,9.81322643 52.986206,9.72373535 C54.7438964,6.56853402 53.6168213,2.5823436 50.4355469,0.819794328 C47.3149414,-0.904401219 43.3774414,0.182276804 41.5864258,3.23520257 L21.6861573,30.5436329 L8.75,30.5436329 C3.925537,30.5436329 0,34.4590829 0,39.2711485 C0,43.0664246 2.46948231,46.3707781 5.94812006,47.5401288 C6.31896978,47.8265004 6.78210444,47.9986642 7.28625494,47.9986642 C7.38708491,47.9986642 7.48193359,48.0046303 7.58105469,48.018267 C8.52270519,48.1444069 9.26867681,48.8569267 9.43957525,49.7893389 L16.8813477,90.626271 C17.4495849,93.7397098 20.1651612,96 23.3387451,96 L88.6612549,96 C91.8348388,96 94.5504151,93.7397098 95.1186523,90.6254187 L102.560425,49.7901914 C102.731323,48.8569267 103.478149,48.1444069 104.423218,48.018267 C104.518921,48.0046303 104.61377,47.9986642 104.713745,47.9986642 C105.221314,47.9986642 105.687866,47.8247957 106.058716,47.5350149 C109.539917,46.3579936 112,43.0596062 112,39.2711485 C112,34.4590829 108.074463,30.5436329 103.25,30.5436329 Z M62.7786865,7.48986642 C62.2788086,6.45773537 62.6667479,5.20059828 63.6835938,4.63808241 C64.7423096,4.05255491 66.0770263,4.43012229 66.6606445,5.47929905 C66.7033693,5.55771033 66.7520753,5.63271241 66.8041992,5.70430532 L84.9049073,30.5436329 L80.2769776,30.5436329 L62.7786865,7.48986642 Z M45.1958008,5.70515778 C45.2479248,5.63356466 45.2949219,5.55941503 45.338501,5.48270824 C45.9238281,4.43267902 47.2593995,4.0542594 48.3138427,4.63637792 C49.3323974,5.20059828 49.7220458,6.45603089 49.2213135,7.48986642 L31.7230224,30.5436329 L27.0950927,30.5436329 L45.1958008,5.70515778 Z M103.25,43.6349064 L64.75,43.6349064 C63.5417479,43.6349064 62.5625,44.6116382 62.5625,45.8167853 C62.5625,47.0219325 63.5417479,47.9765046 64.75,47.9765046 L98.5246583,47.9765046 C98.4101562,48.3020817 98.3195802,48.6395911 98.2563477,48.987328 L90.8137208,89.8447152 C90.6248779,90.8828121 89.7191162,91.6362422 88.6612549,91.6362422 L23.3387451,91.6362422 C22.2800292,91.6362422 21.3751221,90.8828121 21.1854247,89.8455674 L13.7436523,49.0086356 C13.6804198,48.6608987 13.5898437,48.323389 13.4753417,47.9986642 L47.25,47.9986642 C48.4582521,47.9986642 49.4375,47.0219325 49.4375,45.8167853 C49.4375,44.6116382 48.4582521,43.6349064 47.25,43.6349064 L8.75,43.6349064 C6.31726069,43.6349064 4.375,41.6575786 4.375,39.2711485 C4.375,36.8651158 6.3377685,34.9073907 8.75,34.9073907 L103.25,34.9073907 C105.662231,34.9073907 107.625,36.8651158 107.625,39.2711485 C107.625,41.6942274 105.637451,43.6349064 103.25,43.6349064 Z" id="Shape" fill="#000000" fill-rule="nonzero"></path>
                <path d="M56.5,54 C52.9156901,54 50,56.9797711 50,60.6428571 L50,78.3571429 C50,82.0202289 52.9156901,85 56.5,85 C60.0843099,85 63,82.0202289 63,78.3571429 L63,60.6428571 C63,56.9728515 60.0910808,54 56.5,54 Z M58.6666667,78.3571429 C58.6666667,79.5784598 57.6950521,80.5714286 56.5,80.5714286 C55.3049479,80.5714286 54.3333333,79.5784598 54.3333333,78.3571429 L54.3333333,60.6428571 C54.3333333,59.4215402 55.3049479,58.4285714 56.5,58.4285714 C57.6958984,58.4285714 58.6666667,59.4206753 58.6666667,60.6428571 L58.6666667,78.3571429 Z" id="Shape" fill="#000000" fill-rule="nonzero"></path>
                <path d="M77.5,85 C81.0843099,85 84,82.0202289 84,78.3571429 L84,60.6428571 C84,56.9728515 81.0910808,54 77.5,54 C73.9156901,54 71,56.9797711 71,60.6428571 L71,78.3571429 C71,82.0202289 73.9156901,85 77.5,85 Z M75.3333333,60.6428571 C75.3333333,59.4215402 76.3049479,58.4285714 77.5,58.4285714 C78.6958984,58.4285714 79.6666667,59.4206753 79.6666667,60.6428571 L79.6666667,78.3571429 C79.6666667,79.5784598 78.6950521,80.5714286 77.5,80.5714286 C76.3049479,80.5714286 75.3333333,79.5784598 75.3333333,78.3571429 L75.3333333,60.6428571 Z" id="Shape" fill="#000000" fill-rule="nonzero"></path>
                <path d="M34.5,54 C30.9156901,54 28,56.9797711 28,60.6428571 L28,78.3571429 C28,82.0202289 30.9156901,85 34.5,85 C38.0843099,85 41,82.0202289 41,78.3571429 L41,60.6428571 C41,56.9728515 38.0910808,54 34.5,54 Z M36.6666667,78.3571429 C36.6666667,79.5784598 35.6950521,80.5714286 34.5,80.5714286 C33.3049479,80.5714286 32.3333333,79.5784598 32.3333333,78.3571429 L32.3333333,60.6428571 C32.3333333,59.4215402 33.3049479,58.4285714 34.5,58.4285714 C35.6958984,58.4285714 36.6666667,59.4198104 36.6666667,60.6428571 L36.6666667,78.3571429 Z" id="Shape" fill="#000000" fill-rule="nonzero"></path>
            </g>
        </g>
    </g>
</svg>