<?xml version="1.0" encoding="UTF-8"?>
<svg width="20px" height="20px" viewBox="0 0 20 20" version="1.1" xmlns="http://www.w3.org/2000/svg" xmlns:xlink="http://www.w3.org/1999/xlink">
    <title>2630000A-92D9-414C-8E84-73F2D311B8F2</title>
    <defs>
        <filter id="filter-1">
            <feColorMatrix in="SourceGraphic" type="matrix" values="0 0 0 0 1.000000 0 0 0 0 1.000000 0 0 0 0 1.000000 0 0 0 1.000000 0"></feColorMatrix>
        </filter>
    </defs>
    <g id="Welcome" stroke="none" stroke-width="1" fill="none" fill-rule="evenodd">
        <g id="Assets-2" transform="translate(-67.000000, -221.000000)">
            <g id="Group-2-Copy" transform="translate(67.000000, 221.000000)">
                <path d="M16.4227295,19.6575928 C12.1452332,20.1141357 7.85476684,20.1141357 3.57727051,19.6575928 C1.87164305,19.4755554 0.52444457,18.128357 0.342407227,16.4225769 C-0.114135742,12.1450805 -0.114135742,7.85476684 0.342407227,3.57727051 C0.52444457,1.87164305 1.87164305,0.52444457 3.57727051,0.342407227 C7.85476684,-0.114135742 12.1450805,-0.114135742 16.4225769,0.342407227 C18.128357,0.52444457 19.4755554,1.87164305 19.6575928,3.57727051 C20.1141357,7.85476684 20.1141357,12.1450805 19.6575928,16.4225769 C19.4755554,18.128357 18.1285095,19.4755554 16.4227295,19.6575928 Z" id="Path" fill="#9B9B9B" fill-rule="nonzero"></path>
                <g filter="url(#filter-1)" id="negociation-2">
                    <g transform="translate(2.500000, 5.000000)">
                        <path d="M4.83628655,6.48191617 L1.8780117,6.48191617 L1.8780117,5.58371257 L4.72005848,5.58371257 L4.72005848,4.69613772 L1.8780117,4.69613772 L1.8780117,3.79793413 L4.72005848,3.79793413 L4.72005848,2.05775449 L1.3578655,2.05775449 C0.609152047,2.05775449 0,2.68149701 0,3.44814371 L0,6.84179641 C0,7.60847305 0.609152047,8.23218563 1.3578655,8.23218563 L2.02748538,8.23218563 L3.30102339,9.99586826 L4.5745614,8.23218563 L6.55909357,8.23218563 C6.6798538,8.23218563 6.79690058,8.2157485 6.90842105,8.18532934 C5.96540936,8.12065868 5.13339181,7.40473054 4.83628655,6.48191617 Z" id="Path" fill="#000000" fill-rule="nonzero"></path>
                        <path d="M13.4335673,0.0169161677 L7.14701754,0.0169161677 C6.29248538,0.0169161677 5.59725146,0.728772455 5.59725146,1.60374251 L5.59725146,2.05775449 L5.59725146,2.05775449 L5.59725146,3.79793413 L5.59725146,3.79793413 L5.59725146,4.69613772 L5.59725146,4.69613772 L5.59725146,5.58371257 L5.59725146,5.58371257 L5.59725146,5.70553892 C5.59725146,5.98745509 5.66979532,6.25221557 5.79622807,6.48191617 L5.79599415,6.48191617 C6.05733918,6.94922156 6.54280702,7.29242515 7.04722222,7.29242515 L7.84339181,7.29242515 C7.84339181,7.29242515 7.84339181,7.29239521 7.84342105,7.29236527 L9.59184211,7.29236527 L11.0849415,9.3601497 L12.5780409,7.29236527 L13.4335673,7.29236527 C14.2880994,7.29236527 14.9832749,6.58050898 14.9832749,5.70553892 L14.9832749,1.60374251 C14.9832749,0.728772455 14.2880702,0.0169161677 13.4335673,0.0169161677 Z M12.8049123,4.88733533 L7.77567251,4.88733533 L7.77567251,3.98913174 L12.8049123,3.98913174 L12.8049123,4.88733533 Z M12.8049123,3.09080838 L7.77567251,3.09080838 L7.77567251,2.19260479 L12.8049123,2.19260479 L12.8049123,3.09080838 Z" id="Shape" fill="#000000" fill-rule="nonzero"></path>
                    </g>
                </g>
            </g>
        </g>
    </g>
</svg>