<?xml version="1.0" encoding="UTF-8"?>
<svg width="20px" height="20px" viewBox="0 0 20 20" version="1.1" xmlns="http://www.w3.org/2000/svg" xmlns:xlink="http://www.w3.org/1999/xlink">
    <title>4F151564-E64E-49ED-9A89-A1C152AE5D09</title>
    <defs>
        <circle id="path-1" cx="9.5" cy="9.5" r="9.5"></circle>
        <rect id="path-3" x="0" y="0" width="28" height="20" rx="2"></rect>
    </defs>
    <g id="Welcome" stroke="none" stroke-width="1" fill="none" fill-rule="evenodd">
        <g id="Assets-3---Drapeaux" transform="translate(-379.000000, -949.000000)">
            <g id="TN" transform="translate(379.500000, 949.500000)">
                <mask id="mask-2" fill="white">
                    <use xlink:href="#path-1"></use>
                </mask>
                <use id="Mask" fill="#D8D8D8" xlink:href="#path-1"></use>
                <g mask="url(#mask-2)">
                    <g transform="translate(-4.500000, -0.500000)">
                        <mask id="mask-4" fill="white">
                            <use xlink:href="#path-3"></use>
                        </mask>
                        <use id="Mask" stroke="none" fill="#FFFFFF" fill-rule="evenodd" xlink:href="#path-3"></use>
                        <rect id="Mask-Copy" stroke="none" fill="#E92434" fill-rule="evenodd" mask="url(#mask-4)" x="0" y="0" width="28" height="20"></rect>
                        <path d="M14,4 C17.3137085,4 20,6.6862915 20,10 C20,13.3137085 17.3137085,16 14,16 C10.6862915,16 8,13.3137085 8,10 C8,6.6862915 10.6862915,4 14,4 Z M14,5.33333333 C11.4226712,5.33333333 9.33333333,7.42267117 9.33333333,10 C9.33333333,12.5773288 11.4226712,14.6666667 14,14.6666667 C14.642809,14.6666667 15.2552625,14.5366997 15.8125167,14.3016099 C13.6645064,14.0447253 12,12.2167458 12,10 C12,7.78325421 13.6645064,5.95527472 15.8118581,5.69772268 C15.2552625,5.46330026 14.642809,5.33333333 14,5.33333333 Z M15.3948362,7.58973718 L15.2767885,9.51104615 L13.4220082,10.0259768 L15.2128029,10.731964 L15.1293725,12.6550872 L16.3541922,11.1701023 L18.1574096,11.8437271 L17.1235951,10.2199688 L18.3214752,8.71316863 L16.457723,9.19461571 L15.3948362,7.58973718 Z" id="Oval-41" stroke="none" fill="#FFFFFF" fill-rule="evenodd" mask="url(#mask-4)"></path>
                    </g>
                </g>
            </g>
        </g>
    </g>
</svg>