<?xml version="1.0" encoding="UTF-8"?>
<svg width="20px" height="20px" viewBox="0 0 20 20" version="1.1" xmlns="http://www.w3.org/2000/svg" xmlns:xlink="http://www.w3.org/1999/xlink">
    <title>78F1CFBF-4595-4E75-AEFD-3D86455CB993</title>
    <defs>
        <circle id="path-1" cx="9.5" cy="9.5" r="9.5"></circle>
        <rect id="path-3" x="0" y="0" width="28" height="20" rx="2"></rect>
        <linearGradient x1="50%" y1="0%" x2="50%" y2="100%" id="linearGradient-5">
            <stop stop-color="#DF101B" offset="0%"></stop>
            <stop stop-color="#C00711" offset="100%"></stop>
        </linearGradient>
    </defs>
    <g id="Welcome" stroke="none" stroke-width="1" fill="none" fill-rule="evenodd">
        <g id="Assets-3---Drapeaux" transform="translate(-91.000000, -949.000000)">
            <g id="TO" transform="translate(91.500000, 949.500000)">
                <mask id="mask-2" fill="white">
                    <use xlink:href="#path-1"></use>
                </mask>
                <use id="Mask" fill="#D8D8D8" xlink:href="#path-1"></use>
                <g mask="url(#mask-2)">
                    <g transform="translate(-1.500000, -0.500000)">
                        <mask id="mask-4" fill="white">
                            <use xlink:href="#path-3"></use>
                        </mask>
                        <rect stroke="#F5F5F5" stroke-width="0.5" x="0.25" y="0.25" width="27.5" height="19.5" rx="2"></rect>
                        <path d="M16,10.6666667 L16,0 L28,0 L28,20 L0,20 L0,10.6666667 L16,10.6666667 Z" id="Combined-Shape" stroke="none" fill="#E20F1B" fill-rule="evenodd" mask="url(#mask-4)"></path>
                        <path d="M9.00634766,1.33333333 C9.18693686,1.33333333 9.33333333,1.48600038 9.33333333,1.65685113 L9.333,3.99933333 L11.6764822,4 C11.8551561,4 12,4.14337158 12,4.32698568 L12,6.33968099 C12,6.52027019 11.847333,6.66666667 11.6764822,6.66666667 L9.333,6.66633333 L9.33333333,9.00981553 C9.33333333,9.18848948 9.18996175,9.33333333 9.00634766,9.33333333 L6.99365234,9.33333333 C6.81306314,9.33333333 6.66666667,9.18066629 6.66666667,9.00981553 L6.666,6.66633333 L4.3235178,6.66666667 C4.14484385,6.66666667 4,6.52329508 4,6.33968099 L4,4.32698568 C4,4.14639647 4.15266705,4 4.3235178,4 L6.666,3.99933333 L6.66666667,1.65685113 C6.66666667,1.47817719 6.81003825,1.33333333 6.99365234,1.33333333 L9.00634766,1.33333333 Z" id="Rectangle-1703" stroke="none" fill="url(#linearGradient-5)" fill-rule="evenodd" mask="url(#mask-4)"></path>
                    </g>
                </g>
            </g>
        </g>
    </g>
</svg>