<?xml version="1.0" encoding="UTF-8"?>
<svg width="42px" height="42px" viewBox="0 0 42 42" version="1.1" xmlns="http://www.w3.org/2000/svg" xmlns:xlink="http://www.w3.org/1999/xlink">
    <title>E2B40BF4-A183-46A1-9B4D-F3832D997DB7</title>
    <defs>
        <filter id="filter-1">
            <feColorMatrix in="SourceGraphic" type="matrix" values="0 0 0 0 0.103839 0 0 0 0 0.494781 0 0 0 0 0.959026 0 0 0 1.000000 0"></feColorMatrix>
        </filter>
    </defs>
    <g id="Welcome" stroke="none" stroke-width="1" fill="none" fill-rule="evenodd">
        <g id="Boutique-/-Étagère-/-Filtre---Déroulant" transform="translate(-1339.000000, -104.000000)">
            <g id="Icons/Trier-bleu-survole" transform="translate(1339.000000, 104.000000)">
                <rect id="Rectangle-Copy-6" fill="#F5F5F5" x="0" y="0" width="42" height="42" rx="21"></rect>
                <g filter="url(#filter-1)" id="transfer">
                    <g transform="translate(10.000000, 10.000000)">
                        <path d="M15.2868694,9.01545419 C15.4182261,8.85557895 15.4766355,8.63540741 15.420885,8.41326316 C15.3589591,8.16654581 15.3644912,8.21865107 13.8690058,6.72316569 C13.6010604,6.45517739 13.1665926,6.45517739 12.8986472,6.72316569 C12.6306589,6.99111111 12.6306589,7.42557895 12.8986472,7.69352437 L13.0996491,7.89452632 L8.58072904,7.89452632 C8.20179727,7.89452632 7.8945692,8.20175439 7.8945692,8.58068616 C7.8945692,8.95961793 8.20179727,9.266846 8.58072904,9.266846 L13.0996491,9.266846 L12.8986472,9.46784795 C12.6306589,9.73579337 12.6306589,10.1702612 12.8986472,10.4382066 C13.1665497,10.706152 13.6010604,10.7061949 13.8690058,10.4382066 C15.3740546,8.93311501 15.2552632,9.0540078 15.2868694,9.01545419 L15.2868694,9.01545419 Z" id="Path" fill="#000000" fill-rule="nonzero"></path>
                        <path d="M13.383848,12.6976023 L8.86492788,12.6976023 L9.06592982,12.4966004 C9.33391813,12.228655 9.33391813,11.7941871 9.06592982,11.5262417 C8.79798441,11.2582534 8.36351657,11.2582534 8.09557115,11.5262417 C6.59176608,13.0300468 6.64237037,12.9573996 6.57452632,13.1212632 C6.5051384,13.2890721 6.50483821,13.477809 6.57452632,13.6462612 C6.64833138,13.8244912 6.64472904,13.7903977 8.09557115,15.2412827 C8.36347368,15.5092281 8.79798441,15.509271 9.06592982,15.2412827 C9.33391813,14.9733372 9.33391813,14.5388694 9.06592982,14.270924 L8.86492788,14.069922 L13.383848,14.069922 C13.7628226,14.069922 14.0700078,13.762694 14.0700078,13.3837622 C14.0700078,13.0048304 13.7628226,12.6976023 13.383848,12.6976023 L13.383848,12.6976023 Z" id="Path" fill="#000000" fill-rule="nonzero"></path>
                        <path d="M11,22 C4.93435671,22 0,17.0656433 0,11 C0,4.93435671 4.93435671,0 11,0 C17.0656433,0 22,4.93435671 22,11 C22,17.0656433 17.0656433,22 11,22 Z M11,1.375 C5.69252015,1.375 1.375,5.69252015 1.375,11 C1.375,16.3074798 5.69252015,20.625 11,20.625 C16.3074798,20.625 20.625,16.3074798 20.625,11 C20.625,5.69252015 16.3074798,1.375 11,1.375 Z" id="Shape" fill="#000000" fill-rule="nonzero"></path>
                    </g>
                </g>
            </g>
        </g>
    </g>
</svg>