<svg xmlns="http://www.w3.org/2000/svg" viewBox="0 0 22 13.48"><defs><style>.cls-1{fill:#4a4a4a;}</style></defs><g id="Calque_2" data-name="Calque 2"><g id="Calque_1-2" data-name="Calque 1"><g id="Group"><g id="home-theater"><path id="Combined-Shape" class="cls-1" d="M2.13,6.39a.71.71,0,0,1,.71.71h0v3.55a.7.7,0,0,1-.71.7H1.77v1.42h.36a.35.35,0,0,1,.35.36.34.34,0,0,1-.35.35H.71a.35.35,0,0,1-.36-.35.36.36,0,0,1,.36-.36h.35V11.35H.71a.7.7,0,0,1-.71-.7H0V7.1a.71.71,0,0,1,.71-.71H2.13Zm19.16,0A.71.71,0,0,1,22,7.1h0v3.55a.7.7,0,0,1-.71.7h-.35v1.42h.35a.36.36,0,0,1,.36.36.35.35,0,0,1-.36.35H19.87a.34.34,0,0,1-.35-.35.35.35,0,0,1,.35-.36h.36V11.35h-.36a.7.7,0,0,1-.71-.7h0V7.1a.71.71,0,0,1,.71-.71h1.42ZM3.58,3.2a80,80,0,0,0,14.84,0,.33.33,0,0,1,.27.09.36.36,0,0,1,.12.26h0v9.22a.36.36,0,0,1-.36.36h0a78.27,78.27,0,0,0-14.84,0A.37.37,0,0,1,3.31,13a.4.4,0,0,1-.12-.27h0V3.55a.36.36,0,0,1,.12-.26A.33.33,0,0,1,3.58,3.2Zm14.52.74a80.17,80.17,0,0,1-14.2,0h0v8.44q3.54-.32,7.1-.31t7.1.31h0ZM2.13,7.1H.71v3.55H2.13Zm19.16,0H19.87v3.55h1.42ZM1.42,9.58a.36.36,0,0,1,0,.71.36.36,0,1,1,0-.71Zm19.16,0a.36.36,0,1,1,0,.71.36.36,0,0,1,0-.71ZM9.75,6.44a.37.37,0,0,1,.34,0h0l2.84,1.42a.37.37,0,0,1,.2.32.36.36,0,0,1-.2.32h0L10.09,9.9a.34.34,0,0,1-.34,0,.34.34,0,0,1-.17-.3h0V6.74A.34.34,0,0,1,9.75,6.44ZM1.42,8.52a.34.34,0,0,1,.35.35.35.35,0,0,1-.35.36.36.36,0,0,1-.36-.36A.35.35,0,0,1,1.42,8.52Zm19.16,0a.35.35,0,0,1,.36.35.36.36,0,0,1-.36.36.35.35,0,0,1-.35-.36A.34.34,0,0,1,20.58,8.52ZM10.29,7.32V9L12,8.16Zm-8.87.13a.36.36,0,0,1,0,.71.36.36,0,1,1,0-.71Zm19.16,0a.36.36,0,1,1,0,.71.36.36,0,0,1,0-.71ZM12.77,0a.71.71,0,0,1,.71.71h0V2.13a.71.71,0,0,1-.71.71H9.23a.71.71,0,0,1-.71-.71h0V.71A.71.71,0,0,1,9.23,0h3.54Zm0,.71H9.23V2.13h3.54ZM11,1.06a.35.35,0,0,1,.35.36.35.35,0,1,1-.7,0A.35.35,0,0,1,11,1.06Zm-1.06,0a.36.36,0,0,1,.35.36.36.36,0,0,1-.71,0A.36.36,0,0,1,9.94,1.06Zm2.12,0a.36.36,0,0,1,.36.36.36.36,0,0,1-.71,0A.36.36,0,0,1,12.06,1.06Z"/></g></g></g></g></svg>