<?xml version="1.0" encoding="UTF-8"?>
<svg width="53px" height="53px" viewBox="0 0 53 53" version="1.1" xmlns="http://www.w3.org/2000/svg" xmlns:xlink="http://www.w3.org/1999/xlink">
    <title>2419314E-389E-47B6-8EB7-9F5A6EEAA1B9</title>
    <defs>
        <filter x="-15.5%" y="-15.5%" width="131.0%" height="131.0%" filterUnits="objectBoundingBox" id="filter-1">
            <feOffset dx="0" dy="1" in="SourceAlpha" result="shadowOffsetOuter1"></feOffset>
            <feGaussianBlur stdDeviation="1" in="shadowOffsetOuter1" result="shadowBlurOuter1"></feGaussianBlur>
            <feColorMatrix values="0 0 0 0 0   0 0 0 0 0   0 0 0 0 0  0 0 0 0.5 0" type="matrix" in="shadowBlurOuter1" result="shadowMatrixOuter1"></feColorMatrix>
            <feMerge>
                <feMergeNode in="shadowMatrixOuter1"></feMergeNode>
                <feMergeNode in="SourceGraphic"></feMergeNode>
            </feMerge>
        </filter>
        <filter id="filter-2">
            <feColorMatrix in="SourceGraphic" type="matrix" values="0 0 0 0 0.098039 0 0 0 0 0.098039 0 0 0 0 0.439216 0 0 0 1.000000 0"></feColorMatrix>
        </filter>
    </defs>
    <g id="Welcome" stroke="none" stroke-width="1" fill="none" fill-rule="evenodd">
        <g id="Home-page-/-Récapitulatif_Produits-/-Modification_Produits" transform="translate(-622.000000, -670.000000)">
            <g id="Sous-Catégories/Viandes" filter="url(#filter-1)" transform="translate(627.500000, 675.500000)">
                <rect id="Rectangle-Copy-7" fill="#FFFFFF" x="0" y="0" width="42" height="42" rx="21"></rect>
                <g filter="url(#filter-2)" id="MEAT-">
                    <g transform="translate(8.500000, 8.500000)">
                        <path d="M9.21916667,11.2337505 C9.28274401,11.2338588 9.34521358,11.2171092 9.40020833,11.1852083 C9.95447911,10.865544 10.4592822,10.4669228 10.89875,10.001875 C10.9911627,9.90822288 11.025947,9.77204407 10.9897678,9.64554552 C10.9535885,9.51904698 10.8520587,9.42185474 10.724102,9.39122946 C10.5961454,9.36060418 10.461614,9.40129732 10.3720833,9.49770833 C9.98060846,9.91215094 9.53106298,10.2675908 9.0375,10.5529167 C8.8941554,10.6351398 8.82404004,10.8034939 8.86664371,10.9631599 C8.90924738,11.122826 9.05391442,11.2338697 9.21916667,11.2337505 L9.21916667,11.2337505 Z" id="Path" fill="#000000" fill-rule="nonzero"></path>
                        <path d="M19.5877083,2.34354167 C17.3864583,1.46854167 15.325,2.29395833 14.3377083,4.44625 C13.7929167,5.63375 14.125625,6.40625 14.4191667,7.08770833 C14.70875,7.76 14.95875,8.34041667 14.3970833,9.38875 C13.523125,11.0195833 13.404375,12.7960417 14.0941667,13.9147917 C14.4422917,14.4791667 15.155,15.1410417 16.5825,15.1410417 C16.6241667,15.1410417 16.6658333,15.1410417 16.7075,15.1391667 C19.5833333,15.0625 21.633125,13.844375 22.4791667,11.7083333 C24.0845833,7.64354167 22.2772917,3.411875 19.5877083,2.34354167 Z M21.8,11.439375 C20.8141667,13.9329167 18.1739583,14.3708333 16.6875,14.4104167 C15.7520833,14.4291667 15.0885417,14.1395833 14.71375,13.5320833 C14.16625,12.6441667 14.2970833,11.1175 15.03875,9.733125 C15.7664583,8.375 15.4060417,7.53791667 15.0877083,6.799375 C14.820625,6.17895833 14.5897917,5.643125 14.999375,4.75020833 C15.6035417,3.43625 16.6489583,2.729375 17.886875,2.729375 C18.3781071,2.73524023 18.8637708,2.83421101 19.318125,3.02104167 C21.6404167,3.94354167 23.2302083,7.821875 21.8,11.439375 Z" id="Shape" fill="#000000" fill-rule="nonzero"></path>
                        <path d="M18.3591667,3.79270833 C17.4674569,3.79270833 16.7445833,4.51558191 16.7445833,5.40729167 C16.7445833,6.29900142 17.4674569,7.021875 18.3591667,7.021875 C19.2508764,7.021875 19.97375,6.29900142 19.97375,5.40729167 C19.9727168,4.51601025 19.2504481,3.79374157 18.3591667,3.79270833 L18.3591667,3.79270833 Z M18.3591667,6.29270833 C18.0010491,6.29270833 17.678194,6.07698349 17.5411483,5.74612596 C17.4041027,5.41526842 17.4798551,5.03443493 17.7330825,4.78120754 C17.9863099,4.52798015 18.3671434,4.45222765 18.698001,4.58927333 C19.0288585,4.72631901 19.2445833,5.04917405 19.2445833,5.40729167 C19.2440093,5.89605583 18.8479308,6.29213433 18.3591667,6.29270833 Z" id="Shape" fill="#000000" fill-rule="nonzero"></path>
                        <path d="M10.09375,15.144375 C10.34375,13.8020833 9.65375,12.8752083 7.98708333,12.3110417 C5.82738982,11.6375099 3.52178806,12.792842 2.76854167,14.9260417 C2.233125,16.46875 3.046875,18.040625 4.10770833,18.6135417 C4.4005553,18.7758963 4.72933872,18.8624786 5.06416667,18.8654167 C5.74711718,18.8415827 6.37847943,18.4958827 6.76645833,17.9333333 C7.26395833,17.2854167 7.94645833,16.9375 8.54854167,16.630625 C9.27083333,16.2620833 9.95083333,15.915 10.09375,15.144375 Z M9.376875,15.0114583 C9.30291667,15.4091667 8.90854167,15.6277083 8.2175,15.9797917 C7.57958333,16.305 6.78583333,16.7089583 6.188125,17.4883333 C5.69208333,18.1341667 5.07583333,18.3060417 4.45354167,17.970625 C3.65541667,17.5404167 3.04770833,16.345625 3.45729167,15.1647917 C3.96586841,13.7673795 5.29731174,12.8399546 6.784375,12.8472409 C7.11348107,12.8453859 7.44069428,12.897177 7.753125,13.000625 C9.63166667,13.6375 9.45958333,14.5654167 9.376875,15.0114583 L9.376875,15.0114583 Z" id="Shape" fill="#000000" fill-rule="nonzero"></path>
                        <path d="M14.305625,15.6352083 C13.3804167,15.1977083 12.099375,15.2254167 11.3229167,16.2716667 C10.9572917,16.7647917 10.3645833,17.0941667 9.84104167,17.3847917 C9.19145833,17.7458333 8.57770833,18.086875 8.55458333,18.7052083 C8.51583333,19.7283333 9.32291667,20.2939583 11.021875,20.434375 C11.146875,20.4447917 11.2736111,20.4499306 11.4020833,20.4497944 C13.1664583,20.4497944 15.161875,19.479375 15.561875,17.8760417 C15.781875,16.9947917 15.276875,16.0941667 14.305625,15.6352083 Z M14.8541667,17.7 C14.5516667,18.9114583 12.7897917,19.8491667 11.0816667,19.7083333 C9.25166667,19.5564583 9.27333333,18.9791667 9.28270833,18.7327083 C9.29041667,18.524375 9.77083333,18.2577083 10.1947917,18.0222917 C10.7533333,17.711875 11.4485417,17.325625 11.908125,16.70625 C12.1962664,16.3145528 12.6574138,16.0881007 13.1435417,16.0995833 C13.4377915,16.1016518 13.7280091,16.1682148 13.99375,16.2945833 C14.49375,16.530625 15.0189583,17.0404167 14.8541667,17.7 Z" id="Shape" fill="#000000" fill-rule="nonzero"></path>
                        <path d="M24.8333333,8.56895833 C24.8631871,7.19661134 24.6364521,5.8307609 24.1647917,4.54166667 C23.4564583,2.70666667 21.8614583,0.460833333 18.28375,0.181666667 C14.139375,-0.137916667 12.8097917,2.61208333 11.5233333,5.27458333 C10.660625,7.06041667 9.84583333,8.74666667 8.22708333,9.57041667 C7.28914485,10.0175374 6.31677608,10.3885243 5.319375,10.6797917 C2.664375,11.530625 0.15625,12.3347917 0.15625,16.158125 L0.15625,16.158125 L0.15625,18.5539583 C0.15625,21.4004167 2.78854167,24.1358333 6.02375,24.6514583 C6.84326613,24.7801956 7.67168625,24.8438667 8.50125,24.8419203 C12.7304167,24.8419203 17.9979167,23.2685417 22.2404167,18.7727083 C23.7291667,17.191875 24.75,14.2602083 24.8375,11.2947917 L24.84375,9.06354167 L24.8333333,8.56895833 Z M21.7083333,18.2727083 C16.7833333,23.49375 10.4354167,24.6197917 6.13854167,23.9314583 C3.32708333,23.4833333 1.02479167,21.1975 0.891875,18.774375 C2.00494742,20.6356224 3.88335238,21.9101318 6.02416667,22.2566667 C6.84294958,22.3850464 7.67059086,22.4485771 8.499375,22.4466667 C12.7304167,22.4466667 17.999375,20.873125 22.2395833,16.376875 C22.8980756,15.6367148 23.4200508,14.7856131 23.78125,13.863125 C23.3766667,15.6683333 22.6341667,17.2916667 21.7097917,18.2727083 L21.7083333,18.2727083 Z M21.7083333,15.876875 C16.7841667,21.0972917 10.4375,22.2239583 6.13791667,21.536875 C3.24208333,21.074375 0.884375,18.661875 0.884375,16.1591667 C0.885416667,12.8666667 2.94020833,12.2083333 5.54166667,11.375 C6.57644701,11.0724756 7.58502266,10.6866307 8.5575,10.22125 C10.3954167,9.28604167 11.3025,7.40875 12.1797917,5.59270833 C13.3464583,3.17604167 14.4529167,0.886666667 17.6560417,0.886666667 C17.8392361,0.886666667 18.0295139,0.894305556 18.226875,0.909583333 C21.4258333,1.15958333 22.851875,3.165625 23.484375,4.80541667 C24.9254167,8.53708333 23.735625,13.7291667 21.709375,15.8764583 L21.7083333,15.876875 Z" id="Shape" fill="#000000" fill-rule="nonzero"></path>
                    </g>
                </g>
            </g>
        </g>
    </g>
</svg>