<?xml version="1.0" encoding="UTF-8"?>
<svg width="53px" height="53px" viewBox="0 0 53 53" version="1.1" xmlns="http://www.w3.org/2000/svg" xmlns:xlink="http://www.w3.org/1999/xlink">
    <title>9E2F1AD3-5177-4334-B188-9A41C368EACD</title>
    <defs>
        <filter x="-15.5%" y="-15.5%" width="131.0%" height="131.0%" filterUnits="objectBoundingBox" id="filter-1">
            <feOffset dx="0" dy="1" in="SourceAlpha" result="shadowOffsetOuter1"></feOffset>
            <feGaussianBlur stdDeviation="1" in="shadowOffsetOuter1" result="shadowBlurOuter1"></feGaussianBlur>
            <feColorMatrix values="0 0 0 0 0   0 0 0 0 0   0 0 0 0 0  0 0 0 0.5 0" type="matrix" in="shadowBlurOuter1" result="shadowMatrixOuter1"></feColorMatrix>
            <feMerge>
                <feMergeNode in="shadowMatrixOuter1"></feMergeNode>
                <feMergeNode in="SourceGraphic"></feMergeNode>
            </feMerge>
        </filter>
        <filter id="filter-2">
            <feColorMatrix in="SourceGraphic" type="matrix" values="0 0 0 0 0.098039 0 0 0 0 0.098039 0 0 0 0 0.439216 0 0 0 1.000000 0"></feColorMatrix>
        </filter>
        <polygon id="path-3" points="7.28306304e-13 -2.66453526e-14 27.4 -2.66453526e-14 27.4 27.4003295 7.28306304e-13 27.4003295"></polygon>
    </defs>
    <g id="Welcome" stroke="none" stroke-width="1" fill="none" fill-rule="evenodd">
        <g id="Home-page-/-Récapitulatif_Produits-/-Modification_Produits" transform="translate(-907.000000, -670.000000)">
            <g id="Sous-Catégories/Viandes-Copy-5" filter="url(#filter-1)" transform="translate(912.500000, 675.500000)">
                <rect id="Rectangle-Copy-6" fill="#FFFFFF" x="0" y="0" width="42" height="42" rx="21"></rect>
                <g filter="url(#filter-2)" id="Group-3">
                    <g transform="translate(7.000000, 7.000000)">
                        <mask id="mask-4" fill="white">
                            <use xlink:href="#path-3"></use>
                        </mask>
                        <g id="Clip-2"></g>
                        <path d="M24.27,8.58521591 C23.7767045,8.09226136 23.02875,8.83782955 23.5230682,9.33214773 C24.0173864,9.82646591 24.7629545,9.07851136 24.27,8.58521591 L24.27,8.58521591 Z M22.5463636,10.9265795 C22.0530682,10.4332841 21.3057955,11.1791932 21.7997727,11.6735114 C22.2930682,12.1668068 23.0406818,11.4205568 22.5463636,10.9265795 L22.5463636,10.9265795 Z M19.6285227,11.4546477 C19.1342045,10.9603295 18.3882955,11.7082841 18.8815909,12.2012386 C19.3752273,12.694875 20.1225,11.948625 19.6285227,11.4546477 L19.6285227,11.4546477 Z M18.5713636,4.02282955 C18.0647727,4.02282955 17.6498864,4.43226136 17.6498864,4.94328409 C17.6498864,5.75907955 18.6429545,6.17464773 19.2221591,5.59510227 C19.8003409,5.01657955 19.3895455,4.02282955 18.5713636,4.02282955 L18.5713636,4.02282955 Z M18.5713636,6.88748864 C17.4975,6.88748864 16.6271591,6.01851136 16.6271591,4.94328409 C16.6271591,3.20635227 18.7326136,2.35646591 19.9452273,3.56907955 C21.1690909,4.79294318 20.29125,6.88748864 18.5713636,6.88748864 L18.5713636,6.88748864 Z M18.9981818,14.359875 C24.8925,15.6420341 28.8398864,8.40589773 24.5751136,4.14010227 L23.2319318,2.79726136 C20.9563636,0.521693182 17.1422727,0.321920455 14.6014773,2.847375 C13.1856818,4.26282955 12.5273864,6.30964773 12.9514773,8.374875 C13.22625,9.74839773 12.7994318,11.1577159 11.8101136,12.1470341 L8.70988636,15.2476023 C11.0345455,15.7726023 11.1917045,15.7177159 11.2990909,16.1104432 L11.9713636,18.574875 L15.0770455,15.4695341 C16.0496591,14.4969205 17.4375,14.0244205 18.9981818,14.359875 L18.9981818,14.359875 Z M15.8001136,16.1926023 C11.9256818,20.067375 12.0511364,20.0707841 11.7098864,20.0707841 C11.4129545,20.0707841 11.2670455,19.8791932 11.1889773,19.5924886 L8.26329545,22.5178295 L7.54022727,21.7947614 L10.8790909,18.4562386 L10.3932955,16.6760114 L8.81659091,16.3197614 L5.44090909,19.6957841 L4.7175,18.9727159 L7.63704545,16.0535114 C7.41954545,16.0047614 7.26340909,15.9001023 7.20136364,15.6839659 C7.08579545,15.2844205 7.02340909,15.4879432 11.0870455,11.4239659 C11.8339773,10.6770341 12.1561364,9.61305682 11.9492045,8.577375 C11.4698864,6.25339773 12.1680682,3.833625 13.8790909,2.12294318 C16.8252273,-0.803079545 21.2856818,-0.595125 23.955,2.07419318 L25.2981818,3.41703409 C30.2822727,8.401125 25.6673864,16.8556705 18.7776136,15.3587386 C17.5810227,15.098625 16.53,15.4630568 15.8001136,16.1926023 L15.8001136,16.1926023 Z M7.29068182,23.0158977 C8.90931818,24.6345341 7.74,27.4003295 5.46238636,27.4003295 C3.9075,27.4003295 2.70954545,26.0285114 2.93420455,24.4715795 C0.478295455,24.8271477 -0.969886364,21.8496477 0.752727273,20.1263523 C1.76352273,19.1152159 3.39,19.114875 4.38988636,20.1144205 L3.66647727,20.8374886 C3.06579545,20.2371477 2.08875,20.2371477 1.48772727,20.8374886 C0.875454545,21.4497614 0.875454545,22.4274886 1.47579545,23.0278295 C2.07613636,23.6285114 3.05386364,23.6285114 3.65420455,23.0278295 L4.37727273,23.7508977 C3.77590909,24.3529432 3.77556818,25.3276023 4.37727273,25.9296477 C4.97795455,26.5296477 5.95534091,26.5303295 6.55602273,25.9296477 C7.16829545,25.3170341 7.16829545,24.3396477 6.56761364,23.7389659 L7.29068182,23.0158977 Z" id="Fill-1" fill="#000000" mask="url(#mask-4)"></path>
                    </g>
                </g>
            </g>
        </g>
    </g>
</svg>