<?xml version="1.0" encoding="UTF-8"?>
<svg width="42px" height="42px" viewBox="0 0 42 42" version="1.1" xmlns="http://www.w3.org/2000/svg" xmlns:xlink="http://www.w3.org/1999/xlink">
    <title>96718680-FB71-412C-979B-0ECF3D72565E</title>
    <defs>
        <filter id="filter-1">
            <feColorMatrix in="SourceGraphic" type="matrix" values="0 0 0 0 0.098039 0 0 0 0 0.098039 0 0 0 0 0.439216 0 0 0 1.000000 0"></feColorMatrix>
        </filter>
    </defs>
    <g id="Welcome" stroke="none" stroke-width="1" fill="none" fill-rule="evenodd">
        <g id="Asset-4--Icones" transform="translate(-202.000000, -540.000000)">
            <g id="Sous-Catégories/Volailles" transform="translate(202.000000, 540.000000)">
                <rect id="Rectangle-Copy-6" fill="#FFFFFF" x="0" y="0" width="42" height="42" rx="21"></rect>
                <g filter="url(#filter-1)" id="CHICKEN-">
                    <g transform="translate(8.500000, 12.000000)">
                        <path d="M22.978692,11.2492605 C21.9945148,10.5683329 21.3227848,9.71790769 19.328903,7.19725899 L19.2993671,7.15970938 C19.4855287,6.88064611 19.6990936,6.62064935 19.9369198,6.38354425 L22.2561181,4.07644585 C22.7801614,4.4086251 23.4550194,4.38914514 23.9588002,4.02729746 C24.462581,3.66544977 24.6932405,3.03452902 24.5407594,2.43547008 C24.3882782,1.83641114 23.8835424,1.39055738 23.2672996,1.31057092 C23.1863235,0.698416924 22.7380101,0.19730091 22.1359913,0.0460167013 C21.5339726,-0.105267507 20.9000471,0.123887418 20.5362956,0.624283651 C20.172544,1.12467988 20.1525595,1.79507889 20.485865,2.31601943 L18.1662447,4.62248851 C17.9704134,4.81627757 17.7591799,4.99404347 17.5345992,5.15405673 C14.7229958,2.7670343 9.8056962,2.22665555 7.12383966,4.02945639 C5.70400844,3.83814218 4.20611814,4.33383899 2.88860759,5.43872054 C1.06194816,6.99443604 0.00736315683,9.26411814 0,11.6555934 C0,15.9179987 2.88797468,17.4369748 5.5907173,17.4369748 L12.5,17.4369748 C20.6067511,17.4369748 25,16.9335163 25,14.2777729 C25,13.2121192 24.3010549,12.1651354 22.978692,11.2492605 Z M18.6883966,5.14147027 L21.2445148,2.59984414 C21.3154562,2.52922078 21.3544369,2.43293111 21.3524869,2.33313291 C21.3505368,2.23333472 21.307824,2.13862328 21.2341772,2.0707932 C21.2316456,2.06827591 21.2179325,2.05673832 21.2154008,2.05422103 C20.9554751,1.79674456 20.9118345,1.39367861 21.1106881,1.08709101 C21.3095418,0.7805034 21.6968131,0.65376807 22.03992,0.782997985 C22.3830269,0.912227899 22.5886643,1.26228006 22.5333333,1.62292495 C22.5158871,1.73809141 22.554468,1.85465382 22.6372912,1.93700747 C22.7201144,2.01936111 22.8373414,2.05772324 22.9531646,2.04037592 C23.315227,1.98585116 23.6664692,2.18995049 23.7964136,2.53036978 C23.926358,2.87078908 23.7997697,3.25522287 23.4925054,3.45330372 C23.185241,3.65138457 22.780616,3.6094024 22.521097,3.35251454 C22.5183544,3.34915815 22.5044304,3.33384462 22.5012658,3.3315371 C22.4329773,3.25890761 22.3379545,3.21696515 22.2379747,3.21532211 C22.1381213,3.2145857 22.0420574,3.25329141 21.9708861,3.32293635 L19.414557,5.86372339 C18.4341691,6.80788008 17.8555714,8.09014225 17.7981013,9.44604012 C17.7442047,10.4454579 17.3125777,11.3877355 16.5896624,12.0841625 C15.1814346,13.4841965 13.1031646,13.6964882 11.956962,12.5576232 C10.8107595,11.4187582 11.0232068,9.35080256 12.4322785,7.95034894 C13.1327865,7.23168749 14.0803722,6.8025369 15.085443,6.74876141 C16.0196662,6.71663202 16.9273973,6.43182287 17.7109705,5.9249775 L17.7181435,5.92036247 C18.0686537,5.69599348 18.3939341,5.43486745 18.6883966,5.14147027 Z M12.5,16.7027645 L5.5907173,16.7027645 C4.45147679,16.7027645 0.738396624,16.3385962 0.738396624,11.6555934 C0.744668999,9.48016098 1.7035955,7.41533855 3.3649789,5.99986695 C4.18062113,5.27182718 5.21159408,4.82624104 6.30337553,4.72989298 C5.63765438,5.46136665 5.25432597,6.40384849 5.22151899,7.38983185 C5.21664573,7.48722378 5.25094173,7.58254198 5.3168407,7.65475761 C5.38273967,7.72697323 5.47482634,7.77015196 5.57278481,7.7747678 C5.57869198,7.7747678 5.5850211,7.7747678 5.59092827,7.7747678 C5.78794669,7.77488708 5.95034618,7.62116373 5.95991561,7.4254935 C5.98649838,6.34058134 6.53086196,5.33303757 7.42594937,4.71206216 L7.4278481,4.71059374 L7.42932489,4.70933509 C9.77869198,3.0198124 14.214135,3.45740172 16.8630802,5.55472576 C16.3042055,5.83588273 15.6905083,5.99278565 15.064557,6.01455116 C13.8710811,6.07422818 12.7443921,6.58024073 11.9103376,7.4311574 C10.214135,9.11753348 10.0008439,11.6499295 11.4350211,13.0757659 C12.0738438,13.6997135 12.9384615,14.0415582 13.8337553,14.0241557 C13.9571027,14.0241557 14.0821378,14.0184219 14.2088608,14.0069542 C16.5633437,13.7285378 18.3829344,11.8195027 18.5362869,9.46680779 C18.5544877,8.91087457 18.6816922,8.36382519 18.9107595,7.85637003 C20.8278481,10.2803128 21.5118143,11.12885 22.556962,11.852152 C23.3345992,12.390433 24.2616034,13.2484102 24.2616034,14.2777729 C24.2616034,16.2903481 19.5597046,16.7027645 12.5,16.7027645 Z" id="Shape" fill="#000000" fill-rule="nonzero"></path>
                        <path d="M9.49031787,15.5462185 L7.73657289,15.5462185 C7.52469895,15.5462185 7.35294118,15.7343341 7.35294118,15.9663866 C7.35294118,16.198439 7.52469895,16.3865546 7.73657289,16.3865546 L9.49031787,16.3865546 C9.70219181,16.3865546 9.87394958,16.198439 9.87394958,15.9663866 C9.87394958,15.7343341 9.70219181,15.5462185 9.49031787,15.5462185 Z" id="Path" fill="#000000" fill-rule="nonzero"></path>
                    </g>
                </g>
            </g>
        </g>
    </g>
</svg>