<?xml version="1.0" encoding="UTF-8"?>
<svg width="13px" height="13px" viewBox="0 0 13 13" version="1.1" xmlns="http://www.w3.org/2000/svg" xmlns:xlink="http://www.w3.org/1999/xlink">
    <title>989C5F57-EE64-49A3-A960-6F3E1E9AD8B7</title>
    <g id="Welcome" stroke="none" stroke-width="1" fill="none" fill-rule="evenodd">
        <g id="Home-page-/-Récapitulatif_Produits-/-Modification_Produits" transform="translate(-616.000000, -474.000000)" fill-rule="nonzero">
            <g id="Group" transform="translate(89.000000, 128.000000)">
                <g id="Group-14" transform="translate(515.477657, 338.000000)">
                    <g id="Icons/Chariot" transform="translate(12.507246, 8.500000)">
                        <path d="M11.9855072,5.5893438 C11.9855072,5.17889411 11.6395209,4.84299654 11.2167432,4.84299654 L0.768657641,4.84299654 C0.345879984,4.84299654 0,5.17889411 0,5.5893438 C0,5.93825185 0.250794896,6.23098766 0.58540081,6.31163199 L1.64537619,11.1800299 C1.64537619,11.6310599 2.02539746,12 2.48997427,12 L9.63369353,12 C10.0982703,12 10.4782916,11.6310599 10.4782916,11.1800299 L11.5498601,6.25845423 C11.8062921,6.13722959 11.9855072,5.88362848 11.9855072,5.5893438 Z" id="Shape" fill="#FFFFFF"></path>
                        <path d="M3.45295009,10.2286127 C3.45295009,10.3695596 3.33414691,10.4847953 3.18896666,10.4847953 L3.11621699,10.4847953 C2.97103674,10.4847953 2.85223356,10.3694563 2.85223356,10.2286127 L2.85223356,7.22949042 C2.85223356,7.08854355 2.97103674,6.97330786 3.11621699,6.97330786 L3.18896666,6.97330786 C3.33414691,6.97330786 3.45295009,7.08854355 3.45295009,7.22949042 L3.45295009,10.2286127 Z" id="Path" fill="#191970"></path>
                        <path d="M5.38538965,10.2286127 C5.38538965,10.3695596 5.26658647,10.4847953 5.12140621,10.4847953 L5.04865655,10.4847953 C4.9034763,10.4847953 4.78467312,10.3694563 4.78467312,10.2286127 L4.78467312,7.22949042 C4.78467312,7.08854355 4.90336994,6.97330786 5.04865655,6.97330786 L5.12140621,6.97330786 C5.26658647,6.97330786 5.38538965,7.08854355 5.38538965,7.22949042 L5.38538965,10.2286127 Z" id="Path" fill="#191970"></path>
                        <path d="M7.31772284,10.2286127 C7.31772284,10.3695596 7.19902602,10.4847953 7.05373941,10.4847953 L6.98109611,10.4847953 C6.83591585,10.4847953 6.71721903,10.3694563 6.71721903,10.2286127 L6.71721903,7.22949042 C6.71721903,7.08854355 6.83591585,6.97330786 6.98109611,6.97330786 L7.05384577,6.97330786 C7.19902602,6.97330786 7.3178292,7.08854355 7.3178292,7.22949042 L7.3178292,10.2286127 L7.31772284,10.2286127 Z" id="Path" fill="#191970"></path>
                        <path d="M9.2501624,10.2286127 C9.2501624,10.3695596 9.13135922,10.4847953 8.98628533,10.4847953 L8.91353566,10.4847953 C8.76835541,10.4847953 8.64955223,10.3694563 8.64955223,10.2286127 L8.64955223,7.22949042 C8.64955223,7.08854355 8.76835541,6.97330786 8.91353566,6.97330786 L8.98628533,6.97330786 C9.13146558,6.97330786 9.2501624,7.08854355 9.2501624,7.22949042 L9.2501624,10.2286127 Z" id="Path" fill="#191970"></path>
                        <path d="M2.60792657,3.60039238 C2.84723468,1.98254943 4.27670178,0.73777686 6.00939883,0.73777686 C7.74209589,0.73777686 9.17166934,1.98254943 9.41097745,3.60039238 C9.44586325,4.15282152 10.1788906,4.06443286 10.1788906,3.60039238 C9.93479631,1.57364861 8.16264,0 6.00939883,0 C3.85626402,0 2.08400136,1.57364861 1.84001345,3.60039238 C1.84001345,4.17502194 2.61728618,4.19711911 2.60792657,3.60039238 Z" id="Path" fill="#191970"></path>
                    </g>
                </g>
            </g>
        </g>
    </g>
</svg>