<?xml version="1.0" encoding="UTF-8"?>
<svg width="16px" height="15px" viewBox="0 0 16 15" version="1.1" xmlns="http://www.w3.org/2000/svg" xmlns:xlink="http://www.w3.org/1999/xlink">
    <title>33E73654-F6A9-447D-8D3F-369CB55323E2</title>
    <g id="Welcome" stroke="none" stroke-width="1" fill="none" fill-rule="evenodd">
        <g id="Home-page-/-Récapitulatif_Produits-/-Modification_Produits" transform="translate(-624.000000, -335.000000)" fill="#4A4A4A" fill-rule="nonzero">
            <g id="Group" transform="translate(89.000000, 128.000000)">
                <g id="Group-6" transform="translate(515.500000, 171.000000)">
                    <g id="Icons/Plus" transform="translate(20.000000, 36.000000)">
                        <path d="M12.8027344,0 C14.0143066,0 15,0.985693359 15,2.19726562 L15,2.19726562 L15,12.8027344 C15,14.0143066 14.0143066,15 12.8027344,15 L12.8027344,15 L2.19726562,15 C0.985693359,15 0,14.0143066 0,12.8027344 L0,12.8027344 L0,2.19726562 C0,0.985693359 0.985693359,0 2.19726562,0 L2.19726562,0 Z M12.8027344,0.87890625 L2.19726562,0.87890625 C1.47032227,0.87890625 0.87890625,1.47032227 0.87890625,2.19726562 L0.87890625,2.19726562 L0.87890625,12.8027344 C0.87890625,13.5296777 1.47032227,14.1210938 2.19726562,14.1210938 L2.19726562,14.1210938 L12.8027344,14.1210938 C13.5296777,14.1210938 14.1210938,13.5296777 14.1210938,12.8027344 L14.1210938,12.8027344 L14.1210938,2.19726562 C14.1210938,1.47032227 13.5296777,0.87890625 12.8027344,0.87890625 L12.8027344,0.87890625 Z M7.5,2.37304688 C7.74269531,2.37304688 7.93945312,2.56980469 7.93945312,2.8125 L7.93945312,2.8125 L7.93945312,7.06054688 L12.1875,7.06054688 C12.4301953,7.06054688 12.6269531,7.25730469 12.6269531,7.5 C12.6269531,7.74269531 12.4301953,7.93945312 12.1875,7.93945312 L12.1875,7.93945312 L7.93945312,7.93945312 L7.93945312,12.1875 C7.93945312,12.4301953 7.74269531,12.6269531 7.5,12.6269531 C7.25730469,12.6269531 7.06054688,12.4301953 7.06054688,12.1875 L7.06054688,12.1875 L7.06054688,7.93945312 L2.8125,7.93945312 C2.56980469,7.93945312 2.37304688,7.74269531 2.37304688,7.5 C2.37304688,7.25730469 2.56980469,7.06054688 2.8125,7.06054688 L2.8125,7.06054688 L7.06054688,7.06054688 L7.06054688,2.8125 C7.06054688,2.56980469 7.25730469,2.37304688 7.5,2.37304688 Z" id="Combined-Shape"></path>
                    </g>
                </g>
            </g>
        </g>
    </g>
</svg>