<?xml version="1.0" encoding="UTF-8"?>
<svg width="20px" height="20px" viewBox="0 0 20 20" version="1.1" xmlns="http://www.w3.org/2000/svg" xmlns:xlink="http://www.w3.org/1999/xlink">
    <title>AD</title>
    <defs>
        <circle id="path-1" cx="9.5" cy="9.5" r="9.5"></circle>
        <rect id="path-3" x="0" y="0" width="28" height="20" rx="2"></rect>
    </defs>
    <g id="Welcome" stroke="none" stroke-width="1" fill="none" fill-rule="evenodd">
        <g id="Assets-3---Drapeaux" transform="translate(-187.000000, -37.000000)">
            <g id="AD" transform="translate(187.500000, 37.500000)">
                <mask id="mask-2" fill="white">
                    <use xlink:href="#path-1"></use>
                </mask>
                <use id="Mask" fill="#D8D8D8" xlink:href="#path-1"></use>
                <g mask="url(#mask-2)">
                    <g transform="translate(-4.500000, -0.500000)">
                        <mask id="mask-4" fill="white">
                            <use xlink:href="#path-3"></use>
                        </mask>
                        <use id="Mask" stroke="none" fill="#FFFFFF" fill-rule="evenodd" xlink:href="#path-3"></use>
                        <rect id="Mask-Copy" stroke="none" fill="#1537D1" fill-rule="evenodd" mask="url(#mask-4)" x="0" y="0" width="28" height="20"></rect>
                        <rect id="Mask" stroke="none" fill="#EA3058" fill-rule="evenodd" mask="url(#mask-4)" x="13.3333333" y="0" width="14.6666667" height="20"></rect>
                        <rect id="Rectangle-2" stroke="none" fill="#FFCF3C" fill-rule="evenodd" mask="url(#mask-4)" x="9.33333333" y="0" width="9.33333333" height="20"></rect>
                        <polygon id="Rectangle-139-Copy" stroke="none" fill="#FFEDB1" fill-rule="evenodd" mask="url(#mask-4)" points="12.6666667 8.66666667 14 8.66666667 14 9.33333333 12.6666667 9.33333333"></polygon>
                        <path d="M15.0665374,8.39489763 L15.4415896,10.6785707 C15.4092668,10.946949 15.2747377,11.1880997 15.0822696,11.3651924 C14.8810676,11.5503212 14.6151696,11.6666667 14.330079,11.6666667 L14.330079,11.6666667 L13.669921,11.6666667 C13.3848946,11.6666667 13.1182368,11.5509462 12.9165675,11.3653873 C12.7157804,11.1806402 12.5782803,10.9254984 12.5545201,10.6403761 L12.5545201,10.6403761 L12.4118856,8.92876276 L15.0665374,8.39489763 Z" id="Rectangle-137" stroke="#D32E28" stroke-width="0.666666667" fill="none" mask="url(#mask-4)"></path>
                        <polygon id="Rectangle-139" stroke="none" fill="#D32E28" fill-rule="evenodd" mask="url(#mask-4)" points="12.6666667 9.33333333 15.3333333 9.33333333 15.3333333 10 14.6666667 10 13.3333333 10 12.6666667 10"></polygon>
                    </g>
                </g>
            </g>
        </g>
    </g>
</svg>