<?xml version="1.0" encoding="UTF-8"?>
<svg width="20px" height="20px" viewBox="0 0 20 20" version="1.1" xmlns="http://www.w3.org/2000/svg" xmlns:xlink="http://www.w3.org/1999/xlink">
    <title>AN</title>
    <defs>
        <circle id="path-1" cx="9.5" cy="9.5" r="9.5"></circle>
        <rect id="path-3" x="0" y="0" width="28" height="20" rx="2"></rect>
    </defs>
    <g id="Welcome" stroke="none" stroke-width="1" fill="none" fill-rule="evenodd">
        <g id="Assets-3---Drapeaux" transform="translate(-667.000000, -37.000000)">
            <g id="AN" transform="translate(667.500000, 37.500000)">
                <mask id="mask-2" fill="white">
                    <use xlink:href="#path-1"></use>
                </mask>
                <use id="Mask" fill="#D8D8D8" xlink:href="#path-1"></use>
                <g mask="url(#mask-2)">
                    <g transform="translate(-4.500000, -0.500000)">
                        <mask id="mask-4" fill="white">
                            <use xlink:href="#path-3"></use>
                        </mask>
                        <rect stroke="#F5F5F5" stroke-width="0.5" x="0.25" y="0.25" width="27.5" height="19.5" rx="2"></rect>
                        <rect id="Mask" stroke="none" fill="#D6182D" fill-rule="evenodd" mask="url(#mask-4)" x="10.6666667" y="0" width="6.66666667" height="20"></rect>
                        <rect id="Mask" stroke="none" fill="#1425A2" fill-rule="evenodd" mask="url(#mask-4)" x="0" y="6.66666667" width="28" height="6.66666667"></rect>
                        <polygon id="Star-2" stroke="none" fill="#FFFFFF" fill-rule="evenodd" mask="url(#mask-4)" points="11.3333333 11.6666667 10.8619288 11.8047379 11 11.3333333 10.8619288 10.8619288 11.3333333 11 11.8047379 10.8619288 11.6666667 11.3333333 11.8047379 11.8047379"></polygon>
                        <polygon id="Star-2" stroke="none" fill="#FFFFFF" fill-rule="evenodd" mask="url(#mask-4)" points="16.6666667 11.6666667 16.1952621 11.8047379 16.3333333 11.3333333 16.1952621 10.8619288 16.6666667 11 17.1380712 10.8619288 17 11.3333333 17.1380712 11.8047379"></polygon>
                        <polygon id="Star-2" stroke="none" fill="#FFFFFF" fill-rule="evenodd" mask="url(#mask-4)" points="8.66666667 10.3333333 8.19526215 10.4714045 8.33333333 10 8.19526215 9.52859548 8.66666667 9.66666667 9.13807119 9.52859548 9 10 9.13807119 10.4714045"></polygon>
                        <polygon id="Star-2" stroke="none" fill="#FFFFFF" fill-rule="evenodd" mask="url(#mask-4)" points="19.3333333 10.3333333 18.8619288 10.4714045 19 10 18.8619288 9.52859548 19.3333333 9.66666667 19.8047379 9.52859548 19.6666667 10 19.8047379 10.4714045"></polygon>
                        <polygon id="Star-2" stroke="none" fill="#FFFFFF" fill-rule="evenodd" mask="url(#mask-4)" points="14 9 13.5285955 9.13807119 13.6666667 8.66666667 13.5285955 8.19526215 14 8.33333333 14.4714045 8.19526215 14.3333333 8.66666667 14.4714045 9.13807119"></polygon>
                    </g>
                </g>
            </g>
        </g>
    </g>
</svg>