<?xml version="1.0" encoding="UTF-8"?>
<svg width="20px" height="20px" viewBox="0 0 20 20" version="1.1" xmlns="http://www.w3.org/2000/svg" xmlns:xlink="http://www.w3.org/1999/xlink">
    <title>BY</title>
    <defs>
        <circle id="path-1" cx="9.5" cy="9.5" r="9.5"></circle>
        <rect id="path-3" x="0" y="0" width="28" height="20" rx="2"></rect>
    </defs>
    <g id="Welcome" stroke="none" stroke-width="1" fill="none" fill-rule="evenodd">
        <g id="Assets-3---Drapeaux" transform="translate(-475.000000, -85.000000)">
            <g id="BY" transform="translate(475.500000, 85.500000)">
                <mask id="mask-2" fill="white">
                    <use xlink:href="#path-1"></use>
                </mask>
                <use id="Mask" fill="#D8D8D8" xlink:href="#path-1"></use>
                <g mask="url(#mask-2)">
                    <g transform="translate(-0.500000, -0.500000)">
                        <mask id="mask-4" fill="white">
                            <use xlink:href="#path-3"></use>
                        </mask>
                        <use id="Mask" stroke="none" fill="#FFFFFF" fill-rule="evenodd" xlink:href="#path-3"></use>
                        <rect id="Rectangle-2" stroke="none" fill="#E54252" fill-rule="evenodd" mask="url(#mask-4)" x="0" y="0" width="28" height="13.3333333"></rect>
                        <rect id="Rectangle-2" stroke="none" fill="#5CBE6B" fill-rule="evenodd" mask="url(#mask-4)" x="0" y="13.3333333" width="28" height="6.66666667"></rect>
                        <path d="M4,0 L4,2.999 L3.33333333,4 L4,5.001 L4,6.999 L3.33333333,8 L4,9.001 L4,10.999 L3.33333333,12 L4,13.001 L4,14.999 L3.33333333,16 L4,17.001 L4,20 L0,20 L0,0 L4,0 Z" id="Rectangle-1512" stroke="none" fill="#FFFFFF" fill-rule="evenodd" mask="url(#mask-4)"></path>
                        <path d="M-0.666666667,14 L0.666666667,16 L-0.666666667,18 L-2,16 L-0.666666667,14 Z M-0.666666667,10 L0.666666667,12 L-0.666666667,14 L-2,12 L-0.666666667,10 Z M-0.666666667,6 L0.666666667,8 L-0.666666667,10 L-2,8 L-0.666666667,6 Z M-0.666666667,2 L0.666666667,4 L-0.666666667,6 L-2,4 L-0.666666667,2 Z" id="Rectangle-1513" stroke="none" fill="#E54252" fill-rule="evenodd" mask="url(#mask-4)"></path>
                        <path d="M2,16 L3.33333333,18 L2,20 L0.666666667,18 L2,16 Z M2,12 L3.33333333,14 L2,16 L0.666666667,14 L2,12 Z M2,8 L3.33333333,10 L2,12 L0.666666667,10 L2,8 Z M2,4 L3.33333333,6 L2,8 L0.666666667,6 L2,4 Z M2,0 L3.33333333,2 L2,4 L0.666666667,2 L2,0 Z" id="Rectangle-1513" stroke="none" fill="#E54252" fill-rule="evenodd" mask="url(#mask-4)"></path>
                    </g>
                </g>
            </g>
        </g>
    </g>
</svg>