<?xml version="1.0" encoding="UTF-8"?>
<svg width="20px" height="20px" viewBox="0 0 20 20" version="1.1" xmlns="http://www.w3.org/2000/svg" xmlns:xlink="http://www.w3.org/1999/xlink">
    <title>CD</title>
    <defs>
        <circle id="path-1" cx="9.5" cy="9.5" r="9.5"></circle>
        <rect id="path-3" x="0" y="0" width="28" height="20" rx="2"></rect>
    </defs>
    <g id="Welcome" stroke="none" stroke-width="1" fill="none" fill-rule="evenodd">
        <g id="Assets-3---Drapeaux" transform="translate(-427.000000, -133.000000)">
            <g id="CD" transform="translate(427.500000, 133.500000)">
                <mask id="mask-2" fill="white">
                    <use xlink:href="#path-1"></use>
                </mask>
                <use id="Mask" fill="#D8D8D8" xlink:href="#path-1"></use>
                <g mask="url(#mask-2)">
                    <g transform="translate(-1.500000, -0.500000)">
                        <mask id="mask-4" fill="white">
                            <use xlink:href="#path-3"></use>
                        </mask>
                        <use id="Mask" stroke="none" fill="#FFFFFF" fill-rule="evenodd" xlink:href="#path-3"></use>
                        <rect id="Mask-Copy" stroke="none" fill="#158AFF" fill-rule="evenodd" mask="url(#mask-4)" x="0" y="0" width="28" height="20" rx="2"></rect>
                        <polygon id="Rectangle-69-Copy" stroke="none" fill="#FDD216" fill-rule="evenodd" mask="url(#mask-4)" transform="translate(13.317049, 10.417673) rotate(153.000000) translate(-13.317049, -10.417673) " points="-6.01628388 6.41767333 32.6503828 6.41767333 32.6503828 14.4176733 -6.01628388 14.4176733"></polygon>
                        <rect id="Rectangle-69" stroke="none" fill="#CE1120" fill-rule="evenodd" mask="url(#mask-4)" transform="translate(13.684917, 10.174930) rotate(153.000000) translate(-13.684917, -10.174930) " x="-5.64841655" y="7.50826297" width="38.6666667" height="5.33333333"></rect>
                        <polygon id="Star-8" stroke="none" fill="#FDD216" fill-rule="evenodd" mask="url(#mask-4)" points="4.66666667 5.96666672 2.70738249 7.36338998 3.43029315 5.06838878 1.49647828 3.63661002 3.90254581 3.61494453 4.66666667 1.33333333 5.43078753 3.61494453 7.83685505 3.63661002 5.90304019 5.06838878 6.62595084 7.36338998"></polygon>
                    </g>
                </g>
            </g>
        </g>
    </g>
</svg>