<?xml version="1.0" encoding="UTF-8"?>
<svg width="20px" height="20px" viewBox="0 0 20 20" version="1.1" xmlns="http://www.w3.org/2000/svg" xmlns:xlink="http://www.w3.org/1999/xlink">
    <title>DM</title>
    <defs>
        <circle id="path-1" cx="9.5" cy="9.5" r="9.5"></circle>
        <rect id="path-3" x="0" y="0" width="28" height="20" rx="2"></rect>
        <linearGradient x1="50%" y1="0%" x2="50%" y2="100%" id="linearGradient-5">
            <stop stop-color="#E02C42" offset="0%"></stop>
            <stop stop-color="#D22036" offset="100%"></stop>
        </linearGradient>
    </defs>
    <g id="Welcome" stroke="none" stroke-width="1" fill="none" fill-rule="evenodd">
        <g id="Assets-3---Drapeaux" transform="translate(-139.000000, -181.000000)">
            <g id="DM" transform="translate(139.500000, 181.500000)">
                <mask id="mask-2" fill="white">
                    <use xlink:href="#path-1"></use>
                </mask>
                <use id="Mask" fill="#D8D8D8" xlink:href="#path-1"></use>
                <g mask="url(#mask-2)">
                    <g transform="translate(-4.500000, -0.500000)">
                        <mask id="mask-4" fill="white">
                            <use xlink:href="#path-3"></use>
                        </mask>
                        <use id="Mask" stroke="none" fill="#FFFFFF" fill-rule="evenodd" xlink:href="#path-3"></use>
                        <rect id="Rectangle-2" stroke="none" fill="#108753" fill-rule="evenodd" mask="url(#mask-4)" x="0" y="0" width="28" height="8"></rect>
                        <rect id="Rectangle-2" stroke="none" fill="#108753" fill-rule="evenodd" mask="url(#mask-4)" x="0" y="12" width="28" height="8"></rect>
                        <path d="M16,0 L16,8 L28,8 L28,12 L16,12 L16,20 L12,20 L12,12 L0,12 L0,8 L12,8 L12,0 L16,0 Z" id="Rectangle-2" stroke="none" fill="#FFFFFF" fill-rule="evenodd" mask="url(#mask-4)"></path>
                        <path d="M14.6666667,0 L14.666,9.333 L28,9.33333333 L28,10.6666667 L14.666,10.666 L14.6666667,20 L13.3333333,20 L13.333,10.666 L0,10.6666667 L0,9.33333333 L13.333,9.333 L13.3333333,0 L14.6666667,0 Z" id="Rectangle-2" stroke="none" fill="#262626" fill-rule="evenodd" mask="url(#mask-4)"></path>
                        <path d="M13.3333333,0 L13.333,8 L28,8 L28,9.33333333 L13.333,9.333 L13.3333333,20 L12,20 L12,9.333 L0,9.33333333 L0,8 L12,8 L12,0 L13.3333333,0 Z" id="Rectangle-2" stroke="none" fill="#FCD449" fill-rule="evenodd" mask="url(#mask-4)"></path>
                        <circle id="Oval-83" stroke="none" fill="url(#linearGradient-5)" fill-rule="evenodd" mask="url(#mask-4)" cx="14" cy="10" r="4.66666667"></circle>
                        <path d="M14,13.3333333 C15.8409492,13.3333333 17.3333333,11.8409492 17.3333333,10 C17.3333333,8.15905083 15.8409492,6.66666667 14,6.66666667 C12.1590508,6.66666667 10.6666667,8.15905083 10.6666667,10 C10.6666667,11.8409492 12.1590508,13.3333333 14,13.3333333 Z" id="Oval-73" stroke="#0E673F" stroke-width="1.33333333" fill="none" stroke-linecap="round" stroke-dasharray="0.6666666666666666,2.666666666666667" mask="url(#mask-4)"></path>
                        <path d="M14,11.3333333 C14.7363797,11.3333333 14.6666667,10.7363797 14.6666667,10 C14.6666667,9.26362033 14.7363797,8.66666667 14,8.66666667 C13.2636203,8.66666667 13.3333333,9.26362033 13.3333333,10 C13.3333333,10.7363797 13.2636203,11.3333333 14,11.3333333 Z" id="Oval-84" stroke="none" fill="#0E673F" fill-rule="evenodd" mask="url(#mask-4)"></path>
                    </g>
                </g>
            </g>
        </g>
    </g>
</svg>