<?xml version="1.0" encoding="UTF-8"?>
<svg width="20px" height="20px" viewBox="0 0 20 20" version="1.1" xmlns="http://www.w3.org/2000/svg" xmlns:xlink="http://www.w3.org/1999/xlink">
    <title>DO</title>
    <defs>
        <circle id="path-1" cx="9.5" cy="9.5" r="9.5"></circle>
        <rect id="path-3" x="0" y="0" width="28" height="20" rx="2"></rect>
    </defs>
    <g id="Welcome" stroke="none" stroke-width="1" fill="none" fill-rule="evenodd">
        <g id="Assets-3---Drapeaux" transform="translate(-187.000000, -181.000000)">
            <g id="DO" transform="translate(187.500000, 181.500000)">
                <mask id="mask-2" fill="white">
                    <use xlink:href="#path-1"></use>
                </mask>
                <use id="Mask" fill="#D8D8D8" xlink:href="#path-1"></use>
                <g mask="url(#mask-2)">
                    <g transform="translate(-4.500000, -0.500000)">
                        <mask id="mask-4" fill="white">
                            <use xlink:href="#path-3"></use>
                        </mask>
                        <rect stroke="#F5F5F5" stroke-width="0.5" x="0.25" y="0.25" width="27.5" height="19.5" rx="2"></rect>
                        <rect id="Rectangle-2" stroke="none" fill="#083D7A" fill-rule="evenodd" mask="url(#mask-4)" x="0" y="0" width="12" height="8"></rect>
                        <rect id="Rectangle-2" stroke="none" fill="#083D7A" fill-rule="evenodd" mask="url(#mask-4)" x="16" y="12" width="12" height="8"></rect>
                        <rect id="Rectangle-2" stroke="none" fill="#DF1E35" fill-rule="evenodd" mask="url(#mask-4)" x="0" y="12" width="12" height="8"></rect>
                        <rect id="Rectangle-2" stroke="none" fill="#DF1E35" fill-rule="evenodd" mask="url(#mask-4)" x="16" y="0" width="12" height="8"></rect>
                        <path d="M14,8 C12.8954305,8 12,8.8954305 12,10 C12,11.1045695 12.8954305,12 14,12 C15.1045695,12 16,11.1045695 16,10" id="Oval-85" stroke="#0F6D1A" stroke-width="0.666666667" fill="none" mask="url(#mask-4)" transform="translate(14.000000, 10.000000) rotate(-45.000000) translate(-14.000000, -10.000000) "></path>
                        <circle id="Oval-85" stroke="none" fill="#042F60" fill-rule="evenodd" mask="url(#mask-4)" cx="14" cy="10" r="1"></circle>
                    </g>
                </g>
            </g>
        </g>
    </g>
</svg>