<?xml version="1.0" encoding="UTF-8"?>
<svg width="20px" height="20px" viewBox="0 0 20 20" version="1.1" xmlns="http://www.w3.org/2000/svg" xmlns:xlink="http://www.w3.org/1999/xlink">
    <title>DZ</title>
    <defs>
        <circle id="path-1" cx="9.5" cy="9.5" r="9.5"></circle>
        <rect id="path-3" x="0" y="0" width="28" height="20" rx="2"></rect>
    </defs>
    <g id="Welcome" stroke="none" stroke-width="1" fill="none" fill-rule="evenodd">
        <g id="Assets-3---Drapeaux" transform="translate(-235.000000, -181.000000)">
            <g id="DZ" transform="translate(235.500000, 181.500000)">
                <mask id="mask-2" fill="white">
                    <use xlink:href="#path-1"></use>
                </mask>
                <use id="Mask" fill="#D8D8D8" xlink:href="#path-1"></use>
                <g mask="url(#mask-2)">
                    <g transform="translate(-4.500000, -0.500000)">
                        <mask id="mask-4" fill="white">
                            <use xlink:href="#path-3"></use>
                        </mask>
                        <rect stroke="#F5F5F5" stroke-width="0.5" x="0.25" y="0.25" width="27.5" height="19.5" rx="2"></rect>
                        <rect id="Rectangle-2" stroke="none" fill="#048345" fill-rule="evenodd" mask="url(#mask-4)" x="0" y="0" width="14.6666667" height="20"></rect>
                        <polygon id="Star-8" stroke="none" fill="#E81B42" fill-rule="evenodd" mask="url(#mask-4)" points="17.3333333 11.04 15.765906 12.1573787 16.3442345 10.3213777 14.7971826 9.17595468 16.7220366 9.15862229 17.3333333 7.33333333 17.94463 9.15862229 19.869484 9.17595468 18.3224321 10.3213777 18.9007607 12.1573787"></polygon>
                        <path d="M13.7509001,4 C15.2712322,4 16.6537735,4.61550603 17.6820863,5.62070525 C16.9732717,5.28169377 16.1700274,5.09090909 15.3193274,5.09090909 C12.4319325,5.09090909 10.0912364,7.28878396 10.0912364,10 C10.0912364,12.711216 12.4319325,14.9090909 15.3193274,14.9090909 C16.1700274,14.9090909 16.9732717,14.7183062 17.6831793,14.3798184 C16.6537735,15.384494 15.2712322,16 13.7509001,16 C10.5747657,16 8,13.3137085 8,10 C8,6.6862915 10.5747657,4 13.7509001,4 Z" id="Oval-3" stroke="none" fill="#E81B42" fill-rule="evenodd" mask="url(#mask-4)"></path>
                    </g>
                </g>
            </g>
        </g>
    </g>
</svg>