<?xml version="1.0" encoding="UTF-8"?>
<svg width="20px" height="20px" viewBox="0 0 20 20" version="1.1" xmlns="http://www.w3.org/2000/svg" xmlns:xlink="http://www.w3.org/1999/xlink">
    <title>FJ</title>
    <defs>
        <circle id="path-1" cx="9.5" cy="9.5" r="9.5"></circle>
        <rect id="path-3" x="0" y="0" width="28" height="20" rx="2"></rect>
        <linearGradient x1="50%" y1="0%" x2="50%" y2="100%" id="linearGradient-5">
            <stop stop-color="#042C90" offset="0%"></stop>
            <stop stop-color="#00247E" offset="100%"></stop>
        </linearGradient>
        <path d="M0,4.66666667 L0,0 L6.66666667,0 L6.66666667,4.66666667 C6.66666667,8 3.33333333,9.33333333 3.33333333,9.33333333 C3.33333333,9.33333333 0,8 0,4.66666667 Z" id="path-6"></path>
        <linearGradient x1="50%" y1="0%" x2="50%" y2="100%" id="linearGradient-8">
            <stop stop-color="#FFFFFF" offset="0%"></stop>
            <stop stop-color="#F0F0F0" offset="100%"></stop>
        </linearGradient>
    </defs>
    <g id="Welcome" stroke="none" stroke-width="1" fill="none" fill-rule="evenodd">
        <g id="Assets-3---Drapeaux" transform="translate(-187.000000, -277.000000)">
            <g id="FJ" transform="translate(187.500000, 277.500000)">
                <mask id="mask-2" fill="white">
                    <use xlink:href="#path-1"></use>
                </mask>
                <use id="Mask" fill="#D8D8D8" xlink:href="#path-1"></use>
                <g mask="url(#mask-2)">
                    <g transform="translate(-4.500000, -0.500000)">
                        <mask id="mask-4" fill="white">
                            <use xlink:href="#path-3"></use>
                        </mask>
                        <use id="Mask" stroke="none" fill="#FFFFFF" fill-rule="evenodd" xlink:href="#path-3"></use>
                        <rect id="Mask-Copy" stroke="none" fill="#79CFF6" fill-rule="evenodd" mask="url(#mask-4)" x="0" y="0" width="28" height="20"></rect>
                        <rect id="Rectangle-1115" stroke="none" fill="url(#linearGradient-5)" fill-rule="evenodd" mask="url(#mask-4)" x="0" y="0" width="12" height="9.33333333"></rect>
                        <g id="Rectangle-1105" stroke="none" stroke-width="1" fill="none" fill-rule="evenodd" mask="url(#mask-4)">
                            <g transform="translate(17.333333, 5.333333)">
                                <mask id="mask-7" fill="white">
                                    <use xlink:href="#path-6"></use>
                                </mask>
                                <use id="Mask" stroke="none" fill="#FFFFFF" fill-rule="evenodd" xlink:href="#path-6"></use>
                                <path d="M1.33333333,3.33333333 C1.70152317,3.33333333 2,3.0348565 2,2.66666667 C2,2.29847683 1.70152317,2 1.33333333,2 C0.9651435,2 0.666666667,2.29847683 0.666666667,2.66666667 C0.666666667,3.0348565 0.9651435,3.33333333 1.33333333,3.33333333 Z M5.33333333,3.33333333 C5.70152317,3.33333333 6,3.0348565 6,2.66666667 C6,2.29847683 5.70152317,2 5.33333333,2 C4.9651435,2 4.66666667,2.29847683 4.66666667,2.66666667 C4.66666667,3.0348565 4.9651435,3.33333333 5.33333333,3.33333333 Z" id="Oval-177" stroke="none" fill="#2A915C" fill-rule="evenodd" mask="url(#mask-7)"></path>
                                <polygon id="Rectangle-1106" stroke="none" fill="#EB1D43" fill-rule="evenodd" mask="url(#mask-7)" points="8.17124146e-14 0 6.66666667 0 6.66666667 1.33333333 4 1.33333333 4 4 6.66666667 4 6.66666667 5.33333333 4 5.33333333 4 9.33333333 2.66666667 9.33333333 2.66666667 5.33333333 8.17124146e-14 5.33333333 8.17124146e-14 4 2.66666667 4 2.66666667 1.33333333 8.17124146e-14 1.33333333"></polygon>
                            </g>
                        </g>
                        <path d="M12.2968145,-0.578591639 C12.4289261,0.574083174 12.1796848,0.947954902 11.9158002,1.1364439 L11.9158002,1.1364439 L7.66666667,4.1715393 L7.66666667,5.18002169 L15.1566841,11.6000366 L6.57256028,6.33333333 L5.42893208,6.33333333 L-0.333333333,9.93474921 L-0.333333333,8.49512737 L4.33333333,5.16179403 L4.33333333,4.15331164 L-0.901085803,-0.333333333 L0.773488351,-0.333333333 L5.44015502,3 L6.57106792,3 Z" id="Rectangle-36" stroke="#FFFFFF" stroke-width="0.666666667" fill="#DB1E36" fill-rule="evenodd" mask="url(#mask-4)"></path>
                        <path d="M0,3.33333333 L0,6 L4.66666667,6 L4.66666667,9.33948135 C4.66666667,9.70427573 4.97256724,10 5.33957926,10 L6.66042074,10 C7.0320601,10 7.33333333,9.69934988 7.33333333,9.33948135 L7.33333333,6 L11.9911963,6 C12.3642483,6 12.6666667,5.69409943 12.6666667,5.3270874 L12.6666667,4.00624593 C12.6666667,3.63460657 12.3646425,3.33333333 11.9911963,3.33333333 L7.33333333,3.33333333 L7.33333333,0 L4.66666667,0 L4.66666667,3.33333333 L0,3.33333333 Z" id="Rectangle-2" stroke="none" fill="url(#linearGradient-8)" fill-rule="evenodd" mask="url(#mask-4)"></path>
                        <polygon id="Rectangle-36" stroke="none" fill="#DB1E36" fill-rule="evenodd" mask="url(#mask-4)" points="0 4 5.33333333 4 5.33333333 3.33333333 5.33333333 0 6.66666667 0 6.66666667 3.33333333 6.66666667 4 12 4 12 5.33333333 6.66666667 5.33333333 6.66666667 6 6.66666667 9.33333333 5.33333333 9.33333333 5.33333333 6 5.33333333 5.33333333 0 5.33333333"></polygon>
                    </g>
                </g>
            </g>
        </g>
    </g>
</svg>