<?xml version="1.0" encoding="UTF-8"?>
<svg width="20px" height="20px" viewBox="0 0 20 20" version="1.1" xmlns="http://www.w3.org/2000/svg" xmlns:xlink="http://www.w3.org/1999/xlink">
    <title>GD</title>
    <defs>
        <circle id="path-1" cx="9.5" cy="9.5" r="9.5"></circle>
        <rect id="path-3" x="0" y="0" width="28" height="20" rx="2"></rect>
        <rect id="path-5" x="0" y="0" width="22.6666667" height="14.6666667"></rect>
        <linearGradient x1="50%" y1="0%" x2="50%" y2="100%" id="linearGradient-7">
            <stop stop-color="#E21C30" offset="0%"></stop>
            <stop stop-color="#CE1225" offset="100%"></stop>
        </linearGradient>
    </defs>
    <g id="Welcome" stroke="none" stroke-width="1" fill="none" fill-rule="evenodd">
        <g id="Assets-3---Drapeaux" transform="translate(-523.000000, -325.000000)">
            <g id="GD" transform="translate(523.500000, 325.500000)">
                <mask id="mask-2" fill="white">
                    <use xlink:href="#path-1"></use>
                </mask>
                <use id="Mask" fill="#D8D8D8" xlink:href="#path-1"></use>
                <g mask="url(#mask-2)">
                    <g transform="translate(-4.500000, -0.500000)">
                        <mask id="mask-4" fill="white">
                            <use xlink:href="#path-3"></use>
                        </mask>
                        <use id="Mask" stroke="none" fill="#FFFFFF" fill-rule="evenodd" xlink:href="#path-3"></use>
                        <rect id="Mask" stroke="none" fill="#E42235" fill-rule="evenodd" mask="url(#mask-4)" x="0" y="0" width="28" height="20"></rect>
                        <g id="Rectangle-1128" stroke="none" stroke-width="1" fill="none" fill-rule="evenodd" mask="url(#mask-4)">
                            <g transform="translate(2.666667, 2.666667)">
                                <mask id="mask-6" fill="white">
                                    <use xlink:href="#path-5"></use>
                                </mask>
                                <use id="Mask" stroke="none" fill="#079B77" fill-rule="evenodd" xlink:href="#path-5"></use>
                                <path d="M1.7265052,7.46513824 C2.10400815,8.06926926 2.64598325,8.46804974 3.15078503,8.57039117 C3.42869756,8.62673402 2.91987048,7.35221286 3.14160185,7.21365972 C3.33079312,7.09543989 4.24105365,8.15532068 4.32076168,7.93419555 C4.50415509,7.42542756 4.3959697,6.70496135 3.98796678,6.05202021 C3.40263413,5.11529215 3.37978324,5.73354964 1.79739746,5.06248303 C1.9628457,6.02216414 1.14117254,6.52841018 1.7265052,7.46513824 L1.7265052,7.46513824 Z" id="Oval-180" stroke="none" fill="#FFD938" fill-rule="evenodd" mask="url(#mask-6)"></path>
                                <path d="M11.3333333,7.33333333 L22.6666667,14.6666667 L0,14.6666667 L11.3333333,7.33333333 Z M22.6666667,0 L11.3333333,7.33333333 L0,0 L22.6666667,0 Z" id="Rectangle-1129" stroke="none" fill="#FFD93B" fill-rule="evenodd" mask="url(#mask-6)"></path>
                                <circle id="Oval-179" stroke="none" fill="url(#linearGradient-7)" fill-rule="evenodd" mask="url(#mask-6)" cx="11.3333333" cy="7.33333333" r="3.33333333"></circle>
                                <polygon id="Star-96" stroke="none" fill="#FFD938" fill-rule="evenodd" mask="url(#mask-6)" points="11.3333333 8.36172945 9.76590599 9.49071198 10.3552705 7.65112521 8.79718262 6.50928802 10.7288573 6.5013434 11.3333333 4.66666667 11.9378094 6.5013434 13.869484 6.50928802 12.3113962 7.65112521 12.9007607 9.49071198"></polygon>
                            </g>
                        </g>
                    </g>
                </g>
            </g>
        </g>
    </g>
</svg>