<?xml version="1.0" encoding="UTF-8"?>
<svg width="20px" height="20px" viewBox="0 0 20 20" version="1.1" xmlns="http://www.w3.org/2000/svg" xmlns:xlink="http://www.w3.org/1999/xlink">
    <title>GR</title>
    <defs>
        <circle id="path-1" cx="9.5" cy="9.5" r="9.5"></circle>
        <rect id="path-3" x="0" y="0" width="28" height="20" rx="2"></rect>
    </defs>
    <g id="Welcome" stroke="none" stroke-width="1" fill="none" fill-rule="evenodd">
        <g id="Assets-3---Drapeaux" transform="translate(-379.000000, -325.000000)">
            <g id="GR" transform="translate(379.500000, 325.500000)">
                <mask id="mask-2" fill="white">
                    <use xlink:href="#path-1"></use>
                </mask>
                <use id="Mask" fill="#D8D8D8" xlink:href="#path-1"></use>
                <g mask="url(#mask-2)">
                    <g transform="translate(-4.500000, -0.500000)">
                        <mask id="mask-4" fill="white">
                            <use xlink:href="#path-3"></use>
                        </mask>
                        <rect stroke="#F5F5F5" stroke-width="0.5" x="0.25" y="0.25" width="27.5" height="19.5" rx="2"></rect>
                        <path d="M0,0 L5.33333333,0 L5.33333333,5.33333333 L0,5.33333333 L0,0 Z M28,5.33333333 L28,8 L13.3333333,8 L13.3333333,5.33333333 L28,5.33333333 Z M28,0 L28,2.66666667 L13.3333333,2.66666667 L13.3333333,5.33333333 L8,5.33333333 L8,0 L28,0 Z M8,13.3333333 L8,8 L13.3333333,8 L13.3333333,10.6666667 L28,10.6666667 L28,13.3333333 L8,13.3333333 Z M0,16 L28,16 L28,18.6666667 L0,18.6666667 L0,16 Z M0,8 L5.33333333,8 L5.33333333,13.3333333 L0,13.3333333 L0,8 Z" id="Rectangle-537" stroke="none" fill="#1C6DC1" fill-rule="evenodd" mask="url(#mask-4)"></path>
                    </g>
                </g>
            </g>
        </g>
    </g>
</svg>