<?xml version="1.0" encoding="UTF-8"?>
<svg width="20px" height="20px" viewBox="0 0 20 20" version="1.1" xmlns="http://www.w3.org/2000/svg" xmlns:xlink="http://www.w3.org/1999/xlink">
    <title>HN</title>
    <defs>
        <circle id="path-1" cx="9.5" cy="9.5" r="9.5"></circle>
        <rect id="path-3" x="0" y="0" width="28" height="20" rx="2"></rect>
    </defs>
    <g id="Welcome" stroke="none" stroke-width="1" fill="none" fill-rule="evenodd">
        <g id="Assets-3---Drapeaux" transform="translate(-139.000000, -373.000000)">
            <g id="HN" transform="translate(139.500000, 373.500000)">
                <mask id="mask-2" fill="white">
                    <use xlink:href="#path-1"></use>
                </mask>
                <use id="Mask" fill="#D8D8D8" xlink:href="#path-1"></use>
                <g mask="url(#mask-2)">
                    <g transform="translate(-4.500000, -0.500000)">
                        <mask id="mask-4" fill="white">
                            <use xlink:href="#path-3"></use>
                        </mask>
                        <rect stroke="#F5F5F5" stroke-width="0.5" x="0.25" y="0.25" width="27.5" height="19.5" rx="2"></rect>
                        <rect id="Rectangle-2" stroke="none" fill="#0884E6" fill-rule="evenodd" mask="url(#mask-4)" x="0" y="0" width="28" height="6.66666667"></rect>
                        <rect id="Rectangle-2" stroke="none" fill="#0884E6" fill-rule="evenodd" mask="url(#mask-4)" x="0" y="13.3333333" width="28" height="6.66666667"></rect>
                        <polygon id="Star-20" stroke="none" fill="#0E88E9" fill-rule="evenodd" mask="url(#mask-4)" points="14 10.6666667 13.057191 10.942809 13.3333333 10 13.057191 9.05719096 14 9.33333333 14.942809 9.05719096 14.6666667 10 14.942809 10.942809"></polygon>
                        <polygon id="Star-20-Copy" stroke="none" fill="#0E88E9" fill-rule="evenodd" mask="url(#mask-4)" points="19.3333333 9.33333333 18.3905243 9.60947571 18.6666667 8.66666667 18.3905243 7.72385763 19.3333333 8 20.2761424 7.72385763 20 8.66666667 20.2761424 9.60947571"></polygon>
                        <polygon id="Star-20-Copy-2" stroke="none" fill="#0E88E9" fill-rule="evenodd" mask="url(#mask-4)" points="19.3333333 12 18.3905243 12.2761424 18.6666667 11.3333333 18.3905243 10.3905243 19.3333333 10.6666667 20.2761424 10.3905243 20 11.3333333 20.2761424 12.2761424"></polygon>
                        <polygon id="Star-20-Copy-3" stroke="none" fill="#0E88E9" fill-rule="evenodd" mask="url(#mask-4)" points="8.66666667 12 7.72385763 12.2761424 8 11.3333333 7.72385763 10.3905243 8.66666667 10.6666667 9.60947571 10.3905243 9.33333333 11.3333333 9.60947571 12.2761424"></polygon>
                        <polygon id="Star-20-Copy-4" stroke="none" fill="#0E88E9" fill-rule="evenodd" mask="url(#mask-4)" points="8.66666667 9.33333333 7.72385763 9.60947571 8 8.66666667 7.72385763 7.72385763 8.66666667 8 9.60947571 7.72385763 9.33333333 8.66666667 9.60947571 9.60947571"></polygon>
                    </g>
                </g>
            </g>
        </g>
    </g>
</svg>