<?xml version="1.0" encoding="UTF-8"?>
<svg width="20px" height="20px" viewBox="0 0 20 20" version="1.1" xmlns="http://www.w3.org/2000/svg" xmlns:xlink="http://www.w3.org/1999/xlink">
    <title>HR</title>
    <defs>
        <circle id="path-1" cx="9.5" cy="9.5" r="9.5"></circle>
        <rect id="path-3" x="0" y="0" width="28" height="20" rx="2"></rect>
        <linearGradient x1="50%" y1="0%" x2="50%" y2="100%" id="linearGradient-5">
            <stop stop-color="#FF212E" offset="0%"></stop>
            <stop stop-color="#FD0D1B" offset="100%"></stop>
        </linearGradient>
    </defs>
    <g id="Welcome" stroke="none" stroke-width="1" fill="none" fill-rule="evenodd">
        <g id="Assets-3---Drapeaux" transform="translate(-235.000000, -373.000000)">
            <g id="HR" transform="translate(235.500000, 373.500000)">
                <mask id="mask-2" fill="white">
                    <use xlink:href="#path-1"></use>
                </mask>
                <use id="Mask" fill="#D8D8D8" xlink:href="#path-1"></use>
                <g mask="url(#mask-2)">
                    <g transform="translate(-4.500000, -0.500000)">
                        <mask id="mask-4" fill="white">
                            <use xlink:href="#path-3"></use>
                        </mask>
                        <rect stroke="#F5F5F5" stroke-width="0.5" x="0.25" y="0.25" width="27.5" height="19.5" rx="2"></rect>
                        <rect id="Rectangle-2" stroke="none" fill="#FF202D" fill-rule="evenodd" mask="url(#mask-4)" x="0" y="0" width="28" height="6.66666667"></rect>
                        <path d="M10.6666667,5.33333333 L11.3333333,4.66666667 L12,5.33333333 L12,6.66666667 L10.6666667,6.66666667 L10.6666667,5.33333333 Z M13.3333333,5.33333333 L14,4.66666667 L14.6666667,5.33333333 L14.6666667,6.66666667 L13.3333333,6.66666667 L13.3333333,5.33333333 Z M16,5.33333333 L16.6666667,4.66666667 L17.3333333,5.33333333 L17.3333333,6.66666667 L16,6.66666667 L16,5.33333333 Z" id="Rectangle-675" stroke="none" fill="#1895DB" fill-rule="evenodd" opacity="0.5" mask="url(#mask-4)"></path>
                        <path d="M12,5.33333333 L12.6666667,4.66666667 L13.3333333,5.33333333 L13.3333333,6.66666667 L12,6.66666667 L12,5.33333333 Z M14.6666667,5.33333333 L15.3333333,4.66666667 L16,5.33333333 L16,6.66666667 L14.6666667,6.66666667 L14.6666667,5.33333333 Z" id="Rectangle-675" stroke="none" fill="#191F94" fill-rule="evenodd" opacity="0.5" mask="url(#mask-4)"></path>
                        <rect id="Rectangle-2" stroke="none" fill="#2027AC" fill-rule="evenodd" mask="url(#mask-4)" x="0" y="13.3333333" width="28" height="6.66666667"></rect>
                        <path d="M13.3333333,8 L13.3333333,6.66666667 L14.6666667,6.66666667 L14.6666667,8 L16,8 L16,9.33333333 L14.6666667,9.33333333 L14.6666667,8 L13.3333333,8 Z M16,6.66666667 L16.6666667,6.66666667 L17.3333333,8 L16,8 L16,6.66666667 Z M13.3333333,8 L13.3333333,9.33333333 L12,9.33333333 L12,8 L13.3333333,8 Z M12,6.66666667 L12,8 L10.6666667,8 L11.3333333,6.66666667 L12,6.66666667 Z M14.6666667,9.33333333 L14.6666667,10.6656667 L16,10.6666667 L16,12 L14.6666667,12 L14.6656667,10.6666667 L13.3333333,10.6666667 L13.3333333,9.33333333 L14.6666667,9.33333333 Z M16,9.33333333 L17.3333333,9.33333333 L17.3333333,10.6666667 L16,10.6666667 L16,9.33333333 Z M12,9.33333333 L12,10.6666667 L13.3333333,10.6666667 L13.3333333,12 L12,12 L12,10.6666667 L10.6666667,10.6666667 L10.6666667,9.33333333 L12,9.33333333 Z M13.3333333,13.3333333 L13.3333333,14.6666667 L12,14.6666667 L12,13.3333333 L13.3333333,13.3333333 Z M12,12 L12,13.3333333 L10.6666667,13.3333333 L10.6666667,12 L12,12 Z M13.3333333,13.3333333 L13.3333333,12 L14.6666667,12 L14.6666667,13.3333333 L16,13.3333333 L16,14.6666667 L14.6666667,14.6666667 L14.6666667,13.3333333 L13.3333333,13.3333333 Z M16,12 L17.3333333,12 L17.3333333,13.3333333 L16,13.3333333 L16,12 Z" id="Rectangle-657" stroke="none" fill="url(#linearGradient-5)" fill-rule="evenodd" mask="url(#mask-4)"></path>
                    </g>
                </g>
            </g>
        </g>
    </g>
</svg>