<?xml version="1.0" encoding="UTF-8"?>
<svg width="20px" height="20px" viewBox="0 0 20 20" version="1.1" xmlns="http://www.w3.org/2000/svg" xmlns:xlink="http://www.w3.org/1999/xlink">
    <title>JE</title>
    <defs>
        <circle id="path-1" cx="9.5" cy="9.5" r="9.5"></circle>
        <rect id="path-3" x="0" y="0" width="28" height="20" rx="2"></rect>
        <path d="M0.666666667,3.83333333 L0.666666667,2.67435201 C0.666666667,1.93372785 1.25688044,1.33333333 1.99860875,1.33333333 L3.33472459,1.33333333 C4.07033588,1.33333333 4.66666667,1.9209166 4.66666667,2.67435201 L4.66666667,3.83333333 C4.66666667,5.61904762 2.66666667,6.33333333 2.66666667,6.33333333 C2.66666667,6.33333333 0.666666667,5.61904762 0.666666667,3.83333333 Z" id="path-5"></path>
    </defs>
    <g id="Welcome" stroke="none" stroke-width="1" fill="none" fill-rule="evenodd">
        <g id="Assets-3---Drapeaux" transform="translate(-187.000000, -469.000000)">
            <g id="JE" transform="translate(187.500000, 469.500000)">
                <mask id="mask-2" fill="white">
                    <use xlink:href="#path-1"></use>
                </mask>
                <use id="Mask" fill="#D8D8D8" xlink:href="#path-1"></use>
                <g mask="url(#mask-2)">
                    <g transform="translate(-5.000000, -0.500000)">
                        <mask id="mask-4" fill="white">
                            <use xlink:href="#path-3"></use>
                        </mask>
                        <rect stroke="#F5F5F5" stroke-width="0.5" x="0.25" y="0.25" width="27.5" height="19.5" rx="2"></rect>
                        <rect id="Rectangle-1278" stroke="none" fill="#E3243B" fill-rule="evenodd" mask="url(#mask-4)" transform="translate(14.659027, 10.473202) rotate(-55.000000) translate(-14.659027, -10.473202) " x="13.3256942" y="-14.1934652" width="2.66666667" height="49.3333333"></rect>
                        <rect id="Rectangle-1278" stroke="none" fill="#E3243B" fill-rule="evenodd" mask="url(#mask-4)" transform="translate(14.659027, 10.473202) scale(-1, 1) rotate(-55.000000) translate(-14.659027, -10.473202) " x="13.3256942" y="-14.1934652" width="2.66666667" height="49.3333333"></rect>
                        <g id="Group" stroke="none" stroke-width="1" fill="none" fill-rule="evenodd" mask="url(#mask-4)">
                            <g transform="translate(12.000000, 1.333333)">
                                <path d="M3.54383226,0 L3.36444772,0.854754367 L4.64028925,0.712295322 L3.65347796,1.28213158 L3.74004409,1.333 L1.59204409,1.333 L1.67985538,1.28213158 L0.693044087,0.712295303 L1.96888566,0.854754367 L1.78950107,0 L2.66666666,0.712295303 L3.54383226,0 Z" id="Star-1" stroke="none" fill="#FAEF32" fill-rule="evenodd"></path>
                                <mask id="mask-6" fill="white">
                                    <use xlink:href="#path-5"></use>
                                </mask>
                                <use id="Mask" stroke="none" fill="#E3243B" fill-rule="evenodd" xlink:href="#path-5"></use>
                                <rect id="Rectangle-1281" stroke="none" fill="#FAEF32" fill-rule="evenodd" mask="url(#mask-6)" x="2.33333333" y="5.33333333" width="1" height="1" rx="0.5"></rect>
                                <rect id="Rectangle-1281" stroke="none" fill="#FAEF32" fill-rule="evenodd" mask="url(#mask-6)" x="1.33333333" y="4" width="2.66666667" height="1" rx="0.5"></rect>
                                <rect id="Rectangle-1281" stroke="none" fill="#FAEF32" fill-rule="evenodd" mask="url(#mask-6)" x="1.33333333" y="2.66666667" width="2.66666667" height="1" rx="0.5"></rect>
                            </g>
                        </g>
                    </g>
                </g>
            </g>
        </g>
    </g>
</svg>