<?xml version="1.0" encoding="UTF-8"?>
<svg width="20px" height="20px" viewBox="0 0 20 20" version="1.1" xmlns="http://www.w3.org/2000/svg" xmlns:xlink="http://www.w3.org/1999/xlink">
    <title>JM</title>
    <defs>
        <circle id="path-1" cx="9.5" cy="9.5" r="9.5"></circle>
        <rect id="path-3" x="0" y="0" width="28" height="20" rx="2"></rect>
    </defs>
    <g id="Welcome" stroke="none" stroke-width="1" fill="none" fill-rule="evenodd">
        <g id="Assets-3---Drapeaux" transform="translate(-43.000000, -469.000000)">
            <g id="JM" transform="translate(43.500000, 469.500000)">
                <mask id="mask-2" fill="white">
                    <use xlink:href="#path-1"></use>
                </mask>
                <use id="Mask" fill="#D8D8D8" xlink:href="#path-1"></use>
                <g mask="url(#mask-2)">
                    <g transform="translate(-4.500000, -0.500000)">
                        <mask id="mask-4" fill="white">
                            <use xlink:href="#path-3"></use>
                        </mask>
                        <use id="Mask" stroke="none" fill="#FFFFFF" fill-rule="evenodd" xlink:href="#path-3"></use>
                        <rect id="Mask-Copy" stroke="none" fill="#1DBE4F" fill-rule="evenodd" mask="url(#mask-4)" x="0" y="0" width="28" height="20"></rect>
                        <polygon id="Rectangle-253" stroke="none" fill="#262626" fill-rule="evenodd" mask="url(#mask-4)" points="0 0 12 10 0 20"></polygon>
                        <polygon id="Rectangle-253" stroke="none" fill="#262626" fill-rule="evenodd" mask="url(#mask-4)" transform="translate(22.000000, 10.000000) scale(-1, 1) translate(-22.000000, -10.000000) " points="16 0 28 10 16 20"></polygon>
                        <path d="M29.2824692,-1.91644623 L30.7736503,0.29432063 L16.3833497,9.99955377 L30.7736503,19.7056794 L29.2824692,21.9164462 L14.0003497,11.6075538 L-1.2824692,21.9164462 L-2.77365027,19.7056794 L11.6163497,9.99955377 L-2.77365027,0.29432063 L-1.2824692,-1.91644623 L14.0003497,8.39155377 L29.2824692,-1.91644623 Z" id="Rectangle-2" stroke="none" fill="#FFD646" fill-rule="evenodd" mask="url(#mask-4)"></path>
                    </g>
                </g>
            </g>
        </g>
    </g>
</svg>