<?xml version="1.0" encoding="UTF-8"?>
<svg width="20px" height="20px" viewBox="0 0 20 20" version="1.1" xmlns="http://www.w3.org/2000/svg" xmlns:xlink="http://www.w3.org/1999/xlink">
    <title>JO</title>
    <defs>
        <circle id="path-1" cx="9.5" cy="9.5" r="9.5"></circle>
        <rect id="path-3" x="0" y="0" width="28" height="20" rx="2"></rect>
    </defs>
    <g id="Welcome" stroke="none" stroke-width="1" fill="none" fill-rule="evenodd">
        <g id="Assets-3---Drapeaux" transform="translate(-91.000000, -469.000000)">
            <g id="JO" transform="translate(91.500000, 469.500000)">
                <mask id="mask-2" fill="white">
                    <use xlink:href="#path-1"></use>
                </mask>
                <use id="Mask" fill="#D8D8D8" xlink:href="#path-1"></use>
                <g mask="url(#mask-2)">
                    <g transform="translate(-1.500000, -0.500000)">
                        <mask id="mask-4" fill="white">
                            <use xlink:href="#path-3"></use>
                        </mask>
                        <rect stroke="#F5F5F5" stroke-width="0.5" x="0.25" y="0.25" width="27.5" height="19.5" rx="2"></rect>
                        <rect id="Rectangle-2" stroke="none" fill="#199E56" fill-rule="evenodd" mask="url(#mask-4)" x="0" y="13.3333333" width="28" height="6.66666667"></rect>
                        <rect id="Rectangle-2" stroke="none" fill="#262626" fill-rule="evenodd" mask="url(#mask-4)" x="0" y="0" width="28" height="6.66666667"></rect>
                        <polygon id="Rectangle-83" stroke="none" fill="#E6223A" fill-rule="evenodd" mask="url(#mask-4)" points="0 0 13.3333333 10 0 20"></polygon>
                        <polygon id="Star-27" stroke="none" fill="#FFFFFF" fill-rule="evenodd" mask="url(#mask-4)" points="4.66666667 11 3.79889919 11.8019377 3.88483518 10.6234898 2.71681084 10.4450419 3.69173875 9.77747907 3.1030037 8.7530204 4.23278293 9.09903113 4.66666667 8 5.10055041 9.09903113 6.23032963 8.7530204 5.64159458 9.77747907 6.61652249 10.4450419 5.44849815 10.6234898 5.53443414 11.8019377"></polygon>
                    </g>
                </g>
            </g>
        </g>
    </g>
</svg>