<?xml version="1.0" encoding="UTF-8"?>
<svg width="20px" height="20px" viewBox="0 0 20 20" version="1.1" xmlns="http://www.w3.org/2000/svg" xmlns:xlink="http://www.w3.org/1999/xlink">
    <title>KP</title>
    <defs>
        <circle id="path-1" cx="9.5" cy="9.5" r="9.5"></circle>
        <rect id="path-3" x="0" y="0" width="28" height="20" rx="2"></rect>
    </defs>
    <g id="Welcome" stroke="none" stroke-width="1" fill="none" fill-rule="evenodd">
        <g id="Assets-3---Drapeaux" transform="translate(-379.000000, -517.000000)">
            <g id="KP" transform="translate(379.500000, 517.500000)">
                <mask id="mask-2" fill="white">
                    <use xlink:href="#path-1"></use>
                </mask>
                <use id="Mask" fill="#D8D8D8" xlink:href="#path-1"></use>
                <g mask="url(#mask-2)">
                    <g transform="translate(-4.500000, -0.500000)">
                        <mask id="mask-4" fill="white">
                            <use xlink:href="#path-3"></use>
                        </mask>
                        <use id="Mask" stroke="none" fill="#FFFFFF" fill-rule="evenodd" xlink:href="#path-3"></use>
                        <rect id="Rectangle-2" stroke="none" fill="#1461B6" fill-rule="evenodd" mask="url(#mask-4)" x="0" y="0" width="28" height="4"></rect>
                        <rect id="Rectangle-2" stroke="none" fill="#1461B6" fill-rule="evenodd" mask="url(#mask-4)" x="0" y="16" width="28" height="4"></rect>
                        <rect id="Rectangle-2" stroke="none" fill="#FFFFFF" fill-rule="evenodd" mask="url(#mask-4)" x="0" y="4" width="28" height="12"></rect>
                        <rect id="Rectangle-2-Copy-4" stroke="none" fill="#F53846" fill-rule="evenodd" mask="url(#mask-4)" x="0" y="5.33333333" width="28" height="9.33333333"></rect>
                        <path d="M10,6.66666667 L9.21379109,8.91787628 L6.82981161,8.96994335 L8.72788727,10.4133345 L8.04071583,12.6967233 L10,11.3375785 L11.9587591,12.6973964 C11.4088845,13.097386 10.7319965,13.3333333 10,13.3333333 C8.15905083,13.3333333 6.66666667,11.8409492 6.66666667,10 C6.66666667,8.15905083 8.15905083,6.66666667 10,6.66666667 L10,6.66666667 Z M10,6.66666667 C11.8409492,6.66666667 13.3333333,8.15905083 13.3333333,10 C13.3333333,11.1085144 12.7922306,12.0906475 11.9597467,12.6966777 L11.2721127,10.4133345 L13.1701884,8.96994335 L10.7862089,8.91787628 Z" id="Oval-12" stroke="none" fill="#FFFFFF" fill-rule="evenodd" mask="url(#mask-4)"></path>
                    </g>
                </g>
            </g>
        </g>
    </g>
</svg>