<?xml version="1.0" encoding="UTF-8"?>
<svg width="20px" height="20px" viewBox="0 0 20 20" version="1.1" xmlns="http://www.w3.org/2000/svg" xmlns:xlink="http://www.w3.org/1999/xlink">
    <title>LR</title>
    <defs>
        <circle id="path-1" cx="9.5" cy="9.5" r="9.5"></circle>
        <rect id="path-3" x="0" y="0" width="28" height="20" rx="2"></rect>
    </defs>
    <g id="Welcome" stroke="none" stroke-width="1" fill="none" fill-rule="evenodd">
        <g id="Assets-3---Drapeaux" transform="translate(-187.000000, -565.000000)">
            <g id="LR" transform="translate(187.500000, 565.500000)">
                <mask id="mask-2" fill="white">
                    <use xlink:href="#path-1"></use>
                </mask>
                <use id="Mask" fill="#D8D8D8" xlink:href="#path-1"></use>
                <g mask="url(#mask-2)">
                    <g transform="translate(-4.500000, -0.500000)">
                        <mask id="mask-4" fill="white">
                            <use xlink:href="#path-3"></use>
                        </mask>
                        <rect stroke="#F5F5F5" stroke-width="0.5" x="0.25" y="0.25" width="27.5" height="19.5" rx="2"></rect>
                        <path d="M13.3333333,0 L28,0 L28,2.66666667 L13.3333333,2.66666667 L13.3333333,0 Z M13.3333333,5.33333333 L28,5.33333333 L28,8 L13.3333333,8 L13.3333333,5.33333333 Z M13.3333333,10.6666667 L28,10.6666667 L28,13.3333333 L13.3333333,13.3333333 L13.3333333,10.6666667 Z M0,16 L28,16 L28,18.6666667 L0,18.6666667 L0,16 Z" id="Rectangle-537" stroke="none" fill="#E1244A" fill-rule="evenodd" mask="url(#mask-4)"></path>
                        <rect id="Rectangle-1568" stroke="none" fill="#0C3F8E" fill-rule="evenodd" mask="url(#mask-4)" x="0" y="0" width="13.3333333" height="13.3333333"></rect>
                        <polygon id="Star-8" stroke="none" fill="#FFFFFF" fill-rule="evenodd" mask="url(#mask-4)" points="6.66666667 8.22666673 4.31552566 9.90273464 5.18301844 7.1487332 2.8624406 5.43059869 5.74972164 5.40460011 6.66666667 2.66666667 7.5836117 5.40460011 10.4708927 5.43059869 8.15031489 7.1487332 9.01780768 9.90273464"></polygon>
                    </g>
                </g>
            </g>
        </g>
    </g>
</svg>