<?xml version="1.0" encoding="UTF-8"?>
<svg width="20px" height="20px" viewBox="0 0 20 20" version="1.1" xmlns="http://www.w3.org/2000/svg" xmlns:xlink="http://www.w3.org/1999/xlink">
    <title>LS</title>
    <defs>
        <circle id="path-1" cx="9.5" cy="9.5" r="9.5"></circle>
        <rect id="path-3" x="0" y="0" width="28" height="20" rx="2"></rect>
    </defs>
    <g id="Welcome" stroke="none" stroke-width="1" fill="none" fill-rule="evenodd">
        <g id="Assets-3---Drapeaux" transform="translate(-283.000000, -565.000000)">
            <g id="LS" transform="translate(283.500000, 565.500000)">
                <mask id="mask-2" fill="white">
                    <use xlink:href="#path-1"></use>
                </mask>
                <use id="Mask" fill="#D8D8D8" xlink:href="#path-1"></use>
                <g mask="url(#mask-2)">
                    <g transform="translate(-4.500000, -0.500000)">
                        <mask id="mask-4" fill="white">
                            <use xlink:href="#path-3"></use>
                        </mask>
                        <rect stroke="#F5F5F5" stroke-width="0.5" x="0.25" y="0.25" width="27.5" height="19.5" rx="2"></rect>
                        <rect id="Rectangle-2" stroke="none" fill="#0C33B8" fill-rule="evenodd" mask="url(#mask-4)" x="0" y="0" width="28" height="6.66666667"></rect>
                        <rect id="Rectangle-2" stroke="none" fill="#1DB158" fill-rule="evenodd" mask="url(#mask-4)" x="0" y="13.3333333" width="28" height="6.66666667"></rect>
                        <path d="M13.3333333,9.99999999 L13.7890625,8.6328125 C13.9055601,8.28331981 14.0926971,8.27809142 14.2109375,8.63281248 L14.6666667,9.99999992 L15.8146057,11.7219086 C15.9169962,11.8754942 15.8901367,12.0926971 15.7416992,12.1964162 C15.7416992,12.1964162 15.3333333,12.6666667 14,12.6666667 C12.6666667,12.6666667 12.2583008,12.1964162 12.2583008,12.1964162 C12.1156452,12.0879385 12.0874837,11.8687744 12.1853943,11.7219086 L13.3333333,9.99999999 Z" id="Rectangle-328" stroke="none" fill="#262626" fill-rule="evenodd" mask="url(#mask-4)"></path>
                        <circle id="Oval-17" stroke="#262626" stroke-width="0.666666667" fill="none" mask="url(#mask-4)" cx="14" cy="8.66666667" r="1"></circle>
                    </g>
                </g>
            </g>
        </g>
    </g>
</svg>