<?xml version="1.0" encoding="UTF-8"?>
<svg width="20px" height="20px" viewBox="0 0 20 20" version="1.1" xmlns="http://www.w3.org/2000/svg" xmlns:xlink="http://www.w3.org/1999/xlink">
    <title>MN</title>
    <defs>
        <circle id="path-1" cx="9.5" cy="9.5" r="9.5"></circle>
        <rect id="path-3" x="0" y="0" width="28" height="20" rx="2"></rect>
        <linearGradient x1="50%" y1="0%" x2="50%" y2="100%" id="linearGradient-5">
            <stop stop-color="#F8D246" offset="0%"></stop>
            <stop stop-color="#F9CE2F" offset="100%"></stop>
        </linearGradient>
    </defs>
    <g id="Welcome" stroke="none" stroke-width="1" fill="none" fill-rule="evenodd">
        <g id="Assets-3---Drapeaux" transform="translate(-379.000000, -613.000000)">
            <g id="MN" transform="translate(379.500000, 613.500000)">
                <mask id="mask-2" fill="white">
                    <use xlink:href="#path-1"></use>
                </mask>
                <use id="Mask" fill="#D8D8D8" xlink:href="#path-1"></use>
                <g mask="url(#mask-2)">
                    <g transform="translate(-4.500000, -0.500000)">
                        <mask id="mask-4" fill="white">
                            <use xlink:href="#path-3"></use>
                        </mask>
                        <use id="Mask" stroke="none" fill="#FFFFFF" fill-rule="evenodd" xlink:href="#path-3"></use>
                        <rect id="Rectangle-2-Copy" stroke="none" fill="#146BBC" fill-rule="evenodd" mask="url(#mask-4)" x="9.33333333" y="0" width="9.33333333" height="20"></rect>
                        <rect id="Rectangle-2" stroke="none" fill="#E43642" fill-rule="evenodd" mask="url(#mask-4)" x="0" y="0" width="9.33333333" height="20"></rect>
                        <rect id="Rectangle-2" stroke="none" fill="#E43642" fill-rule="evenodd" mask="url(#mask-4)" x="18.6666667" y="0" width="9.33333333" height="20"></rect>
                        <path d="M5.33333333,12 L6.66666667,12 L6.66666667,16 L5.33333333,16 L5.33333333,12 Z M4,12 L4,16 L2.66666667,16 L2.66666667,12 L4,12 Z M5.33333333,14.6666667 L4.66666667,16 L4,14.6666667 L5.33333333,14.6666667 Z M4.66666667,13.3333333 C5.0348565,13.3333333 5.33333333,13.6318102 5.33333333,14 C5.33333333,14.3681898 5.0348565,14.6666667 4.66666667,14.6666667 C4.29847683,14.6666667 4,14.3681898 4,14 C4,13.6318102 4.29847683,13.3333333 4.66666667,13.3333333 Z M5.33333333,12 L4.66666667,13.3333333 L4,12 L5.33333333,12 Z M4.66666667,10.6666667 C5.0348565,10.6666667 5.33333333,10.9651435 5.33333333,11.3333333 C5.33333333,11.7015232 5.0348565,12 4.66666667,12 C4.29847683,12 4,11.7015232 4,11.3333333 C4,10.9651435 4.29847683,10.6666667 4.66666667,10.6666667 Z M4.66666667,10 L5.33333333,10.6666667 L4,10.6666667 L4.66666667,10 Z" id="Rectangle-1611" stroke="none" fill="url(#linearGradient-5)" fill-rule="evenodd" mask="url(#mask-4)"></path>
                    </g>
                </g>
            </g>
        </g>
    </g>
</svg>