<?xml version="1.0" encoding="UTF-8"?>
<svg width="20px" height="20px" viewBox="0 0 20 20" version="1.1" xmlns="http://www.w3.org/2000/svg" xmlns:xlink="http://www.w3.org/1999/xlink">
    <title>MV</title>
    <defs>
        <circle id="path-1" cx="9.5" cy="9.5" r="9.5"></circle>
        <rect id="path-3" x="0" y="0" width="28" height="20" rx="2"></rect>
    </defs>
    <g id="Welcome" stroke="none" stroke-width="1" fill="none" fill-rule="evenodd">
        <g id="Assets-3---Drapeaux" transform="translate(-283.000000, -613.000000)">
            <g id="MV" transform="translate(283.500000, 613.500000)">
                <mask id="mask-2" fill="white">
                    <use xlink:href="#path-1"></use>
                </mask>
                <use id="Mask" fill="#D8D8D8" xlink:href="#path-1"></use>
                <g mask="url(#mask-2)">
                    <g transform="translate(-4.500000, -0.500000)">
                        <mask id="mask-4" fill="white">
                            <use xlink:href="#path-3"></use>
                        </mask>
                        <use id="Mask" stroke="none" fill="#FFFFFF" fill-rule="evenodd" xlink:href="#path-3"></use>
                        <rect id="Mask-Copy" stroke="none" fill="#F32249" fill-rule="evenodd" mask="url(#mask-4)" x="0" y="0" width="28" height="20"></rect>
                        <rect id="Rectangle-1568" stroke="none" fill="#15A04F" fill-rule="evenodd" mask="url(#mask-4)" x="4" y="4" width="20" height="12" rx="0.666666667"></rect>
                        <path d="M15.3333333,5.33333333 C15.6764834,5.33333333 16.0109831,5.37037046 16.3330527,5.44066526 C14.2362903,5.89880998 12.6666667,7.76610236 12.6666667,10 C12.6666667,12.2338976 14.2362903,14.10119 16.3328225,14.5591619 C16.0109831,14.6296295 15.6764834,14.6666667 15.3333333,14.6666667 C12.7560045,14.6666667 10.6666667,12.5773288 10.6666667,10 C10.6666667,7.42267117 12.7560045,5.33333333 15.3333333,5.33333333 Z" id="Oval-12" stroke="none" fill="#FFFFFF" fill-rule="evenodd" mask="url(#mask-4)"></path>
                    </g>
                </g>
            </g>
        </g>
    </g>
</svg>