<?xml version="1.0" encoding="UTF-8"?>
<svg width="20px" height="20px" viewBox="0 0 20 20" version="1.1" xmlns="http://www.w3.org/2000/svg" xmlns:xlink="http://www.w3.org/1999/xlink">
    <title>NA</title>
    <defs>
        <circle id="path-1" cx="9.5" cy="9.5" r="9.5"></circle>
        <rect id="path-3" x="0" y="0" width="28" height="20" rx="2"></rect>
    </defs>
    <g id="Welcome" stroke="none" stroke-width="1" fill="none" fill-rule="evenodd">
        <g id="Assets-3---Drapeaux" transform="translate(-43.000000, -661.000000)">
            <g id="NA" transform="translate(43.500000, 661.500000)">
                <mask id="mask-2" fill="white">
                    <use xlink:href="#path-1"></use>
                </mask>
                <use id="Mask" fill="#D8D8D8" xlink:href="#path-1"></use>
                <g mask="url(#mask-2)">
                    <g transform="translate(-0.500000, -0.500000)">
                        <mask id="mask-4" fill="white">
                            <use xlink:href="#path-3"></use>
                        </mask>
                        <use id="Mask" stroke="none" fill="#FFFFFF" fill-rule="evenodd" xlink:href="#path-3"></use>
                        <polygon id="Rectangle-2" stroke="none" fill="#0C4799" fill-rule="evenodd" mask="url(#mask-4)" points="0 13.3333333 28 0 0 0"></polygon>
                        <polygon id="Star-31" stroke="none" fill="#FFD243" fill-rule="evenodd" mask="url(#mask-4)" points="4.66666667 6 3.64617751 7.13034542 3.72385763 5.60947571 2.20298791 5.68715582 3.33333333 4.66666667 2.20298791 3.64617751 3.72385763 3.72385763 3.64617751 2.20298791 4.66666667 3.33333333 5.68715582 2.20298791 5.60947571 3.72385763 7.13034542 3.64617751 6 4.66666667 7.13034542 5.68715582 5.60947571 5.60947571 5.68715582 7.13034542"></polygon>
                        <polygon id="Rectangle-2" stroke="none" fill="#1BAC55" fill-rule="evenodd" mask="url(#mask-4)" points="0 20 28 20 28 6.66666667"></polygon>
                        <polygon id="Rectangle-2" stroke="none" fill="#FFFFFF" fill-rule="evenodd" mask="url(#mask-4)" points="3.08238507 22.6666972 30.1707194 5.74002727 24.9176149 -2.66669718 -2.17071939 14.2599727"></polygon>
                        <polygon id="Rectangle-2" stroke="none" fill="#E52347" fill-rule="evenodd" mask="url(#mask-4)" points="-0.629198978 23.0719328 32.1619941 2.58172121 28.629199 -3.07193276 -4.16199407 17.4182788"></polygon>
                    </g>
                </g>
            </g>
        </g>
    </g>
</svg>