<?xml version="1.0" encoding="UTF-8"?>
<svg width="20px" height="20px" viewBox="0 0 20 20" version="1.1" xmlns="http://www.w3.org/2000/svg" xmlns:xlink="http://www.w3.org/1999/xlink">
    <title>PA</title>
    <defs>
        <circle id="path-1" cx="9.5" cy="9.5" r="9.5"></circle>
        <rect id="path-3" x="0" y="0" width="28" height="20" rx="2"></rect>
    </defs>
    <g id="Welcome" stroke="none" stroke-width="1" fill="none" fill-rule="evenodd">
        <g id="Assets-3---Drapeaux" transform="translate(-91.000000, -757.000000)">
            <g id="PA" transform="translate(91.500000, 757.500000)">
                <mask id="mask-2" fill="white">
                    <use xlink:href="#path-1"></use>
                </mask>
                <use id="Mask" fill="#D8D8D8" xlink:href="#path-1"></use>
                <g mask="url(#mask-2)">
                    <g transform="translate(-4.500000, -0.500000)">
                        <mask id="mask-4" fill="white">
                            <use xlink:href="#path-3"></use>
                        </mask>
                        <rect stroke="#F5F5F5" stroke-width="0.5" x="0.25" y="0.25" width="27.5" height="19.5" rx="2"></rect>
                        <path d="M28,0 L28,9.33333333 L13.3333333,9.33333333 L13.3333333,0 L28,0 Z" id="Combined-Shape" stroke="none" fill="#E52448" fill-rule="evenodd" mask="url(#mask-4)"></path>
                        <path d="M13.3333333,20 L0,20 L0,9.33333333 L13.3333333,9.33333333 L13.3333333,20 Z" id="Combined-Shape" stroke="none" fill="#1367AE" fill-rule="evenodd" mask="url(#mask-4)"></path>
                        <polygon id="Star-33" stroke="none" fill="#1367AE" fill-rule="evenodd" mask="url(#mask-4)" points="6.66666667 5.75999999 5.09923933 6.82404532 5.62684488 5.00452524 4.13051596 3.84262135 6.02402146 3.78214143 6.66666667 2 7.30931187 3.78214143 9.20281738 3.84262135 7.70648845 5.00452524 8.23409401 6.82404532"></polygon>
                        <polygon id="Star-33" stroke="none" fill="#E52448" fill-rule="evenodd" mask="url(#mask-4)" points="20.6666667 15.76 19.0992393 16.8240453 19.6268449 15.0045252 18.130516 13.8426213 20.0240215 13.7821414 20.6666667 12 21.3093119 13.7821414 23.2028174 13.8426213 21.7064884 15.0045252 22.234094 16.8240453"></polygon>
                    </g>
                </g>
            </g>
        </g>
    </g>
</svg>