<?xml version="1.0" encoding="UTF-8"?>
<svg width="20px" height="20px" viewBox="0 0 20 20" version="1.1" xmlns="http://www.w3.org/2000/svg" xmlns:xlink="http://www.w3.org/1999/xlink">
    <title>PT</title>
    <defs>
        <circle id="path-1" cx="9.5" cy="9.5" r="9.5"></circle>
        <rect id="path-3" x="0" y="0" width="28" height="20" rx="2"></rect>
    </defs>
    <g id="Welcome" stroke="none" stroke-width="1" fill="none" fill-rule="evenodd">
        <g id="Assets-3---Drapeaux" transform="translate(-427.000000, -757.000000)">
            <g id="PT" transform="translate(427.500000, 757.500000)">
                <mask id="mask-2" fill="white">
                    <use xlink:href="#path-1"></use>
                </mask>
                <use id="Mask" fill="#D8D8D8" xlink:href="#path-1"></use>
                <g mask="url(#mask-2)">
                    <g transform="translate(-4.500000, -0.500000)">
                        <mask id="mask-4" fill="white">
                            <use xlink:href="#path-3"></use>
                        </mask>
                        <use id="Mask" stroke="none" fill="#FFFFFF" fill-rule="evenodd" xlink:href="#path-3"></use>
                        <rect id="Mask-Copy" stroke="none" fill="#FF2936" fill-rule="evenodd" mask="url(#mask-4)" x="0" y="0" width="28" height="20"></rect>
                        <rect id="Rectangle-2-Copy" stroke="none" fill="#128415" fill-rule="evenodd" mask="url(#mask-4)" x="0" y="0" width="10.6666667" height="20"></rect>
                        <circle id="Oval-1" stroke="#FAF94F" stroke-width="1.33333333" fill="none" mask="url(#mask-4)" cx="10.6666667" cy="10" r="3.33333333"></circle>
                        <path d="M9.33333333,8.34103775 C9.33333333,8.1526878 9.47670492,8 9.66031901,8 L11.6730143,8 C11.8536035,8 12,8.15192032 12,8.34103775 L12,10.6680579 C12,11.4036692 11.4081802,12 10.6666667,12 L10.6666667,12 C9.930287,12 9.33333333,11.4097862 9.33333333,10.6680579 L9.33333333,8.34103775 Z" id="Rectangle-429" stroke="none" fill="#FFFFFF" fill-rule="evenodd" mask="url(#mask-4)"></path>
                        <path d="M10.6666667,10.6666667 C11.0348565,10.6666667 11.3333333,9.70152317 11.3333333,9.33333333 C11.3333333,8.9651435 11.0348565,8.66666667 10.6666667,8.66666667 C10.2984768,8.66666667 10,8.9651435 10,9.33333333 C10,9.70152317 10.2984768,10.6666667 10.6666667,10.6666667 Z" id="Oval-27" stroke="none" fill="#1D50B5" fill-rule="evenodd" mask="url(#mask-4)"></path>
                    </g>
                </g>
            </g>
        </g>
    </g>
</svg>