<?xml version="1.0" encoding="UTF-8"?>
<svg width="20px" height="20px" viewBox="0 0 20 20" version="1.1" xmlns="http://www.w3.org/2000/svg" xmlns:xlink="http://www.w3.org/1999/xlink">
    <title>RS</title>
    <defs>
        <circle id="path-1" cx="9.5" cy="9.5" r="9.5"></circle>
        <rect id="path-3" x="0" y="0" width="28" height="20" rx="2"></rect>
        <path d="M0.666666667,3.33333333 C0.666666667,2.43490389 1.16510518,0.646168698 1.16510518,0.646168698 C1.25801503,0.28929958 1.63398345,0 1.99385198,0 L4.67281469,0 C5.03760906,0 5.40980848,0.285489549 5.50156148,0.641518055 C5.50156148,0.641518055 6,2.41347377 6,3.33333333 C6,4.19329707 5.49812738,6.02596322 5.49812738,6.02596322 C5.40711414,6.37981396 5.14040502,6.89891561 4.88998016,7.16315079 C4.88998016,7.16315079 4.33333333,8 3.33333333,8 C2.33333333,8 1.77668651,7.16315079 1.77668651,7.16315079 C1.53182931,6.88895018 1.25685819,6.37712563 1.16510518,6.016801 C1.16510518,6.016801 0.666666667,4.21472719 0.666666667,3.33333333 Z" id="path-5"></path>
    </defs>
    <g id="Welcome" stroke="none" stroke-width="1" fill="none" fill-rule="evenodd">
        <g id="Assets-3---Drapeaux" transform="translate(-187.000000, -853.000000)">
            <g id="RS" transform="translate(187.500000, 853.500000)">
                <mask id="mask-2" fill="white">
                    <use xlink:href="#path-1"></use>
                </mask>
                <use id="Mask" fill="#D8D8D8" xlink:href="#path-1"></use>
                <g mask="url(#mask-2)">
                    <g transform="translate(-4.500000, -0.500000)">
                        <mask id="mask-4" fill="white">
                            <use xlink:href="#path-3"></use>
                        </mask>
                        <rect stroke="#F5F5F5" stroke-width="0.5" x="0.25" y="0.25" width="27.5" height="19.5" rx="2"></rect>
                        <rect id="Rectangle-2" stroke="none" fill="#17508F" fill-rule="evenodd" mask="url(#mask-4)" x="0" y="6.66666667" width="28" height="6.66666667"></rect>
                        <rect id="Rectangle-2" stroke="none" fill="#E1444D" fill-rule="evenodd" mask="url(#mask-4)" x="0" y="0" width="28" height="6.66666667"></rect>
                        <g id="Rectangle-1668" stroke="none" stroke-width="1" fill="none" fill-rule="evenodd" mask="url(#mask-4)">
                            <g transform="translate(5.333333, 6.666667)">
                                <mask id="mask-6" fill="white">
                                    <use xlink:href="#path-5"></use>
                                </mask>
                                <use id="Mask" stroke="none" fill="#FFFFFF" fill-rule="evenodd" xlink:href="#path-5"></use>
                                <line x1="6" y1="0.666666667" x2="0.666666667" y2="7.33333333" id="Line" stroke="#E1444D" stroke-width="1.33333333" fill="none" stroke-linecap="square" mask="url(#mask-6)"></line>
                                <line x1="6" y1="0.666666667" x2="0.666666667" y2="7.33333333" id="Line" stroke="#E1444D" stroke-width="1.33333333" fill="none" stroke-linecap="square" mask="url(#mask-6)" transform="translate(3.333333, 4.000000) scale(-1, 1) translate(-3.333333, -4.000000) "></line>
                            </g>
                        </g>
                    </g>
                </g>
            </g>
        </g>
    </g>
</svg>