<?xml version="1.0" encoding="UTF-8"?>
<svg width="20px" height="20px" viewBox="0 0 20 20" version="1.1" xmlns="http://www.w3.org/2000/svg" xmlns:xlink="http://www.w3.org/1999/xlink">
    <title>SC</title>
    <defs>
        <circle id="path-1" cx="9.5" cy="9.5" r="9.5"></circle>
        <rect id="path-3" x="0" y="0" width="28" height="20" rx="2"></rect>
        <linearGradient x1="50%" y1="0%" x2="50%" y2="100%" id="linearGradient-5">
            <stop stop-color="#1DBE4F" offset="0%"></stop>
            <stop stop-color="#159B3F" offset="100%"></stop>
        </linearGradient>
    </defs>
    <g id="Welcome" stroke="none" stroke-width="1" fill="none" fill-rule="evenodd">
        <g id="Assets-3---Drapeaux" transform="translate(-667.000000, -901.000000)">
            <g id="SC" transform="translate(667.500000, 901.500000)">
                <mask id="mask-2" fill="white">
                    <use xlink:href="#path-1"></use>
                </mask>
                <use id="Mask" fill="#D8D8D8" xlink:href="#path-1"></use>
                <g mask="url(#mask-2)">
                    <g transform="translate(-0.500000, -0.500000)">
                        <mask id="mask-4" fill="white">
                            <use xlink:href="#path-3"></use>
                        </mask>
                        <rect stroke="#F5F5F5" stroke-width="0.5" x="0.25" y="0.25" width="27.5" height="19.5" rx="2"></rect>
                        <path d="M28,20 L0,20 L0,0 L28,0 L28,6.66666667 L0,20 L28,13.3333333 L28,20 Z" id="Combined-Shape" stroke="none" fill="url(#linearGradient-5)" fill-rule="evenodd" mask="url(#mask-4)"></path>
                        <polygon id="Rectangle-253" stroke="none" fill="#0858B4" fill-rule="evenodd" mask="url(#mask-4)" points="0 0 9.33333333 0 0 20"></polygon>
                        <polygon id="Rectangle-253" stroke="none" fill="#ED3535" fill-rule="evenodd" mask="url(#mask-4)" points="18.6666667 0 28 0 28 6.66666667 0 20"></polygon>
                        <polygon id="Rectangle-253" stroke="none" fill="#08964F" fill-rule="evenodd" mask="url(#mask-4)" points="28 20 28 13.3333333 0 20"></polygon>
                        <polygon id="Rectangle-253" stroke="none" fill="#FFDD67" fill-rule="evenodd" mask="url(#mask-4)" points="9.33333333 0 18.6666667 0 0 20"></polygon>
                    </g>
                </g>
            </g>
        </g>
    </g>
</svg>