<?xml version="1.0" encoding="UTF-8"?>
<svg width="20px" height="20px" viewBox="0 0 20 20" version="1.1" xmlns="http://www.w3.org/2000/svg" xmlns:xlink="http://www.w3.org/1999/xlink">
    <title>SG</title>
    <defs>
        <circle id="path-1" cx="9.5" cy="9.5" r="9.5"></circle>
        <rect id="path-3" x="0" y="0" width="28" height="20" rx="2"></rect>
    </defs>
    <g id="Welcome" stroke="none" stroke-width="1" fill="none" fill-rule="evenodd">
        <g id="Assets-3---Drapeaux" transform="translate(-91.000000, -901.000000)">
            <g id="SG" transform="translate(91.500000, 901.500000)">
                <mask id="mask-2" fill="white">
                    <use xlink:href="#path-1"></use>
                </mask>
                <use id="Mask" fill="#D8D8D8" xlink:href="#path-1"></use>
                <g mask="url(#mask-2)">
                    <g transform="translate(-0.500000, -0.500000)">
                        <mask id="mask-4" fill="white">
                            <use xlink:href="#path-3"></use>
                        </mask>
                        <rect stroke="#F5F5F5" stroke-width="0.5" x="0.25" y="0.25" width="27.5" height="19.5" rx="2"></rect>
                        <rect id="Rectangle-2" stroke="none" fill="#E12237" fill-rule="evenodd" mask="url(#mask-4)" x="0" y="0" width="28" height="10.6666667"></rect>
                        <path d="M6.66666667,1.33333333 C7.61178022,1.33333333 8.48033641,1.66111433 9.16485679,2.20919786 C8.80218128,2.07392284 8.40972344,2 8,2 C6.15905083,2 4.66666667,3.49238417 4.66666667,5.33333333 C4.66666667,7.1742825 6.15905083,8.66666667 8,8.66666667 C8.40972344,8.66666667 8.80218128,8.59274382 9.16476382,8.45750783 C8.48033641,9.00555234 7.61178022,9.33333333 6.66666667,9.33333333 C4.45752767,9.33333333 2.66666667,7.54247233 2.66666667,5.33333333 C2.66666667,3.12419433 4.45752767,1.33333333 6.66666667,1.33333333 Z M8.66666667,6.66666667 C9.0348565,6.66666667 9.33333333,6.9651435 9.33333333,7.33333333 C9.33333333,7.70152317 9.0348565,8 8.66666667,8 C8.29847683,8 8,7.70152317 8,7.33333333 C8,6.9651435 8.29847683,6.66666667 8.66666667,6.66666667 Z M11.3333333,6.66666667 C11.7015232,6.66666667 12,6.9651435 12,7.33333333 C12,7.70152317 11.7015232,8 11.3333333,8 C10.9651435,8 10.6666667,7.70152317 10.6666667,7.33333333 C10.6666667,6.9651435 10.9651435,6.66666667 11.3333333,6.66666667 Z M7.33333333,4 C7.70152317,4 8,4.29847683 8,4.66666667 C8,5.0348565 7.70152317,5.33333333 7.33333333,5.33333333 C6.9651435,5.33333333 6.66666667,5.0348565 6.66666667,4.66666667 C6.66666667,4.29847683 6.9651435,4 7.33333333,4 Z M12.6666667,4 C13.0348565,4 13.3333333,4.29847683 13.3333333,4.66666667 C13.3333333,5.0348565 13.0348565,5.33333333 12.6666667,5.33333333 C12.2984768,5.33333333 12,5.0348565 12,4.66666667 C12,4.29847683 12.2984768,4 12.6666667,4 Z M10,2 C10.3681898,2 10.6666667,2.29847683 10.6666667,2.66666667 C10.6666667,3.0348565 10.3681898,3.33333333 10,3.33333333 C9.63181017,3.33333333 9.33333333,3.0348565 9.33333333,2.66666667 C9.33333333,2.29847683 9.63181017,2 10,2 Z" id="Oval-12" stroke="none" fill="#FFFFFF" fill-rule="evenodd" mask="url(#mask-4)"></path>
                    </g>
                </g>
            </g>
        </g>
    </g>
</svg>