<?xml version="1.0" encoding="UTF-8"?>
<svg width="20px" height="20px" viewBox="0 0 20 20" version="1.1" xmlns="http://www.w3.org/2000/svg" xmlns:xlink="http://www.w3.org/1999/xlink">
    <title>ST</title>
    <defs>
        <circle id="path-1" cx="9.5" cy="9.5" r="9.5"></circle>
        <rect id="path-3" x="0" y="0" width="28" height="20" rx="2"></rect>
    </defs>
    <g id="Welcome" stroke="none" stroke-width="1" fill="none" fill-rule="evenodd">
        <g id="Assets-3---Drapeaux" transform="translate(-331.000000, -901.000000)">
            <g id="ST" transform="translate(331.500000, 901.500000)">
                <mask id="mask-2" fill="white">
                    <use xlink:href="#path-1"></use>
                </mask>
                <use id="Mask" fill="#D8D8D8" xlink:href="#path-1"></use>
                <g mask="url(#mask-2)">
                    <g transform="translate(-4.500000, -0.500000)">
                        <mask id="mask-4" fill="white">
                            <use xlink:href="#path-3"></use>
                        </mask>
                        <use id="Mask" stroke="none" fill="#FFFFFF" fill-rule="evenodd" xlink:href="#path-3"></use>
                        <rect id="Rectangle-2" stroke="none" fill="#2ACB41" fill-rule="evenodd" mask="url(#mask-4)" x="0" y="13.3333333" width="28" height="6.66666667"></rect>
                        <rect id="Rectangle-2" stroke="none" fill="#2ACB41" fill-rule="evenodd" mask="url(#mask-4)" x="0" y="0" width="28" height="6.66666667"></rect>
                        <rect id="Rectangle-2" stroke="none" fill="#FDD043" fill-rule="evenodd" mask="url(#mask-4)" x="0" y="6.66666667" width="28" height="6.66666667"></rect>
                        <polygon id="Rectangle-83" stroke="none" fill="#E71E43" fill-rule="evenodd" mask="url(#mask-4)" points="0 0 10.6666667 10 0 20"></polygon>
                        <polygon id="Star-33" stroke="none" fill="#262626" fill-rule="evenodd" mask="url(#mask-4)" points="14.6666667 11.0933333 13.0992393 12.1573787 13.6268449 10.3378586 12.130516 9.17595468 14.0240215 9.11547476 14.6666667 7.33333333 15.3093119 9.11547476 17.2028174 9.17595468 15.7064884 10.3378586 16.234094 12.1573787"></polygon>
                        <polygon id="Star-33" stroke="none" fill="#262626" fill-rule="evenodd" mask="url(#mask-4)" points="21.3333333 11.0933333 19.765906 12.1573787 20.2935116 10.3378586 18.7971826 9.17595468 20.6906881 9.11547476 21.3333333 7.33333333 21.9759785 9.11547476 23.869484 9.17595468 22.3731551 10.3378586 22.9007607 12.1573787"></polygon>
                    </g>
                </g>
            </g>
        </g>
    </g>
</svg>