<?xml version="1.0" encoding="UTF-8"?>
<svg width="20px" height="20px" viewBox="0 0 20 20" version="1.1" xmlns="http://www.w3.org/2000/svg" xmlns:xlink="http://www.w3.org/1999/xlink">
    <title>SV</title>
    <defs>
        <circle id="path-1" cx="9.5" cy="9.5" r="9.5"></circle>
        <rect id="path-3" x="0" y="0" width="28" height="20" rx="2"></rect>
        <linearGradient x1="50%" y1="0%" x2="50%" y2="100%" id="linearGradient-5">
            <stop stop-color="#3C7839" offset="0%"></stop>
            <stop stop-color="#31642E" offset="100%"></stop>
        </linearGradient>
    </defs>
    <g id="Welcome" stroke="none" stroke-width="1" fill="none" fill-rule="evenodd">
        <g id="Assets-3---Drapeaux" transform="translate(-187.000000, -229.000000)">
            <g id="SV" transform="translate(187.500000, 229.500000)">
                <mask id="mask-2" fill="white">
                    <use xlink:href="#path-1"></use>
                </mask>
                <use id="Mask" fill="#D8D8D8" xlink:href="#path-1"></use>
                <g mask="url(#mask-2)">
                    <g transform="translate(-4.500000, -0.500000)">
                        <mask id="mask-4" fill="white">
                            <use xlink:href="#path-3"></use>
                        </mask>
                        <rect stroke="#F5F5F5" stroke-width="0.5" x="0.25" y="0.25" width="27.5" height="19.5" rx="2"></rect>
                        <rect id="Rectangle-2" stroke="none" fill="#1B57C4" fill-rule="evenodd" mask="url(#mask-4)" x="0" y="0" width="28" height="6.66666667"></rect>
                        <rect id="Rectangle-2" stroke="none" fill="#1B57C4" fill-rule="evenodd" mask="url(#mask-4)" x="0" y="13.3333333" width="28" height="6.66666667"></rect>
                        <path d="M15.6006443,7.86695547 C16.2479827,8.35349516 16.6666667,9.12785314 16.6666667,10 C16.6666667,11.4727593 15.4727593,12.6666667 14,12.6666667 C12.5272407,12.6666667 11.3333333,11.4727593 11.3333333,10 C11.3333333,9.12803013 11.7518473,8.35380945 12.3989616,7.86725172 L13.3333333,10.6666667 L14.6666667,10.6666667 Z" id="Oval-12" stroke="none" fill="url(#linearGradient-5)" fill-rule="evenodd" mask="url(#mask-4)"></path>
                        <polygon id="Rectangle-483" stroke="none" fill="#F9C92E" fill-rule="evenodd" mask="url(#mask-4)" points="14 7.33333333 14.6666667 10.6666667 13.3333333 10.6666667"></polygon>
                    </g>
                </g>
            </g>
        </g>
    </g>
</svg>