<?xml version="1.0" encoding="UTF-8"?>
<svg width="20px" height="20px" viewBox="0 0 20 20" version="1.1" xmlns="http://www.w3.org/2000/svg" xmlns:xlink="http://www.w3.org/1999/xlink">
    <title>TC</title>
    <defs>
        <circle id="path-1" cx="9.5" cy="9.5" r="9.5"></circle>
        <rect id="path-3" x="0" y="0" width="28" height="20" rx="2"></rect>
        <path d="M0,4.66666667 L3.43775544e-17,1.33245595 C1.53913554e-17,0.59656085 0.591622194,0 1.33307666,0 L5.33359001,0 C6.06982792,0 6.66666667,0.587946256 6.66666667,1.33245595 L6.66666667,4.66666667 C6.66666667,8 3.33333333,9.33333333 3.33333333,9.33333333 C3.33333333,9.33333333 0,8 0,4.66666667 Z" id="path-5"></path>
    </defs>
    <g id="Welcome" stroke="none" stroke-width="1" fill="none" fill-rule="evenodd">
        <g id="Assets-3---Drapeaux" transform="translate(-619.000000, -949.000000)">
            <g id="TC" transform="translate(619.500000, 949.500000)">
                <mask id="mask-2" fill="white">
                    <use xlink:href="#path-1"></use>
                </mask>
                <use id="Mask" fill="#D8D8D8" xlink:href="#path-1"></use>
                <g mask="url(#mask-2)">
                    <g transform="translate(-4.500000, -0.500000)">
                        <mask id="mask-4" fill="white">
                            <use xlink:href="#path-3"></use>
                        </mask>
                        <use id="Mask" stroke="none" fill="#FFFFFF" fill-rule="evenodd" xlink:href="#path-3"></use>
                        <rect id="Mask-Copy" stroke="none" fill="#07319C" fill-rule="evenodd" mask="url(#mask-4)" x="0" y="0" width="28" height="20"></rect>
                        <g id="Rectangle-1105" stroke="none" stroke-width="1" fill="none" fill-rule="evenodd" mask="url(#mask-4)">
                            <g transform="translate(17.333333, 5.333333)">
                                <mask id="mask-6" fill="white">
                                    <use xlink:href="#path-5"></use>
                                </mask>
                                <path stroke="#FFFFFF" stroke-width="0.666666667" d="M5.33359001,0.333333333 C5.61054974,0.333333333 5.86148388,0.443786359 6.04267348,0.624891597 C6.22269445,0.80482874 6.33333333,1.05422386 6.33333333,1.33245595 L6.33333333,1.33245595 L6.33333333,4.66666667 C6.33333333,7.41140982 3.91524477,8.69921267 3.33396251,8.96908575 C2.97350592,8.80000858 1.89814628,8.23206458 1.13544202,7.16427863 C0.677164597,6.52269023 0.333333333,5.69782042 0.333333333,4.66666667 L0.333333333,4.66666667 L0.333333333,1.33245595 C0.333333333,1.05604555 0.444382524,0.805696778 0.62541511,0.624748484 C0.805827813,0.444419784 1.05556322,0.333333333 1.33307666,0.333333333 L1.33307666,0.333333333 Z"></path>
                                <ellipse id="Oval-193" stroke="none" fill="#BA5B1F" fill-rule="evenodd" mask="url(#mask-6)" cx="4.66666667" cy="2.66666667" rx="1" ry="1.33333333"></ellipse>
                                <ellipse id="Oval-193" stroke="none" fill="#FF9F3E" fill-rule="evenodd" mask="url(#mask-6)" transform="translate(1.749155, 2.706872) rotate(-20.000000) translate(-1.749155, -2.706872) " cx="1.74915527" cy="2.70687159" rx="1" ry="1.33333333"></ellipse>
                                <ellipse id="Oval-193" stroke="none" fill="#FF937F" fill-rule="evenodd" mask="url(#mask-6)" transform="translate(2.281746, 2.729128) rotate(25.000000) translate(-2.281746, -2.729128) " cx="2.28174551" cy="2.72912814" rx="1" ry="1.33333333"></ellipse>
                                <polygon id="Rectangle-1188" stroke="none" fill="#01A827" fill-rule="evenodd" mask="url(#mask-6)" points="2.66666667 5.33333333 3.33333333 4 4 5.33333333 4 6.66666667 2.66666667 6.66666667"></polygon>
                            </g>
                        </g>
                        <path d="M12.2968145,-0.578591639 C12.4289261,0.574083174 12.1796848,0.947954902 11.9158002,1.1364439 L11.9158002,1.1364439 L7.66666667,4.1715393 L7.66666667,5.18002169 L15.1566841,11.6000366 L6.57256028,6.33333333 L5.42893208,6.33333333 L-0.333333333,9.93474921 L-0.333333333,8.49512737 L4.33333333,5.16179403 L4.33333333,4.15331164 L-0.901085803,-0.333333333 L0.773488351,-0.333333333 L5.44015502,3 L6.57106792,3 Z" id="Rectangle-36" stroke="#FFFFFF" stroke-width="0.666666667" fill="#DB1E36" fill-rule="evenodd" mask="url(#mask-4)"></path>
                        <path d="M0,3.33333333 L0,6 L4.66666667,6 L4.66666667,9.33948135 C4.66666667,9.70427573 4.97256724,10 5.33957926,10 L6.66042074,10 C7.0320601,10 7.33333333,9.69934988 7.33333333,9.33948135 L7.33333333,6 L11.9911963,6 C12.3642483,6 12.6666667,5.69409943 12.6666667,5.3270874 L12.6666667,4.00624593 C12.6666667,3.63460657 12.3646425,3.33333333 11.9911963,3.33333333 L7.33333333,3.33333333 L7.33333333,0 L4.66666667,0 L4.66666667,3.33333333 L0,3.33333333 Z" id="Rectangle-2" stroke="none" fill="#FFFFFF" fill-rule="evenodd" mask="url(#mask-4)"></path>
                        <polygon id="Rectangle-36" stroke="none" fill="#DB1E36" fill-rule="evenodd" mask="url(#mask-4)" points="0 4 5.33333333 4 5.33333333 3.33333333 5.33333333 0 6.66666667 0 6.66666667 3.33333333 6.66666667 4 12 4 12 5.33333333 6.66666667 5.33333333 6.66666667 6 6.66666667 9.33333333 5.33333333 9.33333333 5.33333333 6 5.33333333 5.33333333 0 5.33333333"></polygon>
                    </g>
                </g>
            </g>
        </g>
    </g>
</svg>