<?xml version="1.0" encoding="UTF-8"?>
<svg width="20px" height="20px" viewBox="0 0 20 20" version="1.1" xmlns="http://www.w3.org/2000/svg" xmlns:xlink="http://www.w3.org/1999/xlink">
    <title>TG</title>
    <defs>
        <circle id="path-1" cx="9.5" cy="9.5" r="9.5"></circle>
        <rect id="path-3" x="0" y="0" width="28" height="20" rx="2"></rect>
    </defs>
    <g id="Welcome" stroke="none" stroke-width="1" fill="none" fill-rule="evenodd">
        <g id="Assets-3---Drapeaux" transform="translate(-283.000000, -949.000000)">
            <g id="TG" transform="translate(283.500000, 949.500000)">
                <mask id="mask-2" fill="white">
                    <use xlink:href="#path-1"></use>
                </mask>
                <use id="Mask" fill="#D8D8D8" xlink:href="#path-1"></use>
                <g mask="url(#mask-2)">
                    <g transform="translate(-0.500000, -0.500000)">
                        <mask id="mask-4" fill="white">
                            <use xlink:href="#path-3"></use>
                        </mask>
                        <use id="Mask" stroke="none" fill="#FFFFFF" fill-rule="evenodd" xlink:href="#path-3"></use>
                        <rect id="Mask-Copy" stroke="none" fill="#FFD44D" fill-rule="evenodd" mask="url(#mask-4)" x="0" y="0" width="28" height="20"></rect>
                        <path d="M12,0 L28,0 L28,4 L12,4 L12,0 Z M12,8 L28,8 L28,12 L12,12 L12,8 Z M0,16 L28,16 L28,20 L0,20 L0,16 Z" id="Rectangle-537" stroke="none" fill="#159A74" fill-rule="evenodd" mask="url(#mask-4)"></path>
                        <rect id="Rectangle-1568" stroke="none" fill="#ED1F45" fill-rule="evenodd" mask="url(#mask-4)" x="0" y="0" width="12" height="12"></rect>
                        <polygon id="Star-8" stroke="none" fill="#FFFFFF" fill-rule="evenodd" mask="url(#mask-4)" points="6 7.56000006 3.64885899 9.23606798 4.51635178 6.48206653 2.19577393 4.76393202 5.08305497 4.73793344 6 2 6.91694503 4.73793344 9.80422607 4.76393202 7.48364822 6.48206653 8.35114101 9.23606798"></polygon>
                    </g>
                </g>
            </g>
        </g>
    </g>
</svg>