<?xml version="1.0" encoding="UTF-8"?>
<svg width="20px" height="20px" viewBox="0 0 20 20" version="1.1" xmlns="http://www.w3.org/2000/svg" xmlns:xlink="http://www.w3.org/1999/xlink">
    <title>VG</title>
    <defs>
        <circle id="path-1" cx="9.5" cy="9.5" r="9.5"></circle>
        <rect id="path-3" x="0" y="0" width="28" height="20" rx="2"></rect>
        <path d="M0,4.66666667 L3.43775544e-17,1.33245595 C1.53913554e-17,0.59656085 0.591622194,0 1.33307666,0 L5.33359001,0 C6.06982792,0 6.66666667,0.587946256 6.66666667,1.33245595 L6.66666667,4.66666667 C6.66666667,8 3.33333333,9.33333333 3.33333333,9.33333333 C3.33333333,9.33333333 0,8 0,4.66666667 Z" id="path-5"></path>
    </defs>
    <g id="Welcome" stroke="none" stroke-width="1" fill="none" fill-rule="evenodd">
        <g id="Assets-3---Drapeaux" transform="translate(-235.000000, -1045.000000)">
            <g id="VG" transform="translate(235.500000, 1045.500000)">
                <mask id="mask-2" fill="white">
                    <use xlink:href="#path-1"></use>
                </mask>
                <use id="Mask" fill="#D8D8D8" xlink:href="#path-1"></use>
                <g mask="url(#mask-2)">
                    <g transform="translate(-4.500000, -0.500000)">
                        <mask id="mask-4" fill="white">
                            <use xlink:href="#path-3"></use>
                        </mask>
                        <use id="Mask" stroke="none" fill="#FFFFFF" fill-rule="evenodd" xlink:href="#path-3"></use>
                        <rect id="Mask-Copy" stroke="none" fill="#07319C" fill-rule="evenodd" mask="url(#mask-4)" x="0" y="0" width="28" height="20"></rect>
                        <g id="Rectangle-1105" stroke="none" stroke-width="1" fill="none" fill-rule="evenodd" mask="url(#mask-4)">
                            <g transform="translate(17.333333, 5.333333)">
                                <mask id="mask-6" fill="white">
                                    <use xlink:href="#path-5"></use>
                                </mask>
                                <use id="Mask" stroke="none" fill="#008339" fill-rule="evenodd" xlink:href="#path-5"></use>
                                <path d="M2,2.66666667 C2.36818983,2.66666667 2.66666667,2.9651435 2.66666667,3.33333333 C2.66666667,3.70152317 2.36818983,4 2,4 C1.63181017,4 1.33333333,3.70152317 1.33333333,3.33333333 C1.33333333,2.9651435 1.63181017,2.66666667 2,2.66666667 Z M2,1.33333333 C2.36818983,1.33333333 2.66666667,1.63181017 2.66666667,2 C2.66666667,2.36818983 2.36818983,2.66666667 2,2.66666667 C1.63181017,2.66666667 1.33333333,2.36818983 1.33333333,2 C1.33333333,1.63181017 1.63181017,1.33333333 2,1.33333333 Z M2,4 C2.36818983,4 2.66666667,4.29847683 2.66666667,4.66666667 C2.66666667,5.0348565 2.36818983,5.33333333 2,5.33333333 C2.37146977,5.33662445 2.66666667,5.63383876 2.66666667,6 C2.66666667,6.36818983 2.36818983,6.66666667 2,6.66666667 C1.63181017,6.66666667 1.33333333,6.36818983 1.33333333,6 C1.33333333,5.63181017 1.63181017,5.33333333 2,5.33333333 C1.62849685,5.33000861 1.33333333,5.03280721 1.33333333,4.66666667 C1.33333333,4.29847683 1.63181017,4 2,4 Z M4.66666667,4 C5.0348565,4 5.33333333,4.29847683 5.33333333,4.66666667 C5.33333333,5.0348565 5.0348565,5.33333333 4.66666667,5.33333333 C5.03816982,5.33665806 5.33333333,5.63385946 5.33333333,6 C5.33333333,6.36818983 5.0348565,6.66666667 4.66666667,6.66666667 C4.29847683,6.66666667 4,6.36818983 4,6 C4,5.63181017 4.29847683,5.33333333 4.66666667,5.33333333 C4.29519689,5.33004222 4,5.03282791 4,4.66666667 C4,4.29847683 4.29847683,4 4.66666667,4 Z M4.66666667,2.66666667 L4.76518178,2.67389505 C5.08665826,2.72151132 5.33333333,2.9986153 5.33333333,3.33333333 C5.33333333,3.70152317 5.0348565,4 4.66666667,4 C4.29847683,4 4,3.70152317 4,3.33333333 C4,2.9651435 4.29847683,2.66666667 4.66666667,2.66666667 L4.66666667,2.66666667 Z M4.66666667,1.33333333 C5.0348565,1.33333333 5.33333333,1.63181017 5.33333333,2 C5.33333333,2.36818983 5.0348565,2.66666667 4.66666667,2.66666667 C4.29847683,2.66666667 4,2.36818983 4,2 C4,1.63181017 4.29847683,1.33333333 4.66666667,1.33333333 Z" id="Oval-197" stroke="none" fill="#FFD033" fill-rule="evenodd" mask="url(#mask-6)"></path>
                                <ellipse id="Oval-193" stroke="none" fill="#FFFFFF" fill-rule="evenodd" mask="url(#mask-6)" cx="3.33333333" cy="4" rx="1" ry="2"></ellipse>
                            </g>
                        </g>
                        <path d="M16.6666667,13.3333333 C16.6666667,14.6048534 18.4878665,15.3333333 20.6666667,15.3333333 C22.8454669,15.3333333 24.6666667,14.6048534 24.6666667,13.3333333 C24.6666667,12.9651435 24.3681898,12.6666667 24,12.6666667 C23.6318102,12.6666667 23.3333333,12.9651435 23.3333333,13.3333333 C23.3333333,13.3460798 23.171739,13.4989005 22.7760955,13.6571579 C22.2390168,13.8719894 21.4823891,14 20.6666667,14 C19.8509442,14 19.0943165,13.8719894 18.5572378,13.6571579 C18.1615943,13.4989005 18,13.3460798 18,13.3333333 C18,12.9651435 17.7015232,12.6666667 17.3333333,12.6666667 C16.9651435,12.6666667 16.6666667,12.9651435 16.6666667,13.3333333 L16.6666667,13.3333333 Z" id="Shape" stroke="none" fill="#FFD033" fill-rule="nonzero" mask="url(#mask-4)"></path>
                        <path d="M12.2968145,-0.578591639 C12.4289261,0.574083174 12.1796848,0.947954902 11.9158002,1.1364439 L11.9158002,1.1364439 L7.66666667,4.1715393 L7.66666667,5.18002169 L15.1566841,11.6000366 L6.57256028,6.33333333 L5.42893208,6.33333333 L-0.333333333,9.93474921 L-0.333333333,8.49512737 L4.33333333,5.16179403 L4.33333333,4.15331164 L-0.901085803,-0.333333333 L0.773488351,-0.333333333 L5.44015502,3 L6.57106792,3 Z" id="Rectangle-36" stroke="#FFFFFF" stroke-width="0.666666667" fill="#DB1E36" fill-rule="evenodd" mask="url(#mask-4)"></path>
                        <path d="M0,3.33333333 L0,6 L4.66666667,6 L4.66666667,9.33948135 C4.66666667,9.70427573 4.97256724,10 5.33957926,10 L6.66042074,10 C7.0320601,10 7.33333333,9.69934988 7.33333333,9.33948135 L7.33333333,6 L11.9911963,6 C12.3642483,6 12.6666667,5.69409943 12.6666667,5.3270874 L12.6666667,4.00624593 C12.6666667,3.63460657 12.3646425,3.33333333 11.9911963,3.33333333 L7.33333333,3.33333333 L7.33333333,0 L4.66666667,0 L4.66666667,3.33333333 L0,3.33333333 Z" id="Rectangle-2" stroke="none" fill="#FFFFFF" fill-rule="evenodd" mask="url(#mask-4)"></path>
                        <polygon id="Rectangle-36" stroke="none" fill="#DB1E36" fill-rule="evenodd" mask="url(#mask-4)" points="0 4 5.33333333 4 5.33333333 3.33333333 5.33333333 0 6.66666667 0 6.66666667 3.33333333 6.66666667 4 12 4 12 5.33333333 6.66666667 5.33333333 6.66666667 6 6.66666667 9.33333333 5.33333333 9.33333333 5.33333333 6 5.33333333 5.33333333 0 5.33333333"></polygon>
                    </g>
                </g>
            </g>
        </g>
    </g>
</svg>