<?xml version="1.0" encoding="UTF-8"?>
<svg width="27px" height="28px" viewBox="0 0 27 28" version="1.1" xmlns="http://www.w3.org/2000/svg" xmlns:xlink="http://www.w3.org/1999/xlink">
    <title>57123C34-8254-4A88-A561-B566ED725FB0</title>
    <g id="Welcome" stroke="none" stroke-width="1" fill="none" fill-rule="evenodd">
        <g id="Boutique-/-Présentoire-/-Voir_Produit" transform="translate(-690.000000, -539.000000)">
            <g id="Group-3" transform="translate(247.000000, 137.500000)">
                <g id="Icons/Comparer" transform="translate(443.000000, 402.000000)">
                    <circle id="Cercle-de-survole-icone-Copy" fill="#FFFFFF" cx="13.5" cy="13.5" r="12.6"></circle>
                    <path d="M23.0459766,3.95402344 C20.4961113,1.40426367 17.1059766,0 13.5,0 C9.89402344,0 6.50388867,1.40426367 3.95402344,3.95402344 C1.40426367,6.50388867 0,9.89402344 0,13.5 C0,17.1059766 1.40426367,20.4961113 3.95402344,23.0459766 C6.50388867,25.5957363 9.89402344,27 13.5,27 C17.1059766,27 20.4961113,25.5957363 23.0459766,23.0459766 C25.5957363,20.4961113 27,17.1059766 27,13.5 C27,9.89402344 25.5957363,6.50388867 23.0459766,3.95402344 Z M13.5,25.4179688 C6.92840039,25.4179688 1.58203125,20.0715996 1.58203125,13.5 C1.58203125,6.92840039 6.92840039,1.58203125 13.5,1.58203125 C20.0715996,1.58203125 25.4179688,6.92840039 25.4179688,13.5 C25.4179688,20.0715996 20.0715996,25.4179688 13.5,25.4179688 Z" id="Combined-Shape" fill="#1A7EF5" fill-rule="nonzero"></path>
                    <path d="M17.6791459,17.2675 L17.6791459,14.239375 L19.3194676,14.239375 L19.3194676,18.74625 L9.32016084,18.74625 L9.32016084,21 L6,18.006875 L9.32016084,15.01375 L9.32016084,17.2675 L17.6784526,17.268125 L17.6791459,17.2675 Z M9.32085413,9.7325 L9.32085413,12.760625 L7.68053245,12.760625 L7.68053245,8.25375 L17.6798392,8.25375 L17.6798392,6 L21,8.993125 L17.6798392,11.98625 L17.6798392,9.7325 L9.32154742,9.731875 L9.32085413,9.7325 Z" id="Shape" fill="#1A7EF5" fill-rule="nonzero"></path>
                </g>
            </g>
        </g>
    </g>
</svg>