<?xml version="1.0" encoding="UTF-8"?>
<svg width="26px" height="27px" viewBox="0 0 26 27" version="1.1" xmlns="http://www.w3.org/2000/svg" xmlns:xlink="http://www.w3.org/1999/xlink">
    <title>FEF9325F-517C-48EA-B0C0-1F735A0211F7</title>
    <g id="Welcome" stroke="none" stroke-width="1" fill="none" fill-rule="evenodd">
        <g id="Boutique-/-Présentoire-/-Voir_Produit" transform="translate(-607.000000, -539.000000)" fill-rule="nonzero">
            <g id="Group-3" transform="translate(247.000000, 137.500000)">
                <g id="Icons/Favoris-Copy-2" transform="translate(360.000000, 402.000000)">
                    <circle id="Cercle-de-survole-icone-Copy" fill="#FFFFFF" cx="13" cy="13" r="13"></circle>
                    <path d="M13,0 C16.4724219,0 19.7369961,1.35225391 22.1924219,3.80757813 C24.6477461,6.26300391 26,9.52757812 26,13 C26,16.4724219 24.6477461,19.7369961 22.1924219,22.1924219 C19.7369961,24.6477461 16.4724219,26 13,26 C9.52757812,26 6.26300391,24.6477461 3.80757813,22.1924219 C1.35225391,19.7369961 0,16.4724219 0,13 C0,9.52757812 1.35225391,6.26300391 3.80757813,3.80757813 C6.26300391,1.35225391 9.52757812,0 13,0 Z M13,1.5234375 C6.67179297,1.5234375 1.5234375,6.67179297 1.5234375,13 C1.5234375,19.328207 6.67179297,24.4765625 13,24.4765625 C19.328207,24.4765625 24.4765625,19.328207 24.4765625,13 C24.4765625,6.67179297 19.328207,1.5234375 13,1.5234375 Z M16.8769804,5.62162162 C18.420181,5.62162162 19.6756757,6.85204499 19.6756757,8.36442895 C19.6756757,9.8768129 18.420181,11.1072363 16.8769804,11.1072363 C16.1034211,11.1072363 15.4022716,10.7979972 14.8951989,10.2991554 L14.8951989,10.2991554 L10.4415588,12.7239466 C10.4898999,12.9256178 10.5163094,13.1354176 10.5163094,13.3513514 C10.5163094,13.5672851 10.4898999,13.7771348 10.4415588,13.9787561 L10.4415588,13.9787561 L14.8951989,16.4035473 C15.4022716,15.9047055 16.1034211,15.5954664 16.8769804,15.5954664 C18.420181,15.5954664 19.6756757,16.8258898 19.6756757,18.3382738 C19.6756757,19.8506577 18.420181,21.0810811 16.8769804,21.0810811 C15.3337799,21.0810811 14.0782852,19.8506577 14.0782852,18.3382738 C14.0782852,18.1223899 14.1046947,17.9125402 14.1530358,17.710869 L14.1530358,17.710869 L9.69939571,15.2860778 C9.19232302,15.7849196 8.49117353,16.0941587 7.71761417,16.0941587 C6.17441361,16.0941587 4.91891892,14.8637353 4.91891892,13.3513514 C4.91891892,11.8389674 6.17441361,10.608544 7.71761417,10.608544 C8.49117353,10.608544 9.19232302,10.9177831 9.69939571,11.4166249 L9.69939571,11.4166249 L14.1530358,8.99183365 C14.1046947,8.79016251 14.0782852,8.58031282 14.0782852,8.36442895 C14.0782852,6.85204499 15.3337799,5.62162162 16.8769804,5.62162162 Z M16.8769804,17.0915432 C16.1755256,17.0915432 15.6048462,17.6508265 15.6048462,18.3382738 C15.6048462,19.025721 16.1755256,19.5850044 16.8769804,19.5850044 C17.5784352,19.5850044 18.1491146,19.025721 18.1491146,18.3382738 C18.1491146,17.6508265 17.5784352,17.0915432 16.8769804,17.0915432 Z M7.71761417,12.1046207 C7.01615937,12.1046207 6.44547996,12.6639041 6.44547996,13.3513514 C6.44547996,14.0387986 7.01615937,14.598082 7.71761417,14.598082 C8.41906897,14.598082 8.98974837,14.0387986 8.98974837,13.3513514 C8.98974837,12.6639041 8.41906897,12.1046207 7.71761417,12.1046207 Z M16.8769804,7.11769834 C16.1755256,7.11769834 15.6048462,7.67698169 15.6048462,8.36442895 C15.6048462,9.0518762 16.1755256,9.61115955 16.8769804,9.61115955 C17.5784352,9.61115955 18.1491146,9.0518762 18.1491146,8.36442895 C18.1491146,7.67698169 17.5784352,7.11769834 16.8769804,7.11769834 Z" id="Combined-Shape" fill="#1A7EF5"></path>
                </g>
            </g>
        </g>
    </g>
</svg>